<?xml version="1.0" encoding="utf-8"?>
<!-- Generator: Adobe Illustrator 27.0.0, SVG Export Plug-In . SVG Version: 6.00 Build 0)  -->
<svg version="1.1" id="Layer_1" xmlns="http://www.w3.org/2000/svg" xmlns:xlink="http://www.w3.org/1999/xlink" x="0px" y="0px"
	 viewBox="0 0 600 1200" style="enable-background:new 0 0 600 1200;" xml:space="preserve">
<style type="text/css">
	.st0{fill:#3F2D21;}
	.st1{fill:#6E5843;}
	.st2{fill:none;}
	.st3{fill:#FFFFFF;}
	.st4{clip-path:url(#SVGID_00000041266946828814572420000000836865758430933132_);}
	.st5{fill:#99600E;}
	.st6{clip-path:url(#SVGID_00000031182455673690648720000009096177575117290628_);}
</style>
<g>
	<g>
		<path class="st0" d="M356.6,246.9c-2.3-15.6-11.5-29.9-18.9-36.6c-7.4-6.7-19.7-3.6-19.7-3.6c-36.2-7-48.3,27.8-50.6,51.7
			c-2.3,23.9,0,45.1,0,45.1c0-5.3,3.1-10.1,3.1-10.1c1,30.6,20.1,41,20.1,41c2-6.3,3.2-14.3,3.3-18.8c-0.7-0.6-1.4-1.2-2.1-1.9
			c-4.7-4.5-7.1-8-9.8-15.2l-0.6-3.2c-4.7,2.1-5.3-2.8-8.2-9.4c-1.6-3.4-2.4-6.9-1.4-8.6c0.3-2.5,2.3-3.2,4-3.4
			c2.1-0.3,3.3,0.6,3.7,1.1c-0.1-1-0.2-2-0.3-3c0-0.1,0.1-0.2,0.1-0.4c0-0.4-0.1-0.7-0.1-1.1c6.8-23.4,32.9-35.3,38.8-35.3
			c3.9,0,10.6,5.6,13.3,11.3c2.7,5.6,10.6,30.8,11.1,48.6c0,0,0,0.1-0.1,0.1c0,0.5,0,0.9,0.1,1.4c-0.9,5.7-1.7,11.4-6.2,15.8
			c-1,0.9-1.6,1.3-2.5,2c-0.2,7,0.5,21.6,8.8,25.6c6.6,3.2,15.6,4.3,26.7,7.4C359.9,322.5,358.9,262.5,356.6,246.9z"/>
		<g>
			<g>
				<path class="st1" d="M335,218.2c0,0,6.4,11.2,6.8,15.1c0,0-7.4-12.4-13.1-15.1c0,0,6.4,8.8,7.5,11.6c0,0-5.4-5.1-10.5-7.2
					c0,0,7.6,5.8,10.4,10.7c0,0-8.2-6.7-12.4-6.9c0,0,14.2,10.6,19.7,29.1s3.2,32.6,7.5,49.2S359,331,359,331s-3.6-15-3.2-20.5
					c0,0,1.8,5.3,3.6,7.6c0,0-3.8-15.4-3.6-24.2C356,285.1,354.9,231.3,335,218.2z"/>
				<path class="st1" d="M276.9,241.5c5.2-11.6,14.2-26.4,30.3-30.9c0,0-7.9,5-10.2,11.1c0,0,1.6-3.3,8.1-5.6
					c0,0-9.2,10.3-11.4,16.9c0,0,6.8-5,13.6-8.6c0,0-4.2,4.1-5.1,7.5c0,0,3.6-3.6,9.7-5.8c0,0-9.5,11.4-15.6,17.1
					s-12.2,13.1-14.7,18.7c-2.5,5.6-11.1,14.5-11.1,14.5s8.6-21.2,11.1-25.3c0,0-7.5,11.9-8.6,14.6
					C273.1,265.6,273.6,249.1,276.9,241.5z"/>
				<path class="st1" d="M293.2,317.7c0,0-10.4-12.7-11-18.3c0,0,0,3.3,0.7,5.6c0,0-4.5-2.8-6.7-8c0,0,2.8,8.7,5.9,13
					c0,0-4.2-3.1-5-4.6c0,0,3.9,13.3,9.4,18c0,0-2.3-5.7-2.2-8.2c0,0,2,7.5,8.9,9.8c0.3,0.1,0.7-0.1,0.1-0.8c-1.6-1.9-4.6-6-4.6-9.7
					C288.6,314.3,290.4,317.3,293.2,317.7z"/>
			</g>
			<g>
				<path class="st2" d="M318.1,236.7c3.9,0,10.6,5.6,13.3,11.3c2.7,5.5,10.2,29.6,11,47.3c0,0,0-0.1,0.1-0.1
					c-0.5-17.8-8.4-43-11.1-48.6c-2.7-5.6-9.5-11.3-13.3-11.3c-5.9,0-32,11.9-38.8,35.3c0,0.4,0.1,0.7,0.1,1.1
					C286.4,248.5,312.2,236.7,318.1,236.7z"/>
				<path class="st2" d="M275.9,275.4c2.8-0.3,3.8,1.3,3.8,1.3l0,0.2c-0.1-0.6-0.2-1.3-0.2-1.9c-0.4-0.4-1.5-1.3-3.7-1.1
					c-1.7,0.2-3.3,1.5-3.6,4C273.2,276.4,274.6,275.6,275.9,275.4z"/>
			</g>
		</g>
		<g>
			<path d="M292,242.5c0.1,0.1,0.2,0.1,0.3,0.1c0.2,0,0.3-0.1,0.4-0.2c6-9.3,22.2-17.2,22.4-17.3c0.2-0.1,0.4-0.4,0.2-0.7
				c-0.1-0.2-0.4-0.4-0.7-0.2c-0.7,0.3-16.7,8.1-22.8,17.6C291.7,242,291.8,242.3,292,242.5z"/>
			<path d="M310.3,222.5c-0.3,0.1-8,2.6-11.9,6.7c-0.2,0.2-0.2,0.5,0,0.7c0.1,0.1,0.2,0.1,0.3,0.1c0.1,0,0.3-0.1,0.4-0.2
				c3.8-3.9,11.4-6.4,11.5-6.4c0.3-0.1,0.4-0.4,0.3-0.6S310.6,222.4,310.3,222.5z"/>
			<path d="M293.4,226.8c0.1,0,0.2,0.1,0.2,0.1c0.2,0,0.4-0.1,0.4-0.3c4.2-8.3,16.4-12.3,16.6-12.4c0.3-0.1,0.4-0.4,0.3-0.6
				c-0.1-0.3-0.4-0.4-0.6-0.3c-0.5,0.2-12.7,4.2-17.2,12.9C293,226.4,293.1,226.7,293.4,226.8z"/>
			<path d="M337.7,246.8c0.1,0.2,0.3,0.3,0.5,0.3c0.1,0,0.1,0,0.2,0c0.3-0.1,0.4-0.4,0.3-0.6c-3.4-10-10.9-16.9-11-17
				c-0.2-0.2-0.5-0.2-0.7,0c-0.2,0.2-0.2,0.5,0,0.7C327.1,230.3,334.4,237.1,337.7,246.8z"/>
			<path d="M338.4,238.4c0.1,0.2,0.3,0.3,0.5,0.3c0.1,0,0.1,0,0.2,0c0.3-0.1,0.4-0.4,0.3-0.6c-0.9-2.5-5.1-8.3-5.3-8.5
				c-0.2-0.2-0.5-0.3-0.7-0.1c-0.2,0.2-0.3,0.5-0.1,0.7C333.2,230.2,337.6,236.1,338.4,238.4z"/>
		</g>
		<g>
			<path class="st2" d="M356.1,247c-2.2-15.3-11.3-29.5-18.7-36.3c-7.1-6.4-19.1-3.5-19.2-3.5c-0.1,0-0.1,0-0.2,0
				c-11.5-2.2-21.4-0.3-29.3,5.6c-15.9,11.9-19.7,35.9-20.6,45.6c-1.6,17.2-0.9,33.2-0.4,40.6c0.9-3.3,2.5-5.8,2.6-6
				c0.1-0.2,0.3-0.3,0.5-0.2c0.2,0.1,0.4,0.2,0.4,0.5c1.2,24.2,13.7,36,19.5,40.2c0.5-1.3,0.9-2.8,1.2-4.2c-3.8-2.7-7.7-7-7.8-7.2
				c-0.2-0.2-0.2-0.5,0-0.7c0.2-0.2,0.5-0.2,0.7,0c0,0,3.8,4.1,7.3,6.8c0.3-1.5,0.5-3,0.7-4.5c-1-0.8-1.7-1.5-1.7-1.6
				c-0.2-0.2-0.2-0.5,0-0.7c0.2-0.2,0.5-0.2,0.7,0c0,0,0.4,0.5,1.1,1c0.3-3.1,0.3-5.8,0.3-7.4c-1-0.8-2-1.8-3.1-2.8
				c-4.5-4.4-7-9.7-8.6-16.5c-0.5,0.2-1,0.3-1.5,0.3c-0.5,0-1.1-0.1-1.5-0.3c-2.4-1.1-3.6-4.8-5.1-9c-0.3-1-0.7-2-1.1-3
				c-1.7-4.6-1-7.2-0.1-8.6c0.8-1.2,2.1-1.9,3.5-2c1.7-0.1,2.7,0.4,3.3,0.8c-0.1-1.5-0.2-3-0.3-4.6l-0.3-4.3c0-0.3,0.2-0.5,0.5-0.5
				c0.3,0,0.5,0.2,0.5,0.5l0.2,3c7.9-22.3,33.2-33.4,38.5-33.4c4.1,0,10.9,5.7,13.8,11.6c2.7,5.5,10.6,30.7,11.1,48.5
				c0,0.1,0.1,0.2,0,0.3c-0.3,1.3-0.5,2.6-0.7,3.8c-0.9,5.4-1.6,9.7-5.5,13.5c-0.9,0.9-1.8,1.6-2.6,2.4c0,0,0,0.1,0,0.1
				c-0.5,5.4-0.7,17.7,7,23.9c-0.5-5.4-0.4-15.1-0.4-15.2c0-0.3,0.2-0.5,0.5-0.5c0,0,0,0,0,0c0.3,0,0.5,0.2,0.5,0.5
				c0,0.1-0.1,10.3,0.4,15.6c0,0.1,0,0.2-0.1,0.3c0.5,0.3,1,0.7,1.6,1c0.6,0.3,1.3,0.6,2,0.9c-1.2-10.4-1.4-32.8-1.4-33.1
				c0-0.3,0.2-0.5,0.5-0.5c0,0,0,0,0,0c0.3,0,0.5,0.2,0.5,0.5c0,0.2,0.2,23.3,1.4,33.4c2.6,0.8,5.9,1.6,9.9,2.5c2.2,0.5,4.6,1,7,1.6
				c-6.4-12.9-8.5-30.8-8.5-31c0-0.3,0.2-0.5,0.4-0.6c0.3,0,0.5,0.2,0.6,0.4c0,0.2,2.2,18.7,8.7,31.4c0,0,0,0,0,0.1
				c1.2,0.3,2.3,0.6,3.5,0.9c-6.2-18.9-8.8-54.5-10.5-78.2C357.3,259,356.7,251.3,356.1,247z"/>
		</g>
		<g>
			<path class="st2" d="M283.9,322.2c-0.2-0.2-0.2-0.5,0-0.7c0.2-0.2,0.5-0.2,0.7,0c0,0,3.8,4.1,7.3,6.8c0.3-1.5,0.5-3,0.7-4.5
				c-1-0.8-1.7-1.5-1.7-1.6c-0.2-0.2-0.2-0.5,0-0.7c0.2-0.2,0.5-0.2,0.7,0c0,0,0.4,0.5,1.1,1c0.3-3.1,0.3-5.8,0.3-7.4
				c-1-0.8-2-1.8-3.1-2.8c-4.5-4.4-7-9.7-8.6-16.5c-0.5,0.2-1,0.3-1.5,0.3c-0.5,0-1.1-0.1-1.5-0.3c-2.4-1.1-3.6-4.8-5.1-9
				c-0.3-1-0.7-2-1.1-3c-1.7-4.6-1-7.2-0.1-8.6c0.8-1.2,2.1-1.9,3.5-2c1.7-0.1,2.7,0.4,3.3,0.8c-0.1-1.5-0.2-3-0.3-4.6l-0.3-4.3
				c0-0.3,0.2-0.5,0.5-0.5c0.3,0,0.5,0.2,0.5,0.5l0.2,3c7.9-22.3,33.2-33.4,38.5-33.4c4.1,0,10.9,5.7,13.8,11.6
				c2.7,5.5,10.6,30.7,11.1,48.5c0,0.1,0.1,0.2,0,0.3c-0.3,1.3-0.5,2.6-0.7,3.8c-0.9,5.4-1.6,9.7-5.5,13.5c-0.9,0.9-1.8,1.6-2.6,2.4
				c0,0,0,0.1,0,0.1c-0.5,5.4-0.7,17.7,7,23.9c-0.5-5.4-0.4-15.1-0.4-15.2c0-0.3,0.2-0.5,0.5-0.5c0,0,0,0,0,0c0.3,0,0.5,0.2,0.5,0.5
				c0,0.1-0.1,10.3,0.4,15.6c0,0.1,0,0.2-0.1,0.3c0.5,0.3,1,0.7,1.6,1c0.6,0.3,1.3,0.6,2,0.9c-1.2-10.4-1.4-32.8-1.4-33.1
				c0-0.3,0.2-0.5,0.5-0.5c0,0,0,0,0,0c0.3,0,0.5,0.2,0.5,0.5c0,0.2,0.2,23.3,1.4,33.4c2.6,0.8,5.9,1.6,9.9,2.5c2.2,0.5,4.6,1,7,1.6
				c-6.4-12.9-8.5-30.8-8.5-31c0-0.3,0.2-0.5,0.4-0.6c0.3,0,0.5,0.2,0.6,0.4c0,0.2,2.2,18.7,8.7,31.4c0,0,0,0,0,0.1
				c1.2,0.3,2.3,0.6,3.5,0.9c-6.2-18.9-8.8-54.5-10.5-78.2c-0.7-9.8-1.3-17.5-1.9-21.8c-2.2-15.3-11.3-29.5-18.7-36.3
				c-7.1-6.4-19.1-3.5-19.2-3.5c-0.1,0-0.1,0-0.2,0c-11.5-2.2-21.4-0.3-29.3,5.6c-15.9,11.9-19.7,35.9-20.6,45.6
				c-1.6,17.2-0.9,33.2-0.4,40.6c0.9-3.3,2.5-5.8,2.6-6c0.1-0.2,0.3-0.3,0.5-0.2c0.2,0.1,0.4,0.2,0.4,0.5
				c1.2,24.2,13.7,36,19.5,40.2c0.5-1.3,0.9-2.8,1.2-4.2C288,326.7,284.1,322.4,283.9,322.2z"/>
			<path class="st2" d="M369.8,347.3l-0.6-1.9C369.3,346.1,369.5,346.7,369.8,347.3C369.7,347.3,369.7,347.3,369.8,347.3z"/>
		</g>
	</g>
	<g>
		<path class="st2" d="M281.2,294.9C281.2,294.9,281.2,294.9,281.2,294.9L281.2,294.9C281.2,294.9,281.2,294.9,281.2,294.9z"/>
		<path class="st2" d="M279,275.5c-0.1,0-0.2-0.1-0.3-0.2l0.3,0.4C279,275.6,279,275.5,279,275.5z"/>
		<path class="st2" d="M356.1,247c-2.2-15.3-11.3-29.5-18.7-36.3c-7.1-6.4-19.1-3.5-19.2-3.5c-0.1,0-0.1,0-0.2,0
			c-11.5-2.2-21.4-0.3-29.3,5.6c-15.9,11.9-19.7,35.9-20.6,45.6c-1.6,17.2-0.9,33.2-0.4,40.6c0.9-3.3,2.5-5.8,2.6-6
			c0.1-0.2,0.3-0.3,0.5-0.2c0.2,0.1,0.4,0.2,0.4,0.5c1.2,24.2,13.7,36,19.5,40.2c0.5-1.3,0.9-2.8,1.2-4.2c-3.8-2.7-7.7-7-7.8-7.2
			c-0.2-0.2-0.2-0.5,0-0.7c0.2-0.2,0.5-0.2,0.7,0c0,0,3.8,4.1,7.3,6.8c0.3-1.5,0.5-3,0.7-4.5c-1-0.8-1.7-1.5-1.7-1.6
			c-0.2-0.2-0.2-0.5,0-0.7c0.2-0.2,0.5-0.2,0.7,0c0,0,0.4,0.5,1.1,1c0.3-3.1,0.3-5.8,0.3-7.4c-1-0.8-2-1.8-3.1-2.8
			c-4.5-4.4-7-9.7-8.6-16.5c-0.5,0.2-1,0.3-1.5,0.3c-0.5,0-1.1-0.1-1.5-0.3c-2.4-1.1-3.6-4.8-5.1-9c-0.3-1-0.7-2-1.1-3
			c-1.7-4.6-1-7.2-0.1-8.6c0.8-1.2,2.1-1.9,3.5-2c1.7-0.1,2.7,0.4,3.3,0.8c-0.1-1.5-0.2-3-0.3-4.6l-0.3-4.3c0-0.3,0.2-0.5,0.5-0.5
			c0.3,0,0.5,0.2,0.5,0.5l0.2,3c7.9-22.3,33.2-33.4,38.5-33.4c4.1,0,10.9,5.7,13.8,11.6c2.7,5.5,10.6,30.7,11.1,48.5
			c0,0.1,0.1,0.2,0,0.3c-0.3,1.3-0.5,2.6-0.7,3.8c-0.9,5.4-1.6,9.7-5.5,13.5c-0.9,0.9-1.8,1.6-2.6,2.4c0,0,0,0.1,0,0.1
			c-0.5,5.4-0.7,17.7,7,23.9c-0.5-5.4-0.4-15.1-0.4-15.2c0-0.3,0.2-0.5,0.5-0.5c0,0,0,0,0,0c0.3,0,0.5,0.2,0.5,0.5
			c0,0.1-0.1,10.3,0.4,15.6c0,0.1,0,0.2-0.1,0.3c0.5,0.3,1,0.7,1.6,1c0.6,0.3,1.3,0.6,2,0.9c-1.2-10.4-1.4-32.8-1.4-33.1
			c0-0.3,0.2-0.5,0.5-0.5c0,0,0,0,0,0c0.3,0,0.5,0.2,0.5,0.5c0,0.2,0.2,23.3,1.4,33.4c2.6,0.8,5.9,1.6,9.9,2.5c2.2,0.5,4.6,1,7,1.6
			c-6.4-12.9-8.5-30.8-8.5-31c0-0.3,0.2-0.5,0.4-0.6c0.3,0,0.5,0.2,0.6,0.4c0,0.2,2.2,18.7,8.7,31.4c0,0,0,0,0,0.1
			c1.2,0.3,2.3,0.6,3.5,0.9c-6.2-18.9-8.8-54.5-10.5-78.2C357.3,259,356.7,251.3,356.1,247z"/>
	</g>
	<g>
		<path class="st2" d="M356.1,247c-2.2-15.3-11.3-29.5-18.7-36.3c-7.1-6.4-19.1-3.5-19.2-3.5c-0.1,0-0.1,0-0.2,0
			c-11.5-2.2-21.4-0.3-29.3,5.6c-15.9,11.9-19.7,35.9-20.6,45.6c-1.6,17.2-0.9,33.2-0.4,40.6c0.9-3.3,2.5-5.8,2.6-6
			c0.1-0.2,0.3-0.3,0.5-0.2c0.2,0.1,0.4,0.2,0.4,0.5c1.2,24.2,13.7,36,19.5,40.2c0.5-1.3,0.9-2.8,1.2-4.2c-3.8-2.7-7.7-7-7.8-7.2
			c-0.2-0.2-0.2-0.5,0-0.7c0.2-0.2,0.5-0.2,0.7,0c0,0,3.8,4.1,7.3,6.8c0.3-1.5,0.5-3,0.7-4.5c-1-0.8-1.7-1.5-1.7-1.6
			c-0.2-0.2-0.2-0.5,0-0.7c0.2-0.2,0.5-0.2,0.7,0c0,0,0.4,0.5,1.1,1c0.3-3.1,0.3-5.8,0.3-7.4c-1-0.8-2-1.8-3.1-2.8
			c-4.5-4.4-7-9.7-8.6-16.5c-0.5,0.2-1,0.3-1.5,0.3c-0.5,0-1.1-0.1-1.5-0.3c-2.4-1.1-3.6-4.8-5.1-9c-0.3-1-0.7-2-1.1-3
			c-1.7-4.6-1-7.2-0.1-8.6c0.8-1.2,2.1-1.9,3.5-2c1.7-0.1,2.7,0.4,3.3,0.8c-0.1-1.5-0.2-3-0.3-4.6l-0.3-4.3c0-0.3,0.2-0.5,0.5-0.5
			c0.3,0,0.5,0.2,0.5,0.5l0.2,3c7.9-22.3,33.2-33.4,38.5-33.4c4.1,0,10.9,5.7,13.8,11.6c2.7,5.5,10.6,30.7,11.1,48.5
			c0,0.1,0.1,0.2,0,0.3c-0.3,1.3-0.5,2.6-0.7,3.8c-0.9,5.4-1.6,9.7-5.5,13.5c-0.9,0.9-1.8,1.6-2.6,2.4c0,0,0,0.1,0,0.1
			c-0.5,5.4-0.7,17.7,7,23.9c-0.5-5.4-0.4-15.1-0.4-15.2c0-0.3,0.2-0.5,0.5-0.5c0,0,0,0,0,0c0.3,0,0.5,0.2,0.5,0.5
			c0,0.1-0.1,10.3,0.4,15.6c0,0.1,0,0.2-0.1,0.3c0.5,0.3,1,0.7,1.6,1c0.6,0.3,1.3,0.6,2,0.9c-1.2-10.4-1.4-32.8-1.4-33.1
			c0-0.3,0.2-0.5,0.5-0.5c0,0,0,0,0,0c0.3,0,0.5,0.2,0.5,0.5c0,0.2,0.2,23.3,1.4,33.4c2.6,0.8,5.9,1.6,9.9,2.5c2.2,0.5,4.6,1,7,1.6
			c-6.4-12.9-8.5-30.8-8.5-31c0-0.3,0.2-0.5,0.4-0.6c0.3,0,0.5,0.2,0.6,0.4c0,0.2,2.2,18.7,8.7,31.4c0,0,0,0,0,0.1
			c1.2,0.3,2.3,0.6,3.5,0.9c-6.2-18.9-8.8-54.5-10.5-78.2C357.3,259,356.7,251.3,356.1,247z"/>
		<path d="M369.8,347.3C369.7,347.3,369.7,347.3,369.8,347.3c-0.2-0.6-0.4-1.2-0.6-1.9l0,0l0,0c-5.8-19.1-8.4-53.6-10.1-76.7
			c-0.7-9.8-1.3-17.6-1.9-21.9c-2.3-15.5-11.5-30-19-36.9c-7.2-6.5-18.7-4.1-20-3.8c-11.7-2.2-21.8-0.3-30,5.9
			c-16.2,12.1-20.1,36.4-21,46.3c-2.2,23.7,0,45,0,45.2c0,0.3,0.3,0.5,0.5,0.4c0.3,0,0.5-0.2,0.5-0.5c0-3.3,1.3-6.6,2.2-8.4
			c1.7,23.8,14.3,35.3,20,39.3l0.9,0.5c2.4-5.8,3-13.2,3-18.1v-2.2c-1.1-0.9-2.2-1.9-3.4-3.1c-4.6-4.4-7-10-8.5-17.1l-1,0.3
			c0,0,0,0,0,0c0,0,0,0-0.1,0c-0.9,0.3-1.7,0.3-2.4,0c-2-0.9-3.2-4.6-4.6-8.4c-0.3-1-0.7-2-1.1-3c-1.2-3.3-1.3-6-0.2-7.7
			c0.6-1,1.6-1.5,2.7-1.6c2.4-0.1,3.1,1,3.1,1c0.1,0.1,0.2,0.2,0.3,0.2c0,0.1,0,0.1,0,0.2l1.1,1.6c-0.1-2.1-0.3-4.2-0.4-6.5
			c0,0,0-0.1,0.1-0.1c6.8-23.3,32.9-35,38.3-35c3.7,0,10.3,5.7,12.9,11c2.7,5.5,10.6,30.7,11,48.4c0,0,0,0,0,0
			c-0.2,1.3-0.4,2.5-0.6,3.6c-0.9,5.4-1.5,9.4-5.2,12.9c-1,1-2,1.8-2.9,2.6l-0.1,1.4c0,0,0,0,0,0c-0.5,6.6-0.2,20.3,10.2,25.6
			c2.8,1.4,7.4,2.5,13.2,3.8c4.1,0.9,8.7,2,13.6,3.4L369.8,347.3z M365.1,346.1C365,346.1,365,346,365.1,346.1
			c-6.6-12.8-8.7-31.3-8.8-31.4c0-0.3-0.3-0.5-0.6-0.4c-0.3,0-0.5,0.3-0.4,0.6c0,0.2,2.1,18.2,8.5,31c-2.5-0.6-4.8-1.1-7-1.6
			c-3.9-0.9-7.3-1.7-9.9-2.5c-1.3-10.2-1.4-33.2-1.4-33.4c0-0.3-0.2-0.5-0.5-0.5c0,0,0,0,0,0c-0.3,0-0.5,0.2-0.5,0.5
			c0,0.2,0.2,22.6,1.4,33.1c-0.8-0.3-1.4-0.6-2-0.9c-0.6-0.3-1.1-0.6-1.6-1c0.1-0.1,0.1-0.2,0.1-0.3c-0.5-5.3-0.4-15.5-0.4-15.6
			c0-0.3-0.2-0.5-0.5-0.5c0,0,0,0,0,0c-0.3,0-0.5,0.2-0.5,0.5c0,0.1-0.1,9.7,0.4,15.2c-7.7-6.2-7.5-18.5-7-23.9c0,0,0-0.1,0-0.1
			c0.9-0.7,1.7-1.5,2.6-2.4c3.9-3.8,4.6-8,5.5-13.5c0.2-1.2,0.4-2.5,0.7-3.8c0-0.1,0-0.2,0-0.3c-0.5-17.9-8.5-43-11.1-48.5
			c-2.8-5.8-9.7-11.6-13.8-11.6c-5.3,0-30.6,11.1-38.5,33.4l-0.2-3c0-0.3-0.3-0.5-0.5-0.5c-0.3,0-0.5,0.3-0.5,0.5l0.3,4.3
			c0.1,1.6,0.2,3.1,0.3,4.6c-0.6-0.4-1.6-0.9-3.3-0.8c-1.4,0.1-2.7,0.8-3.5,2c-0.9,1.4-1.6,4,0.1,8.6c0.4,1,0.7,2,1.1,3
			c1.5,4.2,2.7,7.8,5.1,9c0.5,0.2,1,0.3,1.5,0.3c0.5,0,1-0.1,1.5-0.3c1.5,6.8,4,12.1,8.6,16.5c1.1,1,2.1,2,3.1,2.8
			c0,1.6,0,4.3-0.3,7.4c-0.6-0.6-1.1-1-1.1-1c-0.2-0.2-0.5-0.2-0.7,0c-0.2,0.2-0.2,0.5,0,0.7c0,0,0.7,0.7,1.7,1.6
			c-0.2,1.5-0.4,3-0.7,4.5c-3.6-2.7-7.3-6.7-7.3-6.8c-0.2-0.2-0.5-0.2-0.7,0c-0.2,0.2-0.2,0.5,0,0.7c0.2,0.2,4.1,4.5,7.8,7.2
			c-0.3,1.4-0.7,2.8-1.2,4.2c-5.8-4.2-18.3-16-19.5-40.2c0-0.2-0.2-0.4-0.4-0.5c-0.2-0.1-0.4,0-0.5,0.2c-0.1,0.1-1.7,2.6-2.6,6
			c-0.5-7.4-1.3-23.4,0.4-40.6c0.9-9.8,4.8-33.8,20.6-45.6c8-6,17.9-7.9,29.3-5.6c0.1,0,0.1,0,0.2,0c0.1,0,12.2-2.9,19.2,3.5
			c7.5,6.8,16.5,21,18.7,36.3c0.6,4.3,1.2,12,1.9,21.8c1.7,23.7,4.4,59.3,10.5,78.2C367.4,346.7,366.2,346.4,365.1,346.1z"/>
	</g>
</g>
<path d="M301.9,271c-0.1,0-0.2,0-0.3-0.1c-7.8-7.4-16.3-2.8-16.7-2.6c-0.2,0.1-0.5,0-0.7-0.2s0-0.5,0.2-0.7
	c0.1-0.1,9.6-5.2,17.9,2.8c0.2,0.2,0.2,0.5,0,0.7C302.2,271,302.1,271,301.9,271z"/>
<path d="M325,271c-0.1,0-0.3-0.1-0.4-0.2c-0.2-0.2-0.2-0.5,0-0.7c8.3-8,17.8-2.8,17.9-2.8c0.2,0.1,0.3,0.4,0.2,0.7s-0.4,0.3-0.7,0.2
	c-0.4-0.2-8.9-4.8-16.7,2.6C325.2,271,325.1,271,325,271z"/>
<path d="M303.6,281c0,0-1.2-4.3-5.5-7c-4.3-2.7-9.7-1.3-9.7-1.3s7,1.5,1.1,0.9c-4-0.4-4.6,0.9-4.6,0.9s7.1,0.4,2.4,0.6
	c-3.4,0.2-3.8,1.5-3.8,1.5s5.5-0.5,1.9,1c-1.7,0.7-1.9,2.1-1.9,2.1s1.9-1,3.3-0.4c0,0-0.7,1-0.6,2.2c0,0,0.9-1.2,1.9-1.1
	c1,0.1,6-4.1,6-4.1L303.6,281z"/>
<g>
	<path class="st3" d="M286.2,278.1c0,0,11.2-8.9,18.5,4.7C304.7,282.8,292.8,288.8,286.2,278.1z"/>
	<path d="M297.3,285c-3.8,0-8.3-1.4-11.5-6.6c-0.1-0.2-0.1-0.5,0.1-0.7c0.2-0.2,4.9-3.9,10.4-2.8c3.5,0.7,6.5,3.3,8.9,7.7
		c0.1,0.1,0.1,0.3,0,0.4s-0.1,0.2-0.3,0.3C304.9,283.3,301.5,285,297.3,285z M286.9,278.2c2.6,4,6.3,6,11,5.8c2.8-0.1,5.2-1,6.2-1.4
		c-2.1-3.8-4.8-6-7.9-6.7C291.9,275,288,277.4,286.9,278.2z"/>
</g>
<path d="M323.2,281c0,0,1.2-4.3,5.5-7c4.3-2.7,9.7-1.3,9.7-1.3s-7,1.5-1.1,0.9c4-0.4,4.6,0.9,4.6,0.9s-7.1,0.4-2.4,0.6
	c3.4,0.2,3.8,1.5,3.8,1.5s-5.5-0.5-1.9,1c1.7,0.7,1.9,2.1,1.9,2.1s-1.9-1-3.3-0.4c0,0,0.7,1,0.6,2.2c0,0-0.9-1.2-1.9-1.1
	c-1,0.1-6-4.1-6-4.1L323.2,281z"/>
<g>
	<path class="st3" d="M340.6,278.1c0,0-11.2-8.9-18.5,4.7C322.1,282.8,334.1,288.8,340.6,278.1z"/>
	<path d="M329.6,285c-4.2,0-7.6-1.7-7.7-1.7c-0.1-0.1-0.2-0.2-0.3-0.3s0-0.3,0-0.4c2.3-4.4,5.3-6.9,8.9-7.7
		c5.5-1.1,10.2,2.6,10.4,2.8c0.2,0.2,0.2,0.4,0.1,0.7C337.9,283.6,333.4,285,329.6,285z M322.8,282.6c1,0.4,3.4,1.3,6.2,1.4
		c4.7,0.2,8.4-1.8,11-5.8c-1.2-0.8-5-3.2-9.2-2.3C327.6,276.5,325,278.8,322.8,282.6z"/>
</g>
<g>
	<defs>
		<path id="SVGID_1_" d="M286.2,278.1c0,0,11.2-8.9,18.5,4.7C304.7,282.8,292.8,288.8,286.2,278.1z"/>
	</defs>
	<clipPath id="SVGID_00000098195046117641947240000016726470247358944414_">
		<use xlink:href="#SVGID_1_"  style="overflow:visible;"/>
	</clipPath>
	<g style="clip-path:url(#SVGID_00000098195046117641947240000016726470247358944414_);">
		<g>
			<circle class="st5" cx="296.1" cy="279.9" r="5.4"/>
			<path d="M296.1,285.5c-3.1,0-5.6-2.5-5.6-5.6s2.5-5.6,5.6-5.6c3.1,0,5.6,2.5,5.6,5.6S299.2,285.5,296.1,285.5z M296.1,274.7
				c-2.8,0-5.1,2.3-5.1,5.1c0,2.8,2.3,5.1,5.1,5.1s5.1-2.3,5.1-5.1C301.2,277,298.9,274.7,296.1,274.7z"/>
		</g>
		<circle cx="296.1" cy="279.9" r="2.3"/>
		<circle class="st3" cx="297.3" cy="278.6" r="1.4"/>
	</g>
</g>
<path d="M297.3,285c-3.8,0-8.3-1.4-11.5-6.6c-0.1-0.2-0.1-0.5,0.1-0.7c0.2-0.2,4.9-3.9,10.4-2.8c3.5,0.7,6.5,3.3,8.9,7.7
	c0.1,0.1,0.1,0.3,0,0.4s-0.1,0.2-0.3,0.3C304.9,283.3,301.5,285,297.3,285z M286.9,278.2c2.6,4,6.3,6,11,5.8c2.8-0.1,5.2-1,6.2-1.4
	c-2.1-3.8-4.8-6-7.9-6.7C291.9,275,288,277.4,286.9,278.2z"/>
<g>
	<defs>
		<path id="SVGID_00000100353969368044396930000005052340838589108622_" d="M340.6,278.1c0,0-11.2-8.9-18.5,4.7
			C322.1,282.8,334.1,288.8,340.6,278.1z"/>
	</defs>
	<clipPath id="SVGID_00000007420872520095674850000010028324979577273514_">
		<use xlink:href="#SVGID_00000100353969368044396930000005052340838589108622_"  style="overflow:visible;"/>
	</clipPath>
	<g style="clip-path:url(#SVGID_00000007420872520095674850000010028324979577273514_);">
		<g>
			<path class="st5" d="M336.2,279.9c0,3-2.4,5.4-5.4,5.4c-3,0-5.4-2.4-5.4-5.4c0-3,2.4-5.4,5.4-5.4
				C333.7,274.5,336.2,276.9,336.2,279.9z"/>
			<path d="M330.8,285.5c-3.1,0-5.6-2.5-5.6-5.6s2.5-5.6,5.6-5.6c3.1,0,5.6,2.5,5.6,5.6S333.9,285.5,330.8,285.5z M330.8,274.7
				c-2.8,0-5.1,2.3-5.1,5.1c0,2.8,2.3,5.1,5.1,5.1s5.1-2.3,5.1-5.1C335.9,277,333.6,274.7,330.8,274.7z"/>
		</g>
		<circle cx="330.8" cy="279.9" r="2.3"/>
		<circle class="st3" cx="332" cy="278.6" r="1.4"/>
	</g>
</g>
<path d="M329.6,285c-4.2,0-7.6-1.7-7.7-1.7c-0.1-0.1-0.2-0.2-0.3-0.3s0-0.3,0-0.4c2.3-4.4,5.3-6.9,8.9-7.7
	c5.5-1.1,10.2,2.6,10.4,2.8c0.2,0.2,0.2,0.4,0.1,0.7C337.9,283.6,333.4,285,329.6,285z M322.8,282.6c1,0.4,3.4,1.3,6.2,1.4
	c4.7,0.2,8.4-1.8,11-5.8c-1.2-0.8-5-3.2-9.2-2.3C327.6,276.5,325,278.8,322.8,282.6z"/>
</svg>
