<?xml version="1.0" encoding="utf-8"?>
<!-- Generator: Adobe Illustrator 27.0.0, SVG Export Plug-In . SVG Version: 6.00 Build 0)  -->
<svg version="1.1" id="Layer_1" xmlns="http://www.w3.org/2000/svg" xmlns:xlink="http://www.w3.org/1999/xlink" x="0px" y="0px"
	 viewBox="0 0 600 1200" style="enable-background:new 0 0 600 1200;" xml:space="preserve">
<style type="text/css">
	.st0{fill:#D4A444;}
	.st1{fill:#F5D463;}
	.st2{fill:none;}
	.st3{fill:#FFFFFF;}
	.st4{clip-path:url(#SVGID_00000157308882206831490500000012421053853076386988_);}
	.st5{fill:#0AACDD;}
	.st6{clip-path:url(#SVGID_00000091011902727071127650000017698478604307670182_);}
</style>
<g>
	<g>
		<g>
			<g>
				<path class="st0" d="M354.7,226.2c-9.7-13.3-21.4-7.7-21.4-7.7s-9.1-14.9-28.5-12.9c-19.4,2-31.3,13.9-34.7,25.4
					c0,0,5.1-6.8,10.5-7.8c0,0-17.3,14.9-20.3,37.9c-3,23,9.1,48.8,8.5,57.3c-0.7,8.4-12.2,26.1-12.2,26.1s9.2-5.8,15.9-13.6
					c0,0,1.6,13.9,6,16.3c0,0-0.8-2.4,0-9.5c0,0,3.5,6.4,7.7,6.8c0,0-2.8-9.6-2.7-15.5c0,0,5.5,7.8,13.7,9.1c0,0-7-8.3-10.4-19.1
					l-1.7-8.1l0-5.7l-3.5-9.5c0.2-1-0.1-4.2,0.2-7.3c-0.4,4.4-1,11.7-1.2,15.4c0.2-3.7,0.5-7.9,0.9-12.2c0,0,0.3-3.2,0.3-3.2
					c0,0-0.3,3.2-0.3,3.2c1.7-17.6,5.8-38.5,16.4-48c13.2-11.9,29.1-4.1,29.1-4.1s10.9,22.6,21.2,29.4c0,0,0,0,0,0c0,0,0,0,0,0
					c1,0.7,2.1,1.2,3.1,1.5c-1-0.3-2.1-0.8-3.1-1.5c-0.8,16-3.3,27.4-6.7,32.7l-1.3,6c-0.4,11.7-8.8,20.5-8.8,20.5
					c2,0,7.5-4.7,7.5-4.7c-1.6,4.7-5.3,10.2-5.3,10.2s11.6,1.1,23.8-15c12.2-16.1,7.2-43.5,7.2-43.5c0.5,1.8,3.2,10.1,3.2,10.1
					C369.8,274.5,364.4,239.5,354.7,226.2z"/>
			</g>
			<path class="st1" d="M283.9,218.2c0,0,27.2-15.9,44.8,1.7c0,0-4.6-2-7.3-2c0,0,5.6,3.6,9.3,8.4c0,0-8.5-4.4-11.6-4.4
				c0,0,6.4,5.4,8.5,8.4c0,0-13.4-11.1-25.2-11.4c-7.7-0.2-16.8,6-16.8,6s5-6.4,7.7-8.1L283.9,218.2z"/>
			<path class="st1" d="M303.6,228.2c0,0-15.1-4.9-25.2,5.4c-10.1,10.3-12,24.4-12,24.4s2.4-5.1,4.7-7.8c0,0-3.9,14.5-2.9,28.5
				c0,0,1.2-7.7,2.9-11.4c0,0,0.7,22.4,2.7,32.5c0,0,0.5-11.2,0.8-15.1l2.9,8.6c0,0,0.7-36.8,8.5-45.6c7.8-8.8,17.4-10.8,17.4-10.8
				s-6.3-2.2-11-1c0,0,8.9-3.7,16.2-2.4c0,0-7.1-3.2-13.4-1.7L303.6,228.2z"/>
			<path class="st1" d="M333.6,234.8c0,0,9.4-3.8,17,2.2c7.6,6,13,18.8,14.2,27.7l-4.4-7.2c0,0,2.4,10.6,1.5,16.4l-3.3-8.8
				c0,0,0.5,3.8,0.3,6.3c0,0-7.6-18.3-13.4-23.3c-5.9-5-14.1-6.2-14.1-6.2s9.3-0.6,11.9,1.6c0,0-4.5-4.4-8.3-4.5
				c0,0,4.9-0.8,8.8,1.4C343.8,240.3,340.8,234.4,333.6,234.8z"/>
			<path class="st1" d="M349.5,293.6c0,0,1.9,13-2,19.7c0,0,3.1-1.4,5-3.8c0,0-0.7,5.9-6.4,12c0,0,12.7-7.2,13.9-20.5
				c1.2-13.3-6.1-20.3-6.1-20.3s3.4,9.5,1.9,17.2c0,0-0.2-6.6-2.6-8.3v8.3C353,298,352,294.4,349.5,293.6z"/>
		</g>
		<g>
			<path d="M350.6,237.5c0.2,0,0.3-0.1,0.4-0.2c0.2-0.2,0.1-0.5-0.1-0.7c-8.7-6.5-20.9-1.8-21.4-1.6c-0.3,0.1-0.4,0.4-0.3,0.6
				s0.4,0.4,0.6,0.3c0.1,0,12.1-4.7,20.4,1.5C350.4,237.5,350.5,237.5,350.6,237.5z"/>
			<path d="M340.2,238.6c-0.3-0.1-0.5,0.1-0.6,0.4c-0.1,0.3,0.1,0.5,0.4,0.6c0.1,0,6.5,1.3,10.9,4.8c0.1,0.1,0.2,0.1,0.3,0.1
				c0.1,0,0.3-0.1,0.4-0.2c0.2-0.2,0.1-0.5-0.1-0.7C347,239.9,340.5,238.6,340.2,238.6z"/>
			<path d="M312.1,214.3c-0.3,0-0.5,0.2-0.5,0.5s0.2,0.5,0.5,0.5c8.5,0.7,13.9,6.7,14,6.8c0.1,0.1,0.2,0.2,0.4,0.2
				c0.1,0,0.2,0,0.3-0.1c0.2-0.2,0.2-0.5,0-0.7C326.5,221.1,321,215,312.1,214.3z"/>
			<path d="M319.4,224.1c-0.1,0-7.9-3.7-17-5.8c-0.3-0.1-0.5,0.1-0.6,0.4c-0.1,0.3,0.1,0.5,0.4,0.6c9,2.1,16.8,5.7,16.8,5.8
				c0.1,0,0.1,0,0.2,0c0.2,0,0.4-0.1,0.5-0.3C319.8,224.5,319.7,224.2,319.4,224.1z"/>
			<path d="M276.5,235c-0.1,0.1-2.7,2.4-5.5,7.3c-2.6,4.6-5.8,12.3-6.7,23.4c0,0.3,0.2,0.5,0.5,0.5c0,0,0,0,0,0
				c0.3,0,0.5-0.2,0.5-0.5c1.7-20.9,11.8-30,11.9-30.1c0.2-0.2,0.2-0.5,0-0.7C277.1,234.8,276.7,234.8,276.5,235z"/>
			<path d="M301.4,233.1c-0.1,0-11,0.1-17.2,10.6c-0.1,0.2-0.1,0.5,0.2,0.7c0.1,0,0.2,0.1,0.3,0.1c0.2,0,0.3-0.1,0.4-0.2
				c5.9-10,16.2-10.1,16.3-10.1c0.3,0,0.5-0.2,0.5-0.5C301.9,233.3,301.7,233.1,301.4,233.1z"/>
			<path d="M276.1,256.7c-0.2-0.1-0.5,0-0.7,0.2c-0.1,0.1-6.8,12.6-7.2,23.9c0,0.3,0.2,0.5,0.5,0.5c0,0,0,0,0,0
				c0.3,0,0.5-0.2,0.5-0.5c0.3-11,7-23.3,7.1-23.4C276.4,257.1,276.3,256.8,276.1,256.7z"/>
			<path d="M350,300.7c-0.3,0-0.5,0.2-0.5,0.5c0,0.1-0.5,7.9-3.9,14.2c-0.1,0.2,0,0.5,0.2,0.7c0.1,0,0.2,0.1,0.2,0.1
				c0.2,0,0.3-0.1,0.4-0.3c3.5-6.4,4-14.2,4-14.6C350.5,300.9,350.3,300.7,350,300.7z"/>
			<path d="M352.2,287.1c-0.2,0.2-0.2,0.5-0.1,0.7c0,0,3.4,4.3,3.4,12.8c0,0.3,0.2,0.5,0.5,0.5s0.5-0.2,0.5-0.5
				c0-8.9-3.5-13.2-3.6-13.4C352.7,287,352.4,287,352.2,287.1z"/>
			<path d="M352.1,278.2c-0.2-0.1-0.5,0-0.7,0.2c-0.1,0.2,0,0.5,0.2,0.7c0.1,0,6.5,3.4,7.8,17.7c0,0.3,0.2,0.5,0.5,0.5c0,0,0,0,0,0
				c0.3,0,0.5-0.3,0.4-0.5C359,281.9,352.3,278.4,352.1,278.2z"/>
			<path d="M353.3,259.5c-0.2,0.1-0.3,0.4-0.2,0.7c0.1,0.1,5.3,10,6.3,13.8c0.1,0.2,0.3,0.4,0.5,0.4c0,0,0.1,0,0.1,0
				c0.3-0.1,0.4-0.3,0.4-0.6c-1-4-6.2-13.6-6.4-14C353.9,259.5,353.6,259.4,353.3,259.5z"/>
		</g>
	</g>
	<g>
		<path class="st2" d="M285.8,307.5c0,0.2,0,0.4,0,0.6C285.8,308,285.8,307.8,285.8,307.5C285.8,307.5,285.8,307.5,285.8,307.5z"/>
		<path class="st2" d="M339.5,309.3l-0.1,0.9c0.1-0.3,0.1-0.7,0.2-1C339.6,309.2,339.6,309.2,339.5,309.3z"/>
		<path class="st2" d="M333.5,219c-0.2,0.1-0.5,0-0.6-0.2c-0.1-0.1-9.2-14.6-28-12.6c-18.8,2-29.4,12.9-33.4,22.6
			c2-2.1,5.4-5.2,9.1-5.9c0.2,0,0.4,0.1,0.5,0.3c0.1,0.2,0,0.4-0.1,0.6c-0.2,0.1-17.2,15.1-20.2,37.6c-1.9,14.6,2.4,30.5,5.5,42.1
			c1.8,6.7,3.2,12,3,15.2c-0.6,6.9-7.9,19.4-11,24.3c4.7-3.3,16.6-12.3,19.8-21.8c0.1-0.3,0.4-0.4,0.6-0.3c0.3,0.1,0.4,0.4,0.3,0.6
			c-1.2,3.4-3.4,6.8-6,9.8c0.2,1.6,1.6,11.7,4.8,14.9c-0.2-1.4-0.3-4,0.2-8.4c0-0.2,0.2-0.4,0.4-0.4c0.2,0,0.4,0.1,0.5,0.2
			c0,0.1,3,5.4,6.6,6.4c-0.7-2.4-2.6-9.9-2.5-14.9c0-0.2,0.1-0.4,0.4-0.5c0.2-0.1,0.4,0,0.6,0.2c0.1,0.1,4.8,6.7,11.9,8.6
			c-2.9-3.5-11.2-15-11-31.6c0,0,0,0,0,0c-1.4-2.6-2.4-5.6-3.2-9c-0.2,2.3-0.3,4.7-0.5,7.1c0,0.3-0.2,0.5-0.5,0.5c0,0,0,0,0,0
			c-0.3,0-0.5-0.2-0.5-0.5c0.2-3.7,0.5-7.2,0.8-10.6c0,0,0-0.1,0-0.1c2.4-25.6,7.8-42,16.7-49.9c13.3-11.9,29.5-4.2,29.7-4.1
			c0.1,0,0.2,0.1,0.2,0.2c0.1,0.3,13.2,27.3,24,30.6c0.3,0.1,0.4,0.4,0.3,0.6c-0.1,0.3-0.4,0.4-0.6,0.3c-1-0.3-1.9-0.8-2.9-1.4
			c-1.1,13.4-2.7,24.1-6.3,32.3c0,0,0,0,0,0c-0.3,1.7-0.7,3.3-1.2,4.9c0.1,0.1,0.1,0.2,0.1,0.4c-0.5,9.3-5.6,16.9-7.9,19.9
			c1.7-0.9,4.1-2.8,5.7-4.1c0.2-0.1,0.4-0.2,0.6,0s0.3,0.4,0.2,0.6c-1.2,3.7-3.7,7.8-4.8,9.5c2.9-0.1,12.5-1.6,22.5-14.8
			c11.9-15.8,7.2-42.8,7.1-43.1c0-0.3,0.1-0.5,0.4-0.6c0.3-0.1,0.5,0.1,0.6,0.4c0.3,1.2,1.6,5.4,2.5,8c1-12.2-4-43.6-13.3-56.4
			C344.9,213.7,333.9,218.7,333.5,219z"/>
		<path d="M355.1,225.9c-5.1-7-10.8-8.8-14.7-9c-3.4-0.2-5.9,0.7-6.9,1c-1.6-2.3-10.9-14.6-28.8-12.7c-21,2.2-32,15.3-35.1,25.8
			c-0.1,0.2,0,0.5,0.3,0.6c0.2,0.1,0.5,0,0.6-0.1c0-0.1,3.8-5,8.2-7c-4.4,4.4-16.4,17.9-18.9,36.8c-2,14.8,2.4,30.8,5.5,42.5
			c1.8,6.6,3.2,11.8,3,14.8c-0.7,8.2-12,25.7-12.1,25.8c-0.1,0.2-0.1,0.5,0.1,0.6c0.1,0.1,0.2,0.1,0.4,0.1c0.1,0,0.2,0,0.3-0.1
			c0.5-0.3,8.8-5.6,15.3-12.8c0.5,3.4,2.2,13.4,6.2,15.5c0.1,0,0.2,0.1,0.2,0.1c0.1,0,0.2,0,0.3-0.1c0.2-0.1,0.2-0.3,0.2-0.5
			c0,0-0.6-2.1-0.1-7.8c1.3,2,4.1,5.5,7.3,5.7c0.2,0,0.3-0.1,0.4-0.2c0.1-0.1,0.1-0.3,0.1-0.5c0-0.1-2.3-8.1-2.6-13.9
			c1.9,2.3,6.7,7.1,13.1,8.1c0.2,0,0.4-0.1,0.5-0.3c0.1-0.2,0.1-0.4-0.1-0.6c-0.1-0.1-11.1-11.4-11.7-29.7l0,0.1c0,0,0,0,0-0.1
			c0-0.2,0-0.4,0-0.6c0,0,0,0,0,0.1c0-0.5,0-1.1,0.1-1.9c-1.8-3.4-3.1-7.4-4-12.4c2.3-25.4,7.7-41.6,16.3-49.3
			c12.1-10.9,26.8-4.8,28.4-4.1c1.1,2.2,10.9,22,20.6,29c-1.1,13.5-2.6,24.2-6.2,32.4c-0.1,0.1-0.1,0.2-0.1,0.3
			c-0.3,1.6-0.6,2.9-1,4.2l-0.4,3.5c0,0,0-0.1,0.1-0.1c0,0.3-0.1,0.7-0.2,1l0,0.3l0-0.3c-1.7,10.1-8.3,17.5-8.4,17.5
			c-0.1,0.1-0.2,0.4-0.1,0.5c0.1,0.2,0.3,0.3,0.5,0.3c1.5,0,4.5-2.2,6.3-3.7c-1.7,4.1-4.5,8.2-4.5,8.3c-0.1,0.1-0.1,0.3,0,0.5
			c0.1,0.2,0.2,0.3,0.4,0.3c0.5,0,12,1,24.2-15.2c8.8-11.7,8.7-29.3,8-38.2c0.7,2.3,1.5,4.6,1.5,4.7c0.1,0.2,0.3,0.4,0.5,0.3
			c0.2,0,0.4-0.2,0.5-0.4C370.2,275,365.1,239.7,355.1,225.9z M367.6,282.9c-0.8-2.6-2.2-6.8-2.5-8c-0.1-0.3-0.3-0.4-0.6-0.4
			c-0.3,0.1-0.4,0.3-0.4,0.6c0,0.3,4.8,27.3-7.1,43.1c-10,13.2-19.6,14.7-22.5,14.8c1.1-1.7,3.6-5.8,4.8-9.5c0.1-0.2,0-0.4-0.2-0.6
			s-0.4-0.1-0.6,0c-1.5,1.3-3.9,3.2-5.7,4.1c2.3-3,7.4-10.6,7.9-19.9c0-0.1,0-0.3-0.1-0.4c0.6-1.6,0.9-3.2,1.2-4.9c0,0,0,0,0,0
			c3.6-8.2,5.2-18.9,6.3-32.3c1,0.6,1.9,1.1,2.9,1.4c0.3,0.1,0.5-0.1,0.6-0.3c0.1-0.3-0.1-0.5-0.3-0.6c-10.7-3.3-23.8-30.4-24-30.6
			c0-0.1-0.1-0.2-0.2-0.2c-0.2-0.1-16.4-7.8-29.7,4.1c-8.8,7.9-14.3,24.3-16.7,49.9c0,0,0,0.1,0,0.1c-0.3,3.4-0.6,6.9-0.8,10.6
			c0,0.3,0.2,0.5,0.5,0.5c0,0,0,0,0,0c0.3,0,0.5-0.2,0.5-0.5c0.1-2.4,0.3-4.8,0.5-7.1c0.8,3.4,1.9,6.4,3.2,9c0,0,0,0,0,0
			c-0.2,16.6,8.1,28,11,31.6c-7-1.9-11.8-8.5-11.9-8.6c-0.1-0.2-0.4-0.2-0.6-0.2c-0.2,0.1-0.3,0.3-0.4,0.5c-0.1,5,1.8,12.5,2.5,14.9
			c-3.6-0.9-6.6-6.3-6.6-6.4c-0.1-0.2-0.3-0.3-0.5-0.2c-0.2,0-0.4,0.2-0.4,0.4c-0.5,4.4-0.4,7-0.2,8.4c-3.2-3.3-4.6-13.3-4.8-14.9
			c2.6-3,4.8-6.4,6-9.8c0.1-0.3-0.1-0.5-0.3-0.6c-0.3-0.1-0.5,0.1-0.6,0.3c-3.2,9.5-15.1,18.5-19.8,21.8c3-4.9,10.4-17.4,11-24.3
			c0.3-3.1-1.2-8.4-3-15.2c-3.1-11.6-7.4-27.5-5.5-42.1c3-22.6,20-37.5,20.2-37.6c0.2-0.1,0.2-0.4,0.1-0.6c-0.1-0.2-0.3-0.3-0.5-0.3
			c-3.6,0.7-7.1,3.8-9.1,5.9c3.9-9.7,14.5-20.6,33.4-22.6c18.9-2,27.9,12.5,28,12.6c0.1,0.2,0.4,0.3,0.6,0.2
			c0.5-0.2,11.4-5.3,20.8,7.5C363.5,239.2,368.6,270.7,367.6,282.9z"/>
		<path d="M285.8,308.1C285.8,308.1,285.8,308.1,285.8,308.1l0-0.5c0,0,0,0,0,0C285.8,307.8,285.8,308,285.8,308.1z"/>
		<path d="M285.8,308.2L285.8,308.2c0-0.1,0-0.1,0-0.1C285.8,308.1,285.8,308.2,285.8,308.2z"/>
		<path d="M285.9,305.6c0,0.8,0,1.4-0.1,1.9c0,0,0,0,0,0L285.9,305.6C285.9,305.7,285.9,305.7,285.9,305.6z"/>
	</g>
</g>
<path d="M301.9,271.4c-0.1,0-0.2,0-0.3-0.1c-7.8-7.4-16.3-2.8-16.7-2.6c-0.2,0.1-0.5,0-0.7-0.2s0-0.5,0.2-0.7
	c0.1-0.1,9.6-5.2,17.9,2.8c0.2,0.2,0.2,0.5,0,0.7C302.2,271.3,302.1,271.4,301.9,271.4z"/>
<path d="M325,271.4c-0.1,0-0.3-0.1-0.4-0.2c-0.2-0.2-0.2-0.5,0-0.7c8.3-8,17.8-2.8,17.9-2.8c0.2,0.1,0.3,0.4,0.2,0.7
	s-0.4,0.3-0.7,0.2c-0.4-0.2-8.9-4.8-16.7,2.6C325.2,271.4,325.1,271.4,325,271.4z"/>
<path d="M303.6,281.4c0,0-1.2-4.3-5.5-7c-4.3-2.7-9.7-1.3-9.7-1.3s7,1.5,1.1,0.9c-4-0.4-4.6,0.9-4.6,0.9s7.1,0.4,2.4,0.6
	c-3.4,0.2-3.8,1.5-3.8,1.5s5.5-0.5,1.9,1c-1.7,0.7-1.9,2.1-1.9,2.1s1.9-1,3.3-0.4c0,0-0.7,1-0.6,2.2c0,0,0.9-1.2,1.9-1.1
	c1,0.1,6-4.1,6-4.1L303.6,281.4z"/>
<g>
	<path class="st3" d="M286.2,278.4c0,0,11.2-8.9,18.5,4.7C304.7,283.2,292.8,289.2,286.2,278.4z"/>
	<path d="M297.3,285.3c-3.8,0-8.3-1.4-11.5-6.6c-0.1-0.2-0.1-0.5,0.1-0.7c0.2-0.2,4.9-3.9,10.4-2.8c3.5,0.7,6.5,3.3,8.9,7.7
		c0.1,0.1,0.1,0.3,0,0.4s-0.1,0.2-0.3,0.3C304.9,283.7,301.5,285.3,297.3,285.3z M286.9,278.6c2.6,4,6.3,6,11,5.8
		c2.8-0.1,5.2-1,6.2-1.4c-2.1-3.8-4.8-6-7.9-6.7C291.9,275.4,288,277.8,286.9,278.6z"/>
</g>
<path d="M323.2,281.4c0,0,1.2-4.3,5.5-7c4.3-2.7,9.7-1.3,9.7-1.3s-7,1.5-1.1,0.9c4-0.4,4.6,0.9,4.6,0.9s-7.1,0.4-2.4,0.6
	c3.4,0.2,3.8,1.5,3.8,1.5s-5.5-0.5-1.9,1c1.7,0.7,1.9,2.1,1.9,2.1s-1.9-1-3.3-0.4c0,0,0.7,1,0.6,2.2c0,0-0.9-1.2-1.9-1.1
	c-1,0.1-6-4.1-6-4.1L323.2,281.4z"/>
<g>
	<path class="st3" d="M340.6,278.4c0,0-11.2-8.9-18.5,4.7C322.1,283.2,334.1,289.2,340.6,278.4z"/>
	<path d="M329.6,285.3c-4.2,0-7.6-1.7-7.7-1.7c-0.1-0.1-0.2-0.2-0.3-0.3s0-0.3,0-0.4c2.3-4.4,5.3-6.9,8.9-7.7
		c5.5-1.1,10.2,2.6,10.4,2.8c0.2,0.2,0.2,0.4,0.1,0.7C337.9,283.9,333.4,285.3,329.6,285.3z M322.8,283c1,0.4,3.4,1.3,6.2,1.4
		c4.7,0.2,8.4-1.8,11-5.8c-1.2-0.8-5-3.2-9.2-2.3C327.6,276.9,325,279.2,322.8,283z"/>
</g>
<g>
	<defs>
		<path id="SVGID_1_" d="M286.2,278.4c0,0,11.2-8.9,18.5,4.7C304.7,283.2,292.8,289.2,286.2,278.4z"/>
	</defs>
	<clipPath id="SVGID_00000098924137734646234300000017975475898937684128_">
		<use xlink:href="#SVGID_1_"  style="overflow:visible;"/>
	</clipPath>
	<g style="clip-path:url(#SVGID_00000098924137734646234300000017975475898937684128_);">
		<g>
			<circle class="st5" cx="296.1" cy="280.2" r="5.4"/>
			<path d="M296.1,285.8c-3.1,0-5.6-2.5-5.6-5.6s2.5-5.6,5.6-5.6c3.1,0,5.6,2.5,5.6,5.6S299.2,285.8,296.1,285.8z M296.1,275.1
				c-2.8,0-5.1,2.3-5.1,5.1c0,2.8,2.3,5.1,5.1,5.1s5.1-2.3,5.1-5.1C301.2,277.4,298.9,275.1,296.1,275.1z"/>
		</g>
		<circle cx="296.1" cy="280.2" r="2.3"/>
		<circle class="st3" cx="297.3" cy="278.9" r="1.4"/>
	</g>
</g>
<path d="M297.3,285.3c-3.8,0-8.3-1.4-11.5-6.6c-0.1-0.2-0.1-0.5,0.1-0.7c0.2-0.2,4.9-3.9,10.4-2.8c3.5,0.7,6.5,3.3,8.9,7.7
	c0.1,0.1,0.1,0.3,0,0.4s-0.1,0.2-0.3,0.3C304.9,283.7,301.5,285.3,297.3,285.3z M286.9,278.6c2.6,4,6.3,6,11,5.8
	c2.8-0.1,5.2-1,6.2-1.4c-2.1-3.8-4.8-6-7.9-6.7C291.9,275.4,288,277.8,286.9,278.6z"/>
<g>
	<defs>
		<path id="SVGID_00000110454472883019283170000010285337899558767807_" d="M340.6,278.4c0,0-11.2-8.9-18.5,4.7
			C322.1,283.2,334.1,289.2,340.6,278.4z"/>
	</defs>
	<clipPath id="SVGID_00000133490656790878200620000010880578976034047674_">
		<use xlink:href="#SVGID_00000110454472883019283170000010285337899558767807_"  style="overflow:visible;"/>
	</clipPath>
	<g style="clip-path:url(#SVGID_00000133490656790878200620000010880578976034047674_);">
		<g>
			<circle class="st5" cx="330.8" cy="280.2" r="5.4"/>
			<path d="M330.8,285.8c-3.1,0-5.6-2.5-5.6-5.6s2.5-5.6,5.6-5.6c3.1,0,5.6,2.5,5.6,5.6S333.9,285.8,330.8,285.8z M330.8,275.1
				c-2.8,0-5.1,2.3-5.1,5.1c0,2.8,2.3,5.1,5.1,5.1s5.1-2.3,5.1-5.1C335.9,277.4,333.6,275.1,330.8,275.1z"/>
		</g>
		<circle cx="330.8" cy="280.2" r="2.3"/>
		<circle class="st3" cx="332" cy="278.9" r="1.4"/>
	</g>
</g>
<path d="M329.6,285.3c-4.2,0-7.6-1.7-7.7-1.7c-0.1-0.1-0.2-0.2-0.3-0.3s0-0.3,0-0.4c2.3-4.4,5.3-6.9,8.9-7.7
	c5.5-1.1,10.2,2.6,10.4,2.8c0.2,0.2,0.2,0.4,0.1,0.7C337.9,283.9,333.4,285.3,329.6,285.3z M322.8,283c1,0.4,3.4,1.3,6.2,1.4
	c4.7,0.2,8.4-1.8,11-5.8c-1.2-0.8-5-3.2-9.2-2.3C327.6,276.9,325,279.2,322.8,283z"/>
</svg>
