<?xml version="1.0" encoding="utf-8"?>
<!-- Generator: Adobe Illustrator 27.0.0, SVG Export Plug-In . SVG Version: 6.00 Build 0)  -->
<svg version="1.1" id="Layer_1" xmlns="http://www.w3.org/2000/svg" xmlns:xlink="http://www.w3.org/1999/xlink" x="0px" y="0px"
	 viewBox="0 0 600 1200" style="enable-background:new 0 0 600 1200;" xml:space="preserve">
<style type="text/css">
	.st0{fill:#B2463A;}
	.st1{fill:#FFB6B1;}
	.st2{fill:none;}
	.st3{fill:#FFFFFF;}
	.st4{clip-path:url(#SVGID_00000098914891454209287860000001369153783336759472_);}
	.st5{fill:#62990D;}
	.st6{clip-path:url(#SVGID_00000060009922268953439150000003679915946764917400_);}
</style>
<g>
	<g>
		<path class="st0" d="M372.2,272.9c-2.3-16.3-20.8-52.1-32.5-62.1c-11.7-9.9-21.6-4.3-21.6-4.3c-2.3,0-21.5-15.8-46.3,24.6
			c-24.8,40.4-22.8,49.5-21.9,62.3c0.7,10.4,0,13.5-0.3,14.4c0.7-1.4,3.6-8.4,3-15.3c0,0,8.1,16.9,12.4,22.8
			c4.3,5.9,4.5,19.4-0.7,20.1c-5.2,0.7-9.5,0-9.5,0s7,4.7,13.3,2c0,0-1.4,2.7-5.4,5c0,0,6.1,1.4,15.8-7.7c0,0,2,6.3,0,9.3
			c0,0,7.8-6.3,7.7-14.5c0-7-0.6-16-0.8-18.4c-0.4-0.4,0-0.7,0-0.7s0,0.2,0,0.7c0.3,0.3,1.1,0.8,2.9,1.3c0.5,0.1-1-0.6-3.5-6.4
			c-1-2.4-1.8-5.3-2.4-8.6c-4.8,0.5-6.3-4.1-9-9.9c-3-6.5-0.8-10.9,2-11.2c2.6-0.3,4.2,1.1,4.3,1.3c-0.1-0.7-0.2-1.4-0.2-2.1
			c-0.2-8.9,3-8.8,5.1-19c2.1-10.2,9.8-18.3,9.8-18.3c-4.4,7.6-3,24.1-3,24.1c1.1-6.4,11.3-14.4,11.3-14.4
			c-0.8,8.4-9.4,22.9-9.4,22.9c11.8-4.9,18.8-26.3,18.8-26.3s1.7,10.6-1.6,17.8c0,0,11.2-5.9,12.8-20.8c0,0,5.2,16.5,10.4,19.4
			c0,0-2.6-8.8-2.2-12.4c0,0,10.1,13.8,16.7,18.6V258v9.1c0.9,0.7,1.7,1.2,2.5,1.4c6.1,2.1,6.6,10.8,6.6,10.8s-0.5-8.7-6.6-10.8
			c-0.7-0.3-1.6-0.7-2.5-1.4v0c-0.2,3.4-0.5,7-0.9,10.4h0.1c0,0,1.1-1.6,3.8-1.3s5.3,3.6,2.3,10.1c-3,6.5-5.9,12.8-10.6,10.7h-0.2
			c-0.3,1.2-0.6,2.4-0.8,3.6c-0.5,3.9-2.6,10.2-5.3,13.7l-1.4,1.2c0,0-0.8,4.8-1.5,14.1c-0.7,9.3,12.4,21.5,12.4,21.5
			c-3.4-3.4-2.7-10.6-2.7-10.6c2.7,4.5,8.8,5.6,8.8,5.6c-2.3-2.6-1.6-7.8-1.6-7.8c3.8,10.4,16.7,7.5,16.7,7.5s-7.2-1.4-10.6-8.1
			s5.2-21,5.2-21c-2,7,0.2,13.6,0.2,13.6s-0.7-7.2,5.6-15.6C374,306.1,374.5,289.2,372.2,272.9z"/>
		<path class="st1" d="M304.7,213.7c0,0,5.9,5.3-1.1,15.6c-3.8,5.5-4.2,12.4-4.2,12.4s4.3-8,7.8-11.3c0,0,1.3,8.1-0.2,14.9
			c0,0,6.1-9.8,6.3-15.8c0,0,1.4,4.6,1.3,7.7c0,0,1.8-5.4,1.8-7.7c0,0,1.2,4.9,0.7,11.3c0,0,3.4-7.7,3.4-13.9
			c0-6.2-10.1-19.1-10.1-19.1s2,4.5,2,8c0,0-3.9-7.2-7.9-7.5c0,0,3.2,3.7,4,7.6C308.7,216,307.6,214,304.7,213.7z"/>
		<path class="st1" d="M323.9,215.8c0,0,1.8,6.3,1.1,13.9c-0.7,7.6,3.8,12.4,3.8,12.4s-3.6-8.2-1.7-14.7c2.7-9.1-0.8-17.6-0.8-17.6
			s0.4,6.6,0,8.9C326.3,218.6,325.9,217.1,323.9,215.8z"/>
		<path class="st1" d="M333.6,221.9c0,0,2.5,4.1,1.7,11.1c-0.8,7,2.1,14.8,7,21c4.9,6.2,11.2,6.3,11.2,6.3s-7.9-4.1-8.7-7.9
			c0,0,4,2.9,7.7,3.3c0,0-6.6-3.5-7.8-8.4s-1.2-20.7-5.8-24.7c0,0,3.2,10.3,1.7,17.5C340.6,240.1,338.2,222.9,333.6,221.9z"/>
		<path class="st1" d="M293.3,221.9c0,0-0.4,12.8-5.5,18.2c-5.1,5.4-13,16.8-13.6,23c0,0-0.5-6.8,1.5-12c0,0-7.6,5.8-7.1,19.6
			c0,0-3.9-3.9-0.5-13.9c3.4-10,11.2-15.4,12.7-23.4c1.5-8,9.1-17.1,9.1-17.1s-3.9,8.3-3.8,13.6c0,0,0.6-3.4,2.7-5.8
			c0,0-0.6,4.3-0.3,6.3C288.6,230.4,292,225.5,293.3,221.9z"/>
		<path class="st1" d="M256.6,277.3c0,0-3.1,10.9,0,15s10.2,7.3,10.2,13.3c0,0,1.6-5.4-0.9-9.1s-6.6-10.5-3.5-17
			c0,0-3.1,2.2-3.5,8.6C258.9,287.9,255.3,282.5,256.6,277.3z"/>
		<path class="st1" d="M365.2,272.9c4.6,4.3,9.3,13.8,4.9,23.6s-5.8,16.9-5.8,16.9s-2.2-6.9,0-12.2c0,0-6.8,6.6-8.1,15.2
			c0,0-1.4-9.5,3.7-15.1s7.5-14,7.3-17.3C367.1,280.7,365.2,272.9,365.2,272.9z"/>
		<g>
			<path d="M316.7,215.9c-0.2-0.2-0.5-0.1-0.7,0.1c-0.2,0.2-0.1,0.5,0.1,0.7c0.1,0.1,8.5,6.7-0.8,28.4c-0.1,0.3,0,0.5,0.3,0.7
				c0.1,0,0.1,0,0.2,0c0.2,0,0.4-0.1,0.5-0.3C325.7,223.1,317,216.2,316.7,215.9z"/>
			<path d="M302.8,212.4c-0.3,0-0.5,0.2-0.6,0.4c0,0.3,0.2,0.5,0.4,0.6c0,0,4.4,0.5,6.9,4c0.1,0.1,0.3,0.2,0.4,0.2
				c0.1,0,0.2,0,0.3-0.1c0.2-0.2,0.3-0.5,0.1-0.7C307.7,213,303,212.5,302.8,212.4z"/>
			<path d="M307.2,228.3c-0.3,0-0.5,0.3-0.4,0.6c0,0.1,1.4,9.3-0.8,17.4c-0.1,0.3,0.1,0.5,0.4,0.6c0,0,0.1,0,0.1,0
				c0.2,0,0.4-0.1,0.5-0.4c2.3-8.3,0.9-17.7,0.9-17.8C307.7,228.4,307.5,228.3,307.2,228.3z"/>
			<path d="M312.6,226.1c-0.3,0.1-0.4,0.3-0.4,0.6c0,0.1,2,8.7,2,11.5c0,0.3,0.2,0.5,0.5,0.5s0.5-0.2,0.5-0.5c0-2.9-2-11.3-2-11.7
				C313.1,226.2,312.9,226.1,312.6,226.1z"/>
			<path d="M327.6,227.5c0.1-0.3-0.1-0.5-0.4-0.6c-0.3-0.1-0.5,0.1-0.6,0.4c-0.1,0.3-2,8.2,2.4,16.5c0.1,0.2,0.3,0.3,0.4,0.3
				c0.1,0,0.2,0,0.2-0.1c0.2-0.1,0.3-0.4,0.2-0.7C325.7,235.3,327.6,227.5,327.6,227.5z"/>
			<path d="M338.4,229.6c-0.3,0.1-0.4,0.3-0.4,0.6c0,0.1,2.4,9.2,2.6,12.8c0,0.3,0.2,0.5,0.5,0.5c0,0,0,0,0,0c0.3,0,0.5-0.3,0.5-0.5
				c-0.3-3.7-2.6-12.6-2.7-13C338.9,229.7,338.6,229.5,338.4,229.6z"/>
			<path d="M355.6,256c-5-0.7-7.3-2.1-7.3-2.1c-0.2-0.1-0.5-0.1-0.7,0.2c-0.1,0.2-0.1,0.5,0.2,0.7c0.1,0.1,2.5,1.5,7.7,2.3
				c0,0,0,0,0.1,0c0.2,0,0.5-0.2,0.5-0.4C356.1,256.3,355.9,256,355.6,256z"/>
			<path d="M272.8,247.8l-0.4-0.3c-1.7,2.1-9.8,13-2.8,26.5c0.1,0.2,0.3,0.3,0.4,0.3c0.1,0,0.2,0,0.2-0.1c0.2-0.1,0.3-0.4,0.2-0.7
				c-6.7-13,1.1-23.5,2.7-25.4c0.1-0.2,0.2-0.5,0.1-0.7L272.8,247.8z"/>
			<path d="M290.6,220.4c-0.1,0.2-3.2,4.3-2.4,12c0,0.3,0.2,0.4,0.5,0.4c0,0,0,0,0.1,0c0.3,0,0.5-0.3,0.4-0.6
				c-0.8-7.3,2.1-11.3,2.2-11.3c0.2-0.2,0.1-0.5-0.1-0.7C291.1,220.2,290.8,220.2,290.6,220.4z"/>
			<path d="M264,292.4c-0.2-0.2-0.5-0.1-0.7,0.1c-0.2,0.2-0.1,0.5,0.1,0.7c0.2,0.2,5.6,4.5,2.4,14.8c-0.1,0.3,0.1,0.5,0.3,0.6
				c0,0,0.1,0,0.1,0c0.2,0,0.4-0.1,0.5-0.4C270.2,297.2,264.3,292.6,264,292.4z"/>
			<path d="M362.4,266.7c-0.3,0.1-0.4,0.4-0.3,0.6c0.1,0.1,5.3,14,4.2,20c0,0.3,0.1,0.5,0.4,0.6c0,0,0.1,0,0.1,0
				c0.2,0,0.4-0.2,0.5-0.4c1.1-6.3-4.1-20-4.3-20.6C363,266.7,362.7,266.6,362.4,266.7z"/>
			<path d="M360.5,305.2c-0.2,0.4-6.1,9-6.1,18.7c0,0.3,0.2,0.5,0.5,0.5s0.5-0.2,0.5-0.5c0-9.4,5.9-18.1,5.9-18.2
				c0.2-0.2,0.1-0.5-0.1-0.7C360.9,305,360.6,305,360.5,305.2z"/>
		</g>
	</g>
	<g>
		<path class="st2" d="M347.5,278C347.5,278,347.5,278,347.5,278L347.5,278C347.6,277.9,347.6,278,347.5,278z"/>
		<path class="st2" d="M347.7,277.8l0.4-0.4C347.9,277.6,347.7,277.8,347.7,277.8z"/>
		<path class="st2" d="M343.3,296.7c0.2,0.1,0.4,0.1,0.6,0.2L343.3,296.7C343.3,296.7,343.3,296.7,343.3,296.7z"/>
		<path class="st2" d="M343.9,296.9c3.5,0.6,6.1-4.3,9-10.7c1.4-3.2,1.7-5.9,0.7-7.6c-0.6-1-1.5-1.6-2.6-1.8
			c-1.5-0.2-2.4,0.3-2.9,0.6l2,10L343.9,296.9z"/>
		<path class="st2" d="M371.7,272.9c-2.3-16.4-21-52.1-32.4-61.7c-11.3-9.6-20.7-4.5-21.1-4.2c-0.4,0.2-1-0.1-2.1-0.6
			c-5.6-2.5-22.6-10-44.1,25c-23.6,38.4-22.9,48.6-22,60.3l0.1,1.8c0.3,4.6,0.4,7.9,0.3,10.1c0.9-2.9,1.8-7,1.5-10.9
			c0-0.2,0.1-0.5,0.4-0.5c0.2-0.1,0.5,0,0.6,0.3c0.1,0.2,8.2,17,12.4,22.7c3.2,4.3,4.3,13.2,2.3,17.9c-0.8,1.8-1.9,2.8-3.3,3
			c-2.8,0.4-5.4,0.3-7.1,0.2c2.5,1.2,6.8,2.5,10.7,0.8c0.2-0.1,0.4,0,0.6,0.1c0.1,0.2,0.2,0.4,0.1,0.6c-0.1,0.1-1.1,2.2-4.1,4.3
			c2.4-0.2,7.2-1.5,13.7-7.6c0.1-0.1,0.3-0.2,0.5-0.1c0.2,0,0.3,0.2,0.3,0.3c0.1,0.2,1.4,4.3,0.8,7.5c2.2-2.3,6-7,6-12.6
			c0-8-0.8-18.9-0.8-19.1c0-0.2,0.1-0.4,0.3-0.5c0.2-0.1,0.4-0.1,0.6,0.1c0,0,0.4,0.4,1.1,0.8c-2.5-3.6-4.2-7.9-5.3-12.9
			c-0.1,0-0.3,0-0.4,0c-4.3,0-6.7-6.3-8.8-12c-1.7-4.6-1-7.2-0.1-8.6c0.8-1.2,2.1-2,3.5-2c1.7-0.1,2.7,0.4,3.4,0.9
			c0-0.3,0-0.5,0-0.7L279,275l0,0l0-0.3l0.1,0c0-4.6,0.9-6.8,2.2-9.4c1-2.1,2.1-4.5,3-8.9c2.1-10.2,9.8-18.5,9.9-18.5
			c0.2-0.2,0.5-0.2,0.7-0.1c0.2,0.2,0.3,0.4,0.1,0.7c-3.2,5.6-3.3,16.2-3.1,21.1c2.7-5.8,10.3-11.8,10.6-12.1c0.2-0.1,0.4-0.1,0.5,0
			c0.2,0.1,0.3,0.3,0.3,0.5c-0.6,7-6.4,17.8-8.6,21.7c10.6-5.8,17-25,17-25.3c0.1-0.2,0.3-0.4,0.5-0.3c0.2,0,0.4,0.2,0.5,0.4
			c0.1,0.4,1.5,9.5-1.1,16.7c2.9-2.1,10-8.1,11.2-19.6c0-0.2,0.2-0.4,0.4-0.4c0.2,0,0.5,0.1,0.5,0.3c0,0.2,4.5,14,9,18.3
			c-0.7-2.7-2.2-8.4-1.8-11.2c0-0.2,0.2-0.4,0.4-0.4c0.2-0.1,0.4,0,0.5,0.2c0.1,0.2,13,17.8,18.9,19.8c6.3,2.2,6.9,10.9,6.9,11.3
			c0,0.3-0.2,0.5-0.5,0.5c0,0,0,0,0,0c-0.3,0-0.5-0.2-0.5-0.5c0-0.1-0.5-8.4-6.2-10.4c-0.6-0.2-1.2-0.5-1.9-1
			c-0.2,3-0.5,5.8-0.8,8.4c0.7-0.5,1.8-0.9,3.5-0.7c1.4,0.2,2.6,1,3.4,2.3c0.8,1.4,1.3,4.1-0.7,8.5c-2.4,5.4-5.2,11.4-9.3,11.4
			c-0.5,0-1.1-0.1-1.6-0.3c-0.2,1.3-0.4,2.5-0.6,3.6c-0.9,5.4-1.6,9.7-5.5,13.5c-0.5,0.5-1,0.9-1.5,1.4c0,0,0,0,0,0.1
			c-0.4,3.5-0.9,8.6-1.3,13.5c-0.5,6.3,5.7,14.1,9.5,18.2c-1.1-3.4-0.8-7.2-0.8-7.4c0-0.2,0.2-0.4,0.4-0.4c0.2,0,0.4,0,0.5,0.2
			c1.8,3.1,5.4,4.5,7.2,5c-1.5-2.8-1-6.9-0.9-7.1c0-0.2,0.2-0.4,0.4-0.4c0.2,0,0.4,0.1,0.5,0.3c1.5,4.1,4.7,6.6,9.4,7.3
			c1.7,0.3,3.3,0.2,4.5,0.1c-2.5-1-6.4-3.1-8.7-7.7c-3.5-6.9,4.9-20.9,5.2-21.5c0.1-0.2,0.4-0.3,0.6-0.2c0.2,0.1,0.3,0.4,0.3,0.6
			c-1.1,3.7-0.9,7.4-0.5,9.9c0.5-3,1.8-7.5,5.5-12.4C372.7,307,374.4,291.9,371.7,272.9z"/>
		<path d="M347.7,277.8L347.7,277.8C347.6,277.9,347.7,277.9,347.7,277.8C347.7,277.8,347.7,277.8,347.7,277.8z"/>
		<polygon points="348.1,277.4 348.1,277.4 348.1,277.4 		"/>
		<path d="M343.9,296.9L343.9,296.9C343.9,296.9,343.9,296.8,343.9,296.9L343.9,296.9z"/>
	</g>
	<path class="st2" d="M371.7,272.9c-2.3-16.4-21-52.1-32.4-61.7c-11.3-9.6-20.7-4.5-21.1-4.2c-0.4,0.2-1-0.1-2.1-0.6
		c-5.6-2.5-22.6-10-44.1,25c-23.6,38.4-22.9,48.6-22,60.3l0.1,1.8c0.3,4.6,0.4,7.9,0.3,10.1c0.9-2.9,1.8-7,1.5-10.9
		c0-0.2,0.1-0.5,0.4-0.5c0.2-0.1,0.5,0,0.6,0.3c0.1,0.2,8.2,17,12.4,22.7c3.2,4.3,4.3,13.2,2.3,17.9c-0.8,1.8-1.9,2.8-3.3,3
		c-2.8,0.4-5.4,0.3-7.1,0.2c2.5,1.2,6.8,2.5,10.7,0.8c0.2-0.1,0.4,0,0.6,0.1c0.1,0.2,0.2,0.4,0.1,0.6c-0.1,0.1-1.1,2.2-4.1,4.3
		c2.4-0.2,7.2-1.5,13.7-7.6c0.1-0.1,0.3-0.2,0.5-0.1c0.2,0,0.3,0.2,0.3,0.3c0.1,0.2,1.4,4.3,0.8,7.5c2.2-2.3,6-7,6-12.6
		c0-8-0.8-18.9-0.8-19.1c0-0.2,0.1-0.4,0.3-0.5c0.2-0.1,0.4-0.1,0.6,0.1c0,0,0.4,0.4,1.1,0.8c-2.5-3.6-4.2-7.9-5.3-12.9
		c-0.1,0-0.3,0-0.4,0c-4.3,0-6.7-6.3-8.8-12c-1.7-4.6-1-7.2-0.1-8.6c0.8-1.2,2.1-2,3.5-2c1.7-0.1,2.7,0.4,3.4,0.9c0-0.3,0-0.5,0-0.7
		L279,275l0,0l0-0.3l0.1,0c0-4.6,0.9-6.8,2.2-9.4c1-2.1,2.1-4.5,3-8.9c2.1-10.2,9.8-18.5,9.9-18.5c0.2-0.2,0.5-0.2,0.7-0.1
		c0.2,0.2,0.3,0.4,0.1,0.7c-3.2,5.6-3.3,16.2-3.1,21.1c2.7-5.8,10.3-11.8,10.6-12.1c0.2-0.1,0.4-0.1,0.5,0c0.2,0.1,0.3,0.3,0.3,0.5
		c-0.6,7-6.4,17.8-8.6,21.7c10.6-5.8,17-25,17-25.3c0.1-0.2,0.3-0.4,0.5-0.3c0.2,0,0.4,0.2,0.5,0.4c0.1,0.4,1.5,9.5-1.1,16.7
		c2.9-2.1,10-8.1,11.2-19.6c0-0.2,0.2-0.4,0.4-0.4c0.2,0,0.5,0.1,0.5,0.3c0,0.2,4.5,14,9,18.3c-0.7-2.7-2.2-8.4-1.8-11.2
		c0-0.2,0.2-0.4,0.4-0.4c0.2-0.1,0.4,0,0.5,0.2c0.1,0.2,13,17.8,18.9,19.8c6.3,2.2,6.9,10.9,6.9,11.3c0,0.3-0.2,0.5-0.5,0.5
		c0,0,0,0,0,0c-0.3,0-0.5-0.2-0.5-0.5c0-0.1-0.5-8.4-6.2-10.4c-0.6-0.2-1.2-0.5-1.9-1c-0.2,3-0.5,5.8-0.8,8.4
		c0.7-0.5,1.8-0.9,3.5-0.7c1.4,0.2,2.6,1,3.4,2.3c0.8,1.4,1.3,4.1-0.7,8.5c-2.4,5.4-5.2,11.4-9.3,11.4c-0.5,0-1.1-0.1-1.6-0.3
		c-0.2,1.3-0.4,2.5-0.6,3.6c-0.9,5.4-1.6,9.7-5.5,13.5c-0.5,0.5-1,0.9-1.5,1.4c0,0,0,0,0,0.1c-0.4,3.5-0.9,8.6-1.3,13.5
		c-0.5,6.3,5.7,14.1,9.5,18.2c-1.1-3.4-0.8-7.2-0.8-7.4c0-0.2,0.2-0.4,0.4-0.4c0.2,0,0.4,0,0.5,0.2c1.8,3.1,5.4,4.5,7.2,5
		c-1.5-2.8-1-6.9-0.9-7.1c0-0.2,0.2-0.4,0.4-0.4c0.2,0,0.4,0.1,0.5,0.3c1.5,4.1,4.7,6.6,9.4,7.3c1.7,0.3,3.3,0.2,4.5,0.1
		c-2.5-1-6.4-3.1-8.7-7.7c-3.5-6.9,4.9-20.9,5.2-21.5c0.1-0.2,0.4-0.3,0.6-0.2c0.2,0.1,0.3,0.4,0.3,0.6c-1.1,3.7-0.9,7.4-0.5,9.9
		c0.5-3,1.8-7.5,5.5-12.4C372.7,307,374.4,291.9,371.7,272.9z"/>
	<g>
		<path class="st2" d="M371.7,272.9c-2.3-16.4-21-52.1-32.4-61.7c-11.3-9.6-20.7-4.5-21.1-4.2c-0.4,0.2-1-0.1-2.1-0.6
			c-5.6-2.5-22.6-10-44.1,25c-23.6,38.4-22.9,48.6-22,60.3l0.1,1.8c0.3,4.6,0.4,7.9,0.3,10.1c0.9-2.9,1.8-7,1.5-10.9
			c0-0.2,0.1-0.5,0.4-0.5c0.2-0.1,0.5,0,0.6,0.3c0.1,0.2,8.2,17,12.4,22.7c3.2,4.3,4.3,13.2,2.3,17.9c-0.8,1.8-1.9,2.8-3.3,3
			c-2.8,0.4-5.4,0.3-7.1,0.2c2.5,1.2,6.8,2.5,10.7,0.8c0.2-0.1,0.4,0,0.6,0.1c0.1,0.2,0.2,0.4,0.1,0.6c-0.1,0.1-1.1,2.2-4.1,4.3
			c2.4-0.2,7.2-1.5,13.7-7.6c0.1-0.1,0.3-0.2,0.5-0.1c0.2,0,0.3,0.2,0.3,0.3c0.1,0.2,1.4,4.3,0.8,7.5c2.2-2.3,6-7,6-12.6
			c0-8-0.8-18.9-0.8-19.1c0-0.2,0.1-0.4,0.3-0.5c0.2-0.1,0.4-0.1,0.6,0.1c0,0,0.4,0.4,1.1,0.8c-2.5-3.6-4.2-7.9-5.3-12.9
			c-0.1,0-0.3,0-0.4,0c-4.3,0-6.7-6.3-8.8-12c-1.7-4.6-1-7.2-0.1-8.6c0.8-1.2,2.1-2,3.5-2c1.7-0.1,2.7,0.4,3.4,0.9
			c0-0.3,0-0.5,0-0.7L279,275l0,0l0-0.3l0.1,0c0-4.6,0.9-6.8,2.2-9.4c1-2.1,2.1-4.5,3-8.9c2.1-10.2,9.8-18.5,9.9-18.5
			c0.2-0.2,0.5-0.2,0.7-0.1c0.2,0.2,0.3,0.4,0.1,0.7c-3.2,5.6-3.3,16.2-3.1,21.1c2.7-5.8,10.3-11.8,10.6-12.1c0.2-0.1,0.4-0.1,0.5,0
			c0.2,0.1,0.3,0.3,0.3,0.5c-0.6,7-6.4,17.8-8.6,21.7c10.6-5.8,17-25,17-25.3c0.1-0.2,0.3-0.4,0.5-0.3c0.2,0,0.4,0.2,0.5,0.4
			c0.1,0.4,1.5,9.5-1.1,16.7c2.9-2.1,10-8.1,11.2-19.6c0-0.2,0.2-0.4,0.4-0.4c0.2,0,0.5,0.1,0.5,0.3c0,0.2,4.5,14,9,18.3
			c-0.7-2.7-2.2-8.4-1.8-11.2c0-0.2,0.2-0.4,0.4-0.4c0.2-0.1,0.4,0,0.5,0.2c0.1,0.2,13,17.8,18.9,19.8c6.3,2.2,6.9,10.9,6.9,11.3
			c0,0.3-0.2,0.5-0.5,0.5c0,0,0,0,0,0c-0.3,0-0.5-0.2-0.5-0.5c0-0.1-0.5-8.4-6.2-10.4c-0.6-0.2-1.2-0.5-1.9-1
			c-0.2,3-0.5,5.8-0.8,8.4c0.7-0.5,1.8-0.9,3.5-0.7c1.4,0.2,2.6,1,3.4,2.3c0.8,1.4,1.3,4.1-0.7,8.5c-2.4,5.4-5.2,11.4-9.3,11.4
			c-0.5,0-1.1-0.1-1.6-0.3c-0.2,1.3-0.4,2.5-0.6,3.6c-0.9,5.4-1.6,9.7-5.5,13.5c-0.5,0.5-1,0.9-1.5,1.4c0,0,0,0,0,0.1
			c-0.4,3.5-0.9,8.6-1.3,13.5c-0.5,6.3,5.7,14.1,9.5,18.2c-1.1-3.4-0.8-7.2-0.8-7.4c0-0.2,0.2-0.4,0.4-0.4c0.2,0,0.4,0,0.5,0.2
			c1.8,3.1,5.4,4.5,7.2,5c-1.5-2.8-1-6.9-0.9-7.1c0-0.2,0.2-0.4,0.4-0.4c0.2,0,0.4,0.1,0.5,0.3c1.5,4.1,4.7,6.6,9.4,7.3
			c1.7,0.3,3.3,0.2,4.5,0.1c-2.5-1-6.4-3.1-8.7-7.7c-3.5-6.9,4.9-20.9,5.2-21.5c0.1-0.2,0.4-0.3,0.6-0.2c0.2,0.1,0.3,0.4,0.3,0.6
			c-1.1,3.7-0.9,7.4-0.5,9.9c0.5-3,1.8-7.5,5.5-12.4C372.7,307,374.4,291.9,371.7,272.9z"/>
		<path class="st2" d="M288.3,312.9c-0.1,0-0.2,0-0.2,0l0.4,0.2C288.4,313,288.4,313,288.3,312.9z"/>
		<path d="M372.7,272.8c-2.3-16.9-21-52.5-32.7-62.4c-11.1-9.4-20.7-5.1-22.1-4.4c-0.3-0.1-0.8-0.3-1.3-0.5
			c-5.8-2.6-23.4-10.4-45.4,25.4c-23.8,38.7-23,49-22.1,60.9l0.1,1.8c0.7,10.1,0,13.3-0.3,14.1c-0.1,0.2-0.2,0.3-0.2,0.3
			c-0.1,0.2,0,0.5,0.2,0.6c0.2,0.1,0.5,0.1,0.7-0.1c0,0,0.1-0.1,0.2-0.3c0.6-1.3,3.1-7,3.2-13.2c2.3,4.7,8,16.1,11.4,20.8
			c3,4.1,4.1,12.5,2.2,16.9c-0.6,1.4-1.5,2.2-2.5,2.4c-5.1,0.7-9.3,0-9.3,0c-0.2,0-0.5,0.1-0.5,0.3c-0.1,0.2,0,0.5,0.2,0.6
			c0.3,0.2,6.3,4.2,12.3,2.6c-0.8,1-2.2,2.3-4.4,3.6c-0.2,0.1-0.3,0.3-0.3,0.5c0,0.2,0.2,0.4,0.4,0.4c0.3,0.1,6.2,1.3,15.7-7.3
			c0.4,1.7,1.3,5.9-0.1,8.1c-0.1,0.2-0.1,0.5,0.1,0.7c0.2,0.2,0.5,0.2,0.7,0c0.3-0.3,8-6.6,7.9-14.8c0-6.5-0.6-15-0.8-18
			c0.3,0.2,0.8,0.5,1.3,0.9l0.8,0.4c0.1,0,0.2,0,0.2,0c0,0.1,0.1,0.1,0.1,0.2l2.9,1.6c-0.2-0.2-0.5-0.4-0.7-0.7
			c-4.5-4.4-6.9-9.9-8.3-17l-1,0.1c-3.7,0.2-6-5.9-8-11.3c-1.2-3.3-1.3-6-0.2-7.7c0.6-1,1.6-1.5,2.7-1.6c2.4-0.1,3.3,1.2,3.3,1.3
			c0,0.1,0.1,0.1,0.1,0.2l1.1,0.8c-0.1-1-0.1-2.1-0.2-3.2c0,0,0,0,0,0l0,0l0-0.3c-0.1-4.8,0.8-7,2.1-9.6c1-2.2,2.1-4.6,3.1-9.1
			c1.3-6.5,5-12.1,7.4-15.3c-2.7,8.2-1.7,20.4-1.7,21c0,0.3,0.2,0.4,0.5,0.5c0.2,0,0.5-0.2,0.5-0.4c0.8-5,7.6-11.1,10.2-13.3
			c-1.4,8.3-9.1,21.3-9.2,21.4c-0.1,0.2-0.1,0.4,0.1,0.6c0.1,0.2,0.4,0.2,0.6,0.1c9.8-4.1,16.2-19,18.3-24.5
			c0.3,3.4,0.5,10.3-1.8,15.4c-0.1,0.2,0,0.4,0.1,0.6c0.2,0.1,0.4,0.2,0.6,0.1c0.1-0.1,10.4-5.6,12.7-19.1c1.6,4.5,5.7,15.3,10,17.7
			c0.2,0.1,0.4,0.1,0.6,0c0.2-0.1,0.2-0.3,0.2-0.5c0-0.1-2-6.8-2.2-10.8c2.6,3.4,10.2,13.2,15.7,17.4c-0.3,4.2-0.7,8.1-1.2,11.8
			l1.2-1.1c0,0,0,0,0,0c0,0,0.1-0.1,0.1-0.1l0.1-0.1c0,0,0.2-0.2,0.4-0.4l0,0l0,0c0.5-0.4,1.4-0.8,2.9-0.6c1.1,0.1,2,0.8,2.6,1.8
			c1,1.7,0.7,4.5-0.7,7.6c-2.9,6.5-5.5,11.4-9,10.7l0,0l0,0c-0.2,0-0.4-0.1-0.6-0.2c0,0,0,0,0,0l-0.9-0.3c-0.1,0.3-0.2,0.6-0.3,0.8
			c0,0.1,0,0.1,0,0.2c-0.2,1.3-0.4,2.5-0.6,3.7c-0.9,5.4-1.5,9.4-5.2,12.9c-0.6,0.6-1.2,1.1-1.7,1.6l-0.4,3.5
			c-0.3,3.1-0.7,6.9-1,10.5c-0.7,9.4,12,21.4,12.6,21.9c0.1,0.1,0.2,0.1,0.3,0.1c0.1,0,0.3-0.1,0.4-0.2c0.2-0.2,0.2-0.5,0-0.7
			c-2.3-2.3-2.6-6.6-2.6-8.8c3,3.6,8,4.5,8.3,4.6c0.2,0,0.4-0.1,0.5-0.2c0.1-0.2,0.1-0.4-0.1-0.6c-1.2-1.4-1.5-3.7-1.5-5.4
			c4.7,8.4,16.3,5.9,16.4,5.9c0.2-0.1,0.4-0.3,0.4-0.5c0-0.2-0.2-0.4-0.4-0.5c-0.1,0-7-1.4-10.3-7.9c-2.3-4.6,1.3-13.1,3.6-17.6
			c-0.7,5.7,0.8,10.3,0.9,10.5c0.1,0.2,0.3,0.4,0.6,0.3c0.2-0.1,0.4-0.3,0.4-0.5c0-0.1-0.6-7.2,5.5-15.2
			C376.1,304.3,374,281.9,372.7,272.8z M361.8,326.5c-0.4-2.5-0.5-6.1,0.5-9.9c0.1-0.2,0-0.5-0.3-0.6c-0.2-0.1-0.5,0-0.6,0.2
			c-0.4,0.6-8.7,14.5-5.2,21.5c2.3,4.6,6.2,6.8,8.7,7.7c-1.2,0.1-2.8,0.1-4.5-0.1c-4.7-0.7-7.9-3.2-9.4-7.3
			c-0.1-0.2-0.3-0.3-0.5-0.3c-0.2,0-0.4,0.2-0.4,0.4c0,0.2-0.5,4.3,0.9,7.1c-1.9-0.6-5.4-2-7.2-5c-0.1-0.2-0.3-0.3-0.5-0.2
			c-0.2,0-0.4,0.2-0.4,0.4c0,0.2-0.4,4,0.8,7.4c-3.8-4.1-9.9-11.9-9.5-18.2c0.4-4.9,0.9-10,1.3-13.5c0,0,0,0,0-0.1
			c0.5-0.4,1-0.9,1.5-1.4c3.9-3.8,4.6-8,5.5-13.5c0.2-1.1,0.4-2.3,0.6-3.6c0.6,0.2,1.1,0.3,1.6,0.3c4.1,0,6.8-6,9.3-11.4
			c2-4.4,1.5-7.1,0.7-8.5c-0.7-1.3-1.9-2.1-3.4-2.3c-1.7-0.2-2.8,0.2-3.5,0.7c0.3-2.7,0.6-5.5,0.8-8.4c0.7,0.4,1.3,0.8,1.9,1
			c5.7,2,6.2,10.3,6.2,10.4c0,0.3,0.2,0.5,0.5,0.5c0,0,0,0,0,0c0.3,0,0.5-0.2,0.5-0.5c0-0.4-0.5-9.1-6.9-11.3
			c-5.9-2-18.8-19.7-18.9-19.8c-0.1-0.2-0.3-0.2-0.5-0.2c-0.2,0.1-0.3,0.2-0.4,0.4c-0.3,2.8,1.1,8.5,1.8,11.2
			c-4.6-4.3-9-18.1-9-18.3c-0.1-0.2-0.3-0.4-0.5-0.3c-0.2,0-0.4,0.2-0.4,0.4c-1.2,11.5-8.3,17.5-11.2,19.6
			c2.5-7.1,1.1-16.3,1.1-16.7c0-0.2-0.2-0.4-0.5-0.4c-0.2,0-0.4,0.1-0.5,0.3c-0.1,0.2-6.5,19.4-17,25.3c2.2-3.9,8-14.7,8.6-21.7
			c0-0.2-0.1-0.4-0.3-0.5c-0.2-0.1-0.4-0.1-0.5,0c-0.4,0.3-7.9,6.3-10.6,12.1c-0.2-4.9-0.1-15.5,3.1-21.1c0.1-0.2,0.1-0.5-0.1-0.7
			c-0.2-0.2-0.5-0.1-0.7,0.1c-0.1,0.1-7.8,8.4-9.9,18.5c-0.9,4.4-2,6.8-3,8.9c-1.2,2.7-2.2,4.8-2.2,9.4l-0.1,0l0,0.3l0,0l0.1,0.7
			c0,0.3,0,0.5,0,0.7c-0.7-0.5-1.7-1-3.4-0.9c-1.4,0.1-2.7,0.8-3.5,2c-0.9,1.4-1.6,4,0.1,8.6c2.1,5.6,4.6,12,8.8,12
			c0.1,0,0.2,0,0.4,0c1.1,5,2.7,9.3,5.3,12.9c-0.7-0.5-1.1-0.8-1.1-0.8c-0.2-0.1-0.4-0.2-0.6-0.1c-0.2,0.1-0.3,0.3-0.3,0.5
			c0,0.1,0.8,11,0.8,19.1c0,5.5-3.8,10.3-6,12.6c0.6-3.2-0.7-7.3-0.8-7.5c-0.1-0.2-0.2-0.3-0.3-0.3c-0.2,0-0.3,0-0.5,0.1
			c-6.5,6.1-11.4,7.4-13.7,7.6c3-2.1,4.1-4.2,4.1-4.3c0.1-0.2,0.1-0.4-0.1-0.6c-0.1-0.2-0.4-0.2-0.6-0.1c-3.9,1.7-8.2,0.3-10.7-0.8
			c1.8,0.1,4.3,0.1,7.1-0.2c1.4-0.2,2.6-1.2,3.3-3c2-4.7,0.9-13.6-2.3-17.9c-4.2-5.8-12.3-22.6-12.4-22.7c-0.1-0.2-0.3-0.3-0.6-0.3
			c-0.2,0.1-0.4,0.3-0.4,0.5c0.3,3.9-0.5,8-1.5,10.9c0.1-2.2,0.1-5.5-0.3-10.1l-0.1-1.8c-0.9-11.7-1.6-21.9,22-60.3
			c21.5-35.1,38.5-27.5,44.1-25c1.1,0.5,1.6,0.8,2.1,0.6c0.4-0.2,9.7-5.3,21.1,4.2c11.3,9.6,30.1,45.4,32.4,61.7
			c2.6,19,1,34-4.4,41.2C363.6,319.1,362.2,323.6,361.8,326.5z"/>
		<path d="M288.1,312.9l-0.8-0.4C287.5,312.6,287.8,312.7,288.1,312.9C288.1,312.9,288.1,312.9,288.1,312.9z"/>
	</g>
</g>
<path d="M301.9,273.4c-0.1,0-0.2,0-0.3-0.1c-7.8-7.4-16.3-2.8-16.7-2.6c-0.2,0.1-0.5,0-0.7-0.2s0-0.5,0.2-0.7
	c0.1-0.1,9.6-5.2,17.9,2.8c0.2,0.2,0.2,0.5,0,0.7C302.2,273.3,302.1,273.4,301.9,273.4z"/>
<path d="M325,273.4c-0.1,0-0.3-0.1-0.4-0.2c-0.2-0.2-0.2-0.5,0-0.7c8.3-8,17.8-2.8,17.9-2.8c0.2,0.1,0.3,0.4,0.2,0.7
	s-0.4,0.3-0.7,0.2c-0.4-0.2-8.9-4.8-16.7,2.6C325.2,273.3,325.1,273.4,325,273.4z"/>
<path d="M303.6,283.4c0,0-1.2-4.3-5.5-7c-4.3-2.7-9.7-1.3-9.7-1.3s7,1.5,1.1,0.9c-4-0.4-4.6,0.9-4.6,0.9s7.1,0.4,2.4,0.6
	c-3.4,0.2-3.8,1.5-3.8,1.5s5.5-0.5,1.9,1c-1.7,0.7-1.9,2.1-1.9,2.1s1.9-1,3.3-0.4c0,0-0.7,1-0.6,2.2c0,0,0.9-1.2,1.9-1.1
	c1,0.1,6-4.1,6-4.1L303.6,283.4z"/>
<g>
	<path class="st3" d="M286.2,280.4c0,0,11.2-8.9,18.5,4.7C304.7,285.2,292.8,291.2,286.2,280.4z"/>
	<path d="M297.3,287.3c-3.8,0-8.3-1.4-11.5-6.6c-0.1-0.2-0.1-0.5,0.1-0.7c0.2-0.2,4.9-3.9,10.4-2.8c3.5,0.7,6.5,3.3,8.9,7.7
		c0.1,0.1,0.1,0.3,0,0.4s-0.1,0.2-0.3,0.3C304.9,285.6,301.5,287.3,297.3,287.3z M286.9,280.6c2.6,4,6.3,5.9,11,5.8
		c2.8-0.1,5.2-1,6.2-1.4c-2.1-3.8-4.8-6-7.9-6.7C291.9,277.4,288,279.7,286.9,280.6z"/>
</g>
<path d="M323.2,283.4c0,0,1.2-4.3,5.5-7c4.3-2.7,9.7-1.3,9.7-1.3s-7,1.5-1.1,0.9c4-0.4,4.6,0.9,4.6,0.9s-7.1,0.4-2.4,0.6
	c3.4,0.2,3.8,1.5,3.8,1.5s-5.5-0.5-1.9,1c1.7,0.7,1.9,2.1,1.9,2.1s-1.9-1-3.3-0.4c0,0,0.7,1,0.6,2.2c0,0-0.9-1.2-1.9-1.1
	c-1,0.1-6-4.1-6-4.1L323.2,283.4z"/>
<g>
	<path class="st3" d="M340.6,280.4c0,0-11.2-8.9-18.5,4.7C322.1,285.2,334.1,291.2,340.6,280.4z"/>
	<path d="M329.6,287.3c-4.2,0-7.6-1.7-7.7-1.7c-0.1-0.1-0.2-0.2-0.3-0.3s0-0.3,0-0.4c2.3-4.4,5.3-6.9,8.9-7.7
		c5.5-1.1,10.2,2.6,10.4,2.8c0.2,0.2,0.2,0.4,0.1,0.7C337.9,285.9,333.4,287.3,329.6,287.3z M322.8,284.9c1,0.4,3.4,1.3,6.2,1.4
		c4.7,0.2,8.4-1.8,11-5.8c-1.2-0.8-5-3.2-9.2-2.3C327.6,278.9,325,281.1,322.8,284.9z"/>
</g>
<g>
	<defs>
		<path id="SVGID_1_" d="M286.2,280.4c0,0,11.2-8.9,18.5,4.7C304.7,285.2,292.8,291.2,286.2,280.4z"/>
	</defs>
	<clipPath id="SVGID_00000147207934019591542020000014629730848019042741_">
		<use xlink:href="#SVGID_1_"  style="overflow:visible;"/>
	</clipPath>
	<g style="clip-path:url(#SVGID_00000147207934019591542020000014629730848019042741_);">
		<g>
			<circle class="st5" cx="296.1" cy="282.2" r="5.4"/>
			<path d="M296.1,287.8c-3.1,0-5.6-2.5-5.6-5.6s2.5-5.6,5.6-5.6c3.1,0,5.6,2.5,5.6,5.6S299.2,287.8,296.1,287.8z M296.1,277.1
				c-2.8,0-5.1,2.3-5.1,5.1s2.3,5.1,5.1,5.1s5.1-2.3,5.1-5.1S298.9,277.1,296.1,277.1z"/>
		</g>
		<circle cx="296.1" cy="282.2" r="2.3"/>
		<circle class="st3" cx="297.3" cy="280.9" r="1.4"/>
	</g>
</g>
<path d="M297.3,287.3c-3.8,0-8.3-1.4-11.5-6.6c-0.1-0.2-0.1-0.5,0.1-0.7c0.2-0.2,4.9-3.9,10.4-2.8c3.5,0.7,6.5,3.3,8.9,7.7
	c0.1,0.1,0.1,0.3,0,0.4s-0.1,0.2-0.3,0.3C304.9,285.6,301.5,287.3,297.3,287.3z M286.9,280.6c2.6,4,6.3,5.9,11,5.8
	c2.8-0.1,5.2-1,6.2-1.4c-2.1-3.8-4.8-6-7.9-6.7C291.9,277.4,288,279.7,286.9,280.6z"/>
<g>
	<defs>
		<path id="SVGID_00000035520127493951503680000011408397823930737040_" d="M340.6,280.4c0,0-11.2-8.9-18.5,4.7
			C322.1,285.2,334.1,291.2,340.6,280.4z"/>
	</defs>
	<clipPath id="SVGID_00000103966253149624202500000011087371668469974447_">
		<use xlink:href="#SVGID_00000035520127493951503680000011408397823930737040_"  style="overflow:visible;"/>
	</clipPath>
	<g style="clip-path:url(#SVGID_00000103966253149624202500000011087371668469974447_);">
		<g>
			<circle class="st5" cx="330.8" cy="282.2" r="5.4"/>
			<path d="M330.8,287.8c-3.1,0-5.6-2.5-5.6-5.6s2.5-5.6,5.6-5.6c3.1,0,5.6,2.5,5.6,5.6S333.9,287.8,330.8,287.8z M330.8,277.1
				c-2.8,0-5.1,2.3-5.1,5.1s2.3,5.1,5.1,5.1s5.1-2.3,5.1-5.1S333.6,277.1,330.8,277.1z"/>
		</g>
		<circle cx="330.8" cy="282.2" r="2.3"/>
		<circle class="st3" cx="332" cy="280.9" r="1.4"/>
	</g>
</g>
<path d="M329.6,287.3c-4.2,0-7.6-1.7-7.7-1.7c-0.1-0.1-0.2-0.2-0.3-0.3s0-0.3,0-0.4c2.3-4.4,5.3-6.9,8.9-7.7
	c5.5-1.1,10.2,2.6,10.4,2.8c0.2,0.2,0.2,0.4,0.1,0.7C337.9,285.9,333.4,287.3,329.6,287.3z M322.8,284.9c1,0.4,3.4,1.3,6.2,1.4
	c4.7,0.2,8.4-1.8,11-5.8c-1.2-0.8-5-3.2-9.2-2.3C327.6,278.9,325,281.1,322.8,284.9z"/>
</svg>
