<?xml version="1.0" encoding="utf-8"?>
<!-- Generator: Adobe Illustrator 27.0.0, SVG Export Plug-In . SVG Version: 6.00 Build 0)  -->
<svg version="1.1" id="Layer_1" xmlns="http://www.w3.org/2000/svg" xmlns:xlink="http://www.w3.org/1999/xlink" x="0px" y="0px"
	 viewBox="0 0 600 1200" style="enable-background:new 0 0 600 1200;" xml:space="preserve">
<style type="text/css">
	.st0{fill:#3F2D21;}
	.st1{fill:#6E5843;}
	.st2{fill:#FFFFFF;}
	.st3{clip-path:url(#SVGID_00000086666536759470997040000006539036140343921305_);}
	.st4{fill:#99600E;}
	.st5{clip-path:url(#SVGID_00000031890984003293842830000012978936177649651328_);}
</style>
<g>
	<g>
		<g>
			<path class="st0" d="M356.8,246.9c-2.3-15.6-11.5-29.9-18.9-36.6c-7.4-6.7-19.7-3.6-19.7-3.6c-36.2-7-48.3,27.8-50.6,51.7
				c-2.3,23.9,0,45.1,0,45.1c0-5.3,3.1-10.1,3.1-10.1c1.6,32.3,22.1,42.1,22.1,42.1c3.1-6.9,3.4-16.3,3.3-20.5c-1-0.9-2.1-1.9-3.3-3
				c-4.7-4.5-7-9.6-9.6-16.9c-4.7,2.1-6.5-4.6-9.5-11.1c-3-6.5-0.5-9.7,2.3-10.1c2.8-0.3,3.8,1.3,3.8,1.3l0,0
				c-0.2-1.5-0.4-3.1-0.5-4.8c5.3-18.3,22.4-29.5,32.5-33.6c0.1,0,0.1,0,0.2-0.1c0.7-0.3,1.4-0.6,2.1-0.8c0.1,0,0.1,0,0.2-0.1
				c0.9-0.3,1.7-0.5,2.4-0.6c0.2,0,0.4-0.1,0.6-0.1c0.3,0,0.6-0.1,0.9-0.1c3.9,0,10.6,5.6,13.3,11.3c0.2,0.4,0.4,0.8,0.6,1.3
				c3.1,7.5,10.1,30.7,10.5,47.3v0c0,0,0,0,0,0c-2.6,7-3.8,12.5-8.3,16.9c-0.9,0.9-1.8,1.7-2.6,2.4c-0.5,6-0.6,21.5,8.6,25.9
				c6.6,3.2,18.1,4,29.2,7.1C360.1,322.5,359.1,262.5,356.8,246.9z"/>
			<path class="st1" d="M335.2,218.2c0,0,6.4,11.2,6.8,15.1c0,0-7.4-12.4-13.1-15.1c0,0,6.4,8.8,7.5,11.6c0,0-5.4-5.1-10.5-7.2
				c0,0,7.6,5.8,10.4,10.7c0,0-8.2-6.7-12.4-6.9c0,0,14.2,10.6,19.7,29.1c5.5,18.5,3.2,32.6,7.5,49.2c4.3,16.6,8.1,26.3,8.1,26.3
				s-3.6-15-3.2-20.5c0,0,1.8,5.3,3.6,7.6c0,0-3.8-15.4-3.6-24.2C356.2,285.1,355.1,231.3,335.2,218.2z"/>
			<path class="st1" d="M277.1,241.5c5.2-11.6,14.2-26.4,30.3-30.9c0,0-7.9,5-10.2,11.1c0,0,1.6-3.3,8.1-5.6c0,0-9.2,10.3-11.4,16.9
				c0,0,6.8-5,13.6-8.6c0,0-4.2,4.1-5.1,7.5c0,0,3.6-3.6,9.7-5.8c0,0-9.5,11.4-15.6,17.1c-6.1,5.6-12.2,13.1-14.7,18.7
				c-2.5,5.6-11.1,14.5-11.1,14.5s8.6-21.2,11.1-25.3c0,0-7.5,11.9-8.6,14.6C273.3,265.6,273.8,249.1,277.1,241.5z"/>
			<path class="st1" d="M293.4,317.7c0,0-10.4-12.7-11-18.3c0,0,0,3.3,0.7,5.6c0,0-4.5-2.8-6.7-8c0,0,2.8,8.7,5.9,13
				c0,0-4.2-3.1-5-4.6c0,0,3.9,13.3,9.4,18c0,0-2.3-5.7-2.2-8.2c0,0,2.2,8.2,10,10.1c0,0-5.6-5.7-5.6-10.8
				C288.8,314.3,290.6,317.3,293.4,317.7z"/>
			<g>
				<g>
					<circle class="st2" cx="332.2" cy="278.6" r="1.4"/>
				</g>
			</g>
			<g>
				<path d="M314.8,224.2c-0.7,0.3-16.7,8.1-22.8,17.6c-0.1,0.2-0.1,0.5,0.1,0.7c0.1,0.1,0.2,0.1,0.3,0.1c0.2,0,0.3-0.1,0.4-0.2
					c6-9.3,22.2-17.2,22.4-17.3c0.2-0.1,0.4-0.4,0.2-0.7C315.4,224.2,315.1,224.1,314.8,224.2z"/>
				<path d="M310.5,222.5c-0.3,0.1-8,2.6-11.9,6.7c-0.2,0.2-0.2,0.5,0,0.7c0.1,0.1,0.2,0.1,0.3,0.1c0.1,0,0.3-0.1,0.4-0.2
					c3.8-3.9,11.4-6.4,11.5-6.4c0.3-0.1,0.4-0.4,0.3-0.6C311,222.5,310.7,222.4,310.5,222.5z"/>
				<path d="M293.5,226.8c0.1,0,0.2,0.1,0.2,0.1c0.2,0,0.4-0.1,0.4-0.3c4.2-8.3,16.4-12.3,16.6-12.4c0.3-0.1,0.4-0.4,0.3-0.6
					c-0.1-0.3-0.4-0.4-0.6-0.3c-0.5,0.2-12.7,4.2-17.2,12.9C293.2,226.4,293.3,226.7,293.5,226.8z"/>
				<path d="M327.9,229.5c-0.2-0.2-0.5-0.2-0.7,0s-0.2,0.5,0,0.7c0.1,0.1,7.4,6.8,10.7,16.6c0.1,0.2,0.3,0.3,0.5,0.3
					c0.1,0,0.1,0,0.2,0c0.3-0.1,0.4-0.4,0.3-0.6C335.4,236.5,327.9,229.6,327.9,229.5z"/>
				<path d="M334.2,229.6c-0.2-0.2-0.5-0.3-0.7-0.1c-0.2,0.2-0.3,0.5-0.1,0.7c0,0.1,4.4,5.9,5.2,8.3c0.1,0.2,0.3,0.3,0.5,0.3
					c0.1,0,0.1,0,0.2,0c0.3-0.1,0.4-0.4,0.3-0.6C338.7,235.6,334.4,229.8,334.2,229.6z"/>
				<path d="M370,347.6C370,347.6,369.9,347.6,370,347.6c0-0.1,0-0.2-0.1-0.3c-6.3-18.6-8.9-54.7-10.7-78.6
					c-0.7-9.8-1.3-17.6-1.9-21.9c-2.2-15.5-11.5-30-19-36.9c-7.2-6.5-18.7-4.1-20-3.8c-11.7-2.3-21.8-0.3-30,5.9
					c-16.2,12.1-20.1,36.4-21,46.3c-2.2,23.7,0,45,0,45.2c0,0.3,0.3,0.5,0.5,0.4c0.3,0,0.5-0.2,0.5-0.5c0-3.3,1.3-6.6,2.2-8.4
					c1.9,26.9,17.4,38,22.2,40.8c0.2,0.1,0.5,0.1,0.7-0.2l0,0.2c3.2-6.7,3.5-16.2,3.4-21c0,0,0,0,0-0.1l0-0.1c0,0-0.1-0.1-0.1-0.1
					c0,0-0.1-0.1-0.1-0.1c-1-0.9-2.1-1.8-3.2-2.9c-4.6-4.4-7.6-10-9.6-17.1l-0.2,0.1c-0.1,0-0.2,0-0.3,0c-0.9,0.4-1.7,0.4-2.4,0.2
					c-2-0.8-3.5-4.3-5.1-8.1c-0.4-1-0.8-2-1.3-3c-1.4-3.2-1.7-5.9-0.7-7.6c0.6-1,1.5-1.6,2.6-1.8c2.3-0.3,3,0.7,3.1,0.8c0,0,0,0,0,0
					l0,0l0,0c0.1,0.1,0.2,0.2,0.3,0.2l0.7,0.5c-0.2-1.7-0.3-3.5-0.5-5.3c0,0,0,0,0,0c6.8-23.3,32.9-35,38.3-35
					c3.7,0,10.3,5.7,12.9,11c2.7,5.5,10.6,30.6,11,48.3c-0.5,1.3-0.9,2.6-1.4,3.8c-1.8,5.2-3.2,9.3-6.8,12.8c-1,1-2,1.8-2.9,2.6
					c-0.1,0.5-0.1,0.9-0.2,1.5c0,0,0,0,0.1-0.1c-0.5,6.6-0.1,20.2,10.2,25.5c1.8,0.9,5.9,1.8,11,3c5.2,1.1,11.7,2.6,18.2,4.5
					L370,347.6z M347.1,342.1c-1.3-9.9-1.5-33.7-1.5-33.9c0-0.3-0.2-0.5-0.5-0.5c0,0,0,0,0,0c-0.3,0-0.5,0.2-0.5,0.5
					c0,0.2,0.2,23.5,1.5,33.6c-1.4-0.3-2.5-0.7-3.4-1c0,0,0-0.1,0-0.1c-0.7-4.5-0.6-17-0.6-17.1c0-0.3-0.2-0.5-0.5-0.5c0,0,0,0,0,0
					c-0.3,0-0.5,0.2-0.5,0.5c0,0.5-0.1,12,0.5,16.8c0,0,0,0,0,0c-10.3-5.3-10.1-19.7-9.6-25.6c0,0,0,0,0,0c0.8-0.7,1.7-1.5,2.6-2.4
					c3.8-3.6,5.3-8.1,7.1-13.2c0.4-1.3,0.9-2.6,1.4-4c0-0.1,0-0.3,0-0.4c-0.5-17.9-8.5-43-11.1-48.5c-2.8-5.8-9.7-11.6-13.8-11.6
					c-5.3,0-30.6,11.1-38.5,33.4c-0.1-1-0.1-1.9-0.2-2.9c0-0.3-0.3-0.5-0.5-0.5c-0.3,0-0.5,0.3-0.5,0.5c0.2,3.1,0.4,5.9,0.7,8.7
					c-0.6-0.3-1.6-0.6-3.1-0.4c-1.4,0.2-2.6,1-3.4,2.3c-0.8,1.4-1.3,4.1,0.7,8.5c0.4,1,0.9,2,1.3,2.9c1.8,4.1,3.3,7.6,5.7,8.6
					c0.4,0.2,0.9,0.2,1.3,0.2c0.4,0,0.9-0.1,1.3-0.2c2.1,6.8,5.1,12.2,9.6,16.6c1.1,1.1,2.1,2,3.1,2.9c0,0.9,0,2,0,3.4
					c-5.5-4.5-10.3-14-10.4-14.1c-0.1-0.2-0.4-0.3-0.7-0.2c-0.2,0.1-0.3,0.4-0.2,0.7c0.2,0.4,5.3,10.5,11.2,14.9
					c-0.1,1.4-0.2,2.9-0.4,4.5c-1.7-1.1-3.3-2.8-3.3-2.8c-0.2-0.2-0.5-0.2-0.7,0c-0.2,0.2-0.2,0.5,0,0.7c0.1,0.1,2,2,3.9,3.2
					c-0.2,1.4-0.4,2.8-0.8,4.3c-4.1-2.3-9.4-8.1-9.4-8.1c-0.2-0.2-0.5-0.2-0.7,0c-0.2,0.2-0.2,0.5,0,0.7c0.2,0.3,5.7,6.2,9.9,8.5
					c-0.4,1.4-0.8,2.8-1.4,4.1c-5.2-3.2-20.1-14.6-21.4-41.4c0-0.2-0.2-0.4-0.4-0.5c-0.2-0.1-0.4,0-0.5,0.2c-0.1,0.1-1.7,2.6-2.6,6
					c-0.5-7.4-1.3-23.4,0.4-40.6c0.9-9.8,4.8-33.8,20.6-45.6c8-6,17.9-7.9,29.3-5.6c0.1,0,0.1,0,0.2,0c0.1,0,12.2-2.9,19.2,3.5
					c7.5,6.8,16.5,21,18.7,36.3c0.6,4.3,1.2,12,1.9,21.8c1.8,23.8,4.4,59.6,10.6,78.4c-1.2-0.3-2.3-0.7-3.5-1
					c-6.7-12.7-8.9-31.5-8.9-31.7c0-0.3-0.3-0.5-0.6-0.4c-0.3,0-0.5,0.3-0.4,0.6c0,0.2,2.1,18.4,8.6,31.2c-4.2-1.1-8.2-2-11.7-2.7
					C350.5,342.8,348.7,342.4,347.1,342.1z"/>
			</g>
		</g>
	</g>
</g>
<path d="M302.1,271c-0.1,0-0.2,0-0.3-0.1c-7.8-7.4-16.3-2.8-16.7-2.6c-0.2,0.1-0.5,0-0.7-0.2c-0.1-0.2,0-0.5,0.2-0.7
	c0.1-0.1,9.6-5.2,17.9,2.8c0.2,0.2,0.2,0.5,0,0.7C302.4,271,302.2,271,302.1,271z"/>
<path d="M325.2,271c-0.1,0-0.3-0.1-0.4-0.2c-0.2-0.2-0.2-0.5,0-0.7c8.3-8,17.8-2.8,17.9-2.8c0.2,0.1,0.3,0.4,0.2,0.7
	c-0.1,0.2-0.4,0.3-0.7,0.2c-0.4-0.2-8.9-4.8-16.7,2.6C325.4,271,325.3,271,325.2,271z"/>
<path d="M303.8,281c0,0-1.2-4.3-5.5-7c-4.3-2.7-9.7-1.3-9.7-1.3s7,1.5,1.1,0.9c-4-0.4-4.6,0.9-4.6,0.9s7.1,0.4,2.4,0.6
	c-3.4,0.2-3.8,1.5-3.8,1.5s5.5-0.5,1.9,1c-1.7,0.7-1.9,2.1-1.9,2.1s1.9-1,3.3-0.4c0,0-0.7,1-0.6,2.2c0,0,0.9-1.2,1.9-1.1
	c1,0.1,6-4.1,6-4.1L303.8,281z"/>
<g>
	<path class="st2" d="M286.4,278.1c0,0,11.2-8.9,18.5,4.7C304.9,282.8,292.9,288.8,286.4,278.1z"/>
	<path d="M297.5,285c-3.8,0-8.3-1.4-11.5-6.6c-0.1-0.2-0.1-0.5,0.1-0.7c0.2-0.2,4.9-3.9,10.4-2.8c3.5,0.7,6.5,3.3,8.9,7.7
		c0.1,0.1,0.1,0.3,0,0.4c0,0.1-0.1,0.2-0.3,0.3C305.1,283.3,301.7,285,297.5,285z M287.1,278.2c2.6,4,6.3,5.9,11,5.8
		c2.8-0.1,5.2-1,6.2-1.4c-2.2-3.8-4.8-6-7.9-6.7C292.1,275,288.2,277.4,287.1,278.2z"/>
</g>
<path d="M323.4,281c0,0,1.2-4.3,5.5-7c4.3-2.7,9.7-1.3,9.7-1.3s-7,1.5-1.1,0.9c4-0.4,4.6,0.9,4.6,0.9s-7.1,0.4-2.4,0.6
	c3.4,0.2,3.8,1.5,3.8,1.5s-5.5-0.5-1.9,1c1.7,0.7,1.9,2.1,1.9,2.1s-1.9-1-3.3-0.4c0,0,0.7,1,0.6,2.2c0,0-0.9-1.2-1.9-1.1
	c-1,0.1-6-4.1-6-4.1L323.4,281z"/>
<g>
	<path class="st2" d="M340.8,278.1c0,0-11.2-8.9-18.5,4.7C322.3,282.8,334.3,288.8,340.8,278.1z"/>
	<path d="M329.8,285c-4.2,0-7.6-1.7-7.7-1.7c-0.1-0.1-0.2-0.2-0.3-0.3c0-0.1,0-0.3,0-0.4c2.3-4.4,5.3-6.9,8.9-7.7
		c5.5-1.1,10.2,2.6,10.4,2.8c0.2,0.2,0.2,0.4,0.1,0.7C338.1,283.6,333.6,285,329.8,285z M323,282.6c1,0.4,3.4,1.3,6.2,1.4
		c4.7,0.2,8.4-1.8,11-5.8c-1.2-0.8-5-3.2-9.2-2.3C327.8,276.5,325.2,278.8,323,282.6z"/>
</g>
<g>
	<defs>
		<path id="SVGID_1_" d="M286.4,278.1c0,0,11.2-8.9,18.5,4.7C304.9,282.8,292.9,288.8,286.4,278.1z"/>
	</defs>
	<clipPath id="SVGID_00000013902382125116836810000006727327417527132590_">
		<use xlink:href="#SVGID_1_"  style="overflow:visible;"/>
	</clipPath>
	<g style="clip-path:url(#SVGID_00000013902382125116836810000006727327417527132590_);">
		<g>
			<circle class="st4" cx="296.3" cy="279.9" r="5.4"/>
			<path d="M296.3,285.5c-3.1,0-5.6-2.5-5.6-5.6c0-3.1,2.5-5.6,5.6-5.6c3.1,0,5.6,2.5,5.6,5.6C301.9,283,299.4,285.5,296.3,285.5z
				 M296.3,274.7c-2.8,0-5.1,2.3-5.1,5.1s2.3,5.1,5.1,5.1s5.1-2.3,5.1-5.1S299.1,274.7,296.3,274.7z"/>
		</g>
		<circle cx="296.3" cy="279.9" r="2.3"/>
		<circle class="st2" cx="297.5" cy="278.6" r="1.4"/>
	</g>
</g>
<path d="M297.5,285c-3.8,0-8.3-1.4-11.5-6.6c-0.1-0.2-0.1-0.5,0.1-0.7c0.2-0.2,4.9-3.9,10.4-2.8c3.5,0.7,6.5,3.3,8.9,7.7
	c0.1,0.1,0.1,0.3,0,0.4c0,0.1-0.1,0.2-0.3,0.3C305.1,283.3,301.7,285,297.5,285z M287.1,278.2c2.6,4,6.3,5.9,11,5.8
	c2.8-0.1,5.2-1,6.2-1.4c-2.2-3.8-4.8-6-7.9-6.7C292.1,275,288.2,277.4,287.1,278.2z"/>
<g>
	<defs>
		<path id="SVGID_00000005964848986359018510000005466404778375937213_" d="M340.8,278.1c0,0-11.2-8.9-18.5,4.7
			C322.3,282.8,334.3,288.8,340.8,278.1z"/>
	</defs>
	<clipPath id="SVGID_00000052095840698781214230000003730647018176759958_">
		<use xlink:href="#SVGID_00000005964848986359018510000005466404778375937213_"  style="overflow:visible;"/>
	</clipPath>
	<g style="clip-path:url(#SVGID_00000052095840698781214230000003730647018176759958_);">
		<g>
			<path class="st4" d="M336.3,279.9c0,3-2.4,5.4-5.4,5.4c-3,0-5.4-2.4-5.4-5.4c0-3,2.4-5.4,5.4-5.4
				C333.9,274.5,336.3,276.9,336.3,279.9z"/>
			<path d="M331,285.5c-3.1,0-5.6-2.5-5.6-5.6c0-3.1,2.5-5.6,5.6-5.6c3.1,0,5.6,2.5,5.6,5.6C336.6,283,334.1,285.5,331,285.5z
				 M331,274.7c-2.8,0-5.1,2.3-5.1,5.1s2.3,5.1,5.1,5.1s5.1-2.3,5.1-5.1S333.8,274.7,331,274.7z"/>
		</g>
		<circle cx="331" cy="279.9" r="2.3"/>
		<circle class="st2" cx="332.2" cy="278.6" r="1.4"/>
	</g>
</g>
<path d="M329.8,285c-4.2,0-7.6-1.7-7.7-1.7c-0.1-0.1-0.2-0.2-0.3-0.3c0-0.1,0-0.3,0-0.4c2.3-4.4,5.3-6.9,8.9-7.7
	c5.5-1.1,10.2,2.6,10.4,2.8c0.2,0.2,0.2,0.4,0.1,0.7C338.1,283.6,333.6,285,329.8,285z M323,282.6c1,0.4,3.4,1.3,6.2,1.4
	c4.7,0.2,8.4-1.8,11-5.8c-1.2-0.8-5-3.2-9.2-2.3C327.8,276.5,325.2,278.8,323,282.6z"/>
</svg>
