<?xml version="1.0" encoding="utf-8"?>
<!-- Generator: Adobe Illustrator 27.0.0, SVG Export Plug-In . SVG Version: 6.00 Build 0)  -->
<svg version="1.1" id="Layer_1" xmlns="http://www.w3.org/2000/svg" xmlns:xlink="http://www.w3.org/1999/xlink" x="0px" y="0px"
	 viewBox="0 0 600 1200" style="enable-background:new 0 0 600 1200;" xml:space="preserve">
<style type="text/css">
	.st0{fill:none;stroke:#000000;stroke-linecap:round;stroke-linejoin:round;stroke-miterlimit:10;}
	.st1{fill:#D4A444;}
	.st2{fill:#F5D463;}
	.st3{fill:#FFFFFF;}
	.st4{clip-path:url(#SVGID_00000168110672207809490890000002859509994358366648_);}
	.st5{fill:#0AACDD;}
	.st6{clip-path:url(#SVGID_00000128475010866884183810000016479326017256371343_);}
</style>
<g>
	<g>
		<g>
			<g>
				<path class="st0" d="M282.3,344.6"/>
			</g>
		</g>
		<g>
			<g>
				<g>
					<g>
						<g>
							<path class="st1" d="M355.9,226.2c-9.7-13.3-21.4-7.7-21.4-7.7s-9.1-14.9-28.5-12.9c-19.4,2-31.3,13.9-34.7,25.4
								c0,0,5.1-6.8,10.5-7.8c0,0-17.3,14.9-20.3,37.9c-3,23,9.1,48.8,8.5,57.3c-0.7,8.4-12.2,26.1-12.2,26.1s9.2-5.8,15.9-13.6
								c0,0,1.6,13.9,6,16.3c0,0-0.8-2.4,0-9.5c0,0,3.5,6.4,7.7,6.8c0,0-2.8-9.6-2.7-15.5c0,0,5.5,7.8,13.7,9.1c0,0-7-8.3-10.4-19.1
								l-1.7-8.1l0-9.9c-1.5-3.6-2.3-8.2-3.3-12.7c-0.4,4.4-1,11.7-1.2,15.4c0.2-3.7,0.5-7.9,0.9-12.2c0,0,0.3-3.2,0.3-3.2
								c0,0-0.3,3.2-0.3,3.2c1.7-17.6,5.8-38.5,16.4-48c13.2-11.9,29.1-4.1,29.1-4.1s10.9,22.6,21.2,29.4c0,0,0,0,0,0c0,0,0,0,0,0
								c1,0.7,2.1,1.2,3.1,1.5c-1-0.3-2.1-0.8-3.1-1.5c-0.8,16-3.6,26.2-7.9,35.2l-0.1,4.2c0.1,8.9-8.8,19.8-8.8,19.8
								c2,0,7.5-4.7,7.5-4.7c-1.6,4.7-5.3,10.2-5.3,10.2s11.6,1.1,23.8-15c12.2-16.1,7.2-43.5,7.2-43.5c0.5,1.8,3.2,10.1,3.2,10.1
								C371.1,274.5,365.6,239.5,355.9,226.2z"/>
						</g>
						<path class="st2" d="M285.1,218.2c0,0,27.2-15.9,44.8,1.7c0,0-4.6-2-7.3-2c0,0,5.6,3.6,9.3,8.4c0,0-8.5-4.4-11.6-4.4
							c0,0,6.4,5.4,8.5,8.4c0,0-13.4-11.1-25.2-11.4c-7.7-0.2-16.8,6-16.8,6s5-6.4,7.7-8.1L285.1,218.2z"/>
						<path class="st2" d="M304.9,228.2c0,0-15.1-4.9-25.2,5.4c-10.1,10.3-12,24.4-12,24.4s2.4-5.1,4.7-7.8c0,0-3.9,14.5-2.9,28.5
							c0,0,1.2-7.7,2.9-11.4c0,0,0.7,22.4,2.7,32.5c0,0,0.5-11.2,0.8-15.1l2.9,8.6c0,0,0.7-36.8,8.5-45.6
							c7.8-8.8,17.4-10.8,17.4-10.8s-6.3-2.2-11-1c0,0,8.9-3.7,16.2-2.4c0,0-7.1-3.2-13.4-1.7L304.9,228.2z"/>
						<path class="st2" d="M334.9,234.8c0,0,9.4-3.8,17,2.2s13,18.8,14.2,27.7l-4.4-7.2c0,0,2.4,10.6,1.5,16.4l-3.3-8.8
							c0,0,0.5,3.8,0.3,6.3c0,0-7.6-18.3-13.4-23.3c-5.9-5-14.1-6.2-14.1-6.2s9.3-0.6,11.9,1.6c0,0-4.5-4.4-8.3-4.5
							c0,0,4.9-0.8,8.8,1.4C345.1,240.3,342,234.4,334.9,234.8z"/>
						<path class="st2" d="M350.8,293.6c0,0,1.9,13-2,19.7c0,0,3.1-1.4,5-3.8c0,0-0.7,5.9-6.4,12c0,0,12.7-7.2,13.9-20.5
							c1.2-13.3-6.1-20.3-6.1-20.3s3.4,9.5,1.9,17.2c0,0-0.2-6.6-2.6-8.3v8.3C354.3,298,353.2,294.4,350.8,293.6z"/>
					</g>
				</g>
			</g>
		</g>
		<g>
			<path d="M356.3,225.9c-5.1-7-10.8-8.8-14.7-9c-3.4-0.2-5.9,0.7-6.9,1c-1.6-2.3-10.9-14.6-28.8-12.7c-21,2.2-32,15.3-35.1,25.8
				c-0.1,0.2,0,0.5,0.3,0.6c0.2,0.1,0.5,0,0.6-0.1c0-0.1,3.8-5,8.2-7c-4.4,4.4-16.4,17.9-18.9,36.8c-2,14.8,2.4,30.8,5.5,42.5
				c1.8,6.6,3.2,11.8,3,14.8c-0.7,8.2-12,25.7-12.1,25.8c-0.1,0.2-0.1,0.5,0.1,0.6c0.1,0.1,0.2,0.1,0.4,0.1c0.1,0,0.2,0,0.3-0.1
				c0.5-0.3,8.8-5.6,15.3-12.8c0.5,3.4,2.2,13.4,6.2,15.5c0.1,0,0.2,0.1,0.2,0.1c0.1,0,0.2,0,0.3-0.1c0.2-0.1,0.2-0.3,0.2-0.5
				c0,0-0.6-2.1-0.1-7.8c1.3,2,4.1,5.5,7.3,5.7c0.2,0,0.3-0.1,0.4-0.2c0.1-0.1,0.1-0.3,0.1-0.5c0-0.1-2.3-8.1-2.6-13.9
				c1.9,2.3,6.7,7.1,13.1,8.1c0.2,0,0.4-0.1,0.5-0.3c0.1-0.2,0.1-0.4-0.1-0.6c-0.1-0.1-13.5-14-11.6-35.8c0-0.1,0-0.2-0.1-0.3
				c0,0,0,0,0,0c-1.5-3.3-2.7-7.1-3.6-11.5c0-0.1-0.1-0.1-0.1-0.2c2.5-23.5,7.8-38.7,16-46.1c12.1-10.9,26.8-4.8,28.4-4.1
				c1.1,2.2,10.9,22,20.6,29c-1.3,15.7-3.1,26.9-7.6,35.3c0.1,0.6,0.1,1.2,0.1,1.8c0,0,0,0,0-0.1c-0.1,12.3-8.7,21.7-8.8,21.8
				c-0.1,0.1-0.2,0.4-0.1,0.5c0.1,0.2,0.3,0.3,0.5,0.3c1.5,0,4.5-2.2,6.3-3.7c-1.7,4.1-4.5,8.2-4.5,8.3c-0.1,0.1-0.1,0.3,0,0.5
				c0.1,0.2,0.2,0.3,0.4,0.3c0.5,0,12,1,24.2-15.2c8.8-11.7,8.7-29.3,8-38.2c0.7,2.3,1.5,4.6,1.5,4.7c0.1,0.2,0.3,0.4,0.5,0.3
				c0.2,0,0.4-0.2,0.5-0.4C371.5,275,366.4,239.7,356.3,225.9z M368.8,282.9c-0.8-2.6-2.2-6.8-2.5-8c-0.1-0.3-0.3-0.4-0.6-0.4
				c-0.3,0.1-0.4,0.3-0.4,0.6c0,0.1,1.2,6.9,1,15.6c-0.3,8-1.9,19.3-8.1,27.5c-10,13.2-19.6,14.7-22.5,14.8c1.1-1.7,3.6-5.8,4.8-9.5
				c0.1-0.2,0-0.4-0.2-0.6c-0.2-0.1-0.4-0.1-0.6,0c-1.5,1.3-3.9,3.2-5.7,4.1c2.6-3.3,8.5-12.2,7.9-22.9c4.3-8.3,6.1-19.4,7.4-34.6
				c1,0.6,1.9,1.1,2.9,1.4c0.3,0.1,0.5-0.1,0.6-0.3c0.1-0.3-0.1-0.5-0.3-0.6c-10.7-3.3-23.8-30.4-24-30.6c0-0.1-0.1-0.2-0.2-0.2
				c-0.2-0.1-16.4-7.8-29.7,4.1c-10,9-15.7,28.8-17.4,60.6c0,0.3,0.2,0.5,0.5,0.5c0,0,0,0,0,0c0.3,0,0.5-0.2,0.5-0.5
				c0.2-3.8,0.5-7.5,0.8-10.9c0.8,3.4,1.9,6.4,3.1,9.1c-1.6,18.6,7.7,31.5,10.8,35.3c-7-1.9-11.8-8.5-11.9-8.6
				c-0.1-0.2-0.4-0.3-0.6-0.2c-0.2,0.1-0.3,0.3-0.4,0.5c-0.1,5,1.8,12.5,2.5,14.9c-3.6-0.9-6.6-6.3-6.6-6.4
				c-0.1-0.2-0.3-0.3-0.5-0.2c-0.2,0-0.4,0.2-0.4,0.4c-0.5,4.4-0.4,7-0.2,8.4c-3.2-3.3-4.6-13.3-4.8-14.9c2.6-3,4.8-6.4,6-9.8
				c0.1-0.3-0.1-0.5-0.3-0.6c-0.3-0.1-0.5,0.1-0.6,0.3c-3.2,9.5-15.1,18.5-19.8,21.8c3-4.9,10.4-17.4,11-24.3
				c0.3-3.1-1.2-8.4-3-15.2c-3.1-11.6-7.4-27.5-5.5-42.1c3-22.6,20-37.5,20.2-37.6c0.2-0.1,0.2-0.4,0.1-0.6
				c-0.1-0.2-0.3-0.3-0.5-0.3c-3.6,0.7-7.1,3.8-9.1,5.9c3.9-9.7,14.5-20.6,33.4-22.6c18.9-2,27.9,12.5,28,12.6
				c0.1,0.2,0.4,0.3,0.6,0.2c0.5-0.2,11.4-5.3,20.8,7.5C364.8,239.2,369.8,270.7,368.8,282.9z"/>
			<path d="M351.9,237.5c0.2,0,0.3-0.1,0.4-0.2c0.2-0.2,0.1-0.5-0.1-0.7c-8.7-6.5-20.9-1.8-21.4-1.6c-0.3,0.1-0.4,0.4-0.3,0.6
				c0.1,0.3,0.4,0.4,0.6,0.3c0.1,0,12.1-4.7,20.4,1.5C351.6,237.5,351.7,237.5,351.9,237.5z"/>
			<path d="M341.5,238.6c-0.3-0.1-0.5,0.1-0.6,0.4s0.1,0.5,0.4,0.6c0.1,0,6.5,1.3,10.9,4.8c0.1,0.1,0.2,0.1,0.3,0.1
				c0.1,0,0.3-0.1,0.4-0.2c0.2-0.2,0.1-0.5-0.1-0.7C348.3,239.9,341.8,238.6,341.5,238.6z"/>
			<path d="M313.3,214.3c-0.3,0-0.5,0.2-0.5,0.5c0,0.3,0.2,0.5,0.5,0.5c8.5,0.7,13.9,6.7,14,6.8c0.1,0.1,0.2,0.2,0.4,0.2
				c0.1,0,0.2,0,0.3-0.1c0.2-0.2,0.2-0.5,0-0.7C327.7,221.1,322.2,215,313.3,214.3z"/>
			<path d="M320.7,224.1c-0.1,0-7.9-3.7-17-5.8c-0.3-0.1-0.5,0.1-0.6,0.4c-0.1,0.3,0.1,0.5,0.4,0.6c9,2.1,16.8,5.7,16.8,5.8
				c0.1,0,0.1,0,0.2,0c0.2,0,0.4-0.1,0.5-0.3C321,224.5,320.9,224.2,320.7,224.1z"/>
			<path d="M277.8,235c-0.1,0.1-2.7,2.4-5.5,7.3c-2.6,4.6-5.8,12.3-6.7,23.4c0,0.3,0.2,0.5,0.5,0.5c0,0,0,0,0,0
				c0.3,0,0.5-0.2,0.5-0.5c1.7-20.9,11.8-30,11.9-30.1c0.2-0.2,0.2-0.5,0-0.7C278.3,234.8,278,234.8,277.8,235z"/>
			<path d="M302.7,233.1c-0.1,0-11,0.1-17.2,10.6c-0.1,0.2-0.1,0.5,0.2,0.7c0.1,0,0.2,0.1,0.3,0.1c0.2,0,0.3-0.1,0.4-0.2
				c5.9-10,16.2-10.1,16.3-10.1c0.3,0,0.5-0.2,0.5-0.5C303.2,233.3,302.9,233.1,302.7,233.1z"/>
			<path d="M277.3,256.7c-0.2-0.1-0.5,0-0.7,0.2c-0.1,0.1-6.8,12.6-7.2,23.9c0,0.3,0.2,0.5,0.5,0.5c0,0,0,0,0,0
				c0.3,0,0.5-0.2,0.5-0.5c0.3-11,7-23.3,7.1-23.4C277.7,257.1,277.6,256.8,277.3,256.7z"/>
			<path d="M351.2,300.7c-0.3,0-0.5,0.2-0.5,0.5c0,0.1-0.5,7.9-3.9,14.2c-0.1,0.2,0,0.5,0.2,0.7c0.1,0,0.2,0.1,0.2,0.1
				c0.2,0,0.3-0.1,0.4-0.3c3.5-6.4,4-14.2,4-14.6C351.7,300.9,351.5,300.7,351.2,300.7z"/>
			<path d="M353.5,287.1c-0.2,0.2-0.2,0.5-0.1,0.7c0,0,3.4,4.3,3.4,12.8c0,0.3,0.2,0.5,0.5,0.5s0.5-0.2,0.5-0.5
				c0-8.9-3.5-13.2-3.6-13.4C354,287,353.7,287,353.5,287.1z"/>
			<path d="M353.3,278.2c-0.2-0.1-0.5,0-0.7,0.2c-0.1,0.2,0,0.5,0.2,0.7c0.1,0,6.5,3.4,7.8,17.7c0,0.3,0.2,0.5,0.5,0.5c0,0,0,0,0,0
				c0.3,0,0.5-0.3,0.4-0.5C360.3,281.9,353.6,278.4,353.3,278.2z"/>
			<path d="M354.6,259.5c-0.2,0.1-0.3,0.4-0.2,0.7c0.1,0.1,5.3,10,6.3,13.8c0.1,0.2,0.3,0.4,0.5,0.4c0,0,0.1,0,0.1,0
				c0.3-0.1,0.4-0.3,0.4-0.6c-1-4-6.2-13.6-6.4-14C355.1,259.5,354.8,259.4,354.6,259.5z"/>
		</g>
	</g>
</g>
<path d="M303.2,271.4c-0.1,0-0.2,0-0.3-0.1c-7.8-7.5-16.6-2.7-16.7-2.6c-0.2,0.1-0.5,0-0.7-0.2c-0.1-0.2,0-0.5,0.2-0.7
	c0.1-0.1,9.6-5.2,17.9,2.8c0.2,0.2,0.2,0.5,0,0.7C303.4,271.3,303.3,271.4,303.2,271.4z"/>
<path d="M326.2,271.4c-0.1,0-0.3-0.1-0.4-0.2c-0.2-0.2-0.2-0.5,0-0.7c8.3-8,17.8-2.8,17.9-2.8c0.2,0.1,0.3,0.4,0.2,0.7
	s-0.4,0.3-0.7,0.2c-0.4-0.2-8.9-4.8-16.7,2.6C326.5,271.4,326.3,271.4,326.2,271.4z"/>
<path d="M304.9,281.4c0,0-1.2-4.3-5.5-7c-4.3-2.7-9.7-1.3-9.7-1.3s7,1.5,1.1,0.9c-4-0.4-4.6,0.9-4.6,0.9s7.1,0.4,2.4,0.6
	c-3.4,0.2-3.8,1.5-3.8,1.5s5.5-0.5,1.9,1c-1.7,0.7-1.9,2.1-1.9,2.1s1.9-1,3.3-0.4c0,0-0.7,1-0.6,2.2c0,0,0.9-1.2,1.9-1.1
	c1,0.1,6-4.1,6-4.1L304.9,281.4z"/>
<g>
	<path class="st3" d="M287.5,278.4c0,0,11.2-8.9,18.5,4.7C306,283.2,294,289.2,287.5,278.4z"/>
	<path d="M298.5,285.3c-3.8,0-8.3-1.4-11.5-6.6c-0.1-0.2-0.1-0.5,0.1-0.7c0.2-0.2,4.9-3.9,10.4-2.8c3.5,0.7,6.5,3.3,8.9,7.7
		c0.1,0.1,0.1,0.3,0,0.4c0,0.1-0.1,0.2-0.3,0.3C306.1,283.7,302.7,285.3,298.5,285.3z M288.1,278.6c2.6,4,6.3,5.9,11,5.8
		c2.8-0.1,5.2-1,6.1-1.4c-2.1-3.8-4.8-6-7.9-6.7C293.2,275.4,289.3,277.8,288.1,278.6z"/>
</g>
<path d="M324.5,281.4c0,0,1.2-4.3,5.5-7c4.3-2.7,9.7-1.3,9.7-1.3s-7,1.5-1.1,0.9c4-0.4,4.6,0.9,4.6,0.9s-7.1,0.4-2.4,0.6
	c3.4,0.2,3.8,1.5,3.8,1.5s-5.5-0.5-1.9,1c1.7,0.7,1.9,2.1,1.9,2.1s-1.9-1-3.3-0.4c0,0,0.7,1,0.6,2.2c0,0-0.9-1.2-1.9-1.1
	c-1,0.1-6-4.1-6-4.1L324.5,281.4z"/>
<g>
	<path class="st3" d="M341.9,278.4c0,0-11.2-8.9-18.5,4.7C323.4,283.2,335.3,289.2,341.9,278.4z"/>
	<path d="M330.8,285.3c-4.2,0-7.6-1.7-7.7-1.7c-0.1-0.1-0.2-0.2-0.3-0.3c0-0.1,0-0.3,0-0.4c2.3-4.4,5.3-6.9,8.9-7.7
		c5.5-1.1,10.2,2.6,10.4,2.8c0.2,0.2,0.2,0.4,0.1,0.7C339.1,283.9,334.6,285.3,330.8,285.3z M324.1,283c1,0.4,3.4,1.3,6.2,1.4
		c4.7,0.2,8.4-1.8,11-5.8c-1.2-0.8-5-3.2-9.2-2.3C328.9,276.9,326.2,279.2,324.1,283z"/>
</g>
<g>
	<defs>
		<path id="SVGID_1_" d="M287.5,278.4c0,0,11.2-8.9,18.5,4.7C306,283.2,294,289.2,287.5,278.4z"/>
	</defs>
	<clipPath id="SVGID_00000181807239268178506880000009392796547546157748_">
		<use xlink:href="#SVGID_1_"  style="overflow:visible;"/>
	</clipPath>
	<g style="clip-path:url(#SVGID_00000181807239268178506880000009392796547546157748_);">
		<g>
			<circle class="st5" cx="297.3" cy="280.2" r="5.4"/>
			<path d="M297.3,285.8c-3.1,0-5.6-2.5-5.6-5.6c0-3.1,2.5-5.6,5.6-5.6s5.6,2.5,5.6,5.6C302.9,283.3,300.4,285.8,297.3,285.8z
				 M297.3,275.1c-2.8,0-5.1,2.3-5.1,5.1s2.3,5.1,5.1,5.1s5.1-2.3,5.1-5.1S300.1,275.1,297.3,275.1z"/>
		</g>
		<circle cx="297.3" cy="280.2" r="2.3"/>
		<circle class="st3" cx="298.6" cy="278.9" r="1.4"/>
	</g>
</g>
<path d="M298.5,285.3c-3.8,0-8.3-1.4-11.5-6.6c-0.1-0.2-0.1-0.5,0.1-0.7c0.2-0.2,4.9-3.9,10.4-2.8c3.5,0.7,6.5,3.3,8.9,7.7
	c0.1,0.1,0.1,0.3,0,0.4c0,0.1-0.1,0.2-0.3,0.3C306.1,283.7,302.7,285.3,298.5,285.3z M288.1,278.6c2.6,4,6.3,5.9,11,5.8
	c2.8-0.1,5.2-1,6.1-1.4c-2.1-3.8-4.8-6-7.9-6.7C293.2,275.4,289.3,277.8,288.1,278.6z"/>
<g>
	<defs>
		<path id="SVGID_00000018225432328200566310000003195808350714221227_" d="M341.9,278.4c0,0-11.2-8.9-18.5,4.7
			C323.4,283.2,335.3,289.2,341.9,278.4z"/>
	</defs>
	<clipPath id="SVGID_00000076580634703587225010000012806514086053184445_">
		<use xlink:href="#SVGID_00000018225432328200566310000003195808350714221227_"  style="overflow:visible;"/>
	</clipPath>
	<g style="clip-path:url(#SVGID_00000076580634703587225010000012806514086053184445_);">
		<g>
			<circle class="st5" cx="332" cy="280.2" r="5.4"/>
			<path d="M332,285.8c-3.1,0-5.6-2.5-5.6-5.6c0-3.1,2.5-5.6,5.6-5.6c3.1,0,5.6,2.5,5.6,5.6C337.7,283.3,335.1,285.8,332,285.8z
				 M332,275.1c-2.8,0-5.1,2.3-5.1,5.1s2.3,5.1,5.1,5.1s5.1-2.3,5.1-5.1S334.9,275.1,332,275.1z"/>
		</g>
		<circle cx="332" cy="280.2" r="2.3"/>
		<circle class="st3" cx="333.3" cy="278.9" r="1.4"/>
	</g>
</g>
<path d="M330.8,285.3c-4.2,0-7.6-1.7-7.7-1.7c-0.1-0.1-0.2-0.2-0.3-0.3c0-0.1,0-0.3,0-0.4c2.3-4.4,5.3-6.9,8.9-7.7
	c5.5-1.1,10.2,2.6,10.4,2.8c0.2,0.2,0.2,0.4,0.1,0.7C339.1,283.9,334.6,285.3,330.8,285.3z M324.1,283c1,0.4,3.4,1.3,6.2,1.4
	c4.7,0.2,8.4-1.8,11-5.8c-1.2-0.8-5-3.2-9.2-2.3C328.9,276.9,326.2,279.2,324.1,283z"/>
</svg>
