<?xml version="1.0" encoding="utf-8"?>
<!-- Generator: Adobe Illustrator 27.0.0, SVG Export Plug-In . SVG Version: 6.00 Build 0)  -->
<svg version="1.1" id="Layer_1" xmlns="http://www.w3.org/2000/svg" xmlns:xlink="http://www.w3.org/1999/xlink" x="0px" y="0px"
	 viewBox="0 0 600 1200" style="enable-background:new 0 0 600 1200;" xml:space="preserve">
<style type="text/css">
	.st0{fill:none;stroke:#000000;stroke-linecap:round;stroke-linejoin:round;stroke-miterlimit:10;}
	.st1{fill:#B2463A;}
	.st2{fill:#FFB6B1;}
	.st3{fill:none;}
	.st4{fill:#FFFFFF;}
	.st5{clip-path:url(#SVGID_00000009553609617415950560000017876633028417956529_);}
	.st6{fill:#62990D;}
	.st7{clip-path:url(#SVGID_00000145754323812306675970000007318244865651128459_);}
</style>
<g>
	<g>
		<g>
			<g>
				<path class="st0" d="M282.3,346.6"/>
			</g>
		</g>
		<g>
			<path class="st1" d="M372.4,272.9c-2.3-16.3-20.8-52.1-32.5-62.1c-11.7-9.9-21.6-4.3-21.6-4.3c-2.3,0-21.5-15.8-46.3,24.6
				c-24.8,40.4-22.8,49.5-21.9,62.3c0.7,10.4,0,13.5-0.3,14.4c0.7-1.4,3.6-8.4,3-15.3c0,0,8.1,16.9,12.4,22.8
				c4.3,5.9,4.5,19.4-0.7,20.1c-5.2,0.7-9.5,0-9.5,0s7,4.7,13.3,2c0,0-1.4,2.7-5.4,5c0,0,6.1,1.4,15.8-7.7c0,0,2,6.3,0,9.3
				c0,0,7.8-6.3,7.7-14.5c0-8.1-0.8-19.1-0.8-19.1s2.4,2.2,6.4,3.3c0.5,0.1-3.7-4.1-6.1-10c-0.8-2-1.5-4.1-2.2-6.4
				c-4.2,1-7-4.8-9.8-11c-3-6.5-0.5-9.7,2.3-10.1c2.7-0.3,3.8,1.2,3.8,1.3c-0.1-0.7-0.2-1.4-0.2-2.1c-0.2-8.9,3-8.8,5.1-19
				c2.1-10.2,9.8-18.3,9.8-18.3c-4.4,7.6-3,24.1-3,24.1c1.1-6.4,11.3-14.4,11.3-14.4c-0.8,8.4-9.4,22.9-9.4,22.9
				c11.8-4.9,18.8-26.3,18.8-26.3s1.7,10.6-1.6,17.8c0,0,11.2-5.9,12.8-20.8c0,0,5.2,16.5,10.4,19.4c0,0-2.6-8.8-2.2-12.4
				c0,0,10.1,13.8,16.7,18.6V258v9.1c0.9,0.7,1.7,1.2,2.5,1.4c6.1,2.1,6.6,10.8,6.6,10.8s-0.5-8.7-6.6-10.8
				c-0.7-0.3-1.6-0.7-2.5-1.4v0c-0.2,3.6-0.5,7.1-1,10.4h0.2c0,0,1.1-1.6,3.8-1.3c2.8,0.3,5.3,3.6,2.3,10.1
				c-2.9,6.4-6.3,12.4-10.8,10.7c-2,6.3-4,11.7-7.1,15.8c0,0-1.2,7.5-1.9,16.8c-0.7,9.3,12.4,21.5,12.4,21.5
				c-3.4-3.4-2.7-10.6-2.7-10.6c2.7,4.5,8.8,5.6,8.8,5.6c-2.3-2.6-1.6-7.8-1.6-7.8c3.8,10.4,16.7,7.5,16.7,7.5s-7.2-1.4-10.6-8.1
				s5.2-21,5.2-21c-2,7,0.2,13.6,0.2,13.6s-0.7-7.2,5.6-15.6C374.2,306.1,374.7,289.2,372.4,272.9z"/>
			<path class="st2" d="M304.9,213.7c0,0,5.9,5.3-1.1,15.6c-3.8,5.5-4.2,12.4-4.2,12.4s4.3-8,7.8-11.3c0,0,1.3,8.1-0.2,14.9
				c0,0,6.1-9.8,6.3-15.8c0,0,1.4,4.6,1.3,7.7c0,0,1.8-5.4,1.8-7.7c0,0,1.2,4.9,0.7,11.3c0,0,3.4-7.7,3.4-13.9
				c0-6.2-10.1-19.1-10.1-19.1s2,4.5,2,8c0,0-3.9-7.2-7.9-7.5c0,0,3.2,3.7,4,7.6C308.9,216,307.8,214,304.9,213.7z"/>
			<path class="st2" d="M324.1,215.8c0,0,1.8,6.3,1.1,13.9c-0.7,7.6,3.8,12.4,3.8,12.4s-3.6-8.2-1.7-14.7c2.7-9.1-0.8-17.6-0.8-17.6
				s0.4,6.6,0,8.9C326.5,218.6,326.1,217.1,324.1,215.8z"/>
			<path class="st2" d="M333.8,221.9c0,0,2.5,4.1,1.7,11.1c-0.8,7,2.1,14.8,7,21c4.9,6.2,11.2,6.3,11.2,6.3s-7.9-4.1-8.7-7.9
				c0,0,4,2.9,7.7,3.3c0,0-6.6-3.5-7.8-8.4c-1.2-4.9-1.2-20.7-5.8-24.7c0,0,3.2,10.3,1.7,17.5C340.8,240.1,338.4,222.9,333.8,221.9z
				"/>
			<path class="st2" d="M293.5,221.9c0,0-0.4,12.8-5.5,18.2c-5.1,5.4-13,16.8-13.6,23c0,0-0.5-6.8,1.5-12c0,0-7.6,5.8-7.1,19.6
				c0,0-3.9-3.9-0.5-13.9c3.4-10,11.2-15.4,12.7-23.4c1.5-8,9.1-17.1,9.1-17.1s-3.9,8.3-3.8,13.6c0,0,0.6-3.4,2.7-5.8
				c0,0-0.6,4.3-0.3,6.3C288.8,230.4,292.2,225.5,293.5,221.9z"/>
			<path class="st2" d="M256.8,277.3c0,0-3.1,10.9,0,15c3.1,4.1,10.2,7.3,10.2,13.3c0,0,1.6-5.4-0.9-9.1s-6.6-10.5-3.5-17
				c0,0-3.1,2.2-3.5,8.6C259,287.9,255.5,282.5,256.8,277.3z"/>
			<path class="st2" d="M365.4,272.9c4.6,4.3,9.3,13.8,4.9,23.6s-5.8,16.9-5.8,16.9s-2.2-6.9,0-12.2c0,0-6.8,6.6-8.1,15.2
				c0,0-1.4-9.5,3.7-15.1c5.1-5.6,7.5-14,7.3-17.3C367.3,280.7,365.4,272.9,365.4,272.9z"/>
			<g>
				<path d="M316.8,215.9c-0.2-0.2-0.5-0.1-0.7,0.1c-0.2,0.2-0.1,0.5,0.1,0.7c0.1,0.1,8.5,6.7-0.8,28.4c-0.1,0.3,0,0.5,0.3,0.7
					c0.1,0,0.1,0,0.2,0c0.2,0,0.4-0.1,0.5-0.3C325.9,223.1,317.2,216.2,316.8,215.9z"/>
				<path d="M303,212.4c-0.3,0-0.5,0.2-0.6,0.4c0,0.3,0.2,0.5,0.4,0.6c0,0,4.4,0.5,6.9,4c0.1,0.1,0.3,0.2,0.4,0.2
					c0.1,0,0.2,0,0.3-0.1c0.2-0.2,0.3-0.5,0.1-0.7C307.9,213,303.2,212.5,303,212.4z"/>
				<path d="M307.4,228.3c-0.3,0-0.5,0.3-0.4,0.6c0,0.1,1.4,9.3-0.8,17.4c-0.1,0.3,0.1,0.5,0.4,0.6c0,0,0.1,0,0.1,0
					c0.2,0,0.4-0.1,0.5-0.4c2.3-8.3,0.9-17.7,0.9-17.8C307.9,228.4,307.7,228.3,307.4,228.3z"/>
				<path d="M312.8,226.1c-0.3,0.1-0.4,0.3-0.4,0.6c0,0.1,2,8.7,2,11.5c0,0.3,0.2,0.5,0.5,0.5s0.5-0.2,0.5-0.5c0-2.9-2-11.3-2-11.7
					C313.3,226.2,313,226.1,312.8,226.1z"/>
				<path d="M327.8,227.5c0.1-0.3-0.1-0.5-0.4-0.6c-0.3-0.1-0.5,0.1-0.6,0.4c-0.1,0.3-2,8.2,2.4,16.5c0.1,0.2,0.3,0.3,0.4,0.3
					c0.1,0,0.2,0,0.2-0.1c0.2-0.1,0.3-0.4,0.2-0.7C325.9,235.3,327.8,227.5,327.8,227.5z"/>
				<path d="M338.6,229.6c-0.3,0.1-0.4,0.3-0.4,0.6c0,0.1,2.4,9.2,2.6,12.8c0,0.3,0.2,0.5,0.5,0.5c0,0,0,0,0,0
					c0.3,0,0.5-0.3,0.5-0.5c-0.3-3.7-2.6-12.6-2.7-13C339.1,229.7,338.8,229.5,338.6,229.6z"/>
				<path d="M355.8,256c-5-0.7-7.3-2.1-7.3-2.1c-0.2-0.1-0.5-0.1-0.7,0.2c-0.1,0.2-0.1,0.5,0.2,0.7c0.1,0.1,2.5,1.5,7.7,2.3
					c0,0,0,0,0.1,0c0.2,0,0.5-0.2,0.5-0.4C356.3,256.3,356.1,256,355.8,256z"/>
				<path d="M273,247.8l-0.4-0.3c-1.7,2.1-9.8,13-2.8,26.5c0.1,0.2,0.3,0.3,0.4,0.3c0.1,0,0.2,0,0.2-0.1c0.2-0.1,0.3-0.4,0.2-0.7
					c-6.7-13,1.1-23.5,2.7-25.4c0.1-0.2,0.2-0.5,0.1-0.7L273,247.8z"/>
				<path d="M290.8,220.4c-0.1,0.2-3.2,4.3-2.4,12c0,0.3,0.2,0.4,0.5,0.4c0,0,0,0,0.1,0c0.3,0,0.5-0.3,0.4-0.6
					c-0.8-7.3,2.1-11.3,2.2-11.3c0.2-0.2,0.1-0.5-0.1-0.7C291.3,220.2,291,220.2,290.8,220.4z"/>
				<path d="M264.2,292.4c-0.2-0.2-0.5-0.1-0.7,0.1c-0.2,0.2-0.1,0.5,0.1,0.7c0.2,0.2,5.6,4.5,2.4,14.8c-0.1,0.3,0.1,0.5,0.3,0.6
					c0,0,0.1,0,0.1,0c0.2,0,0.4-0.1,0.5-0.4C270.4,297.2,264.4,292.6,264.2,292.4z"/>
				<path d="M362.6,266.7c-0.3,0.1-0.4,0.4-0.3,0.6c0.1,0.1,5.3,14,4.2,20c0,0.3,0.1,0.5,0.4,0.6c0,0,0.1,0,0.1,0
					c0.2,0,0.4-0.2,0.5-0.4c1.1-6.3-4.1-20-4.3-20.6C363.2,266.7,362.9,266.6,362.6,266.7z"/>
				<path d="M360.6,305.2c-0.2,0.4-6.1,9-6.1,18.7c0,0.3,0.2,0.5,0.5,0.5s0.5-0.2,0.5-0.5c0-9.4,5.9-18.1,5.9-18.2
					c0.2-0.2,0.1-0.5-0.1-0.7C361.1,305,360.8,305,360.6,305.2z"/>
			</g>
		</g>
		<g>
			<path class="st3" d="M371.9,272.9c-2.3-16.4-21-52.1-32.4-61.7c-11.3-9.6-21-4.3-21.1-4.2c-0.4,0.2-1-0.1-2.1-0.6
				c-5.6-2.5-22.6-10-44.1,25c-23.6,38.4-22.9,48.6-22,60.3l0.1,1.8c0.3,4.6,0.4,7.9,0.3,10.1c0.9-2.9,1.8-7,1.5-10.9
				c0-0.2,0.1-0.5,0.4-0.5c0.2-0.1,0.5,0,0.6,0.3c0.1,0.2,8.2,17,12.4,22.7c3.2,4.3,4.3,13.2,2.3,17.9c-0.8,1.8-1.9,2.8-3.3,3
				c-2.8,0.4-5.4,0.3-7.1,0.2c2.5,1.2,6.8,2.5,10.7,0.8c0.2-0.1,0.4,0,0.6,0.1c0.1,0.2,0.2,0.4,0.1,0.6c-0.1,0.1-1.1,2.2-4.1,4.3
				c2.4-0.2,7.2-1.5,13.7-7.6c0.1-0.1,0.3-0.2,0.5-0.1c0.2,0,0.3,0.2,0.3,0.3c0.1,0.2,1.4,4.3,0.8,7.5c2.2-2.3,6-7,6-12.6
				c0-8-0.8-18.9-0.8-19.1c0-0.2,0.1-0.4,0.3-0.5c0.2-0.1,0.4-0.1,0.6,0.1c0,0,1.9,1.7,5,2.8c-3.7-4.1-6.2-9.1-7.9-15
				c-0.1,0-0.2,0-0.3,0c-4.1,0-6.9-6-9.3-11.4c-2-4.4-1.5-7.1-0.7-8.5c0.7-1.3,1.9-2.1,3.4-2.3c1.5-0.2,2.6,0.2,3.2,0.6
				c0-0.2,0-0.4-0.1-0.6l-0.1-0.7l0,0l0-0.3l0.1,0c0-4.6,0.9-6.8,2.2-9.4c1-2.1,2.1-4.5,3-8.9c2.1-10.2,9.8-18.5,9.9-18.5
				c0.2-0.2,0.5-0.2,0.7-0.1c0.2,0.2,0.3,0.4,0.1,0.7c-3.2,5.6-3.3,16.2-3.1,21.1c2.7-5.8,10.3-11.8,10.6-12.1
				c0.2-0.1,0.4-0.1,0.5,0c0.2,0.1,0.3,0.3,0.3,0.5c-0.6,7-6.4,17.8-8.6,21.7c10.6-5.8,17-25,17-25.3c0.1-0.2,0.3-0.4,0.5-0.3
				c0.2,0,0.4,0.2,0.5,0.4c0.1,0.4,1.5,9.5-1.1,16.7c2.9-2.1,10-8.1,11.2-19.6c0-0.2,0.2-0.4,0.4-0.4c0.2,0,0.5,0.1,0.5,0.3
				c0,0.2,4.5,14,9,18.3c-0.7-2.7-2.2-8.4-1.8-11.2c0-0.2,0.2-0.4,0.4-0.4c0.2,0,0.4,0,0.5,0.2c0.1,0.2,13,17.8,18.9,19.8
				c6.3,2.2,6.9,10.9,6.9,11.3c0,0.3-0.2,0.5-0.5,0.5c0,0,0,0,0,0c-0.3,0-0.5-0.2-0.5-0.5c0-0.1-0.5-8.4-6.2-10.4
				c-0.6-0.2-1.2-0.5-1.9-1c-0.2,3-0.5,5.8-0.8,8.4c0.7-0.5,1.8-0.9,3.5-0.7c1.4,0.2,2.6,1,3.4,2.3c0.8,1.4,1.3,4.1-0.7,8.5
				c-2.4,5.4-5.2,11.4-9.3,11.4c-0.5,0-1.1-0.1-1.7-0.3c-0.5,1.4-1,2.7-1.4,3.9c-1.6,4.5-3,8.5-5.9,11.9c0,0,0,0.1,0,0.1
				c-0.5,4.2-1.2,10.4-1.6,16.1c-0.5,6.3,5.7,14.1,9.5,18.2c-1.1-3.4-0.8-7.2-0.8-7.4c0-0.2,0.2-0.4,0.4-0.4c0.2,0,0.4,0,0.5,0.2
				c1.8,3.1,5.4,4.5,7.2,5c-1.5-2.8-1-6.9-0.9-7.1c0-0.2,0.2-0.4,0.4-0.4c0.2,0,0.4,0.1,0.5,0.3c1.5,4.1,4.7,6.6,9.4,7.3
				c1.7,0.3,3.3,0.2,4.5,0.1c-2.5-1-6.4-3.1-8.7-7.7c-3.5-6.9,4.9-20.9,5.2-21.5c0.1-0.2,0.4-0.3,0.6-0.2c0.2,0.1,0.3,0.4,0.3,0.6
				c-1.1,3.7-0.9,7.4-0.5,9.9c0.5-3,1.8-7.5,5.5-12.4C372.9,307,374.5,291.9,371.9,272.9z"/>
		</g>
	</g>
	<path class="st3" d="M371.9,272.9c-2.3-16.4-21-52.1-32.4-61.7c-11.3-9.6-21-4.3-21.1-4.2c-0.4,0.2-1-0.1-2.1-0.6
		c-5.6-2.5-22.6-10-44.1,25c-23.6,38.4-22.9,48.6-22,60.3l0.1,1.8c0.3,4.6,0.4,7.9,0.3,10.1c0.9-2.9,1.8-7,1.5-10.9
		c0-0.2,0.1-0.5,0.4-0.5c0.2-0.1,0.5,0,0.6,0.3c0.1,0.2,8.2,17,12.4,22.7c3.2,4.3,4.3,13.2,2.3,17.9c-0.8,1.8-1.9,2.8-3.3,3
		c-2.8,0.4-5.4,0.3-7.1,0.2c2.5,1.2,6.8,2.5,10.7,0.8c0.2-0.1,0.4,0,0.6,0.1c0.1,0.2,0.2,0.4,0.1,0.6c-0.1,0.1-1.1,2.2-4.1,4.3
		c2.4-0.2,7.2-1.5,13.7-7.6c0.1-0.1,0.3-0.2,0.5-0.1c0.2,0,0.3,0.2,0.3,0.3c0.1,0.2,1.4,4.3,0.8,7.5c2.2-2.3,6-7,6-12.6
		c0-8-0.8-18.9-0.8-19.1c0-0.2,0.1-0.4,0.3-0.5c0.2-0.1,0.4-0.1,0.6,0.1c0,0,1.9,1.7,5,2.8c-3.7-4.1-6.2-9.1-7.9-15
		c-0.1,0-0.2,0-0.3,0c-4.1,0-6.9-6-9.3-11.4c-2-4.4-1.5-7.1-0.7-8.5c0.7-1.3,1.9-2.1,3.4-2.3c1.5-0.2,2.6,0.2,3.2,0.6
		c0-0.2,0-0.4-0.1-0.6l-0.1-0.7l0,0l0-0.3l0.1,0c0-4.6,0.9-6.8,2.2-9.4c1-2.1,2.1-4.5,3-8.9c2.1-10.2,9.8-18.5,9.9-18.5
		c0.2-0.2,0.5-0.2,0.7-0.1c0.2,0.2,0.3,0.4,0.1,0.7c-3.2,5.6-3.3,16.2-3.1,21.1c2.7-5.8,10.3-11.8,10.6-12.1c0.2-0.1,0.4-0.1,0.5,0
		c0.2,0.1,0.3,0.3,0.3,0.5c-0.6,7-6.4,17.8-8.6,21.7c10.6-5.8,17-25,17-25.3c0.1-0.2,0.3-0.4,0.5-0.3c0.2,0,0.4,0.2,0.5,0.4
		c0.1,0.4,1.5,9.5-1.1,16.7c2.9-2.1,10-8.1,11.2-19.6c0-0.2,0.2-0.4,0.4-0.4c0.2,0,0.5,0.1,0.5,0.3c0,0.2,4.5,14,9,18.3
		c-0.7-2.7-2.2-8.4-1.8-11.2c0-0.2,0.2-0.4,0.4-0.4c0.2,0,0.4,0,0.5,0.2c0.1,0.2,13,17.8,18.9,19.8c6.3,2.2,6.9,10.9,6.9,11.3
		c0,0.3-0.2,0.5-0.5,0.5c0,0,0,0,0,0c-0.3,0-0.5-0.2-0.5-0.5c0-0.1-0.5-8.4-6.2-10.4c-0.6-0.2-1.2-0.5-1.9-1c-0.2,3-0.5,5.8-0.8,8.4
		c0.7-0.5,1.8-0.9,3.5-0.7c1.4,0.2,2.6,1,3.4,2.3c0.8,1.4,1.3,4.1-0.7,8.5c-2.4,5.4-5.2,11.4-9.3,11.4c-0.5,0-1.1-0.1-1.7-0.3
		c-0.5,1.4-1,2.7-1.4,3.9c-1.6,4.5-3,8.5-5.9,11.9c0,0,0,0.1,0,0.1c-0.5,4.2-1.2,10.4-1.6,16.1c-0.5,6.3,5.7,14.1,9.5,18.2
		c-1.1-3.4-0.8-7.2-0.8-7.4c0-0.2,0.2-0.4,0.4-0.4c0.2,0,0.4,0,0.5,0.2c1.8,3.1,5.4,4.5,7.2,5c-1.5-2.8-1-6.9-0.9-7.1
		c0-0.2,0.2-0.4,0.4-0.4c0.2,0,0.4,0.1,0.5,0.3c1.5,4.1,4.7,6.6,9.4,7.3c1.7,0.3,3.3,0.2,4.5,0.1c-2.5-1-6.4-3.1-8.7-7.7
		c-3.5-6.9,4.9-20.9,5.2-21.5c0.1-0.2,0.4-0.3,0.6-0.2c0.2,0.1,0.3,0.4,0.3,0.6c-1.1,3.7-0.9,7.4-0.5,9.9c0.5-3,1.8-7.5,5.5-12.4
		C372.9,307,374.5,291.9,371.9,272.9z"/>
	<g>
		<path class="st3" d="M292.1,314.2c-0.1,0-0.2,0-0.3,0c0.1,0,0.3,0.1,0.4,0.1C292.2,314.3,292.2,314.3,292.1,314.2z"/>
		<path class="st3" d="M371.9,272.9c-2.3-16.4-21-52.1-32.4-61.7c-11.3-9.6-21-4.3-21.1-4.2c-0.4,0.2-1-0.1-2.1-0.6
			c-5.6-2.5-22.6-10-44.1,25c-23.6,38.4-22.9,48.6-22,60.3l0.1,1.8c0.3,4.6,0.4,7.9,0.3,10.1c0.9-2.9,1.8-7,1.5-10.9
			c0-0.2,0.1-0.5,0.4-0.5c0.2-0.1,0.5,0,0.6,0.3c0.1,0.2,8.2,17,12.4,22.7c3.2,4.3,4.3,13.2,2.3,17.9c-0.8,1.8-1.9,2.8-3.3,3
			c-2.8,0.4-5.4,0.3-7.1,0.2c2.5,1.2,6.8,2.5,10.7,0.8c0.2-0.1,0.4,0,0.6,0.1c0.1,0.2,0.2,0.4,0.1,0.6c-0.1,0.1-1.1,2.2-4.1,4.3
			c2.4-0.2,7.2-1.5,13.7-7.6c0.1-0.1,0.3-0.2,0.5-0.1c0.2,0,0.3,0.2,0.3,0.3c0.1,0.2,1.4,4.3,0.8,7.5c2.2-2.3,6-7,6-12.6
			c0-8-0.8-18.9-0.8-19.1c0-0.2,0.1-0.4,0.3-0.5c0.2-0.1,0.4-0.1,0.6,0.1c0,0,1.9,1.7,5,2.8c-3.7-4.1-6.2-9.1-7.9-15
			c-0.1,0-0.2,0-0.3,0c-4.1,0-6.9-6-9.3-11.4c-2-4.4-1.5-7.1-0.7-8.5c0.7-1.3,1.9-2.1,3.4-2.3c1.5-0.2,2.6,0.2,3.2,0.6
			c0-0.2,0-0.4-0.1-0.6l-0.1-0.7l0,0l0-0.3l0.1,0c0-4.6,0.9-6.8,2.2-9.4c1-2.1,2.1-4.5,3-8.9c2.1-10.2,9.8-18.5,9.9-18.5
			c0.2-0.2,0.5-0.2,0.7-0.1c0.2,0.2,0.3,0.4,0.1,0.7c-3.2,5.6-3.3,16.2-3.1,21.1c2.7-5.8,10.3-11.8,10.6-12.1c0.2-0.1,0.4-0.1,0.5,0
			c0.2,0.1,0.3,0.3,0.3,0.5c-0.6,7-6.4,17.8-8.6,21.7c10.6-5.8,17-25,17-25.3c0.1-0.2,0.3-0.4,0.5-0.3c0.2,0,0.4,0.2,0.5,0.4
			c0.1,0.4,1.5,9.5-1.1,16.7c2.9-2.1,10-8.1,11.2-19.6c0-0.2,0.2-0.4,0.4-0.4c0.2,0,0.5,0.1,0.5,0.3c0,0.2,4.5,14,9,18.3
			c-0.7-2.7-2.2-8.4-1.8-11.2c0-0.2,0.2-0.4,0.4-0.4c0.2,0,0.4,0,0.5,0.2c0.1,0.2,13,17.8,18.9,19.8c6.3,2.2,6.9,10.9,6.9,11.3
			c0,0.3-0.2,0.5-0.5,0.5c0,0,0,0,0,0c-0.3,0-0.5-0.2-0.5-0.5c0-0.1-0.5-8.4-6.2-10.4c-0.6-0.2-1.2-0.5-1.9-1
			c-0.2,3-0.5,5.8-0.8,8.4c0.7-0.5,1.8-0.9,3.5-0.7c1.4,0.2,2.6,1,3.4,2.3c0.8,1.4,1.3,4.1-0.7,8.5c-2.4,5.4-5.2,11.4-9.3,11.4
			c-0.5,0-1.1-0.1-1.7-0.3c-0.5,1.4-1,2.7-1.4,3.9c-1.6,4.5-3,8.5-5.9,11.9c0,0,0,0.1,0,0.1c-0.5,4.2-1.2,10.4-1.6,16.1
			c-0.5,6.3,5.7,14.1,9.5,18.2c-1.1-3.4-0.8-7.2-0.8-7.4c0-0.2,0.2-0.4,0.4-0.4c0.2,0,0.4,0,0.5,0.2c1.8,3.1,5.4,4.5,7.2,5
			c-1.5-2.8-1-6.9-0.9-7.1c0-0.2,0.2-0.4,0.4-0.4c0.2,0,0.4,0.1,0.5,0.3c1.5,4.1,4.7,6.6,9.4,7.3c1.7,0.3,3.3,0.2,4.5,0.1
			c-2.5-1-6.4-3.1-8.7-7.7c-3.5-6.9,4.9-20.9,5.2-21.5c0.1-0.2,0.4-0.3,0.6-0.2c0.2,0.1,0.3,0.4,0.3,0.6c-1.1,3.7-0.9,7.4-0.5,9.9
			c0.5-3,1.8-7.5,5.5-12.4C372.9,307,374.5,291.9,371.9,272.9z"/>
		<path d="M372.9,272.8c-2.3-16.9-21-52.5-32.7-62.4c-11.1-9.4-20.7-5.1-22.1-4.4c-0.3-0.1-0.8-0.3-1.3-0.5
			c-5.8-2.6-23.4-10.4-45.4,25.4c-23.8,38.7-23,49-22.1,60.9l0.1,1.8c0.7,10.1,0,13.3-0.3,14.1c-0.1,0.2-0.2,0.3-0.2,0.3
			c-0.1,0.2,0,0.5,0.2,0.6c0.2,0.1,0.5,0.1,0.7-0.1c0,0,0.1-0.1,0.2-0.3c0.6-1.3,3.1-7,3.2-13.2c2.3,4.7,8,16.1,11.4,20.8
			c3,4.1,4.1,12.5,2.2,16.9c-0.6,1.4-1.5,2.2-2.5,2.4c-5.1,0.7-9.3,0-9.3,0c-0.2,0-0.5,0.1-0.5,0.3s0,0.5,0.2,0.6
			c0.3,0.2,6.3,4.2,12.3,2.6c-0.8,1-2.2,2.3-4.4,3.6c-0.2,0.1-0.3,0.3-0.3,0.5c0,0.2,0.2,0.4,0.4,0.4c0.3,0.1,6.2,1.3,15.7-7.3
			c0.4,1.7,1.3,5.9-0.1,8.1c-0.1,0.2-0.1,0.5,0.1,0.7c0.2,0.2,0.5,0.2,0.7,0c0.3-0.3,8-6.6,7.9-14.8c0-6.5-0.6-15-0.8-18
			c0.9,0.7,2.5,1.6,4.6,2.3c0.2,0,0.6,0.2,1.1,0.3c0.1,0,0.2,0,0.3,0c0.1,0.1,0.1,0.1,0.1,0.2c0.6,0.2,1.3,0.4,2,0.6
			c-0.3-0.3-0.7-0.6-1-1c-4.7-4.5-7.6-10.2-9.6-17.2l-1,0.1c-3.5,0-6.1-5.7-8.4-10.8c-1.4-3.2-1.7-5.9-0.7-7.6
			c0.6-1,1.5-1.6,2.6-1.8c2-0.2,3,0.6,3.3,0.9l1.1,0.9c0-0.3-0.1-0.6-0.1-0.9c0-0.1,0-0.3,0-0.4c0-0.5-0.1-1-0.1-1.5l0-0.1
			c0,0,0,0,0-0.1l0-0.3c-0.1-4.8,0.9-6.9,2.1-9.6c1-2.2,2.1-4.6,3.1-9.1c1.3-6.5,5-12.1,7.4-15.3c-2.7,8.2-1.7,20.4-1.7,21
			c0,0.3,0.2,0.4,0.5,0.5c0.2,0,0.5-0.2,0.5-0.4c0.8-5,7.6-11.1,10.2-13.3c-1.4,8.3-9.1,21.3-9.2,21.4c-0.1,0.2-0.1,0.4,0.1,0.6
			c0.1,0.2,0.4,0.2,0.6,0.1c9.8-4.1,16.2-19,18.3-24.5c0.3,3.4,0.5,10.3-1.8,15.4c-0.1,0.2,0,0.4,0.1,0.6c0.2,0.1,0.4,0.2,0.6,0.1
			c0.1-0.1,10.4-5.6,12.7-19.1c1.6,4.5,5.7,15.3,10,17.7c0.2,0.1,0.4,0.1,0.6,0c0.2-0.1,0.2-0.3,0.2-0.5c0-0.1-2-6.8-2.2-10.8
			c2.6,3.4,10.2,13.2,15.7,17.4c-0.3,4.1-0.6,8-1.1,11.5l1.3-1.1c0-0.1,1-1.4,3.4-1.1c1.1,0.1,2,0.8,2.6,1.8c1,1.7,0.7,4.5-0.7,7.6
			c-3.1,6.7-5.7,11.7-9.5,10.6l0,0l-1.2-0.4c-0.1,0.3-0.2,0.5-0.3,0.8l-0.2,0.5h0c-0.5,1.2-0.9,2.4-1.3,3.6c-1.6,4.7-3,8.5-5.9,11.7
			l-0.2,1.7v0c-0.5,4.1-1.1,9.7-1.4,15c-0.7,9.4,12,21.4,12.6,21.9c0.1,0.1,0.2,0.1,0.3,0.1c0.1,0,0.3-0.1,0.4-0.2
			c0.2-0.2,0.2-0.5,0-0.7c-2.3-2.3-2.6-6.6-2.6-8.8c3,3.6,8,4.5,8.3,4.6c0.2,0,0.4-0.1,0.5-0.2c0.1-0.2,0.1-0.4-0.1-0.6
			c-1.2-1.4-1.5-3.7-1.5-5.4c4.7,8.4,16.3,5.9,16.4,5.9c0.2-0.1,0.4-0.3,0.4-0.5c0-0.2-0.2-0.4-0.4-0.5c-0.1,0-7-1.4-10.3-7.9
			c-2.3-4.6,1.3-13.1,3.6-17.6c-0.7,5.7,0.8,10.3,0.9,10.5c0.1,0.2,0.3,0.4,0.6,0.3c0.2-0.1,0.4-0.3,0.4-0.5c0-0.1-0.6-7.2,5.5-15.2
			C376.2,304.3,374.2,281.9,372.9,272.8z M362,326.5c-0.4-2.5-0.5-6.1,0.5-9.9c0.1-0.2,0-0.5-0.3-0.6c-0.2-0.1-0.5,0-0.6,0.2
			c-0.4,0.6-8.7,14.5-5.2,21.5c2.3,4.6,6.2,6.8,8.7,7.7c-1.2,0.1-2.8,0.1-4.5-0.1c-4.7-0.7-7.9-3.2-9.4-7.3
			c-0.1-0.2-0.3-0.3-0.5-0.3c-0.2,0-0.4,0.2-0.4,0.4c0,0.2-0.5,4.3,0.9,7.1c-1.9-0.6-5.4-2-7.2-5c-0.1-0.2-0.3-0.3-0.5-0.2
			c-0.2,0-0.4,0.2-0.4,0.4c0,0.2-0.4,4,0.8,7.4c-3.8-4.1-9.9-11.9-9.5-18.2c0.4-5.8,1.1-12,1.6-16.1c0,0,0-0.1,0-0.1
			c2.9-3.4,4.3-7.4,5.9-11.9c0.4-1.2,0.9-2.5,1.4-3.9c0.6,0.2,1.1,0.3,1.7,0.3c4.1,0,6.8-6,9.3-11.4c2-4.4,1.5-7.1,0.7-8.5
			c-0.7-1.3-1.9-2.1-3.4-2.3c-1.7-0.2-2.8,0.2-3.5,0.7c0.3-2.7,0.6-5.5,0.8-8.4c0.7,0.4,1.3,0.8,1.9,1c5.7,2,6.2,10.3,6.2,10.4
			c0,0.3,0.2,0.5,0.5,0.5c0,0,0,0,0,0c0.3,0,0.5-0.2,0.5-0.5c0-0.4-0.5-9.1-6.9-11.3c-5.9-2-18.8-19.7-18.9-19.8
			c-0.1-0.2-0.3-0.2-0.5-0.2c-0.2,0.1-0.3,0.2-0.4,0.4c-0.3,2.8,1.1,8.5,1.8,11.2c-4.6-4.3-9-18.1-9-18.3c-0.1-0.2-0.3-0.4-0.5-0.3
			c-0.2,0-0.4,0.2-0.4,0.4c-1.2,11.5-8.3,17.5-11.2,19.6c2.5-7.1,1.1-16.3,1.1-16.7c0-0.2-0.2-0.4-0.5-0.4c-0.2,0-0.4,0.1-0.5,0.3
			c-0.1,0.2-6.5,19.4-17,25.3c2.2-3.9,8-14.7,8.6-21.7c0-0.2-0.1-0.4-0.3-0.5c-0.2-0.1-0.4-0.1-0.5,0c-0.4,0.3-7.9,6.3-10.6,12.1
			c-0.2-4.9-0.1-15.5,3.1-21.1c0.1-0.2,0.1-0.5-0.1-0.7c-0.2-0.2-0.5-0.1-0.7,0.1c-0.1,0.1-7.8,8.4-9.9,18.5c-0.9,4.4-2,6.8-3,8.9
			c-1.2,2.7-2.2,4.8-2.2,9.4l-0.1,0l0,0.3l0,0l0.1,0.7c0,0.2,0,0.4,0.1,0.6c-0.7-0.4-1.7-0.7-3.2-0.6c-1.4,0.2-2.6,1-3.4,2.3
			c-0.8,1.4-1.3,4.1,0.7,8.5c2.4,5.4,5.2,11.4,9.3,11.4c0.1,0,0.2,0,0.3,0c1.8,5.9,4.2,10.9,7.9,15c-3.1-1.1-4.9-2.8-5-2.8
			c-0.2-0.1-0.4-0.2-0.6-0.1c-0.2,0.1-0.3,0.3-0.3,0.5c0,0.1,0.8,11,0.8,19.1c0,5.5-3.8,10.3-6,12.6c0.6-3.2-0.7-7.3-0.8-7.5
			c-0.1-0.2-0.2-0.3-0.3-0.3c-0.2,0-0.3,0-0.5,0.1c-6.5,6.1-11.4,7.4-13.7,7.6c3-2.1,4.1-4.2,4.1-4.3c0.1-0.2,0.1-0.4-0.1-0.6
			c-0.1-0.2-0.4-0.2-0.6-0.1c-3.9,1.7-8.2,0.3-10.7-0.8c1.8,0.1,4.3,0.1,7.1-0.2c1.4-0.2,2.6-1.2,3.3-3c2-4.7,0.9-13.6-2.3-17.9
			c-4.2-5.8-12.3-22.6-12.4-22.7c-0.1-0.2-0.4-0.3-0.6-0.3c-0.2,0.1-0.4,0.3-0.4,0.5c0.3,3.9-0.5,8-1.5,10.9
			c0.1-2.2,0.1-5.5-0.3-10.1l-0.1-1.8c-0.9-11.7-1.6-21.9,22-60.3c21.5-35.1,38.5-27.5,44.1-25c1.1,0.5,1.6,0.8,2.1,0.6
			c0.1-0.1,9.7-5.4,21.1,4.2c11.3,9.6,30.1,45.4,32.4,61.7c2.6,19,1,34-4.4,41.2C363.8,319.1,362.4,323.6,362,326.5z"/>
		<path d="M291.9,314.3c-0.6-0.2-1-0.3-1.1-0.3C291.1,314.1,291.4,314.2,291.9,314.3C291.8,314.3,291.8,314.3,291.9,314.3z"/>
	</g>
</g>
<path d="M302.1,273.4c-0.1,0-0.2,0-0.3-0.1c-7.8-7.4-16.3-2.8-16.7-2.6c-0.2,0.1-0.5,0-0.7-0.2c-0.1-0.2,0-0.5,0.2-0.7
	c0.1-0.1,9.6-5.2,17.9,2.8c0.2,0.2,0.2,0.5,0,0.7C302.4,273.3,302.2,273.4,302.1,273.4z"/>
<path d="M325.2,273.4c-0.1,0-0.3-0.1-0.4-0.2c-0.2-0.2-0.2-0.5,0-0.7c8.3-8,17.8-2.8,17.9-2.8c0.2,0.1,0.3,0.4,0.2,0.7
	s-0.4,0.3-0.7,0.2c-0.4-0.2-8.9-4.8-16.7,2.6C325.4,273.3,325.3,273.4,325.2,273.4z"/>
<path d="M303.8,283.4c0,0-1.2-4.3-5.5-7c-4.3-2.7-9.7-1.3-9.7-1.3s7,1.5,1.1,0.9c-4-0.4-4.6,0.9-4.6,0.9s7.1,0.4,2.4,0.6
	c-3.4,0.2-3.8,1.5-3.8,1.5s5.5-0.5,1.9,1c-1.7,0.7-1.9,2.1-1.9,2.1s1.9-1,3.3-0.4c0,0-0.7,1-0.6,2.2c0,0,0.9-1.2,1.9-1.1
	c1,0.1,6-4.1,6-4.1L303.8,283.4z"/>
<g>
	<path class="st4" d="M286.4,280.4c0,0,11.2-8.9,18.5,4.7C304.9,285.2,292.9,291.2,286.4,280.4z"/>
	<path d="M297.5,287.3c-3.8,0-8.3-1.4-11.5-6.6c-0.1-0.2-0.1-0.5,0.1-0.7c0.2-0.2,4.9-3.9,10.4-2.8c3.5,0.7,6.5,3.3,8.9,7.7
		c0.1,0.1,0.1,0.3,0,0.4s-0.1,0.2-0.3,0.3C305.1,285.6,301.7,287.3,297.5,287.3z M287.1,280.6c2.6,4,6.3,5.9,11,5.8
		c2.8-0.1,5.2-1,6.2-1.4c-2.1-3.8-4.8-6-7.9-6.7C292.1,277.4,288.2,279.7,287.1,280.6z"/>
</g>
<path d="M323.4,283.4c0,0,1.2-4.3,5.5-7c4.3-2.7,9.7-1.3,9.7-1.3s-7,1.5-1.1,0.9c4-0.4,4.6,0.9,4.6,0.9s-7.1,0.4-2.4,0.6
	c3.4,0.2,3.8,1.5,3.8,1.5s-5.5-0.5-1.9,1c1.7,0.7,1.9,2.1,1.9,2.1s-1.9-1-3.3-0.4c0,0,0.7,1,0.6,2.2c0,0-0.9-1.2-1.9-1.1
	c-1,0.1-6-4.1-6-4.1L323.4,283.4z"/>
<g>
	<path class="st4" d="M340.8,280.4c0,0-11.2-8.9-18.5,4.7C322.3,285.2,334.3,291.2,340.8,280.4z"/>
	<path d="M329.7,287.3c-4.2,0-7.6-1.7-7.7-1.7c-0.1-0.1-0.2-0.2-0.3-0.3s0-0.3,0-0.4c2.3-4.4,5.3-6.9,8.9-7.7
		c5.5-1.1,10.2,2.6,10.4,2.8c0.2,0.2,0.2,0.4,0.1,0.7C338.1,285.9,333.6,287.3,329.7,287.3z M323,284.9c1,0.4,3.4,1.3,6.2,1.4
		c4.7,0.2,8.4-1.8,11-5.8c-1.2-0.8-5-3.2-9.2-2.3C327.8,278.9,325.2,281.1,323,284.9z"/>
</g>
<g>
	<defs>
		<path id="SVGID_1_" d="M286.4,280.4c0,0,11.2-8.9,18.5,4.7C304.9,285.2,292.9,291.2,286.4,280.4z"/>
	</defs>
	<clipPath id="SVGID_00000147919620595984984660000003574123810850620573_">
		<use xlink:href="#SVGID_1_"  style="overflow:visible;"/>
	</clipPath>
	<g style="clip-path:url(#SVGID_00000147919620595984984660000003574123810850620573_);">
		<g>
			<circle class="st6" cx="296.3" cy="282.2" r="5.4"/>
			<path d="M296.3,287.8c-3.1,0-5.6-2.5-5.6-5.6s2.5-5.6,5.6-5.6s5.6,2.5,5.6,5.6S299.4,287.8,296.3,287.8z M296.3,277.1
				c-2.8,0-5.1,2.3-5.1,5.1s2.3,5.1,5.1,5.1s5.1-2.3,5.1-5.1S299.1,277.1,296.3,277.1z"/>
		</g>
		<circle cx="296.3" cy="282.2" r="2.3"/>
		<circle class="st4" cx="297.5" cy="280.9" r="1.4"/>
	</g>
</g>
<path d="M297.5,287.3c-3.8,0-8.3-1.4-11.5-6.6c-0.1-0.2-0.1-0.5,0.1-0.7c0.2-0.2,4.9-3.9,10.4-2.8c3.5,0.7,6.5,3.3,8.9,7.7
	c0.1,0.1,0.1,0.3,0,0.4s-0.1,0.2-0.3,0.3C305.1,285.6,301.7,287.3,297.5,287.3z M287.1,280.6c2.6,4,6.3,5.9,11,5.8
	c2.8-0.1,5.2-1,6.2-1.4c-2.1-3.8-4.8-6-7.9-6.7C292.1,277.4,288.2,279.7,287.1,280.6z"/>
<g>
	<defs>
		<path id="SVGID_00000136409089917728160610000004118178745381228424_" d="M340.8,280.4c0,0-11.2-8.9-18.5,4.7
			C322.3,285.2,334.3,291.2,340.8,280.4z"/>
	</defs>
	<clipPath id="SVGID_00000039118183679692359670000005357890604362075295_">
		<use xlink:href="#SVGID_00000136409089917728160610000004118178745381228424_"  style="overflow:visible;"/>
	</clipPath>
	<g style="clip-path:url(#SVGID_00000039118183679692359670000005357890604362075295_);">
		<g>
			<circle class="st6" cx="331" cy="282.2" r="5.4"/>
			<path d="M331,287.8c-3.1,0-5.6-2.5-5.6-5.6s2.5-5.6,5.6-5.6c3.1,0,5.6,2.5,5.6,5.6S334.1,287.8,331,287.8z M331,277.1
				c-2.8,0-5.1,2.3-5.1,5.1s2.3,5.1,5.1,5.1s5.1-2.3,5.1-5.1S333.8,277.1,331,277.1z"/>
		</g>
		<circle cx="331" cy="282.2" r="2.3"/>
		<circle class="st4" cx="332.2" cy="280.9" r="1.4"/>
	</g>
</g>
<path d="M329.7,287.3c-4.2,0-7.6-1.7-7.7-1.7c-0.1-0.1-0.2-0.2-0.3-0.3s0-0.3,0-0.4c2.3-4.4,5.3-6.9,8.9-7.7
	c5.5-1.1,10.2,2.6,10.4,2.8c0.2,0.2,0.2,0.4,0.1,0.7C338.1,285.9,333.6,287.3,329.7,287.3z M323,284.9c1,0.4,3.4,1.3,6.2,1.4
	c4.7,0.2,8.4-1.8,11-5.8c-1.2-0.8-5-3.2-9.2-2.3C327.8,278.9,325.2,281.1,323,284.9z"/>
</svg>
