<?xml version="1.0" encoding="UTF-8"?>
<svg id="Layer_1" data-name="Layer 1" xmlns="http://www.w3.org/2000/svg" xmlns:xlink="http://www.w3.org/1999/xlink" viewBox="0 0 94 134">
  <defs>
    <style>
      .cls-1 {
        fill: #fff;
      }

      .cls-2 {
        filter: url(#drop-shadow-1);
      }
    </style>
    <filter id="drop-shadow-1" filterUnits="userSpaceOnUse">
      <feOffset dx="0" dy="0"/>
      <feGaussianBlur result="blur" stdDeviation="5"/>
      <feFlood flood-color="#000" flood-opacity=".7"/>
      <feComposite in2="blur" operator="in"/>
      <feComposite in="SourceGraphic"/>
    </filter>
  </defs>
  <g class="cls-2">
    <path class="cls-1" d="m49.83,63.49L17.72,31.38c-2.03-2.03-2.03-5.32,0-7.35l5.82-5.82c2.03-2.03,5.32-2.03,7.35,0l35.79,35.79,9.5,9.5c2.03,2.03,2.03,5.32,0,7.35l-9.5,9.5-35.79,35.79c-2.03,2.03-5.32,2.03-7.35,0l-5.82-5.82c-2.03-2.03-2.03-5.32,0-7.35l32.11-32.11c2.03-2.03,2.03-5.32,0-7.35Z"/>
    <path d="m27.22,118.4c-1.59,0-3.08-.62-4.21-1.74l-5.82-5.82c-1.12-1.12-1.74-2.62-1.74-4.21s.62-3.08,1.74-4.21l32.11-32.11c1.73-1.73,1.73-4.56,0-6.29L17.19,31.91c-1.12-1.12-1.74-2.62-1.74-4.21s.62-3.08,1.74-4.21l5.82-5.82c1.12-1.12,2.62-1.74,4.21-1.74s3.08.62,4.21,1.74l45.29,45.29c1.12,1.12,1.74,2.62,1.74,4.21s-.62,3.08-1.74,4.21l-45.29,45.29c-1.12,1.12-2.62,1.74-4.21,1.74Zm23.14-55.44c2.32,2.32,2.32,6.09,0,8.41l-32.11,32.11c-.84.84-1.3,1.96-1.3,3.15s.46,2.31,1.3,3.15l5.82,5.82c.84.84,1.96,1.3,3.15,1.3s2.31-.46,3.15-1.3l45.29-45.29c1.73-1.73,1.73-4.56,0-6.29L30.37,18.73c-1.73-1.73-4.56-1.74-6.29,0l-5.82,5.82c-.84.84-1.3,1.96-1.3,3.15s.46,2.31,1.3,3.15l32.11,32.11Z"/>
  </g>
</svg>