<?xml version="1.0" encoding="UTF-8"?>
<svg id="Layer_1" data-name="Layer 1" xmlns="http://www.w3.org/2000/svg" xmlns:xlink="http://www.w3.org/1999/xlink" viewBox="0 0 94 134">
  <defs>
    <style>
      .cls-1 {
        fill: #fff;
      }

      .cls-2 {
        filter: url(#drop-shadow-2);
      }
    </style>
    <filter id="drop-shadow-2" filterUnits="userSpaceOnUse">
      <feOffset dx="0" dy="0"/>
      <feGaussianBlur result="blur" stdDeviation="5"/>
      <feFlood flood-color="#000" flood-opacity=".7"/>
      <feComposite in2="blur" operator="in"/>
      <feComposite in="SourceGraphic"/>
    </filter>
  </defs>
  <g class="cls-2">
    <path class="cls-1" d="m44.07,63.49l32.11-32.11c2.03-2.03,2.03-5.32,0-7.35l-5.82-5.82c-2.03-2.03-5.32-2.03-7.35,0L27.22,53.99l-9.5,9.5c-2.03,2.03-2.03,5.32,0,7.35l9.5,9.5,35.79,35.79c2.03,2.03,5.32,2.03,7.35,0l5.82-5.82c2.03-2.03,2.03-5.32,0-7.35l-32.11-32.11c-2.03-2.03-2.03-5.32,0-7.35Z"/>
    <path d="m66.68,118.4c-1.59,0-3.08-.62-4.21-1.74l-45.29-45.29c-1.12-1.12-1.74-2.62-1.74-4.21s.62-3.08,1.74-4.21L62.48,17.67c2.32-2.32,6.09-2.32,8.41,0l5.82,5.82c2.32,2.32,2.32,6.09,0,8.41l-32.11,32.11c-1.73,1.73-1.73,4.56,0,6.29l32.11,32.11c2.32,2.32,2.32,6.09,0,8.41l-5.82,5.82c-1.12,1.12-2.62,1.74-4.21,1.74Zm0-100.97c-1.14,0-2.28.43-3.15,1.3l-45.29,45.29c-1.73,1.73-1.73,4.56,0,6.29l45.29,45.29c.84.84,1.96,1.3,3.15,1.3s2.31-.46,3.15-1.3l5.82-5.82c1.73-1.73,1.73-4.56,0-6.29l-32.11-32.11c-2.32-2.32-2.32-6.09,0-8.41l.53.53-.53-.53,32.11-32.11c1.73-1.73,1.73-4.56,0-6.29l-5.82-5.82c-.87-.87-2.01-1.3-3.15-1.3Z"/>
  </g>
</svg>