<?xml version="1.0" encoding="UTF-8"?>
<svg id="Layer_2" data-name="Layer 2" xmlns="http://www.w3.org/2000/svg" viewBox="0 0 49.67 47.23">
  <defs>
    <style>
      .cls-1 {
        fill: #ddd;
        stroke: #000;
        stroke-miterlimit: 10;
        stroke-width: 1.5px;
      }
    </style>
  </defs>
  <g id="Layer_1-2" data-name="Layer 1">
    <path class="cls-1" d="m48.66,23.93L25.44,1c-.34-.33-.88-.33-1.22,0L1.01,23.93c-.55.54-.17,1.48.61,1.48h5.57c.48,0,.86.39.86.86v19.34c0,.48.39.86.86.86h10.76c.48,0,.86-.39.86-.86v-10.79c0-.48.39-.86.86-.86h6.87c.48,0,.86.39.86.86v10.79c0,.48.39.86.86.86h10.76c.48,0,.86-.39.86-.86v-19.34c0-.48.39-.86.86-.86h5.57c.77,0,1.16-.94.61-1.48Z"/>
  </g>
</svg>