<?xml version="1.0" encoding="utf-8"?>
<!-- Generator: Adobe Illustrator 27.0.0, SVG Export Plug-In . SVG Version: 6.00 Build 0)  -->
<svg version="1.1" id="Layer_1" xmlns="http://www.w3.org/2000/svg" xmlns:xlink="http://www.w3.org/1999/xlink" x="0px" y="0px"
	 viewBox="0 0 600 1200" style="enable-background:new 0 0 600 1200;" xml:space="preserve">
<style type="text/css">
	.st0{fill:#3F2D21;}
	.st1{fill:#6E5843;}
	.st2{fill:none;}
	.st3{fill:#FFFFFF;}
	.st4{clip-path:url(#SVGID_00000172410759947920893630000017441070352080799411_);}
	.st5{fill:#99600E;}
	.st6{clip-path:url(#SVGID_00000158010813322134809300000013477076118478297232_);}
</style>
<g>
	<path class="st0" d="M357.4,246.9c-2.3-15.6-11.5-29.9-18.9-36.6c-7.4-6.7-19.7-3.6-19.7-3.6c-36.2-7-48.3,27.8-50.6,51.7
		s0,45.1,0,45.1c0-5.3,3.1-10.1,3.1-10.1c1.6,32.3,23,42.6,23,42.6c5.9-8.8,4.4-21.3,4.4-21.3l0,0c-0.9-0.8-1.8-1.7-2.8-2.7
		c-4.7-4.5-8.2-10.1-10.9-17.3l0,0c-4.7,2.1-7.6-4.2-10.6-10.7c-3-6.5-0.5-9.7,2.3-10.1c2.8-0.3,3.8,1.3,3.8,1.3l0,0
		c-0.2-1.5-0.4-3.1-0.5-4.8c6.8-23.4,32.9-35.3,38.8-35.3c3.9,0,10.6,5.6,13.3,11.3c2.7,5.6,10.6,30.8,11.1,48.6
		c-2.6,7-6.2,12.5-10.7,16.9c-1,1-1.9,1.8-2.8,2.6l0,0c0,0-2.5,19.1,11.1,26.1c6.5,3.4,18.8,5.4,29.9,8.5l0,0
		C361.3,324.4,359.7,262.5,357.4,246.9z"/>
	<path class="st1" d="M335.8,218.2c0,0,6.4,11.2,6.8,15.1c0,0-7.4-12.4-13.1-15.1c0,0,6.4,8.8,7.5,11.6c0,0-5.4-5.1-10.5-7.2
		c0,0,7.6,5.8,10.4,10.7c0,0-8.2-6.7-12.4-6.9c0,0,14.2,10.6,19.7,29.1s3.2,32.6,7.5,49.2s8.1,26.3,8.1,26.3s-3.6-15-3.2-20.5
		c0,0,1.8,5.3,3.6,7.6c0,0-3.8-15.4-3.6-24.2C356.8,285.1,355.7,231.3,335.8,218.2z"/>
	<path class="st1" d="M277.7,241.5c5.2-11.6,14.2-26.4,30.3-30.9c0,0-7.9,5-10.2,11.1c0,0,1.6-3.3,8.1-5.6c0,0-9.2,10.3-11.4,16.9
		c0,0,6.8-5,13.6-8.6c0,0-4.2,4.1-5.1,7.5c0,0,3.6-3.6,9.7-5.8c0,0-9.5,11.4-15.6,17.1s-12.2,13.1-14.7,18.7
		c-2.5,5.6-11.1,14.5-11.1,14.5s8.6-21.2,11.1-25.3c0,0-7.5,11.9-8.6,14.6C273.9,265.6,274.4,249.1,277.7,241.5z"/>
	<path class="st1" d="M294,317.7c0,0-10.4-12.7-11-18.3c0,0,0,3.3,0.7,5.6c0,0-4.5-2.8-6.7-8c0,0,2.8,8.7,5.9,13c0,0-4.2-3.1-5-4.6
		c0,0,3.9,13.3,9.4,18c0,0-2.3-5.7-2.2-8.2c0,0,2.2,8.2,10,10.1c0,0-5.6-5.7-5.6-10.8C289.4,314.3,291.2,317.3,294,317.7z"/>
	<g>
		<g>
			<path class="st2" d="M356.9,247c-2.2-15.3-11.3-29.5-18.7-36.3c-7.1-6.4-19.1-3.5-19.2-3.5c-0.1,0-0.1,0-0.2,0
				c-11.5-2.2-21.4-0.3-29.3,5.6c-15.9,11.9-19.7,35.9-20.6,45.6c-1.6,17.2-0.9,33.2-0.4,40.6c0.9-3.3,2.5-5.8,2.6-6
				c0.1-0.2,0.3-0.3,0.5-0.2s0.4,0.2,0.4,0.5c1.4,29.2,19.4,40.4,22.3,42c0,0,0,0,0-0.1c0.8-1.3,1.5-2.6,2-4
				c-4.3-1.3-11.2-8.8-11.5-9.1c-0.2-0.2-0.2-0.5,0-0.7c0.2-0.2,0.5-0.2,0.7,0c0.1,0.1,7.1,7.8,11.1,8.9c0.5-1.4,0.9-2.8,1.1-4.1
				c-2.4-0.4-5.5-3.6-5.9-4c-0.2-0.2-0.2-0.5,0-0.7c0.2-0.2,0.5-0.2,0.7,0c1,1,3.7,3.5,5.4,3.7c0.2-1.4,0.4-2.8,0.5-4.1
				c-6.7-3.2-13.1-15.7-13.4-16.3c-0.1-0.2,0-0.5,0.2-0.7c0.2-0.1,0.5,0,0.7,0.2c0.1,0.1,6.3,12.3,12.5,15.6c0-0.6,0-1.3,0-1.8
				l-0.2-3.4c-0.8-0.8-1.7-1.6-2.7-2.5c-4.6-4.5-8.2-10-10.8-17c-0.5,0.2-1,0.3-1.5,0.3c-4.1,0-6.8-6-9.3-11.4
				c-2-4.4-1.5-7.1-0.7-8.5c0.7-1.3,1.9-2.1,3.4-2.3c1.5-0.2,2.6,0.2,3.3,0.6c-0.1-1.1-0.2-2.2-0.4-3.4c0,0,0-0.1,0-0.1
				c-0.2-1.7-0.3-3.5-0.4-5.3c0-0.3,0.2-0.5,0.5-0.5c0.3,0,0.5,0.2,0.5,0.5c0.1,1,0.1,1.9,0.2,2.9c7.9-22.2,33.2-33.3,38.5-33.3
				c4.1,0,10.9,5.7,13.8,11.6c2.7,5.5,10.6,30.7,11.1,48.5c0.1,0.1,0.1,0.3,0,0.4c0,0,0,0.1,0,0.1c0,0,0,0,0,0
				c-2.6,6.9-6.2,12.5-10.9,17.1c-0.9,0.9-1.8,1.7-2.7,2.5c0,0,0,0,0,0.1l-0.1,2.9c0,1.9,0.1,4.5,0.6,7.2
				c1.4,7.3,4.9,12.5,10.3,15.3c0.4,0.2,0.9,0.4,1.3,0.6c-0.8-4.4-0.6-16.9-0.6-17.5c0-0.3,0.2-0.5,0.5-0.5c0.3,0,0.5,0.2,0.5,0.5
				c0,0.1-0.2,14.5,0.8,17.9c1,0.4,2.2,0.8,3.4,1.2c-1.4-9.7-1.6-34.2-1.6-34.5c0-0.3,0.2-0.5,0.5-0.5c0,0,0,0,0,0
				c0.3,0,0.5,0.2,0.5,0.5c0,0.3,0.2,25.6,1.6,34.8c3.5,1,7.4,2,11.5,3c2,0.5,4,1,6,1.5c-7.1-12.9-9.4-32.5-9.4-32.7
				c0-0.3,0.2-0.5,0.4-0.6c0.3,0,0.5,0.2,0.6,0.4c0,0.2,2.4,20.5,9.7,33.2c0.5,0.1,0.9,0.2,1.4,0.3c0.6,0.2,1.2,0.3,1.7,0.5
				c-6.6-18.4-9.3-55.3-11.1-79.8C358.1,259,357.5,251.3,356.9,247z"/>
			<path class="st2" d="M362,295.3c-0.1-1.6-0.3-3.2-0.4-4.8C361.7,292.1,361.8,293.7,362,295.3z"/>
			<path class="st2" d="M276.8,274.4c-1.1,0.1-2,0.8-2.6,1.8c-1,1.7-0.7,4.5,0.7,7.6c3.1,6.8,5.7,11.8,9.5,10.6
				c-1.9-5.4-3.4-11.7-4.3-18.9C279.9,275.2,279,274.1,276.8,274.4z"/>
		</g>
		<g>
			<path class="st2" d="M363.2,307.8c-0.1-1-0.2-1.9-0.3-2.9C363,305.8,363.1,306.8,363.2,307.8z"/>
			<path class="st2" d="M362.4,299.5c-0.1-1.4-0.3-2.7-0.4-4.1C362.1,296.8,362.2,298.2,362.4,299.5z"/>
			<path class="st2" d="M362.8,303.6c-0.1-1-0.2-2.1-0.3-3.1C362.6,301.6,362.7,302.6,362.8,303.6z"/>
			<path class="st2" d="M366.1,328.8c-0.4-2.5-0.8-5.1-1.2-7.7C365.3,323.7,365.7,326.3,366.1,328.8z"/>
			<path class="st2" d="M364.8,320.2c-0.1-1-0.3-2.1-0.4-3.1C364.5,318.2,364.6,319.2,364.8,320.2z"/>
			<path class="st2" d="M364.2,316c-0.1-1-0.2-1.9-0.4-2.9C364,314.1,364.1,315,364.2,316z"/>
			<path class="st2" d="M363.7,311.9c-0.1-1-0.2-1.9-0.3-2.9C363.5,310,363.6,310.9,363.7,311.9z"/>
			<path class="st2" d="M360.9,283c0.2,2.4,0.4,5,0.6,7.5C361.3,287.9,361.1,285.4,360.9,283z"/>
			<path class="st2" d="M356.9,247c-2.2-15.3-11.3-29.5-18.7-36.3c-7.1-6.4-19.1-3.5-19.2-3.5c-0.1,0-0.1,0-0.2,0
				c-11.5-2.2-21.4-0.3-29.3,5.6c-15.9,11.9-19.7,35.9-20.6,45.6c-1.6,17.2-0.9,33.2-0.4,40.6c0.9-3.3,2.5-5.8,2.6-6
				c0.1-0.2,0.3-0.3,0.5-0.2s0.4,0.2,0.4,0.5c1.4,29.2,19.4,40.4,22.3,42c0,0,0,0,0-0.1c0.8-1.3,1.5-2.6,2-4
				c-4.3-1.3-11.2-8.8-11.5-9.1c-0.2-0.2-0.2-0.5,0-0.7c0.2-0.2,0.5-0.2,0.7,0c0.1,0.1,7.1,7.8,11.1,8.9c0.5-1.4,0.9-2.8,1.1-4.1
				c-2.4-0.4-5.5-3.6-5.9-4c-0.2-0.2-0.2-0.5,0-0.7c0.2-0.2,0.5-0.2,0.7,0c1,1,3.7,3.5,5.4,3.7c0.2-1.4,0.4-2.8,0.5-4.1
				c-6.7-3.2-13.1-15.7-13.4-16.3c-0.1-0.2,0-0.5,0.2-0.7c0.2-0.1,0.5,0,0.7,0.2c0.1,0.1,6.3,12.3,12.5,15.6c0-0.6,0-1.3,0-1.8
				l-0.2-3.4c-0.8-0.8-1.7-1.6-2.7-2.5c-4.6-4.5-8.2-10-10.8-17c-0.5,0.2-1,0.3-1.5,0.3c-4.1,0-6.8-6-9.3-11.4
				c-2-4.4-1.5-7.1-0.7-8.5c0.7-1.3,1.9-2.1,3.4-2.3c1.5-0.2,2.6,0.2,3.3,0.6c-0.1-1.1-0.2-2.2-0.4-3.4c0,0,0-0.1,0-0.1
				c-0.2-1.7-0.3-3.5-0.4-5.3c0-0.3,0.2-0.5,0.5-0.5c0.3,0,0.5,0.2,0.5,0.5c0.1,1,0.1,1.9,0.2,2.9c7.9-22.2,33.2-33.3,38.5-33.3
				c4.1,0,10.9,5.7,13.8,11.6c2.7,5.5,10.6,30.7,11.1,48.5c0.1,0.1,0.1,0.3,0,0.4c0,0,0,0.1,0,0.1c0,0,0,0,0,0
				c-2.6,6.9-6.2,12.5-10.9,17.1c-0.9,0.9-1.8,1.7-2.7,2.5c0,0,0,0,0,0.1l-0.1,2.9c0,1.9,0.1,4.5,0.6,7.2
				c1.4,7.3,4.9,12.5,10.3,15.3c0.4,0.2,0.9,0.4,1.3,0.6c-0.8-4.4-0.6-16.9-0.6-17.5c0-0.3,0.2-0.5,0.5-0.5c0.3,0,0.5,0.2,0.5,0.5
				c0,0.1-0.2,14.5,0.8,17.9c1,0.4,2.2,0.8,3.4,1.2c-1.4-9.7-1.6-34.2-1.6-34.5c0-0.3,0.2-0.5,0.5-0.5c0,0,0,0,0,0
				c0.3,0,0.5,0.2,0.5,0.5c0,0.3,0.2,25.6,1.6,34.8c3.5,1,7.4,2,11.5,3c2,0.5,4,1,6,1.5c-7.1-12.9-9.4-32.5-9.4-32.7
				c0-0.3,0.2-0.5,0.4-0.6c0.3,0,0.5,0.2,0.6,0.4c0,0.2,2.4,20.5,9.7,33.2c0.5,0.1,0.9,0.2,1.4,0.3c0.6,0.2,1.2,0.3,1.7,0.5
				c-6.6-18.4-9.3-55.3-11.1-79.8C358.1,259,357.5,251.3,356.9,247z"/>
			<path class="st2" d="M276.8,274.4c-1.1,0.1-2,0.8-2.6,1.8c-1,1.7-0.7,4.5,0.7,7.6c3.1,6.8,5.7,11.8,9.5,10.6
				c-1.9-5.4-3.4-11.7-4.3-18.9C279.9,275.2,279,274.1,276.8,274.4z"/>
		</g>
	</g>
	<g>
		<path d="M315.4,224.2c-0.7,0.3-16.7,8.1-22.8,17.6c-0.1,0.2-0.1,0.5,0.1,0.7c0.1,0.1,0.2,0.1,0.3,0.1c0.2,0,0.3-0.1,0.4-0.2
			c6-9.3,22.2-17.2,22.4-17.3c0.2-0.1,0.4-0.4,0.2-0.7C316,224.2,315.7,224.1,315.4,224.2z"/>
		<path d="M311.1,222.5c-0.3,0.1-8,2.6-11.9,6.7c-0.2,0.2-0.2,0.5,0,0.7c0.1,0.1,0.2,0.1,0.3,0.1c0.1,0,0.3-0.1,0.4-0.2
			c3.8-3.9,11.4-6.4,11.5-6.4c0.3-0.1,0.4-0.4,0.3-0.6C311.6,222.5,311.3,222.4,311.1,222.5z"/>
		<path d="M294.1,226.8c0.1,0,0.2,0.1,0.2,0.1c0.2,0,0.4-0.1,0.4-0.3c4.2-8.3,16.4-12.3,16.6-12.4c0.3-0.1,0.4-0.4,0.3-0.6
			c-0.1-0.3-0.4-0.4-0.6-0.3c-0.5,0.2-12.7,4.2-17.2,12.9C293.8,226.4,293.9,226.7,294.1,226.8z"/>
		<path d="M328.5,229.5c-0.2-0.2-0.5-0.2-0.7,0c-0.2,0.2-0.2,0.5,0,0.7c0.1,0.1,7.4,6.8,10.7,16.6c0.1,0.2,0.3,0.3,0.5,0.3
			c0.1,0,0.1,0,0.2,0c0.3-0.1,0.4-0.4,0.3-0.6C336,236.5,328.5,229.6,328.5,229.5z"/>
		<path d="M334.8,229.6c-0.2-0.2-0.5-0.3-0.7-0.1c-0.2,0.2-0.3,0.5-0.1,0.7c0,0.1,4.4,5.9,5.2,8.3c0.1,0.2,0.3,0.3,0.5,0.3
			c0.1,0,0.1,0,0.2,0c0.3-0.1,0.4-0.4,0.3-0.6C339.3,235.6,335,229.8,334.8,229.6z"/>
		<path d="M371.2,349.2c0-0.1-0.1-0.2-0.1-0.2h0c-2-5.3-3.6-12.3-5-20.1l-6.3-60c0.1,1,0.1,1.9,0.2,2.9c-0.1-1-0.1-2-0.2-2.9
			c-0.7-9.8-1.3-17.6-1.9-21.9c-2.2-15.5-11.5-30-19-36.9c-7.2-6.5-18.7-4.1-20-3.8c-11.7-2.2-21.8-0.3-30,5.9
			c-16.2,12.1-20.1,36.4-21,46.3c-2.2,23.7,0,45,0,45.2c0,0.3,0.3,0.5,0.5,0.4c0.3,0,0.5-0.2,0.5-0.5c0-3.3,1.3-6.6,2.2-8.4
			c2.1,29.4,21.1,40.2,23,41.2c0,0,0,0,0,0c0,0,0.1,0,0.1,0c0,0,0,0,0,0c0,0,0,0,0,0c0.1,0,0.2,0,0.3,0c0,0,0,0,0.1,0
			c0.1,0,0.3-0.1,0.4-0.3c0,0,0,0,0,0c1-1.5,1.8-3.2,2.5-5.1c0,0,0,0,0-0.1c0,0,0,0,0,0c0.6-1.6,1.1-3.4,1.4-5.3
			c0.1-0.5,0.2-0.9,0.2-1.4c0-0.1,0-0.3,0.1-0.4c0-0.4,0.1-0.7,0.1-1.1c0-0.1,0-0.2,0-0.3c0-0.4,0.1-0.8,0.1-1.3c0-0.1,0-0.2,0-0.3
			c0-0.3,0-0.6,0-0.9c0-0.1,0-0.2,0-0.3c0-0.4,0-0.7,0-1.1c0-0.1,0-0.1,0-0.2c0-0.3,0-0.6,0-0.9c0-0.1,0-0.1,0-0.2
			c0-1.7-0.2-2.8-0.2-2.9c0,0,0,0,0-0.1l0-0.1c-0.9-0.8-1.9-1.7-2.9-2.8c-4.7-4.6-8.3-10.3-10.9-17.6l-1,0.3
			c-3.8,1.2-6.5-3.8-9.5-10.6c-1.4-3.2-1.7-5.9-0.7-7.6c0.6-1,1.5-1.6,2.6-1.8c2.2-0.3,3.1,0.8,3.3,1l1.2,1.3
			c-0.3-2-0.5-4.1-0.7-6.2c6-20.3,26.7-31.8,35.4-34.3c0.1,0,0.1,0,0.1,0c0.3-0.1,0.5-0.1,0.7-0.2c0.1,0,0.2,0,0.3-0.1
			c0.2,0,0.3-0.1,0.5-0.1c0.1,0,0.2,0,0.3,0c0.4-0.1,0.7-0.1,1-0.1c3.7,0,10.3,5.7,12.9,11c0.1,0.3,0.3,0.6,0.4,0.9
			c0,0.1,0.1,0.2,0.1,0.3c0,0.1,0.1,0.1,0.1,0.2c0.1,0.2,0.2,0.4,0.2,0.6c0.1,0.1,0.1,0.3,0.2,0.4c0.1,0.2,0.1,0.3,0.2,0.5
			c0.1,0.3,0.2,0.6,0.4,1c0,0,0,0,0,0c3.4,9.2,9,29.4,9.5,44.4c-2.6,6.8-6,12.2-10.6,16.6c-0.9,0.8-1.7,1.6-2.5,2.3
			c-0.2,0.2-0.3,0.3-0.5,0.4c0,0.1-0.1,0.6-0.1,1.5c0,0.5-0.1,1.2-0.1,1.9c0,1.9,0.1,4.6,0.6,7.4c1.4,7.6,5.2,13.1,10.9,16
			c1.8,1,4.1,1.8,6.7,2.6c0,0,0,0,0,0c3.6,1.1,7.7,2.1,11.9,3.1c3,0.7,6.1,1.5,9.1,2.3c0.8,0.2,1.6,0.4,2.4,0.7c0,0,0,0,0,0h0
			c0.1,0,0.1,0,0.2,0c0.2-0.1,0.3-0.3,0.3-0.4C371.2,349.3,371.2,349.3,371.2,349.2z M366.1,328.8c-0.4-2.5-0.8-5.1-1.2-7.7
			C365.3,323.7,365.7,326.3,366.1,328.8z M368.2,348.1c-0.5-0.1-0.9-0.2-1.4-0.3c-7.3-12.7-9.7-33-9.7-33.2c0-0.3-0.3-0.5-0.6-0.4
			c-0.3,0-0.5,0.3-0.4,0.6c0,0.2,2.3,19.8,9.4,32.7c-2-0.5-4-1-6-1.5c-4.1-1-8.1-1.9-11.5-3c-1.5-9.3-1.6-34.6-1.6-34.8
			c0-0.3-0.2-0.5-0.5-0.5c0,0,0,0,0,0c-0.3,0-0.5,0.2-0.5,0.5c0,0.3,0.2,24.8,1.6,34.5c-1.2-0.4-2.3-0.8-3.4-1.2
			c-0.9-3.4-0.8-17.8-0.8-17.9c0-0.3-0.2-0.5-0.5-0.5c-0.3,0-0.5,0.2-0.5,0.5c0,0.6-0.1,13,0.6,17.5c-0.5-0.2-0.9-0.4-1.3-0.6
			c-5.5-2.8-9-8-10.3-15.3c-0.5-2.8-0.6-5.3-0.6-7.2l0.1-2.9c0,0,0,0,0-0.1c0.8-0.8,1.7-1.6,2.7-2.5c4.7-4.5,8.2-10.1,10.9-17.1
			c0,0,0,0,0,0c0,0,0-0.1,0-0.1c0-0.1,0-0.3,0-0.4c-0.4-14-5.3-32.4-8.8-42.4c0,0,0,0,0,0c-0.1-0.4-0.3-0.8-0.4-1.1
			c0-0.1,0-0.1-0.1-0.2c-0.1-0.3-0.2-0.6-0.3-0.9c0-0.1-0.1-0.1-0.1-0.2c-0.1-0.3-0.2-0.5-0.3-0.8c0-0.1-0.1-0.2-0.1-0.4
			c-0.1-0.2-0.1-0.4-0.2-0.5c-0.1-0.1-0.1-0.3-0.2-0.4c-0.1-0.1-0.1-0.3-0.2-0.4c0-0.1-0.1-0.2-0.1-0.3c-0.1-0.1-0.1-0.3-0.2-0.4
			c-0.1-0.2-0.2-0.4-0.3-0.6c-2.8-5.8-9.7-11.6-13.8-11.6c-0.2,0-0.4,0-0.6,0c-0.1,0-0.2,0-0.2,0c-0.1,0-0.3,0-0.5,0.1
			c-0.1,0-0.2,0-0.3,0.1c-0.2,0-0.3,0.1-0.5,0.1c-0.1,0-0.3,0.1-0.4,0.1c-0.2,0-0.3,0.1-0.5,0.1c-0.2,0-0.3,0.1-0.5,0.1
			c-0.2,0.1-0.3,0.1-0.5,0.2c-0.2,0.1-0.4,0.1-0.5,0.2c-0.2,0.1-0.3,0.1-0.5,0.2c-0.2,0.1-0.4,0.1-0.6,0.2c-0.2,0.1-0.4,0.1-0.5,0.2
			c-0.2,0.1-0.4,0.2-0.7,0.3c-0.2,0.1-0.4,0.2-0.6,0.2c-0.2,0.1-0.5,0.2-0.7,0.3c-0.2,0.1-0.4,0.2-0.6,0.3c-0.2,0.1-0.5,0.2-0.8,0.4
			c-0.2,0.1-0.4,0.2-0.6,0.3c-0.3,0.1-0.5,0.3-0.8,0.4c-0.2,0.1-0.4,0.2-0.6,0.3c-0.3,0.1-0.6,0.3-0.8,0.5c-0.2,0.1-0.4,0.2-0.6,0.3
			c-0.3,0.2-0.6,0.3-0.9,0.5c-0.2,0.1-0.4,0.2-0.6,0.3c-0.3,0.2-0.6,0.4-0.9,0.6c-0.2,0.1-0.4,0.2-0.6,0.3c-0.3,0.2-0.6,0.4-0.9,0.6
			c-0.2,0.1-0.4,0.2-0.5,0.4c-0.3,0.2-0.6,0.4-1,0.7c-0.2,0.1-0.4,0.2-0.5,0.4c-0.3,0.2-0.7,0.5-1,0.7c-0.2,0.1-0.3,0.3-0.5,0.4
			c-0.3,0.3-0.7,0.5-1,0.8c-0.2,0.1-0.3,0.3-0.5,0.4c-0.3,0.3-0.7,0.5-1,0.8c-0.2,0.1-0.3,0.3-0.5,0.4c-0.3,0.3-0.7,0.6-1,0.9
			c-0.1,0.1-0.3,0.3-0.4,0.4c-0.3,0.3-0.7,0.6-1,1c-0.1,0.1-0.3,0.3-0.4,0.4c-0.4,0.3-0.7,0.7-1,1c-0.1,0.1-0.3,0.3-0.4,0.4
			c-0.4,0.4-0.7,0.7-1,1.1c-0.1,0.1-0.2,0.2-0.3,0.4c-0.4,0.4-0.7,0.8-1,1.2c-0.1,0.1-0.2,0.2-0.3,0.3c-0.4,0.4-0.7,0.8-1.1,1.3
			c-0.1,0.1-0.1,0.2-0.2,0.3c-0.4,0.5-0.7,0.9-1.1,1.4c0,0-0.1,0.1-0.1,0.1c-2.4,3.4-4.5,7.1-6,11.2c0,0,0,0,0,0
			c-0.1-1-0.2-1.9-0.2-2.9c0-0.3-0.3-0.5-0.5-0.5c-0.3,0-0.5,0.3-0.5,0.5c0.1,1.8,0.3,3.6,0.4,5.3c0,0,0,0.1,0,0.1c0,0,0,0,0,0
			c0.1,1.1,0.2,2.3,0.4,3.4c-0.7-0.4-1.8-0.8-3.3-0.6c-1.4,0.2-2.6,1-3.4,2.3c-0.8,1.4-1.3,4.1,0.7,8.5c2.4,5.4,5.2,11.4,9.3,11.4
			c0.5,0,1-0.1,1.5-0.3c2.6,7,6.2,12.6,10.8,17c1,0.9,1.9,1.8,2.7,2.5l0.2,3.4c0,0.6,0,1.2,0,1.8c-6.3-3.3-12.5-15.5-12.5-15.6
			c-0.1-0.2-0.4-0.3-0.7-0.2c-0.2,0.1-0.3,0.4-0.2,0.7c0.3,0.5,6.7,13.1,13.4,16.3c-0.1,1.3-0.2,2.7-0.5,4.1
			c-1.7-0.3-4.4-2.7-5.4-3.7c-0.2-0.2-0.5-0.2-0.7,0c-0.2,0.2-0.2,0.5,0,0.7c0.4,0.4,3.5,3.6,5.9,4c-0.3,1.3-0.6,2.7-1.1,4.1
			c-4-1.1-11-8.8-11.1-8.9c-0.2-0.2-0.5-0.2-0.7,0c-0.2,0.2-0.2,0.5,0,0.7c0.3,0.3,7.2,7.8,11.5,9.1c-0.5,1.3-1.2,2.7-2,4
			c0,0,0,0,0,0.1c-2.9-1.6-20.9-12.7-22.3-42c0-0.2-0.2-0.4-0.4-0.5s-0.4,0-0.5,0.2c-0.1,0.1-1.7,2.6-2.6,6
			c-0.5-7.4-1.3-23.4,0.4-40.6c0.9-9.8,4.8-33.8,20.6-45.6c8-6,17.9-7.9,29.3-5.6c0.1,0,0.1,0,0.2,0c0.1,0,12.2-2.9,19.2,3.5
			c7.5,6.8,16.5,21,18.7,36.3c0.6,4.3,1.2,12,1.9,21.8c1.8,24.5,4.5,61.4,11.1,79.8C369.3,348.5,368.8,348.3,368.2,348.1z"/>
	</g>
</g>
<path d="M302.7,271c-0.1,0-0.2,0-0.3-0.1c-7.8-7.5-16.6-2.7-16.7-2.6c-0.2,0.1-0.5,0-0.7-0.2c-0.1-0.2,0-0.5,0.2-0.7
	c0.1-0.1,9.6-5.2,17.9,2.8c0.2,0.2,0.2,0.5,0,0.7C303,271,302.8,271,302.7,271z"/>
<path d="M325.8,271c-0.1,0-0.3-0.1-0.4-0.2c-0.2-0.2-0.2-0.5,0-0.7c8.3-8,17.8-2.8,17.9-2.8c0.2,0.1,0.3,0.4,0.2,0.7
	c-0.1,0.2-0.4,0.3-0.7,0.2c-0.4-0.2-8.9-4.8-16.7,2.6C326,271,325.9,271,325.8,271z"/>
<path d="M304.4,281c0,0-1.2-4.3-5.5-7c-4.3-2.7-9.7-1.3-9.7-1.3s7,1.5,1.1,0.9c-4-0.4-4.6,0.9-4.6,0.9s7.1,0.4,2.4,0.6
	c-3.4,0.2-3.8,1.5-3.8,1.5s5.5-0.5,1.9,1c-1.7,0.7-1.9,2.1-1.9,2.1s1.9-1,3.3-0.4c0,0-0.7,1-0.6,2.2c0,0,0.9-1.2,1.9-1.1
	c1,0.1,6-4.1,6-4.1L304.4,281z"/>
<g>
	<path class="st3" d="M287,278.1c0,0,11.2-8.9,18.5,4.7C305.5,282.8,293.5,288.8,287,278.1z"/>
	<path d="M298.1,285c-3.8,0-8.3-1.4-11.5-6.6c-0.1-0.2-0.1-0.5,0.1-0.7c0.2-0.2,4.9-3.9,10.4-2.8c3.5,0.7,6.5,3.3,8.9,7.7
		c0.1,0.1,0.1,0.3,0,0.4s-0.1,0.2-0.3,0.3C305.7,283.3,302.3,285,298.1,285z M287.7,278.2c2.6,4,6.3,5.9,11,5.8
		c2.8-0.1,5.2-1,6.2-1.4c-2.1-3.8-4.8-6-7.9-6.7C292.7,275,288.8,277.4,287.7,278.2z"/>
</g>
<path d="M324,281c0,0,1.2-4.3,5.5-7c4.3-2.7,9.7-1.3,9.7-1.3s-7,1.5-1.1,0.9c4-0.4,4.6,0.9,4.6,0.9s-7.1,0.4-2.4,0.6
	c3.4,0.2,3.8,1.5,3.8,1.5s-5.5-0.5-1.9,1c1.7,0.7,1.9,2.1,1.9,2.1s-1.9-1-3.3-0.4c0,0,0.7,1,0.6,2.2c0,0-0.9-1.2-1.9-1.1
	c-1,0.1-6-4.1-6-4.1L324,281z"/>
<g>
	<path class="st3" d="M341.4,278.1c0,0-11.2-8.9-18.5,4.7C322.9,282.8,334.9,288.8,341.4,278.1z"/>
	<path d="M330.4,285c-4.2,0-7.6-1.7-7.7-1.7c-0.1-0.1-0.2-0.2-0.3-0.3s0-0.3,0-0.4c2.3-4.4,5.3-6.9,8.9-7.7
		c5.5-1.1,10.2,2.6,10.4,2.8c0.2,0.2,0.2,0.4,0.1,0.7C338.7,283.6,334.2,285,330.4,285z M323.6,282.6c1,0.4,3.4,1.3,6.2,1.4
		c4.7,0.2,8.4-1.8,11-5.8c-1.2-0.8-5-3.2-9.2-2.3C328.4,276.5,325.8,278.8,323.6,282.6z"/>
</g>
<g>
	<defs>
		<path id="SVGID_1_" d="M287,278.1c0,0,11.2-8.9,18.5,4.7C305.5,282.8,293.5,288.8,287,278.1z"/>
	</defs>
	<clipPath id="SVGID_00000062899806704307489310000015587041068640280200_">
		<use xlink:href="#SVGID_1_"  style="overflow:visible;"/>
	</clipPath>
	<g style="clip-path:url(#SVGID_00000062899806704307489310000015587041068640280200_);">
		<g>
			<circle class="st5" cx="296.9" cy="279.9" r="5.4"/>
			<path d="M296.9,285.5c-3.1,0-5.6-2.5-5.6-5.6c0-3.1,2.5-5.6,5.6-5.6c3.1,0,5.6,2.5,5.6,5.6C302.5,283,300,285.5,296.9,285.5z
				 M296.9,274.7c-2.8,0-5.1,2.3-5.1,5.1s2.3,5.1,5.1,5.1s5.1-2.3,5.1-5.1S299.7,274.7,296.9,274.7z"/>
		</g>
		<circle cx="296.9" cy="279.9" r="2.3"/>
		<circle class="st3" cx="298.1" cy="278.6" r="1.4"/>
	</g>
</g>
<path d="M298.1,285c-3.8,0-8.3-1.4-11.5-6.6c-0.1-0.2-0.1-0.5,0.1-0.7c0.2-0.2,4.9-3.9,10.4-2.8c3.5,0.7,6.5,3.3,8.9,7.7
	c0.1,0.1,0.1,0.3,0,0.4s-0.1,0.2-0.3,0.3C305.7,283.3,302.3,285,298.1,285z M287.7,278.2c2.6,4,6.3,5.9,11,5.8
	c2.8-0.1,5.2-1,6.2-1.4c-2.1-3.8-4.8-6-7.9-6.7C292.7,275,288.8,277.4,287.7,278.2z"/>
<g>
	<defs>
		<path id="SVGID_00000134244966193370717320000006209819012627807881_" d="M341.4,278.1c0,0-11.2-8.9-18.5,4.7
			C322.9,282.8,334.9,288.8,341.4,278.1z"/>
	</defs>
	<clipPath id="SVGID_00000091732177368946920190000004003367684247405482_">
		<use xlink:href="#SVGID_00000134244966193370717320000006209819012627807881_"  style="overflow:visible;"/>
	</clipPath>
	<g style="clip-path:url(#SVGID_00000091732177368946920190000004003367684247405482_);">
		<g>
			<path class="st5" d="M336.9,279.9c0,3-2.4,5.4-5.4,5.4c-3,0-5.4-2.4-5.4-5.4c0-3,2.4-5.4,5.4-5.4
				C334.5,274.5,336.9,276.9,336.9,279.9z"/>
			<path d="M331.6,285.5c-3.1,0-5.6-2.5-5.6-5.6c0-3.1,2.5-5.6,5.6-5.6c3.1,0,5.6,2.5,5.6,5.6C337.2,283,334.7,285.5,331.6,285.5z
				 M331.6,274.7c-2.8,0-5.1,2.3-5.1,5.1s2.3,5.1,5.1,5.1s5.1-2.3,5.1-5.1S334.4,274.7,331.6,274.7z"/>
		</g>
		<circle cx="331.6" cy="279.9" r="2.3"/>
		<circle class="st3" cx="332.8" cy="278.6" r="1.4"/>
	</g>
</g>
<path d="M330.4,285c-4.2,0-7.6-1.7-7.7-1.7c-0.1-0.1-0.2-0.2-0.3-0.3s0-0.3,0-0.4c2.3-4.4,5.3-6.9,8.9-7.7
	c5.5-1.1,10.2,2.6,10.4,2.8c0.2,0.2,0.2,0.4,0.1,0.7C338.7,283.6,334.2,285,330.4,285z M323.6,282.6c1,0.4,3.4,1.3,6.2,1.4
	c4.7,0.2,8.4-1.8,11-5.8c-1.2-0.8-5-3.2-9.2-2.3C328.4,276.5,325.8,278.8,323.6,282.6z"/>
</svg>
