<?xml version="1.0" encoding="utf-8"?>
<!-- Generator: Adobe Illustrator 27.0.0, SVG Export Plug-In . SVG Version: 6.00 Build 0)  -->
<svg version="1.1" id="Layer_1" xmlns="http://www.w3.org/2000/svg" xmlns:xlink="http://www.w3.org/1999/xlink" x="0px" y="0px"
	 viewBox="0 0 600 1200" style="enable-background:new 0 0 600 1200;" xml:space="preserve">
<style type="text/css">
	.st0{fill:#B2463A;}
	.st1{fill:#FFB6B1;}
	.st2{fill:#FFFFFF;}
	.st3{clip-path:url(#SVGID_00000095298826425218524740000000205823536913610416_);}
	.st4{fill:#62990D;}
	.st5{clip-path:url(#SVGID_00000064354003528035748410000000170801117733115805_);}
</style>
<g>
	<path class="st0" d="M373,272.9c-2.3-16.3-20.8-52.1-32.5-62.1c-11.7-9.9-21.6-4.3-21.6-4.3c-2.3,0-21.5-15.8-46.4,24.6
		c-24.8,40.4-22.8,49.5-21.9,62.3c0.7,10.4,0,13.5-0.3,14.4c0.7-1.4,3.6-8.4,3-15.3c0,0,8.1,16.9,12.4,22.8s4.5,19.4-0.7,20.1
		c-5.2,0.7-9.5,0-9.5,0s7,4.7,13.3,2c0,0-1.4,2.7-5.4,5c0,0,6.1,1.4,15.8-7.7c0,0,2,6.3,0,9.3c0,0,7.8-6.3,7.7-14.5
		c0-8.1-0.8-19.1-0.8-19.1s3.8,3.5,9.7,3.8c-4.7-4.5-8.3-10.2-10.9-17.4l0,0.1c-4.7,2.1-7.6-4.2-10.6-10.7c-3-6.5-0.5-9.7,2.3-10.1
		c2.8-0.3,3.8,1.3,3.8,1.3l0,0.1c-0.1-0.7-0.2-1.5-0.3-2.2c-0.2-8.9,3-8.8,5.1-19c2.1-10.2,9.8-18.3,9.8-18.3
		c-4.4,7.6-3,24.1-3,24.1c1.1-6.4,11.3-14.4,11.3-14.4c-0.8,8.4-9.4,22.9-9.4,22.9c11.8-4.9,18.8-26.3,18.8-26.3s1.7,10.6-1.6,17.8
		c0,0,11.2-5.9,12.8-20.8c0,0,5.2,16.5,10.4,19.4c0,0-2.6-8.8-2.2-12.4c0,0,10.1,13.8,16.7,18.6V258v9.1c0.9,0.7,1.7,1.2,2.5,1.4
		c6.1,2.1,6.6,10.8,6.6,10.8s-0.5-8.7-6.6-10.8c-0.7-0.3-1.6-0.7-2.5-1.4v0c-0.3,4.5-0.2,6.6-0.8,10.4l0,0c0,0,1.1-1.6,3.8-1.3
		c2.8,0.3,5.3,3.6,2.3,10.1c-3,6.5-5.9,12.8-10.6,10.7l0,0c-1.9,5.7-4.1,8.9-7.2,12.9l0,0c0,0-1.3,10.4-2,19.6
		c-0.7,9.3,12.4,21.5,12.4,21.5c-3.4-3.4-2.7-10.6-2.7-10.6c2.7,4.5,8.8,5.6,8.8,5.6c-2.3-2.6-1.6-7.8-1.6-7.8
		c3.8,10.4,16.7,7.5,16.7,7.5s-7.2-1.4-10.6-8.1s5.2-21,5.2-21c-2,7,0.2,13.6,0.2,13.6s-0.7-7.2,5.6-15.6
		C374.8,306.1,375.3,289.2,373,272.9z"/>
	<g>
		<path class="st1" d="M305.5,213.7c0,0,5.9,5.3-1.1,15.6c-3.8,5.5-4.2,12.4-4.2,12.4s4.3-8,7.8-11.3c0,0,1.3,8.1-0.2,14.9
			c0,0,6.1-9.8,6.3-15.8c0,0,1.4,4.6,1.3,7.7c0,0,1.8-5.4,1.8-7.7c0,0,1.2,4.9,0.7,11.3c0,0,3.4-7.7,3.4-13.9
			c0-6.2-10.1-19.1-10.1-19.1s2,4.5,2,8c0,0-3.9-7.2-7.9-7.5c0,0,3.2,3.7,4,7.6C309.5,216,308.4,214,305.5,213.7z"/>
		<path class="st1" d="M324.7,215.8c0,0,1.8,6.3,1.1,13.9c-0.7,7.6,3.8,12.4,3.8,12.4s-3.6-8.2-1.7-14.7c2.7-9.1-0.8-17.6-0.8-17.6
			s0.4,6.6,0,8.9C327.1,218.6,326.7,217.1,324.7,215.8z"/>
		<path class="st1" d="M334.4,221.9c0,0,2.5,4.1,1.7,11.1s2.1,14.8,7,21c4.9,6.2,11.2,6.3,11.2,6.3s-7.9-4.1-8.7-7.9
			c0,0,4,2.9,7.7,3.3c0,0-6.6-3.5-7.8-8.4c-1.2-4.9-1.2-20.7-5.8-24.7c0,0,3.2,10.3,1.7,17.5C341.4,240.1,339,222.9,334.4,221.9z"/>
		<path class="st1" d="M294.1,221.9c0,0-0.4,12.8-5.5,18.2c-5.1,5.4-13,16.8-13.6,23c0,0-0.5-6.8,1.5-12c0,0-7.6,5.8-7.1,19.6
			c0,0-3.9-3.9-0.5-13.9c3.4-10,11.2-15.4,12.7-23.4c1.5-8,9.1-17.1,9.1-17.1s-3.9,8.3-3.8,13.6c0,0,0.6-3.4,2.7-5.8
			c0,0-0.6,4.3-0.3,6.3C289.4,230.4,292.8,225.5,294.1,221.9z"/>
		<path class="st1" d="M257.4,277.3c0,0-3.1,10.9,0,15s10.2,7.3,10.2,13.3c0,0,1.6-5.4-0.9-9.1s-6.6-10.5-3.5-17
			c0,0-3.1,2.2-3.5,8.6C259.6,287.9,256.1,282.5,257.4,277.3z"/>
		<path class="st1" d="M366,272.9c4.6,4.3,9.3,13.8,4.9,23.6c-4.4,9.8-5.8,16.9-5.8,16.9s-2.2-6.9,0-12.2c0,0-6.8,6.6-8.1,15.2
			c0,0-1.4-9.5,3.7-15.1s7.5-14,7.3-17.3C367.9,280.7,366,272.9,366,272.9z"/>
	</g>
	<g>
		<path d="M373.5,272.8c-2.3-16.9-21-52.5-32.7-62.4c-11.1-9.4-20.7-5.1-22.1-4.4c-0.3-0.1-0.8-0.3-1.3-0.5
			c-5.8-2.6-23.4-10.4-45.4,25.4c-23.8,38.7-23,49-22.1,60.9l0.1,1.8c0.7,10.1,0,13.3-0.3,14.1c-0.1,0.2-0.2,0.3-0.2,0.3
			c-0.1,0.2,0,0.5,0.2,0.6c0.2,0.1,0.5,0.1,0.7-0.1c0,0,0.1-0.1,0.2-0.3c0.6-1.3,3.1-7,3.2-13.2c2.3,4.7,8,16.1,11.4,20.8
			c3,4.1,4.1,12.5,2.2,16.9c-0.6,1.4-1.5,2.2-2.5,2.4c-5.1,0.7-9.3,0-9.3,0c-0.2,0-0.5,0.1-0.5,0.3c-0.1,0.2,0,0.5,0.2,0.6
			c0.3,0.2,6.3,4.2,12.3,2.6c-0.8,1-2.2,2.3-4.4,3.6c-0.2,0.1-0.3,0.3-0.3,0.5s0.2,0.4,0.4,0.4c0.3,0.1,6.2,1.3,15.7-7.3
			c0.4,1.7,1.3,5.9-0.1,8.1c-0.1,0.2-0.1,0.5,0.1,0.7c0.2,0.2,0.5,0.2,0.7,0c0.3-0.3,8-6.6,7.9-14.8c0-6.5-0.6-15-0.8-18
			c1.5,1.1,4.7,3,9.1,3.2c0,0,0.1,0,0.1,0l1.2,0.1h0c-0.3-0.3-0.6-0.6-0.9-0.9c-4.7-4.5-8.3-10.3-10.9-17.5l-0.2,0l-0.2,0
			c-0.1,0-0.2,0-0.2,0c-4,1.8-6.8-3.4-9.9-10.5c-1.4-3.2-1.7-5.9-0.7-7.6c0.6-1,1.5-1.6,2.6-1.8c2.4-0.3,3.3,1,3.4,1.1
			c0.1,0.1,0.2,0.2,0.3,0.2l0.6,0.5l0.1,0.1l0,0l0,0c-0.2-1.1-0.3-2.3-0.4-3.4c-0.1-4.8,0.9-6.9,2.1-9.6c1-2.2,2.1-4.6,3.1-9.1
			c1.3-6.5,5-12.1,7.4-15.3c-2.7,8.2-1.7,20.4-1.7,21c0,0.3,0.2,0.4,0.5,0.5c0.2,0,0.5-0.2,0.5-0.4c0.8-5,7.6-11.1,10.2-13.3
			c-1.4,8.3-9.1,21.3-9.2,21.4c-0.1,0.2-0.1,0.4,0.1,0.6c0.1,0.2,0.4,0.2,0.6,0.1c9.8-4.1,16.2-19,18.3-24.5
			c0.3,3.4,0.5,10.3-1.8,15.4c-0.1,0.2,0,0.4,0.1,0.6c0.2,0.1,0.4,0.2,0.6,0.1c0.1-0.1,10.4-5.6,12.7-19.1c1.6,4.5,5.7,15.3,10,17.7
			c0.2,0.1,0.4,0.1,0.6,0c0.2-0.1,0.2-0.3,0.2-0.5c0-0.1-2-6.8-2.2-10.8c2.6,3.4,10.2,13.2,15.7,17.4c-0.3,4.1-0.6,7.9-1.1,11.5
			l1.1-0.9c0.1,0,0.2-0.1,0.2-0.2c0-0.1,1-1.4,3.4-1.1c1.1,0.1,2,0.8,2.6,1.8c1,1.7,0.7,4.5-0.7,7.6c-3.2,7-5.9,12.2-9.9,10.5
			c-0.1,0-0.1,0-0.2,0l-0.5-0.2c-1.9,5.2-4.3,9.7-7.2,13.5c0,0,0,0,0,0c0,0,0,0,0,0c0,0,0,0.1,0,0.1c0,0,0,0.4-0.1,1c0,0,0,0,0,0.1
			c0,0.2,0,0.4-0.1,0.6c0,0,0,0.1,0,0.1c0,0,0,0,0,0c0,0,0,0,0,0c0,0,0,0,0,0c-0.4,3.3-1.3,11-1.8,17.9c-0.7,9.4,12,21.4,12.6,21.9
			c0.1,0.1,0.2,0.1,0.3,0.1c0.1,0,0.3-0.1,0.4-0.2c0.2-0.2,0.2-0.5,0-0.7c-2.3-2.3-2.6-6.6-2.6-8.8c3,3.6,8,4.5,8.3,4.6
			c0.2,0,0.4-0.1,0.5-0.2c0.1-0.2,0.1-0.4-0.1-0.6c-1.2-1.4-1.5-3.7-1.5-5.4c4.7,8.4,16.3,5.9,16.4,5.9c0.2-0.1,0.4-0.3,0.4-0.5
			c0-0.2-0.2-0.4-0.4-0.5c-0.1,0-7-1.4-10.3-7.9c-2.3-4.6,1.3-13.1,3.6-17.6c-0.7,5.7,0.8,10.3,0.9,10.5c0.1,0.2,0.3,0.4,0.6,0.3
			c0.2-0.1,0.4-0.3,0.4-0.5c0-0.1-0.6-7.2,5.5-15.2C376.8,304.3,374.8,281.9,373.5,272.8z M362.6,326.5c-0.4-2.5-0.5-6.1,0.5-9.9
			c0.1-0.2,0-0.5-0.3-0.6c-0.2-0.1-0.5,0-0.6,0.2c-0.4,0.6-8.7,14.5-5.2,21.5c2.3,4.6,6.2,6.8,8.7,7.7c-1.2,0.1-2.8,0.1-4.5-0.1
			c-4.7-0.7-7.9-3.2-9.4-7.3c-0.1-0.2-0.3-0.4-0.5-0.3c-0.2,0-0.4,0.2-0.4,0.4c0,0.2-0.5,4.3,0.9,7.1c-1.9-0.6-5.4-2-7.2-5
			c-0.1-0.2-0.3-0.3-0.5-0.2c-0.2,0-0.4,0.2-0.4,0.4c0,0.2-0.4,4,0.8,7.4c-3.8-4.1-9.9-11.9-9.5-18.2c0.6-8.7,1.9-18.4,2-19.5
			c2.8-3.6,5-7.7,6.8-12.5c0.6,0.2,1.1,0.3,1.7,0.3c4.1,0,6.8-6,9.3-11.4c2-4.4,1.5-7.1,0.7-8.5c-0.7-1.3-1.9-2.1-3.4-2.3
			c-1.7-0.2-2.8,0.3-3.5,0.7c0.3-2.7,0.6-5.5,0.8-8.5c0.7,0.4,1.3,0.8,1.9,1c5.7,2,6.2,10.3,6.2,10.4c0,0.3,0.2,0.5,0.5,0.5
			c0,0,0,0,0,0c0.3,0,0.5-0.2,0.5-0.5c0-0.4-0.5-9.1-6.9-11.3c-5.9-2-18.8-19.7-18.9-19.8c-0.1-0.2-0.3-0.2-0.5-0.2
			c-0.2,0.1-0.3,0.2-0.4,0.4c-0.3,2.8,1.1,8.5,1.8,11.2c-4.6-4.3-9-18.1-9-18.3c-0.1-0.2-0.3-0.4-0.5-0.3c-0.2,0-0.4,0.2-0.4,0.4
			c-1.2,11.5-8.3,17.5-11.2,19.6c2.5-7.1,1.1-16.3,1.1-16.7c0-0.2-0.2-0.4-0.5-0.4c-0.2,0-0.4,0.1-0.5,0.3
			c-0.1,0.2-6.5,19.4-17,25.3c2.2-3.9,8-14.7,8.6-21.7c0-0.2-0.1-0.4-0.3-0.5c-0.2-0.1-0.4-0.1-0.5,0c-0.4,0.3-7.9,6.3-10.6,12.1
			c-0.2-4.9-0.1-15.5,3.1-21.1c0.1-0.2,0.1-0.5-0.1-0.7c-0.2-0.2-0.5-0.1-0.7,0.1c-0.1,0.1-7.8,8.4-9.9,18.5c-0.9,4.4-2,6.8-3,8.9
			c-0.7,1.5-1.3,2.8-1.7,4.5c-0.1-0.8-0.1-1.5-0.2-2.3c0-0.3-0.3-0.5-0.5-0.5c-0.3,0-0.5,0.3-0.5,0.5c0.2,2.7,0.4,5.3,0.7,7.8
			c0,0,0,0.1,0,0.1c0,0,0,0,0,0c0,0,0,0,0,0c0,0.3,0.1,0.6,0.1,0.9c-0.7-0.4-1.8-0.8-3.3-0.6c-1.4,0.2-2.6,1-3.4,2.3
			c-0.8,1.4-1.3,4.1,0.7,8.5c2.4,5.4,5.2,11.4,9.3,11.4c0.5,0,1-0.1,1.5-0.3c2.4,6.5,5.7,11.7,9.9,16c-4.9-0.7-8.1-3.5-8.1-3.6
			c-0.2-0.1-0.4-0.2-0.6-0.1c-0.2,0.1-0.3,0.3-0.3,0.5c0,0.1,0.8,11,0.8,19.1c0,5.5-3.8,10.3-6,12.6c0.6-3.2-0.7-7.3-0.8-7.5
			c-0.1-0.2-0.2-0.3-0.3-0.3c-0.2,0-0.3,0-0.5,0.1c-6.5,6.1-11.4,7.4-13.7,7.6c3-2.1,4.1-4.2,4.1-4.3c0.1-0.2,0.1-0.4-0.1-0.6
			c-0.1-0.2-0.4-0.2-0.6-0.1c-3.9,1.7-8.2,0.3-10.7-0.8c1.8,0.1,4.3,0.1,7.1-0.2c1.4-0.2,2.6-1.2,3.3-3c2-4.7,0.9-13.6-2.3-17.9
			c-4.2-5.8-12.3-22.6-12.4-22.7c-0.1-0.2-0.4-0.3-0.6-0.3c-0.2,0.1-0.4,0.3-0.4,0.5c0.3,3.9-0.5,8-1.5,10.9
			c0.1-2.2,0.1-5.5-0.3-10.1l-0.1-1.8c-0.9-11.7-1.6-21.9,22-60.3c21.5-35.1,38.5-27.5,44.1-25c0.9,0.4,1.4,0.6,1.8,0.6
			c0.1,0,0.2,0,0.2-0.1c0.1-0.1,9.7-5.4,21.1,4.2c11.3,9.6,30.1,45.4,32.4,61.7c2.6,19,1,34-4.4,41.2
			C364.4,319.1,363,323.6,362.6,326.5z"/>
		<path d="M317.4,215.9c-0.2-0.2-0.5-0.1-0.7,0.1s-0.1,0.5,0.1,0.7c0.1,0.1,8.5,6.7-0.8,28.4c-0.1,0.3,0,0.5,0.3,0.7
			c0.1,0,0.1,0,0.2,0c0.2,0,0.4-0.1,0.5-0.3C326.5,223.1,317.8,216.2,317.4,215.9z"/>
		<path d="M303.6,212.4c-0.3,0-0.5,0.2-0.6,0.4c0,0.3,0.2,0.5,0.4,0.6c0,0,4.4,0.5,6.9,4c0.1,0.1,0.3,0.2,0.4,0.2
			c0.1,0,0.2,0,0.3-0.1c0.2-0.2,0.3-0.5,0.1-0.7C308.5,213,303.8,212.5,303.6,212.4z"/>
		<path d="M308,228.3c-0.3,0-0.5,0.3-0.4,0.6c0,0.1,1.4,9.3-0.8,17.4c-0.1,0.3,0.1,0.5,0.4,0.6c0,0,0.1,0,0.1,0
			c0.2,0,0.4-0.1,0.5-0.4c2.3-8.3,0.9-17.7,0.9-17.8C308.5,228.4,308.3,228.2,308,228.3z"/>
		<path d="M313.4,226.1c-0.3,0.1-0.4,0.3-0.4,0.6c0,0.1,2,8.7,2,11.5c0,0.3,0.2,0.5,0.5,0.5s0.5-0.2,0.5-0.5c0-2.9-2-11.3-2-11.7
			C313.9,226.2,313.6,226.1,313.4,226.1z"/>
		<path d="M328.4,227.5c0.1-0.3-0.1-0.5-0.4-0.6c-0.3-0.1-0.5,0.1-0.6,0.4c-0.1,0.3-2,8.2,2.4,16.5c0.1,0.2,0.3,0.3,0.4,0.3
			c0.1,0,0.2,0,0.2-0.1c0.2-0.1,0.3-0.4,0.2-0.7C326.5,235.3,328.4,227.5,328.4,227.5z"/>
		<path d="M339.2,229.6c-0.3,0.1-0.4,0.3-0.4,0.6c0,0.1,2.4,9.1,2.6,12.8c0,0.3,0.2,0.5,0.5,0.5c0,0,0,0,0,0c0.3,0,0.5-0.3,0.5-0.5
			c-0.3-3.7-2.6-12.6-2.7-13C339.7,229.7,339.4,229.5,339.2,229.6z"/>
		<path d="M356.4,256c-5-0.7-7.3-2.1-7.3-2.1c-0.2-0.1-0.5-0.1-0.7,0.2c-0.1,0.2-0.1,0.5,0.2,0.7c0.1,0.1,2.5,1.5,7.7,2.3
			c0,0,0,0,0.1,0c0.2,0,0.5-0.2,0.5-0.4C356.9,256.3,356.7,256,356.4,256z"/>
		<path d="M273.6,247.8l-0.4-0.3c-1.7,2.1-9.8,13-2.8,26.5c0.1,0.2,0.3,0.3,0.4,0.3c0.1,0,0.2,0,0.2-0.1c0.2-0.1,0.3-0.4,0.2-0.7
			c-6.7-13,1.1-23.5,2.7-25.4c0.1-0.2,0.2-0.5,0.1-0.7L273.6,247.8z"/>
		<path d="M291.4,220.4c-0.1,0.2-3.2,4.3-2.4,12c0,0.3,0.2,0.4,0.5,0.4c0,0,0,0,0.1,0c0.3,0,0.5-0.3,0.4-0.6
			c-0.8-7.3,2.1-11.3,2.2-11.3c0.2-0.2,0.1-0.5-0.1-0.7C291.9,220.2,291.6,220.2,291.4,220.4z"/>
		<path d="M264.8,292.4c-0.2-0.2-0.5-0.1-0.7,0.1c-0.2,0.2-0.1,0.5,0.1,0.7c0.2,0.2,5.6,4.5,2.4,14.8c-0.1,0.3,0.1,0.5,0.3,0.6
			c0,0,0.1,0,0.1,0c0.2,0,0.4-0.1,0.5-0.4C271,297.2,265,292.6,264.8,292.4z"/>
		<path d="M363.2,266.7c-0.3,0.1-0.4,0.4-0.3,0.6c0.1,0.1,5.3,14,4.2,20c0,0.3,0.1,0.5,0.4,0.6c0,0,0.1,0,0.1,0
			c0.2,0,0.4-0.2,0.5-0.4c1.1-6.3-4.1-20-4.3-20.6C363.8,266.7,363.5,266.6,363.2,266.7z"/>
		<path d="M361.2,305.2c-0.2,0.4-6.1,9-6.1,18.7c0,0.3,0.2,0.5,0.5,0.5s0.5-0.2,0.5-0.5c0-9.4,5.9-18.1,5.9-18.2
			c0.2-0.2,0.1-0.5-0.1-0.7C361.7,305,361.4,305,361.2,305.2z"/>
	</g>
</g>
<path d="M302.7,273.4c-0.1,0-0.2,0-0.3-0.1c-7.8-7.4-16.3-2.8-16.7-2.6c-0.2,0.1-0.5,0-0.7-0.2c-0.1-0.2,0-0.5,0.2-0.7
	c0.1-0.1,9.6-5.2,17.9,2.8c0.2,0.2,0.2,0.5,0,0.7C303,273.3,302.8,273.4,302.7,273.4z"/>
<path d="M325.8,273.4c-0.1,0-0.3-0.1-0.4-0.2c-0.2-0.2-0.2-0.5,0-0.7c8.3-8,17.8-2.8,17.9-2.8c0.2,0.1,0.3,0.4,0.2,0.7
	c-0.1,0.2-0.4,0.3-0.7,0.2c-0.4-0.2-8.9-4.8-16.7,2.6C326,273.3,325.9,273.4,325.8,273.4z"/>
<path d="M304.4,283.4c0,0-1.2-4.3-5.5-7c-4.3-2.7-9.7-1.3-9.7-1.3s7,1.5,1.1,0.9c-4-0.4-4.6,0.9-4.6,0.9s7.1,0.4,2.4,0.6
	c-3.4,0.2-3.8,1.5-3.8,1.5s5.5-0.5,1.9,1c-1.7,0.7-1.9,2.1-1.9,2.1s1.9-1,3.3-0.4c0,0-0.7,1-0.6,2.2c0,0,0.9-1.2,1.9-1.1
	c1,0.1,6-4.1,6-4.1L304.4,283.4z"/>
<g>
	<path class="st2" d="M287,280.4c0,0,11.2-8.9,18.5,4.7C305.5,285.2,293.5,291.2,287,280.4z"/>
	<path d="M298.1,287.3c-3.8,0-8.3-1.4-11.5-6.6c-0.1-0.2-0.1-0.5,0.1-0.7c0.2-0.2,4.9-3.9,10.4-2.8c3.5,0.7,6.5,3.3,8.9,7.7
		c0.1,0.1,0.1,0.3,0,0.4c0,0.1-0.1,0.2-0.3,0.3C305.7,285.6,302.3,287.3,298.1,287.3z M287.7,280.6c2.6,4,6.3,5.9,11,5.8
		c2.8-0.1,5.2-1,6.2-1.4c-2.2-3.8-4.8-6-7.9-6.7C292.7,277.4,288.8,279.7,287.7,280.6z"/>
</g>
<path d="M324,283.4c0,0,1.2-4.3,5.5-7c4.3-2.7,9.7-1.3,9.7-1.3s-7,1.5-1.1,0.9c4-0.4,4.6,0.9,4.6,0.9s-7.1,0.4-2.4,0.6
	c3.4,0.2,3.8,1.5,3.8,1.5s-5.5-0.5-1.9,1c1.7,0.7,1.9,2.1,1.9,2.1s-1.9-1-3.3-0.4c0,0,0.7,1,0.6,2.2c0,0-0.9-1.2-1.9-1.1
	c-1,0.1-6-4.1-6-4.1L324,283.4z"/>
<g>
	<path class="st2" d="M341.4,280.4c0,0-11.2-8.9-18.5,4.7C322.9,285.2,334.9,291.2,341.4,280.4z"/>
	<path d="M330.4,287.3c-4.2,0-7.6-1.7-7.7-1.7c-0.1-0.1-0.2-0.2-0.3-0.3c0-0.1,0-0.3,0-0.4c2.3-4.4,5.3-6.9,8.9-7.7
		c5.5-1.1,10.2,2.6,10.4,2.8c0.2,0.2,0.2,0.4,0.1,0.7C338.7,285.9,334.2,287.3,330.4,287.3z M323.6,284.9c1,0.4,3.4,1.3,6.2,1.4
		c4.7,0.2,8.4-1.8,11-5.8c-1.2-0.8-5-3.2-9.2-2.3C328.4,278.9,325.8,281.1,323.6,284.9z"/>
</g>
<g>
	<defs>
		<path id="SVGID_1_" d="M287,280.4c0,0,11.2-8.9,18.5,4.7C305.5,285.2,293.5,291.2,287,280.4z"/>
	</defs>
	<clipPath id="SVGID_00000113339073623563418730000000267162825454007454_">
		<use xlink:href="#SVGID_1_"  style="overflow:visible;"/>
	</clipPath>
	<g style="clip-path:url(#SVGID_00000113339073623563418730000000267162825454007454_);">
		<g>
			<circle class="st4" cx="296.9" cy="282.2" r="5.4"/>
			<path d="M296.9,287.8c-3.1,0-5.6-2.5-5.6-5.6s2.5-5.6,5.6-5.6s5.6,2.5,5.6,5.6S300,287.8,296.9,287.8z M296.9,277.1
				c-2.8,0-5.1,2.3-5.1,5.1s2.3,5.1,5.1,5.1s5.1-2.3,5.1-5.1S299.7,277.1,296.9,277.1z"/>
		</g>
		<circle cx="296.9" cy="282.2" r="2.3"/>
		<circle class="st2" cx="298.1" cy="280.9" r="1.4"/>
	</g>
</g>
<path d="M298.1,287.3c-3.8,0-8.3-1.4-11.5-6.6c-0.1-0.2-0.1-0.5,0.1-0.7c0.2-0.2,4.9-3.9,10.4-2.8c3.5,0.7,6.5,3.3,8.9,7.7
	c0.1,0.1,0.1,0.3,0,0.4c0,0.1-0.1,0.2-0.3,0.3C305.7,285.6,302.3,287.3,298.1,287.3z M287.7,280.6c2.6,4,6.3,5.9,11,5.8
	c2.8-0.1,5.2-1,6.2-1.4c-2.2-3.8-4.8-6-7.9-6.7C292.7,277.4,288.8,279.7,287.7,280.6z"/>
<g>
	<defs>
		<path id="SVGID_00000182515919177840535750000010258760133594307988_" d="M341.4,280.4c0,0-11.2-8.9-18.5,4.7
			C322.9,285.2,334.9,291.2,341.4,280.4z"/>
	</defs>
	<clipPath id="SVGID_00000050656551122197171620000006181640122729307583_">
		<use xlink:href="#SVGID_00000182515919177840535750000010258760133594307988_"  style="overflow:visible;"/>
	</clipPath>
	<g style="clip-path:url(#SVGID_00000050656551122197171620000006181640122729307583_);">
		<g>
			<circle class="st4" cx="331.6" cy="282.2" r="5.4"/>
			<path d="M331.6,287.8c-3.1,0-5.6-2.5-5.6-5.6s2.5-5.6,5.6-5.6c3.1,0,5.6,2.5,5.6,5.6S334.7,287.8,331.6,287.8z M331.6,277.1
				c-2.8,0-5.1,2.3-5.1,5.1s2.3,5.1,5.1,5.1s5.1-2.3,5.1-5.1S334.4,277.1,331.6,277.1z"/>
		</g>
		<circle cx="331.6" cy="282.2" r="2.3"/>
		<circle class="st2" cx="332.8" cy="280.9" r="1.4"/>
	</g>
</g>
<path d="M330.4,287.3c-4.2,0-7.6-1.7-7.7-1.7c-0.1-0.1-0.2-0.2-0.3-0.3c0-0.1,0-0.3,0-0.4c2.3-4.4,5.3-6.9,8.9-7.7
	c5.5-1.1,10.2,2.6,10.4,2.8c0.2,0.2,0.2,0.4,0.1,0.7C338.7,285.9,334.2,287.3,330.4,287.3z M323.6,284.9c1,0.4,3.4,1.3,6.2,1.4
	c4.7,0.2,8.4-1.8,11-5.8c-1.2-0.8-5-3.2-9.2-2.3C328.4,278.9,325.8,281.1,323.6,284.9z"/>
</svg>
