<?xml version="1.0" encoding="utf-8"?>
<!-- Generator: Adobe Illustrator 27.5.0, SVG Export Plug-In . SVG Version: 6.00 Build 0)  -->
<svg version="1.1" id="Layer_1" xmlns="http://www.w3.org/2000/svg" xmlns:xlink="http://www.w3.org/1999/xlink" x="0px" y="0px"
	 viewBox="0 0 600 1200" style="enable-background:new 0 0 600 1200;" xml:space="preserve">
<style type="text/css">
	.st0{fill:#312D51;}
	.st1{clip-path:url(#SVGID_00000115503919676989059070000006034300485313998223_);}
	.st2{fill:#FFFFFF;}
	.st3{fill:none;}
</style>
<g>
	<path class="st0" d="M368.6,550c-0.2-5.9-0.7-12.4-1.6-18.7l0,0c0,0-22.4,10.8-52.7,10.8c-24.8,0-67.8-14.5-68.2-14.6
		c-3.7,9.6-7,19.8-8.5,27.6c-1.8,9.3-0.9,21,1.7,36.6l0,0c34.2-4.9,64.1,16.2,64.1,16.2l0,0c0.2-5.9,0.4-10.4,0.4-10.4s0.2,0.2,3,0
		c-0.3,5.7-0.4,10.8-0.2,15.5c0,0,31.6-25.5,62-20.2"/>
	<g>
		<g>
			<defs>
				<path id="SVGID_1_" d="M314.3,542c-24.8,0-67.8-14.5-68.2-14.6c-3.7,9.6-7,19.8-8.5,27.6c-1.8,9.3-0.9,21,1.7,36.6l0,0
					c34.2-4.9,64.1,16.2,64.1,16.2l0,0c0.2-5.9,0.4-10.4,0.4-10.4s0.2,0.2,3,0c-0.3,5.7-0.4,10.8-0.2,15.5c0,0,31.6-25.5,62-20.2
					l-0.6,8.5c1-22.6,0.8-42.7,0.6-51.2c-0.2-5.9-0.7-12.4-1.6-18.7l0,0C367,531.2,344.7,542,314.3,542z"/>
			</defs>
			<clipPath id="SVGID_00000016779536666649688620000002276952327790729089_">
				<use xlink:href="#SVGID_1_"  style="overflow:visible;"/>
			</clipPath>
			<g style="clip-path:url(#SVGID_00000016779536666649688620000002276952327790729089_);">
				<g>
					<g>
						<path class="st2" d="M398.5,399.2c0,0-23.3-1.3-30.1,4.2c-6.8,5.5-18.6,26.3-10.6,26.3c8.1,0,27.1-16.5,34.3-21.2
							s14.9-10.5,11.9-5s-10.6,8.1-9.7,16.5c0.8,8.5,11,19.5,14,16.5s8.1-17,8.1-18.5s-5.1-15.4-5.1-15.4s14.4,18.2,18.2,24.6
							c3.8,6.4,6.4-6.8,5.9-13.1s-22.5-17-22.5-17s8.5-3.4,11.9-14.4s-1.3-25.4-7.2-26.7c-5.9-1.3-12.7,15.3-12.7,22
							s-1.3,14.8-1.3,14.8l-17-13.1c0,0-4.2-5.1-13.1-5.1s-13.1,1.7-13.1,8.9c0,7.2,11.4,14,20.3,12.9S398.5,399.2,398.5,399.2z"/>
						<path class="st2" d="M392.6,415c0,0-7.3,3.3-9.2,22c-1.9,18.7-2.2,46.7-2.2,46.7h-5.1c0,0,1.6-40.2,3.2-46.7
							C381.2,428.9,380.2,418.5,392.6,415z"/>
						<circle class="st2" cx="364.7" cy="440" r="2"/>
						<circle class="st2" cx="353.2" cy="440" r="2"/>
						<circle class="st2" cx="360.7" cy="433.8" r="2"/>
						<circle class="st2" cx="361.6" cy="447.4" r="2"/>
						<circle class="st2" cx="369.8" cy="445.4" r="2"/>
						<circle class="st2" cx="368.6" cy="454" r="2"/>
						<circle class="st2" cx="349.2" cy="455.9" r="2"/>
						<circle class="st2" cx="376.1" cy="431.8" r="2"/>
					</g>
					<g>
						<path class="st2" d="M470.2,449.8c0,0,20.2-11.7,22.8-20c2.7-8.3,1.2-32.2-5.5-27.8c-6.7,4.4-13.6,28.7-17.1,36.5
							s-6.6,17-7.1,10.8s4.4-12.5-0.9-19.2c-5.4-6.6-19.9-10.3-20.8-6.2c-0.9,4.1,2.6,18.6,3.4,19.9c0.8,1.2,12.7,10.1,12.7,10.1
							s-22-7.3-28.7-10.6s-1.6,9.2,2.2,14.2c3.8,5.1,28.1,1.9,28.1,1.9s-5.2,7.5-2,18.6s15,20.6,20.7,18.4s2.3-19.7-1.4-25.4
							c-3.7-5.7-7.1-13.1-7.1-13.1l21.4,1.7c0,0,6.3,1.9,13.8-2.9c7.4-4.9,10.1-8.6,6.1-14.6s-17.2-5.4-24.1,0.3
							C479.8,448.1,470.2,449.8,470.2,449.8z"/>
						<path class="st2" d="M466.5,433.4c0,0,4.3-6.8-4.3-23.5c-8.6-16.7-23.7-40.2-23.7-40.2l4.3-2.8c0,0,20.7,34.5,22.9,40.8
							C468.5,415.5,475,423.7,466.5,433.4z"/>
						<circle class="st2" cx="476.2" cy="397.2" r="2"/>
						<circle class="st2" cx="485.8" cy="390.9" r="2"/>
						<circle class="st2" cx="482.9" cy="400.2" r="2"/>
						<circle class="st2" cx="474.7" cy="389.3" r="2"/>
						<circle class="st2" cx="468.9" cy="395.5" r="2"/>
						<circle class="st2" cx="465.3" cy="387.6" r="2"/>
						<circle class="st2" cx="480.4" cy="375.4" r="2"/>
						<circle class="st2" cx="471.2" cy="410.3" r="2"/>
					</g>
					<g>
						<path class="st2" d="M264,306.4c0,0-23.3-1.3-30.1,4.2S215.2,337,223.3,337s27.1-16.5,34.3-21.2c7.2-4.7,14.8-10.6,11.9-5.1
							c-3,5.5-10.6,8.1-9.7,16.5c0.8,8.5,11,19.5,14,16.5s8.1-17,8.1-18.5s-5.1-15.4-5.1-15.4s14.4,18.2,18.2,24.6
							c3.8,6.4,6.4-6.8,5.9-13.1c-0.4-6.4-22.5-17-22.5-17s8.5-3.4,11.9-14.4s-1.3-25.4-7.2-26.7c-5.9-1.3-12.7,15.3-12.7,22
							s-1.3,14.8-1.3,14.8l-17-13.1c0,0-4.2-5.1-13.1-5.1s-13.1,1.7-13.1,8.9s11.4,14,20.3,12.9S264,306.4,264,306.4z"/>
						<path class="st2" d="M258,322.2c0,0-7.3,3.3-9.2,22s-2.2,46.7-2.2,46.7h-5.1c0,0,1.6-40.2,3.2-46.7
							C246.6,336.1,245.6,325.7,258,322.2z"/>
						<circle class="st2" cx="230.1" cy="347.2" r="2"/>
						<circle class="st2" cx="218.6" cy="347.2" r="2"/>
						<circle class="st2" cx="226.2" cy="341" r="2"/>
						<circle class="st2" cx="227" cy="354.6" r="2"/>
						<circle class="st2" cx="235.2" cy="352.6" r="2"/>
						<circle class="st2" cx="234" cy="361.2" r="2"/>
						<circle class="st2" cx="214.7" cy="363.2" r="2"/>
						<circle class="st2" cx="241.5" cy="339" r="2"/>
					</g>
					<g>
						<path class="st2" d="M335.7,357c0,0,20.2-11.7,22.8-20c2.7-8.3,1.2-32.2-5.5-27.8c-6.7,4.4-13.6,28.7-17.1,36.5
							s-6.6,17-7.1,10.8s4.4-12.5-0.9-19.2c-5.4-6.6-19.9-10.3-20.8-6.2c-0.9,4.1,2.6,18.6,3.4,19.9s12.7,10.1,12.7,10.1
							s-22-7.3-28.7-10.6c-6.7-3.2-1.6,9.2,2.2,14.2c3.8,5.1,28.1,1.9,28.1,1.9s-5.2,7.5-2,18.6s15,20.6,20.7,18.4
							s2.3-19.7-1.4-25.4c-3.7-5.7-7.1-13.1-7.1-13.1l21.4,1.7c0,0,6.3,1.9,13.8-2.9c7.4-4.9,10.1-8.6,6.1-14.6
							c-3.9-6-17.2-5.4-24.1,0.3C345.2,355.4,335.7,357,335.7,357z"/>
						<path class="st2" d="M332,340.6c0,0,4.3-6.8-4.3-23.5c-8.6-16.7-23.7-40.2-23.7-40.2l4.3-2.8c0,0,20.7,34.5,22.9,40.8
							C333.9,322.8,340.4,330.9,332,340.6z"/>
						<circle class="st2" cx="341.7" cy="304.4" r="2"/>
						<circle class="st2" cx="351.3" cy="298.1" r="2"/>
						<circle class="st2" cx="348.3" cy="307.4" r="2"/>
						<circle class="st2" cx="340.2" cy="296.5" r="2"/>
						<circle class="st2" cx="334.4" cy="302.7" r="2"/>
						<circle class="st2" cx="330.7" cy="294.8" r="2"/>
						<circle class="st2" cx="345.8" cy="282.6" r="2"/>
						<circle class="st2" cx="336.6" cy="317.5" r="2"/>
					</g>
					<g>
						<path class="st2" d="M129.4,213.7c0,0-23.3-1.3-30.1,4.2s-18.6,26.3-10.6,26.3s27.1-16.5,34.3-21.2
							c7.2-4.7,14.8-10.6,11.9-5.1c-3,5.5-10.6,8.1-9.7,16.5c0.8,8.5,11,19.5,14,16.5s8.1-17,8.1-18.5s-5.1-15.4-5.1-15.4
							s14.4,18.2,18.2,24.6c3.8,6.4,6.4-6.8,5.9-13.1c-0.4-6.4-22.5-17-22.5-17s8.5-3.4,11.9-14.4s-1.3-25.4-7.2-26.7
							s-12.7,15.3-12.7,22s-1.3,14.8-1.3,14.8l-17-13.1c0,0-4.2-5.1-13.1-5.1s-13.1,1.7-13.1,8.9s11.4,14,20.3,12.9
							S129.4,213.7,129.4,213.7z"/>
						<path class="st2" d="M123.5,229.4c0,0-7.3,3.3-9.2,22c-1.9,18.7-2.2,46.7-2.2,46.7H107c0,0,1.6-40.2,3.2-46.7
							C112.1,243.3,111.1,232.9,123.5,229.4z"/>
						<circle class="st2" cx="95.5" cy="254.4" r="2"/>
						<circle class="st2" cx="84.1" cy="254.4" r="2"/>
						<circle class="st2" cx="91.6" cy="248.2" r="2"/>
						<circle class="st2" cx="92.5" cy="261.8" r="2"/>
						<circle class="st2" cx="100.7" cy="259.9" r="2"/>
						<circle class="st2" cx="99.5" cy="268.4" r="2"/>
						<circle class="st2" cx="80.1" cy="270.4" r="2"/>
						<circle class="st2" cx="106.9" cy="246.2" r="2"/>
					</g>
					<g>
						<path class="st2" d="M201.1,264.2c0,0,20.2-11.7,22.8-20c2.7-8.3,1.2-32.2-5.5-27.8s-13.6,28.7-17.1,36.5
							c-3.5,7.8-6.6,17-7.1,10.8s4.4-12.5-0.9-19.2s-19.9-10.3-20.8-6.2c-0.9,4.1,2.6,18.6,3.4,19.9c0.8,1.2,12.7,10.1,12.7,10.1
							s-22-7.3-28.7-10.6c-6.7-3.2-1.6,9.2,2.2,14.2c3.8,5.1,28.1,1.9,28.1,1.9s-5.2,7.5-2,18.6s15,20.6,20.7,18.4
							s2.3-19.7-1.4-25.4c-3.7-5.7-7.1-13.1-7.1-13.1l21.4,1.7c0,0,6.3,1.9,13.8-2.9c7.4-4.9,10.1-8.6,6.1-14.6
							c-3.9-6-17.2-5.4-24.1,0.3C210.7,262.6,201.1,264.2,201.1,264.2z"/>
						<path class="st2" d="M197.4,247.8c0,0,4.3-6.8-4.3-23.5s-23.7-40.2-23.7-40.2l4.3-2.8c0,0,20.7,34.5,22.9,40.8
							C199.4,230,205.9,238.1,197.4,247.8z"/>
						<circle class="st2" cx="207.1" cy="211.6" r="2"/>
						<circle class="st2" cx="216.7" cy="205.3" r="2"/>
						<circle class="st2" cx="213.8" cy="214.7" r="2"/>
						<circle class="st2" cx="205.6" cy="203.7" r="2"/>
						<circle class="st2" cx="199.8" cy="209.9" r="2"/>
						<circle class="st2" cx="196.2" cy="202" r="2"/>
						<circle class="st2" cx="211.3" cy="189.8" r="2"/>
						<circle class="st2" cx="202.1" cy="224.7" r="2"/>
					</g>
					<g>
						<path class="st2" d="M381.4,523.6c0,0-23.3-1.3-30.1,4.2c-6.8,5.5-18.6,26.3-10.6,26.3c8.1,0,27.1-16.5,34.3-21.2
							s14.8-10.6,11.9-5.1c-3,5.5-10.6,8.1-9.7,16.5s11,19.5,14,16.5s8.1-17,8.1-18.5s-5.1-15.4-5.1-15.4s14.4,18.2,18.2,24.6
							c3.8,6.4,6.4-6.8,5.9-13.1s-22.5-17-22.5-17s8.5-3.4,11.9-14.4s-1.3-25.4-7.2-26.7c-5.9-1.3-12.7,15.3-12.7,22
							c0,6.8-1.3,14.8-1.3,14.8l-17-13.1c0,0-4.2-5.1-13.1-5.1s-13.1,1.7-13.1,8.9s11.4,14,20.3,12.9S381.4,523.6,381.4,523.6z"/>
						<path class="st2" d="M375.4,539.4c0,0-7.3,3.3-9.2,22S364,608,364,608h-5.1c0,0,1.6-40.2,3.2-46.7
							C364,553.2,363,542.9,375.4,539.4z"/>
						<circle class="st2" cx="347.5" cy="564.3" r="2"/>
						<circle class="st2" cx="336" cy="564.3" r="2"/>
						<circle class="st2" cx="343.6" cy="558.1" r="2"/>
						<circle class="st2" cx="344.4" cy="571.8" r="2"/>
						<circle class="st2" cx="352.7" cy="569.8" r="2"/>
						<circle class="st2" cx="351.4" cy="578.3" r="2"/>
						<circle class="st2" cx="332.1" cy="580.3" r="2"/>
						<circle class="st2" cx="358.9" cy="556.2" r="2"/>
					</g>
					<g>
						<path class="st2" d="M453.1,574.2c0,0,20.2-11.7,22.8-20c2.7-8.3,1.2-32.2-5.5-27.8s-13.6,28.7-17.1,36.5s-6.6,17-7.1,10.8
							s4.4-12.5-0.9-19.2c-5.4-6.6-19.9-10.3-20.8-6.2s2.6,18.6,3.4,19.9c0.8,1.2,12.7,10.1,12.7,10.1s-22-7.3-28.7-10.6
							c-6.7-3.2-1.6,9.2,2.2,14.2c3.8,5.1,28.1,1.9,28.1,1.9s-5.2,7.5-2,18.6s15,20.6,20.7,18.4c5.7-2.2,2.3-19.7-1.4-25.4
							s-7.1-13.1-7.1-13.1l21.4,1.7c0,0,6.3,1.9,13.8-2.9s10.1-8.6,6.1-14.6c-3.9-6-17.2-5.4-24.1,0.3
							C462.6,572.5,453.1,574.2,453.1,574.2z"/>
						<path class="st2" d="M449.4,557.7c0,0,4.3-6.8-4.3-23.5c-8.6-16.7-23.7-40.2-23.7-40.2l4.3-2.8c0,0,20.7,34.5,22.9,40.8
							C451.4,539.9,457.9,548,449.4,557.7z"/>
						<circle class="st2" cx="459.1" cy="521.6" r="2"/>
						<circle class="st2" cx="468.7" cy="515.3" r="2"/>
						<circle class="st2" cx="465.8" cy="524.6" r="2"/>
						<circle class="st2" cx="457.6" cy="513.7" r="2"/>
						<circle class="st2" cx="451.8" cy="519.8" r="2"/>
						<circle class="st2" cx="448.1" cy="512" r="2"/>
						<circle class="st2" cx="463.2" cy="499.7" r="2"/>
						<circle class="st2" cx="454" cy="534.6" r="2"/>
					</g>
					<g>
						<path class="st2" d="M246.8,430.8c0,0-23.3-1.3-30.1,4.2s-18.6,26.3-10.6,26.3c8.1,0,27.1-16.5,34.3-21.2s14.8-10.6,11.9-5.1
							c-3,5.5-10.6,8.1-9.7,16.5s11,19.5,14,16.5c3-3,8.1-17,8.1-18.5s-5.1-15.4-5.1-15.4s14.4,18.2,18.2,24.6s6.4-6.8,5.9-13.1
							c-0.4-6.4-22.5-17-22.5-17s8.5-3.4,11.9-14.4s-1.3-25.4-7.2-26.7c-5.9-1.3-12.7,15.3-12.7,22s-1.3,14.8-1.3,14.8l-17-13.1
							c0,0-4.2-5.1-13.1-5.1c-8.9,0-13.1,1.7-13.1,8.9s11.4,14,20.3,12.9S246.8,430.8,246.8,430.8z"/>
						<path class="st2" d="M240.9,446.6c0,0-7.3,3.3-9.2,22s-2.2,46.7-2.2,46.7h-5.1c0,0,1.6-40.2,3.2-46.7
							C229.5,460.4,228.5,450.1,240.9,446.6z"/>
						<circle class="st2" cx="213" cy="471.5" r="2"/>
						<circle class="st2" cx="201.5" cy="471.5" r="2"/>
						<circle class="st2" cx="209" cy="465.3" r="2"/>
						<circle class="st2" cx="209.9" cy="479" r="2"/>
						<circle class="st2" cx="218.1" cy="477" r="2"/>
						<circle class="st2" cx="216.9" cy="485.5" r="2"/>
						<circle class="st2" cx="197.5" cy="487.5" r="2"/>
						<circle class="st2" cx="224.4" cy="463.4" r="2"/>
					</g>
					<g>
						<path class="st2" d="M318.5,481.4c0,0,20.2-11.7,22.8-20c2.7-8.3,1.2-32.2-5.5-27.8s-13.6,28.7-17.1,36.5s-6.6,17-7.1,10.8
							s4.4-12.5-0.9-19.2c-5.4-6.6-19.9-10.3-20.8-6.2s2.6,18.6,3.4,19.9c0.8,1.2,12.7,10.1,12.7,10.1s-22-7.3-28.7-10.6
							c-6.7-3.2-1.6,9.2,2.2,14.2c3.8,5.1,28.1,1.9,28.1,1.9s-5.2,7.5-2,18.6s15,20.6,20.7,18.4c5.7-2.2,2.3-19.7-1.4-25.4
							c-3.7-5.7-7.1-13.1-7.1-13.1l21.4,1.7c0,0,6.3,1.9,13.8-2.9c7.4-4.9,10.1-8.6,6.1-14.6c-3.9-6-17.2-5.4-24.1,0.3
							C328.1,479.7,318.5,481.4,318.5,481.4z"/>
						<path class="st2" d="M314.9,464.9c0,0,4.3-6.8-4.3-23.5c-8.6-16.7-23.7-40.2-23.7-40.2l4.3-2.8c0,0,20.7,34.5,22.9,40.8
							C316.8,447.1,323.3,455.2,314.9,464.9z"/>
						<circle class="st2" cx="324.5" cy="428.8" r="2"/>
						<circle class="st2" cx="334.1" cy="422.5" r="2"/>
						<circle class="st2" cx="331.2" cy="431.8" r="2"/>
						<circle class="st2" cx="323" cy="420.9" r="2"/>
						<circle class="st2" cx="317.2" cy="427" r="2"/>
						<circle class="st2" cx="313.6" cy="419.2" r="2"/>
						<circle class="st2" cx="328.7" cy="407" r="2"/>
						<circle class="st2" cx="319.5" cy="441.8" r="2"/>
					</g>
					<g>
						<path class="st2" d="M112.3,338c0,0-23.3-1.3-30.1,4.2c-6.8,5.5-18.6,26.3-10.6,26.3s27.1-16.5,34.3-21.2
							c7.2-4.7,14.8-10.6,11.9-5.1c-3,5.5-10.6,8.1-9.7,16.5c0.8,8.5,11,19.5,14,16.5s8.1-17,8.1-18.5s-5.1-15.4-5.1-15.4
							s14.4,18.2,18.2,24.6s6.4-6.8,5.9-13.1c-0.4-6.4-22.5-17-22.5-17s8.5-3.4,11.9-14.4s-1.3-25.4-7.2-26.7
							c-5.9-1.3-12.7,15.3-12.7,22s-1.3,14.8-1.3,14.8l-17-13.1c0,0-4.2-5.1-13.1-5.1s-13.1,1.7-13.1,8.9c0,7.2,11.4,14,20.3,12.9
							S112.3,338,112.3,338z"/>
						<path class="st2" d="M106.3,353.8c0,0-7.3,3.3-9.2,22c-1.9,18.7-2.2,46.7-2.2,46.7h-5.1c0,0,1.6-40.2,3.2-46.7
							C94.9,367.6,93.9,357.3,106.3,353.8z"/>
						<circle class="st2" cx="78.4" cy="378.7" r="2"/>
						<circle class="st2" cx="66.9" cy="378.7" r="2"/>
						<circle class="st2" cx="74.5" cy="372.5" r="2"/>
						<circle class="st2" cx="75.3" cy="386.2" r="2"/>
						<circle class="st2" cx="83.5" cy="384.2" r="2"/>
						<circle class="st2" cx="82.3" cy="392.8" r="2"/>
						<circle class="st2" cx="63" cy="394.7" r="2"/>
						<circle class="st2" cx="89.8" cy="370.6" r="2"/>
					</g>
					<g>
						<path class="st2" d="M184,388.6c0,0,20.2-11.7,22.8-20c2.7-8.3,1.2-32.2-5.5-27.8c-6.7,4.4-13.6,28.7-17.1,36.5
							s-6.6,17-7.1,10.8s4.4-12.5-0.9-19.2c-5.4-6.6-19.9-10.3-20.8-6.2c-0.9,4.1,2.6,18.6,3.4,19.9s12.7,10.1,12.7,10.1
							s-22-7.3-28.7-10.6s-1.6,9.2,2.2,14.2c3.8,5.1,28.1,1.9,28.1,1.9s-5.2,7.5-2,18.6s15,20.6,20.7,18.4s2.3-19.7-1.4-25.4
							c-3.7-5.7-7.1-13.1-7.1-13.1l21.4,1.7c0,0,6.3,1.9,13.8-2.9c7.4-4.9,10.1-8.6,6.1-14.6c-3.9-6-17.2-5.4-24.1,0.3
							S184,388.6,184,388.6z"/>
						<path class="st2" d="M180.3,372.1c0,0,4.3-6.8-4.3-23.5s-23.7-40.2-23.7-40.2l4.3-2.8c0,0,20.7,34.5,22.9,40.8
							C182.2,354.3,188.7,362.4,180.3,372.1z"/>
						<circle class="st2" cx="190" cy="336" r="2"/>
						<circle class="st2" cx="199.6" cy="329.7" r="2"/>
						<circle class="st2" cx="196.6" cy="339" r="2"/>
						<circle class="st2" cx="188.5" cy="328.1" r="2"/>
						<circle class="st2" cx="182.7" cy="334.2" r="2"/>
						<circle class="st2" cx="179" cy="326.4" r="2"/>
						<circle class="st2" cx="194.1" cy="314.2" r="2"/>
						<circle class="st2" cx="184.9" cy="349" r="2"/>
					</g>
					<g>
						<path class="st2" d="M364.2,647.9c0,0-23.3-1.3-30.1,4.2s-18.6,26.3-10.6,26.3c8.1,0,27.1-16.5,34.3-21.2
							c7.2-4.7,14.8-10.6,11.9-5.1c-3,5.5-10.6,8.1-9.7,16.5c0.8,8.5,11,19.5,14,16.5s8.1-17,8.1-18.5s-5.1-15.4-5.1-15.4
							s14.4,18.2,18.2,24.6c3.8,6.4,6.4-6.8,5.9-13.1c-0.4-6.4-22.5-17-22.5-17s8.5-3.4,11.9-14.4s-1.3-25.4-7.2-26.7
							c-5.9-1.3-12.7,15.3-12.7,22c0,6.8-1.3,14.8-1.3,14.8l-17-13.1c0,0-4.2-5.1-13.1-5.1s-13.1,1.7-13.1,8.9s11.4,14,20.3,12.9
							S364.2,647.9,364.2,647.9z"/>
						<path class="st2" d="M358.3,663.7c0,0-7.3,3.3-9.2,22c-1.9,18.7-2.2,46.7-2.2,46.7h-5.1c0,0,1.6-40.2,3.2-46.7
							C346.9,677.6,345.9,667.2,358.3,663.7z"/>
						<circle class="st2" cx="330.4" cy="688.7" r="2"/>
						<circle class="st2" cx="318.9" cy="688.7" r="2"/>
						<circle class="st2" cx="326.5" cy="682.5" r="2"/>
						<circle class="st2" cx="327.3" cy="696.1" r="2"/>
						<circle class="st2" cx="335.5" cy="694.1" r="2"/>
						<circle class="st2" cx="334.3" cy="702.7" r="2"/>
						<circle class="st2" cx="315" cy="704.6" r="2"/>
						<circle class="st2" cx="341.8" cy="680.5" r="2"/>
					</g>
					<g>
						<path class="st2" d="M436,698.5c0,0,20.2-11.7,22.8-20c2.7-8.3,1.2-32.2-5.5-27.8s-13.6,28.7-17.1,36.5s-6.6,17-7.1,10.8
							s4.4-12.5-0.9-19.2c-5.4-6.6-19.9-10.3-20.8-6.2s2.6,18.6,3.4,19.9s12.7,10.1,12.7,10.1s-22-7.3-28.7-10.6
							c-6.7-3.2-1.6,9.2,2.2,14.2s28.1,1.9,28.1,1.9s-5.2,7.5-2,18.6s15,20.6,20.7,18.4c5.7-2.2,2.3-19.7-1.4-25.4
							c-3.7-5.7-7.1-13.1-7.1-13.1l21.4,1.7c0,0,6.3,1.9,13.8-2.9s10.1-8.6,6.1-14.6s-17.2-5.4-24.1,0.3
							C445.5,696.8,436,698.5,436,698.5z"/>
						<path class="st2" d="M432.3,682.1c0,0,4.3-6.8-4.3-23.5s-23.7-40.2-23.7-40.2l4.3-2.8c0,0,20.7,34.5,22.9,40.8
							C434.2,664.2,440.7,672.4,432.3,682.1z"/>
						<circle class="st2" cx="441.9" cy="645.9" r="2"/>
						<circle class="st2" cx="451.6" cy="639.6" r="2"/>
						<circle class="st2" cx="448.6" cy="648.9" r="2"/>
						<circle class="st2" cx="440.4" cy="638" r="2"/>
						<circle class="st2" cx="434.7" cy="644.2" r="2"/>
						<circle class="st2" cx="431" cy="636.3" r="2"/>
						<circle class="st2" cx="446.1" cy="624.1" r="2"/>
						<circle class="st2" cx="436.9" cy="659" r="2"/>
					</g>
					<g>
						<path class="st2" d="M229.7,555.1c0,0-23.3-1.3-30.1,4.2S181,585.6,189,585.6s27.1-16.5,34.3-21.2s14.8-10.6,11.9-5.1
							s-10.6,8.1-9.7,16.5c0.8,8.5,11,19.5,14,16.5s8.1-17,8.1-18.5s-5.1-15.4-5.1-15.4s14.4,18.2,18.2,24.6
							c3.8,6.4,6.4-6.8,5.9-13.1c-0.4-6.4-22.5-17-22.5-17s8.5-3.4,11.9-14.4s-1.3-25.4-7.2-26.7s-12.7,15.3-12.7,22
							c0,6.8-1.3,14.8-1.3,14.8l-17-13.1c0,0-4.2-5.1-13.1-5.1s-13.1,1.7-13.1,8.9s11.4,14,20.3,12.9S229.7,555.1,229.7,555.1z"/>
						<path class="st2" d="M223.7,570.9c0,0-7.3,3.3-9.2,22s-2.2,46.7-2.2,46.7h-5.1c0,0,1.6-40.2,3.2-46.7
							C212.3,584.8,211.3,574.4,223.7,570.9z"/>
						<circle class="st2" cx="195.8" cy="595.9" r="2"/>
						<circle class="st2" cx="184.3" cy="595.9" r="2"/>
						<circle class="st2" cx="191.9" cy="589.7" r="2"/>
						<circle class="st2" cx="192.8" cy="603.3" r="2"/>
						<circle class="st2" cx="201" cy="601.3" r="2"/>
						<circle class="st2" cx="199.7" cy="609.9" r="2"/>
						<circle class="st2" cx="180.4" cy="611.9" r="2"/>
						<circle class="st2" cx="207.2" cy="587.7" r="2"/>
					</g>
					<g>
						<path class="st2" d="M301.4,605.7c0,0,20.2-11.7,22.8-20c2.7-8.3,1.2-32.2-5.5-27.8s-13.6,28.7-17.1,36.5s-6.6,17-7.1,10.8
							s4.4-12.5-0.9-19.2c-5.4-6.6-19.9-10.3-20.8-6.2s2.6,18.6,3.4,19.9s12.7,10.1,12.7,10.1s-22-7.3-28.7-10.6
							c-6.7-3.2-1.6,9.2,2.2,14.2c3.8,5.1,28.1,1.9,28.1,1.9s-5.2,7.5-2,18.6s15,20.6,20.7,18.4c5.7-2.2,2.3-19.7-1.4-25.4
							c-3.7-5.7-7.1-13.1-7.1-13.1l21.4,1.7c0,0,6.3,1.9,13.8-2.9c7.4-4.9,10.1-8.6,6.1-14.6c-3.9-6-17.2-5.4-24.1,0.3
							C310.9,604.1,301.4,605.7,301.4,605.7z"/>
						<path class="st2" d="M297.7,589.3c0,0,4.3-6.8-4.3-23.5s-23.7-40.2-23.7-40.2l4.3-2.8c0,0,20.7,34.5,22.9,40.8
							C299.7,571.5,306.2,579.6,297.7,589.3z"/>
						<circle class="st2" cx="307.4" cy="553.1" r="2"/>
						<circle class="st2" cx="317" cy="546.8" r="2"/>
						<circle class="st2" cx="314.1" cy="556.1" r="2"/>
						<circle class="st2" cx="305.9" cy="545.2" r="2"/>
						<circle class="st2" cx="300.1" cy="551.4" r="2"/>
						<circle class="st2" cx="296.4" cy="543.5" r="2"/>
						<circle class="st2" cx="311.5" cy="531.3" r="2"/>
						<circle class="st2" cx="302.3" cy="566.2" r="2"/>
					</g>
					<g>
						<path class="st2" d="M95.1,462.4c0,0-23.3-1.3-30.1,4.2s-18.6,26.3-10.6,26.3s27.1-16.5,34.3-21.2s14.8-10.6,11.9-5.1
							c-3,5.5-10.6,8.1-9.7,16.5c0.8,8.5,11,19.5,14,16.5s8.1-17,8.1-18.5s-5.1-15.4-5.1-15.4s14.4,18.2,18.2,24.6
							c3.8,6.4,6.4-6.8,5.9-13.1c-0.4-6.4-22.5-17-22.5-17s8.5-3.4,11.9-14.4s-1.3-25.4-7.2-26.7c-5.9-1.3-12.7,15.3-12.7,22
							s-1.3,14.8-1.3,14.8l-17-13.1c0,0-4.2-5.1-13.1-5.1s-13.1,1.8-13.1,9s11.4,14,20.3,12.9S95.1,462.4,95.1,462.4z"/>
						<path class="st2" d="M89.2,478.1c0,0-7.3,3.3-9.2,22c-1.9,18.7-2.2,46.7-2.2,46.7h-5.1c0,0,1.6-40.2,3.2-46.7
							C77.8,492,76.8,481.6,89.2,478.1z"/>
						<circle class="st2" cx="61.3" cy="503.1" r="2"/>
						<circle class="st2" cx="49.8" cy="503.1" r="2"/>
						<circle class="st2" cx="57.3" cy="496.9" r="2"/>
						<circle class="st2" cx="58.2" cy="510.5" r="2"/>
						<circle class="st2" cx="66.4" cy="508.6" r="2"/>
						<circle class="st2" cx="65.2" cy="517.1" r="2"/>
						<circle class="st2" cx="45.8" cy="519.1" r="2"/>
						<circle class="st2" cx="72.7" cy="494.9" r="2"/>
					</g>
					<g>
						<path class="st2" d="M166.8,512.9c0,0,20.2-11.7,22.8-20c2.7-8.3,1.2-32.2-5.5-27.8c-6.7,4.4-13.6,28.7-17.1,36.5
							s-6.6,17-7.1,10.8s4.4-12.5-0.9-19.2c-5.4-6.6-19.9-10.3-20.8-6.2c-0.9,4.1,2.6,18.6,3.4,19.9c0.8,1.2,12.7,10.1,12.7,10.1
							s-22-7.3-28.7-10.6c-6.7-3.2-1.6,9.2,2.2,14.2c3.8,5.1,28.1,1.9,28.1,1.9s-5.2,7.5-2,18.6s15,20.6,20.7,18.4
							c5.7-2.2,2.3-19.7-1.4-25.4s-7.1-13.1-7.1-13.1l21.4,1.7c0,0,6.3,1.9,13.8-2.9c7.4-4.9,10.1-8.6,6.1-14.6
							c-3.9-6-17.2-5.4-24.1,0.3S166.8,512.9,166.8,512.9z"/>
						<path class="st2" d="M163.2,496.5c0,0,4.3-6.8-4.3-23.5s-23.7-40.2-23.7-40.2l4.3-2.8c0,0,20.7,34.5,22.9,40.8
							C165.1,478.7,171.6,486.8,163.2,496.5z"/>
						<circle class="st2" cx="172.8" cy="460.3" r="2"/>
						<circle class="st2" cx="182.4" cy="454" r="2"/>
						<circle class="st2" cx="179.5" cy="463.4" r="2"/>
						<circle class="st2" cx="171.3" cy="452.4" r="2"/>
						<circle class="st2" cx="165.5" cy="458.6" r="2"/>
						<circle class="st2" cx="161.9" cy="450.7" r="2"/>
						<circle class="st2" cx="177" cy="438.5" r="2"/>
						<circle class="st2" cx="167.8" cy="473.4" r="2"/>
					</g>
					<g>
						<path class="st2" d="M347.1,772.3c0,0-23.3-1.3-30.1,4.2c-6.8,5.5-18.6,26.3-10.6,26.3c8.1,0,27.1-16.5,34.3-21.2
							c7.2-4.7,14.8-10.6,11.9-5.1c-3,5.5-10.6,8.1-9.7,16.5c0.8,8.5,11,19.5,14,16.5s8.1-17,8.1-18.5s-5.1-15.4-5.1-15.4
							s14.4,18.2,18.2,24.6c3.8,6.4,6.4-6.8,5.9-13.1c-0.4-6.4-22.5-17-22.5-17s8.5-3.4,11.9-14.4s-1.3-25.4-7.2-26.7
							c-5.9-1.3-12.7,15.3-12.7,22c0,6.8-1.3,14.8-1.3,14.8l-17-13.1c0,0-4.2-5.1-13.1-5.1s-13.1,1.7-13.1,8.9s11.4,14,20.3,12.9
							C338.2,768.5,347.1,772.3,347.1,772.3z"/>
						<path class="st2" d="M341.2,788.1c0,0-7.3,3.3-9.2,22s-2.2,46.7-2.2,46.7h-5.1c0,0,1.6-40.2,3.2-46.7
							C329.8,801.9,328.8,791.6,341.2,788.1z"/>
						<circle class="st2" cx="313.2" cy="813" r="2"/>
						<circle class="st2" cx="301.7" cy="813" r="2"/>
						<circle class="st2" cx="309.3" cy="806.8" r="2"/>
						<circle class="st2" cx="310.2" cy="820.5" r="2"/>
						<circle class="st2" cx="318.4" cy="818.5" r="2"/>
						<circle class="st2" cx="317.2" cy="827" r="2"/>
						<circle class="st2" cx="297.8" cy="829" r="2"/>
						<circle class="st2" cx="324.6" cy="804.9" r="2"/>
					</g>
					<g>
						<path class="st2" d="M418.8,822.9c0,0,20.2-11.7,22.8-20c2.7-8.3,1.2-32.2-5.5-27.8s-13.6,28.7-17.1,36.5s-6.6,17-7.1,10.8
							s4.4-12.5-0.9-19.2c-5.4-6.6-19.9-10.3-20.8-6.2s2.6,18.6,3.4,19.9c0.8,1.2,12.7,10.1,12.7,10.1s-22-7.3-28.7-10.6
							c-6.7-3.2-1.6,9.2,2.2,14.2s28.1,1.9,28.1,1.9s-5.2,7.5-2,18.6s15,20.6,20.7,18.4c5.7-2.2,2.3-19.7-1.4-25.4
							c-3.7-5.7-7.1-13.1-7.1-13.1l21.4,1.7c0,0,6.3,1.9,13.8-2.9c7.4-4.9,10.1-8.6,6.1-14.6c-3.9-6-17.2-5.4-24.1,0.3
							C428.3,821.2,418.8,822.9,418.8,822.9z"/>
						<path class="st2" d="M415.1,806.4c0,0,4.3-6.8-4.3-23.5c-8.6-16.7-23.7-40.2-23.7-40.2l4.3-2.8c0,0,20.7,34.5,22.9,40.8
							C417.1,788.6,423.6,796.7,415.1,806.4z"/>
						<circle class="st2" cx="424.8" cy="770.3" r="2"/>
						<circle class="st2" cx="434.4" cy="764" r="2"/>
						<circle class="st2" cx="431.5" cy="773.3" r="2"/>
						<circle class="st2" cx="423.3" cy="762.4" r="2"/>
						<circle class="st2" cx="417.5" cy="768.5" r="2"/>
						<circle class="st2" cx="413.8" cy="760.7" r="2"/>
						<circle class="st2" cx="428.9" cy="748.4" r="2"/>
						<circle class="st2" cx="419.7" cy="783.3" r="2"/>
					</g>
					<g>
						<path class="st2" d="M212.5,679.5c0,0-23.3-1.3-30.1,4.2S163.8,710,171.8,710c8.1,0,27.1-16.5,34.3-21.2s14.8-10.6,11.9-5.1
							c-3,5.5-10.6,8.1-9.7,16.5s11,19.5,14,16.5s8.1-17,8.1-18.5s-5.1-15.4-5.1-15.4s14.4,18.2,18.2,24.6c3.8,6.4,6.4-6.8,5.9-13.1
							c-0.4-6.4-22.5-17-22.5-17s8.5-3.4,11.9-14.4s-1.3-25.4-7.2-26.7s-12.7,15.3-12.7,22c0,6.8-1.3,14.8-1.3,14.8l-17-13.1
							c0,0-4.2-5.1-13.1-5.1c-8.9,0-13.1,1.7-13.1,8.9s11.4,14,20.3,12.9S212.5,679.5,212.5,679.5z"/>
						<path class="st2" d="M206.6,695.3c0,0-7.3,3.3-9.2,22s-2.2,46.7-2.2,46.7h-5.1c0,0,1.6-40.2,3.2-46.7
							C195.2,709.1,194.2,698.8,206.6,695.3z"/>
						<circle class="st2" cx="178.7" cy="720.2" r="2"/>
						<circle class="st2" cx="167.2" cy="720.2" r="2"/>
						<circle class="st2" cx="174.8" cy="714" r="2"/>
						<circle class="st2" cx="175.6" cy="727.7" r="2"/>
						<circle class="st2" cx="183.8" cy="725.7" r="2"/>
						<circle class="st2" cx="182.6" cy="734.2" r="2"/>
						<circle class="st2" cx="163.3" cy="736.2" r="2"/>
						<circle class="st2" cx="190.1" cy="712.1" r="2"/>
					</g>
					<g>
						<path class="st2" d="M284.3,730.1c0,0,20.2-11.7,22.8-20s1.2-32.2-5.5-27.8S288,711,284.5,718.8s-6.6,17-7.1,10.8
							s4.4-12.5-0.9-19.2c-5.4-6.6-19.9-10.3-20.8-6.2c-0.9,4.1,2.6,18.6,3.4,19.9s12.7,10.1,12.7,10.1s-22-7.3-28.7-10.6
							s-1.6,9.2,2.2,14.2c3.8,5.1,28.1,1.9,28.1,1.9s-5.2,7.5-2,18.6s15,20.6,20.7,18.4s2.3-19.7-1.4-25.4
							c-3.7-5.7-7.1-13.1-7.1-13.1l21.4,1.7c0,0,6.3,1.9,13.8-2.9c7.4-4.9,10.1-8.6,6.1-14.6s-17.2-5.4-24.1,0.3
							C293.8,728.4,284.3,730.1,284.3,730.1z"/>
						<path class="st2" d="M280.6,713.6c0,0,4.3-6.8-4.3-23.5s-23.7-40.2-23.7-40.2l4.3-2.8c0,0,20.7,34.5,22.9,40.8
							C282.5,695.8,289,703.9,280.6,713.6z"/>
						<circle class="st2" cx="290.2" cy="677.5" r="2"/>
						<circle class="st2" cx="299.9" cy="671.2" r="2"/>
						<circle class="st2" cx="296.9" cy="680.5" r="2"/>
						<circle class="st2" cx="288.7" cy="669.6" r="2"/>
						<circle class="st2" cx="283" cy="675.7" r="2"/>
						<circle class="st2" cx="279.3" cy="667.9" r="2"/>
						<circle class="st2" cx="294.4" cy="655.7" r="2"/>
						<circle class="st2" cx="285.2" cy="690.5" r="2"/>
					</g>
					<g>
						<path class="st2" d="M78,586.7c0,0-23.3-1.3-30.1,4.2s-18.6,26.3-10.6,26.3s27.1-16.5,34.3-21.2c7.2-4.7,14.8-10.6,11.9-5.1
							c-3,5.5-10.6,8.1-9.7,16.5c0.8,8.5,11,19.5,14,16.5s8.1-17,8.1-18.5S90.8,590,90.8,590s14.4,18.2,18.2,24.6
							c3.8,6.4,6.4-6.8,5.9-13.1c-0.4-6.4-22.5-17-22.5-17s8.5-3.4,11.9-14.4s-1.3-25.4-7.2-26.7c-5.9-1.3-12.7,15.3-12.7,22
							c0,6.8-1.3,14.8-1.3,14.8l-17-13.1c0,0-4.2-5.1-13.1-5.1s-13.1,1.7-13.1,8.9s11.4,14,20.3,12.9S78,586.7,78,586.7z"/>
						<path class="st2" d="M72,602.5c0,0-7.3,3.3-9.2,22c-1.9,18.7-2.2,46.7-2.2,46.7h-5.1c0,0,1.6-40.2,3.2-46.7
							C60.6,616.3,59.6,606,72,602.5z"/>
						<circle class="st2" cx="44.1" cy="627.4" r="2"/>
						<circle class="st2" cx="32.6" cy="627.4" r="2"/>
						<circle class="st2" cx="40.2" cy="621.2" r="2"/>
						<circle class="st2" cx="41.1" cy="634.9" r="2"/>
						<circle class="st2" cx="49.3" cy="632.9" r="2"/>
						<circle class="st2" cx="48" cy="641.4" r="2"/>
						<circle class="st2" cx="28.7" cy="643.4" r="2"/>
						<circle class="st2" cx="55.5" cy="619.3" r="2"/>
					</g>
					<g>
						<path class="st2" d="M149.7,637.3c0,0,20.2-11.7,22.8-20s1.2-32.2-5.5-27.8s-13.6,28.7-17.1,36.5s-6.6,17-7.1,10.8
							s4.4-12.5-0.9-19.2s-19.9-10.3-20.8-6.2s2.6,18.6,3.4,19.9s12.7,10.1,12.7,10.1s-22-7.3-28.7-10.6s-1.6,9.2,2.2,14.2
							c3.8,5.1,28.1,1.9,28.1,1.9s-5.2,7.5-2,18.6s15,20.6,20.7,18.4c5.7-2.2,2.3-19.7-1.4-25.4s-7.1-13.1-7.1-13.1l21.4,1.7
							c0,0,6.3,1.9,13.8-2.9c7.4-4.9,10.1-8.6,6.1-14.6c-3.9-6-17.2-5.4-24.1,0.3C159.2,635.6,149.7,637.3,149.7,637.3z"/>
						<path class="st2" d="M146,620.8c0,0,4.3-6.8-4.3-23.5S118,557.1,118,557.1l4.3-2.8c0,0,20.7,34.5,22.9,40.8
							C148,603,154.5,611.1,146,620.8z"/>
						<circle class="st2" cx="155.7" cy="584.7" r="2"/>
						<circle class="st2" cx="165.3" cy="578.4" r="2"/>
						<circle class="st2" cx="162.4" cy="587.7" r="2"/>
						<circle class="st2" cx="154.2" cy="576.8" r="2"/>
						<circle class="st2" cx="148.4" cy="582.9" r="2"/>
						<circle class="st2" cx="144.7" cy="575.1" r="2"/>
						<circle class="st2" cx="159.8" cy="562.9" r="2"/>
						<circle class="st2" cx="150.6" cy="597.7" r="2"/>
					</g>
				</g>
			</g>
		</g>
	</g>
	<g>
		<path class="st3" d="M314.3,542.5c-23.3,0-63.1-12.9-67.9-14.5c-3.6,9.5-6.8,19.4-8.3,27.1c-1.6,8.4-1.1,22,1,36
			c0,0,0.1,0,0.1-0.1c31.1-4.4,58.9,12.6,63.7,15.8c0.2-5.4,0.4-9.4,0.4-9.5c0-0.2,0.1-0.4,0.3-0.4c0.1-0.1,0.3,0,0.4,0
			s0.6,0.1,2.7-0.1c0.1,0,0.3,0,0.4,0.1s0.2,0.2,0.1,0.4c-0.3,5.2-0.3,10-0.2,14.5c5-3.9,33.3-24.7,60.8-20.1
			c0.6-18.6,0.4-34.5,0.2-41.8c-0.2-5.7-0.7-11.9-1.5-18C362.8,533.7,341.7,542.5,314.3,542.5L314.3,542.5z"/>
		<path d="M367.8,592.8"/>
		<line class="st3" x1="368.8" y1="593" x2="367.8" y2="592.8"/>
	</g>
	<g>
		<path class="st3" d="M314.3,542.5c-23.3,0-63.1-12.9-67.9-14.5c-3.6,9.5-6.8,19.4-8.3,27.1c-1.6,8.4-1.1,22,1,36
			c0,0,0.1,0,0.1-0.1c31.1-4.4,58.9,12.6,63.7,15.8c0.2-5.4,0.4-9.4,0.4-9.5c0-0.2,0.1-0.4,0.3-0.4c0.1-0.1,0.3,0,0.4,0
			s0.6,0.1,2.7-0.1c0.1,0,0.3,0,0.4,0.1s0.2,0.2,0.1,0.4c-0.3,5.2-0.3,10-0.2,14.5c5-3.9,33.3-24.7,60.8-20.1
			c0.6-18.6,0.4-34.5,0.2-41.8c-0.2-5.7-0.7-11.9-1.5-18C362.8,533.7,341.7,542.5,314.3,542.5L314.3,542.5z"/>
	</g>
	<g>
		<path class="st3" d="M314.3,542.5c-23.3,0-63.1-12.9-67.9-14.5c-3.6,9.5-6.8,19.4-8.3,27.1c-1.6,8.4-1.1,22,1,36
			c0,0,0.1,0,0.1-0.1c31.1-4.4,58.9,12.6,63.7,15.8c0.2-5.4,0.4-9.4,0.4-9.5c0-0.2,0.1-0.4,0.3-0.4c0.1-0.1,0.3,0,0.4,0
			s0.6,0.1,2.7-0.1c0.1,0,0.3,0,0.4,0.1s0.2,0.2,0.1,0.4c-0.3,5.2-0.3,10-0.2,14.5c5-3.9,33.3-24.7,60.8-20.1
			c0.6-18.6,0.4-34.5,0.2-41.8c-0.2-5.7-0.7-11.9-1.5-18C362.8,533.7,341.7,542.5,314.3,542.5L314.3,542.5z"/>
	</g>
	<g>
		<path class="st3" d="M239.2,592.1L239.2,592.1L239.2,592.1C239.3,592.1,239.2,592.1,239.2,592.1z"/>
		<path class="st3" d="M314.3,542.5c-23.3,0-63.1-12.9-67.9-14.5c-3.6,9.5-6.8,19.4-8.3,27.1c-1.6,8.4-1.1,22,1,36
			c0,0,0.1,0,0.1-0.1c31.1-4.4,58.9,12.6,63.7,15.8c0.2-5.4,0.4-9.4,0.4-9.5c0-0.2,0.1-0.4,0.3-0.4c0.1-0.1,0.3,0,0.4,0
			s0.6,0.1,2.7-0.1c0.1,0,0.3,0,0.4,0.1s0.2,0.2,0.1,0.4c-0.3,5.2-0.3,10-0.2,14.5c5-3.9,33.3-24.7,60.8-20.1
			c0.6-18.6,0.4-34.5,0.2-41.8c-0.2-5.7-0.7-11.9-1.5-18C362.8,533.7,341.7,542.5,314.3,542.5L314.3,542.5z"/>
		<path d="M239.3,592.1L239.3,592.1c0.2,0,0.3,0,0.5,0l0,0H239.3z"/>
	</g>
	<g>
		<path class="st3" d="M314.3,542.5c-23.3,0-63.1-12.9-67.9-14.5c-3.6,9.5-6.8,19.4-8.3,27.1c-1.6,8.4-1.1,22,1,36
			c0,0,0.1,0,0.1-0.1c31.1-4.4,58.9,12.6,63.7,15.8c0.2-5.4,0.4-9.4,0.4-9.5c0-0.2,0.1-0.4,0.3-0.4c0.1-0.1,0.3,0,0.4,0
			s0.6,0.1,2.7-0.1c0.1,0,0.3,0,0.4,0.1s0.2,0.2,0.1,0.4c-0.3,5.2-0.3,10-0.2,14.5c5-3.9,33.3-24.7,60.8-20.1
			c0.6-18.6,0.4-34.5,0.2-41.8c-0.2-5.7-0.7-11.9-1.5-18C362.8,533.7,341.7,542.5,314.3,542.5L314.3,542.5z"/>
		<g>
			<path class="st3" d="M314.3,542.5c-23.3,0-63.1-12.9-67.9-14.5c-3.6,9.5-6.8,19.4-8.3,27.1c-1.6,8.4-1.1,22,1,36
				c0,0,0.1,0,0.1-0.1c31.1-4.4,58.9,12.6,63.7,15.8c0.2-5.4,0.4-9.4,0.4-9.5c0-0.2,0.1-0.4,0.3-0.4c0.1-0.1,0.3,0,0.4,0
				s0.6,0.1,2.7-0.1c0.1,0,0.3,0,0.4,0.1s0.2,0.2,0.1,0.4c-0.3,5.2-0.3,10-0.2,14.5c5-3.9,33.3-24.7,60.8-20.1
				c0.6-18.6,0.4-34.5,0.2-41.8c-0.2-5.7-0.7-11.9-1.5-18C362.8,533.7,341.7,542.5,314.3,542.5L314.3,542.5z"/>
			<path d="M246.8,527.1"/>
		</g>
	</g>
	<g>
		<path class="st3" d="M314.3,542.5c-23.3,0-63.1-12.9-67.9-14.5c-3.6,9.5-6.8,19.4-8.3,27.1c-1.6,8.4-1.1,22,1,36
			c0,0,0.1,0,0.1-0.1c31.1-4.4,58.9,12.6,63.7,15.8c0.2-5.4,0.4-9.4,0.4-9.5c0-0.2,0.1-0.4,0.3-0.4c0.1-0.1,0.3,0,0.4,0
			s0.6,0.1,2.7-0.1c0.1,0,0.3,0,0.4,0.1s0.2,0.2,0.1,0.4c-0.3,5.2-0.3,10-0.2,14.5c5-3.9,33.3-24.7,60.8-20.1
			c0.6-18.6,0.4-34.5,0.2-41.8c-0.2-5.7-0.7-11.9-1.5-18C362.8,533.7,341.7,542.5,314.3,542.5L314.3,542.5z"/>
		<path d="M314.3,541.5c-23.1,0-62.6-12.8-67.5-14.4l-1-0.3c-3.7,9.7-7.1,20.1-8.7,28.1c-1.7,8.6-1,22.8,1.1,37.3l1-0.1l0,0h0.1
			l0.5-0.1l0,0c32-4.4,60.5,14.2,63.1,16l1,0.6c0.2-5.1,0.4-9.2,0.4-10.7c0.4,0,1,0,1.9,0c-0.3,5.4-0.3,10.4-0.1,14.9
			c0,0.1,0,0.1,0,0.2c0,0.3,0,0.6,0,0.9l1-0.7c2.6-2.1,32.1-25.2,60.7-20.3l1,0.2c0.6-19.1,0.5-35.6,0.3-43
			c-0.2-6.1-0.8-12.8-1.7-19.4l-1,0.3C363.7,532.2,342.3,541.5,314.3,541.5z M368.1,550c0.2,7.3,0.3,23.2-0.2,41.8
			c-27.5-4.6-55.7,16.2-60.8,20.1c-0.1-4.4-0.1-9.2,0.2-14.5c0-0.1,0-0.3-0.1-0.4c-0.1-0.1-0.2-0.2-0.4-0.1c-2,0.2-2.6,0.1-2.7,0.1
			c-0.1-0.1-0.3-0.1-0.4,0c-0.2,0.1-0.3,0.2-0.3,0.4c0,0.1-0.2,4.1-0.4,9.5c-4.8-3.2-32.7-20.2-63.7-15.8c-0.1,0-0.1,0-0.1,0.1
			c-2.1-14-2.6-27.6-1-36c1.5-7.7,4.7-17.6,8.3-27.1c4.7,1.6,44.5,14.5,67.9,14.5l0,0c27.4,0,48.5-8.9,52.3-10.6
			C367.4,538.1,367.9,544.3,368.1,550z"/>
	</g>
</g>
</svg>
