<?xml version="1.0" encoding="utf-8"?>
<!-- Generator: Adobe Illustrator 27.0.0, SVG Export Plug-In . SVG Version: 6.00 Build 0)  -->
<svg version="1.1" id="Layer_1" xmlns="http://www.w3.org/2000/svg" xmlns:xlink="http://www.w3.org/1999/xlink" x="0px" y="0px"
	 viewBox="0 0 600 1200" style="enable-background:new 0 0 600 1200;" xml:space="preserve">
<style type="text/css">
	.st0{fill:#7F374F;}
	.st1{clip-path:url(#SVGID_00000081624508277517995120000001621117686329813392_);}
	.st2{opacity:0.5;fill:#FFFFFF;}
	.st3{clip-path:url(#SVGID_00000179614073361819810410000008139984348045044641_);}
</style>
<g>
	<g>
		<path class="st0" d="M243.9,531.8c0,0,16.8-2.4,28.2,8c9.6,8.8,28,17.8,38.1,18c7.5,0.2,11,1.2,25.3-6.4
			c12.5-6.6,23.8-6.1,32.4-6.8l0.2,5c-23.3-1-47.2,33.9-52.5,41.1c-5.4,7.2-9.1,6.3-9.1,6.3h-3c-2.4,0.2-26.3-43.9-37.9-53.4
			c-11.6-9.5-23.4-7.3-23.4-7.3L243.9,531.8z"/>
		<path d="M306.9,597.7c-0.2,0-0.4,0-0.5,0h-2.9c-1.1,0.1-3.3-3.2-11.6-16.5c-8.3-13.3-19.7-31.4-26.5-37c-11.2-9.2-22.9-7.2-23-7.2
			c-0.2,0-0.4,0-0.5-0.2c-0.1-0.1-0.2-0.3-0.1-0.5l1.6-4.6c0.1-0.2,0.2-0.3,0.4-0.3c0.2,0,17.2-2.3,28.6,8.2
			c9.9,9,28.2,17.7,37.8,17.9c0.8,0,1.5,0,2.2,0.1c6.1,0.2,10.1,0.3,22.9-6.4c10.5-5.6,20.3-6.1,28.1-6.6c1.6-0.1,3.1-0.2,4.5-0.3
			c0.1,0,0.3,0,0.4,0.1s0.2,0.2,0.2,0.4l0.2,5c0,0.1,0,0.3-0.1,0.4c-0.1,0.1-0.2,0.2-0.4,0.1c-21.7-0.9-43.7,29.4-50.9,39.3
			c-0.4,0.6-0.8,1.1-1.2,1.6C311.7,597.1,308.2,597.7,306.9,597.7z M306.5,596.7c0,0,0.1,0,0.1,0c0,0,3.6,0.7,8.6-6.1
			c0.3-0.4,0.7-1,1.1-1.6c7.3-10,29.2-40.2,51.2-39.8l-0.2-4c-1.3,0.1-2.6,0.2-4,0.3c-7.7,0.4-17.3,1-27.7,6.4
			c-13,6.9-17.1,6.7-23.4,6.5c-0.7,0-1.4,0-2.2-0.1c-9.9-0.2-28.2-8.8-38.4-18.1c-10.3-9.4-25.2-8.2-27.5-7.9l-1.3,3.6
			c2.9-0.3,13.1-0.6,23,7.5c7,5.7,18.4,24,26.8,37.3c4.8,7.7,9.8,15.6,10.8,16L306.5,596.7z"/>
	</g>
	<g>
		<defs>
			<path id="SVGID_1_" d="M243.9,531.8c0,0,16.8-2.4,28.2,8c9.6,8.8,28,17.8,38.1,18c7.5,0.2,11,1.2,25.3-6.4
				c12.5-6.6,23.8-6.1,32.4-6.8l0.2,5c-23.3-1-47.2,33.9-52.5,41.1c-5.4,7.2-9.1,6.3-9.1,6.3h-3c-2.4,0.2-26.3-43.9-37.9-53.4
				c-11.6-9.5-23.4-7.3-23.4-7.3L243.9,531.8z"/>
		</defs>
		<clipPath id="SVGID_00000070831222554355946710000010933775279014149820_">
			<use xlink:href="#SVGID_1_"  style="overflow:visible;"/>
		</clipPath>
		<g style="clip-path:url(#SVGID_00000070831222554355946710000010933775279014149820_);">
			<rect x="176.9" y="434.3" class="st2" width="229.8" height="2.4"/>
			<rect x="176.9" y="439.1" class="st2" width="229.8" height="2.4"/>
			<rect x="176.9" y="443.9" class="st2" width="229.8" height="2.4"/>
			<rect x="176.9" y="448.8" class="st2" width="229.8" height="2.4"/>
			<rect x="176.9" y="453.6" class="st2" width="229.8" height="2.4"/>
			<rect x="176.9" y="458.5" class="st2" width="229.8" height="2.4"/>
			<rect x="176.9" y="463.3" class="st2" width="229.8" height="2.4"/>
			<rect x="176.9" y="468.2" class="st2" width="229.8" height="2.4"/>
			<rect x="176.9" y="473" class="st2" width="229.8" height="2.4"/>
			<rect x="176.9" y="477.8" class="st2" width="229.8" height="2.4"/>
			<rect x="176.9" y="482.7" class="st2" width="229.8" height="2.4"/>
			<rect x="176.9" y="487.5" class="st2" width="229.8" height="2.4"/>
			<rect x="176.9" y="492.4" class="st2" width="229.8" height="2.4"/>
			<rect x="176.9" y="497.2" class="st2" width="229.8" height="2.4"/>
			<rect x="176.9" y="502.1" class="st2" width="229.8" height="2.4"/>
			<rect x="176.9" y="506.9" class="st2" width="229.8" height="2.4"/>
			<rect x="176.9" y="511.7" class="st2" width="229.8" height="2.4"/>
			<rect x="176.9" y="516.6" class="st2" width="229.8" height="2.4"/>
			<rect x="176.9" y="521.4" class="st2" width="229.8" height="2.4"/>
			<rect x="176.9" y="526.3" class="st2" width="229.8" height="2.4"/>
			<rect x="176.9" y="531.1" class="st2" width="229.8" height="2.4"/>
			<rect x="176.9" y="536" class="st2" width="229.8" height="2.4"/>
			<rect x="176.9" y="540.8" class="st2" width="229.8" height="2.4"/>
			<rect x="176.9" y="545.6" class="st2" width="229.8" height="2.4"/>
			<rect x="176.9" y="550.5" class="st2" width="229.8" height="2.4"/>
			<rect x="176.9" y="555.3" class="st2" width="229.8" height="2.4"/>
			<rect x="176.9" y="560.2" class="st2" width="229.8" height="2.4"/>
			<rect x="176.9" y="565" class="st2" width="229.8" height="2.4"/>
			<rect x="176.9" y="569.9" class="st2" width="229.8" height="2.4"/>
			<rect x="176.9" y="574.7" class="st2" width="229.8" height="2.4"/>
			<rect x="176.9" y="579.5" class="st2" width="229.8" height="2.4"/>
			<rect x="176.9" y="584.4" class="st2" width="229.8" height="2.4"/>
			<rect x="176.9" y="589.2" class="st2" width="229.8" height="2.4"/>
			<rect x="176.9" y="594.1" class="st2" width="229.8" height="2.4"/>
			<rect x="176.9" y="598.9" class="st2" width="229.8" height="2.4"/>
			<rect x="176.9" y="603.8" class="st2" width="229.8" height="2.4"/>
			<rect x="176.9" y="608.6" class="st2" width="229.8" height="2.4"/>
			<rect x="176.9" y="613.5" class="st2" width="229.8" height="2.4"/>
			<rect x="176.9" y="618.3" class="st2" width="229.8" height="2.4"/>
			<rect x="176.9" y="623.1" class="st2" width="229.8" height="2.4"/>
			<rect x="176.9" y="628" class="st2" width="229.8" height="2.4"/>
			
				<rect x="273.7" y="531.1" transform="matrix(-1.836970e-16 1 -1 -1.836970e-16 920.9227 143.6785)" class="st2" width="229.8" height="2.4"/>
			
				<rect x="268.9" y="531.1" transform="matrix(-1.836970e-16 1 -1 -1.836970e-16 916.0796 148.5216)" class="st2" width="229.8" height="2.4"/>
			
				<rect x="264.1" y="531.1" transform="matrix(-1.836970e-16 1 -1 -1.836970e-16 911.2365 153.3648)" class="st2" width="229.8" height="2.4"/>
			
				<rect x="259.2" y="531.1" transform="matrix(-1.836970e-16 1 -1 -1.836970e-16 906.3933 158.2079)" class="st2" width="229.8" height="2.4"/>
			
				<rect x="254.4" y="531.1" transform="matrix(-1.836970e-16 1 -1 -1.836970e-16 901.5502 163.0511)" class="st2" width="229.8" height="2.4"/>
			
				<rect x="249.5" y="531.1" transform="matrix(-1.836970e-16 1 -1 -1.836970e-16 896.707 167.8942)" class="st2" width="229.8" height="2.4"/>
			
				<rect x="244.7" y="531.1" transform="matrix(-1.836970e-16 1 -1 -1.836970e-16 891.8639 172.7373)" class="st2" width="229.8" height="2.4"/>
			
				<rect x="239.8" y="531.1" transform="matrix(-1.836970e-16 1 -1 -1.836970e-16 887.0208 177.5805)" class="st2" width="229.8" height="2.4"/>
			
				<rect x="235" y="531.1" transform="matrix(-1.836970e-16 1 -1 -1.836970e-16 882.1776 182.4236)" class="st2" width="229.8" height="2.4"/>
			
				<rect x="230.1" y="531.1" transform="matrix(-1.836970e-16 1 -1 -1.836970e-16 877.3345 187.2668)" class="st2" width="229.8" height="2.4"/>
			
				<rect x="225.3" y="531.1" transform="matrix(-1.836970e-16 1 -1 -1.836970e-16 872.4913 192.1099)" class="st2" width="229.8" height="2.4"/>
			
				<rect x="220.5" y="531.1" transform="matrix(-1.836970e-16 1 -1 -1.836970e-16 867.6482 196.953)" class="st2" width="229.8" height="2.4"/>
			
				<rect x="215.6" y="531.1" transform="matrix(-1.836970e-16 1 -1 -1.836970e-16 862.8051 201.7962)" class="st2" width="229.8" height="2.4"/>
			
				<rect x="210.8" y="531.1" transform="matrix(-1.836970e-16 1 -1 -1.836970e-16 857.9619 206.6393)" class="st2" width="229.8" height="2.4"/>
			
				<rect x="205.9" y="531.1" transform="matrix(-1.836970e-16 1 -1 -1.836970e-16 853.1188 211.4825)" class="st2" width="229.8" height="2.4"/>
			
				<rect x="201.1" y="531.1" transform="matrix(-1.836970e-16 1 -1 -1.836970e-16 848.2756 216.3256)" class="st2" width="229.8" height="2.4"/>
			
				<rect x="196.2" y="531.1" transform="matrix(-1.836970e-16 1 -1 -1.836970e-16 843.4325 221.1687)" class="st2" width="229.8" height="2.4"/>
			
				<rect x="191.4" y="531.1" transform="matrix(-1.836970e-16 1 -1 -1.836970e-16 838.5894 226.0119)" class="st2" width="229.8" height="2.4"/>
			
				<rect x="186.6" y="531.1" transform="matrix(-1.836970e-16 1 -1 -1.836970e-16 833.7462 230.855)" class="st2" width="229.8" height="2.4"/>
			
				<rect x="181.7" y="531.1" transform="matrix(-1.836970e-16 1 -1 -1.836970e-16 828.9031 235.6982)" class="st2" width="229.8" height="2.4"/>
			
				<rect x="176.9" y="531.1" transform="matrix(-1.836970e-16 1 -1 -1.836970e-16 824.0599 240.5413)" class="st2" width="229.8" height="2.4"/>
			
				<rect x="172" y="531.1" transform="matrix(-1.836970e-16 1 -1 -1.836970e-16 819.2168 245.3844)" class="st2" width="229.8" height="2.4"/>
			
				<rect x="167.2" y="531.1" transform="matrix(-1.836970e-16 1 -1 -1.836970e-16 814.3737 250.2276)" class="st2" width="229.8" height="2.4"/>
			
				<rect x="162.3" y="531.1" transform="matrix(-1.836970e-16 1 -1 -1.836970e-16 809.5305 255.0707)" class="st2" width="229.8" height="2.4"/>
			
				<rect x="157.5" y="531.1" transform="matrix(-1.836970e-16 1 -1 -1.836970e-16 804.6874 259.9138)" class="st2" width="229.8" height="2.4"/>
			
				<rect x="152.7" y="531.1" transform="matrix(-1.836970e-16 1 -1 -1.836970e-16 799.8442 264.757)" class="st2" width="229.8" height="2.4"/>
			
				<rect x="147.8" y="531.1" transform="matrix(-1.836970e-16 1 -1 -1.836970e-16 795.0011 269.6001)" class="st2" width="229.8" height="2.4"/>
			
				<rect x="143" y="531.1" transform="matrix(-1.836970e-16 1 -1 -1.836970e-16 790.158 274.4433)" class="st2" width="229.8" height="2.4"/>
			
				<rect x="138.1" y="531.1" transform="matrix(-1.836970e-16 1 -1 -1.836970e-16 785.3148 279.2864)" class="st2" width="229.8" height="2.4"/>
			
				<rect x="133.3" y="531.1" transform="matrix(-1.836970e-16 1 -1 -1.836970e-16 780.4717 284.1295)" class="st2" width="229.8" height="2.4"/>
			
				<rect x="128.4" y="531.1" transform="matrix(-1.836970e-16 1 -1 -1.836970e-16 775.6285 288.9727)" class="st2" width="229.8" height="2.4"/>
			
				<rect x="123.6" y="531.1" transform="matrix(-1.836970e-16 1 -1 -1.836970e-16 770.7854 293.8158)" class="st2" width="229.8" height="2.4"/>
			
				<rect x="118.8" y="531.1" transform="matrix(-1.836970e-16 1 -1 -1.836970e-16 765.9423 298.659)" class="st2" width="229.8" height="2.4"/>
			
				<rect x="113.9" y="531.1" transform="matrix(-1.836970e-16 1 -1 -1.836970e-16 761.0991 303.5021)" class="st2" width="229.8" height="2.4"/>
			
				<rect x="109.1" y="531.1" transform="matrix(-1.836970e-16 1 -1 -1.836970e-16 756.256 308.3452)" class="st2" width="229.8" height="2.4"/>
			
				<rect x="104.2" y="531.1" transform="matrix(-1.836970e-16 1 -1 -1.836970e-16 751.4128 313.1884)" class="st2" width="229.8" height="2.4"/>
			
				<rect x="99.4" y="531.1" transform="matrix(-1.836970e-16 1 -1 -1.836970e-16 746.5697 318.0315)" class="st2" width="229.8" height="2.4"/>
			
				<rect x="94.5" y="531.1" transform="matrix(-1.836970e-16 1 -1 -1.836970e-16 741.7266 322.8746)" class="st2" width="229.8" height="2.4"/>
			
				<rect x="89.7" y="531.1" transform="matrix(-1.836970e-16 1 -1 -1.836970e-16 736.8834 327.7178)" class="st2" width="229.8" height="2.4"/>
			
				<rect x="84.9" y="531.1" transform="matrix(-1.836970e-16 1 -1 -1.836970e-16 732.0403 332.5609)" class="st2" width="229.8" height="2.4"/>
			
				<rect x="80" y="531.1" transform="matrix(-1.836970e-16 1 -1 -1.836970e-16 727.1971 337.4041)" class="st2" width="229.8" height="2.4"/>
		</g>
	</g>
	<path d="M306.9,597.7c-0.2,0-0.4,0-0.5,0h-2.9c-1.1,0.1-3.3-3.2-11.6-16.5c-8.3-13.3-19.7-31.4-26.5-37c-11.2-9.2-22.9-7.2-23-7.2
		c-0.2,0-0.4,0-0.5-0.2c-0.1-0.1-0.2-0.3-0.1-0.5l1.6-4.6c0.1-0.2,0.2-0.3,0.4-0.3c0.2,0,17.2-2.3,28.6,8.2
		c9.9,9,28.2,17.7,37.8,17.9c0.8,0,1.5,0,2.2,0.1c6.1,0.2,10.1,0.3,22.9-6.4c10.5-5.6,20.3-6.1,28.1-6.6c1.6-0.1,3.1-0.2,4.5-0.3
		c0.1,0,0.3,0,0.4,0.1s0.2,0.2,0.2,0.4l0.2,5c0,0.1,0,0.3-0.1,0.4c-0.1,0.1-0.2,0.2-0.4,0.1c-21.7-0.9-43.7,29.4-50.9,39.3
		c-0.4,0.6-0.8,1.1-1.2,1.6C311.7,597.1,308.2,597.7,306.9,597.7z M306.5,596.7c0,0,0.1,0,0.1,0c0,0,3.6,0.7,8.6-6.1
		c0.3-0.4,0.7-1,1.1-1.6c7.3-10,29.2-40.2,51.2-39.8l-0.2-4c-1.3,0.1-2.6,0.2-4,0.3c-7.7,0.4-17.3,1-27.7,6.4
		c-13,6.9-17.1,6.7-23.4,6.5c-0.7,0-1.4,0-2.2-0.1c-9.9-0.2-28.2-8.8-38.4-18.1c-10.3-9.4-25.2-8.2-27.5-7.9l-1.3,3.6
		c2.9-0.3,13.1-0.6,23,7.5c7,5.7,18.4,24,26.8,37.3c4.8,7.7,9.8,15.6,10.8,16L306.5,596.7z"/>
	<g>
		<path class="st0" d="M252.5,513.9c-6.1-1.7-9,1.7-6.3,6.1c1.5,2.5,3.8,6.3,5.5,9.2c-0.8,0.3-1.6,1-1.7,2.5c-0.1,1-0.7,4.1-1.4,8.5
			c-0.2,0.2-0.5,0.6-0.8,1l1.4-4.7c0,0-4.1-1.9-7.4-0.9c-2.7,0.8-4.4,4-6.6,8.5c-4.7,9.8-3.2,17.9,0.1,17.8c2-0.1,4.1-0.8,5.5-1.3
			c-2.2,6.2-4.9,12.5-4.9,15.8c0,5,2.7,8.5,0.6,18.6c-1,4.8-0.4,4.9-0.4,4.9h3.1c0,0,0.7-8.5,1.4-13.4s-0.9-4.3-0.7-9.9
			c0.2-5.6,5.2-19.7,5.7-22.2c0.3-1.4,0.9-3.4,1.5-5c-1.2,8.5-2.3,18.8-1.8,27.7c1,18.3,5.6,23.4,5.6,23.4h3.1
			c0,0-5.2-23.1-5.3-29.8c0-6.6,3.3-32.1,3.8-34.4c0.4-2.3,3-4.7,3-4.7l-0.2-0.2l0.7-1C256,530.5,258.6,515.6,252.5,513.9z
			 M234.7,557.7c-1.5-2.5,1.3-8.4,4.5-14.6c3.2-6.2,6.2-2,6.2-2l1.4,1.5c-1.2,1.9-2.6,4.9-3.4,9c-0.3,1.9-0.9,3.9-1.6,6.1
			C240.1,558.7,236,559.9,234.7,557.7z M251.2,516c2.2,0.4,2.2,11.4,2.2,11.4v1.1c0,0-0.5-5.2-2.9-7.8
			C248.2,518,249,515.6,251.2,516z"/>
		<path d="M254,601h-3.1c-0.1,0-0.3-0.1-0.4-0.2c-0.2-0.2-4.8-5.5-5.8-23.8c-0.3-5.9,0-13,1-21.2c-0.3,1-0.7,2.2-1.1,3.7
			c-1.6,5.3-4.1,13.3-4.2,17.1c-0.1,2.6,0.2,3.8,0.5,4.9c0.3,1.3,0.6,2.4,0.2,5.1c-0.7,4.8-1.4,13.3-1.4,13.3c0,0.3-0.2,0.5-0.5,0.5
			h-3.1c-0.2,0-0.4-0.1-0.5-0.3c-0.2-0.2-0.6-0.8,0.4-5.2c1.4-6.7,0.7-10.4,0-13.7c-0.3-1.6-0.6-3.1-0.6-4.8c0-2.7,1.7-7.2,3.5-12
			c0.4-1,0.7-1.9,1.1-2.9c-1.4,0.5-3,0.9-4.6,1c-0.9,0-1.8-0.5-2.4-1.4c-1.8-2.8-1.8-9.6,1.9-17.1c2.2-4.6,4-7.9,6.9-8.8
			c2.8-0.8,6,0.2,7.2,0.7c0.4-2.1,0.6-3.5,0.7-4.2c0.1-1.5,0.8-2.3,1.5-2.7c-1.6-2.8-3.8-6.4-5.2-8.8c-1.3-2.1-1.4-4.2-0.3-5.6
			c1.3-1.7,4-2.1,7.2-1.2l0,0c6.4,1.8,3.9,16.5,3.8,17.2c0,0.1,0,0.1-0.1,0.2l-0.5,0.7c0.1,0.2,0.1,0.4-0.1,0.6c0,0-2.4,2.4-2.8,4.4
			c-0.4,2.2-3.8,27.6-3.8,34.3c0,6.5,5.2,29.4,5.2,29.7c0,0.1,0,0.3-0.1,0.4C254.3,601,254.1,601,254,601z M251.1,600h2.2
			c-0.8-3.8-5.1-23.2-5.1-29.3c-0.1-6.7,3.4-32.3,3.8-34.5c0.4-1.9,2.1-3.9,2.8-4.7c-0.1-0.2,0-0.3,0.1-0.5l0.6-0.9
			c0.2-1.4,2.2-14.4-3.1-15.9c-2.8-0.8-5.1-0.5-6.1,0.9c-0.8,1.1-0.7,2.7,0.4,4.5c1.5,2.5,3.8,6.4,5.5,9.2c0.1,0.1,0.1,0.3,0,0.4
			c0,0.1-0.2,0.2-0.3,0.3c-0.8,0.3-1.3,1-1.4,2.1c-0.1,0.7-0.4,2.4-0.8,4.9c-0.2,1.1-0.4,2.3-0.6,3.6c0,0.1-0.1,0.2-0.1,0.2
			c-0.2,0.2-0.5,0.5-0.8,1c-0.1,0.2-0.4,0.3-0.6,0.1c-0.2-0.1-0.3-0.4-0.3-0.6l1.3-4.3c-1.1-0.4-4.1-1.5-6.6-0.7
			c-2.5,0.8-4.2,3.9-6.3,8.3c-3.5,7.2-3.6,13.6-1.9,16.1c0.4,0.7,1,1,1.5,1c1.9-0.1,4-0.7,5.3-1.3c0.2-0.1,0.4,0,0.5,0.1
			c0.1,0.1,0.2,0.3,0.1,0.5c-0.5,1.3-1,2.6-1.5,3.9c-1.8,4.7-3.4,9.2-3.4,11.7c0,1.6,0.3,3.1,0.6,4.6c0.7,3.4,1.4,7.2,0,14.1
			c-0.6,2.8-0.6,3.9-0.5,4.3l2.3,0c0.2-1.8,0.8-8.8,1.4-12.9c0.4-2.5,0.1-3.4-0.2-4.7c-0.3-1.1-0.6-2.4-0.5-5.2
			c0.1-3.9,2.6-12,4.3-17.3c0.7-2.4,1.3-4.2,1.5-5c0.2-1.1,0.7-2.9,1.5-5.1c0.1-0.2,0.3-0.4,0.6-0.3c0.3,0.1,0.4,0.3,0.4,0.6
			c-1.6,11-2.2,20.3-1.8,27.6C246.6,593.2,250.4,599,251.1,600z M237.3,559.5c-1.3,0-2.4-0.4-3-1.5c0,0,0,0,0,0
			c-1.5-2.6,0.7-7.9,4.5-15.1c1.2-2.3,2.6-3.5,4-3.6c1.8-0.1,3,1.5,3,1.6l1.3,1.5c0.1,0.2,0.2,0.4,0.1,0.6c-1.1,1.8-2.5,4.7-3.3,8.8
			c-0.3,1.7-0.8,3.7-1.7,6.1c0,0.1-0.1,0.2-0.2,0.3C240.9,558.8,239,559.5,237.3,559.5z M235.1,557.5c1,1.7,4.5,0.8,6.2-0.1
			c0.8-2.3,1.3-4.2,1.6-5.8c0.7-4,2.1-7,3.2-8.9l-1.1-1.2c0-0.1-0.9-1.3-2.2-1.2c-1.1,0.1-2.2,1.2-3.2,3.1
			C236.7,549.1,233.8,555.2,235.1,557.5L235.1,557.5z M253.4,529c-0.3,0-0.5-0.2-0.5-0.5c0-0.1-0.5-5.1-2.8-7.6
			c-1.7-1.9-1.8-3.6-1.3-4.5c0.5-0.8,1.4-1.1,2.4-0.9l0,0c2.4,0.5,2.6,9.2,2.6,11.9v1.1C253.9,528.8,253.7,529,253.4,529
			C253.4,529,253.4,529,253.4,529z M250.7,516.5c-0.4,0-0.8,0.2-0.9,0.5c-0.4,0.6-0.2,1.9,1.1,3.4c0.8,0.9,1.4,2.1,1.9,3.3
			c-0.3-3.8-0.9-7-1.7-7.1l0,0C251,516.5,250.8,516.5,250.7,516.5z"/>
	</g>
	<g>
		<defs>
			<path id="SVGID_00000111881265125920539210000012777522861229966491_" d="M252.5,513.9c-6.1-1.7-9,1.7-6.3,6.1
				c1.5,2.5,3.8,6.3,5.5,9.2c-0.8,0.3-1.6,1-1.7,2.5c-0.1,1-0.7,4.1-1.4,8.5c-0.2,0.2-0.5,0.6-0.8,1l1.4-4.7c0,0-4.1-1.9-7.4-0.9
				c-2.7,0.8-4.4,4-6.6,8.5c-4.7,9.8-3.2,17.9,0.1,17.8c2-0.1,4.1-0.8,5.5-1.3c-2.2,6.2-4.9,12.5-4.9,15.8c0,5,2.7,8.5,0.6,18.6
				c-1,4.8-0.4,4.9-0.4,4.9h3.1c0,0,0.7-8.5,1.4-13.4s-0.9-4.3-0.7-9.9c0.2-5.6,5.2-19.7,5.7-22.2c0.3-1.4,0.9-3.4,1.5-5
				c-1.2,8.5-2.3,18.8-1.8,27.7c1,18.3,5.6,23.4,5.6,23.4h3.1c0,0-5.2-23.1-5.3-29.8c0-6.6,3.3-32.1,3.8-34.4c0.4-2.3,3-4.7,3-4.7
				l-0.2-0.2l0.7-1C256,530.5,258.6,515.6,252.5,513.9z M234.7,557.7c-1.5-2.5,1.3-8.4,4.5-14.6c3.2-6.2,6.2-2,6.2-2l1.4,1.5
				c-1.2,1.9-2.6,4.9-3.4,9c-0.3,1.9-0.9,3.9-1.6,6.1C240.1,558.7,236,559.9,234.7,557.7z M251.2,516c2.2,0.4,2.2,11.4,2.2,11.4v1.1
				c0,0-0.5-5.2-2.9-7.8C248.2,518,249,515.6,251.2,516z"/>
		</defs>
		<clipPath id="SVGID_00000131352308510828914800000011789035461632820138_">
			<use xlink:href="#SVGID_00000111881265125920539210000012777522861229966491_"  style="overflow:visible;"/>
		</clipPath>
		<g style="clip-path:url(#SVGID_00000131352308510828914800000011789035461632820138_);">
			<rect x="153.8" y="423.4" class="st2" width="229.8" height="2.4"/>
			<rect x="153.8" y="428.2" class="st2" width="229.8" height="2.4"/>
			<rect x="153.8" y="433.1" class="st2" width="229.8" height="2.4"/>
			<rect x="153.8" y="437.9" class="st2" width="229.8" height="2.4"/>
			<rect x="153.8" y="442.8" class="st2" width="229.8" height="2.4"/>
			<rect x="153.8" y="447.6" class="st2" width="229.8" height="2.4"/>
			<rect x="153.8" y="452.4" class="st2" width="229.8" height="2.4"/>
			<rect x="153.8" y="457.3" class="st2" width="229.8" height="2.4"/>
			<rect x="153.8" y="462.1" class="st2" width="229.8" height="2.4"/>
			<rect x="153.8" y="467" class="st2" width="229.8" height="2.4"/>
			<rect x="153.8" y="471.8" class="st2" width="229.8" height="2.4"/>
			<rect x="153.8" y="476.7" class="st2" width="229.8" height="2.4"/>
			<rect x="153.8" y="481.5" class="st2" width="229.8" height="2.4"/>
			<rect x="153.8" y="486.3" class="st2" width="229.8" height="2.4"/>
			<rect x="153.8" y="491.2" class="st2" width="229.8" height="2.4"/>
			<rect x="153.8" y="496" class="st2" width="229.8" height="2.4"/>
			<rect x="153.8" y="500.9" class="st2" width="229.8" height="2.4"/>
			<rect x="153.8" y="505.7" class="st2" width="229.8" height="2.4"/>
			<rect x="153.8" y="510.6" class="st2" width="229.8" height="2.4"/>
			<rect x="153.8" y="515.4" class="st2" width="229.8" height="2.4"/>
			<rect x="153.8" y="520.2" class="st2" width="229.8" height="2.4"/>
			<rect x="153.8" y="525.1" class="st2" width="229.8" height="2.4"/>
			<rect x="153.8" y="529.9" class="st2" width="229.8" height="2.4"/>
			<rect x="153.8" y="534.8" class="st2" width="229.8" height="2.4"/>
			<rect x="153.8" y="539.6" class="st2" width="229.8" height="2.4"/>
			<rect x="153.8" y="544.5" class="st2" width="229.8" height="2.4"/>
			<rect x="153.8" y="549.3" class="st2" width="229.8" height="2.4"/>
			<rect x="153.8" y="554.1" class="st2" width="229.8" height="2.4"/>
			<rect x="153.8" y="559" class="st2" width="229.8" height="2.4"/>
			<rect x="153.8" y="563.8" class="st2" width="229.8" height="2.4"/>
			<rect x="153.8" y="568.7" class="st2" width="229.8" height="2.4"/>
			<rect x="153.8" y="573.5" class="st2" width="229.8" height="2.4"/>
			<rect x="153.8" y="578.4" class="st2" width="229.8" height="2.4"/>
			<rect x="153.8" y="583.2" class="st2" width="229.8" height="2.4"/>
			<rect x="153.8" y="588.1" class="st2" width="229.8" height="2.4"/>
			<rect x="153.8" y="592.9" class="st2" width="229.8" height="2.4"/>
			<rect x="153.8" y="597.7" class="st2" width="229.8" height="2.4"/>
			<rect x="153.8" y="602.6" class="st2" width="229.8" height="2.4"/>
			<rect x="153.8" y="607.4" class="st2" width="229.8" height="2.4"/>
			<rect x="153.8" y="612.3" class="st2" width="229.8" height="2.4"/>
			<rect x="153.8" y="617.1" class="st2" width="229.8" height="2.4"/>
			
				<rect x="250.7" y="520.2" transform="matrix(-1.836970e-16 1 -1 -1.836970e-16 887.0208 155.8402)" class="st2" width="229.8" height="2.4"/>
			
				<rect x="245.9" y="520.2" transform="matrix(-1.836970e-16 1 -1 -1.836970e-16 882.1776 160.6833)" class="st2" width="229.8" height="2.4"/>
			
				<rect x="241" y="520.2" transform="matrix(-1.836970e-16 1 -1 -1.836970e-16 877.3345 165.5265)" class="st2" width="229.8" height="2.4"/>
			
				<rect x="236.2" y="520.2" transform="matrix(-1.836970e-16 1 -1 -1.836970e-16 872.4913 170.3696)" class="st2" width="229.8" height="2.4"/>
			
				<rect x="231.3" y="520.2" transform="matrix(-1.836970e-16 1 -1 -1.836970e-16 867.6482 175.2128)" class="st2" width="229.8" height="2.4"/>
			
				<rect x="226.5" y="520.2" transform="matrix(-1.836970e-16 1 -1 -1.836970e-16 862.8051 180.0559)" class="st2" width="229.8" height="2.4"/>
			
				<rect x="221.6" y="520.2" transform="matrix(-1.836970e-16 1 -1 -1.836970e-16 857.9619 184.899)" class="st2" width="229.8" height="2.4"/>
			
				<rect x="216.8" y="520.2" transform="matrix(-1.836970e-16 1 -1 -1.836970e-16 853.1188 189.7422)" class="st2" width="229.8" height="2.4"/>
			
				<rect x="212" y="520.2" transform="matrix(-1.836970e-16 1 -1 -1.836970e-16 848.2756 194.5853)" class="st2" width="229.8" height="2.4"/>
			
				<rect x="207.1" y="520.2" transform="matrix(-1.836970e-16 1 -1 -1.836970e-16 843.4325 199.4285)" class="st2" width="229.8" height="2.4"/>
			
				<rect x="202.3" y="520.2" transform="matrix(-1.836970e-16 1 -1 -1.836970e-16 838.5894 204.2716)" class="st2" width="229.8" height="2.4"/>
			
				<rect x="197.4" y="520.2" transform="matrix(-1.836970e-16 1 -1 -1.836970e-16 833.7462 209.1147)" class="st2" width="229.8" height="2.4"/>
			
				<rect x="192.6" y="520.2" transform="matrix(-1.836970e-16 1 -1 -1.836970e-16 828.9031 213.9579)" class="st2" width="229.8" height="2.4"/>
			
				<rect x="187.7" y="520.2" transform="matrix(-1.836970e-16 1 -1 -1.836970e-16 824.0599 218.801)" class="st2" width="229.8" height="2.4"/>
			
				<rect x="182.9" y="520.2" transform="matrix(-1.836970e-16 1 -1 -1.836970e-16 819.2168 223.6442)" class="st2" width="229.8" height="2.4"/>
			
				<rect x="178.1" y="520.2" transform="matrix(-1.836970e-16 1 -1 -1.836970e-16 814.3737 228.4873)" class="st2" width="229.8" height="2.4"/>
			
				<rect x="173.2" y="520.2" transform="matrix(-1.836970e-16 1 -1 -1.836970e-16 809.5305 233.3304)" class="st2" width="229.8" height="2.4"/>
			
				<rect x="168.4" y="520.2" transform="matrix(-1.836970e-16 1 -1 -1.836970e-16 804.6874 238.1736)" class="st2" width="229.8" height="2.4"/>
			
				<rect x="163.5" y="520.2" transform="matrix(-1.836970e-16 1 -1 -1.836970e-16 799.8442 243.0167)" class="st2" width="229.8" height="2.4"/>
			
				<rect x="158.7" y="520.2" transform="matrix(-1.836970e-16 1 -1 -1.836970e-16 795.0011 247.8599)" class="st2" width="229.8" height="2.4"/>
			
				<rect x="153.8" y="520.2" transform="matrix(-1.836970e-16 1 -1 -1.836970e-16 790.158 252.703)" class="st2" width="229.8" height="2.4"/>
			
				<rect x="149" y="520.2" transform="matrix(-1.836970e-16 1 -1 -1.836970e-16 785.3148 257.5461)" class="st2" width="229.8" height="2.4"/>
			
				<rect x="144.2" y="520.2" transform="matrix(-1.836970e-16 1 -1 -1.836970e-16 780.4717 262.3893)" class="st2" width="229.8" height="2.4"/>
			
				<rect x="139.3" y="520.2" transform="matrix(-1.836970e-16 1 -1 -1.836970e-16 775.6285 267.2324)" class="st2" width="229.8" height="2.4"/>
			
				<rect x="134.5" y="520.2" transform="matrix(-1.836970e-16 1 -1 -1.836970e-16 770.7854 272.0756)" class="st2" width="229.8" height="2.4"/>
			
				<rect x="129.6" y="520.2" transform="matrix(-1.836970e-16 1 -1 -1.836970e-16 765.9423 276.9187)" class="st2" width="229.8" height="2.4"/>
			
				<rect x="124.8" y="520.2" transform="matrix(-1.836970e-16 1 -1 -1.836970e-16 761.0991 281.7618)" class="st2" width="229.8" height="2.4"/>
			
				<rect x="119.9" y="520.2" transform="matrix(-1.836970e-16 1 -1 -1.836970e-16 756.256 286.605)" class="st2" width="229.8" height="2.4"/>
			
				<rect x="115.1" y="520.2" transform="matrix(-1.836970e-16 1 -1 -1.836970e-16 751.4128 291.4481)" class="st2" width="229.8" height="2.4"/>
			
				<rect x="110.3" y="520.2" transform="matrix(-1.836970e-16 1 -1 -1.836970e-16 746.5697 296.2913)" class="st2" width="229.8" height="2.4"/>
			
				<rect x="105.4" y="520.2" transform="matrix(-1.836970e-16 1 -1 -1.836970e-16 741.7266 301.1344)" class="st2" width="229.8" height="2.4"/>
			
				<rect x="100.6" y="520.2" transform="matrix(-1.836970e-16 1 -1 -1.836970e-16 736.8834 305.9775)" class="st2" width="229.8" height="2.4"/>
			
				<rect x="95.7" y="520.2" transform="matrix(-1.836970e-16 1 -1 -1.836970e-16 732.0403 310.8207)" class="st2" width="229.8" height="2.4"/>
			
				<rect x="90.9" y="520.2" transform="matrix(-1.836970e-16 1 -1 -1.836970e-16 727.1971 315.6638)" class="st2" width="229.8" height="2.4"/>
			
				<rect x="86" y="520.2" transform="matrix(-1.836970e-16 1 -1 -1.836970e-16 722.354 320.507)" class="st2" width="229.8" height="2.4"/>
			
				<rect x="81.2" y="520.2" transform="matrix(-1.836970e-16 1 -1 -1.836970e-16 717.5109 325.3501)" class="st2" width="229.8" height="2.4"/>
			
				<rect x="76.4" y="520.2" transform="matrix(-1.836970e-16 1 -1 -1.836970e-16 712.6677 330.1932)" class="st2" width="229.8" height="2.4"/>
			
				<rect x="71.5" y="520.2" transform="matrix(-1.836970e-16 1 -1 -1.836970e-16 707.8246 335.0363)" class="st2" width="229.8" height="2.4"/>
			
				<rect x="66.7" y="520.2" transform="matrix(-1.836970e-16 1 -1 -1.836970e-16 702.9814 339.8795)" class="st2" width="229.8" height="2.4"/>
			
				<rect x="61.8" y="520.2" transform="matrix(-1.836970e-16 1 -1 -1.836970e-16 698.1383 344.7226)" class="st2" width="229.8" height="2.4"/>
			
				<rect x="57" y="520.2" transform="matrix(-1.836970e-16 1 -1 -1.836970e-16 693.2952 349.5658)" class="st2" width="229.8" height="2.4"/>
		</g>
	</g>
	<g>
		<path d="M235.2,562.4c-0.9,0-1.7-0.5-2.3-1.4c-1.8-2.8-1.8-9.6,1.9-17.1c2.2-4.6,4-7.9,6.9-8.8c3.4-1,7.5,0.8,7.7,0.9
			c0.2,0.1,0.3,0.4,0.3,0.6l-1.4,4.7c0,0.1,0,0.1-0.1,0.2c-0.3,0.4-0.6,0.9-1,1.4c-0.1,0.1-0.2,0.2-0.4,0.2c-0.2,0-0.3,0-0.4-0.2
			l-1.4-1.5c0-0.1-0.9-1.3-2.2-1.2c-1.1,0.1-2.2,1.2-3.2,3.1c-3,5.7-5.9,11.8-4.5,14.1c1,1.8,4.7,0.7,6.4-0.2
			c0.2-0.1,0.4-0.1,0.6,0.1c0.2,0.1,0.2,0.3,0.2,0.5c-0.3,1-0.6,1.9-1,2.9c0,0.1-0.2,0.2-0.3,0.3
			C239.5,561.6,237.3,562.3,235.2,562.4C235.3,562.4,235.2,562.4,235.2,562.4z M243.9,535.8c-0.7,0-1.3,0.1-2,0.3
			c-2.5,0.8-4.2,3.9-6.3,8.3c-3.5,7.2-3.6,13.6-1.9,16.1c0.4,0.7,1,1,1.5,1c1.8-0.1,3.8-0.7,5.1-1.2c0.2-0.5,0.4-1,0.5-1.5
			c-2.1,0.9-5.4,1.5-6.6-0.7c0,0,0,0,0,0c-1.5-2.6,0.7-7.9,4.5-15.1c1.2-2.3,2.6-3.5,4-3.6c1.8-0.1,3,1.5,3,1.6l0.9,1
			c0.2-0.3,0.4-0.6,0.6-0.8l1.2-4.2C247.7,536.5,245.8,535.8,243.9,535.8z"/>
		<path d="M255.3,532L255.3,532c-0.2,0-0.3-0.1-0.4-0.2l-1.6-2.3c-0.3,0-0.8,0-1.3,0.2c-0.2,0.1-0.5,0-0.6-0.2
			c-1.7-2.8-4-6.8-5.5-9.2c-1.3-2.1-1.4-4.2-0.3-5.6c1.3-1.7,4-2.1,7.2-1.2l0,0c6.4,1.8,3.9,16.5,3.8,17.2c0,0.1,0,0.1-0.1,0.2
			l-0.7,1C255.6,531.9,255.4,532,255.3,532z M253.9,528.7C253.9,528.7,253.9,528.7,253.9,528.7l1.4,1.9l0.2-0.3
			c0.2-1.4,2.2-14.4-3.1-15.9c-2.8-0.8-5.1-0.5-6.1,0.9c-0.8,1.1-0.7,2.7,0.4,4.5c1.5,2.4,3.6,6.1,5.3,8.9c0.4-0.1,0.7-0.1,1-0.1
			c-0.1-0.6-0.6-5.2-2.7-7.5c-1.7-1.9-1.8-3.6-1.3-4.5c0.5-0.8,1.4-1.1,2.4-0.9c2.4,0.5,2.6,9.2,2.6,11.9v1.1
			C253.9,528.6,253.9,528.6,253.9,528.7z M250.7,516.5c-0.4,0-0.8,0.2-0.9,0.5c-0.4,0.6-0.2,1.9,1.1,3.4c0.8,0.9,1.4,2.1,1.9,3.3
			c-0.3-3.8-0.9-7-1.7-7.1C251,516.5,250.8,516.5,250.7,516.5z"/>
		<path d="M239.1,600.4h-3.1c-0.2,0-0.4-0.1-0.5-0.3c-0.2-0.2-0.6-0.8,0.4-5.2c1.4-6.7,0.7-10.4,0-13.7c-0.3-1.6-0.6-3.1-0.6-4.8
			c0-2.7,1.7-7.2,3.5-12c1.7-4.4,3.4-9,4.1-12.8l0,0c1.2-6.8,4.4-10.7,5.3-11.7c0.1-0.2,0.4-0.2,0.6-0.1c0.2,0.1,0.3,0.3,0.3,0.5
			c-0.6,3.3-1.1,6.3-1.5,9.2c-0.8,2.3-1.3,4-1.5,5.1c-0.2,0.8-0.7,2.7-1.5,5.1c-1.6,5.3-4.1,13.3-4.2,17.1c-0.1,2.6,0.2,3.8,0.5,4.9
			c0.3,1.3,0.6,2.4,0.2,5.1c-0.7,4.8-1.4,13.3-1.4,13.3C239.6,600.2,239.4,600.4,239.1,600.4z M236.4,599.6L236.4,599.6L236.4,599.6
			z M247.7,542.1c-1.3,1.8-3,5-3.8,9.7l0,0c-0.7,3.9-2.4,8.5-4.1,13c-1.8,4.7-3.4,9.2-3.4,11.7c0,1.6,0.3,3.1,0.6,4.6
			c0.7,3.4,1.4,7.2,0,14.1c-0.6,2.8-0.6,3.9-0.5,4.3l2.3,0c0.2-1.8,0.8-8.8,1.4-12.9c0.4-2.5,0.1-3.4-0.2-4.7
			c-0.3-1.1-0.6-2.4-0.5-5.2c0.1-3.9,2.6-12,4.3-17.3c0.7-2.4,1.3-4.2,1.5-5c0.2-1.1,0.7-2.9,1.5-5.1
			C246.9,547,247.3,544.6,247.7,542.1z M243.4,551.6L243.4,551.6L243.4,551.6z"/>
		<path d="M254,601h-3.1c-0.1,0-0.3-0.1-0.4-0.2c-0.2-0.2-4.8-5.5-5.8-23.8c-0.8-14.3,2.4-32.1,4-40.6c0.4-2.4,0.7-4.1,0.8-4.8
			c0.1-1.1,0.5-1.9,1.2-2.5c1.2-0.9,2.8-0.7,2.9-0.6c0.1,0,0.2,0.1,0.3,0.2l1.9,2.7c0.1,0.2,0.1,0.5-0.1,0.7c0,0-2.4,2.4-2.8,4.4
			c-0.4,2.2-3.8,27.6-3.8,34.3c0,6.5,5.2,29.4,5.2,29.7c0,0.1,0,0.3-0.1,0.4C254.3,601,254.1,601,254,601z M251.1,600h2.2
			c-0.8-3.8-5.1-23.2-5.1-29.3c-0.1-6.7,3.4-32.3,3.8-34.5c0.4-1.9,2.1-3.9,2.8-4.7l-1.6-2.2c-0.4,0-1.3,0-1.9,0.5
			c-0.5,0.4-0.7,1-0.8,1.8c-0.1,0.7-0.4,2.4-0.8,4.9c-1.5,8.5-4.7,26.2-4,40.4C246.6,593.2,250.4,599,251.1,600z"/>
	</g>
</g>
</svg>
