<?xml version="1.0" encoding="utf-8"?>
<!-- Generator: Adobe Illustrator 27.0.0, SVG Export Plug-In . SVG Version: 6.00 Build 0)  -->
<svg version="1.1" id="Layer_1" xmlns="http://www.w3.org/2000/svg" xmlns:xlink="http://www.w3.org/1999/xlink" x="0px" y="0px"
	 viewBox="0 0 600 1200" style="enable-background:new 0 0 600 1200;" xml:space="preserve">
<style type="text/css">
	.st0{fill:none;}
	.st1{fill:#F46E0B;}
	.st2{fill:#701E13;}
</style>
<g>
	<path class="st0" d="M370.8,557.8c0.6-4.6,0.4-13.7-0.5-14.4c-1-0.3-2.1,1.6-2.1,1.6c0,0.1-0.1,0.1-0.2,0.2
		c0.1,1.6,0.2,3.1,0.2,4.6c0.1,2,0.1,4.7,0.1,7.9c0.8,0.7,1.6,1.3,2,1.2C370.6,558.7,370.8,558.1,370.8,557.8z"/>
	<path class="st1" d="M371.8,560.6c3.5-4.6,3.1-12.4,1-17.4c-1-2.3-2-3.1-2.5-3.2c-0.5,0-0.8,0.1-1.1,0.4c-0.6,0.6-0.9,1.9-0.9,3
		c0.6-0.6,1.5-1.2,2.4-0.8c2.1,0.7,1.6,12.6,1.2,15.5c-0.1,1.1-0.6,1.7-1.2,1.9c-0.7,0.2-1.5-0.2-2.3-0.8c0,0.3,0,0.7,0,1
		C369.7,560.7,371.2,561.3,371.8,560.6z"/>
	<path d="M371.3,557.8c0.6-4.2,0.6-14.4-0.9-14.9c-1.1-0.4-2.1,0.8-2.5,1.5c0,0.3,0,0.5,0,0.7c0.1,0,0.1-0.1,0.2-0.2
		c0,0,1.1-1.9,2.1-1.6c1,0.7,1.2,9.7,0.5,14.4c0,0.4-0.2,1-0.5,1.1c-0.4,0.1-1.2-0.4-2-1.2c0,0.2,0,0.5,0,0.7
		C369.6,559.4,371,560.1,371.3,557.8z"/>
	<path d="M370.3,539.4c3.2,0.3,7.6,14.1,1.9,21.4c-0.8,1-2.5,0.4-3.9-0.3c0,0.2,0,0.4,0,0.6c0.8,0.4,1.8,0.8,2.6,0.8
		c0.6,0,1.2-0.2,1.6-0.7c4.2-5.5,3-14,1.1-18.4c-0.6-1.4-1.8-3.6-3.4-3.8c-0.8-0.1-1.4,0.1-1.9,0.6c-0.3,0.3-0.6,0.7-0.7,1.2
		c0,0.5,0.1,1,0.1,1.5C368,540.9,368.6,539.3,370.3,539.4z"/>
	<path d="M372.2,560.9c5.6-7.3,1.3-21.1-1.9-21.4c-1.7-0.2-2.3,1.4-2.5,2.9c0.1,0.7,0.1,1.4,0.1,2c0.4-0.6,1.4-1.8,2.5-1.5
		c1.5,0.5,1.4,10.8,0.9,14.9c-0.3,2.2-1.7,1.6-3,0.5c0,0.2,0,0.4,0,0.6c0.8,0.6,1.6,1,2.3,0.8c0.7-0.2,1.1-0.8,1.2-1.9
		c0.4-2.8,0.9-14.7-1.2-15.5c-1-0.3-1.8,0.2-2.4,0.8c0.1-1.1,0.3-2.4,0.9-3c0.3-0.3,0.7-0.4,1.1-0.4c0.6,0.1,1.6,0.9,2.5,3.2
		c2.2,5,2.6,12.8-1,17.4c-0.6,0.7-2.1,0.2-3.5-0.5c0,0.2,0,0.4,0,0.6C369.7,561.3,371.4,561.9,372.2,560.9z"/>
	<g>
		<path d="M302.9,597.2L302.9,597.2L302.9,597.2z"/>
	</g>
	<path d="M306.3,597.7c-0.2,0-0.4,0-0.5,0h-2.9c-1.1,0.1-3.3-3.2-11.6-16.5c-8.3-13.3-19.7-31.4-26.5-37
		c-11.3-9.2-22.4-7.3-22.5-7.3c-0.3,0-0.5-0.1-0.6-0.4c0-0.3,0.1-0.5,0.4-0.6c0.1,0,11.7-2,23.3,7.5c7,5.7,18.4,24,26.8,37.3
		c4.8,7.7,9.8,15.6,10.8,16l2.9,0c0,0,0.1,0,0.1,0c0,0,3.6,0.7,8.6-6.1c2.6-3.6,11.4-14,21.7-23.3c9-8.2,21.7-18,31.4-18
		c0.3,0,0.5,0.2,0.5,0.5s-0.2,0.5-0.5,0.5c-17.9,0-47.6,34.6-52.3,40.9C311,597.1,307.6,597.7,306.3,597.7z"/>
	<path d="M313.8,564.6c-2.1,0-4.1-0.2-6.2-0.5l-0.9-0.1c-9.6-1.1-26-13.4-37.2-23.6c-11.1-10.1-25.8-8.3-25.9-8.3
		c-0.3,0-0.5-0.2-0.6-0.4c0-0.3,0.2-0.5,0.4-0.6c0.2,0,15.3-1.9,26.7,8.6c11,10.1,27.3,22.2,36.6,23.3l0.9,0.1
		c7.1,0.9,12.7,1.5,25.7-6.6c15.1-9.4,29.8-11.3,34-11.7c0.3,0,0.5,0.2,0.5,0.5c0,0.3-0.2,0.5-0.5,0.5c-4.1,0.3-18.6,2.2-33.5,11.5
		C324.6,563.3,318.8,564.6,313.8,564.6z"/>
	<g>
		<path class="st1" d="M243.5,531.6c0,0,14.9-2,26.3,8.4c9.6,8.8,26.9,22.3,36.9,23.5c7.5,0.9,13.2,2,26.9-6.6
			c12-7.5,25.2-10.9,33.8-11.6l0.2,4.4c-18,0-47.3,33.9-52.7,41.1c-5.4,7.2-9.1,6.3-9.1,6.3h-3c-2.4,0.2-26.3-43.9-37.9-53.4
			c-11.6-9.5-22.9-7.4-22.9-7.4L243.5,531.6z"/>
		<path d="M306.3,597.7c-0.2,0-0.4,0-0.5,0h-2.9c-1.1,0.1-3.3-3.2-11.6-16.5c-8.3-13.3-19.7-31.4-26.5-37
			c-11.3-9.2-22.4-7.3-22.5-7.3c-0.2,0-0.3,0-0.5-0.2c-0.1-0.1-0.2-0.3-0.1-0.5l1.4-4.7c0.1-0.2,0.2-0.3,0.4-0.4
			c0.2,0,15.3-1.9,26.7,8.6c11,10.1,27.3,22.2,36.6,23.3l0.9,0.1c7.1,0.9,12.7,1.5,25.7-6.6c15.1-9.4,29.8-11.3,34-11.7
			c0.1,0,0.3,0,0.4,0.1c0.1,0.1,0.2,0.2,0.2,0.4l0.2,4.4c0,0.1,0,0.3-0.1,0.4c-0.1,0.1-0.2,0.2-0.4,0.2c-17.9,0-47.6,34.6-52.3,40.9
			C311,597.1,307.6,597.7,306.3,597.7z M305.8,596.7c0,0,0.1,0,0.1,0c0,0,3.6,0.7,8.6-6.1c2.6-3.6,11.4-14,21.7-23.3
			c8.8-8.1,21.2-17.6,30.9-18l-0.1-3.3c-4.7,0.5-18.7,2.5-33,11.5c-13.3,8.3-19.4,7.6-26.4,6.7l-0.9-0.1c-9.6-1.1-26-13.4-37.2-23.6
			c-10.2-9.3-23.4-8.5-25.6-8.3l-1.1,3.7c2.8-0.3,12.7-0.5,22.5,7.6c7,5.7,18.4,24,26.8,37.3c4.8,7.7,9.8,15.6,10.8,16L305.8,596.7z
			"/>
	</g>
	<g>
		<g>
			<path class="st1" d="M367.5,545.4c0,0-6.5-11.5-12-0.6c-5.5,10.8,0.5,23.3,4.3,21.9c3.8-1.4,7.9-16.9,7.9-16.9L367.5,545.4z
				 M361.2,559.1c-1.7,3.6-2.9,4.3-4.3-0.9c-1.4-5.3,0.5-11.3,2.8-13.7c2.2-2.5,5.1,1.3,5.1,1.3s0.5,2.1,0.6,3.3
				C365.5,550.2,362.9,555.4,361.2,559.1z"/>
			<path d="M359.2,567.3c-0.9,0-1.9-0.6-2.9-1.6c-3.1-3.5-5.6-12.6-1.3-21.1c1.6-3.2,3.6-4.9,5.7-4.9c0,0,0.1,0,0.1,0
				c3.9,0,7,5.3,7.1,5.5c0,0.1,0.1,0.1,0.1,0.2l0.2,4.4c0,0,0,0.1,0,0.1c-0.4,1.6-4.2,15.9-8.2,17.3
				C359.7,567.3,359.4,567.3,359.2,567.3z M360.8,540.6C360.8,540.6,360.8,540.6,360.8,540.6c-1.8,0-3.5,1.5-4.9,4.4
				c-3.9,7.7-1.9,16.6,1.1,20c0.5,0.6,1.6,1.6,2.5,1.2c2.9-1,6.4-12.2,7.6-16.5l-0.1-4.2C366.6,544.8,363.9,540.6,360.8,540.6z
				 M358.9,562.4c0,0-0.1,0-0.1,0c-1-0.1-1.7-1.3-2.4-4.2c-1.4-5.3,0.4-11.5,2.9-14.2c0.6-0.7,1.4-1,2.2-1c1.9,0.1,3.6,2.2,3.7,2.3
				c0,0.1,0.1,0.1,0.1,0.2c0,0.1,0.5,2.2,0.6,3.4c0.1,1.1-1.3,4.1-3.4,8.6l-0.8,1.7C360.7,561.2,359.9,562.4,358.9,562.4z
				 M361.3,544.1c-0.5,0-1,0.2-1.4,0.7c-2,2.2-4,8-2.6,13.2c0.8,3.2,1.4,3.4,1.6,3.4c0.1,0,0.7-0.1,1.8-2.6l0.8-1.7
				c1.4-2.9,3.4-7.2,3.3-8.1c-0.1-1-0.5-2.7-0.6-3.2C364,545.6,362.7,544.1,361.3,544.1C361.4,544.1,361.4,544.1,361.3,544.1z"/>
		</g>
	</g>
	<g>
		<path class="st1" d="M375.3,582.3c-3-7.9-0.4-14.1-1.7-23.8c-1.3-9.7-6.1-11.3-6.1-11.3l0.1,2.5c2.7,3.1,4.6,11.1,3.2,19.3
			c-1.3,8.2,2.4,16.4,2.4,16.4c1.1,4.5-4.3,42.1-4.3,42.1h2.5C371.5,627.6,378.6,591,375.3,582.3z"/>
		<path d="M371.5,628.1H369c-0.1,0-0.3-0.1-0.4-0.2c-0.1-0.1-0.1-0.3-0.1-0.4c0.1-0.4,5.4-37.5,4.3-41.9c-0.1-0.2-3.8-8.3-2.4-16.6
			c1.3-8.1-0.5-16-3.1-18.9c-0.1-0.1-0.1-0.2-0.1-0.3l-0.1-2.5c0-0.2,0.1-0.3,0.2-0.4c0.1-0.1,0.3-0.1,0.5-0.1
			c0.2,0.1,5.1,1.8,6.4,11.7c0.5,4,0.4,7.4,0.3,10.7c-0.2,4.5-0.3,8.5,1.4,13c0,0,0,0,0,0c3.3,8.8-3.5,44-3.8,45.5
			C372,627.9,371.8,628.1,371.5,628.1z M369.6,627.1h1.6c0.8-4,6.8-36.6,3.8-44.6c-1.8-4.7-1.7-8.9-1.5-13.4
			c0.1-3.2,0.3-6.6-0.3-10.5c-0.9-7-3.7-9.6-5-10.5l0.1,1.5c2.6,3.1,4.6,11,3.2,19.6c-1.3,8,2.3,16,2.4,16.1
			C374.8,589.6,370.3,622.1,369.6,627.1z"/>
	</g>
	<g>
		<path class="st2" d="M373.8,615.7l-3.6-0.3c-0.5,0-0.8-0.5-0.8-0.9l0.1-0.8c0-0.5,0.5-0.8,0.9-0.8l3.6,0.3c0.5,0,0.8,0.5,0.8,0.9
			l-0.1,0.8C374.7,615.4,374.3,615.8,373.8,615.7z"/>
		<path d="M373.8,616.2c0,0-0.1,0-0.1,0l-3.6-0.3c-0.8-0.1-1.3-0.7-1.3-1.5l0.1-0.8c0.1-0.8,0.7-1.3,1.5-1.3l3.6,0.3
			c0.4,0,0.7,0.2,0.9,0.5s0.4,0.6,0.3,1l-0.1,0.8c0,0.4-0.2,0.7-0.5,0.9C374.5,616.1,374.2,616.2,373.8,616.2z M370.3,613.4
			c-0.2,0-0.4,0.2-0.4,0.4l-0.1,0.8c0,0.2,0.1,0.4,0.4,0.4l3.6,0.3c0,0,0,0,0,0c0.1,0,0.2,0,0.2-0.1c0.1-0.1,0.1-0.2,0.1-0.3
			l0.1-0.8c0-0.1,0-0.2-0.1-0.3c-0.1-0.1-0.2-0.1-0.3-0.1L370.3,613.4C370.3,613.4,370.3,613.4,370.3,613.4z"/>
	</g>
	<g>
		<path class="st2" d="M373.6,618.3L370,618c-0.5,0-0.8-0.5-0.8-0.9l0.1-0.8c0-0.5,0.5-0.8,0.9-0.8l3.6,0.3c0.5,0,0.8,0.5,0.8,0.9
			l-0.1,0.8C374.5,618,374.1,618.3,373.6,618.3z"/>
		<path d="M373.7,618.8c0,0-0.1,0-0.1,0l-3.6-0.3c-0.8-0.1-1.3-0.7-1.3-1.5l0.1-0.8c0-0.4,0.2-0.7,0.5-0.9c0.3-0.2,0.6-0.4,1-0.3
			l3.6,0.3c0.8,0.1,1.3,0.7,1.3,1.5l-0.1,0.8c0,0.4-0.2,0.7-0.5,0.9C374.3,618.7,374,618.8,373.7,618.8z M373.6,617.8
			c0.2,0,0.4-0.1,0.4-0.4l0.1-0.8c0-0.2-0.1-0.4-0.4-0.4l-3.6-0.3c-0.1,0-0.2,0-0.3,0.1c-0.1,0.1-0.1,0.2-0.1,0.3l-0.1,0.8
			c0,0.2,0.1,0.4,0.4,0.4L373.6,617.8z"/>
	</g>
	<g>
		<g>
			<g>
				<path class="st1" d="M224,551c-4.7,9.8-2,15.8,1.3,15.7c3.3-0.1,6.9-1.9,6.9-1.9l8.4-29.3C240.6,535.4,228.8,541.1,224,551z
					 M232.4,562.1c-1,0.8-6.1,2.9-7.6,0.4c-1.5-2.5,0-6.3,3.2-12.5c3.2-6.2,8.4-8.3,8.4-8.3l1.6-0.7l-0.2,2.4L232.4,562.1z"/>
				<path d="M225.2,567.1c-1.2,0-2.3-0.7-3.1-1.8c-1.6-2.4-2-7.5,1.4-14.6l0,0c4.8-9.9,16.4-15.5,16.9-15.8c0.2-0.1,0.4-0.1,0.5,0.1
					c0.2,0.1,0.2,0.3,0.2,0.5l-8.4,29.3c0,0.1-0.1,0.2-0.3,0.3c-0.2,0.1-3.8,1.9-7.1,2C225.3,567.1,225.3,567.1,225.2,567.1z
					 M224.5,551.2c-3.2,6.7-2.9,11.4-1.4,13.6c0.6,0.9,1.4,1.4,2.3,1.4c2.7-0.1,5.7-1.4,6.5-1.8l0.5-1.6c-1.1,0.7-3.8,1.7-5.8,1.4
					c-1-0.2-1.7-0.6-2.2-1.4c-1.6-2.7-0.1-6.7,3.2-13c3.3-6.2,8.5-8.5,8.7-8.6l1.6-0.7c0.2-0.1,0.3-0.1,0.5,0
					c0.1,0.1,0.2,0.2,0.2,0.4l1.3-4.5C236.9,538,228.3,543.3,224.5,551.2L224.5,551.2z M237.5,541.7l-0.9,0.4
					c-0.1,0-5.1,2.2-8.2,8.1c-3.1,5.8-4.6,9.7-3.3,12c0.3,0.5,0.8,0.8,1.5,0.9c1.8,0.3,4.4-0.7,5.3-1.3l5.5-18.6L237.5,541.7z
					 M232.4,562.1L232.4,562.1L232.4,562.1z"/>
			</g>
		</g>
		<g>
			<g>
				<path class="st1" d="M255.5,514.5c-6.1,1.7-10.9,15.1-10.9,15.1l1.9,2.7c0,0,12.6-7.3,15.3-11.7
					C264.5,516.2,261.6,512.8,255.5,514.5z M255.8,521.4c-2.4,2.7-7.2,5.8-7.2,5.8v-1.1c0,0,6-9.1,8.2-9.5
					C259,516.2,258.2,518.7,255.8,521.4z"/>
				<path d="M246.5,532.7c-0.2,0-0.3-0.1-0.4-0.2l-1.9-2.7c-0.1-0.1-0.1-0.3-0.1-0.5c0.2-0.6,5-13.6,11.3-15.4
					c3.3-0.9,5.9-0.5,7.2,1.2c1.1,1.4,1,3.5-0.3,5.6c-2.7,4.4-15,11.5-15.5,11.8C246.7,532.7,246.6,532.7,246.5,532.7z M245.1,529.5
					l1.5,2.1c2.1-1.3,12.4-7.5,14.7-11.3c1.1-1.8,1.2-3.4,0.4-4.5c-1-1.3-3.3-1.7-6.1-0.9C250.3,516.5,245.8,527.7,245.1,529.5z
					 M248.6,527.7c-0.1,0-0.2,0-0.2-0.1c-0.2-0.1-0.3-0.3-0.3-0.4v-1.1c0-0.1,0-0.2,0.1-0.3c1-1.5,6.2-9.3,8.5-9.8
					c1.1-0.2,1.5,0.2,1.7,0.5c0.7,1.2-0.7,3.4-2.2,5.1l0,0c-2.4,2.7-7.1,5.8-7.3,5.9C248.8,527.7,248.7,527.7,248.6,527.7z
					 M257.2,517.1c-0.1,0-0.2,0-0.4,0c-1.4,0.3-5.5,5.7-7.8,9.1c1.5-1,4.6-3.3,6.3-5.2l0,0c1.9-2.1,2.3-3.6,2.1-3.9
					C257.5,517.1,257.4,517.1,257.2,517.1z"/>
			</g>
		</g>
		<g>
			<path class="st1" d="M244.5,529.6c0,0-3.2-0.6-3.5,2.7c-0.2,3.2-4.5,27.1-3.6,45.4s1.4,43,1.4,43h3.1c0,0-1-42.7-1-49.3
				c-0.1-6.6,2.1-32.1,2.6-34.4s3-4.7,3-4.7L244.5,529.6z"/>
			<path d="M242,621.1h-3.1c-0.3,0-0.5-0.2-0.5-0.5c0-0.2-0.4-24.9-1.4-43c-0.8-14.7,1.8-32.7,3-41.3c0.3-2,0.5-3.5,0.5-4.1
				c0.1-1.1,0.5-1.9,1.2-2.5c1.2-0.9,2.8-0.7,2.9-0.6c0.1,0,0.2,0.1,0.3,0.2l1.9,2.7c0.1,0.2,0.1,0.5-0.1,0.7c0,0-2.4,2.4-2.8,4.4
				c-0.5,2.3-2.6,27.6-2.6,34.3c0,6.6,1,48.9,1,49.3c0,0.1,0,0.3-0.1,0.4C242.2,621.1,242.1,621.1,242,621.1z M239.4,620.1h2.1
				c-0.1-4.9-1-42.6-1-48.8c-0.1-6.7,2.1-32.1,2.6-34.5c0.4-1.9,2.1-3.9,2.8-4.7l-1.6-2.2c-0.4,0-1.3,0-1.9,0.5
				c-0.5,0.4-0.7,1-0.8,1.8c0,0.7-0.3,2.1-0.6,4.2c-1.2,8.6-3.8,26.5-3,41.1C238.9,594.3,239.3,616.5,239.4,620.1z"/>
		</g>
		<g>
			<path class="st1" d="M240,540.4c0,0-4.1,3.8-5.5,11.8c-1.5,8-5.1,22-5.1,27s-2.6,25.8-3,30.6s-0.4,4.9-0.4,4.9h3.1
				c0,0,0.7-8.5,1.4-13.4c0.7-4.9,1-16.9,1.2-22.5s4.3-22.6,4.7-25.2s2.4-4.1,2.4-4.1L240,540.4z"/>
			<path d="M229,615.2h-3.1c-0.1,0-0.3-0.1-0.4-0.2c-0.1-0.1-0.1-0.2-0.1-0.4l0.4-4.9c0.1-1.7,0.5-5.2,1-9.4c0.9-8,2-18,2-21.2
				c0-3.3,1.6-10.4,3.1-17.2c0.8-3.7,1.6-7.1,2.1-9.9c1.5-8.1,5.5-11.9,5.7-12.1c0.2-0.1,0.4-0.2,0.6-0.1c0.2,0.1,0.3,0.3,0.3,0.5
				l-1.2,9.2c0,0.1-0.1,0.2-0.2,0.3c0,0-1.8,1.5-2.2,3.8c-0.1,0.6-0.4,1.8-0.7,3.4c-1.3,6.1-3.9,17.3-4,21.6l0,1.3
				c-0.2,5.9-0.5,16.7-1.2,21.3c-0.7,4.8-1.4,13.3-1.4,13.3C229.5,615,229.3,615.2,229,615.2z M226.5,614.2h2.1
				c0.2-1.8,0.8-8.8,1.4-12.9c0.7-4.5,1-15.3,1.2-21.2l0-1.3c0.1-4.4,2.7-15.8,4-21.8c0.4-1.6,0.6-2.9,0.7-3.4
				c0.4-2.3,1.9-3.8,2.4-4.2l0.9-7.3c-1.3,1.7-3.4,5.1-4.3,10.3c-0.5,2.8-1.3,6.3-2.1,9.9c-1.5,6.8-3,13.8-3,17
				c0,3.3-1.1,13.3-2,21.3c-0.5,4.1-0.9,7.7-1,9.4L226.5,614.2z"/>
		</g>
	</g>
	<g>
		<path class="st2" d="M241.7,606.6l-3.6,0.1c-0.5,0-0.9-0.4-0.9-0.8l0-0.8c0-0.5,0.4-0.9,0.8-0.9l3.6-0.1c0.5,0,0.9,0.4,0.9,0.8
			l0,0.8C242.6,606.2,242.2,606.6,241.7,606.6z"/>
		<path d="M238.1,607.2c-0.7,0-1.4-0.6-1.4-1.3l0-0.8c0-0.8,0.6-1.4,1.3-1.4l3.6-0.1c0.4,0,0.7,0.1,1,0.4c0.3,0.3,0.4,0.6,0.4,1
			l0,0.8c0,0.8-0.6,1.4-1.3,1.4l0,0L238.1,607.2C238.2,607.2,238.1,607.2,238.1,607.2z M241.7,606.6L241.7,606.6L241.7,606.6z
			 M241.7,604.5C241.7,604.5,241.7,604.5,241.7,604.5l-3.6,0.1c-0.2,0-0.4,0.2-0.4,0.4l0,0.8c0,0.2,0.2,0.4,0.4,0.4l3.6-0.1
			c0.2,0,0.4-0.2,0.4-0.4l0-0.8c0-0.1,0-0.2-0.1-0.3C241.9,604.5,241.8,604.5,241.7,604.5z"/>
	</g>
	<g>
		<path class="st2" d="M241.8,609.2l-3.6,0.1c-0.5,0-0.9-0.4-0.9-0.8l0-0.8c0-0.5,0.4-0.9,0.8-0.9l3.6-0.1c0.5,0,0.9,0.4,0.9,0.8
			l0,0.8C242.7,608.8,242.3,609.2,241.8,609.2z"/>
		<path d="M238.2,609.8c-0.7,0-1.4-0.6-1.4-1.3l0-0.8c0-0.8,0.6-1.4,1.3-1.4l3.6-0.1c0.4,0,0.7,0.1,1,0.4c0.3,0.3,0.4,0.6,0.4,1
			l0,0.8c0,0.4-0.1,0.7-0.4,1s-0.6,0.4-1,0.4L238.2,609.8C238.2,609.8,238.2,609.8,238.2,609.8z M241.8,607.1
			C241.8,607.1,241.8,607.1,241.8,607.1l-3.6,0.1c-0.2,0-0.4,0.2-0.4,0.4l0,0.8c0,0.2,0.2,0.4,0.4,0.4l3.6-0.1c0,0,0,0,0,0
			c0.1,0,0.2,0,0.3-0.1c0.1-0.1,0.1-0.2,0.1-0.3l0-0.8c0-0.1,0-0.2-0.1-0.3C242,607.1,241.9,607.1,241.8,607.1z"/>
	</g>
	<g>
		<path class="st2" d="M230.5,605.5l-3.6-0.3c-0.5,0-0.8-0.5-0.8-0.9l0.1-0.8c0-0.5,0.5-0.8,0.9-0.8l3.6,0.3c0.5,0,0.8,0.5,0.8,0.9
			l-0.1,0.8C231.4,605.2,231,605.5,230.5,605.5z"/>
		<path d="M230.6,606c0,0-0.1,0-0.1,0l0,0l-3.6-0.3c-0.4,0-0.7-0.2-0.9-0.5c-0.2-0.3-0.4-0.6-0.3-1l0.1-0.8c0.1-0.8,0.7-1.3,1.5-1.3
			l3.6,0.3c0.4,0,0.7,0.2,0.9,0.5s0.4,0.6,0.3,1l-0.1,0.8C231.9,605.5,231.3,606,230.6,606z M230.6,605c0.2,0,0.4-0.1,0.4-0.4
			l0.1-0.8c0-0.1,0-0.2-0.1-0.3c-0.1-0.1-0.2-0.1-0.3-0.1l-3.6-0.3c-0.2,0-0.4,0.1-0.4,0.4l-0.1,0.8c0,0.1,0,0.2,0.1,0.3
			c0.1,0.1,0.2,0.1,0.3,0.1L230.6,605z"/>
	</g>
	<g>
		<path class="st2" d="M230.3,608.1l-3.6-0.3c-0.5,0-0.8-0.5-0.8-0.9l0.1-0.8c0-0.5,0.5-0.8,0.9-0.8l3.6,0.3c0.5,0,0.8,0.5,0.8,0.9
			l-0.1,0.8C231.2,607.8,230.8,608.1,230.3,608.1z"/>
		<path d="M230.4,608.6c0,0-0.1,0-0.1,0l-3.6-0.3c-0.8-0.1-1.3-0.7-1.3-1.5l0.1-0.8c0.1-0.8,0.7-1.3,1.5-1.3l3.6,0.3
			c0.4,0,0.7,0.2,0.9,0.5c0.2,0.3,0.4,0.6,0.3,1l-0.1,0.8c0,0.4-0.2,0.7-0.5,0.9C231,608.5,230.7,608.6,230.4,608.6z M230.4,607.6
			c0.1,0,0.2,0,0.3-0.1c0.1-0.1,0.1-0.2,0.1-0.3l0.1-0.8c0-0.1,0-0.2-0.1-0.3c-0.1-0.1-0.2-0.1-0.3-0.1l-3.6-0.3
			c-0.2,0-0.4,0.1-0.4,0.4l-0.1,0.8c0,0.2,0.1,0.4,0.4,0.4L230.4,607.6z"/>
	</g>
</g>
</svg>
