<?xml version="1.0" encoding="utf-8"?>
<!-- Generator: Adobe Illustrator 27.5.0, SVG Export Plug-In . SVG Version: 6.00 Build 0)  -->
<svg version="1.1" id="Layer_1" xmlns="http://www.w3.org/2000/svg" xmlns:xlink="http://www.w3.org/1999/xlink" x="0px" y="0px"
	 viewBox="0 0 600 1200" style="enable-background:new 0 0 600 1200;" xml:space="preserve">
<style type="text/css">
	.st0{fill:#312D51;}
	.st1{fill:#701E13;}
	.st2{clip-path:url(#SVGID_00000011023893560159893760000005054610950502330288_);}
	.st3{fill:#FFFFFF;}
	.st4{clip-path:url(#SVGID_00000058586388317521321840000003255992661827512459_);}
	.st5{fill:none;}
</style>
<g>
	<g>
		<g>
			<g>
				<path class="st0" d="M304,435.6c5.6-6,5.8-14.5,5.8-14.5c-23.8-14.9-42.8-17.5-35.3-49c3.5-14.7,8.8-28.2,8.8-28.2l0,0
					c-0.3,0.1-0.6,0.3-0.9,0.4c-0.2,0.1-0.4,0.2-0.6,0.2c-0.3,0.1-0.7,0.3-1.1,0.4l0,0l0,0c-7.3,18.4-20.3,56.4-20.3,62.3l0,0
					c0,0.4-1.7,5.3-2,11.1c-0.3,5.3,0.9,12.5,3.4,17c2,3.5,7,6.6,8.8,7.3C285.3,448,297.8,442.3,304,435.6z"/>
				<path class="st0" d="M351,345.2c0,0,7.9,19.9,8.6,30.2c1.5,24.1-17.3,39-35,45.7c0,0-0.7,6.9,5.5,12.7c3.4,4.8,10.4,8.3,14.9,9
					c9.9,1.7,21.3-0.4,26.5-7.3c9.8-13.2-4-40.8-3.1-38.8c-2-10.3-7.3-30.2-15.5-52c-0.8-0.2-1.5-0.4-2.2-0.6L351,345.2z"/>
				<circle class="st1" cx="317.2" cy="422" r="4"/>
			</g>
			<g>
				<g>
					<defs>
						<path id="SVGID_1_" d="M351,345.2c0,0,7.9,19.9,8.6,30.2c1.5,24.1-17.3,39-35,45.7c0,0-0.7,6.9,5.5,12.7
							c3.4,4.8,10.4,8.3,14.9,9c9.9,1.7,21.3-0.4,26.5-7.3c9.8-13.2-4-40.8-3.1-38.8c-2-10.3-7.3-30.2-15.5-52
							c-0.8-0.2-1.5-0.4-2.2-0.6L351,345.2z"/>
					</defs>
					<clipPath id="SVGID_00000032619200442011681560000010964407928504067738_">
						<use xlink:href="#SVGID_1_"  style="overflow:visible;"/>
					</clipPath>
					<g style="clip-path:url(#SVGID_00000032619200442011681560000010964407928504067738_);">
						<g>
							<path class="st3" d="M465.3,238.8c0,0-23.3-1.3-30.1,4.2c-6.8,5.5-18.6,26.3-10.6,26.3c8.1,0,27.1-16.5,34.3-21.2
								c7.2-4.7,14.8-10.6,11.9-5.1c-3,5.5-10.6,8.1-9.7,16.5c0.8,8.5,11,19.5,14,16.5s8.1-17,8.1-18.5s-5.1-15.4-5.1-15.4
								s14.4,18.2,18.2,24.6c3.8,6.4,6.4-6.8,5.9-13.1c-0.4-6.4-22.5-17-22.5-17s8.5-3.4,11.9-14.4s-1.3-25.4-7.2-26.7
								c-5.9-1.3-12.7,15.3-12.7,22s-1.3,14.8-1.3,14.8l-17-13.1c0,0-4.2-5.1-13.1-5.1s-13.1,1.7-13.1,8.9s11.4,14,20.3,12.9
								C456.4,235,465.3,238.8,465.3,238.8z"/>
							<path class="st3" d="M459.4,254.6c0,0-7.3,3.3-9.2,22c-1.9,18.7-2.2,46.7-2.2,46.7h-5.1c0,0,1.6-40.2,3.2-46.7
								C448,268.4,447,258.1,459.4,254.6z"/>
							<circle class="st3" cx="431.5" cy="279.5" r="2"/>
							<circle class="st3" cx="420" cy="279.5" r="2"/>
							<circle class="st3" cx="427.6" cy="273.3" r="2"/>
							<circle class="st3" cx="428.4" cy="286.9" r="2"/>
							<circle class="st3" cx="436.6" cy="285" r="2"/>
							<circle class="st3" cx="435.4" cy="293.5" r="2"/>
							<circle class="st3" cx="416.1" cy="295.5" r="2"/>
							<circle class="st3" cx="442.9" cy="271.3" r="2"/>
						</g>
						<g>
							<path class="st3" d="M537.1,289.4c0,0,20.2-11.7,22.8-20s1.2-32.2-5.5-27.8c-6.7,4.4-13.6,28.7-17.1,36.5s-6.6,17-7.1,10.8
								s4.4-12.5-0.9-19.2c-5.4-6.6-19.9-10.3-20.8-6.2c-0.9,4.1,2.6,18.6,3.4,19.9c0.8,1.3,12.7,10.1,12.7,10.1s-22-7.3-28.7-10.6
								c-6.7-3.2-1.6,9.2,2.2,14.2c3.8,5.1,28.1,1.9,28.1,1.9s-5.2,7.5-2,18.6s15,20.6,20.7,18.4s2.3-19.7-1.4-25.4
								c-3.7-5.7-7.1-13.1-7.1-13.1l21.4,1.7c0,0,6.3,1.9,13.8-2.9c7.4-4.9,10.1-8.6,6.1-14.6c-3.9-6-17.2-5.4-24.1,0.3
								C546.6,287.7,537.1,289.4,537.1,289.4z"/>
							<path class="st3" d="M533.4,272.9c0,0,4.3-6.8-4.3-23.5s-23.7-40.2-23.7-40.2l4.3-2.8c0,0,20.7,34.5,22.9,40.8
								C535.3,255.1,541.8,263.2,533.4,272.9z"/>
							<circle class="st3" cx="543" cy="236.7" r="2"/>
							<circle class="st3" cx="552.7" cy="230.4" r="2"/>
							<circle class="st3" cx="549.7" cy="239.8" r="2"/>
							<circle class="st3" cx="541.6" cy="228.8" r="2"/>
							<circle class="st3" cx="535.8" cy="235" r="2"/>
							<circle class="st3" cx="532.1" cy="227.2" r="2"/>
							<circle class="st3" cx="547.2" cy="214.9" r="2"/>
							<circle class="st3" cx="538" cy="249.8" r="2"/>
						</g>
						<g>
							<path class="st3" d="M330.8,146c0,0-23.3-1.3-30.1,4.2s-18.6,26.3-10.6,26.3c8.1,0,27.1-16.5,34.3-21.2s14.8-10.6,11.9-5.1
								s-10.6,8.1-9.7,16.5c0.8,8.5,11,19.5,14,16.5s8.1-17,8.1-18.5s-5.1-15.4-5.1-15.4s14.4,18.2,18.2,24.6
								c3.8,6.4,6.4-6.8,5.9-13.1c-0.4-6.4-22.5-17-22.5-17s8.5-3.4,11.9-14.4s-1.3-25.4-7.2-26.7c-5.9-1.3-12.7,15.3-12.7,22
								s-1.3,14.8-1.3,14.8l-17-13.1c0,0-4.2-5.1-13.1-5.1s-13.1,1.7-13.1,8.9s11.4,14,20.3,12.9S330.8,146,330.8,146z"/>
							<path class="st3" d="M324.8,161.8c0,0-7.3,3.3-9.2,22s-2.2,46.7-2.2,46.7h-5.1c0,0,1.6-40.2,3.2-46.7
								C313.4,175.6,312.4,165.3,324.8,161.8z"/>
							<circle class="st3" cx="296.9" cy="186.7" r="2"/>
							<circle class="st3" cx="285.4" cy="186.7" r="2"/>
							<circle class="st3" cx="293" cy="180.5" r="2"/>
							<circle class="st3" cx="293.9" cy="194.1" r="2"/>
							<circle class="st3" cx="302.1" cy="192.2" r="2"/>
							<circle class="st3" cx="300.8" cy="200.7" r="2"/>
							<circle class="st3" cx="281.5" cy="202.7" r="2"/>
							<circle class="st3" cx="308.3" cy="178.6" r="2"/>
						</g>
						<g>
							<path class="st3" d="M402.5,196.6c0,0,20.2-11.7,22.8-20c2.7-8.3,1.2-32.2-5.5-27.8s-13.6,28.7-17.1,36.5s-6.6,17-7.1,10.8
								s4.4-12.5-0.9-19.2c-5.4-6.6-19.9-10.3-20.8-6.2s2.6,18.6,3.4,19.9c0.8,1.2,12.7,10.1,12.7,10.1s-22-7.3-28.7-10.6
								c-6.7-3.2-1.6,9.2,2.2,14.2c3.8,5.1,28.1,1.9,28.1,1.9s-5.2,7.5-2,18.6s15,20.6,20.7,18.4c5.7-2.2,2.3-19.7-1.4-25.4
								c-3.7-5.7-7.1-13.1-7.1-13.1l21.4,1.7c0,0,6.3,1.9,13.8-2.9c7.4-4.9,10.1-8.6,6.1-14.6c-3.9-6-17.2-5.4-24.1,0.3
								C412,194.9,402.5,196.6,402.5,196.6z"/>
							<path class="st3" d="M398.8,180.1c0,0,4.3-6.8-4.3-23.5s-23.7-40.2-23.7-40.2l4.3-2.8c0,0,20.7,34.5,22.9,40.8
								C400.8,162.3,407.3,170.4,398.8,180.1z"/>
							<circle class="st3" cx="408.5" cy="143.9" r="2"/>
							<circle class="st3" cx="418.1" cy="137.6" r="2"/>
							<circle class="st3" cx="415.2" cy="147" r="2"/>
							<circle class="st3" cx="407" cy="136" r="2"/>
							<circle class="st3" cx="401.2" cy="142.2" r="2"/>
							<circle class="st3" cx="397.5" cy="134.4" r="2"/>
							<circle class="st3" cx="412.6" cy="122.1" r="2"/>
							<circle class="st3" cx="403.4" cy="157" r="2"/>
						</g>
						<g>
							<path class="st3" d="M196.2,53.2c0,0-23.3-1.3-30.1,4.2s-18.6,26.3-10.6,26.3s27.1-16.5,34.3-21.2s14.8-10.6,11.9-5.1
								c-3,5.5-10.6,8.1-9.7,16.5c0.8,8.5,11,19.5,14,16.5s8.1-17,8.1-18.5S209,56.5,209,56.5s14.4,18.2,18.2,24.6s6.4-6.8,5.9-13.1
								c-0.4-6.4-22.5-17-22.5-17s8.5-3.4,11.9-14.4s-1.3-25.4-7.2-26.7s-12.7,15.3-12.7,22s-1.3,14.8-1.3,14.8l-17-13.1
								c0,0-4.2-5.1-13.1-5.1s-13.1,1.7-13.1,8.9s11.4,14,20.3,12.9C187.3,49.4,196.2,53.2,196.2,53.2z"/>
							<path class="st3" d="M190.3,69c0,0-7.3,3.3-9.2,22s-2.2,46.7-2.2,46.7h-5.1c0,0,1.6-40.2,3.2-46.7
								C178.9,82.8,177.9,72.5,190.3,69z"/>
							<circle class="st3" cx="162.4" cy="93.9" r="2"/>
							<circle class="st3" cx="150.9" cy="93.9" r="2"/>
							<circle class="st3" cx="158.4" cy="87.7" r="2"/>
							<circle class="st3" cx="159.3" cy="101.3" r="2"/>
							<circle class="st3" cx="167.5" cy="99.4" r="2"/>
							<circle class="st3" cx="166.3" cy="107.9" r="2"/>
							<circle class="st3" cx="147" cy="109.9" r="2"/>
							<circle class="st3" cx="173.8" cy="85.8" r="2"/>
						</g>
						<g>
							<path class="st3" d="M267.9,103.8c0,0,20.2-11.7,22.8-20c2.7-8.3,1.2-32.2-5.5-27.8c-6.7,4.4-13.6,28.7-17.1,36.5
								s-6.6,17-7.1,10.8s4.4-12.5-0.9-19.2c-5.4-6.6-19.9-10.3-20.8-6.2c-0.9,4.1,2.6,18.6,3.4,19.9s12.7,10.1,12.7,10.1
								s-22-7.3-28.7-10.6s-1.6,9.2,2.2,14.2c3.8,5.1,28.1,1.9,28.1,1.9s-5.2,7.5-2,18.6c3.2,11.1,15,20.6,20.7,18.4
								c5.7-2.2,2.3-19.7-1.4-25.4c-3.7-5.7-7.1-13.1-7.1-13.1l21.4,1.7c0,0,6.3,1.9,13.8-2.9s10.1-8.6,6.1-14.6s-17.2-5.4-24.1,0.3
								C277.5,102.1,267.9,103.8,267.9,103.8z"/>
							<path class="st3" d="M264.3,87.3c0,0,4.3-6.8-4.3-23.5s-23.7-40.2-23.7-40.2l4.3-2.8c0,0,20.7,34.5,22.9,40.8
								C266.2,69.5,272.7,77.6,264.3,87.3z"/>
							<circle class="st3" cx="273.9" cy="51.1" r="2"/>
							<circle class="st3" cx="283.5" cy="44.8" r="2"/>
							<circle class="st3" cx="280.6" cy="54.2" r="2"/>
							<circle class="st3" cx="272.4" cy="43.3" r="2"/>
							<circle class="st3" cx="266.6" cy="49.4" r="2"/>
							<circle class="st3" cx="263" cy="41.6" r="2"/>
							<circle class="st3" cx="278.1" cy="29.3" r="2"/>
							<circle class="st3" cx="268.9" cy="64.2" r="2"/>
						</g>
						<g>
							<path class="st3" d="M448.2,363.1c0,0-23.3-1.3-30.1,4.2c-6.8,5.5-18.6,26.3-10.6,26.3c8.1,0,27.1-16.5,34.3-21.2
								s14.8-10.6,11.9-5.1c-3,5.5-10.6,8.1-9.7,16.5c0.8,8.5,11,19.5,14,16.5s8.1-17,8.1-18.5s-5.1-15.4-5.1-15.4
								s14.4,18.2,18.2,24.6c3.8,6.4,6.4-6.8,5.9-13.1c-0.4-6.4-22.5-17-22.5-17s8.5-3.4,11.9-14.4s-1.3-25.4-7.2-26.7
								c-5.9-1.3-12.7,15.3-12.7,22s-1.3,14.8-1.3,14.8l-17-13.1c0,0-4.2-5.1-13.1-5.1s-13.1,1.7-13.1,8.9s11.4,14,20.3,12.9
								S448.2,363.1,448.2,363.1z"/>
							<path class="st3" d="M442.3,378.9c0,0-7.3,3.3-9.2,22s-2.2,46.7-2.2,46.7h-5.1c0,0,1.6-40.2,3.2-46.7
								C430.9,392.7,429.9,382.4,442.3,378.9z"/>
							<circle class="st3" cx="414.3" cy="403.9" r="2"/>
							<circle class="st3" cx="402.8" cy="403.9" r="2"/>
							<circle class="st3" cx="410.4" cy="397.7" r="2"/>
							<circle class="st3" cx="411.3" cy="411.3" r="2"/>
							<circle class="st3" cx="419.5" cy="409.3" r="2"/>
							<circle class="st3" cx="418.3" cy="417.9" r="2"/>
							<circle class="st3" cx="398.9" cy="419.8" r="2"/>
							<circle class="st3" cx="425.7" cy="395.7" r="2"/>
						</g>
						<g>
							<path class="st3" d="M519.9,413.7c0,0,20.2-11.7,22.8-20c2.7-8.3,1.2-32.2-5.5-27.8s-13.6,28.7-17.1,36.5s-6.6,17-7.1,10.8
								s4.4-12.5-0.9-19.2c-5.4-6.6-19.9-10.3-20.8-6.2c-0.9,4.1,2.6,18.6,3.4,19.9c0.8,1.2,12.7,10.1,12.7,10.1s-22-7.3-28.7-10.6
								c-6.7-3.2-1.6,9.2,2.2,14.2c3.8,5.1,28.1,1.9,28.1,1.9s-5.2,7.5-2,18.6s15,20.6,20.7,18.4s2.3-19.7-1.4-25.4
								c-3.7-5.7-7.1-13.1-7.1-13.1l21.4,1.7c0,0,6.3,1.9,13.8-2.9c7.4-4.9,10.1-8.6,6.1-14.6c-3.9-6-17.2-5.4-24.1,0.3
								C529.5,412,519.9,413.7,519.9,413.7z"/>
							<path class="st3" d="M516.2,397.3c0,0,4.3-6.8-4.3-23.5c-8.6-16.7-23.7-40.2-23.7-40.2l4.3-2.8c0,0,20.7,34.5,22.9,40.8
								C518.2,379.4,524.7,387.5,516.2,397.3z"/>
							<circle class="st3" cx="525.9" cy="361.1" r="2"/>
							<circle class="st3" cx="535.5" cy="354.8" r="2"/>
							<circle class="st3" cx="532.6" cy="364.1" r="2"/>
							<circle class="st3" cx="524.4" cy="353.2" r="2"/>
							<circle class="st3" cx="518.6" cy="359.3" r="2"/>
							<circle class="st3" cx="515" cy="351.5" r="2"/>
							<circle class="st3" cx="530.1" cy="339.3" r="2"/>
							<circle class="st3" cx="520.8" cy="374.1" r="2"/>
						</g>
						<g>
							<path class="st3" d="M313.6,270.3c0,0-23.3-1.3-30.1,4.2c-6.8,5.5-18.6,26.3-10.6,26.3s27.1-16.5,34.3-21.2
								s14.8-10.6,11.9-5.1c-3,5.5-10.6,8.1-9.7,16.5c0.8,8.5,11,19.5,14,16.5s8.1-17,8.1-18.5s-5.1-15.4-5.1-15.4
								s14.4,18.2,18.2,24.6c3.8,6.4,6.4-6.8,5.9-13.1s-22.5-17-22.5-17s8.5-3.4,11.9-14.4s-1.3-25.4-7.2-26.7
								c-5.9-1.3-12.7,15.3-12.7,22s-1.3,14.8-1.3,14.8l-17-13.1c0,0-4.2-5.1-13.1-5.1s-13.1,1.7-13.1,8.9c0,7.2,11.4,14,20.3,12.9
								S313.6,270.3,313.6,270.3z"/>
							<path class="st3" d="M307.7,286.1c0,0-7.3,3.3-9.2,22s-2.2,46.7-2.2,46.7h-5.1c0,0,1.6-40.2,3.2-46.7
								C296.3,300,295.3,289.6,307.7,286.1z"/>
							<circle class="st3" cx="279.8" cy="311.1" r="2"/>
							<circle class="st3" cx="268.3" cy="311.1" r="2"/>
							<circle class="st3" cx="275.9" cy="304.9" r="2"/>
							<circle class="st3" cx="276.7" cy="318.5" r="2"/>
							<circle class="st3" cx="284.9" cy="316.5" r="2"/>
							<circle class="st3" cx="283.7" cy="325.1" r="2"/>
							<circle class="st3" cx="264.4" cy="327" r="2"/>
							<circle class="st3" cx="291.2" cy="302.9" r="2"/>
						</g>
						<g>
							<path class="st3" d="M385.4,320.9c0,0,20.2-11.7,22.8-20c2.7-8.3,1.2-32.2-5.5-27.8c-6.7,4.4-13.6,28.7-17.1,36.5
								s-6.6,17-7.1,10.8s4.4-12.5-0.9-19.2c-5.4-6.6-19.9-10.3-20.8-6.2c-0.9,4.1,2.6,18.6,3.4,19.9c0.8,1.2,12.7,10.1,12.7,10.1
								s-22-7.3-28.7-10.6c-6.7-3.2-1.6,9.2,2.2,14.2c3.8,5.1,28.1,1.9,28.1,1.9s-5.2,7.5-2,18.6s15,20.6,20.7,18.4
								s2.3-19.7-1.4-25.4c-3.7-5.7-7.1-13.1-7.1-13.1l21.4,1.7c0,0,6.3,1.9,13.8-2.9c7.4-4.9,10.1-8.6,6.1-14.6s-17.2-5.4-24.1,0.3
								C394.9,319.2,385.4,320.9,385.4,320.9z"/>
							<path class="st3" d="M381.7,304.5c0,0,4.3-6.8-4.3-23.5c-8.6-16.7-23.7-40.2-23.7-40.2l4.3-2.8c0,0,20.7,34.5,22.9,40.8
								C383.6,286.6,390.1,294.7,381.7,304.5z"/>
							<circle class="st3" cx="391.3" cy="268.3" r="2"/>
							<circle class="st3" cx="401" cy="262" r="2"/>
							<circle class="st3" cx="398" cy="271.3" r="2"/>
							<circle class="st3" cx="389.9" cy="260.4" r="2"/>
							<circle class="st3" cx="384.1" cy="266.5" r="2"/>
							<circle class="st3" cx="380.4" cy="258.7" r="2"/>
							<circle class="st3" cx="395.5" cy="246.5" r="2"/>
							<circle class="st3" cx="386.3" cy="281.4" r="2"/>
						</g>
						<g>
							<path class="st3" d="M179.1,177.5c0,0-23.3-1.3-30.1,4.2S130.3,208,138.4,208s27.1-16.5,34.3-21.2s14.8-10.6,11.9-5.1
								c-3,5.5-10.6,8.1-9.7,16.5c0.8,8.5,11,19.5,14,16.5s8.1-17,8.1-18.5s-5.1-15.4-5.1-15.4s14.4,18.2,18.2,24.6
								c3.8,6.4,6.4-6.8,5.9-13.1c-0.4-6.4-22.5-17-22.5-17s8.5-3.4,11.9-14.4s-1.3-25.4-7.2-26.7s-12.7,15.3-12.7,22
								s-1.3,14.8-1.3,14.8l-17-13.1c0,0-4.2-5.1-13.1-5.1c-8.9,0-13.1,1.7-13.1,8.9s11.4,14,20.3,12.9S179.1,177.5,179.1,177.5z"/>
							<path class="st3" d="M173.1,193.3c0,0-7.3,3.3-9.2,22s-2.2,46.7-2.2,46.7h-5.1c0,0,1.6-40.2,3.2-46.7
								C161.7,207.2,160.7,196.8,173.1,193.3z"/>
							<circle class="st3" cx="145.2" cy="218.3" r="2"/>
							<circle class="st3" cx="133.7" cy="218.3" r="2"/>
							<circle class="st3" cx="141.3" cy="212.1" r="2"/>
							<circle class="st3" cx="142.2" cy="225.7" r="2"/>
							<circle class="st3" cx="150.4" cy="223.7" r="2"/>
							<circle class="st3" cx="149.1" cy="232.3" r="2"/>
							<circle class="st3" cx="129.8" cy="234.2" r="2"/>
							<circle class="st3" cx="156.6" cy="210.1" r="2"/>
						</g>
						<g>
							<path class="st3" d="M250.8,228.1c0,0,20.2-11.7,22.8-20c2.7-8.3,1.2-32.2-5.5-27.8S254.5,209,251,216.8s-6.6,17-7.1,10.8
								s4.4-12.5-0.9-19.2c-5.4-6.6-19.9-10.3-20.8-6.2c-0.9,4.1,2.6,18.6,3.4,19.9c0.8,1.2,12.7,10.1,12.7,10.1s-22-7.3-28.7-10.6
								c-6.7-3.2-1.6,9.2,2.2,14.2c3.8,5,28.1,1.9,28.1,1.9s-5.2,7.5-2,18.6c3.2,11.1,15,20.6,20.7,18.4s2.3-19.7-1.4-25.4
								c-3.7-5.7-7.1-13.1-7.1-13.1l21.4,1.7c0,0,6.3,1.9,13.8-2.9c7.4-4.9,10.1-8.6,6.1-14.6s-17.2-5.4-24.1,0.3
								C260.3,226.4,250.8,228.1,250.8,228.1z"/>
							<path class="st3" d="M247.1,211.7c0,0,4.3-6.8-4.3-23.5S219.1,148,219.1,148l4.3-2.8c0,0,20.7,34.5,22.9,40.8
								C249.1,193.8,255.6,201.9,247.1,211.7z"/>
							<circle class="st3" cx="256.8" cy="175.5" r="2"/>
							<circle class="st3" cx="266.4" cy="169.2" r="2"/>
							<circle class="st3" cx="263.5" cy="178.5" r="2"/>
							
								<ellipse transform="matrix(0.1602 -0.9871 0.9871 0.1602 48.9695 392.7568)" class="st3" cx="255.3" cy="167.6" rx="2" ry="2"/>
							<circle class="st3" cx="249.5" cy="173.7" r="2"/>
							<circle class="st3" cx="245.8" cy="165.9" r="2"/>
							<circle class="st3" cx="260.9" cy="153.7" r="2"/>
							<circle class="st3" cx="251.7" cy="188.6" r="2"/>
						</g>
						<g>
							<path class="st3" d="M431.1,487.5c0,0-23.3-1.3-30.1,4.2c-6.8,5.5-18.6,26.3-10.6,26.3c8.1,0,27.1-16.5,34.3-21.2
								s14.8-10.6,11.9-5.1c-3,5.5-10.6,8.1-9.7,16.5c0.8,8.5,11,19.5,14,16.5s8.1-17,8.1-18.5s-5.1-15.4-5.1-15.4
								s14.4,18.2,18.2,24.6c3.8,6.4,6.4-6.8,5.9-13.1c-0.4-6.4-22.5-17-22.5-17s8.5-3.4,11.9-14.4s-1.3-25.4-7.2-26.7
								c-5.9-1.3-12.7,15.3-12.7,22s-1.3,14.8-1.3,14.8l-17-13.1c0,0-4.2-5.1-13.1-5.1s-13.1,1.7-13.1,8.9s11.4,14,20.3,12.9
								S431.1,487.5,431.1,487.5z"/>
							<path class="st3" d="M425.1,503.3c0,0-7.3,3.3-9.2,22s-2.2,46.7-2.2,46.7h-5.1c0,0,1.6-40.2,3.2-46.7
								C413.7,517.1,412.7,506.8,425.1,503.3z"/>
							<circle class="st3" cx="397.2" cy="528.2" r="2"/>
							<circle class="st3" cx="385.7" cy="528.2" r="2"/>
							<circle class="st3" cx="393.3" cy="522" r="2"/>
							<circle class="st3" cx="394.1" cy="535.6" r="2"/>
							<circle class="st3" cx="402.3" cy="533.7" r="2"/>
							<circle class="st3" cx="401.1" cy="542.2" r="2"/>
							<circle class="st3" cx="381.8" cy="544.2" r="2"/>
							<circle class="st3" cx="408.6" cy="520" r="2"/>
						</g>
						<g>
							<path class="st3" d="M502.8,538.1c0,0,20.2-11.7,22.8-20s1.2-32.2-5.5-27.8c-6.7,4.4-13.6,28.7-17.1,36.5s-6.6,17-7.1,10.8
								s4.4-12.5-0.9-19.2c-5.4-6.6-19.9-10.3-20.8-6.2s2.6,18.6,3.4,19.9s12.7,10.1,12.7,10.1s-22-7.3-28.7-10.6
								c-6.7-3.2-1.6,9.2,2.2,14.2c3.8,5.1,28.1,1.9,28.1,1.9s-5.2,7.5-2,18.6s15,20.6,20.7,18.4c5.7-2.2,2.3-19.7-1.4-25.4
								s-7.1-13.1-7.1-13.1l21.4,1.7c0,0,6.3,1.9,13.8-2.9c7.4-4.9,10.1-8.6,6.1-14.6c-3.9-6-17.2-5.4-24.1,0.3
								C512.3,536.4,502.8,538.1,502.8,538.1z"/>
							<path class="st3" d="M499.1,521.6c0,0,4.3-6.8-4.3-23.5c-8.6-16.7-23.7-40.2-23.7-40.2l4.3-2.8c0,0,20.7,34.5,22.9,40.8
								C501,503.8,507.5,511.9,499.1,521.6z"/>
							<circle class="st3" cx="508.8" cy="485.4" r="2"/>
							<circle class="st3" cx="518.4" cy="479.1" r="2"/>
							<circle class="st3" cx="515.4" cy="488.5" r="2"/>
							<circle class="st3" cx="507.3" cy="477.5" r="2"/>
							<circle class="st3" cx="501.5" cy="483.7" r="2"/>
							<circle class="st3" cx="497.8" cy="475.9" r="2"/>
							<circle class="st3" cx="512.9" cy="463.6" r="2"/>
							<circle class="st3" cx="503.7" cy="498.5" r="2"/>
						</g>
						<g>
							<path class="st3" d="M296.5,394.7c0,0-23.3-1.3-30.1,4.2c-6.8,5.5-18.6,26.3-10.6,26.3c8.1,0,27.1-16.5,34.3-21.2
								c7.2-4.7,14.8-10.6,11.9-5.1c-3,5.5-10.6,8.1-9.7,16.5c0.8,8.5,11,19.5,14,16.5s8.1-17,8.1-18.5s-5.1-15.4-5.1-15.4
								s14.4,18.2,18.2,24.6c3.8,6.4,6.4-6.8,5.9-13.1c-0.4-6.4-22.5-17-22.5-17s8.5-3.4,11.9-14.4s-1.3-25.4-7.2-26.7
								c-5.9-1.3-12.7,15.3-12.7,22s-1.3,14.8-1.3,14.8l-17-13.1c0,0-4.2-5.1-13.1-5.1s-13.1,1.7-13.1,8.9c0,7.2,11.4,14,20.3,12.9
								S296.5,394.7,296.5,394.7z"/>
							<path class="st3" d="M290.6,410.5c0,0-7.3,3.3-9.2,22c-1.9,18.7-2.2,46.7-2.2,46.7H274c0,0,1.6-40.2,3.2-46.7
								C279.2,424.3,278.2,414,290.6,410.5z"/>
							<circle class="st3" cx="262.6" cy="435.4" r="2"/>
							<circle class="st3" cx="251.1" cy="435.4" r="2"/>
							<circle class="st3" cx="258.7" cy="429.2" r="2"/>
							<circle class="st3" cx="259.6" cy="442.8" r="2"/>
							<circle class="st3" cx="267.8" cy="440.9" r="2"/>
							<circle class="st3" cx="266.6" cy="449.4" r="2"/>
							<circle class="st3" cx="247.2" cy="451.4" r="2"/>
							<circle class="st3" cx="274" cy="427.3" r="2"/>
						</g>
						<g>
							<path class="st3" d="M368.2,445.3c0,0,20.2-11.7,22.8-20c2.7-8.3,1.2-32.2-5.5-27.8c-6.7,4.4-13.6,28.7-17.1,36.5
								s-6.6,17-7.1,10.8s4.4-12.5-0.9-19.2c-5.4-6.6-19.9-10.3-20.8-6.2s2.6,18.6,3.4,19.9s12.7,10.1,12.7,10.1s-22-7.3-28.7-10.6
								c-6.7-3.2-1.6,9.2,2.2,14.2c3.8,5.1,28.1,1.9,28.1,1.9s-5.2,7.5-2,18.6s15,20.6,20.7,18.4s2.3-19.7-1.4-25.4
								c-3.7-5.7-7.1-13.1-7.1-13.1l21.4,1.7c0,0,6.3,1.9,13.8-2.9c7.4-4.9,10.1-8.6,6.1-14.6s-17.2-5.4-24.1,0.3
								C377.8,443.6,368.2,445.3,368.2,445.3z"/>
							<path class="st3" d="M364.5,428.8c0,0,4.3-6.8-4.3-23.5c-8.6-16.7-23.7-40.2-23.7-40.2l4.3-2.8c0,0,20.7,34.5,22.9,40.8
								C366.5,411,373,419.1,364.5,428.8z"/>
							<circle class="st3" cx="374.2" cy="392.6" r="2"/>
							<circle class="st3" cx="383.8" cy="386.3" r="2"/>
							<circle class="st3" cx="380.9" cy="395.7" r="2"/>
							<circle class="st3" cx="372.7" cy="384.7" r="2"/>
							<circle class="st3" cx="366.9" cy="390.9" r="2"/>
							<circle class="st3" cx="363.3" cy="383.1" r="2"/>
							<circle class="st3" cx="378.4" cy="370.8" r="2"/>
							<circle class="st3" cx="369.1" cy="405.7" r="2"/>
						</g>
						<g>
							<path class="st3" d="M161.9,301.9c0,0-23.3-1.3-30.1,4.2s-18.6,26.3-10.6,26.3s27.1-16.5,34.3-21.2s14.8-10.6,11.9-5.1
								c-3,5.5-10.6,8.1-9.7,16.5c0.8,8.5,11,19.5,14,16.5s8.1-17,8.1-18.5s-5.1-15.4-5.1-15.4s14.4,18.2,18.2,24.6
								s6.4-6.8,5.9-13.1c-0.4-6.4-22.5-17-22.5-17s8.5-3.4,11.9-14.4s-1.3-25.4-7.2-26.7c-5.9-1.3-12.7,15.3-12.7,22
								c0,6.8-1.3,14.8-1.3,14.8l-17-13.1c0,0-4.2-5.1-13.1-5.1s-13.1,1.7-13.1,8.9s11.4,14,20.3,12.9
								C153,298.1,161.9,301.9,161.9,301.9z"/>
							<path class="st3" d="M156,317.7c0,0-7.3,3.3-9.2,22s-2.2,46.7-2.2,46.7h-5.1c0,0,1.6-40.2,3.2-46.7
								C144.6,331.5,143.6,321.2,156,317.7z"/>
							<circle class="st3" cx="128.1" cy="342.6" r="2"/>
							<circle class="st3" cx="116.6" cy="342.6" r="2"/>
							<circle class="st3" cx="124.2" cy="336.4" r="2"/>
							<circle class="st3" cx="125" cy="350" r="2"/>
							<circle class="st3" cx="133.2" cy="348.1" r="2"/>
							<circle class="st3" cx="132" cy="356.6" r="2"/>
							<circle class="st3" cx="112.7" cy="358.6" r="2"/>
							<circle class="st3" cx="139.5" cy="334.5" r="2"/>
						</g>
						<g>
							<path class="st3" d="M233.7,352.5c0,0,20.2-11.7,22.8-20c2.7-8.3,1.2-32.2-5.5-27.8c-6.7,4.4-13.6,28.7-17.1,36.5
								s-6.6,17-7.1,10.8s4.4-12.5-0.9-19.2s-19.9-10.3-20.8-6.2c-0.9,4.1,2.6,18.6,3.4,19.9c0.8,1.2,12.7,10.1,12.7,10.1
								s-22-7.3-28.7-10.6s-1.6,9.2,2.2,14.2c3.8,5.1,28.1,1.9,28.1,1.9s-5.2,7.5-2,18.6s15,20.6,20.7,18.4s2.3-19.7-1.4-25.4
								s-7.1-13.1-7.1-13.1l21.4,1.7c0,0,6.3,1.9,13.8-2.9c7.4-4.9,10.1-8.6,6.1-14.6c-3.9-6-17.2-5.4-24.1,0.3
								C243.2,350.8,233.7,352.5,233.7,352.5z"/>
							<path class="st3" d="M230,336c0,0,4.3-6.8-4.3-23.5S202,272.3,202,272.3l4.3-2.8c0,0,20.7,34.5,22.9,40.8
								C231.9,318.2,238.4,326.3,230,336z"/>
							<circle class="st3" cx="239.6" cy="299.8" r="2"/>
							<circle class="st3" cx="249.3" cy="293.5" r="2"/>
							<circle class="st3" cx="246.3" cy="302.9" r="2"/>
							<circle class="st3" cx="238.2" cy="292" r="2"/>
							<circle class="st3" cx="232.4" cy="298.1" r="2"/>
							<circle class="st3" cx="228.7" cy="290.3" r="2"/>
							<circle class="st3" cx="243.8" cy="278" r="2"/>
							<circle class="st3" cx="234.6" cy="312.9" r="2"/>
						</g>
						<g>
							<path class="st3" d="M413.9,611.8c0,0-23.3-1.3-30.1,4.2s-18.6,26.3-10.6,26.3c8.1,0,27.1-16.5,34.3-21.2s14.8-10.6,11.9-5.1
								c-3,5.5-10.6,8.1-9.7,16.5c0.8,8.5,11,19.5,14,16.5s8.1-17,8.1-18.5s-5.1-15.4-5.1-15.4s14.4,18.2,18.2,24.6
								c3.8,6.4,6.4-6.8,5.9-13.1c-0.4-6.4-22.5-17-22.5-17s8.5-3.4,11.9-14.4s-1.3-25.4-7.2-26.7c-5.9-1.3-12.7,15.3-12.7,22
								c0,6.8-1.3,14.8-1.3,14.8l-17-13.1c0,0-4.2-5.1-13.1-5.1s-13.1,1.7-13.1,8.9s11.4,14,20.3,12.9
								C405,608,413.9,611.8,413.9,611.8z"/>
							<path class="st3" d="M408,627.6c0,0-7.3,3.3-9.2,22c-1.9,18.7-2.2,46.7-2.2,46.7h-5.1c0,0,1.6-40.2,3.2-46.7
								C396.6,641.4,395.6,631.1,408,627.6z"/>
							<circle class="st3" cx="380.1" cy="652.6" r="2"/>
							<circle class="st3" cx="368.6" cy="652.6" r="2"/>
							<circle class="st3" cx="376.1" cy="646.4" r="2"/>
							<circle class="st3" cx="377" cy="660" r="2"/>
							<circle class="st3" cx="385.2" cy="658" r="2"/>
							<circle class="st3" cx="384" cy="666.6" r="2"/>
							<circle class="st3" cx="364.6" cy="668.5" r="2"/>
							<circle class="st3" cx="391.4" cy="644.4" r="2"/>
						</g>
						<g>
							<path class="st3" d="M485.6,662.4c0,0,20.2-11.7,22.8-20c2.7-8.3,1.2-32.2-5.5-27.8s-13.6,28.7-17.1,36.5s-6.6,17-7.1,10.8
								s4.4-12.5-0.9-19.2c-5.4-6.6-19.9-10.3-20.8-6.2s2.6,18.6,3.4,19.9s12.7,10.1,12.7,10.1s-22-7.3-28.7-10.6
								c-6.7-3.2-1.6,9.2,2.2,14.2s28.1,1.9,28.1,1.9s-5.2,7.5-2,18.6s15,20.6,20.7,18.4c5.7-2.2,2.3-19.7-1.4-25.4
								c-3.7-5.7-7.1-13.1-7.1-13.1l21.4,1.7c0,0,6.3,1.9,13.8-2.9c7.4-4.9,10.1-8.6,6.1-14.6c-3.9-6-17.2-5.4-24.1,0.3
								C495.2,660.7,485.6,662.4,485.6,662.4z"/>
							<path class="st3" d="M481.9,646c0,0,4.3-6.8-4.3-23.5s-23.7-40.2-23.7-40.2l4.3-2.8c0,0,20.7,34.5,22.9,40.8
								C483.9,628.1,490.4,636.2,481.9,646z"/>
							<circle class="st3" cx="491.6" cy="609.8" r="2"/>
							<circle class="st3" cx="501.2" cy="603.5" r="2"/>
							<circle class="st3" cx="498.3" cy="612.8" r="2"/>
							<circle class="st3" cx="490.1" cy="601.9" r="2"/>
							<circle class="st3" cx="484.3" cy="608" r="2"/>
							<circle class="st3" cx="480.7" cy="600.2" r="2"/>
							<circle class="st3" cx="495.8" cy="588" r="2"/>
							<circle class="st3" cx="486.6" cy="622.8" r="2"/>
						</g>
						<g>
							<path class="st3" d="M279.4,519c0,0-23.3-1.3-30.1,4.2s-18.6,26.3-10.6,26.3s27.1-16.5,34.3-21.2c7.2-4.7,14.8-10.6,11.9-5.1
								s-10.6,8.1-9.7,16.5c0.8,8.5,11,19.5,14,16.5s8.1-17,8.1-18.5s-5.1-15.4-5.1-15.4s14.4,18.2,18.2,24.6
								c3.8,6.4,6.4-6.8,5.9-13.1c-0.4-6.4-22.5-17-22.5-17s8.5-3.4,11.9-14.4s-1.3-25.4-7.2-26.7c-5.9-1.3-12.7,15.3-12.7,22
								c0,6.8-1.3,14.8-1.3,14.8l-17-13.1c0,0-4.2-5.1-13.1-5.1s-13.1,1.7-13.1,8.9c0,7.2,11.4,14,20.3,12.9
								C270.5,515.2,279.4,519,279.4,519z"/>
							<path class="st3" d="M273.4,534.8c0,0-7.3,3.3-9.2,22c-1.9,18.7-2.2,46.7-2.2,46.7h-5.1c0,0,1.6-40.2,3.2-46.7
								C262,548.7,261,538.3,273.4,534.8z"/>
							<circle class="st3" cx="245.5" cy="559.8" r="2"/>
							<circle class="st3" cx="234" cy="559.8" r="2"/>
							<circle class="st3" cx="241.6" cy="553.6" r="2"/>
							<circle class="st3" cx="242.4" cy="567.2" r="2"/>
							<circle class="st3" cx="250.6" cy="565.2" r="2"/>
							<circle class="st3" cx="249.4" cy="573.8" r="2"/>
							<circle class="st3" cx="230.1" cy="575.7" r="2"/>
							<circle class="st3" cx="256.9" cy="551.6" r="2"/>
						</g>
						<g>
							<path class="st3" d="M351.1,569.6c0,0,20.2-11.7,22.8-20c2.7-8.3,1.2-32.2-5.5-27.8s-13.6,28.7-17.1,36.5s-6.6,17-7.1,10.8
								s4.4-12.5-0.9-19.2c-5.4-6.6-19.9-10.3-20.8-6.2s2.6,18.6,3.4,19.9s12.7,10.1,12.7,10.1s-22-7.3-28.7-10.6
								c-6.7-3.2-1.6,9.2,2.2,14.2s28.1,1.9,28.1,1.9s-5.2,7.5-2,18.6s15,20.6,20.7,18.4c5.7-2.2,2.3-19.7-1.4-25.4
								c-3.7-5.7-7.1-13.1-7.1-13.1l21.4,1.7c0,0,6.3,1.9,13.8-2.9c7.4-4.9,10.1-8.6,6.1-14.6c-3.9-6-17.2-5.4-24.1,0.3
								C360.6,567.9,351.1,569.6,351.1,569.6z"/>
							<path class="st3" d="M347.4,553.2c0,0,4.3-6.8-4.3-23.5s-23.7-40.2-23.7-40.2l4.3-2.8c0,0,20.7,34.5,22.9,40.8
								C349.3,535.3,355.8,543.4,347.4,553.2z"/>
							<circle class="st3" cx="357.1" cy="517" r="2"/>
							<circle class="st3" cx="366.7" cy="510.7" r="2"/>
							<circle class="st3" cx="363.7" cy="520" r="2"/>
							<circle class="st3" cx="355.6" cy="509.1" r="2"/>
							<circle class="st3" cx="349.8" cy="515.2" r="2"/>
							<circle class="st3" cx="346.1" cy="507.4" r="2"/>
							<circle class="st3" cx="361.2" cy="495.2" r="2"/>
							<circle class="st3" cx="352" cy="530" r="2"/>
						</g>
						<g>
							<path class="st3" d="M144.8,426.2c0,0-23.3-1.3-30.1,4.2c-6.8,5.5-18.6,26.3-10.6,26.3s27.1-16.5,34.3-21.2
								s14.8-10.6,11.9-5.1c-3,5.5-10.6,8.1-9.7,16.5s11,19.5,14,16.5s8.1-17,8.1-18.5s-5.1-15.4-5.1-15.4s14.4,18.2,18.2,24.6
								s6.4-6.8,5.9-13.1c-0.4-6.4-22.5-17-22.5-17s8.5-3.4,11.9-14.4s-1.3-25.4-7.2-26.7c-5.9-1.3-12.7,15.3-12.7,22
								s-1.3,14.8-1.3,14.8l-17-13.1c0,0-4.2-5.1-13.1-5.1s-13.1,1.7-13.1,8.9s11.4,14,20.3,12.9S144.8,426.2,144.8,426.2z"/>
							<path class="st3" d="M138.9,442c0,0-7.3,3.3-9.2,22c-1.9,18.7-2.2,46.7-2.2,46.7h-5.1c0,0,1.6-40.2,3.2-46.7
								C127.5,455.9,126.5,445.5,138.9,442z"/>
							<circle class="st3" cx="110.9" cy="467" r="2"/>
							<circle class="st3" cx="99.4" cy="467" r="2"/>
							<circle class="st3" cx="107" cy="460.8" r="2"/>
							<circle class="st3" cx="107.9" cy="474.4" r="2"/>
							<circle class="st3" cx="116.1" cy="472.4" r="2"/>
							<circle class="st3" cx="114.9" cy="481" r="2"/>
							<circle class="st3" cx="95.5" cy="482.9" r="2"/>
							<circle class="st3" cx="122.3" cy="458.8" r="2"/>
						</g>
						<g>
							<path class="st3" d="M216.5,476.8c0,0,20.2-11.7,22.8-20c2.7-8.3,1.2-32.2-5.5-27.8c-6.7,4.4-13.6,28.7-17.1,36.5
								s-6.6,17-7.1,10.8s4.4-12.5-0.9-19.2s-19.9-10.3-20.8-6.2c-0.9,4.1,2.6,18.6,3.4,19.9C192.1,472,204,481,204,481
								s-22-7.3-28.7-10.6s-1.6,9.2,2.2,14.2c3.8,5.1,28.1,1.9,28.1,1.9s-5.2,7.5-2,18.6s15,20.6,20.7,18.4s2.3-19.7-1.4-25.4
								s-7.1-13.1-7.1-13.1l21.4,1.7c0,0,6.3,1.9,13.8-2.9c7.4-4.9,10.1-8.6,6.1-14.6c-3.9-6-17.2-5.4-24.1,0.3
								C226.1,475.1,216.5,476.8,216.5,476.8z"/>
							<path class="st3" d="M212.8,460.4c0,0,4.3-6.8-4.3-23.5s-23.7-40.2-23.7-40.2l4.3-2.8c0,0,20.7,34.5,22.9,40.8
								C214.8,442.5,221.3,450.6,212.8,460.4z"/>
							<circle class="st3" cx="222.5" cy="424.2" r="2"/>
							<circle class="st3" cx="232.1" cy="417.9" r="2"/>
							<circle class="st3" cx="229.2" cy="427.2" r="2"/>
							<circle class="st3" cx="221" cy="416.3" r="2"/>
							<circle class="st3" cx="215.2" cy="422.4" r="2"/>
							<circle class="st3" cx="211.6" cy="414.6" r="2"/>
							<circle class="st3" cx="226.7" cy="402.4" r="2"/>
							<circle class="st3" cx="217.5" cy="437.3" r="2"/>
						</g>
					</g>
				</g>
			</g>
			<g>
				<g>
					<defs>
						<path id="SVGID_00000178167890550278936670000010949070258180288935_" d="M304,435.6c5.6-6,5.8-14.5,5.8-14.5
							c-23.8-14.9-42.8-17.5-35.3-49c3.5-14.7,8.8-28.2,8.8-28.2l0,0c-0.3,0.1-0.6,0.3-0.9,0.4c-0.2,0.1-0.4,0.2-0.6,0.2
							c-0.3,0.1-0.7,0.3-1.1,0.4l0,0l0,0c-7.3,18.4-20.3,56.4-20.3,62.3l0,0c0,0.4-1.7,5.3-2,11.1c-0.3,5.3,0.9,12.5,3.4,17
							c2,3.5,7,6.6,8.8,7.3C285.3,448,297.8,442.3,304,435.6z"/>
					</defs>
					<clipPath id="SVGID_00000022553412135792656260000002682406118989692327_">
						<use xlink:href="#SVGID_00000178167890550278936670000010949070258180288935_"  style="overflow:visible;"/>
					</clipPath>
					<g style="clip-path:url(#SVGID_00000022553412135792656260000002682406118989692327_);">
						<g>
							<path class="st3" d="M465.3,238.8c0,0-23.3-1.3-30.1,4.2c-6.8,5.5-18.6,26.3-10.6,26.3c8.1,0,27.1-16.5,34.3-21.2
								c7.2-4.7,14.8-10.6,11.9-5.1c-3,5.5-10.6,8.1-9.7,16.5c0.8,8.5,11,19.5,14,16.5s8.1-17,8.1-18.5s-5.1-15.4-5.1-15.4
								s14.4,18.2,18.2,24.6c3.8,6.4,6.4-6.8,5.9-13.1c-0.4-6.4-22.5-17-22.5-17s8.5-3.4,11.9-14.4s-1.3-25.4-7.2-26.7
								c-5.9-1.3-12.7,15.3-12.7,22s-1.3,14.8-1.3,14.8l-17-13.1c0,0-4.2-5.1-13.1-5.1s-13.1,1.7-13.1,8.9s11.4,14,20.3,12.9
								C456.4,235,465.3,238.8,465.3,238.8z"/>
							<path class="st3" d="M459.4,254.6c0,0-7.3,3.3-9.2,22c-1.9,18.7-2.2,46.7-2.2,46.7h-5.1c0,0,1.6-40.2,3.2-46.7
								C448,268.4,447,258.1,459.4,254.6z"/>
							<circle class="st3" cx="431.5" cy="279.5" r="2"/>
							<circle class="st3" cx="420" cy="279.5" r="2"/>
							<circle class="st3" cx="427.6" cy="273.3" r="2"/>
							<circle class="st3" cx="428.4" cy="286.9" r="2"/>
							<circle class="st3" cx="436.6" cy="285" r="2"/>
							<circle class="st3" cx="435.4" cy="293.5" r="2"/>
							<circle class="st3" cx="416.1" cy="295.5" r="2"/>
							<circle class="st3" cx="442.9" cy="271.3" r="2"/>
						</g>
						<g>
							<path class="st3" d="M537.1,289.4c0,0,20.2-11.7,22.8-20s1.2-32.2-5.5-27.8c-6.7,4.4-13.6,28.7-17.1,36.5s-6.6,17-7.1,10.8
								s4.4-12.5-0.9-19.2c-5.4-6.6-19.9-10.3-20.8-6.2c-0.9,4.1,2.6,18.6,3.4,19.9c0.8,1.3,12.7,10.1,12.7,10.1s-22-7.3-28.7-10.6
								c-6.7-3.2-1.6,9.2,2.2,14.2c3.8,5.1,28.1,1.9,28.1,1.9s-5.2,7.5-2,18.6s15,20.6,20.7,18.4s2.3-19.7-1.4-25.4
								c-3.7-5.7-7.1-13.1-7.1-13.1l21.4,1.7c0,0,6.3,1.9,13.8-2.9c7.4-4.9,10.1-8.6,6.1-14.6c-3.9-6-17.2-5.4-24.1,0.3
								C546.6,287.7,537.1,289.4,537.1,289.4z"/>
							<path class="st3" d="M533.4,272.9c0,0,4.3-6.8-4.3-23.5s-23.7-40.2-23.7-40.2l4.3-2.8c0,0,20.7,34.5,22.9,40.8
								C535.3,255.1,541.8,263.2,533.4,272.9z"/>
							<circle class="st3" cx="543" cy="236.7" r="2"/>
							<circle class="st3" cx="552.7" cy="230.4" r="2"/>
							<circle class="st3" cx="549.7" cy="239.8" r="2"/>
							<circle class="st3" cx="541.6" cy="228.8" r="2"/>
							<circle class="st3" cx="535.8" cy="235" r="2"/>
							<circle class="st3" cx="532.1" cy="227.2" r="2"/>
							<circle class="st3" cx="547.2" cy="214.9" r="2"/>
							<circle class="st3" cx="538" cy="249.8" r="2"/>
						</g>
						<g>
							<path class="st3" d="M330.8,146c0,0-23.3-1.3-30.1,4.2s-18.6,26.3-10.6,26.3c8.1,0,27.1-16.5,34.3-21.2s14.8-10.6,11.9-5.1
								s-10.6,8.1-9.7,16.5c0.8,8.5,11,19.5,14,16.5s8.1-17,8.1-18.5s-5.1-15.4-5.1-15.4s14.4,18.2,18.2,24.6
								c3.8,6.4,6.4-6.8,5.9-13.1c-0.4-6.4-22.5-17-22.5-17s8.5-3.4,11.9-14.4s-1.3-25.4-7.2-26.7c-5.9-1.3-12.7,15.3-12.7,22
								s-1.3,14.8-1.3,14.8l-17-13.1c0,0-4.2-5.1-13.1-5.1s-13.1,1.7-13.1,8.9s11.4,14,20.3,12.9S330.8,146,330.8,146z"/>
							<path class="st3" d="M324.8,161.8c0,0-7.3,3.3-9.2,22s-2.2,46.7-2.2,46.7h-5.1c0,0,1.6-40.2,3.2-46.7
								C313.4,175.6,312.4,165.3,324.8,161.8z"/>
							<circle class="st3" cx="296.9" cy="186.7" r="2"/>
							<circle class="st3" cx="285.4" cy="186.7" r="2"/>
							<circle class="st3" cx="293" cy="180.5" r="2"/>
							<circle class="st3" cx="293.9" cy="194.1" r="2"/>
							<circle class="st3" cx="302.1" cy="192.2" r="2"/>
							<circle class="st3" cx="300.8" cy="200.7" r="2"/>
							<circle class="st3" cx="281.5" cy="202.7" r="2"/>
							<circle class="st3" cx="308.3" cy="178.6" r="2"/>
						</g>
						<g>
							<path class="st3" d="M402.5,196.6c0,0,20.2-11.7,22.8-20c2.7-8.3,1.2-32.2-5.5-27.8s-13.6,28.7-17.1,36.5s-6.6,17-7.1,10.8
								s4.4-12.5-0.9-19.2c-5.4-6.6-19.9-10.3-20.8-6.2s2.6,18.6,3.4,19.9c0.8,1.2,12.7,10.1,12.7,10.1s-22-7.3-28.7-10.6
								c-6.7-3.2-1.6,9.2,2.2,14.2c3.8,5.1,28.1,1.9,28.1,1.9s-5.2,7.5-2,18.6s15,20.6,20.7,18.4c5.7-2.2,2.3-19.7-1.4-25.4
								c-3.7-5.7-7.1-13.1-7.1-13.1l21.4,1.7c0,0,6.3,1.9,13.8-2.9c7.4-4.9,10.1-8.6,6.1-14.6c-3.9-6-17.2-5.4-24.1,0.3
								C412,194.9,402.5,196.6,402.5,196.6z"/>
							<path class="st3" d="M398.8,180.1c0,0,4.3-6.8-4.3-23.5s-23.7-40.2-23.7-40.2l4.3-2.8c0,0,20.7,34.5,22.9,40.8
								C400.8,162.3,407.3,170.4,398.8,180.1z"/>
							<circle class="st3" cx="408.5" cy="143.9" r="2"/>
							<circle class="st3" cx="418.1" cy="137.6" r="2"/>
							<circle class="st3" cx="415.2" cy="147" r="2"/>
							<circle class="st3" cx="407" cy="136" r="2"/>
							<circle class="st3" cx="401.2" cy="142.2" r="2"/>
							<circle class="st3" cx="397.5" cy="134.4" r="2"/>
							<circle class="st3" cx="412.6" cy="122.1" r="2"/>
							<circle class="st3" cx="403.4" cy="157" r="2"/>
						</g>
						<g>
							<path class="st3" d="M196.2,53.2c0,0-23.3-1.3-30.1,4.2s-18.6,26.3-10.6,26.3s27.1-16.5,34.3-21.2s14.8-10.6,11.9-5.1
								c-3,5.5-10.6,8.1-9.7,16.5c0.8,8.5,11,19.5,14,16.5s8.1-17,8.1-18.5S209,56.5,209,56.5s14.4,18.2,18.2,24.6s6.4-6.8,5.9-13.1
								c-0.4-6.4-22.5-17-22.5-17s8.5-3.4,11.9-14.4s-1.3-25.4-7.2-26.7s-12.7,15.3-12.7,22s-1.3,14.8-1.3,14.8l-17-13.1
								c0,0-4.2-5.1-13.1-5.1s-13.1,1.7-13.1,8.9s11.4,14,20.3,12.9C187.3,49.4,196.2,53.2,196.2,53.2z"/>
							<path class="st3" d="M190.3,69c0,0-7.3,3.3-9.2,22s-2.2,46.7-2.2,46.7h-5.1c0,0,1.6-40.2,3.2-46.7
								C178.9,82.8,177.9,72.5,190.3,69z"/>
							<circle class="st3" cx="162.4" cy="93.9" r="2"/>
							<circle class="st3" cx="150.9" cy="93.9" r="2"/>
							<circle class="st3" cx="158.4" cy="87.7" r="2"/>
							<circle class="st3" cx="159.3" cy="101.3" r="2"/>
							<circle class="st3" cx="167.5" cy="99.4" r="2"/>
							<circle class="st3" cx="166.3" cy="107.9" r="2"/>
							<circle class="st3" cx="147" cy="109.9" r="2"/>
							<circle class="st3" cx="173.8" cy="85.8" r="2"/>
						</g>
						<g>
							<path class="st3" d="M267.9,103.8c0,0,20.2-11.7,22.8-20c2.7-8.3,1.2-32.2-5.5-27.8c-6.7,4.4-13.6,28.7-17.1,36.5
								s-6.6,17-7.1,10.8s4.4-12.5-0.9-19.2c-5.4-6.6-19.9-10.3-20.8-6.2c-0.9,4.1,2.6,18.6,3.4,19.9s12.7,10.1,12.7,10.1
								s-22-7.3-28.7-10.6s-1.6,9.2,2.2,14.2c3.8,5.1,28.1,1.9,28.1,1.9s-5.2,7.5-2,18.6c3.2,11.1,15,20.6,20.7,18.4
								c5.7-2.2,2.3-19.7-1.4-25.4c-3.7-5.7-7.1-13.1-7.1-13.1l21.4,1.7c0,0,6.3,1.9,13.8-2.9s10.1-8.6,6.1-14.6s-17.2-5.4-24.1,0.3
								C277.5,102.1,267.9,103.8,267.9,103.8z"/>
							<path class="st3" d="M264.3,87.3c0,0,4.3-6.8-4.3-23.5s-23.7-40.2-23.7-40.2l4.3-2.8c0,0,20.7,34.5,22.9,40.8
								C266.2,69.5,272.7,77.6,264.3,87.3z"/>
							<circle class="st3" cx="273.9" cy="51.1" r="2"/>
							<circle class="st3" cx="283.5" cy="44.8" r="2"/>
							<circle class="st3" cx="280.6" cy="54.2" r="2"/>
							<circle class="st3" cx="272.4" cy="43.3" r="2"/>
							<circle class="st3" cx="266.6" cy="49.4" r="2"/>
							<circle class="st3" cx="263" cy="41.6" r="2"/>
							<circle class="st3" cx="278.1" cy="29.3" r="2"/>
							<circle class="st3" cx="268.9" cy="64.2" r="2"/>
						</g>
						<g>
							<path class="st3" d="M448.2,363.1c0,0-23.3-1.3-30.1,4.2c-6.8,5.5-18.6,26.3-10.6,26.3c8.1,0,27.1-16.5,34.3-21.2
								s14.8-10.6,11.9-5.1c-3,5.5-10.6,8.1-9.7,16.5c0.8,8.5,11,19.5,14,16.5s8.1-17,8.1-18.5s-5.1-15.4-5.1-15.4
								s14.4,18.2,18.2,24.6c3.8,6.4,6.4-6.8,5.9-13.1c-0.4-6.4-22.5-17-22.5-17s8.5-3.4,11.9-14.4s-1.3-25.4-7.2-26.7
								c-5.9-1.3-12.7,15.3-12.7,22s-1.3,14.8-1.3,14.8l-17-13.1c0,0-4.2-5.1-13.1-5.1s-13.1,1.7-13.1,8.9s11.4,14,20.3,12.9
								S448.2,363.1,448.2,363.1z"/>
							<path class="st3" d="M442.3,378.9c0,0-7.3,3.3-9.2,22s-2.2,46.7-2.2,46.7h-5.1c0,0,1.6-40.2,3.2-46.7
								C430.9,392.7,429.9,382.4,442.3,378.9z"/>
							<circle class="st3" cx="414.3" cy="403.9" r="2"/>
							<circle class="st3" cx="402.8" cy="403.9" r="2"/>
							<circle class="st3" cx="410.4" cy="397.7" r="2"/>
							<circle class="st3" cx="411.3" cy="411.3" r="2"/>
							<circle class="st3" cx="419.5" cy="409.3" r="2"/>
							<circle class="st3" cx="418.3" cy="417.9" r="2"/>
							<circle class="st3" cx="398.9" cy="419.8" r="2"/>
							<circle class="st3" cx="425.7" cy="395.7" r="2"/>
						</g>
						<g>
							<path class="st3" d="M519.9,413.7c0,0,20.2-11.7,22.8-20c2.7-8.3,1.2-32.2-5.5-27.8s-13.6,28.7-17.1,36.5s-6.6,17-7.1,10.8
								s4.4-12.5-0.9-19.2c-5.4-6.6-19.9-10.3-20.8-6.2c-0.9,4.1,2.6,18.6,3.4,19.9c0.8,1.2,12.7,10.1,12.7,10.1s-22-7.3-28.7-10.6
								c-6.7-3.2-1.6,9.2,2.2,14.2c3.8,5.1,28.1,1.9,28.1,1.9s-5.2,7.5-2,18.6s15,20.6,20.7,18.4s2.3-19.7-1.4-25.4
								c-3.7-5.7-7.1-13.1-7.1-13.1l21.4,1.7c0,0,6.3,1.9,13.8-2.9c7.4-4.9,10.1-8.6,6.1-14.6c-3.9-6-17.2-5.4-24.1,0.3
								C529.5,412,519.9,413.7,519.9,413.7z"/>
							<path class="st3" d="M516.2,397.3c0,0,4.3-6.8-4.3-23.5c-8.6-16.7-23.7-40.2-23.7-40.2l4.3-2.8c0,0,20.7,34.5,22.9,40.8
								C518.2,379.4,524.7,387.5,516.2,397.3z"/>
							<circle class="st3" cx="525.9" cy="361.1" r="2"/>
							<circle class="st3" cx="535.5" cy="354.8" r="2"/>
							<circle class="st3" cx="532.6" cy="364.1" r="2"/>
							<circle class="st3" cx="524.4" cy="353.2" r="2"/>
							<circle class="st3" cx="518.6" cy="359.3" r="2"/>
							<circle class="st3" cx="515" cy="351.5" r="2"/>
							<circle class="st3" cx="530.1" cy="339.3" r="2"/>
							<circle class="st3" cx="520.8" cy="374.1" r="2"/>
						</g>
						<g>
							<path class="st3" d="M313.6,270.3c0,0-23.3-1.3-30.1,4.2c-6.8,5.5-18.6,26.3-10.6,26.3s27.1-16.5,34.3-21.2
								s14.8-10.6,11.9-5.1c-3,5.5-10.6,8.1-9.7,16.5c0.8,8.5,11,19.5,14,16.5s8.1-17,8.1-18.5s-5.1-15.4-5.1-15.4
								s14.4,18.2,18.2,24.6c3.8,6.4,6.4-6.8,5.9-13.1s-22.5-17-22.5-17s8.5-3.4,11.9-14.4s-1.3-25.4-7.2-26.7
								c-5.9-1.3-12.7,15.3-12.7,22s-1.3,14.8-1.3,14.8l-17-13.1c0,0-4.2-5.1-13.1-5.1s-13.1,1.7-13.1,8.9c0,7.2,11.4,14,20.3,12.9
								S313.6,270.3,313.6,270.3z"/>
							<path class="st3" d="M307.7,286.1c0,0-7.3,3.3-9.2,22s-2.2,46.7-2.2,46.7h-5.1c0,0,1.6-40.2,3.2-46.7
								C296.3,300,295.3,289.6,307.7,286.1z"/>
							<circle class="st3" cx="279.8" cy="311.1" r="2"/>
							<circle class="st3" cx="268.3" cy="311.1" r="2"/>
							<circle class="st3" cx="275.9" cy="304.9" r="2"/>
							<circle class="st3" cx="276.7" cy="318.5" r="2"/>
							<circle class="st3" cx="284.9" cy="316.5" r="2"/>
							<circle class="st3" cx="283.7" cy="325.1" r="2"/>
							<circle class="st3" cx="264.4" cy="327" r="2"/>
							<circle class="st3" cx="291.2" cy="302.9" r="2"/>
						</g>
						<g>
							<path class="st3" d="M385.4,320.9c0,0,20.2-11.7,22.8-20c2.7-8.3,1.2-32.2-5.5-27.8c-6.7,4.4-13.6,28.7-17.1,36.5
								s-6.6,17-7.1,10.8s4.4-12.5-0.9-19.2c-5.4-6.6-19.9-10.3-20.8-6.2c-0.9,4.1,2.6,18.6,3.4,19.9c0.8,1.2,12.7,10.1,12.7,10.1
								s-22-7.3-28.7-10.6c-6.7-3.2-1.6,9.2,2.2,14.2c3.8,5.1,28.1,1.9,28.1,1.9s-5.2,7.5-2,18.6s15,20.6,20.7,18.4
								s2.3-19.7-1.4-25.4c-3.7-5.7-7.1-13.1-7.1-13.1l21.4,1.7c0,0,6.3,1.9,13.8-2.9c7.4-4.9,10.1-8.6,6.1-14.6s-17.2-5.4-24.1,0.3
								C394.9,319.2,385.4,320.9,385.4,320.9z"/>
							<path class="st3" d="M381.7,304.5c0,0,4.3-6.8-4.3-23.5c-8.6-16.7-23.7-40.2-23.7-40.2l4.3-2.8c0,0,20.7,34.5,22.9,40.8
								C383.6,286.6,390.1,294.7,381.7,304.5z"/>
							<circle class="st3" cx="391.3" cy="268.3" r="2"/>
							<circle class="st3" cx="401" cy="262" r="2"/>
							<circle class="st3" cx="398" cy="271.3" r="2"/>
							<circle class="st3" cx="389.9" cy="260.4" r="2"/>
							<circle class="st3" cx="384.1" cy="266.5" r="2"/>
							<circle class="st3" cx="380.4" cy="258.7" r="2"/>
							<circle class="st3" cx="395.5" cy="246.5" r="2"/>
							<circle class="st3" cx="386.3" cy="281.4" r="2"/>
						</g>
						<g>
							<path class="st3" d="M179.1,177.5c0,0-23.3-1.3-30.1,4.2S130.3,208,138.4,208s27.1-16.5,34.3-21.2s14.8-10.6,11.9-5.1
								c-3,5.5-10.6,8.1-9.7,16.5c0.8,8.5,11,19.5,14,16.5s8.1-17,8.1-18.5s-5.1-15.4-5.1-15.4s14.4,18.2,18.2,24.6
								c3.8,6.4,6.4-6.8,5.9-13.1c-0.4-6.4-22.5-17-22.5-17s8.5-3.4,11.9-14.4s-1.3-25.4-7.2-26.7s-12.7,15.3-12.7,22
								s-1.3,14.8-1.3,14.8l-17-13.1c0,0-4.2-5.1-13.1-5.1c-8.9,0-13.1,1.7-13.1,8.9s11.4,14,20.3,12.9S179.1,177.5,179.1,177.5z"/>
							<path class="st3" d="M173.1,193.3c0,0-7.3,3.3-9.2,22s-2.2,46.7-2.2,46.7h-5.1c0,0,1.6-40.2,3.2-46.7
								C161.7,207.2,160.7,196.8,173.1,193.3z"/>
							<circle class="st3" cx="145.2" cy="218.3" r="2"/>
							<circle class="st3" cx="133.7" cy="218.3" r="2"/>
							<circle class="st3" cx="141.3" cy="212.1" r="2"/>
							<circle class="st3" cx="142.2" cy="225.7" r="2"/>
							<circle class="st3" cx="150.4" cy="223.7" r="2"/>
							<circle class="st3" cx="149.1" cy="232.3" r="2"/>
							<circle class="st3" cx="129.8" cy="234.2" r="2"/>
							<circle class="st3" cx="156.6" cy="210.1" r="2"/>
						</g>
						<g>
							<path class="st3" d="M250.8,228.1c0,0,20.2-11.7,22.8-20c2.7-8.3,1.2-32.2-5.5-27.8S254.5,209,251,216.8s-6.6,17-7.1,10.8
								s4.4-12.5-0.9-19.2c-5.4-6.6-19.9-10.3-20.8-6.2c-0.9,4.1,2.6,18.6,3.4,19.9c0.8,1.2,12.7,10.1,12.7,10.1s-22-7.3-28.7-10.6
								c-6.7-3.2-1.6,9.2,2.2,14.2c3.8,5,28.1,1.9,28.1,1.9s-5.2,7.5-2,18.6c3.2,11.1,15,20.6,20.7,18.4s2.3-19.7-1.4-25.4
								c-3.7-5.7-7.1-13.1-7.1-13.1l21.4,1.7c0,0,6.3,1.9,13.8-2.9c7.4-4.9,10.1-8.6,6.1-14.6s-17.2-5.4-24.1,0.3
								C260.3,226.4,250.8,228.1,250.8,228.1z"/>
							<path class="st3" d="M247.1,211.7c0,0,4.3-6.8-4.3-23.5S219.1,148,219.1,148l4.3-2.8c0,0,20.7,34.5,22.9,40.8
								C249.1,193.8,255.6,201.9,247.1,211.7z"/>
							<circle class="st3" cx="256.8" cy="175.5" r="2"/>
							<circle class="st3" cx="266.4" cy="169.2" r="2"/>
							<circle class="st3" cx="263.5" cy="178.5" r="2"/>
							
								<ellipse transform="matrix(0.1602 -0.9871 0.9871 0.1602 48.9695 392.7568)" class="st3" cx="255.3" cy="167.6" rx="2" ry="2"/>
							<circle class="st3" cx="249.5" cy="173.7" r="2"/>
							<circle class="st3" cx="245.8" cy="165.9" r="2"/>
							<circle class="st3" cx="260.9" cy="153.7" r="2"/>
							<circle class="st3" cx="251.7" cy="188.6" r="2"/>
						</g>
						<g>
							<path class="st3" d="M431.1,487.5c0,0-23.3-1.3-30.1,4.2c-6.8,5.5-18.6,26.3-10.6,26.3c8.1,0,27.1-16.5,34.3-21.2
								s14.8-10.6,11.9-5.1c-3,5.5-10.6,8.1-9.7,16.5c0.8,8.5,11,19.5,14,16.5s8.1-17,8.1-18.5s-5.1-15.4-5.1-15.4
								s14.4,18.2,18.2,24.6c3.8,6.4,6.4-6.8,5.9-13.1c-0.4-6.4-22.5-17-22.5-17s8.5-3.4,11.9-14.4s-1.3-25.4-7.2-26.7
								c-5.9-1.3-12.7,15.3-12.7,22s-1.3,14.8-1.3,14.8l-17-13.1c0,0-4.2-5.1-13.1-5.1s-13.1,1.7-13.1,8.9s11.4,14,20.3,12.9
								S431.1,487.5,431.1,487.5z"/>
							<path class="st3" d="M425.1,503.3c0,0-7.3,3.3-9.2,22s-2.2,46.7-2.2,46.7h-5.1c0,0,1.6-40.2,3.2-46.7
								C413.7,517.1,412.7,506.8,425.1,503.3z"/>
							<circle class="st3" cx="397.2" cy="528.2" r="2"/>
							<circle class="st3" cx="385.7" cy="528.2" r="2"/>
							<circle class="st3" cx="393.3" cy="522" r="2"/>
							<circle class="st3" cx="394.1" cy="535.6" r="2"/>
							<circle class="st3" cx="402.3" cy="533.7" r="2"/>
							<circle class="st3" cx="401.1" cy="542.2" r="2"/>
							<circle class="st3" cx="381.8" cy="544.2" r="2"/>
							<circle class="st3" cx="408.6" cy="520" r="2"/>
						</g>
						<g>
							<path class="st3" d="M502.8,538.1c0,0,20.2-11.7,22.8-20s1.2-32.2-5.5-27.8c-6.7,4.4-13.6,28.7-17.1,36.5s-6.6,17-7.1,10.8
								s4.4-12.5-0.9-19.2c-5.4-6.6-19.9-10.3-20.8-6.2s2.6,18.6,3.4,19.9s12.7,10.1,12.7,10.1s-22-7.3-28.7-10.6
								c-6.7-3.2-1.6,9.2,2.2,14.2c3.8,5.1,28.1,1.9,28.1,1.9s-5.2,7.5-2,18.6s15,20.6,20.7,18.4c5.7-2.2,2.3-19.7-1.4-25.4
								s-7.1-13.1-7.1-13.1l21.4,1.7c0,0,6.3,1.9,13.8-2.9c7.4-4.9,10.1-8.6,6.1-14.6c-3.9-6-17.2-5.4-24.1,0.3
								C512.3,536.4,502.8,538.1,502.8,538.1z"/>
							<path class="st3" d="M499.1,521.6c0,0,4.3-6.8-4.3-23.5c-8.6-16.7-23.7-40.2-23.7-40.2l4.3-2.8c0,0,20.7,34.5,22.9,40.8
								C501,503.8,507.5,511.9,499.1,521.6z"/>
							<circle class="st3" cx="508.8" cy="485.4" r="2"/>
							<circle class="st3" cx="518.4" cy="479.1" r="2"/>
							<circle class="st3" cx="515.4" cy="488.5" r="2"/>
							<circle class="st3" cx="507.3" cy="477.5" r="2"/>
							<circle class="st3" cx="501.5" cy="483.7" r="2"/>
							<circle class="st3" cx="497.8" cy="475.9" r="2"/>
							<circle class="st3" cx="512.9" cy="463.6" r="2"/>
							<circle class="st3" cx="503.7" cy="498.5" r="2"/>
						</g>
						<g>
							<path class="st3" d="M296.5,394.7c0,0-23.3-1.3-30.1,4.2c-6.8,5.5-18.6,26.3-10.6,26.3c8.1,0,27.1-16.5,34.3-21.2
								c7.2-4.7,14.8-10.6,11.9-5.1c-3,5.5-10.6,8.1-9.7,16.5c0.8,8.5,11,19.5,14,16.5s8.1-17,8.1-18.5s-5.1-15.4-5.1-15.4
								s14.4,18.2,18.2,24.6c3.8,6.4,6.4-6.8,5.9-13.1c-0.4-6.4-22.5-17-22.5-17s8.5-3.4,11.9-14.4s-1.3-25.4-7.2-26.7
								c-5.9-1.3-12.7,15.3-12.7,22s-1.3,14.8-1.3,14.8l-17-13.1c0,0-4.2-5.1-13.1-5.1s-13.1,1.7-13.1,8.9c0,7.2,11.4,14,20.3,12.9
								S296.5,394.7,296.5,394.7z"/>
							<path class="st3" d="M290.6,410.5c0,0-7.3,3.3-9.2,22c-1.9,18.7-2.2,46.7-2.2,46.7H274c0,0,1.6-40.2,3.2-46.7
								C279.2,424.3,278.2,414,290.6,410.5z"/>
							<circle class="st3" cx="262.6" cy="435.4" r="2"/>
							<circle class="st3" cx="251.1" cy="435.4" r="2"/>
							<circle class="st3" cx="258.7" cy="429.2" r="2"/>
							<circle class="st3" cx="259.6" cy="442.8" r="2"/>
							<circle class="st3" cx="267.8" cy="440.9" r="2"/>
							<circle class="st3" cx="266.6" cy="449.4" r="2"/>
							<circle class="st3" cx="247.2" cy="451.4" r="2"/>
							<circle class="st3" cx="274" cy="427.3" r="2"/>
						</g>
						<g>
							<path class="st3" d="M368.2,445.3c0,0,20.2-11.7,22.8-20c2.7-8.3,1.2-32.2-5.5-27.8c-6.7,4.4-13.6,28.7-17.1,36.5
								s-6.6,17-7.1,10.8s4.4-12.5-0.9-19.2c-5.4-6.6-19.9-10.3-20.8-6.2s2.6,18.6,3.4,19.9s12.7,10.1,12.7,10.1s-22-7.3-28.7-10.6
								c-6.7-3.2-1.6,9.2,2.2,14.2c3.8,5.1,28.1,1.9,28.1,1.9s-5.2,7.5-2,18.6s15,20.6,20.7,18.4s2.3-19.7-1.4-25.4
								c-3.7-5.7-7.1-13.1-7.1-13.1l21.4,1.7c0,0,6.3,1.9,13.8-2.9c7.4-4.9,10.1-8.6,6.1-14.6s-17.2-5.4-24.1,0.3
								C377.8,443.6,368.2,445.3,368.2,445.3z"/>
							<path class="st3" d="M364.5,428.8c0,0,4.3-6.8-4.3-23.5c-8.6-16.7-23.7-40.2-23.7-40.2l4.3-2.8c0,0,20.7,34.5,22.9,40.8
								C366.5,411,373,419.1,364.5,428.8z"/>
							<circle class="st3" cx="374.2" cy="392.6" r="2"/>
							<circle class="st3" cx="383.8" cy="386.3" r="2"/>
							<circle class="st3" cx="380.9" cy="395.7" r="2"/>
							<circle class="st3" cx="372.7" cy="384.7" r="2"/>
							<circle class="st3" cx="366.9" cy="390.9" r="2"/>
							<circle class="st3" cx="363.3" cy="383.1" r="2"/>
							<circle class="st3" cx="378.4" cy="370.8" r="2"/>
							<circle class="st3" cx="369.1" cy="405.7" r="2"/>
						</g>
						<g>
							<path class="st3" d="M161.9,301.9c0,0-23.3-1.3-30.1,4.2s-18.6,26.3-10.6,26.3s27.1-16.5,34.3-21.2s14.8-10.6,11.9-5.1
								c-3,5.5-10.6,8.1-9.7,16.5c0.8,8.5,11,19.5,14,16.5s8.1-17,8.1-18.5s-5.1-15.4-5.1-15.4s14.4,18.2,18.2,24.6
								s6.4-6.8,5.9-13.1c-0.4-6.4-22.5-17-22.5-17s8.5-3.4,11.9-14.4s-1.3-25.4-7.2-26.7c-5.9-1.3-12.7,15.3-12.7,22
								c0,6.8-1.3,14.8-1.3,14.8l-17-13.1c0,0-4.2-5.1-13.1-5.1s-13.1,1.7-13.1,8.9s11.4,14,20.3,12.9
								C153,298.1,161.9,301.9,161.9,301.9z"/>
							<path class="st3" d="M156,317.7c0,0-7.3,3.3-9.2,22s-2.2,46.7-2.2,46.7h-5.1c0,0,1.6-40.2,3.2-46.7
								C144.6,331.5,143.6,321.2,156,317.7z"/>
							<circle class="st3" cx="128.1" cy="342.6" r="2"/>
							<circle class="st3" cx="116.6" cy="342.6" r="2"/>
							<circle class="st3" cx="124.2" cy="336.4" r="2"/>
							<circle class="st3" cx="125" cy="350" r="2"/>
							<circle class="st3" cx="133.2" cy="348.1" r="2"/>
							<circle class="st3" cx="132" cy="356.6" r="2"/>
							<circle class="st3" cx="112.7" cy="358.6" r="2"/>
							<circle class="st3" cx="139.5" cy="334.5" r="2"/>
						</g>
						<g>
							<path class="st3" d="M233.7,352.5c0,0,20.2-11.7,22.8-20c2.7-8.3,1.2-32.2-5.5-27.8c-6.7,4.4-13.6,28.7-17.1,36.5
								s-6.6,17-7.1,10.8s4.4-12.5-0.9-19.2s-19.9-10.3-20.8-6.2c-0.9,4.1,2.6,18.6,3.4,19.9c0.8,1.2,12.7,10.1,12.7,10.1
								s-22-7.3-28.7-10.6s-1.6,9.2,2.2,14.2c3.8,5.1,28.1,1.9,28.1,1.9s-5.2,7.5-2,18.6s15,20.6,20.7,18.4s2.3-19.7-1.4-25.4
								s-7.1-13.1-7.1-13.1l21.4,1.7c0,0,6.3,1.9,13.8-2.9c7.4-4.9,10.1-8.6,6.1-14.6c-3.9-6-17.2-5.4-24.1,0.3
								C243.2,350.8,233.7,352.5,233.7,352.5z"/>
							<path class="st3" d="M230,336c0,0,4.3-6.8-4.3-23.5S202,272.3,202,272.3l4.3-2.8c0,0,20.7,34.5,22.9,40.8
								C231.9,318.2,238.4,326.3,230,336z"/>
							<circle class="st3" cx="239.6" cy="299.8" r="2"/>
							<circle class="st3" cx="249.3" cy="293.5" r="2"/>
							<circle class="st3" cx="246.3" cy="302.9" r="2"/>
							<circle class="st3" cx="238.2" cy="292" r="2"/>
							<circle class="st3" cx="232.4" cy="298.1" r="2"/>
							<circle class="st3" cx="228.7" cy="290.3" r="2"/>
							<circle class="st3" cx="243.8" cy="278" r="2"/>
							<circle class="st3" cx="234.6" cy="312.9" r="2"/>
						</g>
						<g>
							<path class="st3" d="M413.9,611.8c0,0-23.3-1.3-30.1,4.2s-18.6,26.3-10.6,26.3c8.1,0,27.1-16.5,34.3-21.2s14.8-10.6,11.9-5.1
								c-3,5.5-10.6,8.1-9.7,16.5c0.8,8.5,11,19.5,14,16.5s8.1-17,8.1-18.5s-5.1-15.4-5.1-15.4s14.4,18.2,18.2,24.6
								c3.8,6.4,6.4-6.8,5.9-13.1c-0.4-6.4-22.5-17-22.5-17s8.5-3.4,11.9-14.4s-1.3-25.4-7.2-26.7c-5.9-1.3-12.7,15.3-12.7,22
								c0,6.8-1.3,14.8-1.3,14.8l-17-13.1c0,0-4.2-5.1-13.1-5.1s-13.1,1.7-13.1,8.9s11.4,14,20.3,12.9
								C405,608,413.9,611.8,413.9,611.8z"/>
							<path class="st3" d="M408,627.6c0,0-7.3,3.3-9.2,22c-1.9,18.7-2.2,46.7-2.2,46.7h-5.1c0,0,1.6-40.2,3.2-46.7
								C396.6,641.4,395.6,631.1,408,627.6z"/>
							<circle class="st3" cx="380.1" cy="652.6" r="2"/>
							<circle class="st3" cx="368.6" cy="652.6" r="2"/>
							<circle class="st3" cx="376.1" cy="646.4" r="2"/>
							<circle class="st3" cx="377" cy="660" r="2"/>
							<circle class="st3" cx="385.2" cy="658" r="2"/>
							<circle class="st3" cx="384" cy="666.6" r="2"/>
							<circle class="st3" cx="364.6" cy="668.5" r="2"/>
							<circle class="st3" cx="391.4" cy="644.4" r="2"/>
						</g>
						<g>
							<path class="st3" d="M485.6,662.4c0,0,20.2-11.7,22.8-20c2.7-8.3,1.2-32.2-5.5-27.8s-13.6,28.7-17.1,36.5s-6.6,17-7.1,10.8
								s4.4-12.5-0.9-19.2c-5.4-6.6-19.9-10.3-20.8-6.2s2.6,18.6,3.4,19.9s12.7,10.1,12.7,10.1s-22-7.3-28.7-10.6
								c-6.7-3.2-1.6,9.2,2.2,14.2s28.1,1.9,28.1,1.9s-5.2,7.5-2,18.6s15,20.6,20.7,18.4c5.7-2.2,2.3-19.7-1.4-25.4
								c-3.7-5.7-7.1-13.1-7.1-13.1l21.4,1.7c0,0,6.3,1.9,13.8-2.9c7.4-4.9,10.1-8.6,6.1-14.6c-3.9-6-17.2-5.4-24.1,0.3
								C495.2,660.7,485.6,662.4,485.6,662.4z"/>
							<path class="st3" d="M481.9,646c0,0,4.3-6.8-4.3-23.5s-23.7-40.2-23.7-40.2l4.3-2.8c0,0,20.7,34.5,22.9,40.8
								C483.9,628.1,490.4,636.2,481.9,646z"/>
							<circle class="st3" cx="491.6" cy="609.8" r="2"/>
							<circle class="st3" cx="501.2" cy="603.5" r="2"/>
							<circle class="st3" cx="498.3" cy="612.8" r="2"/>
							<circle class="st3" cx="490.1" cy="601.9" r="2"/>
							<circle class="st3" cx="484.3" cy="608" r="2"/>
							<circle class="st3" cx="480.7" cy="600.2" r="2"/>
							<circle class="st3" cx="495.8" cy="588" r="2"/>
							<circle class="st3" cx="486.6" cy="622.8" r="2"/>
						</g>
						<g>
							<path class="st3" d="M279.4,519c0,0-23.3-1.3-30.1,4.2s-18.6,26.3-10.6,26.3s27.1-16.5,34.3-21.2c7.2-4.7,14.8-10.6,11.9-5.1
								s-10.6,8.1-9.7,16.5c0.8,8.5,11,19.5,14,16.5s8.1-17,8.1-18.5s-5.1-15.4-5.1-15.4s14.4,18.2,18.2,24.6
								c3.8,6.4,6.4-6.8,5.9-13.1c-0.4-6.4-22.5-17-22.5-17s8.5-3.4,11.9-14.4s-1.3-25.4-7.2-26.7c-5.9-1.3-12.7,15.3-12.7,22
								c0,6.8-1.3,14.8-1.3,14.8l-17-13.1c0,0-4.2-5.1-13.1-5.1s-13.1,1.7-13.1,8.9c0,7.2,11.4,14,20.3,12.9
								C270.5,515.2,279.4,519,279.4,519z"/>
							<path class="st3" d="M273.4,534.8c0,0-7.3,3.3-9.2,22c-1.9,18.7-2.2,46.7-2.2,46.7h-5.1c0,0,1.6-40.2,3.2-46.7
								C262,548.7,261,538.3,273.4,534.8z"/>
							<circle class="st3" cx="245.5" cy="559.8" r="2"/>
							<circle class="st3" cx="234" cy="559.8" r="2"/>
							<circle class="st3" cx="241.6" cy="553.6" r="2"/>
							<circle class="st3" cx="242.4" cy="567.2" r="2"/>
							<circle class="st3" cx="250.6" cy="565.2" r="2"/>
							<circle class="st3" cx="249.4" cy="573.8" r="2"/>
							<circle class="st3" cx="230.1" cy="575.7" r="2"/>
							<circle class="st3" cx="256.9" cy="551.6" r="2"/>
						</g>
						<g>
							<path class="st3" d="M351.1,569.6c0,0,20.2-11.7,22.8-20c2.7-8.3,1.2-32.2-5.5-27.8s-13.6,28.7-17.1,36.5s-6.6,17-7.1,10.8
								s4.4-12.5-0.9-19.2c-5.4-6.6-19.9-10.3-20.8-6.2s2.6,18.6,3.4,19.9s12.7,10.1,12.7,10.1s-22-7.3-28.7-10.6
								c-6.7-3.2-1.6,9.2,2.2,14.2s28.1,1.9,28.1,1.9s-5.2,7.5-2,18.6s15,20.6,20.7,18.4c5.7-2.2,2.3-19.7-1.4-25.4
								c-3.7-5.7-7.1-13.1-7.1-13.1l21.4,1.7c0,0,6.3,1.9,13.8-2.9c7.4-4.9,10.1-8.6,6.1-14.6c-3.9-6-17.2-5.4-24.1,0.3
								C360.6,567.9,351.1,569.6,351.1,569.6z"/>
							<path class="st3" d="M347.4,553.2c0,0,4.3-6.8-4.3-23.5s-23.7-40.2-23.7-40.2l4.3-2.8c0,0,20.7,34.5,22.9,40.8
								C349.3,535.3,355.8,543.4,347.4,553.2z"/>
							<circle class="st3" cx="357.1" cy="517" r="2"/>
							<circle class="st3" cx="366.7" cy="510.7" r="2"/>
							<circle class="st3" cx="363.7" cy="520" r="2"/>
							<circle class="st3" cx="355.6" cy="509.1" r="2"/>
							<circle class="st3" cx="349.8" cy="515.2" r="2"/>
							<circle class="st3" cx="346.1" cy="507.4" r="2"/>
							<circle class="st3" cx="361.2" cy="495.2" r="2"/>
							<circle class="st3" cx="352" cy="530" r="2"/>
						</g>
						<g>
							<path class="st3" d="M144.8,426.2c0,0-23.3-1.3-30.1,4.2c-6.8,5.5-18.6,26.3-10.6,26.3s27.1-16.5,34.3-21.2
								s14.8-10.6,11.9-5.1c-3,5.5-10.6,8.1-9.7,16.5s11,19.5,14,16.5s8.1-17,8.1-18.5s-5.1-15.4-5.1-15.4s14.4,18.2,18.2,24.6
								s6.4-6.8,5.9-13.1c-0.4-6.4-22.5-17-22.5-17s8.5-3.4,11.9-14.4s-1.3-25.4-7.2-26.7c-5.9-1.3-12.7,15.3-12.7,22
								s-1.3,14.8-1.3,14.8l-17-13.1c0,0-4.2-5.1-13.1-5.1s-13.1,1.7-13.1,8.9s11.4,14,20.3,12.9S144.8,426.2,144.8,426.2z"/>
							<path class="st3" d="M138.9,442c0,0-7.3,3.3-9.2,22c-1.9,18.7-2.2,46.7-2.2,46.7h-5.1c0,0,1.6-40.2,3.2-46.7
								C127.5,455.9,126.5,445.5,138.9,442z"/>
							<circle class="st3" cx="110.9" cy="467" r="2"/>
							<circle class="st3" cx="99.4" cy="467" r="2"/>
							<circle class="st3" cx="107" cy="460.8" r="2"/>
							<circle class="st3" cx="107.9" cy="474.4" r="2"/>
							<circle class="st3" cx="116.1" cy="472.4" r="2"/>
							<circle class="st3" cx="114.9" cy="481" r="2"/>
							<circle class="st3" cx="95.5" cy="482.9" r="2"/>
							<circle class="st3" cx="122.3" cy="458.8" r="2"/>
						</g>
						<g>
							<path class="st3" d="M216.5,476.8c0,0,20.2-11.7,22.8-20c2.7-8.3,1.2-32.2-5.5-27.8c-6.7,4.4-13.6,28.7-17.1,36.5
								s-6.6,17-7.1,10.8s4.4-12.5-0.9-19.2s-19.9-10.3-20.8-6.2c-0.9,4.1,2.6,18.6,3.4,19.9C192.1,472,204,481,204,481
								s-22-7.3-28.7-10.6s-1.6,9.2,2.2,14.2c3.8,5.1,28.1,1.9,28.1,1.9s-5.2,7.5-2,18.6s15,20.6,20.7,18.4s2.3-19.7-1.4-25.4
								s-7.1-13.1-7.1-13.1l21.4,1.7c0,0,6.3,1.9,13.8-2.9c7.4-4.9,10.1-8.6,6.1-14.6c-3.9-6-17.2-5.4-24.1,0.3
								C226.1,475.1,216.5,476.8,216.5,476.8z"/>
							<path class="st3" d="M212.8,460.4c0,0,4.3-6.8-4.3-23.5s-23.7-40.2-23.7-40.2l4.3-2.8c0,0,20.7,34.5,22.9,40.8
								C214.8,442.5,221.3,450.6,212.8,460.4z"/>
							<circle class="st3" cx="222.5" cy="424.2" r="2"/>
							<circle class="st3" cx="232.1" cy="417.9" r="2"/>
							<circle class="st3" cx="229.2" cy="427.2" r="2"/>
							<circle class="st3" cx="221" cy="416.3" r="2"/>
							<circle class="st3" cx="215.2" cy="422.4" r="2"/>
							<circle class="st3" cx="211.6" cy="414.6" r="2"/>
							<circle class="st3" cx="226.7" cy="402.4" r="2"/>
							<circle class="st3" cx="217.5" cy="437.3" r="2"/>
						</g>
					</g>
				</g>
			</g>
		</g>
		<g>
			<path class="st5" d="M351.7,344.5c-0.2,0-0.3-0.1-0.5-0.1c1.5,3.8,8.3,21.5,8.8,30.9c1.8,29.4-25.8,42.6-34.9,46.1
				c0.1,1.4,0.7,6.9,5.4,12l0,0l0,0c4.2,5.7,12.2,9.4,20.9,9.6c8.2,0.2,15.4-2.7,19.7-7.9c5-6.1,4-16,2.2-23.3
				c-1.2-5-3-9.6-4.2-12.4c0-0.1,0-0.1-0.1-0.2c-0.1-0.2-0.2-0.4-0.2-0.6c0-0.1-0.1-0.2-0.1-0.3c0-0.1-0.1-0.2-0.1-0.3
				c-0.2-0.5-0.4-0.9-0.5-1.1l0,0l0,0c0,0,0,0,0-0.1l0,0v-0.1l0,0l0,0v-0.1c0,0,0,0,0-0.1c-2.2-10.9-7.5-30.9-15.4-51.9
				C352.2,344.6,352,344.6,351.7,344.5z"/>
			<path class="st5" d="M317.2,418.5c-1.9,0-3.5,1.5-3.5,3.5c0,1.9,1.5,3.5,3.5,3.5c1.9,0,3.5-1.5,3.5-3.5S319.1,418.5,317.2,418.5z
				"/>
			<path class="st5" d="M306.1,419.5c-0.8-0.5-1.6-0.9-2.4-1.4c-0.2-0.1-0.4-0.3-0.6-0.4c-2-1.2-4-2.2-5.9-3.3
				c-17.7-9.8-29.4-16.2-23.2-42.4c0.2-0.7,0.3-1.4,0.5-2c0-0.1,0.1-0.2,0.1-0.4c0.2-0.6,0.3-1.3,0.5-1.9c0-0.1,0.1-0.3,0.1-0.4
				c0.2-0.6,0.3-1.3,0.5-1.9v-0.1c0.2-0.6,0.4-1.3,0.5-1.9c0-0.1,0.1-0.2,0.1-0.4c0.2-0.6,0.3-1.2,0.5-1.8c0-0.1,0.1-0.3,0.1-0.4
				c0.2-0.6,0.4-1.2,0.5-1.8c0,0,0,0,0-0.1c0.2-0.6,0.4-1.1,0.5-1.7c0-0.1,0.1-0.2,0.1-0.3c0.2-0.5,0.3-1.1,0.5-1.6
				c0-0.1,0.1-0.2,0.1-0.3c0.2-0.5,0.3-1.1,0.5-1.6v-0.1c0.2-0.5,0.3-1,0.5-1.4c0-0.1,0.1-0.2,0.1-0.2c0.2-0.5,0.3-0.9,0.5-1.3
				c0-0.1,0.1-0.1,0.1-0.2c0.2-0.4,0.3-0.9,0.4-1.3l0,0c0.1-0.4,0.3-0.8,0.4-1.1c0-0.1,0-0.1,0.1-0.2c0.1-0.3,0.2-0.7,0.4-1v-0.1
				c0.2-0.6,0.4-1.1,0.6-1.6c0,0,0,0,0-0.1l-1.2,0.5c-0.1,0.2-0.1,0.3-0.2,0.5c-0.2,0.4-0.4,0.9-0.5,1.4c-0.1,0.2-0.1,0.4-0.2,0.5
				c-0.2,0.5-0.4,0.9-0.5,1.4c-0.1,0.2-0.2,0.4-0.2,0.6c-0.2,0.5-0.4,0.9-0.5,1.4c-0.1,0.2-0.1,0.4-0.2,0.6c-0.2,0.5-0.4,1-0.6,1.5
				c-0.1,0.2-0.2,0.5-0.3,0.7c-0.2,0.5-0.4,1-0.6,1.5c-0.1,0.3-0.2,0.5-0.3,0.8c-0.2,0.5-0.4,0.9-0.5,1.4c-0.1,0.3-0.2,0.6-0.3,0.9
				c-0.2,0.5-0.3,0.9-0.5,1.4c-0.1,0.3-0.2,0.6-0.3,0.9c-0.2,0.5-0.3,0.9-0.5,1.4c-0.1,0.3-0.2,0.6-0.3,0.8c-0.2,0.5-0.4,1-0.5,1.5
				c-0.1,0.3-0.2,0.7-0.4,1c-0.2,0.5-0.3,0.9-0.5,1.4c-0.1,0.4-0.3,0.8-0.4,1.3c-0.1,0.4-0.3,0.8-0.4,1.1c-0.2,0.4-0.3,0.9-0.5,1.3
				c-0.1,0.4-0.2,0.7-0.4,1.1c-0.2,0.4-0.3,0.9-0.5,1.3c-0.1,0.4-0.2,0.7-0.4,1.1c-0.2,0.5-0.3,0.9-0.5,1.4c-0.1,0.3-0.2,0.7-0.3,1
				c-0.2,0.5-0.4,1.1-0.6,1.6c-0.1,0.2-0.2,0.5-0.2,0.7c-0.2,0.6-0.4,1.1-0.6,1.7c-0.1,0.2-0.2,0.5-0.2,0.7
				c-0.2,0.6-0.4,1.2-0.6,1.9c0,0.1-0.1,0.3-0.1,0.4c-0.2,0.6-0.4,1.1-0.5,1.6c-0.1,0.2-0.1,0.4-0.2,0.6c-0.2,0.6-0.4,1.1-0.5,1.6
				c-0.1,0.2-0.1,0.4-0.2,0.5c-0.2,0.6-0.4,1.3-0.6,1.9c0,0.1,0,0.2-0.1,0.2c-0.2,0.7-0.4,1.4-0.6,2l0,0c-0.2,0.7-0.4,1.3-0.6,2l0,0
				c-1.9,6.4-3.2,11.3-3.2,13.1l0,0c0,0.2-0.1,0.4-0.2,1c-0.2,0.6-0.4,1.5-0.6,2.5c-0.5,2.5-1.1,6.1-1.1,10c0.1,4.3,1,9.7,3,13.6
				c0.5,1,1.2,1.9,1.9,2.8c1.9,2,4.4,3.7,5.9,4.5c0.4,0.2,0.7,0.3,1.1,0.5c6.2,2.2,12,2.4,17.1,1.4c2.9-0.6,5.6-1.6,8-2.7
				c3-1.5,5.6-3.4,7.5-5.5c4.2-5,5.7-12.5,5.9-14.2c-0.8-0.5-1.6-1-2.4-1.4C306.6,419.8,306.4,419.7,306.1,419.5z"/>
			<path class="st5" d="M350.9,346.3c-0.3-0.8-0.5-1.4-0.7-1.7L350.9,346.3z"/>
		</g>
		<g>
			<path class="st5" d="M306.1,419.5c-0.8-0.5-1.6-0.9-2.4-1.4c-0.2-0.1-0.4-0.3-0.6-0.4c-2-1.2-4-2.2-5.9-3.3
				c-17.7-9.8-29.4-16.2-23.2-42.4c0.2-0.7,0.3-1.4,0.5-2c0-0.1,0.1-0.2,0.1-0.4c0.2-0.6,0.3-1.3,0.5-1.9c0-0.1,0.1-0.3,0.1-0.4
				c0.2-0.6,0.3-1.3,0.5-1.9v-0.1c0.2-0.6,0.4-1.3,0.5-1.9c0-0.1,0.1-0.2,0.1-0.4c0.2-0.6,0.3-1.2,0.5-1.8c0-0.1,0.1-0.3,0.1-0.4
				c0.2-0.6,0.4-1.2,0.5-1.8c0,0,0,0,0-0.1c0.2-0.6,0.4-1.1,0.5-1.7c0-0.1,0.1-0.2,0.1-0.3c0.2-0.5,0.3-1.1,0.5-1.6
				c0-0.1,0.1-0.2,0.1-0.3c0.2-0.5,0.3-1.1,0.5-1.6v-0.1c0.2-0.5,0.3-1,0.5-1.4c0-0.1,0.1-0.2,0.1-0.2c0.2-0.5,0.3-0.9,0.5-1.3
				c0-0.1,0.1-0.1,0.1-0.2c0.2-0.4,0.3-0.9,0.4-1.3l0,0c0.1-0.4,0.3-0.8,0.4-1.1c0-0.1,0-0.1,0.1-0.2c0.1-0.3,0.2-0.7,0.4-1v-0.1
				c0.2-0.6,0.4-1.1,0.6-1.6c0,0,0,0,0-0.1l-1.2,0.5c-0.1,0.2-0.1,0.3-0.2,0.5c-0.2,0.4-0.4,0.9-0.5,1.4c-0.1,0.2-0.1,0.4-0.2,0.5
				c-0.2,0.5-0.4,0.9-0.5,1.4c-0.1,0.2-0.2,0.4-0.2,0.6c-0.2,0.5-0.4,0.9-0.5,1.4c-0.1,0.2-0.1,0.4-0.2,0.6c-0.2,0.5-0.4,1-0.6,1.5
				c-0.1,0.2-0.2,0.5-0.3,0.7c-0.2,0.5-0.4,1-0.6,1.5c-0.1,0.3-0.2,0.5-0.3,0.8c-0.2,0.5-0.4,0.9-0.5,1.4c-0.1,0.3-0.2,0.6-0.3,0.9
				c-0.2,0.5-0.3,0.9-0.5,1.4c-0.1,0.3-0.2,0.6-0.3,0.9c-0.2,0.5-0.3,0.9-0.5,1.4c-0.1,0.3-0.2,0.6-0.3,0.8c-0.2,0.5-0.4,1-0.5,1.5
				c-0.1,0.3-0.2,0.7-0.4,1c-0.2,0.5-0.3,0.9-0.5,1.4c-0.1,0.4-0.3,0.8-0.4,1.3c-0.1,0.4-0.3,0.8-0.4,1.1c-0.2,0.4-0.3,0.9-0.5,1.3
				c-0.1,0.4-0.2,0.7-0.4,1.1c-0.2,0.4-0.3,0.9-0.5,1.3c-0.1,0.4-0.2,0.7-0.4,1.1c-0.2,0.5-0.3,0.9-0.5,1.4c-0.1,0.3-0.2,0.7-0.3,1
				c-0.2,0.5-0.4,1.1-0.6,1.6c-0.1,0.2-0.2,0.5-0.2,0.7c-0.2,0.6-0.4,1.1-0.6,1.7c-0.1,0.2-0.2,0.5-0.2,0.7
				c-0.2,0.6-0.4,1.2-0.6,1.9c0,0.1-0.1,0.3-0.1,0.4c-0.2,0.6-0.4,1.1-0.5,1.6c-0.1,0.2-0.1,0.4-0.2,0.6c-0.2,0.6-0.4,1.1-0.5,1.6
				c-0.1,0.2-0.1,0.4-0.2,0.5c-0.2,0.6-0.4,1.3-0.6,1.9c0,0.1,0,0.2-0.1,0.2c-0.2,0.7-0.4,1.4-0.6,2l0,0c-0.2,0.7-0.4,1.3-0.6,2l0,0
				c-1.9,6.4-3.2,11.3-3.2,13.1l0,0c0,0.2-0.1,0.4-0.2,1c-0.2,0.6-0.4,1.5-0.6,2.5c-0.5,2.5-1.1,6.1-1.1,10c0.1,4.3,1,9.7,3,13.6
				c0.5,1,1.2,1.9,1.9,2.8c1.9,2,4.4,3.7,5.9,4.5c0.4,0.2,0.7,0.3,1.1,0.5c6.2,2.2,12,2.4,17.1,1.4c2.9-0.6,5.6-1.6,8-2.7
				c3-1.5,5.6-3.4,7.5-5.5c4.2-5,5.7-12.5,5.9-14.2c-0.8-0.5-1.6-1-2.4-1.4C306.6,419.8,306.4,419.7,306.1,419.5z"/>
			<path class="st5" d="M317.2,418.5c-1.9,0-3.5,1.5-3.5,3.5c0,1.9,1.5,3.5,3.5,3.5c1.9,0,3.5-1.5,3.5-3.5S319.1,418.5,317.2,418.5z
				"/>
			<path class="st5" d="M369.2,399.5c0-0.1,0-0.1-0.1-0.2c-0.1-0.2-0.2-0.4-0.2-0.6c0-0.1-0.1-0.2-0.1-0.3c0-0.1-0.1-0.2-0.1-0.3
				c-0.2-0.5-0.4-0.9-0.5-1.1l0,0l0,0c0,0,0,0,0-0.1l0,0v-0.1l0,0l0,0v-0.1c0,0,0,0,0-0.1c-2.2-10.9-7.5-30.9-15.4-51.9
				c-0.2-0.1-0.5-0.1-0.7-0.2c-0.2,0-0.3-0.1-0.5-0.1c1.5,3.8,8.3,21.5,8.8,30.9c1.8,29.4-25.8,42.6-34.9,46.1
				c0.1,1.4,0.7,6.9,5.4,12l0,0l0,0c4.2,5.7,12.2,9.4,20.9,9.6c8.2,0.2,15.4-2.7,19.7-7.9c5-6.1,4-16,2.2-23.3
				C372.1,406.9,370.4,402.3,369.2,399.5z"/>
		</g>
	</g>
	<path d="M353.7,345l-0.4-1.1c-0.5-0.1-0.9-0.2-1.3-0.3c-0.8-0.2-1.6-0.3-2.3-0.5l0.6,1.6c0.2,0.4,0.4,1,0.7,1.7
		c2.2,5.7,7.7,20.9,8.2,29.1c1.8,29-25.9,41.9-34.6,45.2h-3.1c-0.6-1.8-2.2-3.1-4.2-3.1s-3.7,1.3-4.2,3.2H310
		c-4.3-2.7-8.4-4.9-12.3-7.1c-17.3-9.6-28.7-15.9-22.7-41.3c3.4-14.5,8.7-28,8.8-28.1l0,0l0,0l0.5-1.3c-1.1,0.5-2.4,0.9-3.7,1.4
		l-1.2,3.1c-2.8,7.3-6.5,17.5-9.9,27.5c-5,14.7-9.4,28.9-9.4,32.5l0,0l0,0c0,0,0,0,0,0.1l0,0c-0.1,0.5-0.4,1.6-0.8,3.1
		c-0.5,2-1,4.9-1.2,7.9c0,0.8,0,1.7,0,2.6c0,4.7,0.7,9.8,3.2,14.1c0.1,0.2,0.2,0.3,0.3,0.5c0.4,0.7,1,1.5,1.6,2.1
		c1.5,1.8,3.3,3.3,5.7,4.5c0.2,0.1,0.3,0.2,0.5,0.2c0.5,0.3,1,0.5,1.3,0.6l0,0c3.6,1.5,7.3,2.2,11,2.2c1.9,0,3.8-0.2,5.6-0.5
		c3.6-0.6,7-1.7,9.8-3.3c2.3-1.2,4.3-2.5,5.9-3.9c0.6-0.5,1.1-1,1.5-1.6l0.1-0.1c4.9-5.3,5.8-12.4,5.9-14.3h2.6c0,0.1,0,0.2,0,0.3
		c0,2.5,2,4.5,4.5,4.5s4.5-2,4.5-4.5c0-0.1,0-0.2,0-0.3h2.5c0.1,1.7,0.8,7.2,5.6,12.5c4.4,5.9,12.7,9.8,21.7,10c0.3,0,0.6,0,0.8,0
		c8.2,0,15.3-3,19.7-8.3c0.3-0.4,0.6-0.7,0.8-1.1c0.1-0.1,0.2-0.3,0.2-0.4c0.2-0.3,0.3-0.5,0.5-0.8c0.1-0.2,0.2-0.3,0.2-0.5
		c0.1-0.3,0.3-0.5,0.4-0.8c0.1-0.2,0.1-0.4,0.2-0.6c0.1-0.3,0.2-0.5,0.3-0.8c0.1-0.2,0.1-0.4,0.2-0.6c0.1-0.3,0.2-0.5,0.2-0.8
		c0.1-0.2,0.1-0.4,0.1-0.6c0.1-0.3,0.1-0.5,0.2-0.8c0-0.2,0.1-0.5,0.1-0.7c0-0.3,0.1-0.5,0.1-0.8c0-0.2,0-0.5,0.1-0.7
		c0-0.3,0.1-0.5,0.1-0.8c0-0.2,0-0.5,0-0.7c0-0.3,0-0.5,0-0.8c0-0.2,0-0.5,0-0.7c0-0.3,0-0.5,0-0.8c0-0.2,0-0.5,0-0.7
		c0-0.3,0-0.5,0-0.8c0-0.2,0-0.5-0.1-0.7c0-0.3,0-0.5-0.1-0.8c0-0.3-0.1-0.5-0.1-0.8s-0.1-0.5-0.1-0.8s-0.1-0.5-0.1-0.8
		s-0.1-0.5-0.1-0.8c0-0.2-0.1-0.5-0.1-0.7c0-0.3-0.1-0.5-0.1-0.8c0-0.2-0.1-0.5-0.1-0.7c-0.1-0.3-0.1-0.5-0.2-0.8
		c-0.1-0.2-0.1-0.5-0.2-0.7c-0.1-0.3-0.1-0.5-0.2-0.8c-0.1-0.2-0.1-0.5-0.2-0.7c-0.1-0.3-0.1-0.5-0.2-0.8c-0.1-0.2-0.1-0.5-0.2-0.7
		s-0.1-0.5-0.2-0.7s-0.1-0.4-0.2-0.7c-0.1-0.2-0.1-0.5-0.2-0.7s-0.1-0.4-0.2-0.6s-0.1-0.5-0.2-0.7s-0.1-0.4-0.2-0.6
		s-0.2-0.4-0.2-0.7c-0.1-0.2-0.1-0.4-0.2-0.6s-0.2-0.4-0.2-0.6c-0.1-0.2-0.1-0.4-0.2-0.5c-0.1-0.2-0.2-0.4-0.2-0.6
		c-0.1-0.2-0.1-0.3-0.2-0.5s-0.1-0.4-0.2-0.6s-0.1-0.3-0.2-0.4c-0.1-0.2-0.1-0.4-0.2-0.5s-0.1-0.3-0.2-0.4c-0.1-0.2-0.1-0.3-0.2-0.5
		c0-0.1-0.1-0.2-0.1-0.3c-0.1-0.2-0.1-0.3-0.2-0.5c0-0.1-0.1-0.2-0.1-0.3c-0.1-0.1-0.1-0.3-0.2-0.4c0-0.1-0.1-0.1-0.1-0.2
		c-0.1-0.1-0.1-0.2-0.2-0.4c0-0.1-0.1-0.1-0.1-0.2c-0.1-0.1-0.1-0.2-0.1-0.3c0,0,0-0.1-0.1-0.1v-0.1l0,0c0,0,0-0.1-0.1-0.1
		C366.7,385.7,361.5,365.8,353.7,345C353.7,344.9,353.7,345,353.7,345z M303.3,435.6c-1.9,2-4.5,3.9-7.5,5.5c-2.4,1.2-5.1,2.1-8,2.7
		c-5.1,1-10.8,0.7-17.1-1.4c-0.4-0.2-0.7-0.3-1.1-0.5c-1.6-0.8-4.1-2.5-5.9-4.5c-0.7-0.9-1.4-1.8-1.9-2.8c-2-3.9-2.9-9.3-3-13.6
		c0-3.9,0.6-7.5,1.1-10c0.2-1.1,0.5-1.9,0.6-2.5c0.2-0.6,0.2-0.8,0.2-1l0,0c0-1.8,1.2-6.6,3.2-13.1l0,0c0.2-0.6,0.4-1.3,0.6-2l0,0
		c0.2-0.7,0.4-1.3,0.6-2c0-0.1,0-0.2,0.1-0.2c0.2-0.6,0.4-1.2,0.6-1.9c0.1-0.2,0.1-0.4,0.2-0.5c0.2-0.5,0.3-1.1,0.5-1.6
		c0.1-0.2,0.1-0.4,0.2-0.6c0.2-0.5,0.4-1.1,0.5-1.6c0-0.1,0.1-0.3,0.1-0.4c0.2-0.6,0.4-1.2,0.6-1.9c0.1-0.2,0.2-0.5,0.2-0.7
		c0.2-0.6,0.4-1.1,0.6-1.7c0.1-0.2,0.2-0.5,0.2-0.7c0.2-0.5,0.4-1.1,0.6-1.6c0.1-0.3,0.2-0.7,0.3-1c0.2-0.5,0.3-0.9,0.5-1.4
		c0.1-0.4,0.2-0.7,0.4-1.1c0.2-0.4,0.3-0.9,0.5-1.3c0.1-0.4,0.2-0.7,0.4-1.1c0.2-0.4,0.3-0.9,0.5-1.3c0.1-0.4,0.3-0.8,0.4-1.1
		c0.1-0.4,0.3-0.8,0.4-1.3c0.2-0.5,0.3-0.9,0.5-1.4c0.1-0.3,0.2-0.7,0.4-1c0.2-0.5,0.4-1,0.5-1.5c0.1-0.3,0.2-0.6,0.3-0.8
		c0.2-0.5,0.3-0.9,0.5-1.4c0.1-0.3,0.2-0.6,0.3-0.9c0.2-0.5,0.3-1,0.5-1.4c0.1-0.3,0.2-0.6,0.3-0.9c0.2-0.5,0.4-1,0.5-1.4
		c0.1-0.3,0.2-0.5,0.3-0.8c0.2-0.5,0.4-1,0.6-1.5c0.1-0.2,0.2-0.5,0.3-0.7c0.2-0.5,0.4-1,0.6-1.5c0.1-0.2,0.1-0.4,0.2-0.6
		c0.2-0.5,0.4-1,0.5-1.4c0.1-0.2,0.2-0.4,0.2-0.6c0.2-0.5,0.4-0.9,0.5-1.4c0.1-0.2,0.1-0.4,0.2-0.5c0.2-0.5,0.4-0.9,0.5-1.4
		c0.1-0.2,0.1-0.3,0.2-0.5l1.2-0.5c0,0,0,0,0,0.1c-0.2,0.4-0.4,0.9-0.6,1.6v0.1c-0.1,0.3-0.2,0.6-0.4,1c0,0.1,0,0.1-0.1,0.2
		c-0.1,0.4-0.3,0.7-0.4,1.1l0,0c-0.1,0.4-0.3,0.8-0.4,1.3c0,0.1-0.1,0.1-0.1,0.2c-0.1,0.4-0.3,0.9-0.5,1.3c0,0.1-0.1,0.2-0.1,0.2
		c-0.2,0.5-0.3,0.9-0.5,1.4v0.1c-0.2,0.5-0.3,1-0.5,1.6c0,0.1-0.1,0.2-0.1,0.3c-0.2,0.5-0.3,1.1-0.5,1.6c0,0.1-0.1,0.2-0.1,0.3
		c-0.2,0.6-0.4,1.1-0.5,1.7c0,0,0,0,0,0.1c-0.2,0.6-0.4,1.2-0.5,1.8c0,0.1-0.1,0.3-0.1,0.4c-0.2,0.6-0.4,1.2-0.5,1.8
		c0,0.1-0.1,0.2-0.1,0.4c-0.2,0.6-0.4,1.2-0.5,1.9v0.1c-0.2,0.6-0.3,1.3-0.5,1.9c0,0.1-0.1,0.3-0.1,0.4c-0.2,0.6-0.3,1.3-0.5,1.9
		c0,0.1-0.1,0.2-0.1,0.4c-0.2,0.7-0.3,1.4-0.5,2c-6.2,26.2,5.5,32.6,23.2,42.4c1.9,1.1,3.9,2.2,5.9,3.3c0.2,0.1,0.4,0.3,0.6,0.4
		c0.8,0.5,1.6,0.9,2.4,1.4c0.2,0.1,0.5,0.3,0.7,0.5c0.8,0.5,1.6,0.9,2.4,1.4C309,423,307.5,430.6,303.3,435.6z M317.2,425.4
		c-1.9,0-3.5-1.5-3.5-3.5c0-1.9,1.5-3.5,3.5-3.5c1.9,0,3.5,1.5,3.5,3.5S319.1,425.4,317.2,425.4z M367.9,396.6L367.9,396.6
		c0,0.1,0,0.2,0,0.2l0,0l0,0v0.1l0,0c0,0,0,0,0,0.1l0,0l0,0c0.1,0.2,0.3,0.6,0.5,1.1c0,0.1,0.1,0.2,0.1,0.3c0,0.1,0.1,0.2,0.1,0.3
		c0.1,0.2,0.2,0.4,0.2,0.6c0,0.1,0,0.1,0.1,0.2c1.2,2.8,2.9,7.4,4.2,12.4c1.8,7.2,2.8,17.2-2.2,23.3c-4.3,5.2-11.5,8.1-19.7,7.9
		c-8.7-0.2-16.7-3.9-20.9-9.6l0,0l0,0c-4.6-5.1-5.3-10.6-5.4-12c9.1-3.5,36.7-16.7,34.9-46.1c-0.6-9.4-7.3-27.1-8.8-30.9
		c0.2,0,0.3,0.1,0.5,0.1c0.2,0.1,0.5,0.1,0.7,0.2C360.4,365.7,365.7,385.7,367.9,396.6z"/>
</g>
</svg>
