<?xml version="1.0" encoding="utf-8"?>
<!-- Generator: Adobe Illustrator 27.0.0, SVG Export Plug-In . SVG Version: 6.00 Build 0)  -->
<svg version="1.1" id="Layer_1" xmlns="http://www.w3.org/2000/svg" xmlns:xlink="http://www.w3.org/1999/xlink" x="0px" y="0px"
	 viewBox="0 0 600 1200" style="enable-background:new 0 0 600 1200;" xml:space="preserve">
<style type="text/css">
	.st0{fill:none;stroke:#000000;stroke-linecap:round;stroke-linejoin:round;stroke-miterlimit:10;}
	.st1{fill:#7F374F;}
	.st2{clip-path:url(#SVGID_00000032611404303538254280000009455002898320607158_);}
	.st3{opacity:0.5;fill:#FFFFFF;}
	.st4{fill:none;}
</style>
<g>
	<g>
		<g>
			<g>
				<g>
					<path class="st0" d="M369.4,396.7"/>
				</g>
				<path class="st0" d="M282.8,344.6"/>
			</g>
		</g>
		<g>
			<path class="st1" d="M356.6,390.1c-6.2,3.1-21.8,10.1-36.4,10.1c-18.7,0-41.7-10.8-41.7-10.8s2.2-33.7,3.9-44.9
				c-1.6,0.6-3.4,1.2-5.3,1.9c-5.7,17.8-15.7,57.6-15.7,61c0,0,0,0,0,0c0,0.4-1.7,5.3-2,11.1c-0.3,5.3,0.9,12.5,3.4,17
				c2,3.5,7,6.6,8.8,7.3c7.5,2.7,14.4,2.5,20.2,0.8l61.2,0.1c0,0,0,0,0.1,0l1.1,0l0,0c7.1-0.2,14.1-2.8,18.4-8.1
				c9.8-12-2.4-37.6-3.1-38.9c-1-4.8-6.9-40.3-9.5-51c-2-0.5-3.9-0.9-5.7-1.3C354.9,354.1,357.7,386.1,356.6,390.1z"/>
			<path d="M283,445.3c-3.9,0-7.8-0.7-11.6-2c-1.7-0.6-6.9-3.7-9-7.5c-2.7-4.8-3.7-12.3-3.5-17.3c0.2-4.6,1.3-8.6,1.8-10.3
				c0.1-0.4,0.2-0.7,0.2-0.8c0-3.7,10.2-43.9,15.8-61.2c0-0.1,0.2-0.3,0.3-0.3c1.9-0.6,3.6-1.3,5.3-1.9c0.2-0.1,0.4,0,0.5,0.1
				c0.1,0.1,0.2,0.3,0.2,0.5c-1.6,10.4-3.6,40.9-3.9,44.5c2.8,1.3,24,10.7,41.2,10.7c14.3,0,29.8-6.9,36-9.9
				c0.8-4.1-1.2-28.5-2.2-40.3c-0.2-2-0.3-3.8-0.4-5.1c0-0.2,0.1-0.3,0.2-0.4s0.3-0.1,0.4-0.1c1.8,0.4,3.7,0.8,5.7,1.3
				c0.2,0,0.3,0.2,0.4,0.4c2,7.8,5.6,28.8,7.8,41.3c0.8,4.6,1.4,8.3,1.7,9.6c0.8,1.6,13.1,27.1,3,39.4c-4.1,5-10.9,8-18.7,8.3
				c0,0-0.1,0-0.1,0l-62.2-0.1C288.9,444.9,286,445.3,283,445.3z M277.5,346.8c-6,18.6-15.6,57.4-15.6,60.7c0,0.2-0.1,0.4-0.2,1
				c-0.5,1.7-1.5,5.6-1.8,10.1c-0.2,4.8,0.7,12.1,3.3,16.7c2,3.5,6.9,6.5,8.5,7c6.7,2.4,13.5,2.6,19.9,0.8c0,0,0.1,0,0.1,0l62.2,0.1
				c0,0,0.1,0,0.1,0c7.5-0.2,14.1-3.1,18-7.9c5-6.1,4-15.9,2.3-23c-1.8-7.7-4.9-14.3-5.4-15.3c0,0,0-0.1,0-0.1
				c-0.3-1.3-0.9-4.9-1.7-9.7c-2.2-12.4-5.8-33-7.7-41c-1.6-0.4-3.2-0.7-4.8-1.1c0.1,1.2,0.2,2.7,0.4,4.4c1.1,13,3.1,37.3,2.1,40.8
				c0,0.1-0.1,0.2-0.3,0.3c-6.1,3-21.9,10.1-36.6,10.1c-18.6,0-41.7-10.8-42-10.9c-0.2-0.1-0.3-0.3-0.3-0.5c0-0.3,2.1-32.3,3.8-44.1
				C280.4,345.7,279,346.2,277.5,346.8z M356.6,390.1L356.6,390.1L356.6,390.1z"/>
		</g>
		<g>
			<defs>
				<path id="SVGID_1_" d="M356.6,390.1c-6.2,3.1-21.8,10.1-36.4,10.1c-18.7,0-41.7-10.8-41.7-10.8s2.2-33.7,3.9-44.9
					c-1.6,0.6-3.4,1.2-5.3,1.9c-5.7,17.8-15.7,57.6-15.7,61c0,0,0,0,0,0c0,0.4-1.7,5.3-2,11.1c-0.3,5.3,0.9,12.5,3.4,17
					c2,3.5,7,6.6,8.8,7.3c7.5,2.7,14.4,2.5,20.2,0.8l61.2,0.1c0,0,0,0,0.1,0l1.1,0l0,0c7.1-0.2,14.1-2.8,18.4-8.1
					c9.8-12-2.4-37.6-3.1-38.9c-1-4.8-6.9-40.3-9.5-51c-2-0.5-3.9-0.9-5.7-1.3C354.9,354.1,357.7,386.1,356.6,390.1z"/>
			</defs>
			<clipPath id="SVGID_00000039125532530412417300000016378386442974341786_">
				<use xlink:href="#SVGID_1_"  style="overflow:visible;"/>
			</clipPath>
			<g style="clip-path:url(#SVGID_00000039125532530412417300000016378386442974341786_);">
				<rect x="211.4" y="332.4" class="st3" width="229.8" height="2.4"/>
				<rect x="211.4" y="337.2" class="st3" width="229.8" height="2.4"/>
				<rect x="211.4" y="342.1" class="st3" width="229.8" height="2.4"/>
				<rect x="211.4" y="346.9" class="st3" width="229.8" height="2.4"/>
				<rect x="211.4" y="351.8" class="st3" width="229.8" height="2.4"/>
				<rect x="211.4" y="356.6" class="st3" width="229.8" height="2.4"/>
				<rect x="211.4" y="361.4" class="st3" width="229.8" height="2.4"/>
				<rect x="211.4" y="366.3" class="st3" width="229.8" height="2.4"/>
				<rect x="211.4" y="371.1" class="st3" width="229.8" height="2.4"/>
				<rect x="211.4" y="376" class="st3" width="229.8" height="2.4"/>
				<rect x="211.4" y="380.8" class="st3" width="229.8" height="2.4"/>
				<rect x="211.4" y="385.7" class="st3" width="229.8" height="2.4"/>
				<rect x="211.4" y="390.5" class="st3" width="229.8" height="2.4"/>
				<rect x="211.4" y="395.3" class="st3" width="229.8" height="2.4"/>
				<rect x="211.4" y="400.2" class="st3" width="229.8" height="2.4"/>
				<rect x="211.4" y="405" class="st3" width="229.8" height="2.4"/>
				<rect x="211.4" y="409.9" class="st3" width="229.8" height="2.4"/>
				<rect x="211.4" y="414.7" class="st3" width="229.8" height="2.4"/>
				<rect x="211.4" y="419.6" class="st3" width="229.8" height="2.4"/>
				<rect x="211.4" y="424.4" class="st3" width="229.8" height="2.4"/>
				<rect x="211.4" y="429.3" class="st3" width="229.8" height="2.4"/>
				<rect x="211.4" y="434.1" class="st3" width="229.8" height="2.4"/>
				<rect x="211.4" y="438.9" class="st3" width="229.8" height="2.4"/>
				<rect x="211.4" y="443.8" class="st3" width="229.8" height="2.4"/>
				<rect x="211.4" y="448.6" class="st3" width="229.8" height="2.4"/>
				<rect x="211.4" y="453.5" class="st3" width="229.8" height="2.4"/>
				<rect x="211.4" y="458.3" class="st3" width="229.8" height="2.4"/>
				<rect x="211.4" y="463.2" class="st3" width="229.8" height="2.4"/>
				<rect x="211.4" y="468" class="st3" width="229.8" height="2.4"/>
				<rect x="211.4" y="472.8" class="st3" width="229.8" height="2.4"/>
				<rect x="211.4" y="477.7" class="st3" width="229.8" height="2.4"/>
				<rect x="211.4" y="482.5" class="st3" width="229.8" height="2.4"/>
				<rect x="211.4" y="487.4" class="st3" width="229.8" height="2.4"/>
				<rect x="211.4" y="492.2" class="st3" width="229.8" height="2.4"/>
				<rect x="211.4" y="497.1" class="st3" width="229.8" height="2.4"/>
				<rect x="211.4" y="501.9" class="st3" width="229.8" height="2.4"/>
				<rect x="211.4" y="506.7" class="st3" width="229.8" height="2.4"/>
				<rect x="211.4" y="511.6" class="st3" width="229.8" height="2.4"/>
				<rect x="211.4" y="516.4" class="st3" width="229.8" height="2.4"/>
				<rect x="211.4" y="521.3" class="st3" width="229.8" height="2.4"/>
				<rect x="211.4" y="526.1" class="st3" width="229.8" height="2.4"/>
				
					<rect x="308.2" y="429.3" transform="matrix(-1.836970e-16 1 -1 -1.836970e-16 853.5508 7.3181)" class="st3" width="229.8" height="2.4"/>
				
					<rect x="303.4" y="429.3" transform="matrix(-1.836970e-16 1 -1 -1.836970e-16 848.7077 12.1613)" class="st3" width="229.8" height="2.4"/>
				
					<rect x="298.5" y="429.3" transform="matrix(-1.836970e-16 1 -1 -1.836970e-16 843.8646 17.0044)" class="st3" width="229.8" height="2.4"/>
				
					<rect x="293.7" y="429.3" transform="matrix(-1.836970e-16 1 -1 -1.836970e-16 839.0214 21.8475)" class="st3" width="229.8" height="2.4"/>
				
					<rect x="288.9" y="429.3" transform="matrix(-1.836970e-16 1 -1 -1.836970e-16 834.1783 26.6907)" class="st3" width="229.8" height="2.4"/>
				
					<rect x="284" y="429.3" transform="matrix(-1.836970e-16 1 -1 -1.836970e-16 829.3351 31.5338)" class="st3" width="229.8" height="2.4"/>
				
					<rect x="279.2" y="429.3" transform="matrix(-1.836970e-16 1 -1 -1.836970e-16 824.492 36.3769)" class="st3" width="229.8" height="2.4"/>
				
					<rect x="274.3" y="429.3" transform="matrix(-1.836970e-16 1 -1 -1.836970e-16 819.6489 41.2201)" class="st3" width="229.8" height="2.4"/>
				
					<rect x="269.5" y="429.3" transform="matrix(-1.836970e-16 1 -1 -1.836970e-16 814.8057 46.0632)" class="st3" width="229.8" height="2.4"/>
				
					<rect x="264.6" y="429.3" transform="matrix(-1.836970e-16 1 -1 -1.836970e-16 809.9626 50.9064)" class="st3" width="229.8" height="2.4"/>
				
					<rect x="259.8" y="429.3" transform="matrix(-1.836970e-16 1 -1 -1.836970e-16 805.1194 55.7495)" class="st3" width="229.8" height="2.4"/>
				
					<rect x="255" y="429.3" transform="matrix(-1.836970e-16 1 -1 -1.836970e-16 800.2763 60.5926)" class="st3" width="229.8" height="2.4"/>
				
					<rect x="250.1" y="429.3" transform="matrix(-1.836970e-16 1 -1 -1.836970e-16 795.4332 65.4358)" class="st3" width="229.8" height="2.4"/>
				
					<rect x="245.3" y="429.3" transform="matrix(-1.836970e-16 1 -1 -1.836970e-16 790.59 70.2789)" class="st3" width="229.8" height="2.4"/>
				
					<rect x="240.4" y="429.3" transform="matrix(-1.836970e-16 1 -1 -1.836970e-16 785.7469 75.1221)" class="st3" width="229.8" height="2.4"/>
				
					<rect x="235.6" y="429.3" transform="matrix(-1.836970e-16 1 -1 -1.836970e-16 780.9037 79.9652)" class="st3" width="229.8" height="2.4"/>
				
					<rect x="230.7" y="429.3" transform="matrix(-1.836970e-16 1 -1 -1.836970e-16 776.0607 84.8083)" class="st3" width="229.8" height="2.4"/>
				
					<rect x="225.9" y="429.3" transform="matrix(-1.836970e-16 1 -1 -1.836970e-16 771.2175 89.6515)" class="st3" width="229.8" height="2.4"/>
				
					<rect x="221.1" y="429.3" transform="matrix(-1.836970e-16 1 -1 -1.836970e-16 766.3744 94.4946)" class="st3" width="229.8" height="2.4"/>
				
					<rect x="216.2" y="429.3" transform="matrix(-1.836970e-16 1 -1 -1.836970e-16 761.5312 99.3378)" class="st3" width="229.8" height="2.4"/>
				
					<rect x="211.4" y="429.3" transform="matrix(-1.836970e-16 1 -1 -1.836970e-16 756.6881 104.1809)" class="st3" width="229.8" height="2.4"/>
				
					<rect x="206.5" y="429.3" transform="matrix(-1.836970e-16 1 -1 -1.836970e-16 751.845 109.024)" class="st3" width="229.8" height="2.4"/>
				
					<rect x="201.7" y="429.3" transform="matrix(-1.836970e-16 1 -1 -1.836970e-16 747.0018 113.8672)" class="st3" width="229.8" height="2.4"/>
				
					<rect x="196.8" y="429.3" transform="matrix(-1.836970e-16 1 -1 -1.836970e-16 742.1587 118.7103)" class="st3" width="229.8" height="2.4"/>
				
					<rect x="192" y="429.3" transform="matrix(-1.836970e-16 1 -1 -1.836970e-16 737.3156 123.5535)" class="st3" width="229.8" height="2.4"/>
				
					<rect x="187.2" y="429.3" transform="matrix(-1.836970e-16 1 -1 -1.836970e-16 732.4724 128.3966)" class="st3" width="229.8" height="2.4"/>
				
					<rect x="182.3" y="429.3" transform="matrix(-1.836970e-16 1 -1 -1.836970e-16 727.6293 133.2397)" class="st3" width="229.8" height="2.4"/>
				
					<rect x="177.5" y="429.3" transform="matrix(-1.836970e-16 1 -1 -1.836970e-16 722.7861 138.0829)" class="st3" width="229.8" height="2.4"/>
				
					<rect x="172.6" y="429.3" transform="matrix(-1.836970e-16 1 -1 -1.836970e-16 717.943 142.926)" class="st3" width="229.8" height="2.4"/>
				
					<rect x="167.8" y="429.3" transform="matrix(-1.836970e-16 1 -1 -1.836970e-16 713.0999 147.7691)" class="st3" width="229.8" height="2.4"/>
				
					<rect x="162.9" y="429.3" transform="matrix(-1.836970e-16 1 -1 -1.836970e-16 708.2567 152.6123)" class="st3" width="229.8" height="2.4"/>
				
					<rect x="158.1" y="429.3" transform="matrix(-1.836970e-16 1 -1 -1.836970e-16 703.4136 157.4554)" class="st3" width="229.8" height="2.4"/>
				
					<rect x="153.3" y="429.3" transform="matrix(-1.836970e-16 1 -1 -1.836970e-16 698.5704 162.2986)" class="st3" width="229.8" height="2.4"/>
				
					<rect x="148.4" y="429.3" transform="matrix(-1.836970e-16 1 -1 -1.836970e-16 693.7273 167.1417)" class="st3" width="229.8" height="2.4"/>
				
					<rect x="143.6" y="429.3" transform="matrix(-1.836970e-16 1 -1 -1.836970e-16 688.8842 171.9848)" class="st3" width="229.8" height="2.4"/>
				
					<rect x="138.7" y="429.3" transform="matrix(-1.836970e-16 1 -1 -1.836970e-16 684.041 176.828)" class="st3" width="229.8" height="2.4"/>
				
					<rect x="133.9" y="429.3" transform="matrix(-1.836970e-16 1 -1 -1.836970e-16 679.1979 181.6711)" class="st3" width="229.8" height="2.4"/>
				
					<rect x="129" y="429.3" transform="matrix(-1.836970e-16 1 -1 -1.836970e-16 674.3547 186.5143)" class="st3" width="229.8" height="2.4"/>
				
					<rect x="124.2" y="429.3" transform="matrix(-1.836970e-16 1 -1 -1.836970e-16 669.5116 191.3574)" class="st3" width="229.8" height="2.4"/>
				
					<rect x="119.3" y="429.3" transform="matrix(-1.836970e-16 1 -1 -1.836970e-16 664.6685 196.2005)" class="st3" width="229.8" height="2.4"/>
				
					<rect x="114.5" y="429.3" transform="matrix(-1.836970e-16 1 -1 -1.836970e-16 659.8253 201.0437)" class="st3" width="229.8" height="2.4"/>
			</g>
		</g>
	</g>
	<path class="st4" d="M359.4,346.1c-1.5-0.4-3-0.7-4.5-1c-0.1,0-0.2,0-0.3-0.1c0.1,1.2,0.2,2.7,0.4,4.4c1.1,13,3.1,37.3,2.1,40.8
		c0,0.1-0.1,0.2-0.3,0.3c-6.1,3-21.9,10.1-36.6,10.1c-18.6,0-41.7-10.8-42-10.9c-0.2-0.1-0.3-0.3-0.3-0.5c0-0.3,2.1-32.3,3.8-44.1
		c-1.3,0.5-2.7,1-4.2,1.5c0,0-0.1,0-0.1,0c-6,18.6-15.6,57.4-15.6,60.7c0,0.2-0.1,0.4-0.2,1c-0.5,1.7-1.5,5.6-1.8,10.1
		c-0.2,4.8,0.7,12.1,3.3,16.7c2,3.5,6.9,6.5,8.5,7c6.7,2.4,13.5,2.6,19.9,0.8c0,0,0.1,0,0.1,0l62.2,0.1c0,0,0.1,0,0.1,0
		c7.5-0.2,14.1-3.1,18-7.9c5-6.1,4-15.9,2.3-23c-1.8-7.7-4.9-14.3-5.4-15.3c0,0,0-0.1,0-0.1c-0.3-1.3-0.9-4.9-1.7-9.7
		C365,374.7,361.4,354.1,359.4,346.1C359.4,346.1,359.4,346.1,359.4,346.1z"/>
	<g>
		<path class="st4" d="M353.6,344.8C353.6,344.8,353.6,344.8,353.6,344.8l0.5,6.2c0-0.5-0.1-1-0.1-1.5
			C353.9,347.7,353.7,346.1,353.6,344.8z"/>
		<path class="st4" d="M374.4,412.3c-1.8-7.7-4.9-14.3-5.4-15.3c0,0,0-0.1,0-0.1c-0.3-1.3-0.9-4.9-1.7-9.7c-2.2-12.4-5.8-33-7.7-41
			c0,0,0,0-0.1,0c-1.5-0.4-3-0.7-4.5-1c-0.1,0-0.2,0-0.3-0.1c0.1,1.2,0.2,2.7,0.4,4.4c1.1,13,3.1,37.3,2.1,40.8
			c0,0.1-0.1,0.2-0.3,0.3c-6.1,3-21.9,10.1-36.6,10.1c-18.6,0-41.7-10.8-42-10.9c-0.2-0.1-0.3-0.3-0.3-0.5c0-0.3,2.1-32.3,3.8-44.1
			c-1.3,0.5-2.7,1-4.2,1.5c0,0-0.1,0-0.1,0c-6,18.6-15.6,57.4-15.6,60.7c0,0.2-0.1,0.4-0.2,1c-0.5,1.7-1.5,5.6-1.8,10.1
			c-0.2,4.8,0.7,12.1,3.3,16.7c2,3.5,6.9,6.5,8.5,7c6.7,2.4,13.5,2.6,19.9,0.8c0,0,0.1,0,0.1,0l62.2,0.1c0,0,0.1,0,0.1,0
			c7.5-0.2,14.1-3.1,18-7.9C377,429.2,376.1,419.4,374.4,412.3z"/>
	</g>
	<path class="st4" d="M374.4,412.3c-1.8-7.7-4.9-14.3-5.4-15.3c0,0,0-0.1,0-0.1c-0.3-1.3-0.9-4.9-1.7-9.7c-2.2-12.4-5.8-33-7.7-41
		c0,0,0,0-0.1,0c-1.5-0.4-3-0.7-4.5-1c-0.1,0-0.2,0-0.3-0.1c0.1,1.2,0.2,2.7,0.4,4.4c1.1,13,3.1,37.3,2.1,40.8
		c0,0.1-0.1,0.2-0.3,0.3c-6.1,3-21.9,10.1-36.6,10.1c-18.6,0-41.7-10.8-42-10.9c-0.2-0.1-0.3-0.3-0.3-0.5c0-0.3,2.1-32.3,3.8-44.1
		c-1.3,0.5-2.7,1-4.2,1.5c0,0-0.1,0-0.1,0c-6,18.6-15.6,57.4-15.6,60.7c0,0.2-0.1,0.4-0.2,1c-0.5,1.7-1.5,5.6-1.8,10.1
		c-0.2,4.8,0.7,12.1,3.3,16.7c2,3.5,6.9,6.5,8.5,7c6.7,2.4,13.5,2.6,19.9,0.8c0,0,0.1,0,0.1,0l62.2,0.1c0,0,0.1,0,0.1,0
		c7.5-0.2,14.1-3.1,18-7.9C377,429.2,376.1,419.4,374.4,412.3z"/>
	<g>
		<path class="st4" d="M374.4,412.3c-1.8-7.7-4.9-14.3-5.4-15.3c0,0,0-0.1,0-0.1c-0.3-1.3-0.9-4.9-1.7-9.7c-2.2-12.4-5.8-33-7.7-41
			c0,0,0,0-0.1,0c-1.5-0.4-3-0.7-4.5-1c-0.1,0-0.2,0-0.3-0.1c0.1,1.2,0.2,2.7,0.4,4.4c1.1,13,3.1,37.3,2.1,40.8
			c0,0.1-0.1,0.2-0.3,0.3c-6.1,3-21.9,10.1-36.6,10.1c-18.6,0-41.7-10.8-42-10.9c-0.2-0.1-0.3-0.3-0.3-0.5c0-0.3,2.1-32.3,3.8-44.1
			c-1.3,0.5-2.7,1-4.2,1.5c0,0-0.1,0-0.1,0c-6,18.6-15.6,57.4-15.6,60.7c0,0.2-0.1,0.4-0.2,1c-0.5,1.7-1.5,5.6-1.8,10.1
			c-0.2,4.8,0.7,12.1,3.3,16.7c2,3.5,6.9,6.5,8.5,7c6.7,2.4,13.5,2.6,19.9,0.8c0,0,0.1,0,0.1,0l62.2,0.1c0,0,0.1,0,0.1,0
			c7.5-0.2,14.1-3.1,18-7.9C377,429.2,376.1,419.4,374.4,412.3z"/>
		<path class="st4" d="M276.3,347.2l-1.1,3.5C275.6,349.5,276,348.3,276.3,347.2C276.3,347.2,276.3,347.2,276.3,347.2z"/>
		<path d="M369.8,396.5c-0.3-1.4-0.9-5-1.7-9.6c-2.1-12.1-5.6-32.2-7.6-40.5c0,0,0,0,0,0l-0.3-1.1c-0.1,0-0.2-0.1-0.3-0.1
			c0,0,0,0,0,0c0,0-0.1,0-0.1,0c-2.2-0.5-4.4-1-6.4-1.4l0.1,1c0,0,0,0,0.1,0c0.1,1.3,0.2,2.9,0.4,4.7c0,0.5,0.1,1,0.1,1.5l0,0l0,0
			c1,12.3,2.8,34.9,2,38.8c-6.2,3.1-21.6,9.9-36,9.9c-17.2,0-38.4-9.4-41.2-10.7c0.2-3.6,2.2-33.5,3.8-44.2c0,0,0,0,0,0l0.2-1.1
			c-0.3,0.1-0.5,0.2-0.8,0.3c0,0,0,0,0,0c-1.6,0.6-3.3,1.2-5.1,1.8c-0.1,0.1-0.3,0.1-0.5,0.2l-0.4,1.2c0,0,0,0,0,0
			c-0.3,1.1-0.7,2.3-1.1,3.5l0,0.1c-5.7,19-14.3,53.2-14.3,56.6c0,0.1-0.1,0.4-0.2,0.8c-0.5,1.7-1.6,5.7-1.8,10.3
			c-0.2,5,0.7,12.5,3.5,17.3c2.2,3.8,7.3,6.9,9,7.5c3.8,1.4,7.8,2,11.6,2c3,0,6-0.4,8.8-1.2l62.2,0.1c0,0,0.1,0,0.1,0
			c7.8-0.2,14.6-3.3,18.7-8.3C382.9,423.6,370.6,398.1,369.8,396.5z M372.1,435.3c-3.9,4.8-10.5,7.7-18,7.9c0,0-0.1,0-0.1,0
			l-62.2-0.1c0,0-0.1,0-0.1,0c-6.4,1.9-13.2,1.6-19.9-0.8c-1.5-0.5-6.5-3.5-8.5-7c-2.6-4.6-3.6-11.9-3.3-16.7
			c0.2-4.5,1.3-8.4,1.8-10.1c0.2-0.7,0.2-0.8,0.2-1c0-3.3,9.7-42,15.6-60.7c0,0,0.1,0,0.1,0c1.5-0.5,2.9-1,4.2-1.5
			c-1.7,11.8-3.7,43.7-3.8,44.1c0,0.2,0.1,0.4,0.3,0.5c0.2,0.1,23.4,10.9,42,10.9c14.7,0,30.5-7.1,36.6-10.1
			c0.1-0.1,0.2-0.2,0.3-0.3c1-3.6-1-27.8-2.1-40.8c-0.1-1.7-0.3-3.2-0.4-4.4c0.1,0,0.2,0,0.3,0.1c1.4,0.3,2.9,0.6,4.5,1
			c0,0,0,0,0.1,0c2,8,5.6,28.6,7.7,41c0.9,4.9,1.5,8.4,1.7,9.7c0,0,0,0.1,0,0.1c0.5,1,3.6,7.6,5.4,15.3
			C376.1,419.4,377,429.2,372.1,435.3z"/>
		<path d="M275.2,350.8l0-0.1C275.2,350.7,275.2,350.8,275.2,350.8z"/>
	</g>
</g>
</svg>
