<?xml version="1.0" encoding="utf-8"?>
<!-- Generator: Adobe Illustrator 27.0.0, SVG Export Plug-In . SVG Version: 6.00 Build 0)  -->
<svg version="1.1" id="Layer_1" xmlns="http://www.w3.org/2000/svg" xmlns:xlink="http://www.w3.org/1999/xlink" x="0px" y="0px"
	 viewBox="0 0 600 1200" style="enable-background:new 0 0 600 1200;" xml:space="preserve">
<style type="text/css">
	.st0{fill:none;stroke:#000000;stroke-linecap:round;stroke-linejoin:round;stroke-miterlimit:10;}
	.st1{fill:#701E13;}
	.st2{fill:#F46E0B;}
	.st3{fill:none;}
</style>
<g>
	<g>
		<g>
			<g>
				<path class="st0" d="M260.9,407.4"/>
				<path class="st0" d="M368.9,396.7"/>
				<circle class="st1" cx="318.3" cy="422" r="4"/>
			</g>
			<path class="st2" d="M368.9,396.7c-0.9-2,13.5,26.1,3.1,38.8c-9.7,11.9-32.6,10.2-41.4-1.7"/>
			<path class="st2" d="M368.9,396.7c-1-5-2.8-12.4-5.3-21.2l-6-0.1c1.5,24.1-14.8,39-32.5,45.7c0,0,0,6.6,5.5,12.7"/>
			<path class="st2" d="M273.1,372.2c-5.5,15.8-12.2,31.6-12.2,35.2c0,0,0,0,0,0c0,0.4-1.7,5.3-2,11.1c-0.3,5.3,0.9,12.5,3.4,17
				c2,3.5,7,6.6,8.8,7.3c14.7,5.2,27.2-0.5,33.4-7.1c5.6-6,5.8-14.5,5.8-14.5c-23.8-14.9-38.6-17.5-31.1-49L273.1,372.2z"/>
			<path class="st0" d="M282.3,344.6"/>
		</g>
		<path class="st2" d="M361.4,375.5l2.2,0l-1.1-29.1c-0.7-0.2-1.4-0.3-2-0.5L361.4,375.5z"/>
		<path class="st2" d="M357.6,375.4l1.8,0l-0.6-29.9c-0.6-0.1-1.3-0.3-1.9-0.4L357.6,375.4z"/>
		<path class="st2" d="M273.1,372.2l2.3,0l2-26.1c-0.7,0.2-1.4,0.5-2.1,0.7L273.1,372.2z"/>
		<path class="st2" d="M279.1,345.5l-2,26.7l2.1,0l1.8-27.4C280.4,345.1,279.7,345.3,279.1,345.5z"/>
	</g>
	<g>
		<path class="st3" d="M276.6,371.7l1.9-25.5c-0.2,0.1-0.4,0.1-0.6,0.2l-2,25.3H276.6z"/>
		<path class="st3" d="M274.9,371.7l2-24.9c-0.3,0.1-0.7,0.2-1,0.3l0,0l-2.2,24.5H274.9z"/>
		<path class="st3" d="M278.7,371.7l1.7-26.1c-0.2,0.1-0.3,0.1-0.5,0.2c-0.1,0-0.2,0.1-0.3,0.1c0,0-0.1,0-0.1,0l-1.9,25.8H278.7z"/>
		<path class="st3" d="M361.4,346.7c-0.1,0-0.2-0.1-0.3-0.1c0,0,0,0-0.1,0l0.8,28.4l1.2,0l-1-28.2
			C361.9,346.8,361.7,346.7,361.4,346.7z"/>
		<path class="st3" d="M358.9,375l-0.5-29c-0.3-0.1-0.6-0.1-0.8-0.2c0,0,0,0,0,0l0.6,29.2L358.9,375z"/>
		<path class="st3" d="M360.9,375l-0.8-28.6c-0.2-0.1-0.5-0.1-0.7-0.2l0.5,28.8L360.9,375z"/>
		<path class="st3" d="M361.4,376l-2,0l0,0c0,0,0,0,0,0l-1.3,0c0,0.3,0,0.5,0,0.8c0,0.3,0,0.7,0,1c0,0.4,0,0.7,0,1.1
			c0,0.3,0,0.7,0,1c0,0.4,0,0.7,0,1.1c0,0.3,0,0.6-0.1,1c0,0.4-0.1,0.7-0.1,1.1c0,0.3-0.1,0.6-0.1,0.9c0,0.3-0.1,0.7-0.1,1
			c0,0.3-0.1,0.6-0.1,0.9c-0.1,0.3-0.1,0.7-0.2,1c-0.1,0.3-0.1,0.6-0.2,0.9c-0.1,0.3-0.2,0.7-0.2,1c-0.1,0.3-0.1,0.6-0.2,0.9
			c-0.1,0.3-0.2,0.7-0.3,1c-0.1,0.3-0.2,0.6-0.2,0.8c-0.1,0.3-0.2,0.7-0.3,1c-0.1,0.3-0.2,0.6-0.3,0.8c-0.1,0.3-0.3,0.7-0.4,1
			c-0.1,0.3-0.2,0.5-0.3,0.8c-0.1,0.3-0.3,0.7-0.4,1c-0.1,0.3-0.2,0.5-0.3,0.8c-0.2,0.3-0.3,0.7-0.5,1c-0.1,0.2-0.2,0.5-0.4,0.7
			c-0.2,0.3-0.4,0.7-0.6,1c-0.1,0.2-0.3,0.5-0.4,0.7c-0.2,0.3-0.4,0.7-0.6,1c-0.1,0.2-0.3,0.4-0.4,0.6c-0.2,0.4-0.5,0.7-0.8,1.1
			c-0.1,0.2-0.2,0.4-0.4,0.5c-0.4,0.5-0.8,1.1-1.2,1.6c-5.6,7-13.7,12.7-23.3,16.4c0.1,1.4,0.7,6.9,5.4,12c0,0,0,0,0,0c0,0,0,0,0,0
			c4.2,5.7,12.2,9.4,20.9,9.6c8.3,0.2,15.4-2.7,19.7-7.9c5-6.1,4-16.1,2.2-23.3c-0.3-1.2-0.6-2.4-1-3.6c0-0.1-0.1-0.3-0.1-0.4
			c0-0.2-0.1-0.3-0.1-0.5c-0.1-0.3-0.2-0.5-0.2-0.8c0-0.1-0.1-0.2-0.1-0.3c-0.1-0.3-0.2-0.6-0.3-0.9c0-0.1,0-0.1-0.1-0.2
			c-0.1-0.3-0.2-0.6-0.3-1c0,0,0-0.1,0-0.1c-1.3-3.7-2.6-6.4-3-7.2c0,0,0,0,0,0c0,0,0,0,0,0c0,0,0,0,0,0c0,0,0-0.1,0-0.1
			c0,0,0,0,0,0c0,0,0,0,0,0c0,0,0-0.1,0-0.1c0,0,0,0,0-0.1c-0.7-3.4-2.2-10.4-5.1-20.6L361.4,376C361.4,376,361.4,376,361.4,376z"/>
		<path class="st3" d="M318.3,418.6c-1.9,0-3.5,1.5-3.5,3.5c0,1.9,1.5,3.5,3.5,3.5c1.9,0,3.5-1.5,3.5-3.5
			C321.7,420.1,320.2,418.6,318.3,418.6z"/>
		<path class="st3" d="M307.3,420c-0.6-0.4-1.2-0.7-1.8-1.1c-0.2-0.1-0.4-0.2-0.5-0.3c-1.6-0.9-3.1-1.8-4.6-2.7
			c-1.1-0.7-2.2-1.3-3.3-1.9c-0.2-0.1-0.4-0.3-0.6-0.4c-0.3-0.2-0.6-0.4-0.9-0.6c-0.3-0.2-0.5-0.3-0.7-0.5c-0.3-0.2-0.5-0.3-0.8-0.5
			c-0.2-0.2-0.5-0.3-0.7-0.4c-0.2-0.2-0.5-0.3-0.7-0.5c-0.2-0.2-0.5-0.3-0.7-0.5c-0.2-0.1-0.5-0.3-0.7-0.4c-0.3-0.2-0.5-0.3-0.8-0.5
			c-0.2-0.1-0.4-0.3-0.6-0.4c-0.2-0.2-0.5-0.3-0.7-0.5c-0.2-0.1-0.4-0.3-0.6-0.4c-0.2-0.2-0.5-0.3-0.7-0.5c-0.2-0.1-0.4-0.3-0.5-0.4
			c-0.2-0.2-0.4-0.4-0.7-0.5c-0.2-0.1-0.3-0.3-0.5-0.4c-0.2-0.2-0.4-0.4-0.6-0.5c-0.2-0.1-0.3-0.3-0.5-0.4c-0.2-0.2-0.4-0.4-0.6-0.6
			c-0.1-0.1-0.3-0.3-0.4-0.4c-0.2-0.2-0.4-0.4-0.6-0.6c-0.1-0.1-0.3-0.3-0.4-0.4c-0.2-0.2-0.4-0.4-0.5-0.6c-0.1-0.1-0.3-0.3-0.4-0.4
			c-0.2-0.2-0.3-0.4-0.5-0.6c-0.1-0.2-0.2-0.3-0.4-0.5c-0.2-0.2-0.3-0.4-0.4-0.6c-0.1-0.2-0.2-0.3-0.3-0.5c-0.1-0.2-0.3-0.4-0.4-0.7
			c-0.1-0.2-0.2-0.3-0.3-0.5c-0.1-0.2-0.2-0.5-0.4-0.7c-0.1-0.2-0.2-0.4-0.3-0.5c-0.1-0.2-0.2-0.5-0.3-0.7c-0.1-0.2-0.2-0.4-0.2-0.6
			c-0.1-0.2-0.2-0.5-0.3-0.8c-0.1-0.2-0.1-0.4-0.2-0.6c-0.1-0.3-0.2-0.5-0.2-0.8c-0.1-0.2-0.1-0.4-0.2-0.6c-0.1-0.3-0.1-0.6-0.2-0.8
			c0-0.2-0.1-0.4-0.1-0.7c-0.1-0.3-0.1-0.6-0.1-0.9c0-0.2-0.1-0.5-0.1-0.7c0-0.3-0.1-0.6-0.1-0.9c0-0.3-0.1-0.5-0.1-0.8
			c0-0.3,0-0.6,0-0.9c0-0.3,0-0.5,0-0.8c0-0.3,0-0.7,0-1c0-0.3,0-0.6,0-0.8c0-0.3,0-0.7,0-1c0-0.3,0-0.6,0-0.9
			c0-0.4,0.1-0.7,0.1-1.1c0-0.3,0.1-0.6,0.1-1c0-0.4,0.1-0.7,0.1-1.1c0-0.3,0.1-0.7,0.1-1c0.1-0.4,0.1-0.8,0.2-1.2
			c0.1-0.4,0.1-0.7,0.2-1.1c0.1-0.4,0.1-0.8,0.2-1.2c0.1-0.4,0.1-0.8,0.2-1.1c0.1-0.4,0.2-0.8,0.3-1.3c0.1-0.3,0.1-0.6,0.2-0.9h-1.4
			h-1.7h-1.9c-2,5.8-4.2,11.5-6.1,16.6c-3.2,8.5-6,15.9-6,18.1c0,0.2-0.1,0.4-0.2,1c-0.2,0.6-0.4,1.5-0.6,2.5
			c-0.5,2.5-1.1,6.1-1.1,10c0.1,4.3,1,9.8,3,13.6c0.5,1,1.2,1.9,1.9,2.8c1.9,2,4.4,3.7,6,4.5c0.4,0.2,0.7,0.3,1.1,0.5
			c6.2,2.2,12,2.4,17.1,1.4c2.9-0.6,5.6-1.6,7.9-2.7c3-1.5,5.6-3.4,7.5-5.5c4.2-5,5.7-12.5,5.9-14.2c-0.6-0.4-1.2-0.8-1.9-1.1
			C307.7,420.2,307.5,420.1,307.3,420z"/>
	</g>
	<g>
		<path class="st3" d="M278.7,371.7l1.7-26.1c-0.2,0.1-0.3,0.1-0.5,0.2c-0.1,0-0.2,0.1-0.3,0.1c0,0-0.1,0-0.1,0l-1.9,25.8H278.7z"/>
		<path class="st3" d="M276.6,371.7l1.9-25.5c-0.2,0.1-0.4,0.1-0.6,0.2l-2,25.3H276.6z"/>
		<polygon class="st3" points="356.5,345.5 356.5,346.8 356.5,345.5 		"/>
		<path class="st3" d="M274.9,371.7l2-24.9c-0.3,0.1-0.7,0.2-1,0.3l0,0l-2.2,24.5H274.9z"/>
		<path class="st3" d="M307.3,420c-0.6-0.4-1.2-0.7-1.8-1.1c-0.2-0.1-0.4-0.2-0.5-0.3c-1.6-0.9-3.1-1.8-4.6-2.7
			c-1.1-0.7-2.2-1.3-3.3-1.9c-0.2-0.1-0.4-0.3-0.6-0.4c-0.3-0.2-0.6-0.4-0.9-0.6c-0.3-0.2-0.5-0.3-0.7-0.5c-0.3-0.2-0.5-0.3-0.8-0.5
			c-0.2-0.2-0.5-0.3-0.7-0.4c-0.2-0.2-0.5-0.3-0.7-0.5c-0.2-0.2-0.5-0.3-0.7-0.5c-0.2-0.1-0.5-0.3-0.7-0.4c-0.3-0.2-0.5-0.3-0.8-0.5
			c-0.2-0.1-0.4-0.3-0.6-0.4c-0.2-0.2-0.5-0.3-0.7-0.5c-0.2-0.1-0.4-0.3-0.6-0.4c-0.2-0.2-0.5-0.3-0.7-0.5c-0.2-0.1-0.4-0.3-0.5-0.4
			c-0.2-0.2-0.4-0.4-0.7-0.5c-0.2-0.1-0.3-0.3-0.5-0.4c-0.2-0.2-0.4-0.4-0.6-0.5c-0.2-0.1-0.3-0.3-0.5-0.4c-0.2-0.2-0.4-0.4-0.6-0.6
			c-0.1-0.1-0.3-0.3-0.4-0.4c-0.2-0.2-0.4-0.4-0.6-0.6c-0.1-0.1-0.3-0.3-0.4-0.4c-0.2-0.2-0.4-0.4-0.5-0.6c-0.1-0.1-0.3-0.3-0.4-0.4
			c-0.2-0.2-0.3-0.4-0.5-0.6c-0.1-0.2-0.2-0.3-0.4-0.5c-0.2-0.2-0.3-0.4-0.4-0.6c-0.1-0.2-0.2-0.3-0.3-0.5c-0.1-0.2-0.3-0.4-0.4-0.7
			c-0.1-0.2-0.2-0.3-0.3-0.5c-0.1-0.2-0.2-0.5-0.4-0.7c-0.1-0.2-0.2-0.4-0.3-0.5c-0.1-0.2-0.2-0.5-0.3-0.7c-0.1-0.2-0.2-0.4-0.2-0.6
			c-0.1-0.2-0.2-0.5-0.3-0.8c-0.1-0.2-0.1-0.4-0.2-0.6c-0.1-0.3-0.2-0.5-0.2-0.8c-0.1-0.2-0.1-0.4-0.2-0.6c-0.1-0.3-0.1-0.6-0.2-0.8
			c0-0.2-0.1-0.4-0.1-0.7c-0.1-0.3-0.1-0.6-0.1-0.9c0-0.2-0.1-0.5-0.1-0.7c0-0.3-0.1-0.6-0.1-0.9c0-0.3-0.1-0.5-0.1-0.8
			c0-0.3,0-0.6,0-0.9c0-0.3,0-0.5,0-0.8c0-0.3,0-0.7,0-1c0-0.3,0-0.6,0-0.8c0-0.3,0-0.7,0-1c0-0.3,0-0.6,0-0.9
			c0-0.4,0.1-0.7,0.1-1.1c0-0.3,0.1-0.6,0.1-1c0-0.4,0.1-0.7,0.1-1.1c0-0.3,0.1-0.7,0.1-1c0.1-0.4,0.1-0.8,0.2-1.2
			c0.1-0.4,0.1-0.7,0.2-1.1c0.1-0.4,0.1-0.8,0.2-1.2c0.1-0.4,0.1-0.8,0.2-1.1c0.1-0.4,0.2-0.8,0.3-1.3c0.1-0.3,0.1-0.6,0.2-0.9h-1.4
			h-1.7h-1.9c-2,5.8-4.2,11.5-6.1,16.6c-3.2,8.5-6,15.9-6,18.1c0,0.2-0.1,0.4-0.2,1c-0.2,0.6-0.4,1.5-0.6,2.5
			c-0.5,2.5-1.1,6.1-1.1,10c0.1,4.3,1,9.8,3,13.6c0.5,1,1.2,1.9,1.9,2.8c1.9,2,4.4,3.7,6,4.5c0.4,0.2,0.7,0.3,1.1,0.5
			c6.2,2.2,12,2.4,17.1,1.4c2.9-0.6,5.6-1.6,7.9-2.7c3-1.5,5.6-3.4,7.5-5.5c4.2-5,5.7-12.5,5.9-14.2c-0.6-0.4-1.2-0.8-1.9-1.1
			C307.7,420.2,307.5,420.1,307.3,420z"/>
		<path class="st3" d="M318.3,418.6c-1.9,0-3.5,1.5-3.5,3.5c0,1.9,1.5,3.5,3.5,3.5c1.9,0,3.5-1.5,3.5-3.5
			C321.7,420.1,320.2,418.6,318.3,418.6z"/>
		<path class="st3" d="M360.9,375l-0.8-28.6c-0.2-0.1-0.5-0.1-0.7-0.2l0.5,28.8L360.9,375z"/>
		<path class="st3" d="M363.1,375l-1-28.2c-0.2-0.1-0.4-0.1-0.6-0.2c-0.1,0-0.2-0.1-0.3-0.1c0,0,0,0-0.1,0l0.8,28.4L363.1,375z"/>
		<path class="st3" d="M358.9,375l-0.5-29c-0.3-0.1-0.6-0.1-0.8-0.2c0,0,0,0,0,0l0.6,29.2L358.9,375z"/>
		<path class="st3" d="M372.8,408.4c0-0.1-0.1-0.3-0.1-0.4c0-0.2-0.1-0.3-0.1-0.5c-0.1-0.3-0.2-0.5-0.2-0.8c0-0.1-0.1-0.2-0.1-0.3
			c-0.1-0.3-0.2-0.6-0.3-0.9c0-0.1,0-0.1-0.1-0.2c-0.1-0.3-0.2-0.6-0.3-1c0,0,0-0.1,0-0.1c-1.3-3.7-2.6-6.4-3-7.2c0,0,0,0,0,0
			c0,0,0,0,0,0c0,0,0,0,0,0c0,0,0-0.1,0-0.1c0,0,0,0,0,0c0,0,0,0,0,0c0,0,0-0.1,0-0.1c0,0,0,0,0-0.1c-0.7-3.4-2.2-10.4-5.1-20.6
			l-1.9,0c0,0,0,0,0,0l-2,0l0,0c0,0,0,0,0,0l-1.3,0c0,0.3,0,0.5,0,0.8c0,0.3,0,0.7,0,1c0,0.4,0,0.7,0,1.1c0,0.3,0,0.7,0,1
			c0,0.4,0,0.7,0,1.1c0,0.3,0,0.6-0.1,1c0,0.4-0.1,0.7-0.1,1.1c0,0.3-0.1,0.6-0.1,0.9c0,0.3-0.1,0.7-0.1,1c0,0.3-0.1,0.6-0.1,0.9
			c-0.1,0.3-0.1,0.7-0.2,1c-0.1,0.3-0.1,0.6-0.2,0.9c-0.1,0.3-0.2,0.7-0.2,1c-0.1,0.3-0.1,0.6-0.2,0.9c-0.1,0.3-0.2,0.7-0.3,1
			c-0.1,0.3-0.2,0.6-0.2,0.8c-0.1,0.3-0.2,0.7-0.3,1c-0.1,0.3-0.2,0.6-0.3,0.8c-0.1,0.3-0.3,0.7-0.4,1c-0.1,0.3-0.2,0.5-0.3,0.8
			c-0.1,0.3-0.3,0.7-0.4,1c-0.1,0.3-0.2,0.5-0.3,0.8c-0.2,0.3-0.3,0.7-0.5,1c-0.1,0.2-0.2,0.5-0.4,0.7c-0.2,0.3-0.4,0.7-0.6,1
			c-0.1,0.2-0.3,0.5-0.4,0.7c-0.2,0.3-0.4,0.7-0.6,1c-0.1,0.2-0.3,0.4-0.4,0.6c-0.2,0.4-0.5,0.7-0.8,1.1c-0.1,0.2-0.2,0.4-0.4,0.5
			c-0.4,0.5-0.8,1.1-1.2,1.6c-5.6,7-13.7,12.7-23.3,16.4c0.1,1.4,0.7,6.9,5.4,12c0,0,0,0,0,0c0,0,0,0,0,0c4.2,5.7,12.2,9.4,20.9,9.6
			c8.3,0.2,15.4-2.7,19.7-7.9c5-6.1,4-16.1,2.2-23.3C373.5,410.7,373.2,409.6,372.8,408.4z"/>
	</g>
	<g>
		<path class="st3" d="M276.6,371.7l1.9-25.5c-0.2,0.1-0.4,0.1-0.6,0.2l-2,25.3H276.6z"/>
		<path class="st3" d="M278.7,371.7l1.7-26.1c-0.2,0.1-0.3,0.1-0.5,0.2c-0.1,0-0.2,0.1-0.3,0.1c0,0-0.1,0-0.1,0l-1.9,25.8H278.7z"/>
		<path class="st3" d="M274.9,371.7l2-24.9c-0.3,0.1-0.7,0.2-1,0.3l0,0l-2.2,24.5H274.9z"/>
		<path class="st3" d="M363.1,375l-1-28.2c-0.2-0.1-0.4-0.1-0.6-0.2c-0.1,0-0.2-0.1-0.3-0.1c0,0,0,0-0.1,0l0.8,28.4L363.1,375z"/>
		<path class="st3" d="M360.9,375l-0.8-28.6c-0.2-0.1-0.5-0.1-0.7-0.2l0.5,28.8L360.9,375z"/>
		<path class="st3" d="M307.3,420c-0.6-0.4-1.2-0.7-1.8-1.1c-0.2-0.1-0.4-0.2-0.5-0.3c-1.6-0.9-3.1-1.8-4.6-2.7
			c-1.1-0.7-2.2-1.3-3.3-1.9c-0.2-0.1-0.4-0.3-0.6-0.4c-0.3-0.2-0.6-0.4-0.9-0.6c-0.3-0.2-0.5-0.3-0.7-0.5c-0.3-0.2-0.5-0.3-0.8-0.5
			c-0.2-0.2-0.5-0.3-0.7-0.4c-0.2-0.2-0.5-0.3-0.7-0.5c-0.2-0.2-0.5-0.3-0.7-0.5c-0.2-0.1-0.5-0.3-0.7-0.4c-0.3-0.2-0.5-0.3-0.8-0.5
			c-0.2-0.1-0.4-0.3-0.6-0.4c-0.2-0.2-0.5-0.3-0.7-0.5c-0.2-0.1-0.4-0.3-0.6-0.4c-0.2-0.2-0.5-0.3-0.7-0.5c-0.2-0.1-0.4-0.3-0.5-0.4
			c-0.2-0.2-0.4-0.4-0.7-0.5c-0.2-0.1-0.3-0.3-0.5-0.4c-0.2-0.2-0.4-0.4-0.6-0.5c-0.2-0.1-0.3-0.3-0.5-0.4c-0.2-0.2-0.4-0.4-0.6-0.6
			c-0.1-0.1-0.3-0.3-0.4-0.4c-0.2-0.2-0.4-0.4-0.6-0.6c-0.1-0.1-0.3-0.3-0.4-0.4c-0.2-0.2-0.4-0.4-0.5-0.6c-0.1-0.1-0.3-0.3-0.4-0.4
			c-0.2-0.2-0.3-0.4-0.5-0.6c-0.1-0.2-0.2-0.3-0.4-0.5c-0.2-0.2-0.3-0.4-0.4-0.6c-0.1-0.2-0.2-0.3-0.3-0.5c-0.1-0.2-0.3-0.4-0.4-0.7
			c-0.1-0.2-0.2-0.3-0.3-0.5c-0.1-0.2-0.2-0.5-0.4-0.7c-0.1-0.2-0.2-0.4-0.3-0.5c-0.1-0.2-0.2-0.5-0.3-0.7c-0.1-0.2-0.2-0.4-0.2-0.6
			c-0.1-0.2-0.2-0.5-0.3-0.8c-0.1-0.2-0.1-0.4-0.2-0.6c-0.1-0.3-0.2-0.5-0.2-0.8c-0.1-0.2-0.1-0.4-0.2-0.6c-0.1-0.3-0.1-0.6-0.2-0.8
			c0-0.2-0.1-0.4-0.1-0.7c-0.1-0.3-0.1-0.6-0.1-0.9c0-0.2-0.1-0.5-0.1-0.7c0-0.3-0.1-0.6-0.1-0.9c0-0.3-0.1-0.5-0.1-0.8
			c0-0.3,0-0.6,0-0.9c0-0.3,0-0.5,0-0.8c0-0.3,0-0.7,0-1c0-0.3,0-0.6,0-0.8c0-0.3,0-0.7,0-1c0-0.3,0-0.6,0-0.9
			c0-0.4,0.1-0.7,0.1-1.1c0-0.3,0.1-0.6,0.1-1c0-0.4,0.1-0.7,0.1-1.1c0-0.3,0.1-0.7,0.1-1c0.1-0.4,0.1-0.8,0.2-1.2
			c0.1-0.4,0.1-0.7,0.2-1.1c0.1-0.4,0.1-0.8,0.2-1.2c0.1-0.4,0.1-0.8,0.2-1.1c0.1-0.4,0.2-0.8,0.3-1.3c0.1-0.3,0.1-0.6,0.2-0.9h-1.4
			h-1.7h-1.9c-2,5.8-4.2,11.5-6.1,16.6c-3.2,8.5-6,15.9-6,18.1c0,0.2-0.1,0.4-0.2,1c-0.2,0.6-0.4,1.5-0.6,2.5
			c-0.5,2.5-1.1,6.1-1.1,10c0.1,4.3,1,9.8,3,13.6c0.5,1,1.2,1.9,1.9,2.8c1.9,2,4.4,3.7,6,4.5c0.4,0.2,0.7,0.3,1.1,0.5
			c6.2,2.2,12,2.4,17.1,1.4c2.9-0.6,5.6-1.6,7.9-2.7c3-1.5,5.6-3.4,7.5-5.5c4.2-5,5.7-12.5,5.9-14.2c-0.6-0.4-1.2-0.8-1.9-1.1
			C307.7,420.2,307.5,420.1,307.3,420z"/>
		<path class="st3" d="M372.8,408.4c0-0.1-0.1-0.3-0.1-0.4c0-0.2-0.1-0.3-0.1-0.5c-0.1-0.3-0.2-0.5-0.2-0.8c0-0.1-0.1-0.2-0.1-0.3
			c-0.1-0.3-0.2-0.6-0.3-0.9c0-0.1,0-0.1-0.1-0.2c-0.1-0.3-0.2-0.6-0.3-1c0,0,0-0.1,0-0.1c-1.3-3.7-2.6-6.4-3-7.2c0,0,0,0,0,0
			c0,0,0,0,0,0c0,0,0,0,0,0c0,0,0-0.1,0-0.1c0,0,0,0,0,0c0,0,0,0,0,0c0,0,0-0.1,0-0.1c0,0,0,0,0-0.1c-0.7-3.4-2.2-10.4-5.1-20.6
			l-1.9,0c0,0,0,0,0,0l-2,0l0,0c0,0,0,0,0,0l-1.3,0c0,0.3,0,0.5,0,0.8c0,0.3,0,0.7,0,1c0,0.4,0,0.7,0,1.1c0,0.3,0,0.7,0,1
			c0,0.4,0,0.7,0,1.1c0,0.3,0,0.6-0.1,1c0,0.4-0.1,0.7-0.1,1.1c0,0.3-0.1,0.6-0.1,0.9c0,0.3-0.1,0.7-0.1,1c0,0.3-0.1,0.6-0.1,0.9
			c-0.1,0.3-0.1,0.7-0.2,1c-0.1,0.3-0.1,0.6-0.2,0.9c-0.1,0.3-0.2,0.7-0.2,1c-0.1,0.3-0.1,0.6-0.2,0.9c-0.1,0.3-0.2,0.7-0.3,1
			c-0.1,0.3-0.2,0.6-0.2,0.8c-0.1,0.3-0.2,0.7-0.3,1c-0.1,0.3-0.2,0.6-0.3,0.8c-0.1,0.3-0.3,0.7-0.4,1c-0.1,0.3-0.2,0.5-0.3,0.8
			c-0.1,0.3-0.3,0.7-0.4,1c-0.1,0.3-0.2,0.5-0.3,0.8c-0.2,0.3-0.3,0.7-0.5,1c-0.1,0.2-0.2,0.5-0.4,0.7c-0.2,0.3-0.4,0.7-0.6,1
			c-0.1,0.2-0.3,0.5-0.4,0.7c-0.2,0.3-0.4,0.7-0.6,1c-0.1,0.2-0.3,0.4-0.4,0.6c-0.2,0.4-0.5,0.7-0.8,1.1c-0.1,0.2-0.2,0.4-0.4,0.5
			c-0.4,0.5-0.8,1.1-1.2,1.6c-5.6,7-13.7,12.7-23.3,16.4c0.1,1.4,0.7,6.9,5.4,12c0,0,0,0,0,0c0,0,0,0,0,0c4.2,5.7,12.2,9.4,20.9,9.6
			c8.3,0.2,15.4-2.7,19.7-7.9c5-6.1,4-16.1,2.2-23.3C373.5,410.7,373.2,409.6,372.8,408.4z"/>
		<path class="st3" d="M358.9,375l-0.5-29c-0.3-0.1-0.6-0.1-0.8-0.2c0,0,0,0,0,0l0.6,29.2L358.9,375z"/>
		<path class="st3" d="M318.3,418.6c-1.9,0-3.5,1.5-3.5,3.5c0,1.9,1.5,3.5,3.5,3.5c1.9,0,3.5-1.5,3.5-3.5
			C321.7,420.1,320.2,418.6,318.3,418.6z"/>
	</g>
	<g>
		<path class="st3" d="M260.7,433.5c-1.8-3.9-2.3-8.3-2.3-12.4c0-0.9,0-1.8,0-2.6c0.1-3.1,0.7-5.9,1.2-7.9c0.3-1.5,0.6-2.6,0.8-3.1
			l0,0c0,0,0-0.1,0-0.1c0-2.4,2.7-9.5,6-18.4c1.9-5.2,4.1-11,6.2-16.9l2.2-24.6c0,0,0,0,0,0l-0.1,1.2l0.1-1.2"/>
		<path class="st3" d="M363.1,375l-1-28.2c-0.2-0.1-0.4-0.1-0.6-0.2c-0.1,0-0.2-0.1-0.3-0.1c0,0,0,0-0.1,0l0.8,28.4L363.1,375z"/>
		<path class="st3" d="M318.3,418.6c-1.9,0-3.5,1.5-3.5,3.5c0,1.9,1.5,3.5,3.5,3.5c1.9,0,3.5-1.5,3.5-3.5
			C321.7,420.1,320.2,418.6,318.3,418.6z"/>
		<path class="st3" d="M307.3,420c-0.6-0.4-1.2-0.7-1.8-1.1c-0.2-0.1-0.4-0.2-0.5-0.3c-1.6-0.9-3.1-1.8-4.6-2.7
			c-1.1-0.7-2.2-1.3-3.3-1.9c-0.2-0.1-0.4-0.3-0.6-0.4c-0.3-0.2-0.6-0.4-0.9-0.6c-0.3-0.2-0.5-0.3-0.7-0.5c-0.3-0.2-0.5-0.3-0.8-0.5
			c-0.2-0.2-0.5-0.3-0.7-0.4c-0.2-0.2-0.5-0.3-0.7-0.5c-0.2-0.2-0.5-0.3-0.7-0.5c-0.2-0.1-0.5-0.3-0.7-0.4c-0.3-0.2-0.5-0.3-0.8-0.5
			c-0.2-0.1-0.4-0.3-0.6-0.4c-0.2-0.2-0.5-0.3-0.7-0.5c-0.2-0.1-0.4-0.3-0.6-0.4c-0.2-0.2-0.5-0.3-0.7-0.5c-0.2-0.1-0.4-0.3-0.5-0.4
			c-0.2-0.2-0.4-0.4-0.7-0.5c-0.2-0.1-0.3-0.3-0.5-0.4c-0.2-0.2-0.4-0.4-0.6-0.5c-0.2-0.1-0.3-0.3-0.5-0.4c-0.2-0.2-0.4-0.4-0.6-0.6
			c-0.1-0.1-0.3-0.3-0.4-0.4c-0.2-0.2-0.4-0.4-0.6-0.6c-0.1-0.1-0.3-0.3-0.4-0.4c-0.2-0.2-0.4-0.4-0.5-0.6c-0.1-0.1-0.3-0.3-0.4-0.4
			c-0.2-0.2-0.3-0.4-0.5-0.6c-0.1-0.2-0.2-0.3-0.4-0.5c-0.2-0.2-0.3-0.4-0.4-0.6c-0.1-0.2-0.2-0.3-0.3-0.5c-0.1-0.2-0.3-0.4-0.4-0.7
			c-0.1-0.2-0.2-0.3-0.3-0.5c-0.1-0.2-0.2-0.5-0.4-0.7c-0.1-0.2-0.2-0.4-0.3-0.5c-0.1-0.2-0.2-0.5-0.3-0.7c-0.1-0.2-0.2-0.4-0.2-0.6
			c-0.1-0.2-0.2-0.5-0.3-0.8c-0.1-0.2-0.1-0.4-0.2-0.6c-0.1-0.3-0.2-0.5-0.2-0.8c-0.1-0.2-0.1-0.4-0.2-0.6c-0.1-0.3-0.1-0.6-0.2-0.8
			c0-0.2-0.1-0.4-0.1-0.7c-0.1-0.3-0.1-0.6-0.1-0.9c0-0.2-0.1-0.5-0.1-0.7c0-0.3-0.1-0.6-0.1-0.9c0-0.3-0.1-0.5-0.1-0.8
			c0-0.3,0-0.6,0-0.9c0-0.3,0-0.5,0-0.8c0-0.3,0-0.7,0-1c0-0.3,0-0.6,0-0.8c0-0.3,0-0.7,0-1c0-0.3,0-0.6,0-0.9
			c0-0.4,0.1-0.7,0.1-1.1c0-0.3,0.1-0.6,0.1-1c0-0.4,0.1-0.7,0.1-1.1c0-0.3,0.1-0.7,0.1-1c0.1-0.4,0.1-0.8,0.2-1.2
			c0.1-0.4,0.1-0.7,0.2-1.1c0.1-0.4,0.1-0.8,0.2-1.2c0.1-0.4,0.1-0.8,0.2-1.1c0.1-0.4,0.2-0.8,0.3-1.3c0.1-0.3,0.1-0.6,0.2-0.9h-1.4
			h-1.7h-1.9c-2,5.8-4.2,11.5-6.1,16.6c-3.2,8.5-6,15.9-6,18.1c0,0.2-0.1,0.4-0.2,1c-0.2,0.6-0.4,1.5-0.6,2.5
			c-0.5,2.5-1.1,6.1-1.1,10c0.1,4.3,1,9.8,3,13.6c0.5,1,1.2,1.9,1.9,2.8c1.9,2,4.4,3.7,6,4.5c0.4,0.2,0.7,0.3,1.1,0.5
			c6.2,2.2,12,2.4,17.1,1.4c2.9-0.6,5.6-1.6,7.9-2.7c3-1.5,5.6-3.4,7.5-5.5c4.2-5,5.7-12.5,5.9-14.2c-0.6-0.4-1.2-0.8-1.9-1.1
			C307.7,420.2,307.5,420.1,307.3,420z"/>
		<path class="st3" d="M360.9,375l-0.8-28.6c-0.2-0.1-0.5-0.1-0.7-0.2l0.5,28.8L360.9,375z"/>
		<path class="st3" d="M358.9,375l-0.5-29c-0.3-0.1-0.6-0.1-0.8-0.2c0,0,0,0,0,0l0.6,29.2L358.9,375z"/>
		<path class="st3" d="M372.8,408.4c0-0.1-0.1-0.3-0.1-0.4c0-0.2-0.1-0.3-0.1-0.5c-0.1-0.3-0.2-0.5-0.2-0.8c0-0.1-0.1-0.2-0.1-0.3
			c-0.1-0.3-0.2-0.6-0.3-0.9c0-0.1,0-0.1-0.1-0.2c-0.1-0.3-0.2-0.6-0.3-1c0,0,0-0.1,0-0.1c-1.3-3.7-2.6-6.4-3-7.2c0,0,0,0,0,0
			c0,0,0,0,0,0c0,0,0,0,0,0c0,0,0-0.1,0-0.1c0,0,0,0,0,0c0,0,0,0,0,0c0,0,0-0.1,0-0.1c0,0,0,0,0-0.1c-0.7-3.4-2.2-10.4-5.1-20.6
			l-1.9,0c0,0,0,0,0,0l-2,0l0,0c0,0,0,0,0,0l-1.3,0c0,0.3,0,0.5,0,0.8c0,0.3,0,0.7,0,1c0,0.4,0,0.7,0,1.1c0,0.3,0,0.7,0,1
			c0,0.4,0,0.7,0,1.1c0,0.3,0,0.6-0.1,1c0,0.4-0.1,0.7-0.1,1.1c0,0.3-0.1,0.6-0.1,0.9c0,0.3-0.1,0.7-0.1,1c0,0.3-0.1,0.6-0.1,0.9
			c-0.1,0.3-0.1,0.7-0.2,1c-0.1,0.3-0.1,0.6-0.2,0.9c-0.1,0.3-0.2,0.7-0.2,1c-0.1,0.3-0.1,0.6-0.2,0.9c-0.1,0.3-0.2,0.7-0.3,1
			c-0.1,0.3-0.2,0.6-0.2,0.8c-0.1,0.3-0.2,0.7-0.3,1c-0.1,0.3-0.2,0.6-0.3,0.8c-0.1,0.3-0.3,0.7-0.4,1c-0.1,0.3-0.2,0.5-0.3,0.8
			c-0.1,0.3-0.3,0.7-0.4,1c-0.1,0.3-0.2,0.5-0.3,0.8c-0.2,0.3-0.3,0.7-0.5,1c-0.1,0.2-0.2,0.5-0.4,0.7c-0.2,0.3-0.4,0.7-0.6,1
			c-0.1,0.2-0.3,0.5-0.4,0.7c-0.2,0.3-0.4,0.7-0.6,1c-0.1,0.2-0.3,0.4-0.4,0.6c-0.2,0.4-0.5,0.7-0.8,1.1c-0.1,0.2-0.2,0.4-0.4,0.5
			c-0.4,0.5-0.8,1.1-1.2,1.6c-5.6,7-13.7,12.7-23.3,16.4c0.1,1.4,0.7,6.9,5.4,12c0,0,0,0,0,0c0,0,0,0,0,0c4.2,5.7,12.2,9.4,20.9,9.6
			c8.3,0.2,15.4-2.7,19.7-7.9c5-6.1,4-16.1,2.2-23.3C373.5,410.7,373.2,409.6,372.8,408.4z"/>
		<path class="st3" d="M276.8,346.8c-0.3,0.1-0.7,0.2-1,0.3l0,0l-2.2,24.5h1.3L276.8,346.8z"/>
		<path class="st3" d="M276.6,371.7l1.9-25.5c-0.2,0.1-0.4,0.1-0.6,0.2l-2,25.3H276.6z"/>
		<path class="st3" d="M278.7,371.7l1.7-26.1c-0.2,0.1-0.3,0.1-0.5,0.2c-0.1,0-0.2,0.1-0.3,0.1c0,0-0.1,0-0.1,0l-1.9,25.8H278.7z"/>
		<path d="M261.4,435c0.1,0.1,0.1,0.2,0.2,0.3c0.1,0.2,0.2,0.3,0.3,0.5c0.4,0.7,1,1.5,1.6,2.1c1.5,1.8,3.3,3.3,5.7,4.5
			c0.2,0.1,0.3,0.2,0.5,0.2c0.5,0.3,1,0.5,1.3,0.6c0,0,0,0,0,0c3.6,1.5,7.3,2.2,11,2.2c1.9,0,3.8-0.2,5.6-0.5c3.7-0.6,7-1.7,9.8-3.3
			c2.3-1.2,4.3-2.5,5.9-3.9c0.6-0.5,1.1-1,1.5-1.6c0,0,0.1-0.1,0.1-0.1c4.9-5.3,5.8-12.4,5.9-14.3h3.1c0,0.1,0,0.2,0,0.3
			c0,2.5,2,4.5,4.5,4.5c2.5,0,4.5-2,4.5-4.5c0-0.1,0-0.2,0-0.3h1.9c0.1,1.7,0.8,7.2,5.6,12.5c4.4,5.9,12.7,9.8,21.7,10
			c0.3,0,0.6,0,0.8,0c8.2,0,15.3-3,19.7-8.3c0.3-0.4,0.6-0.7,0.8-1.1c0.1-0.1,0.2-0.3,0.2-0.4c0.2-0.3,0.3-0.5,0.5-0.8
			c0.1-0.2,0.2-0.3,0.2-0.5c0.1-0.3,0.3-0.5,0.4-0.8c0.1-0.2,0.1-0.4,0.2-0.6c0.1-0.2,0.2-0.5,0.3-0.7c0.1-0.2,0.1-0.4,0.2-0.6
			c0.1-0.2,0.2-0.5,0.2-0.7c0.1-0.2,0.1-0.4,0.1-0.7c0.1-0.3,0.1-0.5,0.2-0.8c0-0.2,0.1-0.5,0.1-0.7c0-0.3,0.1-0.5,0.1-0.8
			c0-0.2,0-0.5,0.1-0.7c0-0.3,0.1-0.5,0.1-0.8c0-0.2,0-0.5,0-0.7c0-0.3,0-0.5,0-0.8c0-0.2,0-0.5,0-0.7c0-0.3,0-0.5,0-0.8
			c0-0.2,0-0.5,0-0.7c0-0.3,0-0.5,0-0.8c0-0.2,0-0.5-0.1-0.7c0-0.3,0-0.5-0.1-0.8c0-0.3-0.1-0.5-0.1-0.8c0-0.3-0.1-0.5-0.1-0.8
			c0-0.3-0.1-0.5-0.1-0.8c0-0.3-0.1-0.5-0.1-0.8c0-0.3-0.1-0.5-0.1-0.7c0-0.3-0.1-0.5-0.1-0.8c0-0.2-0.1-0.5-0.2-0.7
			c-0.1-0.3-0.1-0.5-0.2-0.8c-0.1-0.2-0.1-0.5-0.2-0.7c-0.1-0.3-0.1-0.5-0.2-0.8c-0.1-0.2-0.1-0.5-0.2-0.7c-0.1-0.2-0.1-0.5-0.2-0.7
			c-0.1-0.2-0.1-0.5-0.2-0.7c-0.1-0.2-0.1-0.5-0.2-0.7c-0.1-0.2-0.1-0.4-0.2-0.7c-0.1-0.2-0.1-0.5-0.2-0.7c-0.1-0.2-0.1-0.4-0.2-0.6
			c-0.1-0.2-0.1-0.5-0.2-0.7c-0.1-0.2-0.1-0.4-0.2-0.6c-0.1-0.2-0.1-0.4-0.2-0.7c-0.1-0.2-0.1-0.4-0.2-0.6c-0.1-0.2-0.2-0.4-0.2-0.6
			c-0.1-0.2-0.1-0.4-0.2-0.5c-0.1-0.2-0.1-0.4-0.2-0.6c-0.1-0.2-0.1-0.3-0.2-0.5c-0.1-0.2-0.1-0.4-0.2-0.5c-0.1-0.2-0.1-0.3-0.2-0.5
			c-0.1-0.2-0.1-0.3-0.2-0.5c-0.1-0.1-0.1-0.3-0.2-0.4c-0.1-0.2-0.1-0.3-0.2-0.5c0-0.1-0.1-0.2-0.1-0.3c-0.1-0.2-0.1-0.3-0.2-0.4
			c0-0.1-0.1-0.2-0.1-0.3c-0.1-0.1-0.1-0.3-0.2-0.4c0-0.1-0.1-0.2-0.1-0.2c-0.1-0.1-0.1-0.2-0.2-0.3c0-0.1-0.1-0.1-0.1-0.2
			c-0.1-0.1-0.1-0.2-0.1-0.3c0,0,0-0.1-0.1-0.1c0,0,0-0.1,0-0.1l0,0c0,0,0-0.1-0.1-0.1c-0.7-3.4-2.2-10.6-5.2-21.1l-1-28.4
			c0,0,0,0,0,0l0-1c-0.1,0-0.2-0.1-0.4-0.1c0,0,0,0,0,0c-0.2,0-0.3-0.1-0.5-0.1c-0.4-0.1-0.9-0.2-1.3-0.3c-0.1,0-0.1,0-0.2-0.1
			c0,0,0,0,0,0c-1.4-0.3-2.9-0.7-4.2-1l0,1c0,0,0,0,0,0l0,1.3l0.6,28.6c0,0,0,0,0,0c0,0,0,0,0,0c0.6,9.7-1.4,33.5-32.1,45.2h-2.5
			c-0.6-1.8-2.2-3.1-4.2-3.1c-2,0-3.7,1.3-4.2,3.2h-3.6c-2.5-1.6-4.9-3-7.3-4.4c-0.8-0.5-1.6-0.9-2.3-1.4
			c-17.7-10.3-27.4-16-21.2-42.6c0,0,0,0,0,0c0,0,0,0,0,0l1.8-27.1l0.1-1.1l-0.2,2.7l0.2-2.7c-0.3,0.1-0.6,0.2-0.9,0.3
			c-0.5,0.2-1,0.4-1.5,0.5c-0.6,0.2-1.2,0.4-1.8,0.6c0,0,0,0,0,0l-1.9,0.7c-0.1,0-0.3,0.1-0.4,0.1l-0.1,1.1c0,0,0,0,0,0l-2.2,24.6
			c-2,5.8-4.2,11.7-6.2,16.9c-3.4,9-6,16-6,18.4c0,0,0,0,0,0.1l0,0c-0.1,0.5-0.4,1.6-0.8,3.1c-0.5,2-1,4.8-1.2,7.9
			c0,0.8,0,1.7,0,2.6c0,4.1,0.6,8.5,2.3,12.4 M274.8,347.5l0.1-1.1 M279.5,345.9C279.6,345.9,279.6,345.9,279.5,345.9
			c0.2-0.1,0.3-0.1,0.4-0.1c0.2-0.1,0.3-0.1,0.5-0.2l-1.7,26.1h-1.1L279.5,345.9z M277.9,346.5c0.2-0.1,0.4-0.2,0.6-0.2l-1.9,25.5
			h-0.7L277.9,346.5z M275.8,347.2L275.8,347.2c0.4-0.1,0.7-0.2,1-0.4l-2,24.9h-1.3L275.8,347.2z M303.8,435.6
			c-1.9,2-4.5,3.9-7.5,5.5c-2.4,1.2-5.1,2.1-7.9,2.7c-5.1,1-10.8,0.8-17.1-1.4c-0.4-0.2-0.7-0.3-1.1-0.5c-1.6-0.8-4.1-2.5-6-4.5
			c-0.7-0.9-1.4-1.8-1.9-2.8c-2-3.9-2.9-9.3-3-13.6c0-3.9,0.6-7.5,1.1-10c0.2-1.1,0.5-1.9,0.6-2.5c0.2-0.7,0.2-0.8,0.2-1
			c0-2.2,2.8-9.6,6-18.1c1.9-5.1,4.1-10.9,6.1-16.6h1.9h1.7h1.4c-0.1,0.3-0.1,0.6-0.2,0.9c-0.1,0.4-0.2,0.8-0.3,1.3
			c-0.1,0.4-0.2,0.8-0.2,1.1c-0.1,0.4-0.2,0.8-0.2,1.2c-0.1,0.4-0.1,0.7-0.2,1.1c-0.1,0.4-0.1,0.8-0.2,1.2c0,0.3-0.1,0.7-0.1,1
			c0,0.4-0.1,0.7-0.1,1.1c0,0.3-0.1,0.6-0.1,1c0,0.4-0.1,0.7-0.1,1.1c0,0.3,0,0.6,0,0.9c0,0.3,0,0.7,0,1c0,0.3,0,0.6,0,0.8
			c0,0.3,0,0.7,0,1c0,0.3,0,0.5,0,0.8c0,0.3,0,0.6,0,0.9c0,0.3,0,0.5,0.1,0.8c0,0.3,0.1,0.6,0.1,0.9c0,0.2,0.1,0.5,0.1,0.7
			c0,0.3,0.1,0.6,0.1,0.9c0,0.2,0.1,0.4,0.1,0.7c0.1,0.3,0.1,0.6,0.2,0.8c0.1,0.2,0.1,0.4,0.2,0.6c0.1,0.3,0.1,0.5,0.2,0.8
			c0.1,0.2,0.1,0.4,0.2,0.6c0.1,0.3,0.2,0.5,0.3,0.8c0.1,0.2,0.2,0.4,0.2,0.6c0.1,0.2,0.2,0.5,0.3,0.7c0.1,0.2,0.2,0.4,0.3,0.5
			c0.1,0.2,0.2,0.5,0.4,0.7c0.1,0.2,0.2,0.3,0.3,0.5c0.1,0.2,0.3,0.4,0.4,0.7c0.1,0.2,0.2,0.3,0.3,0.5c0.1,0.2,0.3,0.4,0.4,0.6
			c0.1,0.2,0.2,0.3,0.4,0.5c0.2,0.2,0.3,0.4,0.5,0.6c0.1,0.2,0.3,0.3,0.4,0.4c0.2,0.2,0.3,0.4,0.5,0.6c0.1,0.1,0.3,0.3,0.4,0.4
			c0.2,0.2,0.4,0.4,0.6,0.6c0.1,0.1,0.3,0.3,0.4,0.4c0.2,0.2,0.4,0.4,0.6,0.6c0.2,0.1,0.3,0.3,0.5,0.4c0.2,0.2,0.4,0.4,0.6,0.5
			c0.2,0.1,0.3,0.3,0.5,0.4c0.2,0.2,0.4,0.4,0.7,0.5c0.2,0.1,0.4,0.3,0.5,0.4c0.2,0.2,0.5,0.3,0.7,0.5c0.2,0.1,0.4,0.3,0.6,0.4
			c0.2,0.2,0.5,0.3,0.7,0.5c0.2,0.1,0.4,0.3,0.6,0.4c0.3,0.2,0.5,0.3,0.8,0.5c0.2,0.1,0.5,0.3,0.7,0.4c0.2,0.2,0.5,0.3,0.7,0.5
			c0.2,0.2,0.5,0.3,0.7,0.5c0.2,0.1,0.5,0.3,0.7,0.4c0.3,0.2,0.5,0.3,0.8,0.5c0.2,0.2,0.5,0.3,0.7,0.5c0.3,0.2,0.6,0.4,0.9,0.6
			c0.2,0.1,0.4,0.3,0.6,0.4c1.1,0.6,2.2,1.3,3.3,1.9c1.5,0.9,3,1.8,4.6,2.7c0.2,0.1,0.4,0.2,0.5,0.3c0.6,0.4,1.2,0.7,1.8,1.1
			c0.2,0.1,0.4,0.2,0.6,0.4c0.6,0.4,1.2,0.8,1.9,1.1c-0.1,0.9-0.3,3.8-1.4,6.9C307.4,430.8,305.6,433.4,303.8,435.6z M318.3,425.5
			c-1.9,0-3.5-1.5-3.5-3.5c0-1.9,1.5-3.5,3.5-3.5c1.9,0,3.5,1.5,3.5,3.5C321.7,423.9,320.2,425.5,318.3,425.5z M361.1,346.6
			c0.1,0,0.2,0.1,0.3,0.1c0.2,0.1,0.4,0.1,0.6,0.2l1,28.2l-1.2,0L361.1,346.6C361.1,346.6,361.1,346.6,361.1,346.6z M360,346.4
			l0.8,28.6l-1,0l-0.5-28.8C359.6,346.2,359.8,346.3,360,346.4z M357.5,345.8c0.3,0.1,0.6,0.1,0.8,0.2l0.5,29l-0.8,0L357.5,345.8
			C357.5,345.8,357.5,345.8,357.5,345.8z M371.6,435.3c-4.3,5.2-11.4,8.1-19.7,7.9c-8.7-0.2-16.7-3.9-20.9-9.6c0,0,0,0,0,0
			c0,0,0,0,0,0c-4.6-5.1-5.3-10.6-5.4-12c9.6-3.7,17.7-9.4,23.3-16.4c0.4-0.5,0.8-1.1,1.2-1.6c0.1-0.2,0.2-0.3,0.4-0.5
			c0.3-0.4,0.5-0.7,0.8-1.1c0.1-0.2,0.3-0.4,0.4-0.6c0.2-0.3,0.4-0.7,0.6-1c0.1-0.2,0.3-0.5,0.4-0.7c0.2-0.3,0.4-0.7,0.6-1
			c0.1-0.2,0.2-0.5,0.4-0.7c0.2-0.3,0.3-0.7,0.5-1c0.1-0.3,0.2-0.5,0.3-0.8c0.1-0.3,0.3-0.7,0.4-1c0.1-0.3,0.2-0.5,0.3-0.8
			c0.1-0.3,0.3-0.7,0.4-1c0.1-0.3,0.2-0.5,0.3-0.8c0.1-0.3,0.2-0.7,0.3-1c0.1-0.3,0.2-0.6,0.2-0.8c0.1-0.3,0.2-0.7,0.3-1
			c0.1-0.3,0.1-0.6,0.2-0.9c0.1-0.3,0.2-0.7,0.2-1c0.1-0.3,0.1-0.6,0.2-0.9c0.1-0.3,0.1-0.7,0.2-1c0-0.3,0.1-0.6,0.1-0.9
			c0-0.3,0.1-0.7,0.1-1c0-0.3,0.1-0.6,0.1-0.9c0-0.3,0.1-0.7,0.1-1.1c0-0.3,0-0.6,0.1-1c0-0.4,0-0.7,0-1.1c0-0.3,0-0.7,0-1
			c0-0.4,0-0.7,0-1.1c0-0.3,0-0.7,0-1c0-0.3,0-0.5,0-0.8l1.3,0c0,0,0,0,0,0l0,0l2,0c0,0,0,0,0,0l1.9,0c2.9,10.2,4.4,17.2,5.1,20.6
			c0,0,0,0,0,0.1c0,0,0,0.1,0,0.1c0,0,0,0,0,0c0,0,0,0,0,0c0,0,0,0.1,0,0.1c0,0,0,0,0,0c0,0,0,0,0,0c0,0,0,0,0,0
			c0.4,0.7,1.6,3.5,3,7.2c0,0,0,0.1,0,0.1c0.1,0.3,0.2,0.6,0.3,1c0,0.1,0,0.1,0.1,0.2c0.1,0.3,0.2,0.6,0.3,0.9
			c0,0.1,0.1,0.2,0.1,0.3c0.1,0.3,0.2,0.5,0.2,0.8c0,0.2,0.1,0.3,0.1,0.5c0,0.1,0.1,0.3,0.1,0.4c0.3,1.2,0.7,2.3,1,3.6
			C375.6,419.2,376.6,429.1,371.6,435.3z"/>
	</g>
</g>
</svg>
