<?xml version="1.0" encoding="utf-8"?>
<!-- Generator: Adobe Illustrator 27.5.0, SVG Export Plug-In . SVG Version: 6.00 Build 0)  -->
<svg version="1.1" id="Layer_1" xmlns="http://www.w3.org/2000/svg" xmlns:xlink="http://www.w3.org/1999/xlink" x="0px" y="0px"
	 viewBox="0 0 600 1200" style="enable-background:new 0 0 600 1200;" xml:space="preserve">
<style type="text/css">
	.st0{fill:#312D51;}
	.st1{clip-path:url(#SVGID_00000067213444469743937880000015587307596970374802_);}
	.st2{fill:#FFFFFF;}
</style>
<g>
	<g>
		<g>
			<path class="st0" d="M311.2,535.7c-24.8,0-73.4-7.4-74.5-7.6c-3.7,9.6-7.5,22-9.1,29.8c-1.2,6.3-3,13-2.7,23.8
				c0.1,5,1.2,11.3,1.4,16.6l3.2-1.3c34.1-7.6,70.6,9.6,70.6,9.6l6.9,2.3l-0.1,7c0,0,42.5-23.5,66.5-21.7l13.6,1.3
				c1.3-9.1,0.9-15.5,1.2-21.9c0.5-9.3-1.1-14.9-1.3-19.9c-0.2-6-2.5-16.4-4.4-23.1l-3.6,0.6C378.9,531.2,341.5,535.7,311.2,535.7z"
				/>
			<path d="M307.1,609.9c-0.1,0-0.1,0-0.2,0c-0.4-0.2-44.3-21.2-80.4-11c-0.3,0.1-0.5-0.1-0.6-0.3c-0.1-0.3,0.1-0.5,0.3-0.6
				c36.4-10.3,80.7,10.9,81.1,11.1c0.2,0.1,0.4,0.4,0.2,0.7C307.4,609.7,307.3,609.9,307.1,609.9z"/>
			<path d="M306.9,616.2c-0.2,0-0.4-0.1-0.4-0.3c-0.1-0.2,0-0.5,0.2-0.7l1.6-0.9c13.3-7,48.8-25.7,78.8-19.4
				c0.3,0.1,0.4,0.3,0.4,0.6s-0.3,0.4-0.6,0.4c-29.7-6.2-64.9,12.3-78.2,19.3l-1.6,0.9C307,616.2,306.9,616.2,306.9,616.2z"/>
			<path d="M312.1,536.6L312.1,536.6c-24.7,0-74.9-8-75.4-8.1c-0.3,0-0.5-0.3-0.4-0.6c0-0.3,0.3-0.5,0.6-0.4
				c0.5,0.1,50.7,8.1,75.3,8.1l0,0c30,0,70-5.4,70.4-5.4c0.3,0,0.5,0.2,0.6,0.4c0,0.3-0.2,0.5-0.4,0.6
				C382.2,531.2,342.2,536.6,312.1,536.6z"/>
		</g>
	</g>
	<g>
		<g>
			<defs>
				<path id="SVGID_1_" d="M311.2,535.7c-24.8,0-73.4-7.4-74.5-7.6c-3.7,9.6-7.5,22-9.1,29.8c-1.2,6.3-3,13-2.7,23.8
					c0.1,5,1.2,11.3,1.4,16.6l3.2-1.3c34.1-7.6,70.6,9.6,70.6,9.6l6.9,2.3l-0.1,7c0,0,42.5-23.5,66.5-21.7l13.6,1.3
					c1.3-9.1,0.9-15.5,1.2-21.9c0.5-9.3-1.1-14.9-1.3-19.9c-0.2-6-2.5-16.4-4.4-23.1l-3.6,0.6C378.9,531.2,341.5,535.7,311.2,535.7z
					"/>
			</defs>
			<clipPath id="SVGID_00000087396309213027527800000017983205411204218006_">
				<use xlink:href="#SVGID_1_"  style="overflow:visible;"/>
			</clipPath>
			<g style="clip-path:url(#SVGID_00000087396309213027527800000017983205411204218006_);">
				<g>
					<g>
						<path class="st2" d="M396.9,399.2c0,0-23.3-1.3-30.1,4.2c-6.8,5.5-18.6,26.3-10.6,26.3c8.1,0,27.1-16.5,34.3-21.2
							c7.2-4.7,14.8-10.6,11.9-5.1c-3,5.5-10.6,8.1-9.7,16.5c0.8,8.5,11,19.5,14,16.5s8.1-17,8.1-18.5s-5.1-15.4-5.1-15.4
							s14.4,18.2,18.2,24.6s6.4-6.8,5.9-13.1s-22.5-17-22.5-17s8.5-3.4,11.9-14.4s-1.3-25.4-7.2-26.7c-5.9-1.3-12.7,15.3-12.7,22
							s-1.3,14.8-1.3,14.8l-17-13.1c0,0-4.2-5.1-13.1-5.1s-13.1,1.7-13.1,8.9s11.4,14,20.3,12.9C388,395.4,396.9,399.2,396.9,399.2z
							"/>
						<path class="st2" d="M391,415c0,0-7.3,3.3-9.2,22c-1.9,18.7-2.2,46.7-2.2,46.7h-5.1c0,0,1.6-40.2,3.2-46.7
							C379.6,428.9,378.6,418.5,391,415z"/>
						<circle class="st2" cx="363.1" cy="440" r="2"/>
						<circle class="st2" cx="351.6" cy="440" r="2"/>
						<circle class="st2" cx="359.2" cy="433.8" r="2"/>
						<circle class="st2" cx="360" cy="447.4" r="2"/>
						<circle class="st2" cx="368.2" cy="445.4" r="2"/>
						<circle class="st2" cx="367" cy="454" r="2"/>
						<circle class="st2" cx="347.7" cy="456" r="2"/>
						<circle class="st2" cx="374.5" cy="431.8" r="2"/>
					</g>
					<g>
						<path class="st2" d="M468.7,449.8c0,0,20.2-11.7,22.8-20c2.7-8.3,1.2-32.2-5.5-27.8c-6.7,4.4-13.6,28.7-17.1,36.5
							s-6.6,17-7.1,10.8s4.4-12.5-0.9-19.2c-5.4-6.6-19.9-10.3-20.8-6.2s2.6,18.6,3.4,19.9c0.8,1.2,12.7,10.1,12.7,10.1
							s-22-7.3-28.7-10.6c-6.7-3.2-1.6,9.2,2.2,14.2c3.8,5.1,28.1,1.9,28.1,1.9s-5.2,7.5-2,18.6s15,20.6,20.7,18.4
							s2.3-19.7-1.4-25.4c-3.7-5.7-7.1-13.1-7.1-13.1l21.4,1.7c0,0,6.3,1.9,13.8-2.9c7.4-4.9,10.1-8.6,6.1-14.6
							c-3.9-6-17.2-5.4-24.1,0.3C478.2,448.1,468.7,449.8,468.7,449.8z"/>
						<path class="st2" d="M465,433.4c0,0,4.3-6.8-4.3-23.5c-8.6-16.7-23.7-40.2-23.7-40.2l4.3-2.8c0,0,20.7,34.5,22.9,40.8
							C466.9,415.6,473.4,423.7,465,433.4z"/>
						<circle class="st2" cx="474.6" cy="397.2" r="2"/>
						<circle class="st2" cx="484.3" cy="390.9" r="2"/>
						<circle class="st2" cx="481.3" cy="400.2" r="2"/>
						<circle class="st2" cx="473.1" cy="389.3" r="2"/>
						<circle class="st2" cx="467.4" cy="395.5" r="2"/>
						<circle class="st2" cx="463.7" cy="387.6" r="2"/>
						<circle class="st2" cx="478.8" cy="375.4" r="2"/>
						<circle class="st2" cx="469.6" cy="410.3" r="2"/>
					</g>
					<g>
						<path class="st2" d="M262.4,306.5c0,0-23.3-1.3-30.1,4.2S213.7,337,221.7,337s27.1-16.5,34.3-21.2s14.8-10.6,11.9-5.1
							c-3,5.5-10.6,8.1-9.7,16.5c0.8,8.5,11,19.5,14,16.5s8.1-17,8.1-18.5s-5.1-15.4-5.1-15.4s14.4,18.2,18.2,24.6
							c3.8,6.4,6.4-6.8,5.9-13.1s-22.5-17-22.5-17s8.5-3.4,11.9-14.4s-1.3-25.4-7.2-26.7c-5.9-1.3-12.7,15.3-12.7,22
							s-1.3,14.8-1.3,14.8l-17-13.1c0,0-4.2-5.1-13.1-5.1c-8.9,0-13.1,1.7-13.1,8.9c0,7.2,11.4,14,20.3,12.9
							S262.4,306.5,262.4,306.5z"/>
						<path class="st2" d="M256.4,322.2c0,0-7.3,3.3-9.2,22s-2.2,46.7-2.2,46.7h-5.1c0,0,1.6-40.2,3.2-46.7
							C245,336.1,244,325.7,256.4,322.2z"/>
						<circle class="st2" cx="228.5" cy="347.2" r="2"/>
						<circle class="st2" cx="217" cy="347.2" r="2"/>
						<circle class="st2" cx="224.6" cy="341" r="2"/>
						<circle class="st2" cx="225.4" cy="354.6" r="2"/>
						<circle class="st2" cx="233.7" cy="352.6" r="2"/>
						<circle class="st2" cx="232.4" cy="361.2" r="2"/>
						<circle class="st2" cx="213.1" cy="363.2" r="2"/>
						<circle class="st2" cx="239.9" cy="339" r="2"/>
					</g>
					<g>
						<path class="st2" d="M334.1,357c0,0,20.2-11.7,22.8-20s1.2-32.2-5.5-27.8c-6.7,4.4-13.6,28.7-17.1,36.5s-6.6,17-7.1,10.8
							s4.4-12.5-0.9-19.2c-5.4-6.6-19.9-10.3-20.8-6.2c-0.9,4.1,2.6,18.6,3.4,19.9s12.7,10.1,12.7,10.1s-22-7.3-28.7-10.6
							c-6.7-3.2-1.6,9.2,2.2,14.2c3.8,5.1,28.1,1.9,28.1,1.9s-5.2,7.5-2,18.6s15,20.6,20.7,18.4s2.3-19.7-1.4-25.4
							c-3.7-5.7-7.1-13.1-7.1-13.1l21.4,1.7c0,0,6.3,1.9,13.8-2.9c7.4-4.9,10.1-8.6,6.1-14.6c-3.9-6-17.2-5.4-24.1,0.3
							C343.6,355.4,334.1,357,334.1,357z"/>
						<path class="st2" d="M330.4,340.6c0,0,4.3-6.8-4.3-23.5c-8.6-16.7-23.7-40.2-23.7-40.2l4.3-2.8c0,0,20.7,34.5,22.9,40.8
							C332.4,322.8,338.9,330.9,330.4,340.6z"/>
						<circle class="st2" cx="340.1" cy="304.4" r="2"/>
						<circle class="st2" cx="349.7" cy="298.1" r="2"/>
						<circle class="st2" cx="346.8" cy="307.4" r="2"/>
						<circle class="st2" cx="338.6" cy="296.5" r="2"/>
						<circle class="st2" cx="332.8" cy="302.7" r="2"/>
						<circle class="st2" cx="329.1" cy="294.8" r="2"/>
						<circle class="st2" cx="344.2" cy="282.6" r="2"/>
						<circle class="st2" cx="335" cy="317.5" r="2"/>
					</g>
					<g>
						<path class="st2" d="M127.8,213.7c0,0-23.3-1.3-30.1,4.2s-18.6,26.3-10.6,26.3s27.1-16.5,34.3-21.2
							c7.2-4.7,14.8-10.6,11.9-5.1c-3,5.5-10.6,8.1-9.7,16.5c0.8,8.5,11,19.5,14,16.5s8.1-17,8.1-18.5s-5.1-15.4-5.1-15.4
							s14.4,18.2,18.2,24.6c3.8,6.4,6.4-6.8,5.9-13.1c-0.4-6.4-22.5-17-22.5-17s8.5-3.4,11.9-14.4s-1.3-25.4-7.2-26.7
							s-12.7,15.3-12.7,22s-1.3,14.8-1.3,14.8l-17-13.1c0,0-4.2-5.1-13.1-5.1s-13.1,1.7-13.1,8.9s11.4,14,20.3,12.9
							S127.8,213.7,127.8,213.7z"/>
						<path class="st2" d="M121.9,229.4c0,0-7.3,3.3-9.2,22s-2.2,46.7-2.2,46.7h-5.1c0,0,1.6-40.2,3.2-46.7
							C110.5,243.3,109.5,232.9,121.9,229.4z"/>
						<circle class="st2" cx="94" cy="254.4" r="2"/>
						<circle class="st2" cx="82.5" cy="254.4" r="2"/>
						<circle class="st2" cx="90" cy="248.2" r="2"/>
						<circle class="st2" cx="90.9" cy="261.8" r="2"/>
						<circle class="st2" cx="99.1" cy="259.9" r="2"/>
						<circle class="st2" cx="97.9" cy="268.4" r="2"/>
						<circle class="st2" cx="78.5" cy="270.4" r="2"/>
						<circle class="st2" cx="105.4" cy="246.2" r="2"/>
					</g>
					<g>
						<path class="st2" d="M199.5,264.2c0,0,20.2-11.7,22.8-20s1.2-32.2-5.5-27.8s-13.6,28.7-17.1,36.5c-3.5,7.8-6.6,17-7.1,10.8
							s4.4-12.5-0.9-19.2c-5.4-6.6-19.9-10.3-20.8-6.2c-0.9,4.1,2.6,18.6,3.4,19.9c0.8,1.2,12.7,10.1,12.7,10.1s-22-7.3-28.7-10.6
							s-1.6,9.2,2.2,14.2c3.8,5.1,28.1,1.9,28.1,1.9s-5.2,7.5-2,18.6s15,20.6,20.7,18.4s2.3-19.7-1.4-25.4
							c-3.7-5.7-7.1-13.1-7.1-13.1l21.4,1.7c0,0,6.3,1.9,13.8-2.9c7.4-4.9,10.1-8.6,6.1-14.6c-3.9-6-17.2-5.4-24.1,0.3
							C209.1,262.6,199.5,264.2,199.5,264.2z"/>
						<path class="st2" d="M195.9,247.8c0,0,4.3-6.8-4.3-23.5s-23.7-40.2-23.7-40.2l4.3-2.8c0,0,20.7,34.5,22.9,40.8
							C197.8,230,204.3,238.1,195.9,247.8z"/>
						<circle class="st2" cx="205.5" cy="211.6" r="2"/>
						<circle class="st2" cx="215.1" cy="205.3" r="2"/>
						<circle class="st2" cx="212.2" cy="214.7" r="2"/>
						<circle class="st2" cx="204" cy="203.7" r="2"/>
						<circle class="st2" cx="198.2" cy="209.9" r="2"/>
						<circle class="st2" cx="194.6" cy="202.1" r="2"/>
						<circle class="st2" cx="209.7" cy="189.8" r="2"/>
						<circle class="st2" cx="200.5" cy="224.7" r="2"/>
					</g>
					<g>
						<path class="st2" d="M379.8,523.6c0,0-23.3-1.3-30.1,4.2s-18.6,26.3-10.6,26.3c8.1,0,27.1-16.5,34.3-21.2s14.8-10.6,11.9-5.1
							s-10.6,8.1-9.7,16.5c0.8,8.5,11,19.5,14,16.5s8.1-17,8.1-18.5s-5.1-15.4-5.1-15.4s14.4,18.2,18.2,24.6
							c3.8,6.4,6.4-6.8,5.9-13.1c-0.4-6.4-22.5-17-22.5-17s8.5-3.4,11.9-14.4s-1.3-25.4-7.2-26.7c-5.9-1.3-12.7,15.3-12.7,22
							c0,6.8-1.3,14.8-1.3,14.8l-17-13.1c0,0-4.2-5.1-13.1-5.1s-13.1,1.7-13.1,8.9s11.4,14,20.3,12.9S379.8,523.6,379.8,523.6z"/>
						<path class="st2" d="M373.9,539.4c0,0-7.3,3.3-9.2,22s-2.2,46.7-2.2,46.7h-5.1c0,0,1.6-40.2,3.2-46.7
							C362.5,553.2,361.5,542.9,373.9,539.4z"/>
						<circle class="st2" cx="345.9" cy="564.3" r="2"/>
						<circle class="st2" cx="334.4" cy="564.3" r="2"/>
						<circle class="st2" cx="342" cy="558.1" r="2"/>
						<circle class="st2" cx="342.9" cy="571.8" r="2"/>
						<circle class="st2" cx="351.1" cy="569.8" r="2"/>
						<circle class="st2" cx="349.9" cy="578.3" r="2"/>
						<circle class="st2" cx="330.5" cy="580.3" r="2"/>
						<circle class="st2" cx="357.3" cy="556.2" r="2"/>
					</g>
					<g>
						<path class="st2" d="M451.5,574.2c0,0,20.2-11.7,22.8-20s1.2-32.2-5.5-27.8s-13.6,28.7-17.1,36.5s-6.6,17-7.1,10.8
							s4.4-12.5-0.9-19.2c-5.4-6.6-19.9-10.3-20.8-6.2s2.6,18.6,3.4,19.9s12.7,10.1,12.7,10.1s-22-7.3-28.7-10.6s-1.6,9.2,2.2,14.2
							c3.8,5.1,28.1,1.9,28.1,1.9s-5.2,7.5-2,18.6s15,20.6,20.7,18.4c5.7-2.2,2.3-19.7-1.4-25.4c-3.7-5.7-7.1-13.1-7.1-13.1
							l21.4,1.7c0,0,6.3,1.9,13.8-2.9c7.4-4.9,10.1-8.6,6.1-14.6s-17.2-5.4-24.1,0.3C461,572.5,451.5,574.2,451.5,574.2z"/>
						<path class="st2" d="M447.8,557.7c0,0,4.3-6.8-4.3-23.5S419.8,494,419.8,494l4.3-2.8c0,0,20.7,34.5,22.9,40.8
							C449.8,539.9,456.3,548,447.8,557.7z"/>
						<circle class="st2" cx="457.5" cy="521.6" r="2"/>
						<circle class="st2" cx="467.1" cy="515.3" r="2"/>
						<circle class="st2" cx="464.2" cy="524.6" r="2"/>
						<circle class="st2" cx="456" cy="513.7" r="2"/>
						<circle class="st2" cx="450.2" cy="519.8" r="2"/>
						<circle class="st2" cx="446.5" cy="512" r="2"/>
						<circle class="st2" cx="461.6" cy="499.8" r="2"/>
						<circle class="st2" cx="452.4" cy="534.6" r="2"/>
					</g>
					<g>
						<path class="st2" d="M245.2,430.8c0,0-23.3-1.3-30.1,4.2s-18.6,26.3-10.6,26.3s27.1-16.5,34.3-21.2s14.8-10.6,11.9-5.1
							c-3,5.5-10.6,8.1-9.7,16.5c0.8,8.5,11,19.5,14,16.5c3-3,8.1-17,8.1-18.5s-5.1-15.4-5.1-15.4s14.4,18.2,18.2,24.6
							c3.8,6.4,6.4-6.8,5.9-13.1c-0.4-6.4-22.5-17-22.5-17s8.5-3.4,11.9-14.4s-1.3-25.4-7.2-26.7c-5.9-1.3-12.7,15.3-12.7,22
							s-1.3,14.8-1.3,14.8l-17-13.1c0,0-4.2-5.1-13.1-5.1s-13.1,1.7-13.1,8.9s11.4,14,20.3,12.9C236.3,427,245.2,430.8,245.2,430.8z
							"/>
						<path class="st2" d="M239.3,446.6c0,0-7.3,3.3-9.2,22s-2.2,46.7-2.2,46.7h-5.1c0,0,1.6-40.2,3.2-46.7
							C227.9,460.4,226.9,450.1,239.3,446.6z"/>
						<circle class="st2" cx="211.4" cy="471.5" r="2"/>
						<circle class="st2" cx="199.9" cy="471.5" r="2"/>
						<circle class="st2" cx="207.5" cy="465.3" r="2"/>
						<circle class="st2" cx="208.3" cy="479" r="2"/>
						<circle class="st2" cx="216.5" cy="477" r="2"/>
						<circle class="st2" cx="215.3" cy="485.5" r="2"/>
						<circle class="st2" cx="196" cy="487.5" r="2"/>
						<circle class="st2" cx="222.8" cy="463.4" r="2"/>
					</g>
					<g>
						<path class="st2" d="M317,481.4c0,0,20.2-11.7,22.8-20c2.7-8.3,1.2-32.2-5.5-27.8c-6.7,4.4-13.6,28.7-17.1,36.5
							s-6.6,17-7.1,10.8s4.4-12.5-0.9-19.2c-5.4-6.6-19.9-10.3-20.8-6.2s2.6,18.6,3.4,19.9c0.8,1.2,12.7,10.1,12.7,10.1
							s-22-7.3-28.7-10.6c-6.7-3.2-1.6,9.2,2.2,14.2c3.8,5.1,28.1,1.9,28.1,1.9s-5.2,7.5-2,18.6s15,20.6,20.7,18.4
							c5.7-2.2,2.3-19.7-1.4-25.4c-3.7-5.7-7.1-13.1-7.1-13.1l21.4,1.7c0,0,6.3,1.9,13.8-2.9c7.4-4.9,10.1-8.6,6.1-14.6
							c-3.9-6-17.2-5.4-24.1,0.3C326.5,479.7,317,481.4,317,481.4z"/>
						<path class="st2" d="M313.3,464.9c0,0,4.3-6.8-4.3-23.5c-8.6-16.7-23.7-40.2-23.7-40.2l4.3-2.8c0,0,20.7,34.5,22.9,40.8
							C315.2,447.1,321.7,455.2,313.3,464.9z"/>
						<circle class="st2" cx="322.9" cy="428.8" r="2"/>
						<circle class="st2" cx="332.6" cy="422.5" r="2"/>
						<circle class="st2" cx="329.6" cy="431.8" r="2"/>
						<circle class="st2" cx="321.4" cy="420.9" r="2"/>
						<circle class="st2" cx="315.7" cy="427" r="2"/>
						<circle class="st2" cx="312" cy="419.2" r="2"/>
						<circle class="st2" cx="327.1" cy="407" r="2"/>
						<circle class="st2" cx="317.9" cy="441.8" r="2"/>
					</g>
					<g>
						<path class="st2" d="M110.7,338c0,0-23.3-1.3-30.1,4.2c-6.8,5.5-18.6,26.3-10.6,26.3s27.1-16.5,34.3-21.2
							c7.2-4.7,14.8-10.6,11.9-5.1c-3,5.5-10.6,8.1-9.7,16.5c0.8,8.5,11,19.5,14,16.5s8.1-17,8.1-18.5s-5.1-15.4-5.1-15.4
							s14.4,18.2,18.2,24.6s6.4-6.8,5.9-13.1c-0.4-6.4-22.5-17-22.5-17s8.5-3.4,11.9-14.4s-1.3-25.4-7.2-26.7
							c-5.9-1.3-12.7,15.3-12.7,22s-1.3,14.8-1.3,14.8l-17-13.1c0,0-4.2-5.1-13.1-5.1s-13.1,1.7-13.1,8.9c0,7.2,11.4,14,20.3,12.9
							S110.7,338,110.7,338z"/>
						<path class="st2" d="M104.7,353.8c0,0-7.3,3.3-9.2,22c-1.9,18.7-2.2,46.7-2.2,46.7h-5.1c0,0,1.6-40.2,3.2-46.7
							C93.3,367.6,92.3,357.3,104.7,353.8z"/>
						<circle class="st2" cx="76.8" cy="378.7" r="2"/>
						<circle class="st2" cx="65.3" cy="378.7" r="2"/>
						<circle class="st2" cx="72.9" cy="372.5" r="2"/>
						<circle class="st2" cx="73.8" cy="386.2" r="2"/>
						<circle class="st2" cx="82" cy="384.2" r="2"/>
						<circle class="st2" cx="80.7" cy="392.8" r="2"/>
						<circle class="st2" cx="61.4" cy="394.7" r="2"/>
						<circle class="st2" cx="88.2" cy="370.6" r="2"/>
					</g>
					<g>
						<path class="st2" d="M182.4,388.6c0,0,20.2-11.7,22.8-20c2.7-8.3,1.2-32.2-5.5-27.8c-6.7,4.4-13.6,28.7-17.1,36.5
							s-6.6,17-7.1,10.8s4.4-12.5-0.9-19.2s-19.9-10.3-20.8-6.2c-0.9,4.1,2.6,18.6,3.4,19.9c0.8,1.2,12.7,10.1,12.7,10.1
							s-22-7.3-28.7-10.6c-6.7-3.2-1.6,9.2,2.2,14.2c3.8,5.1,28.1,1.9,28.1,1.9s-5.2,7.5-2,18.6s15,20.6,20.7,18.4
							s2.3-19.7-1.4-25.4c-3.7-5.7-7.1-13.1-7.1-13.1l21.4,1.7c0,0,6.3,1.9,13.8-2.9c7.4-4.9,10.1-8.6,6.1-14.6
							c-3.9-6-17.2-5.4-24.1,0.3C191.9,386.9,182.4,388.6,182.4,388.6z"/>
						<path class="st2" d="M178.7,372.1c0,0,4.3-6.8-4.3-23.5s-23.7-40.2-23.7-40.2l4.3-2.8c0,0,20.7,34.5,22.9,40.8
							C180.7,354.3,187.2,362.4,178.7,372.1z"/>
						<circle class="st2" cx="188.4" cy="336" r="2"/>
						<circle class="st2" cx="198" cy="329.7" r="2"/>
						<circle class="st2" cx="195.1" cy="339" r="2"/>
						<circle class="st2" cx="186.9" cy="328.1" r="2"/>
						<circle class="st2" cx="181.1" cy="334.2" r="2"/>
						<circle class="st2" cx="177.4" cy="326.4" r="2"/>
						<circle class="st2" cx="192.5" cy="314.2" r="2"/>
						<circle class="st2" cx="183.3" cy="349" r="2"/>
					</g>
					<g>
						<path class="st2" d="M362.6,647.9c0,0-23.3-1.3-30.1,4.2c-6.8,5.5-18.6,26.3-10.6,26.3s27.1-16.5,34.3-21.2
							s14.8-10.6,11.9-5.1c-3,5.5-10.6,8.1-9.7,16.5s11,19.5,14,16.5s8.1-17,8.1-18.5s-5.1-15.4-5.1-15.4s14.4,18.2,18.2,24.6
							c3.8,6.4,6.4-6.8,5.9-13.1s-22.5-17-22.5-17s8.5-3.4,11.9-14.4s-1.3-25.4-7.2-26.7c-5.9-1.3-12.7,15.3-12.7,22
							c0,6.8-1.3,14.8-1.3,14.8l-17-13.1c0,0-4.2-5.1-13.1-5.1s-13.1,1.7-13.1,8.9s11.4,14,20.3,12.9S362.6,647.9,362.6,647.9z"/>
						<path class="st2" d="M356.7,663.7c0,0-7.3,3.3-9.2,22s-2.2,46.7-2.2,46.7h-5.1c0,0,1.6-40.2,3.2-46.7
							C345.3,677.6,344.3,667.2,356.7,663.7z"/>
						<circle class="st2" cx="328.8" cy="688.7" r="2"/>
						<circle class="st2" cx="317.3" cy="688.7" r="2"/>
						<circle class="st2" cx="324.9" cy="682.5" r="2"/>
						<circle class="st2" cx="325.7" cy="696.1" r="2"/>
						<circle class="st2" cx="333.9" cy="694.1" r="2"/>
						<circle class="st2" cx="332.7" cy="702.7" r="2"/>
						<circle class="st2" cx="313.4" cy="704.7" r="2"/>
						<circle class="st2" cx="340.2" cy="680.5" r="2"/>
					</g>
					<g>
						<path class="st2" d="M434.4,698.5c0,0,20.2-11.7,22.8-20c2.7-8.3,1.2-32.2-5.5-27.8s-13.6,28.7-17.1,36.5s-6.6,17-7.1,10.8
							s4.4-12.5-0.9-19.2c-5.4-6.6-19.9-10.3-20.8-6.2s2.6,18.6,3.4,19.9c0.8,1.2,12.7,10.1,12.7,10.1s-22-7.3-28.7-10.6
							c-6.7-3.2-1.6,9.2,2.2,14.2c3.8,5.1,28.1,1.9,28.1,1.9s-5.2,7.5-2,18.6s15,20.6,20.7,18.4c5.7-2.2,2.3-19.7-1.4-25.4
							s-7.1-13.1-7.1-13.1l21.4,1.7c0,0,6.3,1.9,13.8-2.9c7.4-4.9,10.1-8.6,6.1-14.6c-3.9-6-17.2-5.4-24.1,0.3
							C443.9,696.8,434.4,698.5,434.4,698.5z"/>
						<path class="st2" d="M430.7,682.1c0,0,4.3-6.8-4.3-23.5c-8.6-16.7-23.7-40.2-23.7-40.2l4.3-2.8c0,0,20.7,34.5,22.9,40.8
							C432.6,664.3,439.1,672.4,430.7,682.1z"/>
						<circle class="st2" cx="440.4" cy="645.9" r="2"/>
						<circle class="st2" cx="450" cy="639.6" r="2"/>
						<circle class="st2" cx="447" cy="648.9" r="2"/>
						<circle class="st2" cx="438.9" cy="638" r="2"/>
						<circle class="st2" cx="433.1" cy="644.2" r="2"/>
						<circle class="st2" cx="429.4" cy="636.3" r="2"/>
						<circle class="st2" cx="444.5" cy="624.1" r="2"/>
						<circle class="st2" cx="435.3" cy="659" r="2"/>
					</g>
					<g>
						<path class="st2" d="M228.1,555.2c0,0-23.3-1.3-30.1,4.2s-18.6,26.3-10.6,26.3s27.1-16.5,34.3-21.2s14.8-10.6,11.9-5.1
							c-3,5.5-10.6,8.1-9.7,16.5s11,19.5,14,16.5s8.1-17,8.1-18.5s-5.1-15.4-5.1-15.4s14.4,18.2,18.2,24.6c3.8,6.4,6.4-6.8,5.9-13.1
							c-0.4-6.4-22.5-17-22.5-17s8.5-3.4,11.9-14.4s-1.3-25.4-7.2-26.7s-12.7,15.3-12.7,22c0,6.8-1.3,14.8-1.3,14.8l-17-13.1
							c0,0-4.2-5.1-13.1-5.1c-8.9,0-13.1,1.7-13.1,8.9s11.4,14,20.3,12.9S228.1,555.2,228.1,555.2z"/>
						<path class="st2" d="M222.2,570.9c0,0-7.3,3.3-9.2,22s-2.2,46.7-2.2,46.7h-5.1c0,0,1.6-40.2,3.2-46.7
							C210.8,584.8,209.8,574.4,222.2,570.9z"/>
						<circle class="st2" cx="194.2" cy="595.9" r="2"/>
						<circle class="st2" cx="182.7" cy="595.9" r="2"/>
						<circle class="st2" cx="190.3" cy="589.7" r="2"/>
						<circle class="st2" cx="191.2" cy="603.3" r="2"/>
						<circle class="st2" cx="199.4" cy="601.3" r="2"/>
						<circle class="st2" cx="198.2" cy="609.9" r="2"/>
						<circle class="st2" cx="178.8" cy="611.9" r="2"/>
						<circle class="st2" cx="205.6" cy="587.7" r="2"/>
					</g>
					<g>
						<path class="st2" d="M299.8,605.7c0,0,20.2-11.7,22.8-20c2.7-8.3,1.2-32.2-5.5-27.8s-13.6,28.7-17.1,36.5s-6.6,17-7.1,10.8
							s4.4-12.5-0.9-19.2c-5.4-6.6-19.9-10.3-20.8-6.2s2.6,18.6,3.4,19.9s12.7,10.1,12.7,10.1s-22-7.3-28.7-10.6
							c-6.7-3.2-1.6,9.2,2.2,14.2s28.1,1.9,28.1,1.9s-5.2,7.5-2,18.6s15,20.6,20.7,18.4c5.7-2.2,2.3-19.7-1.4-25.4
							c-3.7-5.7-7.1-13.1-7.1-13.1l21.4,1.7c0,0,6.3,1.9,13.8-2.9c7.4-4.9,10.1-8.6,6.1-14.6s-17.2-5.4-24.1,0.3
							C309.3,604.1,299.8,605.7,299.8,605.7z"/>
						<path class="st2" d="M296.1,589.3c0,0,4.3-6.8-4.3-23.5c-8.6-16.7-23.7-40.2-23.7-40.2l4.3-2.8c0,0,20.7,34.5,22.9,40.8
							C298.1,571.5,304.6,579.6,296.1,589.3z"/>
						<circle class="st2" cx="305.8" cy="553.1" r="2"/>
						<circle class="st2" cx="315.4" cy="546.8" r="2"/>
						<circle class="st2" cx="312.5" cy="556.1" r="2"/>
						<circle class="st2" cx="304.3" cy="545.2" r="2"/>
						<circle class="st2" cx="298.5" cy="551.4" r="2"/>
						<circle class="st2" cx="294.8" cy="543.5" r="2"/>
						<circle class="st2" cx="309.9" cy="531.3" r="2"/>
						<circle class="st2" cx="300.7" cy="566.2" r="2"/>
					</g>
					<g>
						<path class="st2" d="M93.5,462.4c0,0-23.3-1.3-30.1,4.2s-18.6,26.3-10.6,26.3s27.1-16.5,34.3-21.2c7.2-4.7,14.8-10.6,11.9-5.1
							c-3,5.5-10.6,8.1-9.7,16.5c0.8,8.5,11,19.5,14,16.5s8.1-17,8.1-18.5s-5.1-15.4-5.1-15.4s14.4,18.2,18.2,24.6
							c3.8,6.4,6.4-6.8,5.9-13.1s-22.5-17-22.5-17s8.5-3.4,11.9-14.4s-1.3-25.4-7.2-26.7c-5.9-1.3-12.7,15.3-12.7,22
							S98.6,456,98.6,456l-17-13.1c0,0-4.2-5.1-13.1-5.1s-13.1,1.7-13.1,8.9c0,7.2,11.4,14,20.3,12.9S93.5,462.4,93.5,462.4z"/>
						<path class="st2" d="M87.6,478.1c0,0-7.3,3.3-9.2,22c-1.9,18.7-2.2,46.7-2.2,46.7h-5.1c0,0,1.6-40.2,3.2-46.7
							C76.2,492,75.2,481.6,87.6,478.1z"/>
						<circle class="st2" cx="59.7" cy="503.1" r="2"/>
						<circle class="st2" cx="48.2" cy="503.1" r="2"/>
						<circle class="st2" cx="55.8" cy="496.9" r="2"/>
						<circle class="st2" cx="56.6" cy="510.5" r="2"/>
						<circle class="st2" cx="64.8" cy="508.6" r="2"/>
						<circle class="st2" cx="63.6" cy="517.1" r="2"/>
						<circle class="st2" cx="44.3" cy="519.1" r="2"/>
						<circle class="st2" cx="71.1" cy="494.9" r="2"/>
					</g>
					<g>
						<path class="st2" d="M165.3,512.9c0,0,20.2-11.7,22.8-20c2.7-8.3,1.2-32.2-5.5-27.8c-6.7,4.4-13.6,28.7-17.1,36.5
							s-6.6,17-7.1,10.8s4.4-12.5-0.9-19.2s-19.9-10.3-20.8-6.2c-0.9,4.1,2.6,18.6,3.4,19.9s12.7,10.1,12.7,10.1s-22-7.3-28.7-10.6
							s-1.6,9.2,2.2,14.2c3.8,5,28.1,1.9,28.1,1.9s-5.2,7.5-2,18.6s15,20.6,20.7,18.4s2.3-19.7-1.4-25.4s-7.1-13.1-7.1-13.1
							l21.4,1.7c0,0,6.3,1.9,13.8-2.9c7.4-4.9,10.1-8.6,6.1-14.6c-3.9-6-17.2-5.4-24.1,0.3C174.8,511.3,165.3,512.9,165.3,512.9z"/>
						<path class="st2" d="M161.6,496.5c0,0,4.3-6.8-4.3-23.5s-23.7-40.2-23.7-40.2l4.3-2.8c0,0,20.7,34.5,22.9,40.8
							C163.5,478.7,170,486.8,161.6,496.5z"/>
						<circle class="st2" cx="171.2" cy="460.3" r="2"/>
						<circle class="st2" cx="180.9" cy="454" r="2"/>
						<circle class="st2" cx="177.9" cy="463.4" r="2"/>
						<circle class="st2" cx="169.7" cy="452.4" r="2"/>
						<circle class="st2" cx="164" cy="458.6" r="2"/>
						<circle class="st2" cx="160.3" cy="450.8" r="2"/>
						<circle class="st2" cx="175.4" cy="438.5" r="2"/>
						<circle class="st2" cx="166.2" cy="473.4" r="2"/>
					</g>
					<g>
						<path class="st2" d="M345.5,772.3c0,0-23.3-1.3-30.1,4.2s-18.6,26.3-10.6,26.3c8.1,0,27.1-16.5,34.3-21.2
							c7.2-4.7,14.8-10.6,11.9-5.1c-3,5.5-10.6,8.1-9.7,16.5c0.8,8.5,11,19.5,14,16.5s8.1-17,8.1-18.5s-5.1-15.4-5.1-15.4
							s14.4,18.2,18.2,24.6c3.8,6.4,6.4-6.8,5.9-13.1c-0.4-6.4-22.5-17-22.5-17s8.5-3.4,11.9-14.4s-1.3-25.4-7.2-26.7
							c-5.9-1.3-12.7,15.3-12.7,22c0,6.8-1.3,14.8-1.3,14.8l-17-13.1c0,0-4.2-5.1-13.1-5.1s-13.1,1.7-13.1,8.9s11.4,14,20.3,12.9
							S345.5,772.3,345.5,772.3z"/>
						<path class="st2" d="M339.6,788.1c0,0-7.3,3.3-9.2,22c-1.9,18.7-2.2,46.7-2.2,46.7H323c0,0,1.6-40.2,3.2-46.7
							C328.2,801.9,327.2,791.6,339.6,788.1z"/>
						<circle class="st2" cx="311.7" cy="813" r="2"/>
						<circle class="st2" cx="300.2" cy="813" r="2"/>
						<circle class="st2" cx="307.7" cy="806.8" r="2"/>
						<circle class="st2" cx="308.6" cy="820.5" r="2"/>
						<circle class="st2" cx="316.8" cy="818.5" r="2"/>
						<circle class="st2" cx="315.6" cy="827" r="2"/>
						<circle class="st2" cx="296.2" cy="829" r="2"/>
						<circle class="st2" cx="323" cy="804.9" r="2"/>
					</g>
					<g>
						<path class="st2" d="M417.2,822.9c0,0,20.2-11.7,22.8-20c2.7-8.3,1.2-32.2-5.5-27.8s-13.6,28.7-17.1,36.5s-6.6,17-7.1,10.8
							s4.4-12.5-0.9-19.2c-5.4-6.6-19.9-10.3-20.8-6.2s2.6,18.6,3.4,19.9s12.7,10.1,12.7,10.1s-22-7.3-28.7-10.6
							c-6.7-3.2-1.6,9.2,2.2,14.2s28.1,1.9,28.1,1.9s-5.2,7.5-2,18.6s15,20.6,20.7,18.4c5.7-2.2,2.3-19.7-1.4-25.4
							c-3.7-5.7-7.1-13.1-7.1-13.1l21.4,1.7c0,0,6.3,1.9,13.8-2.9s10.1-8.6,6.1-14.6s-17.2-5.4-24.1,0.3
							C426.8,821.2,417.2,822.9,417.2,822.9z"/>
						<path class="st2" d="M413.5,806.4c0,0,4.3-6.8-4.3-23.5s-23.7-40.2-23.7-40.2l4.3-2.8c0,0,20.7,34.5,22.9,40.8
							C415.5,788.6,422,796.7,413.5,806.4z"/>
						<circle class="st2" cx="423.2" cy="770.3" r="2"/>
						<circle class="st2" cx="432.8" cy="764" r="2"/>
						<circle class="st2" cx="429.9" cy="773.3" r="2"/>
						<circle class="st2" cx="421.7" cy="762.4" r="2"/>
						<circle class="st2" cx="415.9" cy="768.5" r="2"/>
						<circle class="st2" cx="412.3" cy="760.7" r="2"/>
						<circle class="st2" cx="427.4" cy="748.5" r="2"/>
						<circle class="st2" cx="418.2" cy="783.3" r="2"/>
					</g>
					<g>
						<path class="st2" d="M210.9,679.5c0,0-23.3-1.3-30.1,4.2S162.2,710,170.3,710s27.1-16.5,34.3-21.2s14.8-10.6,11.9-5.1
							s-10.6,8.1-9.7,16.5c0.8,8.5,11,19.5,14,16.5s8.1-17,8.1-18.5s-5.1-15.4-5.1-15.4s14.4,18.2,18.2,24.6
							c3.8,6.4,6.4-6.8,5.9-13.1c-0.4-6.4-22.5-17-22.5-17s8.5-3.4,11.9-14.4s-1.3-25.4-7.2-26.7s-12.7,15.3-12.7,22
							c0,6.8-1.3,14.8-1.3,14.8l-17-13.1c0,0-4.2-5.1-13.1-5.1s-13.1,1.7-13.1,8.9s11.4,14,20.3,12.9
							C202,675.7,210.9,679.5,210.9,679.5z"/>
						<path class="st2" d="M205,695.3c0,0-7.3,3.3-9.2,22s-2.2,46.7-2.2,46.7h-5.1c0,0,1.6-40.2,3.2-46.7
							C193.6,709.1,192.6,698.8,205,695.3z"/>
						<circle class="st2" cx="177.1" cy="720.2" r="2"/>
						<circle class="st2" cx="165.6" cy="720.2" r="2"/>
						<circle class="st2" cx="173.2" cy="714" r="2"/>
						<circle class="st2" cx="174" cy="727.7" r="2"/>
						<circle class="st2" cx="182.2" cy="725.7" r="2"/>
						<circle class="st2" cx="181" cy="734.2" r="2"/>
						<circle class="st2" cx="161.7" cy="736.2" r="2"/>
						<circle class="st2" cx="188.5" cy="712.1" r="2"/>
					</g>
					<g>
						<path class="st2" d="M282.7,730.1c0,0,20.2-11.7,22.8-20c2.7-8.3,1.2-32.2-5.5-27.8s-13.6,28.7-17.1,36.5s-6.6,17-7.1,10.8
							s4.4-12.5-0.9-19.2c-5.4-6.6-19.9-10.3-20.8-6.2c-0.9,4.1,2.6,18.6,3.4,19.9s12.7,10.1,12.7,10.1s-22-7.3-28.7-10.6
							c-6.7-3.2-1.6,9.2,2.2,14.2c3.8,5.1,28.1,1.9,28.1,1.9s-5.2,7.5-2,18.6s15,20.6,20.7,18.4c5.7-2.2,2.3-19.7-1.4-25.4
							c-3.7-5.7-7.1-13.1-7.1-13.1l21.4,1.7c0,0,6.3,1.9,13.8-2.9c7.4-4.9,10.1-8.6,6.1-14.6c-3.9-6-17.2-5.4-24.1,0.3
							C292.2,728.4,282.7,730.1,282.7,730.1z"/>
						<path class="st2" d="M279,713.6c0,0,4.3-6.8-4.3-23.5c-8.6-16.7-23.7-40.2-23.7-40.2l4.3-2.8c0,0,20.7,34.5,22.9,40.8
							C280.9,695.8,287.4,703.9,279,713.6z"/>
						<circle class="st2" cx="288.7" cy="677.5" r="2"/>
						<circle class="st2" cx="298.3" cy="671.2" r="2"/>
						<circle class="st2" cx="295.3" cy="680.5" r="2"/>
						<circle class="st2" cx="287.2" cy="669.6" r="2"/>
						<circle class="st2" cx="281.4" cy="675.7" r="2"/>
						<circle class="st2" cx="277.7" cy="667.9" r="2"/>
						<circle class="st2" cx="292.8" cy="655.7" r="2"/>
						<circle class="st2" cx="283.6" cy="690.5" r="2"/>
					</g>
					<g>
						<path class="st2" d="M76.4,586.7c0,0-23.3-1.3-30.1,4.2s-18.6,26.3-10.6,26.3S62.8,600.7,70,596s14.8-10.6,11.9-5.1
							c-3,5.5-10.6,8.1-9.7,16.5c0.8,8.5,11,19.5,14,16.5s8.1-17,8.1-18.5S89.2,590,89.2,590s14.4,18.2,18.2,24.6
							c3.8,6.4,6.4-6.8,5.9-13.1c-0.4-6.4-22.5-17-22.5-17s8.5-3.4,11.9-14.4s-1.3-25.4-7.2-26.7c-5.9-1.3-12.7,15.3-12.7,22
							c0,6.8-1.3,14.8-1.3,14.8l-17-13.1c0,0-4.2-5.1-13.1-5.1s-13.1,1.7-13.1,8.9s11.4,14,20.3,12.9S76.4,586.7,76.4,586.7z"/>
						<path class="st2" d="M70.5,602.5c0,0-7.3,3.3-9.2,22S59,671.2,59,671.2h-5.1c0,0,1.6-40.2,3.2-46.7
							C59.1,616.3,58.1,606,70.5,602.5z"/>
						<circle class="st2" cx="42.5" cy="627.4" r="2"/>
						<circle class="st2" cx="31" cy="627.4" r="2"/>
						<circle class="st2" cx="38.6" cy="621.2" r="2"/>
						<circle class="st2" cx="39.5" cy="634.9" r="2"/>
						<circle class="st2" cx="47.7" cy="632.9" r="2"/>
						<circle class="st2" cx="46.5" cy="641.5" r="2"/>
						<circle class="st2" cx="27.1" cy="643.4" r="2"/>
						<circle class="st2" cx="53.9" cy="619.3" r="2"/>
					</g>
					<g>
						<path class="st2" d="M148.1,637.3c0,0,20.2-11.7,22.8-20c2.7-8.3,1.2-32.2-5.5-27.8s-13.6,28.7-17.1,36.5s-6.6,17-7.1,10.8
							s4.4-12.5-0.9-19.2s-19.9-10.3-20.8-6.2s2.6,18.6,3.4,19.9c0.8,1.2,12.7,10.1,12.7,10.1s-22-7.3-28.7-10.6s-1.6,9.2,2.2,14.2
							c3.8,5.1,28.1,1.9,28.1,1.9s-5.2,7.5-2,18.6s15,20.6,20.7,18.4c5.7-2.2,2.3-19.7-1.4-25.4s-7.1-13.1-7.1-13.1l21.4,1.7
							c0,0,6.3,1.9,13.8-2.9c7.4-4.9,10.1-8.6,6.1-14.6c-3.9-6-17.2-5.4-24.1,0.3S148.1,637.3,148.1,637.3z"/>
						<path class="st2" d="M144.4,620.8c0,0,4.3-6.8-4.3-23.5s-23.7-40.2-23.7-40.2l4.3-2.8c0,0,20.7,34.5,22.9,40.8
							C146.4,603,152.9,611.1,144.4,620.8z"/>
						<circle class="st2" cx="154.1" cy="584.7" r="2"/>
						<circle class="st2" cx="163.7" cy="578.4" r="2"/>
						<circle class="st2" cx="160.8" cy="587.7" r="2"/>
						<circle class="st2" cx="152.6" cy="576.8" r="2"/>
						<circle class="st2" cx="146.8" cy="582.9" r="2"/>
						<circle class="st2" cx="143.1" cy="575.1" r="2"/>
						<circle class="st2" cx="158.2" cy="562.9" r="2"/>
						<circle class="st2" cx="149" cy="597.7" r="2"/>
					</g>
				</g>
			</g>
		</g>
	</g>
	<path d="M306.9,616.5c-0.1,0-0.2,0-0.3-0.1c-0.2-0.1-0.2-0.3-0.2-0.4l0.1-6.7l-6.5-2.2c-0.4-0.2-36.8-17.1-70.4-9.6l-3.2,1.3
		c-0.2,0.1-0.3,0-0.5,0c-0.1-0.1-0.2-0.2-0.2-0.4c-0.1-2.5-0.4-5.2-0.7-7.8c-0.3-3-0.7-6.1-0.7-8.8c-0.2-9.4,1.1-15.8,2.2-21.4
		c0.2-0.8,0.3-1.7,0.5-2.5c1.4-7.4,5.1-19.4,9.1-29.9c0.1-0.2,0.3-0.4,0.6-0.3c0.4,0.1,49.3,7.6,74.4,7.6l0,0
		c30,0,67.3-4.5,67.7-4.6l3.6-0.6c0.2,0,0.5,0.1,0.6,0.4c2,7.1,4.2,17.4,4.4,23.2c0.1,1.8,0.3,3.5,0.5,5.6c0.5,3.7,1,8.3,0.7,14.3
		c-0.1,2-0.1,3.9-0.1,5.9c-0.1,4.5-0.1,9.7-1,16c0,0.3-0.3,0.4-0.5,0.4l-13.6-1.3c-23.6-1.7-65.8,21.4-66.2,21.7
		C307.1,616.4,307,616.5,306.9,616.5z M247.9,594.6c27.6,0,52.2,11.4,52.5,11.6l6.8,2.3c0.2,0.1,0.3,0.3,0.3,0.5l-0.1,6.2
		c5.8-3.1,43.9-23,66-21.4l13.1,1.2c0.8-6.1,0.9-11,1-15.4c0-2.1,0.1-4,0.1-6c0.3-6-0.2-10.3-0.7-14.2c-0.3-2.1-0.5-3.9-0.5-5.7
		c-0.2-5.6-2.3-15.5-4.2-22.5l-3.2,0.5c-0.4,0-37.8,4.6-67.8,4.6l0,0c-23.9,0-69.3-6.8-74.2-7.5c-3.9,10.2-7.5,22.2-8.9,29.3
		c-0.2,0.8-0.3,1.7-0.5,2.5c-1.1,5.6-2.4,11.9-2.2,21.2c0.1,2.7,0.4,5.7,0.7,8.7c0.3,2.4,0.5,4.9,0.7,7.2l2.6-1
		C235.5,595.1,241.8,594.6,247.9,594.6z"/>
</g>
</svg>
