<?xml version="1.0" encoding="utf-8"?>
<!-- Generator: Adobe Illustrator 27.0.0, SVG Export Plug-In . SVG Version: 6.00 Build 0)  -->
<svg version="1.1" id="Layer_1" xmlns="http://www.w3.org/2000/svg" xmlns:xlink="http://www.w3.org/1999/xlink" x="0px" y="0px"
	 viewBox="0 0 600 1200" style="enable-background:new 0 0 600 1200;" xml:space="preserve">
<style type="text/css">
	.st0{fill:#7F374F;}
	.st1{clip-path:url(#SVGID_00000160149143610604825160000000831467839445182887_);}
	.st2{opacity:0.5;fill:#FFFFFF;}
	.st3{clip-path:url(#SVGID_00000014598381141250376060000011706266293505541811_);}
</style>
<g>
	<g>
		<g>
			<path class="st0" d="M386.8,540.3c-8.9,0.7-38.1,4.3-50.4,10.8c-14.3,7.6-17.8,6.5-25.3,6.4c-10.1-0.2-27.8-10.1-38.1-18
				c-12.2-9.4-33.9-9.2-33.9-9.2l-1.6,4.6c0,0,15.4-1,27,8.5c11.6,9.5,37.6,53.6,40,53.4h3c0,0,3.8,0.9,9.1-6.3
				c2.9-3.9,15-18,30.5-29c13.5-9.6,29.7-16.6,40.5-16.2l-0.1-1.2C387.3,542.8,387.1,541.6,386.8,540.3z"/>
			<path d="M307.8,597.4c-0.2,0-0.4,0-0.5,0h-2.9c-1.1,0.1-3.6-3.4-12.9-17.1c-8.8-13-20.7-30.9-27.5-36.4
				c-11.3-9.2-26.5-8.4-26.6-8.4c-0.2,0-0.3-0.1-0.4-0.2c-0.1-0.1-0.1-0.3-0.1-0.5l1.6-4.6c0.1-0.2,0.3-0.3,0.5-0.3
				c0.2,0,22-0.1,34.3,9.3c9.5,7.3,27.5,17.7,37.8,17.9c0.8,0,1.5,0,2.2,0.1c6.1,0.2,10.1,0.3,22.9-6.4
				c12.2-6.4,41.3-10.1,50.6-10.9c0.3,0,0.5,0.2,0.5,0.4c0.2,1.2,0.4,2.5,0.6,3.8l0.1,1.3c0,0.1,0,0.3-0.1,0.4
				c-0.1,0.1-0.2,0.2-0.4,0.1c-10.2-0.4-26,5.9-40.2,16.1c-15.8,11.3-28,25.7-30.3,28.9C312.6,596.7,309.1,597.4,307.8,597.4z
				 M307.4,596.3c0,0,0.1,0,0.1,0c0,0,3.6,0.7,8.6-6.1c2.4-3.2,14.6-17.7,30.6-29.1c14.2-10.2,29.9-16.5,40.3-16.3l0-0.7
				c-0.2-1.1-0.3-2.2-0.5-3.3c-9.7,0.8-37.9,4.5-49.7,10.7c-13,6.9-17.1,6.7-23.4,6.5c-0.7,0-1.4,0-2.2-0.1
				c-10.5-0.2-28.8-10.7-38.4-18.1c-11.1-8.5-30.5-9.1-33.3-9.1l-1.3,3.6c3.2-0.1,16.5,0.3,26.6,8.7c6.8,5.6,18.4,22.8,27.7,36.6
				c5.4,8,11,16.3,12.1,16.7L307.4,596.3z"/>
		</g>
		<g>
			<path class="st0" d="M238.1,513.5c-6.1-1.7-9,1.7-6.3,6.1c1.5,2.5,3.8,6.3,5.5,9.2c-0.8,0.3-1.6,1-1.7,2.5
				c-0.1,1-0.7,4.1-1.4,8.5c-0.2,0.2-0.5,0.6-0.8,1l1.4-4.7c0,0-4.1-1.9-7.4-0.9c-2.7,0.8-4.4,4-6.6,8.5c-4.7,9.8-3.2,17.9,0.1,17.8
				c2-0.1,4.1-0.8,5.5-1.3c-2.2,6.2-6.1,12.5-6.1,15.8c0,5,2.7,8.5,0.6,18.6c-1,4.8-0.4,4.9-0.4,4.9h3.1c0,0,0.7-8.5,1.4-13.4
				s-0.9-4.3-0.7-9.9c0.2-5.6,6.4-19.7,6.9-22.2c0.3-1.4,0.9-3.4,1.5-5c-1.2,8.5-2.3,18.8-1.8,27.7c1,18.3,5.6,23.4,5.6,23.4h3.1
				c0,0-5.2-23.1-5.3-29.8c0-6.6,3.3-32.1,3.8-34.4c0.4-2.3,3-4.7,3-4.7l-0.2-0.2l0.7-1C241.5,530.1,244.2,515.2,238.1,513.5z
				 M220.3,557.4c-1.5-2.5,1.3-8.4,4.5-14.6c3.2-6.2,6.2-2,6.2-2l1.4,1.5c-1.2,1.9-2.6,4.9-3.4,9c-0.3,1.9-0.9,3.9-1.6,6.1
				C225.7,558.3,221.5,559.6,220.3,557.4z M236.8,515.7c2.2,0.4,2.2,11.4,2.2,11.4v1.1c0,0-0.5-5.2-2.9-7.8
				C233.7,517.7,234.6,515.2,236.8,515.7z"/>
			<path d="M239.5,600.7h-3.1c-0.1,0-0.3-0.1-0.4-0.2c-0.2-0.2-4.8-5.5-5.8-23.8c-0.3-5.9,0-13.1,1-21.5c-0.4,1.1-1,2.7-1.7,4.5
				c-2,5.4-4.8,12.8-4.9,16.5c-0.1,2.6,0.2,3.8,0.5,4.9c0.3,1.3,0.6,2.4,0.2,5c-0.7,4.8-1.4,13.3-1.4,13.3c0,0.3-0.2,0.5-0.5,0.5
				h-3.1c-0.2,0-0.4-0.1-0.5-0.3c-0.2-0.2-0.6-0.8,0.4-5.2c1.4-6.7,0.7-10.4,0-13.7c-0.3-1.6-0.6-3.1-0.6-4.8c0-2.1,1.4-5.2,3.1-8.9
				c0.9-2,1.9-4,2.7-6.1c-1.4,0.5-3,0.9-4.6,1c-0.9,0-1.8-0.5-2.4-1.4c-1.8-2.8-1.8-9.6,1.9-17.1c2.2-4.6,4-7.9,6.9-8.8
				c2.8-0.8,6,0.2,7.2,0.7c0.4-2.1,0.6-3.5,0.7-4.2c0.1-1.5,0.8-2.3,1.5-2.7c-1.7-2.8-3.8-6.4-5.2-8.8c-1.3-2.1-1.4-4.2-0.3-5.6
				c1.3-1.7,4-2.1,7.2-1.2l0,0c6.4,1.8,3.9,16.5,3.8,17.2c0,0.1,0,0.1-0.1,0.2l-0.5,0.7c0.1,0.2,0.1,0.4-0.1,0.6
				c0,0-2.4,2.4-2.8,4.4c-0.4,2.2-3.8,27.6-3.8,34.3c0,6.5,5.2,29.4,5.2,29.7c0,0.1,0,0.3-0.1,0.4
				C239.8,600.6,239.7,600.7,239.5,600.7z M236.7,599.7h2.2c-0.8-3.8-5.1-23.2-5.1-29.3c-0.1-6.7,3.4-32.3,3.8-34.5
				c0.4-1.9,2.1-3.9,2.8-4.7c-0.1-0.2,0-0.3,0.1-0.5l0.6-0.9c0.2-1.4,2.2-14.4-3.1-15.9l0,0c-2.8-0.8-5.1-0.5-6.2,0.9
				c-0.8,1.1-0.7,2.7,0.4,4.5c1.5,2.5,3.8,6.4,5.5,9.2c0.1,0.1,0.1,0.3,0,0.4c0,0.1-0.2,0.2-0.3,0.3c-0.8,0.3-1.3,1-1.4,2.1
				c-0.1,0.7-0.4,2.4-0.8,4.9c-0.2,1.1-0.4,2.3-0.6,3.6c0,0.1-0.1,0.2-0.1,0.3c-0.2,0.2-0.5,0.5-0.8,1c-0.1,0.2-0.4,0.3-0.6,0.1
				c-0.2-0.1-0.3-0.4-0.3-0.6l1.3-4.3c-1.1-0.4-4.1-1.5-6.6-0.7c-2.5,0.8-4.2,3.9-6.3,8.2c-3.5,7.2-3.6,13.6-1.9,16.1
				c0.4,0.7,0.9,1,1.5,1c1.9-0.1,4-0.7,5.3-1.3c0.2-0.1,0.4,0,0.5,0.1c0.1,0.1,0.2,0.3,0.1,0.5c-0.9,2.4-2,4.9-3.1,7.2
				c-1.6,3.4-3,6.5-3,8.5c0,1.6,0.3,3.1,0.6,4.6c0.7,3.4,1.4,7.2,0,14.1c-0.6,2.8-0.6,3.9-0.5,4.3l2.3,0c0.2-1.8,0.8-8.8,1.4-12.9
				c0.4-2.5,0.1-3.4-0.2-4.7c-0.3-1.1-0.6-2.4-0.5-5.2c0.1-3.8,2.9-11.3,5-16.8c1-2.5,1.8-4.7,1.9-5.5c0.2-1.1,0.7-2.9,1.5-5.1
				c0.1-0.2,0.3-0.4,0.6-0.3c0.3,0.1,0.4,0.3,0.4,0.6c-1.6,11-2.2,20.3-1.8,27.6C232.2,592.8,235.9,598.7,236.7,599.7z M222.9,559.1
				c-1.3,0-2.4-0.4-3-1.5c-1.5-2.6,0.7-7.9,4.5-15.1c1.2-2.3,2.6-3.5,4-3.6c1.8-0.1,3,1.5,3,1.6l1.3,1.5c0.1,0.2,0.2,0.4,0.1,0.6
				c-1.1,1.8-2.5,4.7-3.3,8.8c-0.3,1.7-0.8,3.7-1.7,6.2c0,0.1-0.1,0.2-0.2,0.3C226.5,558.4,224.6,559.1,222.9,559.1z M228.5,539.9
				c0,0-0.1,0-0.1,0c-1.1,0.1-2.2,1.2-3.2,3.1c-3,5.7-5.9,11.8-4.5,14.1l0,0c1,1.7,4.5,0.8,6.2-0.1c0.8-2.3,1.3-4.2,1.6-5.8
				c0.7-4,2.1-7,3.2-8.9l-1.1-1.2C230.5,541,229.7,539.9,228.5,539.9z M239,528.7c-0.3,0-0.5-0.2-0.5-0.5c0-0.1-0.5-5.1-2.8-7.6
				c-1.7-1.9-1.8-3.6-1.3-4.5c0.5-0.8,1.4-1.1,2.4-0.9l0,0l0,0c2.4,0.5,2.6,9.2,2.6,11.9v1.1C239.5,528.4,239.3,528.6,239,528.7
				C239,528.7,239,528.7,239,528.7z M236.3,516.1c-0.4,0-0.8,0.2-0.9,0.5c-0.4,0.6-0.2,1.9,1.1,3.4c0.8,0.9,1.4,2.1,1.9,3.3
				c-0.3-3.8-0.9-7-1.7-7.1l0,0C236.5,516.1,236.4,516.1,236.3,516.1z"/>
		</g>
		<g>
			<defs>
				<path id="SVGID_1_" d="M238.1,513.5c-6.1-1.7-9,1.7-6.3,6.1c1.5,2.5,3.8,6.3,5.5,9.2c-0.8,0.3-1.6,1-1.7,2.5
					c-0.1,1-0.7,4.1-1.4,8.5c-0.2,0.2-0.5,0.6-0.8,1l1.4-4.7c0,0-4.1-1.9-7.4-0.9c-2.7,0.8-4.4,4-6.6,8.5
					c-4.7,9.8-3.2,17.9,0.1,17.8c2-0.1,4.1-0.8,5.5-1.3c-2.2,6.2-6.1,12.5-6.1,15.8c0,5,2.7,8.5,0.6,18.6c-1,4.8-0.4,4.9-0.4,4.9
					h3.1c0,0,0.7-8.5,1.4-13.4s-0.9-4.3-0.7-9.9c0.2-5.6,6.4-19.7,6.9-22.2c0.3-1.4,0.9-3.4,1.5-5c-1.2,8.5-2.3,18.8-1.8,27.7
					c1,18.3,5.6,23.4,5.6,23.4h3.1c0,0-5.2-23.1-5.3-29.8c0-6.6,3.3-32.1,3.8-34.4c0.4-2.3,3-4.7,3-4.7l-0.2-0.2l0.7-1
					C241.5,530.1,244.2,515.2,238.1,513.5z M220.3,557.4c-1.5-2.5,1.3-8.4,4.5-14.6c3.2-6.2,6.2-2,6.2-2l1.4,1.5
					c-1.2,1.9-2.6,4.9-3.4,9c-0.3,1.9-0.9,3.9-1.6,6.1C225.7,558.3,221.5,559.6,220.3,557.4z M236.8,515.7
					c2.2,0.4,2.2,11.4,2.2,11.4v1.1c0,0-0.5-5.2-2.9-7.8C233.7,517.7,234.6,515.2,236.8,515.7z"/>
			</defs>
			<clipPath id="SVGID_00000117658513952449195480000017801213697800301226_">
				<use xlink:href="#SVGID_1_"  style="overflow:visible;"/>
			</clipPath>
			<g style="clip-path:url(#SVGID_00000117658513952449195480000017801213697800301226_);">
				<rect x="143.9" y="423" class="st2" width="229.8" height="2.4"/>
				<rect x="143.9" y="427.9" class="st2" width="229.8" height="2.4"/>
				<rect x="143.9" y="432.7" class="st2" width="229.8" height="2.4"/>
				<rect x="143.9" y="437.5" class="st2" width="229.8" height="2.4"/>
				<rect x="143.9" y="442.4" class="st2" width="229.8" height="2.4"/>
				<rect x="143.9" y="447.2" class="st2" width="229.8" height="2.4"/>
				<rect x="143.9" y="452.1" class="st2" width="229.8" height="2.4"/>
				<rect x="143.9" y="456.9" class="st2" width="229.8" height="2.4"/>
				<rect x="143.9" y="461.8" class="st2" width="229.8" height="2.4"/>
				<rect x="143.9" y="466.6" class="st2" width="229.8" height="2.4"/>
				<rect x="143.9" y="471.5" class="st2" width="229.8" height="2.4"/>
				<rect x="143.9" y="476.3" class="st2" width="229.8" height="2.4"/>
				<rect x="143.9" y="481.1" class="st2" width="229.8" height="2.4"/>
				<rect x="143.9" y="486" class="st2" width="229.8" height="2.4"/>
				<rect x="143.9" y="490.8" class="st2" width="229.8" height="2.4"/>
				<rect x="143.9" y="495.7" class="st2" width="229.8" height="2.4"/>
				<rect x="143.9" y="500.5" class="st2" width="229.8" height="2.4"/>
				<rect x="143.9" y="505.4" class="st2" width="229.8" height="2.4"/>
				<rect x="143.9" y="510.2" class="st2" width="229.8" height="2.4"/>
				<rect x="143.9" y="515" class="st2" width="229.8" height="2.4"/>
				<rect x="143.9" y="519.9" class="st2" width="229.8" height="2.4"/>
				<rect x="143.9" y="524.7" class="st2" width="229.8" height="2.4"/>
				<rect x="143.9" y="529.6" class="st2" width="229.8" height="2.4"/>
				<rect x="143.9" y="534.4" class="st2" width="229.8" height="2.4"/>
				<rect x="143.9" y="539.3" class="st2" width="229.8" height="2.4"/>
				<rect x="143.9" y="544.1" class="st2" width="229.8" height="2.4"/>
				<rect x="143.9" y="548.9" class="st2" width="229.8" height="2.4"/>
				<rect x="143.9" y="553.8" class="st2" width="229.8" height="2.4"/>
				<rect x="143.9" y="558.6" class="st2" width="229.8" height="2.4"/>
				<rect x="143.9" y="563.5" class="st2" width="229.8" height="2.4"/>
				<rect x="143.9" y="568.3" class="st2" width="229.8" height="2.4"/>
				<rect x="143.9" y="573.2" class="st2" width="229.8" height="2.4"/>
				<rect x="143.9" y="578" class="st2" width="229.8" height="2.4"/>
				<rect x="143.9" y="582.8" class="st2" width="229.8" height="2.4"/>
				<rect x="143.9" y="587.7" class="st2" width="229.8" height="2.4"/>
				<rect x="143.9" y="592.5" class="st2" width="229.8" height="2.4"/>
				<rect x="143.9" y="597.4" class="st2" width="229.8" height="2.4"/>
				<rect x="143.9" y="602.2" class="st2" width="229.8" height="2.4"/>
				<rect x="143.9" y="607.1" class="st2" width="229.8" height="2.4"/>
				<rect x="143.9" y="611.9" class="st2" width="229.8" height="2.4"/>
				<rect x="143.9" y="616.7" class="st2" width="229.8" height="2.4"/>
				
					<rect x="240.8" y="519.9" transform="matrix(-1.836970e-16 1 -1 -1.836970e-16 876.7556 165.375)" class="st2" width="229.8" height="2.4"/>
				
					<rect x="236" y="519.9" transform="matrix(-1.836970e-16 1 -1 -1.836970e-16 871.9124 170.2182)" class="st2" width="229.8" height="2.4"/>
				
					<rect x="231.1" y="519.9" transform="matrix(-1.836970e-16 1 -1 -1.836970e-16 867.0693 175.0613)" class="st2" width="229.8" height="2.4"/>
				
					<rect x="226.3" y="519.9" transform="matrix(-1.836970e-16 1 -1 -1.836970e-16 862.2261 179.9045)" class="st2" width="229.8" height="2.4"/>
				
					<rect x="221.4" y="519.9" transform="matrix(-1.836970e-16 1 -1 -1.836970e-16 857.383 184.7476)" class="st2" width="229.8" height="2.4"/>
				
					<rect x="216.6" y="519.9" transform="matrix(-1.836970e-16 1 -1 -1.836970e-16 852.5399 189.5907)" class="st2" width="229.8" height="2.4"/>
				
					<rect x="211.7" y="519.9" transform="matrix(-1.836970e-16 1 -1 -1.836970e-16 847.6967 194.4339)" class="st2" width="229.8" height="2.4"/>
				
					<rect x="206.9" y="519.9" transform="matrix(-1.836970e-16 1 -1 -1.836970e-16 842.8536 199.277)" class="st2" width="229.8" height="2.4"/>
				
					<rect x="202.1" y="519.9" transform="matrix(-1.836970e-16 1 -1 -1.836970e-16 838.0104 204.1202)" class="st2" width="229.8" height="2.4"/>
				
					<rect x="197.2" y="519.9" transform="matrix(-1.836970e-16 1 -1 -1.836970e-16 833.1674 208.9633)" class="st2" width="229.8" height="2.4"/>
				
					<rect x="192.4" y="519.9" transform="matrix(-1.836970e-16 1 -1 -1.836970e-16 828.3242 213.8064)" class="st2" width="229.8" height="2.4"/>
				
					<rect x="187.5" y="519.9" transform="matrix(-1.836970e-16 1 -1 -1.836970e-16 823.4811 218.6496)" class="st2" width="229.8" height="2.4"/>
				
					<rect x="182.7" y="519.9" transform="matrix(-1.836970e-16 1 -1 -1.836970e-16 818.6379 223.4927)" class="st2" width="229.8" height="2.4"/>
				
					<rect x="177.8" y="519.9" transform="matrix(-1.836970e-16 1 -1 -1.836970e-16 813.7948 228.3358)" class="st2" width="229.8" height="2.4"/>
				
					<rect x="173" y="519.9" transform="matrix(-1.836970e-16 1 -1 -1.836970e-16 808.9517 233.179)" class="st2" width="229.8" height="2.4"/>
				
					<rect x="168.2" y="519.9" transform="matrix(-1.836970e-16 1 -1 -1.836970e-16 804.1085 238.0221)" class="st2" width="229.8" height="2.4"/>
				
					<rect x="163.3" y="519.9" transform="matrix(-1.836970e-16 1 -1 -1.836970e-16 799.2654 242.8653)" class="st2" width="229.8" height="2.4"/>
				
					<rect x="158.5" y="519.9" transform="matrix(-1.836970e-16 1 -1 -1.836970e-16 794.4222 247.7084)" class="st2" width="229.8" height="2.4"/>
				
					<rect x="153.6" y="519.9" transform="matrix(-1.836970e-16 1 -1 -1.836970e-16 789.5791 252.5515)" class="st2" width="229.8" height="2.4"/>
				
					<rect x="148.8" y="519.9" transform="matrix(-1.836970e-16 1 -1 -1.836970e-16 784.736 257.3947)" class="st2" width="229.8" height="2.4"/>
				
					<rect x="143.9" y="519.9" transform="matrix(-1.836970e-16 1 -1 -1.836970e-16 779.8928 262.2378)" class="st2" width="229.8" height="2.4"/>
				
					<rect x="139.1" y="519.9" transform="matrix(-1.836970e-16 1 -1 -1.836970e-16 775.0497 267.081)" class="st2" width="229.8" height="2.4"/>
				
					<rect x="134.3" y="519.9" transform="matrix(-1.836970e-16 1 -1 -1.836970e-16 770.2065 271.9241)" class="st2" width="229.8" height="2.4"/>
				
					<rect x="129.4" y="519.9" transform="matrix(-1.836970e-16 1 -1 -1.836970e-16 765.3634 276.7672)" class="st2" width="229.8" height="2.4"/>
				
					<rect x="124.6" y="519.9" transform="matrix(-1.836970e-16 1 -1 -1.836970e-16 760.5203 281.6104)" class="st2" width="229.8" height="2.4"/>
				
					<rect x="119.7" y="519.9" transform="matrix(-1.836970e-16 1 -1 -1.836970e-16 755.6771 286.4535)" class="st2" width="229.8" height="2.4"/>
				
					<rect x="114.9" y="519.9" transform="matrix(-1.836970e-16 1 -1 -1.836970e-16 750.834 291.2967)" class="st2" width="229.8" height="2.4"/>
				
					<rect x="110" y="519.9" transform="matrix(-1.836970e-16 1 -1 -1.836970e-16 745.9908 296.1398)" class="st2" width="229.8" height="2.4"/>
				
					<rect x="105.2" y="519.9" transform="matrix(-1.836970e-16 1 -1 -1.836970e-16 741.1477 300.9829)" class="st2" width="229.8" height="2.4"/>
				
					<rect x="100.4" y="519.9" transform="matrix(-1.836970e-16 1 -1 -1.836970e-16 736.3046 305.8261)" class="st2" width="229.8" height="2.4"/>
				
					<rect x="95.5" y="519.9" transform="matrix(-1.836970e-16 1 -1 -1.836970e-16 731.4614 310.6692)" class="st2" width="229.8" height="2.4"/>
				
					<rect x="90.7" y="519.9" transform="matrix(-1.836970e-16 1 -1 -1.836970e-16 726.6183 315.5124)" class="st2" width="229.8" height="2.4"/>
				
					<rect x="85.8" y="519.9" transform="matrix(-1.836970e-16 1 -1 -1.836970e-16 721.7751 320.3555)" class="st2" width="229.8" height="2.4"/>
				
					<rect x="81" y="519.9" transform="matrix(-1.836970e-16 1 -1 -1.836970e-16 716.932 325.1986)" class="st2" width="229.8" height="2.4"/>
				
					<rect x="76.1" y="519.9" transform="matrix(-1.836970e-16 1 -1 -1.836970e-16 712.0889 330.0418)" class="st2" width="229.8" height="2.4"/>
				
					<rect x="71.3" y="519.9" transform="matrix(-1.836970e-16 1 -1 -1.836970e-16 707.2457 334.8849)" class="st2" width="229.8" height="2.4"/>
				
					<rect x="66.5" y="519.9" transform="matrix(-1.836970e-16 1 -1 -1.836970e-16 702.4026 339.7281)" class="st2" width="229.8" height="2.4"/>
				
					<rect x="61.6" y="519.9" transform="matrix(-1.836970e-16 1 -1 -1.836970e-16 697.5594 344.5712)" class="st2" width="229.8" height="2.4"/>
				
					<rect x="56.8" y="519.9" transform="matrix(-1.836970e-16 1 -1 -1.836970e-16 692.7163 349.4143)" class="st2" width="229.8" height="2.4"/>
				
					<rect x="51.9" y="519.9" transform="matrix(-1.836970e-16 1 -1 -1.836970e-16 687.8732 354.2575)" class="st2" width="229.8" height="2.4"/>
				
					<rect x="47.1" y="519.9" transform="matrix(-1.836970e-16 1 -1 -1.836970e-16 683.03 359.1006)" class="st2" width="229.8" height="2.4"/>
			</g>
		</g>
		<g>
			<defs>
				<path id="SVGID_00000123412590830841705950000007363720949544115594_" d="M238.1,513.5c-6.1-1.7-9,1.7-6.3,6.1
					c1.5,2.5,3.8,6.3,5.5,9.2c-0.8,0.3-1.6,1-1.7,2.5c-0.1,1-0.7,4.1-1.4,8.5c-0.2,0.2-0.5,0.6-0.8,1l1.4-4.7c0,0-4.1-1.9-7.4-0.9
					c-2.7,0.8-4.4,4-6.6,8.5c-4.7,9.8-3.2,17.9,0.1,17.8c2-0.1,4.1-0.8,5.5-1.3c-2.2,6.2-6.1,12.5-6.1,15.8c0,5,2.7,8.5,0.6,18.6
					c-1,4.8-0.4,4.9-0.4,4.9h3.1c0,0,0.7-8.5,1.4-13.4s-0.9-4.3-0.7-9.9c0.2-5.6,6.4-19.7,6.9-22.2c0.3-1.4,0.9-3.4,1.5-5
					c-1.2,8.5-2.3,18.8-1.8,27.7c1,18.3,5.6,23.4,5.6,23.4h3.1c0,0-5.2-23.1-5.3-29.8c0-6.6,3.3-32.1,3.8-34.4c0.4-2.3,3-4.7,3-4.7
					l-0.2-0.2l0.7-1C241.5,530.1,244.2,515.2,238.1,513.5z M220.3,557.4c-1.5-2.5,1.3-8.4,4.5-14.6c3.2-6.2,6.2-2,6.2-2l1.4,1.5
					c-1.2,1.9-2.6,4.9-3.4,9c-0.3,1.9-0.9,3.9-1.6,6.1C225.7,558.3,221.5,559.6,220.3,557.4z M236.8,515.7
					c2.2,0.4,2.2,11.4,2.2,11.4v1.1c0,0-0.5-5.2-2.9-7.8C233.7,517.7,234.6,515.2,236.8,515.7z"/>
			</defs>
			<clipPath id="SVGID_00000152947646740063020820000014270621315666557069_">
				<use xlink:href="#SVGID_00000123412590830841705950000007363720949544115594_"  style="overflow:visible;"/>
			</clipPath>
		</g>
		<g>
			<path d="M220.7,562.1c-0.9,0-1.7-0.5-2.3-1.4c-1.8-2.8-1.8-9.6,1.9-17.1c2.2-4.6,4-7.9,6.9-8.8c3.4-1,7.5,0.8,7.7,0.9
				c0.2,0.1,0.3,0.4,0.3,0.6l-1.4,4.7c0,0.1,0,0.1-0.1,0.2c-0.3,0.4-0.6,0.9-1,1.4c-0.1,0.1-0.2,0.2-0.4,0.2c-0.2,0-0.3,0-0.4-0.2
				l-1.4-1.5c0-0.1-0.9-1.3-2.2-1.2c-1.1,0.1-2.2,1.2-3.2,3.1c-3,5.7-5.9,11.8-4.5,14.1l0,0c1,1.8,4.7,0.7,6.4-0.2
				c0.2-0.1,0.4-0.1,0.6,0.1c0.2,0.1,0.2,0.3,0.2,0.5c-0.3,1-0.6,1.9-1,2.9c0,0.1-0.2,0.2-0.3,0.3
				C225.1,561.3,222.9,562,220.7,562.1C220.8,562.1,220.8,562.1,220.7,562.1z M229.4,535.4c-0.7,0-1.3,0.1-2,0.3
				c-2.5,0.8-4.2,3.9-6.3,8.2c-3.5,7.2-3.6,13.6-1.9,16.1c0.4,0.7,1,1,1.5,1c1.8-0.1,3.8-0.7,5.1-1.2c0.2-0.5,0.4-1,0.5-1.5
				c-2.1,0.9-5.4,1.5-6.6-0.7l0,0c-1.5-2.6,0.7-7.9,4.5-15.1c1.2-2.3,2.6-3.5,4-3.6c1.8-0.1,3,1.5,3,1.6l0.9,1
				c0.2-0.3,0.4-0.6,0.6-0.8l1.2-4.2C233.3,536.1,231.4,535.4,229.4,535.4z"/>
			<path d="M240.8,531.6c-0.2,0-0.3-0.1-0.4-0.2l-1.6-2.3c-0.3,0-0.8,0-1.3,0.2c-0.2,0.1-0.5,0-0.6-0.2c-1.7-2.9-4-6.8-5.5-9.2
				c-1.3-2.1-1.4-4.2-0.3-5.6c1.3-1.7,4-2.1,7.2-1.2l0,0c6.4,1.8,3.9,16.5,3.8,17.2c0,0.1,0,0.1-0.1,0.2l-0.7,1
				C241.1,531.5,241,531.6,240.8,531.6z M239.4,528.3C239.4,528.4,239.5,528.4,239.4,528.3l1.4,1.9l0.2-0.3
				c0.2-1.4,2.2-14.4-3.1-15.9c-2.8-0.8-5.1-0.5-6.2,0.9c-0.8,1.1-0.7,2.7,0.4,4.5c1.4,2.4,3.6,6.1,5.3,8.9c0.4-0.1,0.7-0.1,1-0.1
				c-0.1-0.6-0.6-5.2-2.7-7.5c-1.7-1.9-1.8-3.6-1.3-4.5c0.5-0.8,1.4-1.1,2.4-0.9c2.4,0.5,2.6,9.2,2.6,11.9v1.1
				C239.5,528.2,239.5,528.3,239.4,528.3z M236.3,516.1c-0.4,0-0.8,0.2-0.9,0.5c-0.4,0.6-0.2,1.9,1.1,3.4c0.8,0.9,1.4,2.1,1.9,3.3
				c-0.3-3.8-0.9-7-1.7-7.1C236.5,516.1,236.4,516.1,236.3,516.1z"/>
			<path d="M223.5,600h-3.1c-0.2,0-0.4-0.1-0.5-0.3c-0.2-0.2-0.6-0.8,0.4-5.2c1.4-6.7,0.7-10.4,0-13.7c-0.3-1.6-0.6-3.1-0.6-4.8
				c0-2.6,1.8-6.8,4-11.6c2-4.6,4.1-9.3,4.8-13.2c1.2-6.8,4.4-10.7,5.3-11.7c0.1-0.2,0.4-0.2,0.6-0.1c0.2,0.1,0.3,0.3,0.3,0.5
				c-0.6,3.3-1.1,6.3-1.5,9.2c-0.8,2.3-1.3,4-1.5,5.1c-0.2,0.9-1,3-2,5.7c-2,5.4-4.8,12.8-4.9,16.5c-0.1,2.6,0.2,3.8,0.5,4.9
				c0.3,1.3,0.6,2.4,0.2,5c-0.7,4.8-1.4,13.3-1.4,13.3C223.9,599.8,223.7,600,223.5,600z M220.8,599.2L220.8,599.2L220.8,599.2z
				 M233.3,541.7c-1.3,1.8-3,5-3.8,9.7c-0.7,4-2.8,8.8-4.9,13.4c-2,4.5-3.9,8.8-3.9,11.2c0,1.6,0.3,3.1,0.6,4.6
				c0.7,3.4,1.4,7.2,0,14.1c-0.6,2.8-0.6,3.9-0.5,4.3l2.3,0c0.2-1.8,0.8-8.8,1.4-12.9c0.4-2.5,0.1-3.4-0.2-4.7
				c-0.3-1.1-0.6-2.4-0.5-5.2c0.1-3.8,2.9-11.3,5-16.8c1-2.5,1.8-4.7,1.9-5.5c0.2-1.1,0.7-2.9,1.5-5.1
				C232.5,546.6,232.9,544.3,233.3,541.7z M229,551.3L229,551.3L229,551.3z"/>
			<path d="M239.5,600.7h-3.1c-0.1,0-0.3-0.1-0.4-0.2c-0.2-0.2-4.8-5.5-5.8-23.8c-0.8-14.3,2.4-32.1,4-40.6c0.4-2.4,0.7-4.1,0.8-4.8
				c0.1-1.1,0.5-1.9,1.2-2.5c1.2-0.9,2.8-0.7,2.9-0.6c0.1,0,0.2,0.1,0.3,0.2l1.9,2.7c0.1,0.2,0.1,0.5-0.1,0.7c0,0-2.4,2.4-2.8,4.4
				c-0.4,2.2-3.8,27.6-3.8,34.3c0,6.5,5.2,29.4,5.2,29.7c0,0.1,0,0.3-0.1,0.4C239.8,600.6,239.7,600.7,239.5,600.7z M236.7,599.7
				h2.2c-0.8-3.8-5.1-23.2-5.1-29.3c-0.1-6.7,3.4-32.3,3.8-34.5c0.4-1.9,2.1-3.9,2.8-4.7l-1.6-2.2c-0.4,0-1.3,0-1.9,0.5
				c-0.5,0.4-0.7,1-0.8,1.8c-0.1,0.7-0.4,2.4-0.8,4.9c-1.5,8.5-4.7,26.2-4,40.4C232.2,592.9,235.9,598.7,236.7,599.7z"/>
		</g>
		<path d="M239.5,600.7h-3.1c-0.1,0-0.3-0.1-0.4-0.2c-0.2-0.2-4.8-5.5-5.8-23.8c-0.3-5.9,0-13.1,1-21.5c-0.4,1.1-1,2.7-1.7,4.5
			c-2,5.4-4.8,12.8-4.9,16.5c-0.1,2.6,0.2,3.8,0.5,4.9c0.3,1.3,0.6,2.4,0.2,5c-0.7,4.8-1.4,13.3-1.4,13.3c0,0.3-0.2,0.5-0.5,0.5
			h-3.1c-0.2,0-0.4-0.1-0.5-0.3c-0.2-0.2-0.6-0.8,0.4-5.2c1.4-6.7,0.7-10.4,0-13.7c-0.3-1.6-0.6-3.1-0.6-4.8c0-2.1,1.4-5.2,3.1-8.9
			c0.9-2,1.9-4,2.7-6.1c-1.4,0.5-3,0.9-4.6,1c-0.9,0-1.8-0.5-2.4-1.4c-1.8-2.8-1.8-9.6,1.9-17.1c2.2-4.6,4-7.9,6.9-8.8
			c2.8-0.8,6,0.2,7.2,0.7c0.4-2.1,0.6-3.5,0.7-4.2c0.1-1.5,0.8-2.3,1.5-2.7c-1.7-2.8-3.8-6.4-5.2-8.8c-1.3-2.1-1.4-4.2-0.3-5.6
			c1.3-1.7,4-2.1,7.2-1.2l0,0c6.4,1.8,3.9,16.5,3.8,17.2c0,0.1,0,0.1-0.1,0.2l-0.5,0.7c0.1,0.2,0.1,0.4-0.1,0.6c0,0-2.4,2.4-2.8,4.4
			c-0.4,2.2-3.8,27.6-3.8,34.3c0,6.5,5.2,29.4,5.2,29.7c0,0.1,0,0.3-0.1,0.4C239.8,600.6,239.7,600.7,239.5,600.7z M236.7,599.7h2.2
			c-0.8-3.8-5.1-23.2-5.1-29.3c-0.1-6.7,3.4-32.3,3.8-34.5c0.4-1.9,2.1-3.9,2.8-4.7c-0.1-0.2,0-0.3,0.1-0.5l0.6-0.9
			c0.2-1.4,2.2-14.4-3.1-15.9l0,0c-2.8-0.8-5.1-0.5-6.2,0.9c-0.8,1.1-0.7,2.7,0.4,4.5c1.5,2.5,3.8,6.4,5.5,9.2
			c0.1,0.1,0.1,0.3,0,0.4c0,0.1-0.2,0.2-0.3,0.3c-0.8,0.3-1.3,1-1.4,2.1c-0.1,0.7-0.4,2.4-0.8,4.9c-0.2,1.1-0.4,2.3-0.6,3.6
			c0,0.1-0.1,0.2-0.1,0.3c-0.2,0.2-0.5,0.5-0.8,1c-0.1,0.2-0.4,0.3-0.6,0.1c-0.2-0.1-0.3-0.4-0.3-0.6l1.3-4.3
			c-1.1-0.4-4.1-1.5-6.6-0.7c-2.5,0.8-4.2,3.9-6.3,8.2c-3.5,7.2-3.6,13.6-1.9,16.1c0.4,0.7,0.9,1,1.5,1c1.9-0.1,4-0.7,5.3-1.3
			c0.2-0.1,0.4,0,0.5,0.1c0.1,0.1,0.2,0.3,0.1,0.5c-0.9,2.4-2,4.9-3.1,7.2c-1.6,3.4-3,6.5-3,8.5c0,1.6,0.3,3.1,0.6,4.6
			c0.7,3.4,1.4,7.2,0,14.1c-0.6,2.8-0.6,3.9-0.5,4.3l2.3,0c0.2-1.8,0.8-8.8,1.4-12.9c0.4-2.5,0.1-3.4-0.2-4.7
			c-0.3-1.1-0.6-2.4-0.5-5.2c0.1-3.8,2.9-11.3,5-16.8c1-2.5,1.8-4.7,1.9-5.5c0.2-1.1,0.7-2.9,1.5-5.1c0.1-0.2,0.3-0.4,0.6-0.3
			c0.3,0.1,0.4,0.3,0.4,0.6c-1.6,11-2.2,20.3-1.8,27.6C232.2,592.8,235.9,598.7,236.7,599.7z M222.9,559.1c-1.3,0-2.4-0.4-3-1.5
			c-1.5-2.6,0.7-7.9,4.5-15.1c1.2-2.3,2.6-3.5,4-3.6c1.8-0.1,3,1.5,3,1.6l1.3,1.5c0.1,0.2,0.2,0.4,0.1,0.6c-1.1,1.8-2.5,4.7-3.3,8.8
			c-0.3,1.7-0.8,3.7-1.7,6.2c0,0.1-0.1,0.2-0.2,0.3C226.5,558.4,224.6,559.1,222.9,559.1z M228.5,539.9c0,0-0.1,0-0.1,0
			c-1.1,0.1-2.2,1.2-3.2,3.1c-3,5.7-5.9,11.8-4.5,14.1l0,0c1,1.7,4.5,0.8,6.2-0.1c0.8-2.3,1.3-4.2,1.6-5.8c0.7-4,2.1-7,3.2-8.9
			l-1.1-1.2C230.5,541,229.7,539.9,228.5,539.9z M239,528.7c-0.3,0-0.5-0.2-0.5-0.5c0-0.1-0.5-5.1-2.8-7.6c-1.7-1.9-1.8-3.6-1.3-4.5
			c0.5-0.8,1.4-1.1,2.4-0.9l0,0l0,0c2.4,0.5,2.6,9.2,2.6,11.9v1.1C239.5,528.4,239.3,528.6,239,528.7C239,528.7,239,528.7,239,528.7
			z M236.3,516.1c-0.4,0-0.8,0.2-0.9,0.5c-0.4,0.6-0.2,1.9,1.1,3.4c0.8,0.9,1.4,2.1,1.9,3.3c-0.3-3.8-0.9-7-1.7-7.1l0,0
			C236.5,516.1,236.4,516.1,236.3,516.1z"/>
	</g>
	<g>
		<defs>
			<path id="SVGID_00000091712469756406265150000016550434169568646819_" d="M386.8,540.3c-8.9,0.7-38.1,4.3-50.4,10.8
				c-14.3,7.6-17.8,6.5-25.3,6.4c-10.1-0.2-27.8-10.1-38.1-18c-12.2-9.4-33.9-9.2-33.9-9.2l-1.6,4.6c0,0,15.4-1,27,8.5
				c11.6,9.5,37.6,53.6,40,53.4h3c0,0,3.8,0.9,9.1-6.3c2.9-3.9,15-18,30.5-29c13.5-9.6,29.7-16.6,40.5-16.2l-0.1-1.2
				C387.3,542.8,387.1,541.6,386.8,540.3z"/>
		</defs>
		<clipPath id="SVGID_00000049185580462486854660000008437352700007886723_">
			<use xlink:href="#SVGID_00000091712469756406265150000016550434169568646819_"  style="overflow:visible;"/>
		</clipPath>
		<g style="clip-path:url(#SVGID_00000049185580462486854660000008437352700007886723_);">
			<rect x="177.8" y="433.9" class="st2" width="229.8" height="2.4"/>
			<rect x="177.8" y="438.7" class="st2" width="229.8" height="2.4"/>
			<rect x="177.8" y="443.6" class="st2" width="229.8" height="2.4"/>
			<rect x="177.8" y="448.4" class="st2" width="229.8" height="2.4"/>
			<rect x="177.8" y="453.3" class="st2" width="229.8" height="2.4"/>
			<rect x="177.8" y="458.1" class="st2" width="229.8" height="2.4"/>
			<rect x="177.8" y="462.9" class="st2" width="229.8" height="2.4"/>
			<rect x="177.8" y="467.8" class="st2" width="229.8" height="2.4"/>
			<rect x="177.8" y="472.6" class="st2" width="229.8" height="2.4"/>
			<rect x="177.8" y="477.5" class="st2" width="229.8" height="2.4"/>
			<rect x="177.8" y="482.3" class="st2" width="229.8" height="2.4"/>
			<rect x="177.8" y="487.2" class="st2" width="229.8" height="2.4"/>
			<rect x="177.8" y="492" class="st2" width="229.8" height="2.4"/>
			<rect x="177.8" y="496.8" class="st2" width="229.8" height="2.4"/>
			<rect x="177.8" y="501.7" class="st2" width="229.8" height="2.4"/>
			<rect x="177.8" y="506.5" class="st2" width="229.8" height="2.4"/>
			<rect x="177.8" y="511.4" class="st2" width="229.8" height="2.4"/>
			<rect x="177.8" y="516.2" class="st2" width="229.8" height="2.4"/>
			<rect x="177.8" y="521.1" class="st2" width="229.8" height="2.4"/>
			<rect x="177.8" y="525.9" class="st2" width="229.8" height="2.4"/>
			<rect x="177.8" y="530.8" class="st2" width="229.8" height="2.4"/>
			<rect x="177.8" y="535.6" class="st2" width="229.8" height="2.4"/>
			<rect x="177.8" y="540.4" class="st2" width="229.8" height="2.4"/>
			<rect x="177.8" y="545.3" class="st2" width="229.8" height="2.4"/>
			<rect x="177.8" y="550.1" class="st2" width="229.8" height="2.4"/>
			<rect x="177.8" y="555" class="st2" width="229.8" height="2.4"/>
			<rect x="177.8" y="559.8" class="st2" width="229.8" height="2.4"/>
			<rect x="177.8" y="564.7" class="st2" width="229.8" height="2.4"/>
			<rect x="177.8" y="569.5" class="st2" width="229.8" height="2.4"/>
			<rect x="177.8" y="574.3" class="st2" width="229.8" height="2.4"/>
			<rect x="177.8" y="579.2" class="st2" width="229.8" height="2.4"/>
			<rect x="177.8" y="584" class="st2" width="229.8" height="2.4"/>
			<rect x="177.8" y="588.9" class="st2" width="229.8" height="2.4"/>
			<rect x="177.8" y="593.7" class="st2" width="229.8" height="2.4"/>
			<rect x="177.8" y="598.6" class="st2" width="229.8" height="2.4"/>
			<rect x="177.8" y="603.4" class="st2" width="229.8" height="2.4"/>
			<rect x="177.8" y="608.2" class="st2" width="229.8" height="2.4"/>
			<rect x="177.8" y="613.1" class="st2" width="229.8" height="2.4"/>
			<rect x="177.8" y="617.9" class="st2" width="229.8" height="2.4"/>
			<rect x="177.8" y="622.8" class="st2" width="229.8" height="2.4"/>
			<rect x="177.8" y="627.6" class="st2" width="229.8" height="2.4"/>
			
				<rect x="274.6" y="530.8" transform="matrix(-1.836970e-16 1 -1 -1.836970e-16 921.4576 142.4133)" class="st2" width="229.8" height="2.4"/>
			
				<rect x="269.8" y="530.8" transform="matrix(-1.836970e-16 1 -1 -1.836970e-16 916.6144 147.2565)" class="st2" width="229.8" height="2.4"/>
			
				<rect x="265" y="530.8" transform="matrix(-1.836970e-16 1 -1 -1.836970e-16 911.7713 152.0996)" class="st2" width="229.8" height="2.4"/>
			
				<rect x="260.1" y="530.8" transform="matrix(-1.836970e-16 1 -1 -1.836970e-16 906.9282 156.9427)" class="st2" width="229.8" height="2.4"/>
			
				<rect x="255.3" y="530.8" transform="matrix(-1.836970e-16 1 -1 -1.836970e-16 902.085 161.7859)" class="st2" width="229.8" height="2.4"/>
			
				<rect x="250.4" y="530.8" transform="matrix(-1.836970e-16 1 -1 -1.836970e-16 897.2419 166.629)" class="st2" width="229.8" height="2.4"/>
			
				<rect x="245.6" y="530.8" transform="matrix(-1.836970e-16 1 -1 -1.836970e-16 892.3987 171.4722)" class="st2" width="229.8" height="2.4"/>
			
				<rect x="240.7" y="530.8" transform="matrix(-1.836970e-16 1 -1 -1.836970e-16 887.5556 176.3153)" class="st2" width="229.8" height="2.4"/>
			
				<rect x="235.9" y="530.8" transform="matrix(-1.836970e-16 1 -1 -1.836970e-16 882.7125 181.1584)" class="st2" width="229.8" height="2.4"/>
			
				<rect x="231" y="530.8" transform="matrix(-1.836970e-16 1 -1 -1.836970e-16 877.8693 186.0016)" class="st2" width="229.8" height="2.4"/>
			
				<rect x="226.2" y="530.8" transform="matrix(-1.836970e-16 1 -1 -1.836970e-16 873.0262 190.8447)" class="st2" width="229.8" height="2.4"/>
			
				<rect x="221.4" y="530.8" transform="matrix(-1.836970e-16 1 -1 -1.836970e-16 868.183 195.6879)" class="st2" width="229.8" height="2.4"/>
			
				<rect x="216.5" y="530.8" transform="matrix(-1.836970e-16 1 -1 -1.836970e-16 863.3399 200.531)" class="st2" width="229.8" height="2.4"/>
			
				<rect x="211.7" y="530.8" transform="matrix(-1.836970e-16 1 -1 -1.836970e-16 858.4968 205.3741)" class="st2" width="229.8" height="2.4"/>
			
				<rect x="206.8" y="530.8" transform="matrix(-1.836970e-16 1 -1 -1.836970e-16 853.6536 210.2173)" class="st2" width="229.8" height="2.4"/>
			
				<rect x="202" y="530.8" transform="matrix(-1.836970e-16 1 -1 -1.836970e-16 848.8105 215.0604)" class="st2" width="229.8" height="2.4"/>
			
				<rect x="197.1" y="530.8" transform="matrix(-1.836970e-16 1 -1 -1.836970e-16 843.9673 219.9035)" class="st2" width="229.8" height="2.4"/>
			
				<rect x="192.3" y="530.8" transform="matrix(-1.836970e-16 1 -1 -1.836970e-16 839.1242 224.7467)" class="st2" width="229.8" height="2.4"/>
			
				<rect x="187.5" y="530.8" transform="matrix(-1.836970e-16 1 -1 -1.836970e-16 834.2811 229.5898)" class="st2" width="229.8" height="2.4"/>
			
				<rect x="182.6" y="530.8" transform="matrix(-1.836970e-16 1 -1 -1.836970e-16 829.4379 234.433)" class="st2" width="229.8" height="2.4"/>
			
				<rect x="177.8" y="530.8" transform="matrix(-1.836970e-16 1 -1 -1.836970e-16 824.5948 239.2761)" class="st2" width="229.8" height="2.4"/>
			
				<rect x="172.9" y="530.8" transform="matrix(-1.836970e-16 1 -1 -1.836970e-16 819.7516 244.1192)" class="st2" width="229.8" height="2.4"/>
			
				<rect x="168.1" y="530.8" transform="matrix(-1.836970e-16 1 -1 -1.836970e-16 814.9085 248.9624)" class="st2" width="229.8" height="2.4"/>
			
				<rect x="163.2" y="530.8" transform="matrix(-1.836970e-16 1 -1 -1.836970e-16 810.0654 253.8055)" class="st2" width="229.8" height="2.4"/>
			
				<rect x="158.4" y="530.8" transform="matrix(-1.836970e-16 1 -1 -1.836970e-16 805.2222 258.6487)" class="st2" width="229.8" height="2.4"/>
			
				<rect x="153.6" y="530.8" transform="matrix(-1.836970e-16 1 -1 -1.836970e-16 800.3791 263.4918)" class="st2" width="229.8" height="2.4"/>
			
				<rect x="148.7" y="530.8" transform="matrix(-1.836970e-16 1 -1 -1.836970e-16 795.5359 268.335)" class="st2" width="229.8" height="2.4"/>
			
				<rect x="143.9" y="530.8" transform="matrix(-1.836970e-16 1 -1 -1.836970e-16 790.6928 273.1781)" class="st2" width="229.8" height="2.4"/>
			
				<rect x="139" y="530.8" transform="matrix(-1.836970e-16 1 -1 -1.836970e-16 785.8497 278.0212)" class="st2" width="229.8" height="2.4"/>
			
				<rect x="134.2" y="530.8" transform="matrix(-1.836970e-16 1 -1 -1.836970e-16 781.0065 282.8643)" class="st2" width="229.8" height="2.4"/>
			
				<rect x="129.3" y="530.8" transform="matrix(-1.836970e-16 1 -1 -1.836970e-16 776.1634 287.7075)" class="st2" width="229.8" height="2.4"/>
			
				<rect x="124.5" y="530.8" transform="matrix(-1.836970e-16 1 -1 -1.836970e-16 771.3203 292.5506)" class="st2" width="229.8" height="2.4"/>
			
				<rect x="119.7" y="530.8" transform="matrix(-1.836970e-16 1 -1 -1.836970e-16 766.4771 297.3938)" class="st2" width="229.8" height="2.4"/>
			
				<rect x="114.8" y="530.8" transform="matrix(-1.836970e-16 1 -1 -1.836970e-16 761.634 302.2369)" class="st2" width="229.8" height="2.4"/>
			
				<rect x="110" y="530.8" transform="matrix(-1.836970e-16 1 -1 -1.836970e-16 756.7908 307.08)" class="st2" width="229.8" height="2.4"/>
			
				<rect x="105.1" y="530.8" transform="matrix(-1.836970e-16 1 -1 -1.836970e-16 751.9477 311.9232)" class="st2" width="229.8" height="2.4"/>
			
				<rect x="100.3" y="530.8" transform="matrix(-1.836970e-16 1 -1 -1.836970e-16 747.1046 316.7663)" class="st2" width="229.8" height="2.4"/>
			
				<rect x="95.4" y="530.8" transform="matrix(-1.836970e-16 1 -1 -1.836970e-16 742.2614 321.6095)" class="st2" width="229.8" height="2.4"/>
			
				<rect x="90.6" y="530.8" transform="matrix(-1.836970e-16 1 -1 -1.836970e-16 737.4183 326.4526)" class="st2" width="229.8" height="2.4"/>
			
				<rect x="85.8" y="530.8" transform="matrix(-1.836970e-16 1 -1 -1.836970e-16 732.5751 331.2957)" class="st2" width="229.8" height="2.4"/>
			
				<rect x="80.9" y="530.8" transform="matrix(-1.836970e-16 1 -1 -1.836970e-16 727.732 336.1389)" class="st2" width="229.8" height="2.4"/>
		</g>
	</g>
	<path d="M307.8,597.4c-0.2,0-0.4,0-0.5,0h-2.9c-1.1,0.1-3.6-3.4-12.9-17.1c-8.8-13-20.7-30.9-27.5-36.4
		c-11.3-9.2-26.5-8.4-26.6-8.4c-0.2,0-0.3-0.1-0.4-0.2c-0.1-0.1-0.1-0.3-0.1-0.5l1.6-4.6c0.1-0.2,0.3-0.3,0.5-0.3
		c0.2,0,22-0.1,34.3,9.3c9.5,7.3,27.5,17.7,37.8,17.9c0.8,0,1.5,0,2.2,0.1c6.1,0.2,10.1,0.3,22.9-6.4c12.2-6.4,41.3-10.1,50.6-10.9
		c0.3,0,0.5,0.2,0.5,0.4c0.2,1.2,0.4,2.5,0.6,3.8l0.1,1.3c0,0.1,0,0.3-0.1,0.4c-0.1,0.1-0.2,0.2-0.4,0.1c-10.2-0.4-26,5.9-40.2,16.1
		c-15.8,11.3-28,25.7-30.3,28.9C312.6,596.7,309.1,597.4,307.8,597.4z M307.4,596.3c0,0,0.1,0,0.1,0c0,0,3.6,0.7,8.6-6.1
		c2.4-3.2,14.6-17.7,30.6-29.1c14.2-10.2,29.9-16.5,40.3-16.3l0-0.7c-0.2-1.1-0.3-2.2-0.5-3.3c-9.7,0.8-37.9,4.5-49.7,10.7
		c-13,6.9-17.1,6.7-23.4,6.5c-0.7,0-1.4,0-2.2-0.1c-10.5-0.2-28.8-10.7-38.4-18.1c-11.1-8.5-30.5-9.1-33.3-9.1l-1.3,3.6
		c3.2-0.1,16.5,0.3,26.6,8.7c6.8,5.6,18.4,22.8,27.7,36.6c5.4,8,11,16.3,12.1,16.7L307.4,596.3z"/>
</g>
</svg>
