<?xml version="1.0" encoding="utf-8"?>
<!-- Generator: Adobe Illustrator 27.0.0, SVG Export Plug-In . SVG Version: 6.00 Build 0)  -->
<svg version="1.1" id="Layer_1" xmlns="http://www.w3.org/2000/svg" xmlns:xlink="http://www.w3.org/1999/xlink" x="0px" y="0px"
	 viewBox="0 0 600 1200" style="enable-background:new 0 0 600 1200;" xml:space="preserve">
<style type="text/css">
	.st0{fill:#F46E0B;}
	.st1{fill:#701E13;}
</style>
<g>
	<g>
		<g>
			<path class="st0" d="M384.1,538c-3.1,0.5-1,5.8-1,5.8s0.6-2.6,2.2-2.5s4.3,10,4.9,14.1c0.3,2.2-1.1,2-2.6,1.4
				c0.3,0.7,0.5,1.4,0.8,2.1c1.5,0.3,3.1,0.3,3.5-0.9C395.2,549.5,387.2,537.4,384.1,538z"/>
			<path d="M389.7,559.6c-0.5,0-1,0-1.5-0.1c-0.2,0-0.3-0.2-0.4-0.3c-0.3-0.7-0.5-1.4-0.8-2.1c-0.1-0.2,0-0.4,0.1-0.5
				c0.1-0.1,0.4-0.2,0.5-0.1c1.3,0.5,1.7,0.4,1.8,0.3c0.2-0.1,0.2-0.5,0.2-1.1c-0.7-4.6-3.4-13.3-4.5-13.7c-1.1,0-1.6,2.1-1.6,2.1
				c-0.1,0.2-0.2,0.4-0.5,0.4c-0.2,0-0.4-0.1-0.5-0.3c-0.1-0.1-1.3-3.5-0.3-5.3c0.4-0.6,0.9-1,1.7-1.2l0,0c1.6-0.3,3.4,1.6,4.3,2.7
				c3,3.7,6.6,11.5,4,18C391.9,559.1,391.1,559.6,389.7,559.6z M388.7,558.5c1,0.1,2.4,0.2,2.7-0.6c2.1-5.4-0.4-12.8-3.9-17
				c-1.6-1.9-2.8-2.5-3.3-2.4l0,0c-0.5,0.1-0.8,0.3-1,0.7c-0.4,0.8-0.3,2.1-0.1,3.1c0.4-0.8,1.1-1.5,2.1-1.5
				c2.3,0.1,5,11.7,5.4,14.5c0.1,1,0,1.7-0.5,2.1c-0.4,0.3-1,0.4-1.7,0.2C388.5,557.9,388.6,558.2,388.7,558.5z"/>
		</g>
		<g>
			<path class="st0" d="M386.9,543.8c-9.2,0.9-33.7,7-46,13.1c-14.5,7.2-24.3,6.6-31.7,5.4c-10.2-1.7-35.7-13.5-45.3-22.3
				c-11.4-10.4-26.3-8.4-26.3-8.4l-1.4,4.7c0,0,11.3-2.1,22.9,7.4c11.6,9.5,43.8,53.6,46.3,53.4h3c0,0,3.8,0.9,9.1-6.3
				c2.8-3.8,15.8-15.2,31.3-25.3c14.3-9.4,31-17.6,39.7-17.6l0,0C387.9,546.4,387.4,545,386.9,543.8z"/>
			<path d="M308.7,597.7c-0.2,0-0.4,0-0.5,0h-2.9c-1.2,0.1-4.7-4.1-17.1-19.6c-10.3-12.8-23.1-28.8-29.4-33.9
				c-11.3-9.2-22.4-7.3-22.5-7.3c-0.2,0-0.3,0-0.5-0.2c-0.1-0.1-0.2-0.3-0.1-0.5l1.4-4.7c0.1-0.2,0.2-0.3,0.4-0.4
				c0.2,0,15.3-1.9,26.7,8.6c9.4,8.5,34.8,20.5,45,22.2c8.2,1.3,17.6,1.6,31.4-5.3c12-6,36.6-12.3,46.2-13.2c0.2,0,0.4,0.1,0.5,0.3
				c0.5,1.1,1,2.6,1.5,4.2c0,0.2,0,0.3-0.1,0.4c-0.1,0.1-0.2,0.2-0.4,0.2c-7.6,0-23.1,6.9-39.4,17.5c-15,9.8-28.3,21.3-31.2,25.2
				C313.4,597.1,310,597.7,308.7,597.7z M308.2,596.7c0,0,0.1,0,0.1,0c0,0,3.6,0.7,8.6-6.1c3-4,16.3-15.6,31.5-25.4
				c12.2-8,29.6-17.2,39.3-17.6c-0.4-1.2-0.7-2.2-1.1-3.1c-9.8,1-33.7,7.2-45.5,13.1c-14.1,7-23.7,6.8-32.1,5.4
				c-10.6-1.7-35.9-13.6-45.6-22.4c-10.2-9.3-23.4-8.5-25.6-8.3l-1.1,3.7c2.8-0.3,12.7-0.5,22.5,7.6c6.4,5.3,19.3,21.2,29.6,34.1
				c7.4,9.3,15.1,18.8,16.4,19.2L308.2,596.7z"/>
		</g>
		<g>
			<path class="st0" d="M390,581c-3-7.9-0.4-14.1-1.7-23.8c-1.3-9.7-6.1-11.3-6.1-11.3l0.1,2.5c2.7,3.1,4.6,11.1,3.2,19.3
				c-1.3,8.2,2.4,16.4,2.4,16.4c1.1,4.5-4.3,42.1-4.3,42.1h2.5C386.2,626.3,393.3,589.7,390,581z"/>
			<path d="M386.2,626.8h-2.5c-0.1,0-0.3-0.1-0.4-0.2c-0.1-0.1-0.1-0.3-0.1-0.4c0.1-0.4,5.4-37.5,4.3-41.9
				c-0.1-0.2-3.8-8.3-2.4-16.6c1.3-8.1-0.5-16-3.1-18.9c-0.1-0.1-0.1-0.2-0.1-0.3l-0.1-2.5c0-0.2,0.1-0.3,0.2-0.4
				c0.1-0.1,0.3-0.1,0.5-0.1c0.2,0.1,5.1,1.8,6.4,11.7c0.5,4,0.4,7.4,0.3,10.7c-0.2,4.5-0.3,8.5,1.4,13c0,0,0,0,0,0
				c3.3,8.8-3.5,44-3.8,45.5C386.6,626.6,386.4,626.8,386.2,626.8z M384.2,625.8h1.6c0.8-4,6.8-36.6,3.8-44.6
				c-1.8-4.7-1.7-8.9-1.5-13.4c0.1-3.2,0.3-6.6-0.3-10.5c-0.9-7-3.7-9.6-5-10.5l0.1,1.5c2.6,3.1,4.6,11,3.2,19.6
				c-1.3,8,2.3,16,2.4,16.1C389.4,588.4,384.9,620.9,384.2,625.8z"/>
		</g>
		<g>
			<path class="st1" d="M389.6,614.5l-3.6-0.3c-0.5,0-0.8-0.5-0.8-0.9l0.1-0.8c0-0.5,0.5-0.8,0.9-0.8l3.6,0.3c0.5,0,0.8,0.5,0.8,0.9
				l-0.1,0.8C390.5,614.1,390.1,614.5,389.6,614.5z"/>
			<path d="M389.7,615c0,0-0.1,0-0.1,0l0,0l-3.6-0.3c-0.8-0.1-1.3-0.7-1.3-1.5l0.1-0.8c0-0.4,0.2-0.7,0.5-0.9c0.3-0.2,0.6-0.4,1-0.3
				l3.6,0.3c0.8,0.1,1.3,0.7,1.3,1.5l-0.1,0.8C391,614.4,390.4,615,389.7,615z M389.7,614c0.1,0,0.2,0,0.3-0.1
				c0.1-0.1,0.1-0.2,0.1-0.3l0.1-0.8c0-0.2-0.1-0.4-0.4-0.4l-3.6-0.3c-0.1,0-0.2,0-0.3,0.1c-0.1,0.1-0.1,0.2-0.1,0.3l-0.1,0.8
				c0,0.2,0.1,0.4,0.4,0.4L389.7,614z"/>
		</g>
		<g>
			<path class="st1" d="M389.4,617l-3.6-0.3c-0.5,0-0.8-0.5-0.8-0.9l0.1-0.8c0-0.5,0.5-0.8,0.9-0.8l3.6,0.3c0.5,0,0.8,0.5,0.8,0.9
				l-0.1,0.8C390.3,616.7,389.9,617.1,389.4,617z"/>
			<path d="M389.5,617.5c0,0-0.1,0-0.1,0l-3.6-0.3c-0.8-0.1-1.3-0.7-1.3-1.5l0.1-0.8c0.1-0.8,0.7-1.3,1.5-1.3l3.6,0.3
				c0.4,0,0.7,0.2,0.9,0.5s0.4,0.6,0.3,1l-0.1,0.8c0,0.4-0.2,0.7-0.5,0.9C390.1,617.4,389.8,617.5,389.5,617.5z M386,614.7
				c-0.2,0-0.4,0.2-0.4,0.4l-0.1,0.8c0,0.2,0.1,0.4,0.4,0.4l3.6,0.3c0.1,0,0.2,0,0.3-0.1c0.1-0.1,0.1-0.2,0.1-0.3l0.1-0.8
				c0-0.2-0.1-0.4-0.4-0.4L386,614.7C386,614.7,386,614.7,386,614.7z"/>
		</g>
		<g>
			<g>
				<g>
					<path class="st0" d="M219.2,551c-4.7,9.8-2,15.8,1.3,15.7c3.3-0.1,5.7-1.9,5.7-1.9l8.4-29.3C234.6,535.4,224,541.1,219.2,551z
						 M226.4,562.1c-1,0.8-4.9,2.9-6.4,0.4s0-6.3,3.2-12.5c3.2-6.2,7.2-8.3,7.2-8.3l1.6-0.7l-0.2,2.4L226.4,562.1z"/>
					<path d="M220.4,567.1c-1.2,0-2.3-0.7-3.1-1.8c-1.6-2.4-2-7.5,1.4-14.6l0,0c4.8-9.9,15.5-15.7,15.7-15.8
						c0.2-0.1,0.4-0.1,0.5,0.1c0.2,0.1,0.2,0.3,0.2,0.5l-8.4,29.3c0,0.1-0.1,0.2-0.2,0.3c-0.1,0.1-2.6,1.9-6,2
						C220.5,567.1,220.5,567.1,220.4,567.1z M219.7,551.2L219.7,551.2c-3.2,6.7-2.9,11.4-1.4,13.6c0.6,0.9,1.4,1.4,2.3,1.4
						c2.7-0.1,4.8-1.4,5.3-1.8l0.5-1.6c-1.1,0.7-3.1,1.6-4.7,1.3c-0.9-0.2-1.6-0.6-2-1.4c-1.6-2.7-0.1-6.7,3.2-13
						c3.3-6.2,7.3-8.5,7.4-8.6l1.7-0.7c0.2-0.1,0.3-0.1,0.5,0c0.1,0.1,0.2,0.2,0.2,0.4l1.3-4.4C231,538.2,223.4,543.4,219.7,551.2z
						 M231.5,541.7l-0.9,0.4c0,0-3.9,2.2-7,8.1c-3.1,5.8-4.6,9.7-3.3,12c0.3,0.5,0.7,0.8,1.3,0.9c1.5,0.2,3.5-0.8,4.2-1.3l5.5-18.6
						L231.5,541.7z M226.4,562.1L226.4,562.1L226.4,562.1z"/>
				</g>
			</g>
			<g>
				<g>
					<path class="st0" d="M249.5,514.5c-6.1,1.7-10.9,15.1-10.9,15.1l1.9,2.7c0,0,12.6-7.3,15.3-11.7
						C258.5,516.2,255.6,512.8,249.5,514.5z M249.8,521.4c-2.4,2.7-7.2,5.8-7.2,5.8v-1.1c0,0,6-9.1,8.2-9.5
						C253,516.2,252.2,518.7,249.8,521.4z"/>
					<path d="M240.5,532.7c-0.2,0-0.3-0.1-0.4-0.2l-1.9-2.7c-0.1-0.1-0.1-0.3-0.1-0.5c0.2-0.6,5-13.6,11.3-15.4l0,0
						c3.2-0.9,5.9-0.5,7.2,1.2c1.1,1.4,1,3.5-0.3,5.6c-2.7,4.4-15,11.5-15.5,11.8C240.7,532.7,240.6,532.7,240.5,532.7z
						 M239.1,529.5l1.5,2.1c2.1-1.3,12.4-7.5,14.7-11.3c1.1-1.8,1.2-3.4,0.4-4.5c-1-1.3-3.3-1.7-6.1-0.9l0,0
						C244.3,516.5,239.8,527.7,239.1,529.5z M242.6,527.7c-0.1,0-0.2,0-0.2-0.1c-0.2-0.1-0.3-0.3-0.3-0.4v-1.1c0-0.1,0-0.2,0.1-0.3
						c1-1.5,6.2-9.3,8.5-9.8c1.1-0.2,1.5,0.2,1.7,0.5c0.7,1.2-0.7,3.4-2.2,5.1c-2.4,2.7-7.1,5.8-7.3,5.9
						C242.8,527.7,242.7,527.7,242.6,527.7z M251.2,517.1c-0.1,0-0.2,0-0.4,0c-1.4,0.3-5.5,5.7-7.8,9.1c1.5-1,4.6-3.3,6.3-5.2v0
						c1.9-2.1,2.3-3.6,2.1-3.9C251.5,517.1,251.4,517.1,251.2,517.1z"/>
				</g>
			</g>
			<g>
				<path class="st0" d="M238.5,529.6c0,0-3.2-0.6-3.5,2.7c-0.2,3.2-4.5,27.1-3.6,45.4c1,18.3,1.4,43,1.4,43h3.1c0,0-1-42.7-1-49.3
					s2.1-32.1,2.6-34.4s3-4.7,3-4.7L238.5,529.6z"/>
				<path d="M236,621.1h-3.1c-0.3,0-0.5-0.2-0.5-0.5c0-0.2-0.4-24.9-1.4-43c-0.8-14.7,1.8-32.7,3-41.3c0.3-2,0.5-3.5,0.5-4.1
					c0.1-1.1,0.5-1.9,1.2-2.5c1.2-0.9,2.8-0.7,2.9-0.6c0.1,0,0.2,0.1,0.3,0.2l1.9,2.7c0.1,0.2,0.1,0.5-0.1,0.7c0,0-2.4,2.4-2.8,4.4
					c-0.5,2.3-2.6,27.6-2.6,34.3c0,6.6,1,48.9,1,49.3c0,0.1,0,0.3-0.1,0.4C236.2,621.1,236.1,621.1,236,621.1z M233.4,620.1h2.1
					c-0.1-4.9-1-42.6-1-48.8c-0.1-6.7,2.1-32.2,2.6-34.5c0.4-1.9,2.1-3.9,2.8-4.7l-1.6-2.2c-0.4,0-1.3,0-1.9,0.5
					c-0.5,0.4-0.7,1-0.8,1.8c0,0.7-0.3,2.1-0.6,4.2c-1.2,8.6-3.8,26.5-3,41.1C232.9,594.3,233.3,616.5,233.4,620.1z"/>
			</g>
			<g>
				<path class="st0" d="M234,540.4c0,0-4.1,3.8-5.5,11.8c-1.5,8-5.1,22-5.1,27s-2.6,25.8-3,30.6s-0.4,4.9-0.4,4.9h3.1
					c0,0,0.7-8.5,1.4-13.4s1-16.9,1.2-22.5c0.2-5.6,4.3-22.6,4.7-25.2c0.5-2.6,2.4-4.1,2.4-4.1L234,540.4z"/>
				<path d="M223,615.2h-3.1c-0.1,0-0.3-0.1-0.4-0.2c-0.1-0.1-0.1-0.2-0.1-0.4l0.4-4.9c0.1-1.7,0.5-5.3,1-9.4c0.9-8,2-18,2-21.2
					c0-3.3,1.6-10.4,3.1-17.2c0.8-3.7,1.6-7.1,2.1-9.9c1.5-8.1,5.5-11.9,5.7-12.1c0.2-0.1,0.4-0.2,0.6-0.1s0.3,0.3,0.3,0.5l-1.2,9.2
					c0,0.1-0.1,0.2-0.2,0.3c0,0-1.8,1.5-2.2,3.8c-0.1,0.6-0.4,1.8-0.7,3.4c-1.3,6.1-3.9,17.3-4,21.6l0,1.3
					c-0.2,5.8-0.5,16.7-1.2,21.3c-0.7,4.8-1.4,13.3-1.4,13.3C223.5,615,223.3,615.2,223,615.2z M220.5,614.2h2.1
					c0.2-1.8,0.8-8.8,1.4-12.9c0.7-4.5,1-15.3,1.2-21.1l0-1.3c0.1-4.4,2.7-15.8,4-21.8c0.4-1.6,0.6-2.9,0.7-3.4
					c0.4-2.3,1.9-3.8,2.4-4.2l0.9-7.3c-1.3,1.7-3.4,5.1-4.3,10.3c-0.5,2.8-1.3,6.3-2.1,9.9c-1.5,6.8-3,13.8-3,17
					c0,3.3-1.1,13.3-2,21.3c-0.5,4.1-0.9,7.7-1,9.4L220.5,614.2z"/>
			</g>
		</g>
		<g>
			<path class="st1" d="M235.7,606.6l-3.6,0.1c-0.5,0-0.9-0.4-0.9-0.8l0-0.8c0-0.5,0.4-0.9,0.8-0.9l3.6-0.1c0.5,0,0.9,0.4,0.9,0.8
				l0,0.8C236.6,606.2,236.2,606.6,235.7,606.6z"/>
			<path d="M232.1,607.2c-0.3,0-0.7-0.1-0.9-0.4c-0.3-0.3-0.4-0.6-0.4-1l0-0.8c0-0.4,0.1-0.7,0.4-1s0.6-0.4,1-0.4l3.6-0.1
				c0.8,0,1.4,0.6,1.4,1.3l0,0.8c0,0.4-0.1,0.7-0.4,1c-0.3,0.3-0.6,0.4-1,0.4L232.1,607.2C232.2,607.2,232.1,607.2,232.1,607.2z
				 M235.7,604.5C235.7,604.5,235.7,604.5,235.7,604.5l-3.6,0.1c-0.1,0-0.2,0-0.3,0.1s-0.1,0.2-0.1,0.3l0,0.8c0,0.1,0,0.2,0.1,0.3
				c0.1,0.1,0.2,0.1,0.3,0.1l3.6-0.1h0c0.1,0,0.2,0,0.3-0.1s0.1-0.2,0.1-0.3l0-0.8C236.1,604.7,235.9,604.5,235.7,604.5z"/>
		</g>
		<g>
			<path class="st1" d="M235.8,609.2l-3.6,0.1c-0.5,0-0.9-0.4-0.9-0.8l0-0.8c0-0.5,0.4-0.9,0.8-0.9l3.6-0.1c0.5,0,0.9,0.4,0.9,0.8
				l0,0.8C236.7,608.8,236.3,609.2,235.8,609.2z"/>
			<path d="M232.2,609.8c-0.7,0-1.4-0.6-1.4-1.3l0-0.8c0-0.8,0.6-1.4,1.3-1.4l3.6-0.1c0.8,0,1.4,0.6,1.4,1.3l0,0.8
				c0,0.8-0.6,1.4-1.3,1.4h0L232.2,609.8C232.2,609.8,232.2,609.8,232.2,609.8z M235.8,609.2L235.8,609.2L235.8,609.2z M235.8,607.1
				C235.8,607.1,235.8,607.1,235.8,607.1l-3.6,0.1c-0.2,0-0.4,0.2-0.4,0.4l0,0.8c0,0.2,0.2,0.4,0.4,0.4l3.6-0.1
				c0.2,0,0.4-0.2,0.4-0.4l0-0.8C236.1,607.3,236,607.1,235.8,607.1z"/>
		</g>
		<g>
			<path class="st1" d="M224.5,605.5l-3.6-0.3c-0.5,0-0.8-0.5-0.8-0.9l0.1-0.8c0-0.5,0.5-0.8,0.9-0.8l3.6,0.3c0.5,0,0.8,0.5,0.8,0.9
				l-0.1,0.8C225.4,605.2,225,605.5,224.5,605.5z"/>
			<path d="M224.6,606c0,0-0.1,0-0.1,0l0,0l-3.6-0.3c-0.8-0.1-1.3-0.7-1.3-1.5l0.1-0.8c0-0.4,0.2-0.7,0.5-0.9c0.3-0.2,0.6-0.4,1-0.3
				l3.6,0.3c0.8,0.1,1.3,0.7,1.3,1.5l-0.1,0.8C225.9,605.5,225.3,606,224.6,606z M224.6,605c0.2,0,0.4-0.1,0.4-0.4l0.1-0.8
				c0-0.2-0.1-0.4-0.4-0.4l-3.6-0.3c-0.1,0-0.2,0-0.3,0.1c-0.1,0.1-0.1,0.2-0.1,0.3l-0.1,0.8c0,0.2,0.1,0.4,0.4,0.4L224.6,605z"/>
		</g>
		<g>
			<path class="st1" d="M224.3,608.1l-3.6-0.3c-0.5,0-0.8-0.5-0.8-0.9l0.1-0.8c0-0.5,0.5-0.8,0.9-0.8l3.6,0.3c0.5,0,0.8,0.5,0.8,0.9
				l-0.1,0.8C225.2,607.8,224.8,608.1,224.3,608.1z"/>
			<path d="M224.4,608.6c0,0-0.1,0-0.1,0l0,0l-3.6-0.3c-0.4,0-0.7-0.2-0.9-0.5s-0.4-0.6-0.3-1l0.1-0.8c0-0.4,0.2-0.7,0.5-0.9
				c0.3-0.2,0.6-0.3,1-0.3l3.6,0.3c0.4,0,0.7,0.2,0.9,0.5s0.4,0.6,0.3,1l-0.1,0.8c0,0.4-0.2,0.7-0.5,0.9
				C225,608.5,224.7,608.6,224.4,608.6z M224.4,607.6c0.1,0,0.2,0,0.3-0.1c0.1-0.1,0.1-0.2,0.1-0.3l0.1-0.8c0-0.1,0-0.2-0.1-0.3
				s-0.2-0.1-0.3-0.1l-3.6-0.3c-0.1,0-0.2,0-0.3,0.1c-0.1,0.1-0.1,0.2-0.1,0.3l-0.1,0.8c0,0.1,0,0.2,0.1,0.3s0.2,0.1,0.3,0.1
				L224.4,607.6z"/>
		</g>
		<g>
			<g>
				<path class="st0" d="M383.3,544.1c0,0-6.5-11.5-12-0.6c-5.5,10.8,0.5,23.3,4.3,21.9c3.8-1.4,7.9-16.9,7.9-16.9L383.3,544.1z
					 M377,557.8c-1.7,3.6-2.9,4.3-4.3-0.9c-1.4-5.3,0.5-11.3,2.8-13.7c2.2-2.5,5.1,1.3,5.1,1.3s0.5,2.1,0.6,3.3
					C381.3,548.9,378.7,554.2,377,557.8z"/>
				<path d="M375,566c-0.9,0-1.9-0.6-2.9-1.6c-3.1-3.5-5.6-12.6-1.3-21.1c1.6-3.2,3.6-4.9,5.7-4.9c3.9-0.1,7.1,5.3,7.2,5.5
					c0,0.1,0.1,0.1,0.1,0.2l0.2,4.4c0,0,0,0.1,0,0.1c-0.4,1.6-4.2,15.9-8.2,17.3C375.5,566,375.3,566,375,566z M376.7,539.3
					C376.6,539.3,376.6,539.3,376.7,539.3c-1.8,0-3.5,1.5-4.9,4.4c-3.9,7.7-1.9,16.6,1.1,20c0.5,0.6,1.6,1.6,2.5,1.2
					c2.9-1,6.4-12.2,7.6-16.5l-0.1-4.2C382.4,543.5,379.7,539.3,376.7,539.3z M374.7,561.2c0,0-0.1,0-0.1,0c-1-0.1-1.7-1.3-2.4-4.2
					c-1.4-5.3,0.4-11.5,2.9-14.2c0.6-0.7,1.4-1,2.2-1c1.9,0.1,3.6,2.2,3.7,2.3c0,0.1,0.1,0.1,0.1,0.2c0,0.1,0.5,2.2,0.6,3.4
					c0.1,1.1-1.3,4.1-3.4,8.6l-0.8,1.7C376.5,559.9,375.7,561.2,374.7,561.2z M377.2,542.8c-0.5,0-1,0.2-1.4,0.7
					c-2,2.2-4,8-2.6,13.2c0.8,3.2,1.4,3.4,1.6,3.4c0.1,0,0.6-0.1,1.8-2.6l0,0l0.8-1.7c1.4-2.9,3.4-7.2,3.3-8.1
					c-0.1-1-0.5-2.7-0.6-3.2C379.8,544.3,378.5,542.9,377.2,542.8C377.2,542.8,377.2,542.8,377.2,542.8z"/>
			</g>
		</g>
	</g>
</g>
</svg>
