<?xml version="1.0" encoding="utf-8"?>
<!-- Generator: Adobe Illustrator 27.5.0, SVG Export Plug-In . SVG Version: 6.00 Build 0)  -->
<svg version="1.1" id="Layer_1" xmlns="http://www.w3.org/2000/svg" xmlns:xlink="http://www.w3.org/1999/xlink" x="0px" y="0px"
	 viewBox="0 0 600 1200" style="enable-background:new 0 0 600 1200;" xml:space="preserve">
<style type="text/css">
	.st0{fill:#F9BA89;}
	.st1{fill:#E8A77C;}
	.st2{fill:none;}
	.st3{fill:#D4A444;}
	.st4{fill:#EE8AD3;}
	.st5{fill:#F2B1E6;}
	.st6{fill:#BF52A8;}
	.st7{opacity:0.7;}
</style>
<g>
	<path class="st0" d="M351.4,272.2c-0.2,0-0.3,0-0.5,0c-0.3-2.8-0.7-5.5-0.7-7.4c0.3-13.2-2.2-22-3.9-25.4
		c-1.3-2.7-14.5-13.8-26.4-14.5c-13.1-0.8-25.2,3.9-28.1,8c-2.2,3.2-6.4,7.2-9.5,16.3c-1.6,4.7-3.2,11.5-2.8,19.6
		c0.2,1.7,0.4,3.3,0.6,4.9v-0.2c0,0-1.1-1.6-3.8-1.3c-2.8,0.3-5.3,3.6-2.3,10.1s5.9,12.8,10.6,10.7v-0.2c2.6,7.3,6.2,12.9,10.9,17.5
		c10.5,10.2,13.6,10.7,18.3,10.7c4.7,0,7.8-0.5,18.3-10.7c4.6-4.4,8.1-9.9,10.7-16.9c0.1-0.1,0.2-0.3,0.4-0.4
		c4.6,2,7.6-4.2,10.6-10.7C356.6,275.7,354.2,272.5,351.4,272.2z"/>
	<path class="st0" d="M408.3,598.7c-1.9-8.4-2-13.4-2.1-17c-0.1-2.4-0.1-4.4-0.6-6.5l-0.1-0.5c-1.4-5.6-3.5-13.9-3.8-43.9
		c-0.2-26.8-4.5-46.3-6.6-55.7l-0.4-1.9c-0.9-4.3-0.8-27.8-0.6-52.8c0.1-23.3,0.3-47.5-0.5-56c-1.1-11.8-19-16.1-34.8-19.9
		c-3.8-0.9-8.2-2-11.9-3.1c-2.8-0.9-5-1.7-6.6-2.5c-5.5-2.9-9.2-8.3-10.6-15.7c-0.7-3.9-0.7-7.3-0.6-9l0.1-1.4l-1.1,1
		c-7.5,6.7-10.4,7-14.4,7s-6.8-0.3-14.3-7l-1.1-1l0.1,1.4c0.1,1.8,0.2,5.5-0.6,9.6c-0.3,1.8-0.8,3.5-1.4,5.2v0.1
		c-0.7,1.8-1.5,3.5-2.5,4.9l-0.2,0.2c-1.8,2.6-4,4.5-6.6,5.9c-3.2,1.7-7.8,3.5-12.6,5.4c-15.1,6-35.9,14.2-37.1,27.4
		c-0.6,7-1.3,19.1-2,31.8c-1,18.7-2.1,38-3.2,43c-0.6,2.9-2.2,6.9-4.1,12.2c-3.9,10.4-9.3,24.6-13,43.2c-2.3,11.7-4.9,25.9-7.2,38.4
		c-3.3,18.1-6.1,33.7-7.5,38.2c-2.5,7.6-9,20.9-11.4,23.8c-2.4,2.9-1.3,5.8,0,8.3c0,0.2-0.2,15.8,0.3,17.8
		c0.7,2.8,12.2,12.5,14.1,12.5c0.4,0,0.7-0.2,0.9-0.7c0.8-1.9-0.5-7-1.2-7.8c-0.3-0.3-1.2-1.2-2.6-2.7l3.1-0.3l-0.1-0.5
		c0.2,0.9,0.8,1.6,1.7,1.8c1.3,0.3,2.6-0.6,3.5-2.3l0,0c0,0,6.9-0.3,9.5-1.1s-0.7-3.8-3-4c-2.4-0.2-5.2,0-5.2,0l0,0
		c0.1-0.9,0.2-1.8,0.2-2.8c0,0,5.4-4.9,7.4-7s-1.4-3.2-2.8-2.4c-1.5,0.8-4.5,2.8-4.5,2.8l0,0c0-1.1,0-2.1,0-2.8
		c0.1-1.3,0.8-3,1.8-5.2c1.7-3.7,3.7-8.4,3.6-13.6c0-2.1-0.2-4.3-0.4-6.6c-0.5-6.8-1.1-13.9,1.6-19.9c1.4-3.2,4.1-8.8,7.3-15.3
		c4.8-9.8,10.7-22,15.1-32c2-4.6,4.1-9.1,6-13.2c5.1-11.2,9.6-20.9,10.5-25.6c0.6-3.1,0.6-8.4,0.6-13.6c0-5.6,0-10.9,0.7-13.1
		c1.3-4,9.1-30.1,9.9-33.1l0.1-0.2l-0.1-0.2c-0.5-1.3-0.9-2.7-1.2-4.1c-1.3-5.5-1.3-10.3-1.3-11.3v-0.2l0,0c0,0.2-0.3,16.2,7.6,23.8
		l-0.8-0.7l0.3,1.7c1,6.3,4.3,27.3,3.4,32.5c-0.7,4.3-6.6,15.6-17.9,34.6c-5.2,8.6-17.6,38.1-21.1,55.6
		c-3.4,17.5,2.8,57.7,11.9,76.9c9,19,23.7,68.5,23.7,83c0,2.5,0,5.4,0,8.6v0.5c-0.1,15.9-0.3,37.6,1.4,49.8
		c2,14.8,11.3,56.2,14.9,70.5c1,4.2,3,11.3,5.2,19.4c5,18.1,11.2,40.7,11.4,45.6c0.1,2.7-0.1,5.6-0.4,8.3c-0.4,4.5-0.9,9.2,0.4,13.3
		c2.1,6.9,1.8,25.7,0,35.2c-1.7,9.5,0.1,21.1,1.4,23.4c0.8,1.5,2.8,2.1,4.3,1.9c1.3-0.2,2.2-0.8,2.4-1.9v0.1
		c0.1,0.4,0.5,1.3,1.4,1.8c0.8,0.5,1.9,0.5,3.2,0c0.2-0.1,0.4-0.2,0.6-0.3l-0.5,0.4l0.8,0.4c1,0.5,2.4,1,3.6,0.6
		c0.5-0.1,0.8-0.4,1.2-0.7l0,0l0.2,0.3c0.3,0.6,1.4,1.9,3.8,1.2c1.6-0.5,2.1-2.1,2.1-3.7l-5.4-81.3c-1.1-5.1-2.2-11.3-2.7-16.8
		c0-0.1,0-0.1,0-0.2c0-0.3-0.1-0.7-0.1-1c0-0.1,0-0.2,0-0.2c0-0.3,0-0.6-0.1-0.9c0-0.1,0-0.2,0-0.3c0-0.3,0-0.6,0-0.9
		c0-0.1,0-0.2,0-0.3c0-0.4,0-0.7,0-1.1c0-0.3,0-0.6,0-1c0-0.1,0-0.2,0-0.2c0-0.8,0-1.7,0-2.6l0,0c-0.1-6.3-0.3-16.6-0.5-27.2
		l-0.9-54.2v-0.4c0.6,2.3,10.6,39.9,10.9,48.6l0.1,2.2c0.4,9.9,1.2,28.4,0.1,36.3c-1,7.4,1.6,13.1,4.1,18.7c0.8,1.8,1.7,3.7,2.4,5.6
		c1.2,3.4,3,12.4,4.7,36.7v0.4c0.4,5.2,9.5,15.7,12.1,17.4c1.9,1.3,5.5,2,8.2,1.1c1.4-0.5,2.4-1.4,2.8-2.8c0.3-1,0.2-2.1,0-3.1
		l0.3,0.1c2.3,0.6,4,0.3,5-0.7c1.4-1.4,0.9-4,0.7-5l-0.2-0.4c1.1,0.2,2.2-0.1,2.9-0.7c1.3-1.1,0.4-3.6,0.1-4.4l-0.1-0.3
		c1,0.1,1.9-0.2,2.4-0.7c0.9-1,0.8-2.3,0.7-3l-0.1-0.4h-0.3c0.5,0,1-0.1,1.4-0.3c0.9-0.6,1.5-2.3,0-5.1c-0.7-1.3-1.6-3.5-2.8-6.3
		c-1.9-4.5-4.5-10.7-7.7-16.4c-1.5-2.7-14.8-27-15.2-34.9c-0.4-7.6,0.1-25.5,2.4-40c2.4-15.7,8.1-71,8.1-87.8
		c0-12.1-4.1-19.4-6.5-23.8c-0.9-1.7-1.6-2.9-1.6-3.7v-20c0-3.5,1.2-11.2,3-21.9c1.9-11.9,4.6-28.3,6.6-46.2
		c4-35.1,3.9-77.4,3.5-90.8c-0.5-18.5-5.1-42.7-8.6-51c-3.8-9,0.3-30,4.5-41.1c1-2.7,2-6,2.8-9.3l-0.1,0.5l1.4-1.1
		c0.2,0.9,4.9,22.9,5.2,32c0.1,3.5-0.2,7.2-0.5,11.1c-0.5,6.5-1,13.2,0.5,19c0.6,2.5,2,7.4,3.8,13.6c5,17.4,11.8,41.2,11.8,45.7
		c0,0.9,0,1.8,0,2.8c0.1,5.6,0.2,12.6-2.4,17.9c-3.2,6.5-2.9,15.6-1.4,21.2c1.5,5.3,1.3,13.3,1.2,16.8c0,0.5,0,0.9,0,1.2
		c0,0.8,0.8,1.3,1.9,1.4c1.3,0,3.6-0.9,3.7-4.6c0.1-4.9,0.9-16.5,1.2-20V603c0.2,0.3,3.7,8.5,3.9,12v0.3c0.2,3.9,0.6,13-0.9,15.5
		c0,0-8,4.2-9.5,7.8c-1.6,3.6,3.2,1.9,3.2,1.9l0,0l0,0c-0.8,1.4-0.9,4,0.1,4.8c0.4,0.3,1.3,0.6,3.1-1.1c2.5-2.4,6.5-7.3,9.2-11
		c-0.1,0.1-0.1,0.1-0.2,0.2l-1.6,2.2l2.4-1.4c5.5-3.1,6.5-5,6.5-7.9c0-0.4,0-1.1-0.1-2V624l-0.3-0.2l0.3-0.2v-0.3
		c-0.3-4.5-0.9-12.4-1.2-16.8c0.3,3.6,0.9,11.4,1.2,16.2l0.2,0.8l0.8-0.4c1.4-0.8,1.6-1.1,1.9-4.3
		C411.7,615.2,411.5,612.7,408.3,598.7z M314.6,768.3c-2.4-7.5-4-17.1-3.4-33.8c0.2-6.2,0.2-12,0-17.3l-1.3-19.1
		c-0.5-4.8-1.1-9.4-1.7-14c-2-14.7-7-42.7-7-52.1s1.2-36.9,1.2-36.9s0.2,0.2,3,0c-1.8,30.5,5.2,46.6,5.8,52.4
		c0.6,5.8-0.7,42.9-1.2,50.6l0,0c0.6,5.9,1.1,12.2,1.3,19.1v-0.8c0,0,7.2,21.2,6.5,30.3c-0.7,9-1.2,26.8-1.2,26.8L314.6,768.3z
		 M392.3,635.9l0.1-0.1l0.5,0.3L392.3,635.9z M395.2,631.3c-0.6,1-1.5,2.4-2.5,3.8L395.2,631.3L395.2,631.3z"/>
	<path class="st1" d="M377.3,483.6c-1-7.3-3.8-8-2.3-29.4s-6-41.7-6-41.7l-8.8,49.7l0.2,1.7c0.8-3.1,1.8-6,2.7-8.5
		c1-2.7,2-6,2.8-9.3l-0.1,0.5l1.4-1.1c0.2,0.9,4.9,22.9,5.2,32c0.1,3.5-0.2,7.2-0.5,11.1c-0.5,6.5-1,13.2,0.5,19
		c0.2,0.6,0.4,1.3,0.6,2.2C374.7,499.1,377.6,485.5,377.3,483.6z"/>
	<g>
		<path class="st2" d="M320.8,886c0-0.1,0-0.2,0-0.3C320.8,885.8,320.8,885.9,320.8,886z"/>
		<path class="st2" d="M320.8,883.6c0-0.1,0-0.2,0-0.2C320.8,883.5,320.8,883.5,320.8,883.6z"/>
		<path class="st2" d="M311.2,717.2c-0.2-6.9-0.7-13.1-1.3-19.1L311.2,717.2z"/>
		<path class="st2" d="M320.7,880.7L320.7,880.7L320.7,880.7z"/>
		<path class="st2" d="M323.7,906.2l5.4,81.3c0-0.1,0-0.1,0-0.2c0,0.1,0,0.1,0,0.2v0.1c0,0,0.3,1.5,1.4,2.8c0,0,0,0.1,0.1,0.1
			c0.1,0.1,0.2,0.2,0.3,0.3c0.1,0.1,0.1,0.1,0.2,0.2l0.1,0.1c0.4,0.3,0.8,0.5,1.2,0.7c0,0,0.1,0,0.1,0.1c0.1,0.1,0.3,0.1,0.4,0.1
			s0.2,0.1,0.3,0.1c0.1,0,0.3,0.1,0.4,0.1c0.2,0,0.4,0.1,0.7,0.1h0.1c0.3,0,0.6,0,0.9,0c0.2,0,0.3,0,0.5,0s0.3,0,0.5,0
			c4.6-0.4,5.2-2.3,5.3-5.3c0,0,0,0,0-0.1c0-0.3,0-0.5-0.1-0.8c0-0.1,0-0.1,0-0.2c0-0.2-0.1-0.4-0.1-0.7c0-0.1,0-0.2-0.1-0.3
			c-0.1-0.2-0.1-0.5-0.2-0.7c0-0.1-0.1-0.2-0.1-0.3c-0.1-0.2-0.2-0.5-0.3-0.7c0-0.1-0.1-0.2-0.1-0.3c-0.1-0.2-0.2-0.5-0.3-0.7
			c-0.1-0.1-0.1-0.2-0.2-0.4s-0.2-0.4-0.3-0.6c-0.1-0.1-0.1-0.3-0.2-0.4c-0.1-0.2-0.2-0.4-0.3-0.6c-0.1-0.2-0.2-0.4-0.3-0.6
			c-0.1-0.2-0.2-0.3-0.2-0.5c-0.1-0.3-0.3-0.6-0.4-0.8s-0.2-0.3-0.3-0.5c-0.1-0.2-0.2-0.3-0.2-0.5c-0.1-0.2-0.2-0.3-0.2-0.5
			c-0.1-0.2-0.2-0.3-0.2-0.5c-0.1-0.2-0.1-0.3-0.2-0.5s-0.1-0.3-0.2-0.5c-0.1-0.1-0.1-0.3-0.2-0.4c-0.1-0.2-0.1-0.3-0.2-0.5
			c-0.1-0.1-0.1-0.3-0.1-0.4c-0.1-0.2-0.1-0.3-0.2-0.5s-0.1-0.3-0.1-0.5c-0.1-0.2-0.1-0.4-0.1-0.6c0-0.2-0.1-0.4-0.1-0.5v-0.1
			c0-0.1-0.2-0.4-0.3-0.8v-0.1c0-0.1,0-0.1-0.1-0.2c0-0.1-0.1-0.2-0.1-0.3c0,0,0,0,0-0.1c-0.3-0.9-0.7-2.1-1-3.3c0,0,0,0,0-0.1
			c0-0.2-0.1-0.4-0.1-0.5c0,0,0,0,0-0.1c0-0.2-0.1-0.3-0.1-0.5v-0.1c0-0.2-0.1-0.3-0.1-0.5v-0.1c0-0.2-0.1-0.4-0.1-0.6
			c0-0.1,0-0.2,0-0.3v-0.1c0-0.1,0-0.2,0-0.4v-0.1c0-0.1,0-0.3,0-0.4c0-0.1,0-0.1,0-0.2c0-0.2,0-0.3,0-0.5c0-0.1,0-0.1,0-0.2
			c0-0.2,0-0.4,0-0.6c0-0.1,0-0.2,0-0.2c0-0.2,0-0.4,0-0.6c0-0.1,0-0.2,0-0.3c0-0.2,0-0.4,0-0.7c0-0.1,0-0.2,0-0.3
			c0-0.2,0-0.5,0-0.7c0-0.1,0-0.2,0-0.3c0-0.3,0-0.5,0-0.8c0-0.1,0-0.2,0-0.3c0-0.3,0-0.6,0-0.9c0-0.1,0-0.1,0-0.2c0-0.3,0-0.6,0-1
			c0-0.1,0-0.2,0-0.2c0-0.8-0.1-1.6-0.1-2.5c-0.3-7.6-0.6-16.6-0.8-20.5c0-0.3,0-0.7,0-1c0-0.4-0.1-0.7-0.1-1.1
			c0-0.1-0.1-0.3-0.1-0.4c0-0.2-0.1-0.4-0.1-0.6c0-0.2-0.1-0.4-0.1-0.5c-0.1-0.2-0.1-0.4-0.2-0.5c-0.1-0.2-0.1-0.4-0.2-0.6
			c-0.1-0.2-0.1-0.3-0.2-0.5s-0.2-0.4-0.3-0.6c-0.1-0.2-0.1-0.3-0.2-0.5c-0.2-0.4-0.3-0.8-0.5-1.1c-0.1-0.2-0.2-0.4-0.3-0.6
			c-0.1-0.2-0.2-0.4-0.3-0.6c-0.1-0.2-0.2-0.4-0.3-0.6c-0.1-0.2-0.2-0.4-0.3-0.6c-0.1-0.2-0.2-0.3-0.3-0.5c-0.3-0.6-0.6-1.2-0.9-1.7
			c0-0.1-0.1-0.2-0.1-0.2c-0.2-0.4-0.4-0.8-0.6-1.2c0-0.1-0.1-0.2-0.1-0.3c-0.2-0.4-0.4-0.8-0.5-1.2c0-0.1-0.1-0.2-0.1-0.3
			c-0.2-0.4-0.3-0.8-0.4-1.2C325.6,914.4,324.7,910.7,323.7,906.2z"/>
		<path class="st2" d="M320.9,888.3c0-0.1,0-0.2,0-0.2S320.9,888.2,320.9,888.3z"/>
		<path class="st2" d="M321,889.4c0-0.1,0-0.1,0-0.2C321,889.3,321,889.4,321,889.4z"/>
		<path class="st2" d="M320.8,887.1c0-0.1,0-0.2,0-0.3C320.8,886.9,320.8,887,320.8,887.1z"/>
		<polygon class="st2" points="392.3,635.9 392.9,636.1 392.4,635.8 		"/>
		<path class="st2" d="M395.2,631.3L395.2,631.3l-2.5,3.8C393.7,633.7,394.6,632.3,395.2,631.3z"/>
		<path class="st2" d="M314.6,768.3l5.6,85.3c-0.2-8.4-0.3-16.9-0.5-23.8c0-0.1,0-0.3,0-0.4c0-0.3,0-0.6,0-0.9c0-0.4,0-0.8,0-1.1
			c0-0.1,0-0.3,0-0.4c-0.1-4-0.1-7.2-0.2-9.2c0-0.1,0-0.2,0-0.3c0-0.3,0-0.5,0-0.8c0-0.2,0-0.5,0-0.7s0-0.4,0-0.6c0-0.2,0-0.5,0-0.7
			c0-1.3,0-2.6,0-4.1c0-0.2,0-0.4,0-0.5c0-0.5,0-1.1,0-1.6c0-0.8,0-1.6,0-2.5c0-0.2,0-0.4,0-0.7c0-0.8,0-1.7,0-2.5
			c0-0.3,0-0.6,0-0.9c0-0.8,0-1.6,0-2.4c-0.2-10.2-0.9-20.9-2.9-25.9"/>
		<path class="st0" d="M332.2,930c0,0.1,0.1,0.3,0.1,0.4C332.3,930.3,332.2,930.2,332.2,930z"/>
		<path class="st0" d="M333.5,959.9c0,0.1,0,0.2,0,0.3C333.6,960.1,333.5,960,333.5,959.9z"/>
		<path class="st0" d="M333.5,959.2c0,0.2,0,0.5,0,0.7C333.5,959.6,333.5,959.4,333.5,959.2z"/>
		<path class="st0" d="M333.6,960.2c0,0.2,0,0.4,0,0.7C333.6,960.6,333.6,960.4,333.6,960.2z"/>
		<path class="st0" d="M332.4,932.5c0.1,3.9,0.4,12.9,0.8,20.5C332.9,946.1,332.6,937.7,332.4,932.5z"/>
		<path class="st0" d="M333.5,958.9c0,0.1,0,0.2,0,0.3C333.5,959.1,333.5,959,333.5,958.9z"/>
		<path class="st0" d="M335.5,970.5L335.5,970.5L335.5,970.5z"/>
		<path class="st0" d="M334.3,966.5C334.3,966.5,334.3,966.6,334.3,966.5C334.3,966.6,334.3,966.5,334.3,966.5z"/>
		<path class="st0" d="M333.3,955.7c0,0.3,0,0.7,0,1C333.4,956.3,333.3,956,333.3,955.7z"/>
		<path class="st0" d="M333.7,961.7c0,0.1,0,0.2,0,0.2S333.7,961.8,333.7,961.7z"/>
		<path class="st0" d="M333.3,955.4c0,0.1,0,0.2,0,0.2C333.3,955.6,333.3,955.5,333.3,955.4z"/>
		<path class="st0" d="M333.4,958.1c0,0.3,0,0.5,0,0.8C333.5,958.6,333.5,958.3,333.4,958.1z"/>
		<path class="st0" d="M333.2,953c0,0.8,0.1,1.7,0.1,2.5C333.3,954.7,333.2,953.8,333.2,953z"/>
		<path class="st0" d="M333.4,957.8c0,0.1,0,0.2,0,0.3C333.4,958,333.4,957.9,333.4,957.8z"/>
		<path class="st0" d="M333.4,956.9c0,0.3,0,0.6,0,0.9C333.4,957.5,333.4,957.2,333.4,956.9z"/>
		<path class="st0" d="M333.4,956.7c0,0.1,0,0.1,0,0.2C333.4,956.8,333.4,956.7,333.4,956.7z"/>
		<path class="st0" d="M333.6,961.1c0,0.2,0,0.4,0,0.6C333.6,961.5,333.6,961.3,333.6,961.1z"/>
		<path class="st0" d="M333.9,964.3C333.9,964.3,333.9,964.4,333.9,964.3C333.9,964.4,333.9,964.3,333.9,964.3z"/>
		<path class="st0" d="M334.3,966.6c0,0.2,0.1,0.4,0.1,0.5C334.4,967,334.4,966.8,334.3,966.6z"/>
		<path class="st0" d="M334,965.3C334,965.3,334,965.4,334,965.3C334,965.4,334,965.3,334,965.3z"/>
		<path class="st0" d="M333.8,963.9c0,0.1,0,0.3,0,0.4C333.9,964.2,333.8,964.1,333.8,963.9z"/>
		<path class="st0" d="M334.2,966c0,0.2,0.1,0.3,0.1,0.5C334.3,966.3,334.2,966.2,334.2,966z"/>
		<path class="st0" d="M334,965.4c0,0.2,0.1,0.3,0.1,0.5C334.1,965.7,334.1,965.6,334,965.4z"/>
		<path class="st0" d="M333.8,963.8L333.8,963.8C333.8,963.9,333.8,963.8,333.8,963.8z"/>
		<path class="st0" d="M334.2,965.9C334.2,965.9,334.2,966,334.2,965.9C334.2,966,334.2,965.9,334.2,965.9z"/>
		<path class="st0" d="M333.8,963.4c0,0.2,0,0.3,0,0.4C333.8,963.7,333.8,963.5,333.8,963.4z"/>
		<path class="st0" d="M334.5,967.1C334.5,967.2,334.5,967.2,334.5,967.1C334.5,967.2,334.5,967.2,334.5,967.1z"/>
		<path class="st0" d="M333.7,962.5c0,0.1,0,0.1,0,0.2C333.7,962.6,333.7,962.6,333.7,962.5z"/>
		<path class="st0" d="M333.7,961.9c0,0.2,0,0.4,0,0.6C333.7,962.3,333.7,962.1,333.7,961.9z"/>
		<path class="st0" d="M333.7,962.7c0,0.2,0,0.3,0,0.5C333.7,963,333.7,962.9,333.7,962.7z"/>
		<path class="st0" d="M334.5,967.2c0.3,1.2,0.7,2.4,1,3.3C335.2,969.6,334.8,968.4,334.5,967.2z"/>
		<path class="st0" d="M332.1,929.4c0.1,0.2,0.1,0.4,0.1,0.6C332.2,929.8,332.1,929.6,332.1,929.4z"/>
		<path class="st0" d="M333.8,963.2c0,0.1,0,0.1,0,0.2C333.8,963.3,333.8,963.3,333.8,963.2z"/>
		<path class="st0" d="M333.6,960.8c0,0.1,0,0.2,0,0.3C333.6,961,333.6,960.9,333.6,960.8z"/>
		<path class="st0" d="M319.5,815.2c0,0.2,0,0.4,0,0.6C319.5,815.6,319.5,815.4,319.5,815.2z"/>
		<path class="st0" d="M319.5,815.8c0,0.2,0,0.5,0,0.7C319.5,816.3,319.5,816.1,319.5,815.8z"/>
		<path class="st0" d="M319.5,814.5c0,0.2,0,0.5,0,0.7C319.5,815,319.5,814.8,319.5,814.5z"/>
		<path class="st0" d="M319.5,816.5c0,0.3,0,0.6,0,0.8C319.5,817.1,319.5,816.8,319.5,816.5z"/>
		<path class="st0" d="M319.7,826.9c0,0.1,0,0.3,0,0.4C319.7,827.1,319.7,827,319.7,826.9z"/>
		<path class="st0" d="M319.7,829.3c0,0.1,0,0.3,0,0.4C319.7,829.6,319.7,829.5,319.7,829.3z"/>
		<path class="st0" d="M319.7,828.4c0,0.3,0,0.6,0,0.9C319.7,829,319.7,828.7,319.7,828.4z"/>
		<path class="st0" d="M319.7,827.3c0,0.4,0,0.7,0,1.1C319.7,828,319.7,827.6,319.7,827.3z"/>
		<path class="st0" d="M319.5,811.6c0-0.4,0-0.8,0-1.2c0,1.4,0,2.8,0,4.1C319.5,813.6,319.5,812.7,319.5,811.6z"/>
		<path class="st0" d="M319.4,801.7c0,0.3,0,0.6,0,0.9C319.4,802.3,319.4,802,319.4,801.7z"/>
		<path class="st0" d="M319.3,799.4c0,0.8,0,1.6,0,2.4C319.4,800.9,319.4,800.2,319.3,799.4z"/>
		<path class="st0" d="M319.5,809.9c0,0.2,0,0.4,0,0.5C319.5,810.3,319.5,810.1,319.5,809.9z"/>
		<path class="st0" d="M319.4,802.6c0,0.8,0,1.7,0,2.5C319.4,804.3,319.4,803.4,319.4,802.6z"/>
		<path class="st0" d="M319.4,805.1c0,0.2,0,0.4,0,0.7C319.4,805.5,319.4,805.3,319.4,805.1z"/>
		<path class="st0" d="M319.5,808.3c0,0.6,0,1.1,0,1.6C319.5,809.4,319.5,808.8,319.5,808.3z"/>
		<path class="st0" d="M319.4,805.8c0,0.8,0,1.7,0,2.5C319.5,807.4,319.4,806.6,319.4,805.8z"/>
		<path class="st0" d="M331.4,927.2c0.1,0.2,0.1,0.3,0.2,0.5C331.5,927.6,331.4,927.4,331.4,927.2z"/>
		<path class="st0" d="M330.4,925c0.2,0.4,0.4,0.8,0.5,1.1C330.7,925.8,330.6,925.4,330.4,925z"/>
		<path class="st0" d="M330.1,924.4c0.1,0.2,0.2,0.4,0.3,0.6C330.3,924.8,330.2,924.6,330.1,924.4z"/>
		<path class="st0" d="M326.5,917.3c0,0.1,0.1,0.2,0.1,0.3C326.6,917.5,326.5,917.4,326.5,917.3z"/>
		<path class="st0" d="M330.9,926.1c0.1,0.2,0.1,0.3,0.2,0.5C331,926.4,331,926.3,330.9,926.1z"/>
		<path class="st0" d="M331.1,926.6c0.1,0.2,0.2,0.4,0.3,0.6C331.3,927,331.2,926.8,331.1,926.6z"/>
		<path class="st0" d="M329.5,923.3c0.1,0.2,0.2,0.4,0.3,0.6C329.7,923.7,329.6,923.5,329.5,923.3z"/>
		<path class="st0" d="M331.6,927.7c0.1,0.2,0.1,0.4,0.2,0.6C331.7,928.1,331.6,927.9,331.6,927.7z"/>
		<path class="st0" d="M331.9,928.8c0.1,0.2,0.1,0.4,0.1,0.5C332,929.2,332,929,331.9,928.8z"/>
		<path class="st0" d="M329.8,923.9c0.1,0.2,0.2,0.4,0.3,0.6C330,924.3,329.9,924.1,329.8,923.9z"/>
		<path class="st0" d="M327.3,919.1c0.2,0.4,0.4,0.8,0.6,1.2C327.7,919.8,327.5,919.4,327.3,919.1z"/>
		<path class="st0" d="M329.2,922.7c0.1,0.2,0.2,0.4,0.3,0.6C329.4,923.1,329.3,922.9,329.2,922.7z"/>
		<path class="st0" d="M326.6,917.6c0.2,0.4,0.3,0.8,0.5,1.2C326.9,918.4,326.8,918,326.6,917.6z"/>
		<path class="st0" d="M327.1,918.8c0,0.1,0.1,0.2,0.1,0.3C327.2,919,327.2,918.9,327.1,918.8z"/>
		<path class="st0" d="M328.9,922.2c0.1,0.2,0.2,0.3,0.3,0.5C329.1,922.5,329,922.4,328.9,922.2z"/>
		<path class="st0" d="M328.8,921.9c-0.3-0.5-0.5-1-0.8-1.4c0.3,0.6,0.6,1.2,0.9,1.7C328.9,922.1,328.8,922,328.8,921.9z"/>
		<path class="st0" d="M327.9,920.2c0,0.1,0.1,0.2,0.1,0.2C327.9,920.4,327.9,920.3,327.9,920.2z"/>
		<path class="st0" d="M331.8,928.3c0.1,0.2,0.1,0.4,0.2,0.5C331.9,928.7,331.8,928.5,331.8,928.3z"/>
		<path class="st0" d="M334.5,992.4c0.2,0,0.5,0,0.7,0c0.1,0,0.2,0,0.2,0c0.2,0,0.3,0,0.5,0c-0.2,0-0.3,0-0.5,0
			C335.1,992.5,334.8,992.4,334.5,992.4z"/>
		<path class="st0" d="M336.5,992.4c4.8-0.4,5.2-2.4,5.3-5.3C341.7,990.1,341.1,992,336.5,992.4z"/>
		<path class="st0" d="M329.1,987.6L329.1,987.6L329.1,987.6L329.1,987.6c0.2,0.9,0.6,2,1.4,2.9
			C329.3,989.2,329.1,987.7,329.1,987.6L329.1,987.6z"/>
		<path class="st0" d="M329.1,987.6L329.1,987.6c0,0,0-0.1,0-0.2C329.1,987.5,329.1,987.5,329.1,987.6z"/>
		<path class="st0" d="M332.4,932.5c0-0.4,0-0.7,0-1c0-0.4-0.1-0.7-0.1-1.1c0.1,0.4,0.1,0.7,0.1,1.1
			C332.4,931.8,332.4,932.2,332.4,932.5z"/>
		<path class="st0" d="M334,965.3c0-0.2-0.1-0.4-0.1-0.6c0-0.1,0-0.2,0-0.3c0,0.1,0,0.2,0,0.3C334,964.9,334,965.1,334,965.3z"/>
		<path class="st0" d="M341.7,987.1L341.7,987.1c0-0.3,0-0.6,0-0.9C341.7,986.5,341.7,986.8,341.7,987.1L341.7,987.1z"/>
		<path class="st0" d="M330.6,990.6L330.6,990.6L330.6,990.6z"/>
		<path class="st0" d="M336.2,972.6c0-0.2-0.1-0.4-0.1-0.6c0,0,0,0,0-0.1v0.1C336.1,972.2,336.1,972.4,336.2,972.6z"/>
		<path class="st0" d="M330.9,990.9c-0.1-0.1-0.2-0.2-0.3-0.3C330.7,990.7,330.8,990.8,330.9,990.9z"/>
		<path class="st0" d="M332.6,992c-0.1,0-0.1,0-0.1-0.1L332.6,992z"/>
		<path class="st0" d="M333.3,992.2c-0.1,0-0.2-0.1-0.3-0.1C333.1,992.2,333.2,992.2,333.3,992.2z"/>
		<path class="st0" d="M333,992.1c-0.1,0-0.3-0.1-0.4-0.1C332.8,992,332.9,992.1,333,992.1z"/>
		<path class="st0" d="M331.1,991.1c-0.1-0.1-0.1-0.1-0.2-0.2C331,991,331,991,331.1,991.1z"/>
		<path class="st0" d="M331.2,991.2l-0.1-0.1C331.1,991.1,331.2,991.2,331.2,991.2z"/>
		<path class="st0" d="M332.5,991.9c-0.5-0.2-0.9-0.4-1.2-0.7C331.6,991.5,332,991.7,332.5,991.9z"/>
		<path class="st0" d="M319.7,826.9c-0.1-4-0.1-7.2-0.2-9.2c0-0.1,0-0.2,0-0.3c0,0.1,0,0.2,0,0.3
			C319.6,819.7,319.6,822.9,319.7,826.9z"/>
		<path class="st0" d="M320.2,853.5c-0.1-4.7-0.2-9.5-0.3-14c-0.1-3.5-0.1-6.8-0.2-9.8C319.9,836.6,320.1,845.2,320.2,853.5
			L320.2,853.5z"/>
		<path class="st0" d="M335.5,970.5c0,0.1,0.1,0.2,0.1,0.3C335.6,970.7,335.6,970.6,335.5,970.5z"/>
		<path class="st0" d="M320.7,880.7c-0.1-6.3-0.3-16.6-0.5-27.1l0,0C320.4,864.1,320.6,874.4,320.7,880.7z"/>
		<path class="st0" d="M333.7,992.3c-0.1,0-0.3-0.1-0.4-0.1C333.5,992.2,333.6,992.3,333.7,992.3z"/>
		<path class="st0" d="M320.8,883.4c0-0.8,0-1.7,0-2.6C320.7,881.7,320.8,882.6,320.8,883.4z"/>
		<path class="st0" d="M320.9,888c0-0.3,0-0.6-0.1-0.9C320.9,887.4,320.9,887.7,320.9,888z"/>
		<path class="st0" d="M321,889.3c0-0.3-0.1-0.7-0.1-1C320.9,888.6,321,889,321,889.3z"/>
		<path class="st0" d="M326.1,916.1c0.1,0.4,0.2,0.8,0.4,1.2C326.3,916.9,326.2,916.5,326.1,916.1s-1.2-4.4-2.4-9.9v0.1
			C324.7,910.7,325.6,914.4,326.1,916.1z"/>
		<path class="st0" d="M323.7,906.2L323.7,906.2c-1.1-5.1-2.2-11.2-2.7-16.8C321.5,895,322.6,901.1,323.7,906.2z"/>
		<path class="st0" d="M320.8,884.6c0-0.3,0-0.6,0-1C320.8,884,320.8,884.3,320.8,884.6z"/>
		<path class="st0" d="M320.8,886.8c0-0.3,0-0.6,0-0.9C320.8,886.3,320.8,886.6,320.8,886.8z"/>
		<path class="st0" d="M320.8,885.7c0-0.4,0-0.7,0-1.1C320.8,885,320.8,885.3,320.8,885.7z"/>
		<path class="st0" d="M337.6,976.5c0.1,0.2,0.1,0.3,0.2,0.5C337.7,976.8,337.6,976.6,337.6,976.5z"/>
		<path class="st0" d="M337.4,976c0.1,0.2,0.1,0.3,0.2,0.5C337.5,976.3,337.4,976.1,337.4,976z"/>
		<path class="st0" d="M337.1,975.5c0.1,0.2,0.1,0.3,0.2,0.5C337.3,975.8,337.2,975.7,337.1,975.5z"/>
		<path class="st0" d="M337,975.1c0.1,0.1,0.1,0.3,0.2,0.4C337.1,975.4,337,975.2,337,975.1z"/>
		<path class="st0" d="M338,977.4c0.1,0.2,0.2,0.3,0.2,0.5C338.2,977.7,338.1,977.6,338,977.4z"/>
		<path class="st0" d="M338.3,977.9c0.1,0.2,0.2,0.3,0.3,0.5C338.4,978.3,338.4,978.1,338.3,977.9z"/>
		<path class="st0" d="M337.8,976.9c0.1,0.2,0.2,0.3,0.2,0.5C338,977.3,337.9,977.1,337.8,976.9z"/>
		<path class="st0" d="M336.8,974.6c0.1,0.2,0.1,0.3,0.2,0.5C336.9,974.9,336.8,974.7,336.8,974.6z"/>
		<path class="st0" d="M335.7,971C335.7,971,335.7,971.1,335.7,971C335.7,971.1,335.7,971,335.7,971z"/>
		<path class="st0" d="M334.4,992.4c-0.2,0-0.5-0.1-0.7-0.1C333.9,992.3,334.2,992.4,334.4,992.4z"/>
		<path class="st0" d="M338.8,979c-0.1-0.2-0.2-0.4-0.3-0.6c0.1,0.3,0.3,0.6,0.4,0.8C338.9,979.2,338.9,979.1,338.8,979z"/>
		<path class="st0" d="M336.6,974.2c0,0.1,0.1,0.3,0.1,0.4C336.7,974.4,336.7,974.3,336.6,974.2z"/>
		<path class="st0" d="M335.6,970.8c0,0.1,0,0.1,0.1,0.2C335.7,970.9,335.6,970.9,335.6,970.8z"/>
		<path class="st0" d="M336.4,973.7c0.1,0.2,0.1,0.3,0.2,0.5C336.6,974,336.5,973.8,336.4,973.7z"/>
		<path class="st0" d="M336.2,972.6c0,0.2,0.1,0.4,0.1,0.6C336.2,973,336.2,972.8,336.2,972.6z"/>
		<path class="st0" d="M336.3,973.2c0,0.2,0.1,0.3,0.1,0.5C336.4,973.5,336.3,973.3,336.3,973.2z"/>
		<path class="st0" d="M336,971.9c0-0.1-0.2-0.4-0.3-0.8C335.9,971.5,336,971.8,336,971.9L336,971.9z"/>
		<path class="st0" d="M341.2,984.4c0.1,0.2,0.1,0.5,0.2,0.7C341.4,984.8,341.3,984.6,341.2,984.4z"/>
		<path class="st0" d="M341.4,985c0,0.1,0.1,0.2,0.1,0.3C341.5,985.2,341.5,985.1,341.4,985z"/>
		<path class="st0" d="M341.5,985.3c0.1,0.2,0.1,0.5,0.1,0.7C341.6,985.8,341.6,985.5,341.5,985.3z"/>
		<path class="st0" d="M341.1,984.1c0,0.1,0.1,0.2,0.1,0.3C341.2,984.3,341.2,984.2,341.1,984.1z"/>
		<path class="st0" d="M341.6,986c0,0.1,0,0.1,0,0.2C341.7,986.1,341.6,986.1,341.6,986z"/>
		<path class="st0" d="M334.5,992.4h-0.1C334.5,992.4,334.5,992.4,334.5,992.4z"/>
		<path class="st0" d="M336.5,992.4c-0.1,0-0.3,0-0.5,0C336.1,992.4,336.3,992.4,336.5,992.4z"/>
		<path class="st0" d="M340.9,983.4c0.1,0.2,0.2,0.5,0.3,0.7C341.1,983.8,341,983.6,340.9,983.4z"/>
		<path class="st0" d="M339.5,980.3c0.1,0.2,0.2,0.4,0.3,0.6C339.7,980.7,339.6,980.5,339.5,980.3z"/>
		<path class="st0" d="M339,979.3c0.1,0.2,0.2,0.3,0.2,0.5C339.1,979.6,339,979.4,339,979.3z"/>
		<path class="st0" d="M340.7,983.1c0,0.1,0.1,0.2,0.1,0.3C340.8,983.3,340.8,983.2,340.7,983.1z"/>
		<path class="st0" d="M339.8,980.9c0.1,0.1,0.1,0.3,0.2,0.4C339.9,981.2,339.8,981,339.8,980.9z"/>
		<path class="st0" d="M339.2,979.7c0.1,0.2,0.2,0.4,0.3,0.6C339.4,980.1,339.3,979.9,339.2,979.7z"/>
		<path class="st0" d="M340,981.3c0.1,0.2,0.2,0.4,0.3,0.6C340.2,981.8,340.1,981.6,340,981.3z"/>
		<path class="st0" d="M340.5,982.4c0.1,0.2,0.2,0.5,0.3,0.7C340.7,982.8,340.6,982.6,340.5,982.4z"/>
		<path class="st0" d="M340.3,982c0.1,0.1,0.1,0.2,0.2,0.4C340.4,982.2,340.3,982.1,340.3,982z"/>
		<g>
			<path class="st2" d="M316.5,773.5c0,0,0.6-17.8,1.2-26.8c0.7-9-6.5-30.3-6.5-30.3v0.8c0.2,5.3,0.2,11,0,17.3
				c-0.5,16.7,1,26.3,3.4,33.8"/>
			<path class="st2" d="M315.9,765.7"/>
			<path class="st2" d="M311.2,717.2c-0.2-6.9-0.7-13.1-1.3-19.1L311.2,717.2z"/>
			<polygon class="st2" points="392.3,635.9 392.9,636.1 392.4,635.8 			"/>
			<path class="st2" d="M311.2,647.5c-0.6-5.8-7.6-21.9-5.8-52.4c-2.7,0.2-3,0-3,0s-1.2,27.6-1.2,36.9s5,37.4,7,52.1
				c0.6,4.6,1.2,9.2,1.7,14l0,0C310.5,690.4,311.8,653.3,311.2,647.5z"/>
			<path class="st2" d="M395.2,631.3L395.2,631.3l-2.5,3.8C393.7,633.7,394.6,632.3,395.2,631.3z"/>
			<path class="st0" d="M314.6,768.3"/>
			<path class="st0" d="M316.5,773.5"/>
		</g>
	</g>
	<path class="st1" d="M317.8,331c2.2,5,4,23.2,4,23.2s2.2-1.8,7.3-1.2c19,2.1,44.6,1.3,55-0.1c-6.2-2.6-18.1-6.4-25.2-8.1
		c-3.8-0.9-8.2-2-11.9-3.1c-2.8-0.9-5-1.7-6.6-2.5c-5.5-2.9-9.2-8.3-10.6-15.7c-0.7-3.9-0.7-7.3-0.6-9l0.1-1.4l-1.1,1
		c-7.5,6.7-10.4,7-14.4,7s-6.8-0.3-14.3-7l-1.1-1l0.1,1.4c0.1,0.9,0.1,2.2,0,3.9C305.1,321.5,316.2,327.5,317.8,331z"/>
	<path class="st1" d="M367.2,547.6c-0.5-18.5-5.1-42.7-8.6-51c-3.8-9,0.3-30,4.5-41.1c1-2.7,2-6,2.8-9.3l-0.1,0.5l1.4-1.1
		c0.1,0.5,1.8,8.4,3.2,16.6l-1.4-49.6l-28.4,6.6h-30.3l-9.4-5.9l-13.5-0.6l-17,14.3c0.6,0.7,1.2,1.5,1.8,2.1l-0.8-0.7l0.3,1.7
		c1,6.3,4.3,27.3,3.4,32.5c-0.6,3.6-4.7,11.9-12.5,25.3c2.9-2,6.6-4.4,11.4-7.3c20.7-12.4,5.9-8.4,13.4-31.4
		c9.2-28.1,42.7-19.3,53.2-14.2c11.7,5.6,12.5,25.1,7.1,42.6c-5.4,17.6,2.3,19.9,1.8,34.8S329,547.6,329,547.6l-87.4-14.2
		c-2.3,6.6-4.2,13.1-5.3,18.5c10.1-3.8,27.1-2.3,37.7,10.1c13.5,15.8,21.8,65.5,24.4,90.1c2.7,24.6,11.5,58.1,11.5,58.1l0.3-8.1
		l-0.3-4.1c-0.5-4.8-1.1-9.4-1.7-14c-2-14.7-7-42.7-7-52.1s1.2-36.9,1.2-36.9s0.2,0.2,3,0c-1.8,30.5,5.2,46.6,5.8,52.4
		c0.6,5.8-0.7,42.9-1.2,50.6l0,0c0.1,1.1,0.2,2.1,0.3,3.2l0.9-27.6c0,0,7.2-41.1,8.1-56.8s13.6-45.3,27.6-49.1
		c8-2.1,15.5,0.1,20.5,2.4C367.4,560.3,367.3,552.2,367.2,547.6z"/>
	<path class="st1" d="M316.5,773.5L316.5,773.5c-0.7-1.7-1.3-3.4-1.9-5.2l0,0v-0.1c-0.2-0.7-0.4-1.5-0.7-2.2
		c-0.1-0.2-0.1-0.5-0.2-0.7c-0.1-0.3-0.2-0.6-0.2-1c-0.1-0.3-0.1-0.6-0.2-0.8c-0.1-0.3-0.1-0.6-0.2-1c-0.1-0.3-0.1-0.6-0.2-1
		c-0.1-0.3-0.1-0.6-0.2-0.9c-0.1-0.5-0.2-1.1-0.3-1.6c-0.1-0.3-0.1-0.7-0.2-1c-0.1-0.5-0.1-0.9-0.2-1.4c0-0.3-0.1-0.6-0.1-0.9
		c-0.1-0.4-0.1-0.9-0.2-1.4c0-0.3-0.1-0.7-0.1-1c-0.1-0.5-0.1-1-0.1-1.6c0-0.3-0.1-0.6-0.1-0.9c-0.1-0.8-0.1-1.7-0.2-2.6
		c0-0.1,0-0.3,0-0.4c0-0.8-0.1-1.6-0.1-2.4c0-0.3,0-0.7,0-1c0-0.7,0-1.3,0-2c0-0.4,0-0.7,0-1.1c0-0.7,0-1.5,0-2.2c0-0.3,0-0.7,0-1
		c0-1.1,0-2.3,0.1-3.5c0-1.5,0.1-2.9,0.1-4.3c0-0.4,0-0.7,0-1.1c0-1.1,0-2.1,0-3.1c0-0.3,0-0.7,0-1c0-1.1,0-2.2,0-3.2
		c0-0.2,0-0.5,0-0.7c0-1.3,0-2.6-0.1-3.8l-0.3-4.5c-0.6-1.5-1-2.4-1-2.4s-1,11.2-3.7,21s-7.4,27.8-5.1,47.8
		c2.4,20,11.9,89.4,9.8,105.5c-0.9,7.3-3.7,16.3-6.4,23.8c0,2.3-0.2,4.7-0.4,7c-0.4,4.5-0.9,9.2,0.4,13.3c2.1,6.9,1.8,25.7,0,35.2
		c-1.7,9.5,0.1,21.1,1.4,23.4c0.8,1.5,2.8,2.1,4.3,1.9c1.3-0.2,2.2-0.8,2.4-1.9v0.1c0.1,0.4,0.5,1.3,1.4,1.8c0.8,0.5,1.9,0.5,3.2,0
		c0.2-0.1,0.4-0.2,0.6-0.3l-0.5,0.4l0.8,0.4c1,0.5,2.4,1,3.6,0.6c0.5-0.1,0.8-0.4,1.2-0.7l0,0l0.2,0.3c0.3,0.6,1.4,1.9,3.8,1.2
		c1-0.3,1.7-1.8,1.9-2.7l0.2-1c0,0.6-0.1,1.3-0.3,1.8l2.9,2.1l3.7,0.9l4.9-1.2l1.3-2.7c-0.3,2.4-1.5,3.9-6.2,4
		c-5.6,0.1-6.4-4.7-6.4-4.7s0.8,4.9,6.4,4.7c4.7-0.1,5.9-1.6,6.2-4l-0.2-3.5c-1.1-4-4.9-9.3-5.4-13c0,0-1.6-4.2-2.1-7.3
		c-0.5-3-1.4-28.1-1.5-33.2c-0.2-5.1-5.2-11.2-6.3-15.4c-0.5-1.9-1.7-6.4-2.8-11.8v-0.1c-0.1-0.6-0.3-1.3-0.4-1.9v-0.1
		c-0.1-0.7-0.3-1.3-0.4-2c0,0,0,0,0-0.1c-0.6-3.5-1.2-7.2-1.5-10.7l0,0c0-0.1,0-0.1,0-0.2l0,0c0-0.3-0.1-0.7-0.1-1l0,0v-0.1
		c0-0.3,0-0.7-0.1-1l0,0c0-0.1,0-0.2,0-0.3l0,0c0-0.3,0-0.7,0-1c0-0.1,0-0.1,0-0.2l0,0c0-0.4,0-0.7,0-1.1c0-0.3,0-0.6,0-1
		c0-0.1,0-0.1,0-0.2c0-0.1,0-0.3,0-0.4c0-0.3,0-0.7,0-1c0-0.8,0-1.7,0-2.7c0-0.2,0-0.4,0-0.6c0-0.3,0-0.7,0-1.1c0-0.2,0-0.4,0-0.6
		c0-0.5,0-1,0-1.5c0-0.1,0-0.1,0-0.2c0-0.6,0-1.2,0-1.8c0-0.2,0-0.4,0-0.6c0-0.5,0-0.9,0-1.4c0-0.2,0-0.5,0-0.7c0-0.5,0-1,0-1.5
		c0-0.2,0-0.4,0-0.5c0-0.6,0-1.3,0-1.9c0-0.4,0-0.7,0-1.1c0-0.4,0-0.7,0-1.1c0-0.4,0-0.7,0-1.1c0-0.5,0-1,0-1.5c0-0.2,0-0.4,0-0.6
		c0-0.7,0-1.5,0-2.2c0-0.2,0-0.5,0-0.7c0-0.7,0-1.4,0-2c0-0.1,0-0.1,0-0.2c0-0.8,0-1.6,0-2.4c0-0.1,0-0.2,0-0.2
		c-0.3-14.8-0.6-30.3-0.7-36c-0.1-3.4,0-8.1-0.1-13.3l-0.1-5C319.1,789.2,318.5,778.5,316.5,773.5L316.5,773.5z"/>
	<path class="st1" d="M377.5,939.3c-0.7-1.3-1.6-3.5-2.8-6.3c-1.9-4.5-4.5-10.7-7.7-16.4c-1.5-2.7-14.8-27-15.2-34.9
		c-0.4-7.6,0.1-25.5,2.4-40c2.4-15.7,8.1-71,8.1-87.8c0-12.1-4.1-19.4-6.5-23.8c-0.9-1.7-1.6-2.9-1.6-3.7v-20c0-3.2,1-9.9,2.5-19.1
		c-4.3,10.6-12,30.2-12,36.1c0,8.1-2,19-11.9,19c-9.8,0-12.5-8.8-12.5-8.8c-2.1-3.4-7-15.2-9.2-20.6c0.1,1.1,0.1,2.2,0.1,3.4l0,0
		c0,0,7.2,21.2,6.5,30.3c-0.7,9-1.2,26.8-1.2,26.8c2,5,2.6,15.7,2.9,25.9l0,0V799c0.6,2.3,10.6,39.9,10.9,48.6l0.1,2.2
		c0.4,9.9,1.2,28.4,0.1,36.3c-1,7.4,1.6,13.1,4.1,18.7c0.8,1.8,1.7,3.7,2.4,5.6c1.2,3.4,3,12.4,4.7,36.7v0.4
		c0.4,5.2,9.5,15.7,12.1,17.4c1.9,1.3,5.5,2,8.2,1.1c1.4-0.5,2.4-1.4,2.8-2.8c0.3-1,0.2-2.1,0-3.1l0.3,0.1c2.3,0.6,4,0.3,5-0.7
		c1.4-1.4,0.9-4,0.7-5l-0.2-0.4c1.1,0.2,2.2-0.1,2.9-0.7c1.3-1.1,0.4-3.6,0.1-4.4l-0.1-0.3c1,0.1,1.9-0.2,2.4-0.7
		c0.9-1,0.8-2.3,0.7-3l-0.1-0.4h-0.3c0.5,0,1-0.1,1.4-0.3C378.4,943.7,379,942,377.5,939.3z"/>
	<path class="st1" d="M235.2,462.6c-0.9-4.5-1.9-9.8-2.9-14.7c-0.5,2.2-1.5,5.1-2.8,8.7c2.5,12.3,2.7,25.7,2.7,25.7
		S237.5,474.8,235.2,462.6z"/>
	<g>
		<path d="M203.5,642.7c-2.6,0-14-10.6-14.5-12.9c-0.5-2-0.4-16.2-0.4-17.8c-1.4-2.6-2.4-5.7,0.1-8.7c2.4-2.9,8.9-16.1,11.3-23.7
			c1.4-4.5,4.3-20.1,7.5-38.1c2.3-12.5,4.8-26.6,7.2-38.4c3.7-18.6,9.1-32.9,13-43.3c2-5.2,3.5-9.3,4.1-12.1
			c1.1-4.9,2.1-24.2,3.2-42.9c0.7-12.7,1.4-24.8,2-31.8c1.2-13.5,21.3-21.5,37.4-27.8c4.8-1.9,9.3-3.7,12.5-5.3
			c6.8-3.5,9.4-10.6,10.3-15.9c1-5.8,0.5-10.9,0.4-10.9c0-0.3,0.2-0.5,0.4-0.6c0.3,0,0.5,0.2,0.6,0.4c0,0.2,0.6,5.2-0.5,11.2
			c-1.4,8-5.2,13.7-10.9,16.7c-3.3,1.7-7.8,3.5-12.6,5.4c-15,5.9-35.6,14-36.8,27c-0.6,7-1.3,19-2,31.8c-1,18.7-2.1,38-3.2,43.1
			c-0.6,2.9-2.2,7-4.2,12.2c-3.9,10.4-9.3,24.5-13,43.1c-2.3,11.7-4.9,25.9-7.1,38.4c-3.3,18.1-6.1,33.8-7.5,38.3
			c-2.5,7.7-9.1,21-11.5,24c-2.2,2.6-1.3,5.3,0.1,7.7c0,0.1,0.1,0.2,0.1,0.2c0,4.4-0.1,16,0.3,17.7c0.4,1.8,11.4,12.2,13.6,12.2
			c0.1,0,0.3,0,0.5-0.4c0.7-1.7-0.6-6.7-1.2-7.2c-0.8-0.8-7.4-7.7-7.6-8c-0.1-0.1-0.2-0.3-0.1-0.4c0-0.4,1-9.4,2.3-11.5
			c0.1-0.2,0.4-0.3,0.7-0.2c0.2,0.1,0.3,0.4,0.2,0.7c-0.9,1.5-1.8,8.2-2.1,10.9c1,1.1,6.7,7,7.5,7.8c0.9,0.9,2.2,6.2,1.4,8.3
			C204.6,642.3,204.1,642.7,203.5,642.7z"/>
		<path d="M205.7,632.5c-0.2,0-0.4,0-0.6-0.1c-1.2-0.3-2.1-1.5-2.1-2.8v-18c0-4.2-2.1-6.8-2.1-6.8c-0.2-0.2-0.1-0.5,0.1-0.7
			c0.2-0.2,0.5-0.1,0.7,0.1c0.1,0.1,2.3,2.9,2.3,7.4v18c0,0.9,0.6,1.6,1.4,1.8c1,0.3,2.1-0.5,3-2.1c1.5-2.9,1.6-9.6,1.6-14.1
			c0-1.2,0-2.3,0-3c0.1-1.3,0.9-3.1,1.8-5.3c1.6-3.7,3.7-8.3,3.6-13.4c0-2.1-0.2-4.3-0.4-6.6c-0.5-6.9-1.1-14,1.6-20.1
			c1.4-3.2,4.2-8.8,7.3-15.3c4.8-9.8,10.7-22.1,15.1-31.9c2-4.5,4-8.9,6-13.2c5.1-11.2,9.6-20.9,10.4-25.5c0.6-3.1,0.6-8.4,0.6-13.5
			c0-5.7,0-11,0.8-13.3c1.3-4.2,9.9-32.9,10-33.2c0.1-0.3,0.4-0.4,0.6-0.3c0.3,0.1,0.4,0.4,0.3,0.6c-0.1,0.3-8.7,29.1-10,33.3
			c-0.7,2.1-0.7,7.6-0.7,13c0,5.2,0,10.6-0.6,13.7c-0.9,4.7-5.3,14.5-10.5,25.8c-2,4.3-4,8.7-6,13.1c-4.4,9.9-10.3,22.1-15.1,32
			c-3.2,6.5-5.9,12.1-7.3,15.3c-2.6,5.8-2.1,12.8-1.5,19.6c0.2,2.3,0.4,4.5,0.4,6.6c0.1,5.3-2.1,10.3-3.7,13.8
			c-0.9,2.1-1.7,3.8-1.8,5c0,0.7,0,1.8,0,3c0,4.5-0.1,11.4-1.7,14.5C208.3,631.6,207,632.5,205.7,632.5z"/>
		<path d="M408.5,624.7c-0.2,0-0.3-0.1-0.4-0.2c-0.1-0.2-0.1-0.5,0.2-0.7c0.3-0.2,0.6-0.3,0.8-0.5c1.2-0.6,1.3-0.7,1.7-3.9
			c0.4-4.2,0.2-6.6-2.9-20.6c-1.9-8.5-2-13.5-2.1-17.1c0-2.4-0.1-4.3-0.6-6.4l-0.1-0.5c-1.4-5.6-3.5-14-3.8-44
			c-0.2-26.8-4.5-46.2-6.6-55.6l-0.4-1.9c-0.9-4.3-0.8-27.9-0.7-52.9c0.1-23.3,0.3-47.5-0.5-55.9c-1-11.5-18.8-15.7-34.4-19.5
			c-7.3-1.8-14.3-3.4-18.6-5.7c-5.7-2.9-9.4-8.5-10.9-16c-1.1-5.7-0.5-10.4-0.5-10.6c0-0.3,0.3-0.5,0.6-0.4c0.3,0,0.5,0.3,0.4,0.6
			c0,0-0.6,4.8,0.4,10.3c1.4,7.3,4.9,12.5,10.3,15.3c4.3,2.2,11.1,3.9,18.4,5.6c16,3.8,34,8.2,35.1,20.4c0.8,8.5,0.6,32.7,0.5,56
			c-0.1,23.8-0.3,48.4,0.6,52.6l0.4,1.8c2.1,9.4,6.4,28.9,6.6,55.8c0.2,29.8,2.4,38.2,3.7,43.7l0.1,0.5c0.6,2.2,0.6,4.2,0.6,6.6
			c0.1,3.8,0.2,8.5,2.1,16.9c3.2,14.1,3.4,16.6,2.9,20.9c-0.4,3.5-0.6,3.8-2.2,4.6c-0.2,0.1-0.5,0.3-0.8,0.4
			C408.7,624.7,408.6,624.7,408.5,624.7z"/>
		<path d="M389.8,646.5c-0.4,0-0.8-0.2-1-0.4c-1.3-1-1.2-3.8-0.2-5.4c0.7-1.3,2.1-3.3,3.3-5.2c1.1-1.6,2.2-3.3,2.9-4.5
			c1.4-2.3,1-11.7,0.8-15.2v-0.3c-0.1-2.4-1.9-7.2-3-9.9c-0.3,4.2-0.9,13.8-1,18c-0.1,3.5-2.2,5.1-4.2,5.1c0,0,0,0-0.1,0
			c-1.4,0-2.4-0.8-2.4-1.9c0-0.3,0-0.7,0-1.2c0.1-3.4,0.3-11.4-1.2-16.6c-1.6-5.9-1.8-14.9,1.4-21.6c2.5-5.3,2.4-12.2,2.4-17.7
			c0-1,0-1.9,0-2.9c0-4.4-7.1-29.1-11.7-45.5c-1.8-6.2-3.2-11.2-3.8-13.6c-1.5-5.8-1-12.6-0.5-19.1c0.3-3.9,0.6-7.6,0.5-11.1
			c-0.3-9.3-5.1-31.7-5.2-31.9c-0.1-0.3,0.1-0.5,0.4-0.6s0.5,0.1,0.6,0.4c0,0.2,4.9,22.7,5.2,32.1c0.1,3.5-0.2,7.2-0.5,11.2
			c-0.5,6.5-1,13.1,0.5,18.8c0.6,2.5,2,7.4,3.8,13.6c4.7,16.4,11.8,41.3,11.8,45.8c0,0.9,0,1.9,0,2.8c0.1,5.7,0.2,12.7-2.5,18.2
			c-3.1,6.4-2.9,15.3-1.3,20.9c1.5,5.3,1.3,13.4,1.2,16.9c0,0.5,0,0.9,0,1.2c0,0.5,0.6,0.8,1.4,0.9l0,0c1.2,0,3.1-0.9,3.2-4.1
			c0.2-5.5,1.2-20,1.2-20.2s0.2-0.4,0.4-0.5c0.2,0,0.5,0.1,0.5,0.3c0.2,0.3,3.8,8.6,3.9,12.2v0.3c0.3,6.1,0.5,13.4-0.9,15.7
			c-0.7,1.2-1.9,2.9-3,4.5c-1.3,1.9-2.6,3.8-3.3,5.1c-0.8,1.3-0.8,3.6,0,4.2c0.5,0.4,1.4,0,2.4-1c3.8-3.6,11.2-13.3,11.7-15.2
			c0.4-1.6,0.1-14.8,0-19.7c0-0.3,0.2-0.5,0.5-0.5s0.5,0.2,0.5,0.5c0,0.7,0.5,17.9,0,20c-0.6,2.3-8.2,12.1-12,15.7
			C391.4,646.2,390.5,646.5,389.8,646.5z"/>
		<path d="M399.6,636.6c-0.2,0-0.4-0.1-0.4-0.3c-0.1-0.2,0-0.5,0.2-0.7c8-4.1,8.6-6.2,8.6-8.7c0-2.7-1.5-21.5-1.5-21.6
			c0-0.3,0.2-0.5,0.5-0.5s0.5,0.2,0.5,0.5c0.1,0.8,1.5,19,1.5,21.7c0,2.9-0.7,5.3-9.1,9.6C399.8,636.6,399.7,636.6,399.6,636.6z"/>
		<path d="M386.9,641.9c-0.6,0-1.2-0.1-1.6-0.5c-0.5-0.5-0.5-1.3,0-2.4c1.6-3.7,9.4-7.9,9.7-8c0.2-0.1,0.5,0,0.7,0.2s0,0.5-0.2,0.7
			c-0.1,0-7.8,4.2-9.3,7.6c-0.3,0.7-0.3,1.2-0.2,1.4c0.4,0.4,1.9,0.2,2.8-0.2c0.3-0.1,0.5,0,0.6,0.3s0,0.5-0.3,0.6
			C388.9,641.6,387.8,641.9,386.9,641.9z"/>
		<path d="M376.3,945.2c-1,0-2.3-0.5-3.3-1.8c-0.2-0.2-0.1-0.5,0.1-0.7s0.5-0.1,0.7,0.1c1.2,1.5,2.6,1.7,3.4,1.2s1.2-2-0.2-4.4
			c-0.7-1.3-1.7-3.5-2.9-6.4c-1.9-4.5-4.5-10.7-7.7-16.4c-1.5-2.7-14.9-27-15.3-35.1c-0.4-7.6,0.1-25.5,2.4-40.1
			c2.4-15.7,8.1-71,8.1-87.7c0-12-4-19.2-6.4-23.5c-1-1.8-1.7-3-1.7-3.9v-20c0-3.5,1.3-11.3,3-22c1.9-11.9,4.6-28.3,6.6-46.2
			c4-35.1,3.9-77.4,3.5-90.7c-0.5-18.5-5-42.5-8.5-50.9c-3.9-9.1,0.2-30.3,4.5-41.5c4.4-11.6,7.1-32.7,7.1-32.9
			c0-0.3,0.3-0.5,0.6-0.4c0.3,0,0.5,0.3,0.4,0.6c0,0.2-2.7,21.5-7.1,33.2c-4.3,11.2-8.1,32.2-4.5,40.7c3.5,8.4,8.1,32.6,8.6,51.2
			c0.4,13.4,0.5,55.8-3.5,90.9c-2.1,17.9-4.7,34.3-6.6,46.2c-1.7,10.7-3,18.4-3,21.8v20c0,0.6,0.7,1.9,1.5,3.4
			c2.4,4.4,6.5,11.8,6.5,24c0.1,16.8-5.6,72.1-8.1,87.8c-2.3,14.5-2.7,32.3-2.4,39.9c0.3,6,8.4,22.4,15.2,34.7
			c3.2,5.7,5.8,11.9,7.7,16.4c1.2,2.8,2.1,5,2.8,6.3c1.7,3,1,5-0.1,5.7C377.4,945.1,376.9,945.2,376.3,945.2z"/>
		<path d="M320.4,407c-0.2,0-0.4-0.1-0.5-0.3c-2.8-7.4,1.2-14.4,1.4-14.7c0.1-0.2,0.4-0.3,0.7-0.2c0.2,0.1,0.3,0.4,0.2,0.7
			c0,0.1-3.9,6.9-1.3,13.8c0.1,0.3,0,0.5-0.3,0.6C320.5,407,320.5,407,320.4,407z"/>
		<path d="M310.4,358.1c-0.1,0-0.3-0.1-0.4-0.2c0,0-2.6-3.2-5.4-3.2h-20c-0.3,0-0.5-0.2-0.5-0.5s0.2-0.5,0.5-0.5h20
			c3.3,0,6,3.4,6.2,3.6s0.1,0.5-0.1,0.7C310.6,358,310.5,358.1,310.4,358.1z"/>
		<path d="M319.5,358.1c-0.1,0-0.1,0-0.2-0.1c-0.2-0.1-0.3-0.4-0.2-0.7c0.1-0.2,3-5.9,8-5.2c4.8,0.7,16.2,1.8,19.9,1.5
			c0.3,0,0.5,0.2,0.5,0.5s-0.2,0.5-0.5,0.5c-3.8,0.3-15.3-0.8-20.1-1.5c-4.3-0.6-6.9,4.6-7,4.6C319.9,358,319.7,358.1,319.5,358.1z"
			/>
		<path d="M313.8,505.1c-0.1,0-0.1,0-0.2,0c-0.3-0.1-0.4-0.4-0.2-0.7c1.6-3.5,0-10.8,0-10.9c-0.1-0.3,0.1-0.5,0.4-0.6
			s0.5,0.1,0.6,0.4c0.1,0.3,1.7,7.7,0,11.5C314.1,505,314,505.1,313.8,505.1z"/>
		<path d="M309.8,989.8c-1.6,0-3.4-0.7-4.2-2.2c-1.3-2.4-3.2-14.1-1.4-23.7c1.7-9.3,2-28.3,0-35c-1.3-4.3-0.8-9-0.4-13.6
			c0.3-2.7,0.5-5.6,0.4-8.3c-0.2-4.9-6.4-27.4-11.4-45.5c-2.2-8.2-4.2-15.2-5.2-19.4c-3.6-14.2-12.9-55.7-14.9-70.5
			c-1.7-12.3-1.5-34-1.4-49.9c0-3.4,0-6.5,0-9.1c0-14.5-14.7-63.8-23.7-82.8c-9.1-19.2-15.3-59.7-11.9-77.2
			c3.5-17.9,15.8-46.8,21.1-55.7c4.2-6.9,16.8-28.1,17.8-34.4c1-5.9-3.7-33.8-3.7-34.1c0-0.3,0.1-0.5,0.4-0.6c0.3,0,0.5,0.1,0.6,0.4
			c0.2,1.2,4.7,28.3,3.7,34.4c-1.1,6.5-13.8,27.8-18,34.7c-5.2,8.6-17.6,38-21,55.4s2.8,57.5,11.8,76.6c9,19.1,23.8,68.6,23.8,83.2
			c0,2.6,0,5.7,0,9.1c-0.1,15.8-0.3,37.6,1.4,49.7c2,14.6,11.4,56.6,14.9,70.4c1,4.2,3,11.2,5.2,19.4c5,18.2,11.2,40.8,11.4,45.7
			c0.1,2.7-0.1,5.6-0.4,8.4c-0.4,4.5-0.9,9.1,0.4,13.2c2.1,7,1.8,25.9,0,35.5c-1.7,9.4,0.1,20.8,1.3,23.1c0.7,1.2,2.4,1.8,3.8,1.6
			c0.6-0.1,1.7-0.4,2-1.5c0.6-2.5-1.3-7.1-1.3-7.1c-0.1-0.3,0-0.5,0.3-0.7c0.3-0.1,0.5,0,0.7,0.3c0.1,0.2,2.1,4.9,1.4,7.8
			c-0.3,1.2-1.3,2.1-2.8,2.2C310.2,989.8,310,989.8,309.8,989.8z"/>
		<path d="M315.6,990.2c-0.6,0-1.2-0.1-1.7-0.4c-1.3-0.7-1.6-2.2-1.6-2.2c-0.1-0.3,0.1-0.5,0.4-0.6s0.5,0.1,0.6,0.4l0,0
			c0,0,0.2,1.1,1.2,1.6c0.7,0.4,1.6,0.4,2.8,0c0.6-0.2,1-0.6,1.2-1.1c1-2.4-1.4-7.1-1.5-7.2c-0.1-0.2,0-0.5,0.2-0.7
			c0.2-0.1,0.5,0,0.7,0.2c0.1,0.2,2.6,5.2,1.5,8c-0.3,0.8-0.9,1.4-1.8,1.7C316.8,990.1,316.1,990.2,315.6,990.2z"/>
		<path d="M320.9,991.1c-1.9,0-3.8-1.3-3.9-1.3c-0.2-0.2-0.3-0.5-0.1-0.7c0.2-0.2,0.5-0.3,0.7-0.1c0,0,2.4,1.6,4.1,1
			c0.7-0.2,1.3-0.8,1.6-1.7c1.1-2.7-0.5-5.8-0.5-5.9c-0.1-0.2,0-0.5,0.2-0.7c0.2-0.1,0.5,0,0.7,0.2c0.1,0.1,1.8,3.6,0.6,6.7
			c-0.5,1.2-1.2,2-2.2,2.3C321.7,991,321.3,991.1,320.9,991.1z"/>
		<path d="M325.7,992c-2.4,0-3.1-2.1-3.2-2.1c-0.1-0.3,0-0.5,0.3-0.6s0.5,0,0.6,0.3l0,0c0.1,0.2,0.8,2,3.3,1.3
			c1.9-0.6,1.9-3.1,1.6-5.6c0-0.5-0.1-0.9-0.1-1.2s0.2-0.5,0.5-0.5s0.5,0.2,0.5,0.5s0,0.7,0.1,1.1c0.2,2.2,0.6,5.9-2.3,6.7
			C326.6,991.9,326.2,992,325.7,992z"/>
		<path d="M373.8,949.4c-0.3,0-0.6,0-1-0.1c-1.4-0.3-2.4-1.1-2.7-2.2c-0.1-0.3,0.1-0.5,0.3-0.6c0.3-0.1,0.5,0.1,0.6,0.3
			c0.2,0.7,1,1.3,2,1.5s2,0,2.4-0.5c1-1.1,0.4-2.9,0.4-2.9c-0.1-0.3,0.1-0.5,0.3-0.6c0.3-0.1,0.5,0.1,0.6,0.3c0,0.1,0.8,2.4-0.7,3.9
			C375.6,949.1,374.7,949.4,373.8,949.4z"/>
		<path d="M371.2,954.8c-0.5,0-1-0.1-1.5-0.2c-1.5-0.5-2.7-1.6-3.1-3.2c-0.1-0.3,0.1-0.5,0.4-0.6s0.5,0.1,0.6,0.4
			c0.4,1.7,1.7,2.3,2.4,2.5c1.1,0.4,2.4,0.2,3.1-0.4c1.2-1.1-0.1-4.1-0.1-4.1c-0.1-0.2,0-0.5,0.2-0.7c0.2-0.1,0.5,0,0.7,0.2
			c0.1,0.1,1.7,3.7-0.1,5.3C373.1,954.5,372.2,954.8,371.2,954.8z"/>
		<path d="M367.3,961.1c-0.8,0-1.7-0.1-2.7-0.4c-0.3-0.1-0.4-0.3-0.4-0.6c0.1-0.3,0.3-0.4,0.6-0.4c2.3,0.6,3.9,0.5,4.8-0.4
			c1.5-1.5,0.5-4.8,0.5-4.8c-0.1-0.3,0.1-0.5,0.3-0.6c0.3-0.1,0.5,0.1,0.6,0.3c0,0.2,1.2,3.9-0.7,5.8
			C369.7,960.7,368.7,961.1,367.3,961.1z"/>
		<path d="M359.4,967c-2.2,0-4.5-0.7-5.9-1.6c-2.8-1.8-12-12.4-12.3-17.8v-0.4c-1.7-24.2-3.5-33.2-4.7-36.6
			c-0.7-1.9-1.5-3.7-2.3-5.6c-2.5-5.6-5.2-11.4-4.1-18.9c1.1-7.8,0.3-26.3-0.1-36.2l-0.1-2.2c-0.4-8.9-10.8-48.3-11-48.7
			c-0.1-0.3,0.1-0.5,0.4-0.6s0.5,0.1,0.6,0.4c0.4,1.6,10.6,39.9,11,48.9l0.1,2.2c0.4,10,1.2,28.5,0.1,36.4c-1,7.2,1.5,12.9,4,18.4
			c0.8,1.8,1.7,3.7,2.4,5.6c1.2,3.4,3.1,12.5,4.8,36.8v0.4c0.4,5,9.3,15.3,11.9,17.1c1.8,1.2,5.3,1.9,7.7,1.1
			c1.3-0.4,2.1-1.3,2.5-2.5c1.3-4.1-4.5-10.3-4.6-10.3c-0.2-0.2-0.2-0.5,0-0.7s0.5-0.2,0.7,0c0.3,0.3,6.2,6.7,4.8,11.3
			c-0.5,1.5-1.5,2.5-3.1,3.1C361.3,966.9,360.4,967,359.4,967z"/>
		<path d="M357.3,961.9c-2.2,0-4-1-4-1.1c-0.2-0.1-0.3-0.4-0.2-0.7c0.1-0.2,0.4-0.3,0.7-0.2c0.2,0.1,5.1,2.9,7.9-1.7
			c0.1-0.2,0.5-0.3,0.7-0.2s0.3,0.5,0.2,0.7C361.1,961.2,359.1,961.9,357.3,961.9z"/>
		<path d="M332.8,986.5c-0.2,0-0.4-0.1-0.5-0.3c-0.1-0.3,0-0.5,0.3-0.6c0.1,0,3.2-1.1,6.2-0.6c0.3,0,0.5,0.3,0.4,0.6
			c0,0.3-0.3,0.5-0.6,0.4c-2.7-0.4-5.7,0.6-5.7,0.6C332.9,986.5,332.9,986.5,332.8,986.5z"/>
		<path d="M316.5,774L316.5,774c-0.3,0-0.5-0.2-0.5-0.5c0-0.2,0.6-17.9,1.2-26.8c0.7-8.8-6.4-29.9-6.5-30.1
			c-0.1-0.3,0.1-0.5,0.3-0.6c0.3-0.1,0.5,0.1,0.6,0.3c0.3,0.9,7.2,21.4,6.6,30.5c-0.7,8.9-1.2,26.6-1.2,26.8
			C317,773.8,316.7,774,316.5,774z"/>
		<path d="M335.2,992.9c-5.7,0-6.6-5.1-6.6-5.2c0-0.3,0.1-0.5,0.4-0.6c0.3,0,0.5,0.1,0.6,0.4c0,0.2,0.8,4.4,5.9,4.3
			c5.3-0.1,5.7-2,5.8-4.9c0-2.1-1.4-5-2.8-7.8c-1.3-2.5-2.5-5-2.8-7.2c-0.2-0.5-1.6-4.4-2.1-7.3c-0.5-2.9-1.2-24.2-1.5-33.3
			c-0.1-2.9-1.9-6.2-3.6-9.4c-1.1-2.1-2.2-4.1-2.7-5.9c-0.5-2-5.3-19.8-5.3-31.6c0-6.9-0.5-28-0.8-44.9c-0.2-9.7-0.4-18.1-0.4-22
			c0-1.7,0-3.8,0-6.1c-0.1-12.3-0.1-30.9-3-38c-3.7-9.2-6-19.4-5.3-39.2c0.5-14.5-0.2-26.2-1.2-36.3l0,0c-0.5-5-1.1-9.7-1.7-14
			s-1.5-9.8-2.4-15.6c-2.2-14-4.7-29.9-4.7-36.5c0-9.3,1.2-36.7,1.2-37c0-0.2,0.1-0.4,0.3-0.4c0.1-0.1,0.3,0,0.4,0s0.6,0.1,2.7-0.1
			c0.1,0,0.3,0,0.4,0.1s0.2,0.2,0.1,0.4c-1.4,23.3,2.5,38.4,4.5,46.5c0.7,2.6,1.1,4.4,1.3,5.8c0.6,5.7-0.7,42.8-1.2,50.6
			c1,10.1,1.7,21.9,1.2,36.4c-0.7,21.9,2.3,31.5,5.3,38.8c2.9,7.2,3,25.9,3,38.3c0,2.3,0,4.3,0,6.1c0.1,3.9,0.2,12.3,0.4,22
			c0.3,16.9,0.8,38,0.8,45c0.1,11.9,5.1,30.6,5.3,31.4c0.4,1.6,1.5,3.6,2.6,5.7c1.7,3.1,3.6,6.7,3.7,9.9c0.2,7,1,30.3,1.5,33.1
			c0.5,3,2.1,7.1,2.1,7.2v0.1c0.3,2,1.5,4.5,2.8,6.9c1.5,2.9,3,5.9,2.9,8.2c-0.1,3.7-1.2,5.8-6.7,5.9
			C335.4,992.9,335.3,992.9,335.2,992.9z M302.9,595.7c-0.2,4-1.2,27.8-1.2,36.4c0,6.6,2.5,22.4,4.6,36.4c0.9,5.8,1.8,11.3,2.4,15.6
			c0.4,2.6,0.7,5.2,1,8c0.6-13.2,1.4-39.7,0.9-44.5c-0.1-1.3-0.6-3.2-1.3-5.7c-2.1-8.1-5.9-23.1-4.6-46.2
			C303.9,595.7,303.3,595.7,302.9,595.7z M302.4,595.1L302.4,595.1L302.4,595.1z"/>
		<path d="M208.7,630.1c-0.3,0-0.5-0.2-0.5-0.5s0.2-0.5,0.5-0.5c0.1,0,6.9-0.3,9.4-1.1c0.6-0.2,0.6-0.5,0.6-0.6
			c-0.1-0.9-2-2.3-3.5-2.4c-2.3-0.2-5.1,0-5.1,0c-0.3,0-0.5-0.2-0.5-0.5s0.2-0.5,0.5-0.5c0.1,0,2.9-0.2,5.2,0
			c1.8,0.1,4.3,1.8,4.5,3.3c0,0.4,0,1.2-1.3,1.6C215.7,629.8,209,630.1,208.7,630.1L208.7,630.1z"/>
		<path d="M200.5,631.5c-0.3,0-0.5-0.2-0.5-0.4c0-0.3,0.2-0.5,0.4-0.5l3.2-0.3c0.3,0,0.5,0.2,0.5,0.4s-0.2,0.5-0.4,0.5L200.5,631.5
			L200.5,631.5z"/>
		<path d="M210.2,622.2c-0.1,0-0.3-0.1-0.4-0.2c-0.2-0.2-0.2-0.5,0-0.7c0.1,0,5.4-4.9,7.4-7c0.5-0.5,0.6-0.9,0.4-1.2
			c-0.4-0.6-1.9-0.8-2.6-0.4c-1.4,0.8-4.4,2.8-4.4,2.8c-0.2,0.2-0.5,0.1-0.7-0.1c-0.2-0.2-0.1-0.5,0.1-0.7c0.1-0.1,3-2.1,4.5-2.9
			c1.1-0.6,3.1-0.4,3.9,0.6c0.3,0.3,0.7,1.3-0.5,2.5c-2,2.1-7.2,6.8-7.5,7C210.5,622.2,210.3,622.2,210.2,622.2z"/>
		<path d="M201.3,626.2c-0.1,0-0.1,0-0.2,0c-0.3-0.1-0.4-0.4-0.3-0.7l2.2-5.1c0.1-0.3,0.4-0.4,0.7-0.3s0.4,0.4,0.3,0.7l-2.2,5.1
			C201.7,626.1,201.5,626.2,201.3,626.2z"/>
		<g>
			<path d="M271.9,428.2v-0.1c-7.1-7.7-6.8-22.6-6.8-22.8c0-0.1,0-0.2-0.1-0.3l-7.3-10.3c-0.2-0.2-0.5-0.3-0.7-0.1
				c-0.2,0.2-0.3,0.5-0.1,0.7l7.3,10.2c0,1,0,6,1.3,11.4c1.3,5.6,3.6,10,6.7,12.8l-0.1-1.2C271.9,428.4,271.9,428.3,271.9,428.2z"/>
			<path d="M275.6,462.7c0.9-5.4-2.5-26.9-3.5-32.9c0,0-0.1,0-0.1-0.1L275.6,462.7z"/>
			<path d="M272,428.5v-0.4l0,0c0,0.1,0,0.1,0,0.1C271.9,428.3,271.9,428.4,272,428.5z"/>
			<path d="M272.1,429.7L272.1,429.7c0-0.5-0.1-1-0.1-1.2L272.1,429.7z"/>
		</g>
	</g>
	<path d="M313.7,321.4c-4.8,0-8-0.5-18.6-10.8c-9.9-9.6-15-24.1-16.5-47.2c0-0.3,0.2-0.5,0.5-0.5s0.5,0.2,0.5,0.5
		c1.5,22.8,6.5,37.2,16.2,46.5c10.4,10.1,13.3,10.5,17.9,10.5s7.5-0.5,17.9-10.5c4.6-4.5,8.1-10,10.7-16.8c0.1-0.3,0.4-0.4,0.6-0.3
		c0.3,0.1,0.4,0.4,0.3,0.6c-2.6,7-6.2,12.6-10.9,17.2C321.7,320.9,318.5,321.4,313.7,321.4z"/>
	<g>
		<g>
			<g>
				<path class="st3" d="M283.8,326.9"/>
			</g>
			<path d="M278.3,318.9c0.1-0.3,0.4-0.4,0.6-0.3c0.3,0.1,0.4,0.4,0.3,0.6"/>
			<path d="M285.6,296.8c0-0.3,0.3-0.5,0.6-0.4c0.3,0,0.5,0.3,0.4,0.6"/>
			<path d="M283.3,326.9c0-0.2,0.1-0.4,0.4-0.5c0.2-0.1,0.4,0,0.6,0.2"/>
		</g>
		<path d="M332,310.8c-0.1,0-0.3-0.1-0.4-0.2c-0.2-0.2-0.2-0.5,0-0.7c9.3-9,14.2-22.3,15.9-43.2c0-0.3,0.3-0.5,0.5-0.5
			c0.3,0,0.5,0.3,0.5,0.5c-1.8,21.2-6.8,34.7-16.2,43.9C332.3,310.7,332.2,310.8,332,310.8z"/>
	</g>
	<g>
		<path d="M369.5,394.6l4.5-14.7c0.1-0.3-0.1-0.5-0.3-0.6c-0.3-0.1-0.5,0.1-0.6,0.3l-4.5,14.9c0,0.1,0,0.3,0.1,0.4
			c0.1,0.2,9.9,15.6,1.2,27.2l-0.1,0.1c0,0.1,0,0.1,0,0.1s-0.1,0.7-0.2,1.7c0.4-0.4,0.8-0.9,1.1-1.4
			C379.1,411.3,370.7,396.5,369.5,394.6z"/>
	</g>
	<g>
		<g>
			<path d="M312.4,296.2c-0.3,0-0.5-0.2-0.5-0.5c0-0.2-0.1-0.3-0.2-0.4c-0.5-0.4-1.7-0.3-2.4-0.1c-0.3,0.1-0.5-0.1-0.6-0.4
				s0.1-0.5,0.4-0.6c0.2,0,2.1-0.4,3.2,0.3c0.4,0.3,0.6,0.7,0.7,1.1C312.9,296,312.7,296.2,312.4,296.2L312.4,296.2z"/>
			<path d="M315.2,296.2C315.1,296.2,315.1,296.2,315.2,296.2c-0.3,0-0.5-0.3-0.5-0.5c0-0.5,0.3-0.9,0.7-1.1c1-0.8,3-0.4,3.2-0.3
				c0.3,0.1,0.4,0.3,0.4,0.6c-0.1,0.3-0.3,0.4-0.6,0.4c-0.6-0.1-1.9-0.2-2.4,0.1c-0.1,0.1-0.2,0.2-0.2,0.4
				C315.6,296,315.4,296.2,315.2,296.2z"/>
		</g>
		<path class="st4" d="M305.1,304.4c1.7-0.3,5.1-2.9,6.7-2.9s1.5,1.3,2,1.3s0.4-1.3,2-1.3s5,2.7,6.7,2.9c0,0-2,1.8-3,3.7
			c-1,1.9-3.6,2.3-5.7,2.3s-4.7-0.4-5.7-2.3S305.1,304.4,305.1,304.4c1.7-0.3,5.1-2.9,6.7-2.9s1.5,1.3,2,1.3s0.4-1.3,2-1.3
			s5,2.7,6.7,2.9"/>
		<path class="st5" d="M317.3,302.3c-0.6-0.3-1.2-0.5-1.6-0.5c-0.7,0-0.8,0.3-1,0.6c-0.1,0.3-0.4,0.7-0.9,0.7s-0.8-0.4-0.9-0.7
			c-0.2-0.4-0.4-0.6-1-0.6c-0.4,0-1,0.2-1.6,0.5c-0.3,0.1-0.6,0.8-0.3,0.8c0.5,0,1.3,0.1,1.7,0.1c0.8,0.1,1.4,0.4,1.8,0.7
			c0.1,0.1,0.3,0.1,0.4,0.1c0.2,0,0.3,0,0.4-0.1c0.4-0.3,1-0.6,1.8-0.7c0.4,0,1.2-0.1,1.7-0.1C317.9,303.1,317.6,302.5,317.3,302.3z
			"/>
		<path class="st6" d="M322,304.4c-0.2,0-4.6-0.5-6.3-0.3c-0.8,0.1-1.3,0.6-1.6,0.9c-0.2,0.2-0.2,0.2-0.3,0.2c-0.1,0-0.1,0-0.3-0.2
			c-0.3-0.3-0.8-0.8-1.6-0.9c-1.7-0.2-6.1,0.3-6.3,0.3c-0.5-0.1-1.1-0.8-1.1-0.1c0,0.7,0.4,0,0.9,0.1c0,0,4.6,1.9,6.2,2.1
			c0.2,0,0.3,0.1,0.6,0.3c0.3,0.3,0.8,0.8,1.6,0.8c0.8,0,1.3-0.5,1.6-0.8c0.2-0.2,0.3-0.3,0.6-0.3c1.7-0.2,6.2-2.1,6.2-2.1
			c0.6-0.1,1,0.6,0.9-0.1C323,303.6,322.5,304.3,322,304.4z"/>
		<path d="M313.7,306.5c-0.7,0-1-0.3-1.4-0.6c-0.3-0.2-0.6-0.5-1.1-0.5c-2-0.2-7.3-0.7-7.3-0.7c-0.2,0-0.4-0.2-0.3-0.4
			c0-0.2,0.2-0.4,0.4-0.3c0.1,0,5.4,0.5,7.4,0.7c0.7,0.1,1.2,0.4,1.5,0.7c0.3,0.2,0.5,0.4,0.9,0.4s0.6-0.2,0.9-0.4
			c0.3-0.3,0.7-0.6,1.5-0.7c2-0.2,7.3-0.7,7.4-0.7c0.2,0,0.4,0.1,0.4,0.3c0,0.2-0.1,0.4-0.3,0.4c-0.1,0-5.4,0.5-7.3,0.7
			c-0.5,0.1-0.8,0.3-1.1,0.5C314.8,306.2,314.4,306.5,313.7,306.5z"/>
		<path class="st5" d="M313.7,308.7c-2.2,0-3.6-0.6-4.1-1.4c-0.2-0.3-0.2-1.6,1.5-0.4c0.1,0.1,0.2,0.1,0.4,0.3
			c0.4,0.3,1,0.8,2.2,0.8s1.8-0.4,2.2-0.8c0.2-0.2,0.3-0.3,0.4-0.3c1.7-1.1,1.7,0.1,1.5,0.4C317.3,308.1,315.9,308.7,313.7,308.7
			L313.7,308.7z"/>
		<g>
			<g>
				<g>
					
						<image style="overflow:visible;enable-background:new    ;" width="87" height="86" xlink:href="20E963F4433C564A.png"  transform="matrix(1 0 0 1 253 252)">
					</image>
				</g>
				<g class="st7">
					
						<image style="overflow:visible;enable-background:new    ;" width="85" height="81" xlink:href="20E963F4433C564E.png"  transform="matrix(1 0 0 1 249 246)">
					</image>
				</g>
				<g>
					
						<image style="overflow:visible;enable-background:new    ;" width="86" height="86" xlink:href="20E963F4433C5649.png"  transform="matrix(1 0 0 1 288 252)">
					</image>
				</g>
				<g class="st7">
					
						<image style="overflow:visible;enable-background:new    ;" width="84" height="81" xlink:href="20E963F4433C564B.png"  transform="matrix(1 0 0 1 294 246)">
					</image>
				</g>
			</g>
		</g>
		<g class="st7">
			
				<image style="overflow:visible;enable-background:new    ;" width="78" height="94" xlink:href="20E963F4433C5648.png"  transform="matrix(1 0 0 1 272 233)">
			</image>
		</g>
	</g>
</g>
</svg>
