<?xml version="1.0" encoding="utf-8"?>
<!-- Generator: Adobe Illustrator 27.5.0, SVG Export Plug-In . SVG Version: 6.00 Build 0)  -->
<svg version="1.1" id="Layer_1" xmlns="http://www.w3.org/2000/svg" xmlns:xlink="http://www.w3.org/1999/xlink" x="0px" y="0px"
	 viewBox="0 0 600 1200" style="enable-background:new 0 0 600 1200;" xml:space="preserve">
<style type="text/css">
	.st0{fill:#312D51;}
	.st1{clip-path:url(#SVGID_00000066492670120764969860000017529877400806311575_);}
	.st2{fill:#FFFFFF;}
</style>
<g>
	<g>
		<g>
			<path class="st0" d="M312.3,536.1c-24.8,0-68.4-8.2-69.5-8.4c-3.7,9.6-8.1,19.6-9.6,27.4c-1.2,6.3-2.5,15.9-2.3,26.6
				c0.1,5,1,10.8,1.3,16.1l0.4-0.4c34.1-7.6,68.9,10.4,68.9,10.4l0.7,0.3c0.2-5.9,0.9-10.7,0.9-10.7s0,0,0.6,0
				c-0.3,5.7-0.2,11.3-0.1,16c-1.1,0.5,36.4-23.6,67.4-18.9l6.3,1.2c1.3-9.1,1.4-15.8,1.7-22.2c0.5-9.3-0.4-17-0.6-22
				c-0.2-5.9-2.4-14.2-4.2-20.4l-1.4,0.4C372.8,531.5,342.6,536.1,312.3,536.1z"/>
			<path d="M302.1,609.1c-0.1,0-0.2,0-0.2-0.1c-0.3-0.2-35.4-19.2-68.8-11c-0.3,0.1-0.5-0.1-0.6-0.4c-0.1-0.3,0.1-0.5,0.4-0.6
				c33.7-8.2,69.1,10.9,69.5,11.1c0.2,0.1,0.3,0.4,0.2,0.7C302.5,609,302.3,609.1,302.1,609.1z"/>
			<path d="M303.5,614c-0.2,0-0.3-0.1-0.4-0.2c-0.2-0.2-0.1-0.5,0.1-0.7c0.4-0.2,38.1-24.5,74.1-18c0.3,0,0.5,0.3,0.4,0.6
				c0,0.3-0.3,0.4-0.6,0.4c-35.6-6.3-73,17.7-73.4,17.9C303.7,613.9,303.6,614,303.5,614z"/>
			<path d="M312.3,536.6L312.3,536.6c-24.7,0-69.1-8.3-69.6-8.4c-0.3-0.1-0.4-0.3-0.4-0.6c0.1-0.3,0.3-0.4,0.6-0.4
				c0.4,0.1,44.8,8.4,69.4,8.4l0,0c30,0,61.5-4.9,61.8-5c0.3,0,0.5,0.1,0.6,0.4c0,0.3-0.1,0.5-0.4,0.6
				C374,531.6,342.3,536.6,312.3,536.6z"/>
		</g>
		<g>
			<g>
				<defs>
					<path id="SVGID_1_" d="M312.3,536.1c-24.8,0-68.4-8.2-69.5-8.4c-3.7,9.6-8.1,19.6-9.6,27.4c-1.2,6.3-2.5,15.9-2.3,26.6
						c0.1,5,1,10.8,1.3,16.1l0.4-0.4c34.1-7.6,68.9,10.4,68.9,10.4l0.7,0.3c0.2-5.9,0.9-10.7,0.9-10.7s0,0,0.6,0
						c-0.3,5.7-0.2,11.3-0.1,16c-1.1,0.5,36.4-23.6,67.4-18.9l6.3,1.2c1.3-9.1,1.4-15.8,1.7-22.2c0.5-9.3-0.4-17-0.6-22
						c-0.2-5.9-2.4-14.2-4.2-20.4l-1.4,0.4C372.8,531.5,342.6,536.1,312.3,536.1z"/>
				</defs>
				<clipPath id="SVGID_00000021823018163243678750000015135269998840888497_">
					<use xlink:href="#SVGID_1_"  style="overflow:visible;"/>
				</clipPath>
				<g style="clip-path:url(#SVGID_00000021823018163243678750000015135269998840888497_);">
					<g>
						<g>
							<path class="st2" d="M397.1,399.2c0,0-23.3-1.3-30.1,4.2c-6.8,5.5-18.6,26.3-10.6,26.3c8.1,0,27.1-16.5,34.3-21.2
								s14.8-10.6,11.9-5.1c-3,5.5-10.6,8.1-9.7,16.5c0.8,8.5,11,19.5,14,16.5s8.1-17,8.1-18.5s-5.1-15.4-5.1-15.4
								s14.4,18.2,18.2,24.6c3.8,6.4,6.4-6.8,5.9-13.1s-22.5-17-22.5-17s8.5-3.4,11.9-14.4s-1.3-25.4-7.2-26.7
								c-5.9-1.3-12.7,15.3-12.7,22s-1.3,14.8-1.3,14.8l-17-13.1c0,0-4.2-5.1-13.1-5.1s-13.1,1.7-13.1,8.9s11.4,14,20.3,12.9
								S397.1,399.2,397.1,399.2z"/>
							<path class="st2" d="M391.2,415c0,0-7.3,3.3-9.2,22c-1.9,18.7-2.2,46.7-2.2,46.7h-5.1c0,0,1.6-40.2,3.2-46.7
								C379.8,428.9,378.8,418.5,391.2,415z"/>
							<circle class="st2" cx="363.2" cy="440" r="2"/>
							<circle class="st2" cx="351.7" cy="440" r="2"/>
							<circle class="st2" cx="359.3" cy="433.8" r="2"/>
							<circle class="st2" cx="360.2" cy="447.4" r="2"/>
							<circle class="st2" cx="368.4" cy="445.4" r="2"/>
							<circle class="st2" cx="367.2" cy="454" r="2"/>
							<circle class="st2" cx="347.8" cy="456" r="2"/>
							<circle class="st2" cx="374.6" cy="431.8" r="2"/>
						</g>
						<g>
							<path class="st2" d="M468.8,449.8c0,0,20.2-11.7,22.8-20s1.2-32.2-5.5-27.8c-6.7,4.4-13.6,28.7-17.1,36.5s-6.6,17-7.1,10.8
								s4.4-12.5-0.9-19.2c-5.4-6.6-19.9-10.3-20.8-6.2c-0.9,4.1,2.6,18.6,3.4,19.9c0.8,1.2,12.7,10.1,12.7,10.1s-22-7.3-28.7-10.6
								s-1.6,9.2,2.2,14.2c3.8,5.1,28.1,1.9,28.1,1.9s-5.2,7.5-2,18.6s15,20.6,20.7,18.4s2.3-19.7-1.4-25.4
								c-3.7-5.7-7.1-13.1-7.1-13.1l21.4,1.7c0,0,6.3,1.9,13.8-2.9c7.4-4.9,10.1-8.6,6.1-14.6c-3.9-6-17.2-5.4-24.1,0.3
								C478.3,448.1,468.8,449.8,468.8,449.8z"/>
							<path class="st2" d="M465.1,433.4c0,0,4.3-6.8-4.3-23.5c-8.6-16.7-23.7-40.2-23.7-40.2l4.3-2.8c0,0,20.7,34.5,22.9,40.8
								C467.1,415.6,473.6,423.7,465.1,433.4z"/>
							<circle class="st2" cx="474.8" cy="397.2" r="2"/>
							<circle class="st2" cx="484.4" cy="390.9" r="2"/>
							<circle class="st2" cx="481.5" cy="400.2" r="2"/>
							<circle class="st2" cx="473.3" cy="389.3" r="2"/>
							<circle class="st2" cx="467.5" cy="395.5" r="2"/>
							<circle class="st2" cx="463.8" cy="387.6" r="2"/>
							<circle class="st2" cx="478.9" cy="375.4" r="2"/>
							<circle class="st2" cx="469.7" cy="410.3" r="2"/>
						</g>
						<g>
							<path class="st2" d="M262.5,306.5c0,0-23.3-1.3-30.1,4.2S213.8,337,221.8,337s27.1-16.5,34.3-21.2s14.8-10.6,11.9-5.1
								c-3,5.5-10.6,8.1-9.7,16.5c0.8,8.5,11,19.5,14,16.5s8.1-17,8.1-18.5s-5.1-15.4-5.1-15.4s14.4,18.2,18.2,24.6
								c3.8,6.4,6.4-6.8,5.9-13.1s-22.5-17-22.5-17s8.5-3.4,11.9-14.4s-1.3-25.4-7.2-26.7c-5.9-1.3-12.7,15.3-12.7,22
								s-1.3,14.8-1.3,14.8l-17-13.1c0,0-4.2-5.1-13.1-5.1s-13.1,1.7-13.1,8.9c0,7.2,11.4,14,20.3,12.9S262.5,306.5,262.5,306.5z"/>
							<path class="st2" d="M256.6,322.2c0,0-7.3,3.3-9.2,22s-2.2,46.7-2.2,46.7h-5.1c0,0,1.6-40.2,3.2-46.7
								C245.2,336.1,244.2,325.7,256.6,322.2z"/>
							<circle class="st2" cx="228.7" cy="347.2" r="2"/>
							<circle class="st2" cx="217.2" cy="347.2" r="2"/>
							<circle class="st2" cx="224.8" cy="341" r="2"/>
							<circle class="st2" cx="225.6" cy="354.6" r="2"/>
							<circle class="st2" cx="233.8" cy="352.6" r="2"/>
							<circle class="st2" cx="232.6" cy="361.2" r="2"/>
							<circle class="st2" cx="213.3" cy="363.2" r="2"/>
							<circle class="st2" cx="240.1" cy="339" r="2"/>
						</g>
						<g>
							<path class="st2" d="M334.3,357c0,0,20.2-11.7,22.8-20c2.7-8.3,1.2-32.2-5.5-27.8c-6.7,4.4-13.6,28.7-17.1,36.5
								s-6.6,17-7.1,10.8s4.4-12.5-0.9-19.2c-5.4-6.6-19.9-10.3-20.8-6.2c-0.9,4.1,2.6,18.6,3.4,19.9s12.7,10.1,12.7,10.1
								s-22-7.3-28.7-10.6c-6.7-3.2-1.6,9.2,2.2,14.2c3.8,5.1,28.1,1.9,28.1,1.9s-5.2,7.5-2,18.6s15,20.6,20.7,18.4
								s2.3-19.7-1.4-25.4c-3.7-5.7-7.1-13.1-7.1-13.1l21.4,1.7c0,0,6.3,1.9,13.8-2.9c7.4-4.9,10.1-8.6,6.1-14.6
								c-3.9-6-17.2-5.4-24.1,0.3C343.8,355.4,334.3,357,334.3,357z"/>
							<path class="st2" d="M330.6,340.6c0,0,4.3-6.8-4.3-23.5c-8.6-16.7-23.7-40.2-23.7-40.2l4.3-2.8c0,0,20.7,34.5,22.9,40.8
								C332.5,322.8,339,330.9,330.6,340.6z"/>
							<circle class="st2" cx="340.2" cy="304.4" r="2"/>
							<circle class="st2" cx="349.9" cy="298.1" r="2"/>
							<circle class="st2" cx="346.9" cy="307.4" r="2"/>
							<circle class="st2" cx="338.7" cy="296.5" r="2"/>
							<circle class="st2" cx="333" cy="302.7" r="2"/>
							<circle class="st2" cx="329.3" cy="294.8" r="2"/>
							<circle class="st2" cx="344.4" cy="282.6" r="2"/>
							<circle class="st2" cx="335.2" cy="317.5" r="2"/>
						</g>
						<g>
							<path class="st2" d="M128,213.7c0,0-23.3-1.3-30.1,4.2s-18.6,26.3-10.6,26.3s27.1-16.5,34.3-21.2c7.2-4.7,14.8-10.6,11.9-5.1
								c-3,5.5-10.6,8.1-9.7,16.5c0.8,8.5,11,19.5,14,16.5s8.1-17,8.1-18.5s-5.1-15.4-5.1-15.4s14.4,18.2,18.2,24.6
								c3.8,6.4,6.4-6.8,5.9-13.1c-0.4-6.4-22.5-17-22.5-17s8.5-3.4,11.9-14.4s-1.3-25.4-7.2-26.7s-12.7,15.3-12.7,22
								s-1.3,14.8-1.3,14.8l-17-13.1c0,0-4.2-5.1-13.1-5.1s-13.1,1.7-13.1,8.9s11.4,14,20.3,12.9S128,213.7,128,213.7z"/>
							<path class="st2" d="M122,229.4c0,0-7.3,3.3-9.2,22c-1.9,18.7-2.2,46.7-2.2,46.7h-5.1c0,0,1.6-40.2,3.2-46.7
								C110.6,243.3,109.6,232.9,122,229.4z"/>
							<circle class="st2" cx="94.1" cy="254.4" r="2"/>
							<circle class="st2" cx="82.6" cy="254.4" r="2"/>
							<circle class="st2" cx="90.2" cy="248.2" r="2"/>
							<circle class="st2" cx="91.1" cy="261.8" r="2"/>
							<circle class="st2" cx="99.3" cy="259.9" r="2"/>
							<circle class="st2" cx="98" cy="268.4" r="2"/>
							<circle class="st2" cx="78.7" cy="270.4" r="2"/>
							<circle class="st2" cx="105.5" cy="246.2" r="2"/>
						</g>
						<g>
							<path class="st2" d="M199.7,264.2c0,0,20.2-11.7,22.8-20c2.7-8.3,1.2-32.2-5.5-27.8s-13.6,28.7-17.1,36.5
								c-3.5,7.8-6.6,17-7.1,10.8s4.4-12.5-0.9-19.2c-5.4-6.6-19.9-10.3-20.8-6.2c-0.9,4.1,2.6,18.6,3.4,19.9
								c0.8,1.2,12.7,10.1,12.7,10.1s-22-7.3-28.7-10.6c-6.7-3.2-1.6,9.2,2.2,14.2c3.8,5.1,28.1,1.9,28.1,1.9s-5.2,7.5-2,18.6
								s15,20.6,20.7,18.4s2.3-19.7-1.4-25.4s-7.1-13.1-7.1-13.1l21.4,1.7c0,0,6.3,1.9,13.8-2.9c7.4-4.9,10.1-8.6,6.1-14.6
								c-3.9-6-17.2-5.4-24.1,0.3C209.2,262.6,199.7,264.2,199.7,264.2z"/>
							<path class="st2" d="M196,247.8c0,0,4.3-6.8-4.3-23.5S168,184.1,168,184.1l4.3-2.8c0,0,20.7,34.5,22.9,40.8
								C198,230,204.5,238.1,196,247.8z"/>
							<circle class="st2" cx="205.7" cy="211.6" r="2"/>
							<circle class="st2" cx="215.3" cy="205.3" r="2"/>
							<circle class="st2" cx="212.4" cy="214.7" r="2"/>
							<circle class="st2" cx="204.2" cy="203.7" r="2"/>
							<circle class="st2" cx="198.4" cy="209.9" r="2"/>
							<circle class="st2" cx="194.7" cy="202.1" r="2"/>
							<circle class="st2" cx="209.8" cy="189.8" r="2"/>
							<circle class="st2" cx="200.6" cy="224.7" r="2"/>
						</g>
						<g>
							<path class="st2" d="M379.9,523.6c0,0-23.3-1.3-30.1,4.2s-18.6,26.3-10.6,26.3c8.1,0,27.1-16.5,34.3-21.2s14.8-10.6,11.9-5.1
								c-3,5.5-10.6,8.1-9.7,16.5s11,19.5,14,16.5s8.1-17,8.1-18.5s-5.1-15.4-5.1-15.4s14.4,18.2,18.2,24.6
								c3.8,6.4,6.4-6.8,5.9-13.1c-0.4-6.4-22.5-17-22.5-17s8.5-3.4,11.9-14.4s-1.3-25.4-7.2-26.7c-5.9-1.3-12.7,15.3-12.7,22
								c0,6.8-1.3,14.8-1.3,14.8L368,504c0,0-4.2-5.1-13.1-5.1s-13.1,1.7-13.1,8.9s11.4,14,20.3,12.9S379.9,523.6,379.9,523.6z"/>
							<path class="st2" d="M374,539.4c0,0-7.3,3.3-9.2,22s-2.2,46.7-2.2,46.7h-5.1c0,0,1.6-40.2,3.2-46.7
								C362.6,553.2,361.6,542.9,374,539.4z"/>
							<circle class="st2" cx="346.1" cy="564.3" r="2"/>
							<circle class="st2" cx="334.6" cy="564.3" r="2"/>
							<circle class="st2" cx="342.2" cy="558.1" r="2"/>
							<circle class="st2" cx="343" cy="571.8" r="2"/>
							<circle class="st2" cx="351.2" cy="569.8" r="2"/>
							<circle class="st2" cx="350" cy="578.3" r="2"/>
							<circle class="st2" cx="330.7" cy="580.3" r="2"/>
							<circle class="st2" cx="357.5" cy="556.2" r="2"/>
						</g>
						<g>
							<path class="st2" d="M451.7,574.2c0,0,20.2-11.7,22.8-20c2.7-8.3,1.2-32.2-5.5-27.8s-13.6,28.7-17.1,36.5s-6.6,17-7.1,10.8
								s4.4-12.5-0.9-19.2c-5.4-6.6-19.9-10.3-20.8-6.2s2.6,18.6,3.4,19.9s12.7,10.1,12.7,10.1s-22-7.3-28.7-10.6
								c-6.7-3.2-1.6,9.2,2.2,14.2c3.8,5.1,28.1,1.9,28.1,1.9s-5.2,7.5-2,18.6s15,20.6,20.7,18.4c5.7-2.2,2.3-19.7-1.4-25.4
								c-3.7-5.7-7.1-13.1-7.1-13.1l21.4,1.7c0,0,6.3,1.9,13.8-2.9c7.4-4.9,10.1-8.6,6.1-14.6s-17.2-5.4-24.1,0.3
								C461.2,572.5,451.7,574.2,451.7,574.2z"/>
							<path class="st2" d="M448,557.7c0,0,4.3-6.8-4.3-23.5S419.9,494,419.9,494l4.3-2.8c0,0,20.7,34.5,22.9,40.8
								C449.9,539.9,456.4,548,448,557.7z"/>
							<circle class="st2" cx="457.7" cy="521.6" r="2"/>
							<circle class="st2" cx="467.3" cy="515.3" r="2"/>
							<circle class="st2" cx="464.3" cy="524.6" r="2"/>
							<circle class="st2" cx="456.2" cy="513.7" r="2"/>
							<circle class="st2" cx="450.4" cy="519.8" r="2"/>
							<circle class="st2" cx="446.7" cy="512" r="2"/>
							<circle class="st2" cx="461.8" cy="499.8" r="2"/>
							<circle class="st2" cx="452.6" cy="534.6" r="2"/>
						</g>
						<g>
							<path class="st2" d="M245.4,430.8c0,0-23.3-1.3-30.1,4.2s-18.6,26.3-10.6,26.3c8.1,0,27.1-16.5,34.3-21.2s14.8-10.6,11.9-5.1
								c-3,5.5-10.6,8.1-9.7,16.5c0.8,8.5,11,19.5,14,16.5s8.1-17,8.1-18.5s-5.1-15.4-5.1-15.4s14.4,18.2,18.2,24.6
								c3.8,6.4,6.4-6.8,5.9-13.1c-0.4-6.4-22.5-17-22.5-17s8.5-3.4,11.9-14.4s-1.3-25.4-7.2-26.7c-5.9-1.3-12.7,15.3-12.7,22
								s-1.3,14.8-1.3,14.8l-17-13.1c0,0-4.2-5.1-13.1-5.1c-8.9,0-13.1,1.7-13.1,8.9s11.4,14,20.3,12.9S245.4,430.8,245.4,430.8z"/>
							<path class="st2" d="M239.5,446.6c0,0-7.3,3.3-9.2,22s-2.2,46.7-2.2,46.7H223c0,0,1.6-40.2,3.2-46.7
								C228.1,460.4,227.1,450.1,239.5,446.6z"/>
							<circle class="st2" cx="211.5" cy="471.5" r="2"/>
							<circle class="st2" cx="200" cy="471.5" r="2"/>
							<circle class="st2" cx="207.6" cy="465.3" r="2"/>
							<circle class="st2" cx="208.5" cy="479" r="2"/>
							<circle class="st2" cx="216.7" cy="477" r="2"/>
							<circle class="st2" cx="215.5" cy="485.5" r="2"/>
							<circle class="st2" cx="196.1" cy="487.5" r="2"/>
							<circle class="st2" cx="222.9" cy="463.4" r="2"/>
						</g>
						<g>
							<path class="st2" d="M317.1,481.4c0,0,20.2-11.7,22.8-20c2.7-8.3,1.2-32.2-5.5-27.8s-13.6,28.7-17.1,36.5s-6.6,17-7.1,10.8
								s4.4-12.5-0.9-19.2c-5.4-6.6-19.9-10.3-20.8-6.2s2.6,18.6,3.4,19.9c0.8,1.2,12.7,10.1,12.7,10.1s-22-7.3-28.7-10.6
								c-6.7-3.2-1.6,9.2,2.2,14.2c3.8,5.1,28.1,1.9,28.1,1.9s-5.2,7.5-2,18.6s15,20.6,20.7,18.4c5.7-2.2,2.3-19.7-1.4-25.4
								c-3.7-5.7-7.1-13.1-7.1-13.1l21.4,1.7c0,0,6.3,1.9,13.8-2.9c7.4-4.9,10.1-8.6,6.1-14.6c-3.9-6-17.2-5.4-24.1,0.3
								C326.6,479.7,317.1,481.4,317.1,481.4z"/>
							<path class="st2" d="M313.4,464.9c0,0,4.3-6.8-4.3-23.5c-8.6-16.7-23.7-40.2-23.7-40.2l4.3-2.8c0,0,20.7,34.5,22.9,40.8
								C315.4,447.1,321.9,455.2,313.4,464.9z"/>
							<circle class="st2" cx="323.1" cy="428.8" r="2"/>
							<circle class="st2" cx="332.7" cy="422.5" r="2"/>
							<circle class="st2" cx="329.8" cy="431.8" r="2"/>
							<circle class="st2" cx="321.6" cy="420.9" r="2"/>
							<circle class="st2" cx="315.8" cy="427" r="2"/>
							<circle class="st2" cx="312.1" cy="419.2" r="2"/>
							<circle class="st2" cx="327.2" cy="407" r="2"/>
							<circle class="st2" cx="318" cy="441.8" r="2"/>
						</g>
						<g>
							<path class="st2" d="M110.8,338c0,0-23.3-1.3-30.1,4.2c-6.8,5.5-18.6,26.3-10.6,26.3s27.1-16.5,34.3-21.2s14.8-10.6,11.9-5.1
								c-3,5.5-10.6,8.1-9.7,16.5c0.8,8.5,11,19.5,14,16.5s8.1-17,8.1-18.5s-5.1-15.4-5.1-15.4s14.4,18.2,18.2,24.6
								s6.4-6.8,5.9-13.1c-0.4-6.4-22.5-17-22.5-17s8.5-3.4,11.9-14.4s-1.3-25.4-7.2-26.7c-5.9-1.3-12.7,15.3-12.7,22
								s-1.3,14.8-1.3,14.8l-17-13.1c0,0-4.2-5.1-13.1-5.1s-13.1,1.7-13.1,8.9c0,7.2,11.4,14,20.3,12.9S110.8,338,110.8,338z"/>
							<path class="st2" d="M104.9,353.8c0,0-7.3,3.3-9.2,22c-1.9,18.7-2.2,46.7-2.2,46.7h-5.1c0,0,1.6-40.2,3.2-46.7
								C93.5,367.6,92.5,357.3,104.9,353.8z"/>
							<circle class="st2" cx="77" cy="378.7" r="2"/>
							<circle class="st2" cx="65.5" cy="378.7" r="2"/>
							<circle class="st2" cx="73.1" cy="372.5" r="2"/>
							<circle class="st2" cx="73.9" cy="386.2" r="2"/>
							<circle class="st2" cx="82.1" cy="384.2" r="2"/>
							<circle class="st2" cx="80.9" cy="392.8" r="2"/>
							<circle class="st2" cx="61.6" cy="394.7" r="2"/>
							<circle class="st2" cx="88.4" cy="370.6" r="2"/>
						</g>
						<g>
							<path class="st2" d="M182.6,388.6c0,0,20.2-11.7,22.8-20s1.2-32.2-5.5-27.8c-6.7,4.4-13.6,28.7-17.1,36.5s-6.6,17-7.1,10.8
								s4.4-12.5-0.9-19.2s-19.9-10.3-20.8-6.2c-0.9,4.1,2.6,18.6,3.4,19.9c0.8,1.2,12.7,10.1,12.7,10.1s-22-7.3-28.7-10.6
								s-1.6,9.2,2.2,14.2c3.8,5.1,28.1,1.9,28.1,1.9s-5.2,7.5-2,18.6s15,20.6,20.7,18.4s2.3-19.7-1.4-25.4
								c-3.7-5.7-7.1-13.1-7.1-13.1l21.4,1.7c0,0,6.3,1.9,13.8-2.9c7.4-4.9,10.1-8.6,6.1-14.6c-3.9-6-17.2-5.4-24.1,0.3
								C192.1,386.9,182.6,388.6,182.6,388.6z"/>
							<path class="st2" d="M178.9,372.1c0,0,4.3-6.8-4.3-23.5s-23.7-40.2-23.7-40.2l4.3-2.8c0,0,20.7,34.5,22.9,40.8
								C180.8,354.3,187.3,362.4,178.9,372.1z"/>
							<circle class="st2" cx="188.5" cy="336" r="2"/>
							<circle class="st2" cx="198.2" cy="329.7" r="2"/>
							<circle class="st2" cx="195.2" cy="339" r="2"/>
							<circle class="st2" cx="187" cy="328.1" r="2"/>
							<circle class="st2" cx="181.3" cy="334.2" r="2"/>
							<circle class="st2" cx="177.6" cy="326.4" r="2"/>
							<circle class="st2" cx="192.7" cy="314.2" r="2"/>
							<circle class="st2" cx="183.5" cy="349" r="2"/>
						</g>
						<g>
							<path class="st2" d="M362.8,647.9c0,0-23.3-1.3-30.1,4.2c-6.8,5.5-18.6,26.3-10.6,26.3c8.1,0,27.1-16.5,34.3-21.2
								s14.8-10.6,11.9-5.1c-3,5.5-10.6,8.1-9.7,16.5c0.8,8.5,11,19.5,14,16.5s8.1-17,8.1-18.5s-5.1-15.4-5.1-15.4
								s14.4,18.2,18.2,24.6c3.8,6.4,6.4-6.8,5.9-13.1c-0.4-6.4-22.5-17-22.5-17s8.5-3.4,11.9-14.4s-1.3-25.4-7.2-26.7
								c-5.9-1.3-12.7,15.3-12.7,22c0,6.8-1.3,14.8-1.3,14.8l-17-13.1c0,0-4.2-5.1-13.1-5.1s-13.1,1.7-13.1,8.9s11.4,14,20.3,12.9
								S362.8,647.9,362.8,647.9z"/>
							<path class="st2" d="M356.9,663.7c0,0-7.3,3.3-9.2,22c-1.9,18.7-2.2,46.7-2.2,46.7h-5.1c0,0,1.6-40.2,3.2-46.7
								C345.5,677.6,344.5,667.2,356.9,663.7z"/>
							<circle class="st2" cx="329" cy="688.7" r="2"/>
							<circle class="st2" cx="317.5" cy="688.7" r="2"/>
							<circle class="st2" cx="325" cy="682.5" r="2"/>
							<circle class="st2" cx="325.9" cy="696.1" r="2"/>
							<circle class="st2" cx="334.1" cy="694.1" r="2"/>
							<circle class="st2" cx="332.9" cy="702.7" r="2"/>
							<circle class="st2" cx="313.5" cy="704.7" r="2"/>
							<circle class="st2" cx="340.3" cy="680.5" r="2"/>
						</g>
						<g>
							<path class="st2" d="M434.5,698.5c0,0,20.2-11.7,22.8-20c2.7-8.3,1.2-32.2-5.5-27.8s-13.6,28.7-17.1,36.5s-6.6,17-7.1,10.8
								s4.4-12.5-0.9-19.2c-5.4-6.6-19.9-10.3-20.8-6.2s2.6,18.6,3.4,19.9c0.8,1.2,12.7,10.1,12.7,10.1s-22-7.3-28.7-10.6
								c-6.7-3.2-1.6,9.2,2.2,14.2c3.8,5.1,28.1,1.9,28.1,1.9s-5.2,7.5-2,18.6s15,20.6,20.7,18.4c5.7-2.2,2.3-19.7-1.4-25.4
								c-3.7-5.7-7.1-13.1-7.1-13.1l21.4,1.7c0,0,6.3,1.9,13.8-2.9c7.4-4.9,10.1-8.6,6.1-14.6c-3.9-6-17.2-5.4-24.1,0.3
								C444.1,696.8,434.5,698.5,434.5,698.5z"/>
							<path class="st2" d="M430.8,682.1c0,0,4.3-6.8-4.3-23.5c-8.6-16.7-23.7-40.2-23.7-40.2l4.3-2.8c0,0,20.7,34.5,22.9,40.8
								C432.8,664.3,439.3,672.4,430.8,682.1z"/>
							<circle class="st2" cx="440.5" cy="645.9" r="2"/>
							<circle class="st2" cx="450.1" cy="639.6" r="2"/>
							<circle class="st2" cx="447.2" cy="648.9" r="2"/>
							<circle class="st2" cx="439" cy="638" r="2"/>
							<circle class="st2" cx="433.2" cy="644.2" r="2"/>
							<circle class="st2" cx="429.6" cy="636.3" r="2"/>
							<circle class="st2" cx="444.7" cy="624.1" r="2"/>
							<circle class="st2" cx="435.5" cy="659" r="2"/>
						</g>
						<g>
							<path class="st2" d="M228.2,555.2c0,0-23.3-1.3-30.1,4.2s-18.6,26.3-10.6,26.3s27.1-16.5,34.3-21.2s14.8-10.6,11.9-5.1
								c-3,5.5-10.6,8.1-9.7,16.5s11,19.5,14,16.5s8.1-17,8.1-18.5s-5.1-15.4-5.1-15.4s14.4,18.2,18.2,24.6
								c3.8,6.4,6.4-6.8,5.9-13.1c-0.4-6.4-22.5-17-22.5-17s8.5-3.4,11.9-14.4s-1.3-25.4-7.2-26.7s-12.7,15.3-12.7,22
								c0,6.8-1.3,14.8-1.3,14.8l-17-13.1c0,0-4.2-5.1-13.1-5.1s-13.1,1.7-13.1,8.9s11.4,14,20.3,12.9S228.2,555.2,228.2,555.2z"/>
							<path class="st2" d="M222.3,570.9c0,0-7.3,3.3-9.2,22s-2.2,46.7-2.2,46.7h-5.1c0,0,1.6-40.2,3.2-46.7
								C210.9,584.8,209.9,574.4,222.3,570.9z"/>
							<circle class="st2" cx="194.4" cy="595.9" r="2"/>
							<circle class="st2" cx="182.9" cy="595.9" r="2"/>
							<circle class="st2" cx="190.5" cy="589.7" r="2"/>
							<circle class="st2" cx="191.3" cy="603.3" r="2"/>
							<circle class="st2" cx="199.5" cy="601.3" r="2"/>
							<circle class="st2" cx="198.3" cy="609.9" r="2"/>
							<circle class="st2" cx="179" cy="611.9" r="2"/>
							<circle class="st2" cx="205.8" cy="587.7" r="2"/>
						</g>
						<g>
							<path class="st2" d="M300,605.7c0,0,20.2-11.7,22.8-20c2.7-8.3,1.2-32.2-5.5-27.8s-13.6,28.7-17.1,36.5s-6.6,17-7.1,10.8
								s4.4-12.5-0.9-19.2c-5.4-6.6-19.9-10.3-20.8-6.2s2.6,18.6,3.4,19.9s12.7,10.1,12.7,10.1s-22-7.3-28.7-10.6
								c-6.7-3.2-1.6,9.2,2.2,14.2s28.1,1.9,28.1,1.9s-5.2,7.5-2,18.6s15,20.6,20.7,18.4c5.7-2.2,2.3-19.7-1.4-25.4
								c-3.7-5.7-7.1-13.1-7.1-13.1l21.4,1.7c0,0,6.3,1.9,13.8-2.9c7.4-4.9,10.1-8.6,6.1-14.6c-3.9-6-17.2-5.4-24.1,0.3
								C309.5,604.1,300,605.7,300,605.7z"/>
							<path class="st2" d="M296.3,589.3c0,0,4.3-6.8-4.3-23.5c-8.6-16.7-23.7-40.2-23.7-40.2l4.3-2.8c0,0,20.7,34.5,22.9,40.8
								C298.2,571.5,304.7,579.6,296.3,589.3z"/>
							<circle class="st2" cx="306" cy="553.1" r="2"/>
							<circle class="st2" cx="315.6" cy="546.8" r="2"/>
							<circle class="st2" cx="312.6" cy="556.1" r="2"/>
							<circle class="st2" cx="304.5" cy="545.2" r="2"/>
							<circle class="st2" cx="298.7" cy="551.4" r="2"/>
							<circle class="st2" cx="295" cy="543.5" r="2"/>
							<circle class="st2" cx="310.1" cy="531.3" r="2"/>
							<circle class="st2" cx="300.9" cy="566.2" r="2"/>
						</g>
						<g>
							<path class="st2" d="M93.7,462.4c0,0-23.3-1.3-30.1,4.2S45,492.9,53,492.9s27.1-16.5,34.3-21.2c7.2-4.7,14.8-10.6,11.9-5.1
								c-3,5.5-10.6,8.1-9.7,16.5c0.8,8.5,11,19.5,14,16.5s8.1-17,8.1-18.5s-5.1-15.4-5.1-15.4s14.4,18.2,18.2,24.6
								c3.8,6.4,6.4-6.8,5.9-13.1c-0.4-6.4-22.5-17-22.5-17s8.5-3.4,11.9-14.4s-1.3-25.4-7.2-26.7c-5.9-1.3-12.7,15.3-12.7,22
								S98.8,456,98.8,456l-17-13.1c0,0-4.2-5.1-13.1-5.1s-13.1,1.7-13.1,8.9c0,7.2,11.4,14,20.3,12.9S93.7,462.4,93.7,462.4z"/>
							<path class="st2" d="M87.8,478.1c0,0-7.3,3.3-9.2,22c-1.9,18.7-2.2,46.7-2.2,46.7h-5.1c0,0,1.6-40.2,3.2-46.7
								C76.4,492,75.4,481.6,87.8,478.1z"/>
							<circle class="st2" cx="59.8" cy="503.1" r="2"/>
							<circle class="st2" cx="48.3" cy="503.1" r="2"/>
							<circle class="st2" cx="55.9" cy="496.9" r="2"/>
							<circle class="st2" cx="56.8" cy="510.5" r="2"/>
							<circle class="st2" cx="65" cy="508.6" r="2"/>
							<circle class="st2" cx="63.8" cy="517.1" r="2"/>
							<circle class="st2" cx="44.4" cy="519.1" r="2"/>
							<circle class="st2" cx="71.2" cy="494.9" r="2"/>
						</g>
						<g>
							<path class="st2" d="M165.4,512.9c0,0,20.2-11.7,22.8-20c2.7-8.3,1.2-32.2-5.5-27.8c-6.7,4.4-13.6,28.7-17.1,36.5
								s-6.6,17-7.1,10.8s4.4-12.5-0.9-19.2c-5.4-6.6-19.9-10.3-20.8-6.2c-0.9,4.1,2.6,18.6,3.4,19.9s12.7,10.1,12.7,10.1
								s-22-7.3-28.7-10.6c-6.7-3.2-1.6,9.2,2.2,14.2c3.8,5.1,28.1,1.9,28.1,1.9s-5.2,7.5-2,18.6s15,20.6,20.7,18.4
								s2.3-19.7-1.4-25.4s-7.1-13.1-7.1-13.1l21.4,1.7c0,0,6.3,1.9,13.8-2.9c7.4-4.9,10.1-8.6,6.1-14.6c-3.9-6-17.2-5.4-24.1,0.3
								C174.9,511.3,165.4,512.9,165.4,512.9z"/>
							<path class="st2" d="M161.7,496.5c0,0,4.3-6.8-4.3-23.5s-23.7-40.2-23.7-40.2l4.3-2.8c0,0,20.7,34.5,22.9,40.8
								C163.7,478.7,170.2,486.8,161.7,496.5z"/>
							<circle class="st2" cx="171.4" cy="460.3" r="2"/>
							<circle class="st2" cx="181" cy="454" r="2"/>
							<circle class="st2" cx="178.1" cy="463.4" r="2"/>
							<circle class="st2" cx="169.9" cy="452.4" r="2"/>
							<circle class="st2" cx="164.1" cy="458.6" r="2"/>
							<circle class="st2" cx="160.4" cy="450.8" r="2"/>
							<circle class="st2" cx="175.5" cy="438.5" r="2"/>
							<circle class="st2" cx="166.3" cy="473.4" r="2"/>
						</g>
						<g>
							<path class="st2" d="M345.7,772.3c0,0-23.3-1.3-30.1,4.2S297,802.8,305,802.8c8.1,0,27.1-16.5,34.3-21.2
								c7.2-4.7,14.8-10.6,11.9-5.1c-3,5.5-10.6,8.1-9.7,16.5c0.8,8.5,11,19.5,14,16.5s8.1-17,8.1-18.5s-5.1-15.4-5.1-15.4
								s14.4,18.2,18.2,24.6c3.8,6.4,6.4-6.8,5.9-13.1c-0.4-6.4-22.5-17-22.5-17s8.5-3.4,11.9-14.4s-1.3-25.4-7.2-26.7
								c-5.9-1.3-12.7,15.3-12.7,22c0,6.8-1.3,14.8-1.3,14.8l-17-13.1c0,0-4.2-5.1-13.1-5.1s-13.1,1.7-13.1,8.9s11.4,14,20.3,12.9
								C336.8,768.5,345.7,772.3,345.7,772.3z"/>
							<path class="st2" d="M339.7,788.1c0,0-7.3,3.3-9.2,22c-1.9,18.7-2.2,46.7-2.2,46.7h-5.1c0,0,1.6-40.2,3.2-46.7
								C328.3,801.9,327.3,791.6,339.7,788.1z"/>
							<circle class="st2" cx="311.8" cy="813" r="2"/>
							<circle class="st2" cx="300.3" cy="813" r="2"/>
							<circle class="st2" cx="307.9" cy="806.8" r="2"/>
							<circle class="st2" cx="308.7" cy="820.5" r="2"/>
							<circle class="st2" cx="316.9" cy="818.5" r="2"/>
							<circle class="st2" cx="315.7" cy="827" r="2"/>
							<circle class="st2" cx="296.4" cy="829" r="2"/>
							<circle class="st2" cx="323.2" cy="804.9" r="2"/>
						</g>
						<g>
							<path class="st2" d="M417.4,822.9c0,0,20.2-11.7,22.8-20c2.7-8.3,1.2-32.2-5.5-27.8s-13.6,28.7-17.1,36.5s-6.6,17-7.1,10.8
								s4.4-12.5-0.9-19.2c-5.4-6.6-19.9-10.3-20.8-6.2s2.6,18.6,3.4,19.9s12.7,10.1,12.7,10.1s-22-7.3-28.7-10.6
								c-6.7-3.2-1.6,9.2,2.2,14.2s28.1,1.9,28.1,1.9s-5.2,7.5-2,18.6s15,20.6,20.7,18.4c5.7-2.2,2.3-19.7-1.4-25.4
								c-3.7-5.7-7.1-13.1-7.1-13.1l21.4,1.7c0,0,6.3,1.9,13.8-2.9c7.4-4.9,10.1-8.6,6.1-14.6c-3.9-6-17.2-5.4-24.1,0.3
								C426.9,821.2,417.4,822.9,417.4,822.9z"/>
							<path class="st2" d="M413.7,806.4c0,0,4.3-6.8-4.3-23.5s-23.7-40.2-23.7-40.2l4.3-2.8c0,0,20.7,34.5,22.9,40.8
								C415.6,788.6,422.1,796.7,413.7,806.4z"/>
							<circle class="st2" cx="423.4" cy="770.3" r="2"/>
							<circle class="st2" cx="433" cy="764" r="2"/>
							<circle class="st2" cx="430.1" cy="773.3" r="2"/>
							<circle class="st2" cx="421.9" cy="762.4" r="2"/>
							<circle class="st2" cx="416.1" cy="768.5" r="2"/>
							<circle class="st2" cx="412.4" cy="760.7" r="2"/>
							<circle class="st2" cx="427.5" cy="748.5" r="2"/>
							<circle class="st2" cx="418.3" cy="783.3" r="2"/>
						</g>
						<g>
							<path class="st2" d="M211.1,679.5c0,0-23.3-1.3-30.1,4.2S162.4,710,170.4,710c8.1,0,27.1-16.5,34.3-21.2s14.8-10.6,11.9-5.1
								c-3,5.5-10.6,8.1-9.7,16.5c0.8,8.5,11,19.5,14,16.5s8.1-17,8.1-18.5s-5.1-15.4-5.1-15.4s14.4,18.2,18.2,24.6
								c3.8,6.4,6.4-6.8,5.9-13.1c-0.4-6.4-22.5-17-22.5-17s8.5-3.4,11.9-14.4s-1.3-25.4-7.2-26.7s-12.7,15.3-12.7,22
								c0,6.8-1.3,14.8-1.3,14.8l-17-13.1c0,0-4.2-5.1-13.1-5.1c-8.9,0-13.1,1.7-13.1,8.9s11.4,14,20.3,12.9
								S211.1,679.5,211.1,679.5z"/>
							<path class="st2" d="M205.2,695.3c0,0-7.3,3.3-9.2,22s-2.2,46.7-2.2,46.7h-5.1c0,0,1.6-40.2,3.2-46.7
								C193.8,709.1,192.8,698.8,205.2,695.3z"/>
							<circle class="st2" cx="177.3" cy="720.2" r="2"/>
							<circle class="st2" cx="165.8" cy="720.2" r="2"/>
							<circle class="st2" cx="173.3" cy="714" r="2"/>
							<circle class="st2" cx="174.2" cy="727.7" r="2"/>
							<circle class="st2" cx="182.4" cy="725.7" r="2"/>
							<circle class="st2" cx="181.2" cy="734.2" r="2"/>
							<circle class="st2" cx="161.8" cy="736.2" r="2"/>
							<circle class="st2" cx="188.6" cy="712.1" r="2"/>
						</g>
						<g>
							<path class="st2" d="M282.8,730.1c0,0,20.2-11.7,22.8-20s1.2-32.2-5.5-27.8S286.5,711,283,718.8s-6.6,17-7.1,10.8
								s4.4-12.5-0.9-19.2c-5.4-6.6-19.9-10.3-20.8-6.2c-0.9,4.1,2.6,18.6,3.4,19.9s12.7,10.1,12.7,10.1s-22-7.3-28.7-10.6
								c-6.7-3.2-1.6,9.2,2.2,14.2c3.8,5.1,28.1,1.9,28.1,1.9s-5.2,7.5-2,18.6s15,20.6,20.7,18.4s2.3-19.7-1.4-25.4
								c-3.7-5.7-7.1-13.1-7.1-13.1l21.4,1.7c0,0,6.3,1.9,13.8-2.9c7.4-4.9,10.1-8.6,6.1-14.6c-3.9-6-17.2-5.4-24.1,0.3
								C292.4,728.4,282.8,730.1,282.8,730.1z"/>
							<path class="st2" d="M279.1,713.6c0,0,4.3-6.8-4.3-23.5c-8.6-16.7-23.7-40.2-23.7-40.2l4.3-2.8c0,0,20.7,34.5,22.9,40.8
								C281.1,695.8,287.6,703.9,279.1,713.6z"/>
							<circle class="st2" cx="288.8" cy="677.5" r="2"/>
							<circle class="st2" cx="298.4" cy="671.2" r="2"/>
							<circle class="st2" cx="295.5" cy="680.5" r="2"/>
							<circle class="st2" cx="287.3" cy="669.6" r="2"/>
							<circle class="st2" cx="281.5" cy="675.7" r="2"/>
							<circle class="st2" cx="277.9" cy="667.9" r="2"/>
							<circle class="st2" cx="293" cy="655.7" r="2"/>
							<circle class="st2" cx="283.8" cy="690.5" r="2"/>
						</g>
						<g>
							<path class="st2" d="M76.6,586.7c0,0-23.3-1.3-30.1,4.2s-18.6,26.3-10.6,26.3S63,600.7,70.2,596s14.8-10.6,11.9-5.1
								c-3,5.5-10.6,8.1-9.7,16.5c0.8,8.5,11,19.5,14,16.5s8.1-17,8.1-18.5S89.4,590,89.4,590s14.4,18.2,18.2,24.6
								c3.8,6.4,6.4-6.8,5.9-13.1c-0.4-6.4-22.5-17-22.5-17s8.5-3.4,11.9-14.4s-1.3-25.4-7.2-26.7c-5.9-1.3-12.7,15.3-12.7,22
								c0,6.8-1.3,14.8-1.3,14.8l-17-13.1c0,0-4.2-5.1-13.1-5.1s-13.1,1.7-13.1,8.9s11.4,14,20.3,12.9S76.6,586.7,76.6,586.7z"/>
							<path class="st2" d="M70.6,602.5c0,0-7.3,3.3-9.2,22s-2.2,46.7-2.2,46.7h-5.1c0,0,1.6-40.2,3.2-46.7
								C59.2,616.3,58.2,606,70.6,602.5z"/>
							<circle class="st2" cx="42.7" cy="627.4" r="2"/>
							<circle class="st2" cx="31.2" cy="627.4" r="2"/>
							<circle class="st2" cx="38.8" cy="621.2" r="2"/>
							<circle class="st2" cx="39.6" cy="634.9" r="2"/>
							<circle class="st2" cx="47.8" cy="632.9" r="2"/>
							<circle class="st2" cx="46.6" cy="641.5" r="2"/>
							<circle class="st2" cx="27.3" cy="643.4" r="2"/>
							<circle class="st2" cx="54.1" cy="619.3" r="2"/>
						</g>
						<g>
							<path class="st2" d="M148.3,637.3c0,0,20.2-11.7,22.8-20s1.2-32.2-5.5-27.8S152,618.2,148.5,626s-6.6,17-7.1,10.8
								s4.4-12.5-0.9-19.2s-19.9-10.3-20.8-6.2s2.6,18.6,3.4,19.9c0.8,1.2,12.7,10.1,12.7,10.1s-22-7.3-28.7-10.6s-1.6,9.2,2.2,14.2
								c3.8,5.1,28.1,1.9,28.1,1.9s-5.2,7.5-2,18.6s15,20.6,20.7,18.4c5.7-2.2,2.3-19.7-1.4-25.4s-7.1-13.1-7.1-13.1l21.4,1.7
								c0,0,6.3,1.9,13.8-2.9c7.4-4.9,10.1-8.6,6.1-14.6c-3.9-6-17.2-5.4-24.1,0.3S148.3,637.3,148.3,637.3z"/>
							<path class="st2" d="M144.6,620.8c0,0,4.3-6.8-4.3-23.5s-23.7-40.2-23.7-40.2l4.3-2.8c0,0,20.7,34.5,22.9,40.8
								C146.5,603,153,611.1,144.6,620.8z"/>
							<circle class="st2" cx="154.3" cy="584.7" r="2"/>
							<circle class="st2" cx="163.9" cy="578.4" r="2"/>
							<circle class="st2" cx="160.9" cy="587.7" r="2"/>
							<circle class="st2" cx="152.8" cy="576.8" r="2"/>
							<circle class="st2" cx="147" cy="582.9" r="2"/>
							<circle class="st2" cx="143.3" cy="575.1" r="2"/>
							<circle class="st2" cx="158.4" cy="562.9" r="2"/>
							<circle class="st2" cx="149.2" cy="597.7" r="2"/>
						</g>
					</g>
				</g>
			</g>
		</g>
		<path d="M303.5,614c-0.1,0-0.3,0-0.4-0.1s-0.2-0.3-0.1-0.5c-0.1-2.4-0.2-5.6-0.2-9c-0.1,1.2-0.2,2.5-0.2,3.9
			c0,0.2-0.1,0.3-0.2,0.4c-0.1,0.1-0.3,0.1-0.5,0l-0.7-0.3c-0.4-0.2-34.9-17.8-68.4-10.4l-0.3,0.3c-0.1,0.1-0.4,0.2-0.5,0.1
			c-0.2-0.1-0.3-0.2-0.3-0.4c-0.1-2.4-0.4-5-0.6-7.5c-0.3-2.9-0.6-5.9-0.6-8.6c-0.3-11.8,1.3-21.8,2.3-26.7c1.2-6,4-13.2,7-20.8
			c0.9-2.2,1.8-4.5,2.6-6.7c0.1-0.2,0.3-0.4,0.6-0.3c0.4,0.1,44.5,8.4,69.4,8.4l0,0c30,0,60.1-4.5,60.4-4.6l1.3-0.4
			c0.1,0,0.3,0,0.4,0c0.1,0.1,0.2,0.2,0.2,0.3c2.1,7.4,4,14.9,4.2,20.5c0,1.4,0.1,3,0.2,4.9c0.3,4.7,0.6,10.5,0.3,17.2
			c-0.1,1.2-0.1,2.5-0.2,3.8c-0.2,5.2-0.5,11.1-1.5,18.5c0,0.1-0.1,0.3-0.2,0.3c-0.1,0.1-0.2,0.1-0.4,0.1l-6.3-1.2
			c-29.8-4.4-65.3,17.7-67,18.8l-0.1,0.1C303.7,613.9,303.6,614,303.5,614z M303,596.9h0.6c0.1,0,0.3,0.1,0.4,0.2
			c0.1,0.1,0.1,0.2,0.1,0.4c-0.3,5.6-0.2,11.2-0.1,15.2c5.9-3.8,38.6-22.8,67-18.6l5.8,1.1c1-7.1,1.2-12.8,1.4-17.9
			c0.1-1.3,0.1-2.5,0.2-3.8c0.3-6.7,0-12.4-0.3-17.1c-0.1-1.9-0.2-3.5-0.3-4.9c-0.2-5.4-2-12.7-4-19.8L373,532
			c-0.4,0.1-30.6,4.6-60.7,4.6l0,0c-23.7,0-64.6-7.5-69.2-8.3c-0.8,2.1-1.7,4.3-2.5,6.4c-3,7.5-5.8,14.6-7,20.6
			c-1,4.9-2.5,14.8-2.3,26.5c0.1,2.7,0.4,5.7,0.6,8.5c0.2,2.2,0.4,4.5,0.6,6.7c33.9-7.4,68.7,10.3,69,10.5l0,0
			c0.3-5.6,0.8-10,0.9-10C302.6,597.1,302.8,596.9,303,596.9z"/>
	</g>
</g>
</svg>
