<?xml version="1.0" encoding="utf-8"?>
<!-- Generator: Adobe Illustrator 27.0.0, SVG Export Plug-In . SVG Version: 6.00 Build 0)  -->
<svg version="1.1" id="Layer_1" xmlns="http://www.w3.org/2000/svg" xmlns:xlink="http://www.w3.org/1999/xlink" x="0px" y="0px"
	 viewBox="0 0 600 1200" style="enable-background:new 0 0 600 1200;" xml:space="preserve">
<style type="text/css">
	.st0{fill:#7F374F;}
	.st1{clip-path:url(#SVGID_00000022539815742350783330000007148481844696959673_);}
	.st2{opacity:0.5;fill:#FFFFFF;}
	.st3{clip-path:url(#SVGID_00000143594651646144664360000015638575007031016357_);}
</style>
<g>
	<g>
		<g>
			<path class="st0" d="M378.1,542.5c-8.9,0.7-30.2,2.5-42.5,9c-14.3,7.6-17.8,6.5-25.3,6.4c-10.1-0.2-28.5-9.2-38.1-18
				c-11.4-10.4-30.3-8-30.3-8l-1.6,4.6c0,0,11.8-2.2,23.4,7.3c11.6,9.5,37.6,53.6,40,53.4h3c0,0,3.8,0.9,9.1-6.3
				c5.4-7.2,39.8-44.3,63.1-43.3l-0.1-1.2C378.5,545,378.3,543.8,378.1,542.5z"/>
			<path d="M306.9,597.7c-0.2,0-0.4,0-0.5,0h-2.9c-1.1,0.1-3.6-3.4-12.9-17.1c-8.8-13-20.7-30.9-27.5-36.4
				c-11.2-9.2-22.9-7.2-23-7.2c-0.2,0-0.4,0-0.5-0.2c-0.1-0.1-0.2-0.3-0.1-0.5l1.6-4.6c0.1-0.2,0.2-0.3,0.4-0.3
				c0.2,0,19.3-2.3,30.7,8.2c9.9,9,28.2,17.7,37.8,17.9c0.8,0,1.5,0,2.2,0.1c6.1,0.2,10.1,0.3,22.9-6.4c12.3-6.5,33.4-8.2,42.4-9
				l0.3,0c0.3,0,0.5,0.2,0.5,0.4c0.2,1.2,0.4,2.5,0.6,3.8l0.1,1.3c0,0.1,0,0.3-0.1,0.4s-0.2,0.2-0.4,0.1
				c-12.2-0.5-27.4,9.7-37.9,18.5c-12.4,10.2-22.2,21.2-24.7,24.7C311.7,597.1,308.2,597.7,306.9,597.7z M306.5,596.7
				c0,0,0.1,0,0.1,0c0,0,3.6,0.7,8.6-6.1c4.1-5.5,38.3-43.5,62.5-43.5c0.1,0,0.3,0,0.4,0l0-0.7c-0.2-1.1-0.3-2.2-0.5-3.3
				c-9,0.8-29.8,2.5-41.9,8.9c-13,6.9-17.1,6.7-23.4,6.5c-0.7,0-1.4,0-2.2-0.1c-9.9-0.2-28.2-8.8-38.4-18.1
				c-10.3-9.4-27.2-8.2-29.6-7.9l-1.3,3.6c2.9-0.3,13.1-0.6,23,7.5c6.8,5.6,18.4,22.8,27.7,36.6c5.4,8,11,16.3,12.1,16.7
				L306.5,596.7z"/>
		</g>
		<g>
			<defs>
				<path id="SVGID_1_" d="M378.1,542.5c-8.9,0.7-30.2,2.5-42.5,9c-14.3,7.6-17.8,6.5-25.3,6.4c-10.1-0.2-28.5-9.2-38.1-18
					c-11.4-10.4-30.3-8-30.3-8l-1.6,4.6c0,0,11.8-2.2,23.4,7.3c11.6,9.5,37.6,53.6,40,53.4h3c0,0,3.8,0.9,9.1-6.3
					c5.4-7.2,39.8-44.3,63.1-43.3l-0.1-1.2C378.5,545,378.3,543.8,378.1,542.5z"/>
			</defs>
			<clipPath id="SVGID_00000031186614200137453680000011296898587280726192_">
				<use xlink:href="#SVGID_1_"  style="overflow:visible;"/>
			</clipPath>
			<g style="clip-path:url(#SVGID_00000031186614200137453680000011296898587280726192_);">
				<rect x="176.9" y="434.3" class="st2" width="229.8" height="2.4"/>
				<rect x="176.9" y="439.1" class="st2" width="229.8" height="2.4"/>
				<rect x="176.9" y="443.9" class="st2" width="229.8" height="2.4"/>
				<rect x="176.9" y="448.8" class="st2" width="229.8" height="2.4"/>
				<rect x="176.9" y="453.6" class="st2" width="229.8" height="2.4"/>
				<rect x="176.9" y="458.5" class="st2" width="229.8" height="2.4"/>
				<rect x="176.9" y="463.3" class="st2" width="229.8" height="2.4"/>
				<rect x="176.9" y="468.2" class="st2" width="229.8" height="2.4"/>
				<rect x="176.9" y="473" class="st2" width="229.8" height="2.4"/>
				<rect x="176.9" y="477.8" class="st2" width="229.8" height="2.4"/>
				<rect x="176.9" y="482.7" class="st2" width="229.8" height="2.4"/>
				<rect x="176.9" y="487.5" class="st2" width="229.8" height="2.4"/>
				<rect x="176.9" y="492.4" class="st2" width="229.8" height="2.4"/>
				<rect x="176.9" y="497.2" class="st2" width="229.8" height="2.4"/>
				<rect x="176.9" y="502.1" class="st2" width="229.8" height="2.4"/>
				<rect x="176.9" y="506.9" class="st2" width="229.8" height="2.4"/>
				<rect x="176.9" y="511.7" class="st2" width="229.8" height="2.4"/>
				<rect x="176.9" y="516.6" class="st2" width="229.8" height="2.4"/>
				<rect x="176.9" y="521.4" class="st2" width="229.8" height="2.4"/>
				<rect x="176.9" y="526.3" class="st2" width="229.8" height="2.4"/>
				<rect x="176.9" y="531.1" class="st2" width="229.8" height="2.4"/>
				<rect x="176.9" y="536" class="st2" width="229.8" height="2.4"/>
				<rect x="176.9" y="540.8" class="st2" width="229.8" height="2.4"/>
				<rect x="176.9" y="545.6" class="st2" width="229.8" height="2.4"/>
				<rect x="176.9" y="550.5" class="st2" width="229.8" height="2.4"/>
				<rect x="176.9" y="555.3" class="st2" width="229.8" height="2.4"/>
				<rect x="176.9" y="560.2" class="st2" width="229.8" height="2.4"/>
				<rect x="176.9" y="565" class="st2" width="229.8" height="2.4"/>
				<rect x="176.9" y="569.9" class="st2" width="229.8" height="2.4"/>
				<rect x="176.9" y="574.7" class="st2" width="229.8" height="2.4"/>
				<rect x="176.9" y="579.5" class="st2" width="229.8" height="2.4"/>
				<rect x="176.9" y="584.4" class="st2" width="229.8" height="2.4"/>
				<rect x="176.9" y="589.2" class="st2" width="229.8" height="2.4"/>
				<rect x="176.9" y="594.1" class="st2" width="229.8" height="2.4"/>
				<rect x="176.9" y="598.9" class="st2" width="229.8" height="2.4"/>
				<rect x="176.9" y="603.8" class="st2" width="229.8" height="2.4"/>
				<rect x="176.9" y="608.6" class="st2" width="229.8" height="2.4"/>
				<rect x="176.9" y="613.4" class="st2" width="229.8" height="2.4"/>
				<rect x="176.9" y="618.3" class="st2" width="229.8" height="2.4"/>
				<rect x="176.9" y="623.1" class="st2" width="229.8" height="2.4"/>
				<rect x="176.9" y="628" class="st2" width="229.8" height="2.4"/>
				
					<rect x="273.7" y="531.1" transform="matrix(-1.836970e-16 1 -1 -1.836970e-16 920.9225 143.6783)" class="st2" width="229.8" height="2.4"/>
				
					<rect x="268.9" y="531.1" transform="matrix(-1.836970e-16 1 -1 -1.836970e-16 916.0794 148.5215)" class="st2" width="229.8" height="2.4"/>
				
					<rect x="264.1" y="531.1" transform="matrix(-1.836970e-16 1 -1 -1.836970e-16 911.2363 153.3646)" class="st2" width="229.8" height="2.4"/>
				
					<rect x="259.2" y="531.1" transform="matrix(-1.836970e-16 1 -1 -1.836970e-16 906.3931 158.2077)" class="st2" width="229.8" height="2.4"/>
				
					<rect x="254.4" y="531.1" transform="matrix(-1.836970e-16 1 -1 -1.836970e-16 901.55 163.0509)" class="st2" width="229.8" height="2.4"/>
				
					<rect x="249.5" y="531.1" transform="matrix(-1.836970e-16 1 -1 -1.836970e-16 896.7068 167.894)" class="st2" width="229.8" height="2.4"/>
				
					<rect x="244.7" y="531.1" transform="matrix(-1.836970e-16 1 -1 -1.836970e-16 891.8637 172.7372)" class="st2" width="229.8" height="2.4"/>
				
					<rect x="239.8" y="531.1" transform="matrix(-1.836970e-16 1 -1 -1.836970e-16 887.0206 177.5803)" class="st2" width="229.8" height="2.4"/>
				
					<rect x="235" y="531.1" transform="matrix(-1.836970e-16 1 -1 -1.836970e-16 882.1774 182.4234)" class="st2" width="229.8" height="2.4"/>
				
					<rect x="230.1" y="531.1" transform="matrix(-1.836970e-16 1 -1 -1.836970e-16 877.3343 187.2666)" class="st2" width="229.8" height="2.4"/>
				
					<rect x="225.3" y="531.1" transform="matrix(-1.836970e-16 1 -1 -1.836970e-16 872.4911 192.1097)" class="st2" width="229.8" height="2.4"/>
				
					<rect x="220.5" y="531.1" transform="matrix(-1.836970e-16 1 -1 -1.836970e-16 867.648 196.9529)" class="st2" width="229.8" height="2.4"/>
				
					<rect x="215.6" y="531.1" transform="matrix(-1.836970e-16 1 -1 -1.836970e-16 862.8049 201.796)" class="st2" width="229.8" height="2.4"/>
				
					<rect x="210.8" y="531.1" transform="matrix(-1.836970e-16 1 -1 -1.836970e-16 857.9617 206.6391)" class="st2" width="229.8" height="2.4"/>
				
					<rect x="205.9" y="531.1" transform="matrix(-1.836970e-16 1 -1 -1.836970e-16 853.1186 211.4823)" class="st2" width="229.8" height="2.4"/>
				
					<rect x="201.1" y="531.1" transform="matrix(-1.836970e-16 1 -1 -1.836970e-16 848.2755 216.3254)" class="st2" width="229.8" height="2.4"/>
				
					<rect x="196.2" y="531.1" transform="matrix(-1.836970e-16 1 -1 -1.836970e-16 843.4323 221.1685)" class="st2" width="229.8" height="2.4"/>
				
					<rect x="191.4" y="531.1" transform="matrix(-1.836970e-16 1 -1 -1.836970e-16 838.5892 226.0117)" class="st2" width="229.8" height="2.4"/>
				
					<rect x="186.6" y="531.1" transform="matrix(-1.836970e-16 1 -1 -1.836970e-16 833.746 230.8548)" class="st2" width="229.8" height="2.4"/>
				
					<rect x="181.7" y="531.1" transform="matrix(-1.836970e-16 1 -1 -1.836970e-16 828.9029 235.698)" class="st2" width="229.8" height="2.4"/>
				
					<rect x="176.9" y="531.1" transform="matrix(-1.836970e-16 1 -1 -1.836970e-16 824.0598 240.5411)" class="st2" width="229.8" height="2.4"/>
				
					<rect x="172" y="531.1" transform="matrix(-1.836970e-16 1 -1 -1.836970e-16 819.2166 245.3842)" class="st2" width="229.8" height="2.4"/>
				
					<rect x="167.2" y="531.1" transform="matrix(-1.836970e-16 1 -1 -1.836970e-16 814.3735 250.2274)" class="st2" width="229.8" height="2.4"/>
				
					<rect x="162.3" y="531.1" transform="matrix(-1.836970e-16 1 -1 -1.836970e-16 809.5303 255.0705)" class="st2" width="229.8" height="2.4"/>
				
					<rect x="157.5" y="531.1" transform="matrix(-1.836970e-16 1 -1 -1.836970e-16 804.6872 259.9137)" class="st2" width="229.8" height="2.4"/>
				
					<rect x="152.7" y="531.1" transform="matrix(-1.836970e-16 1 -1 -1.836970e-16 799.8441 264.7568)" class="st2" width="229.8" height="2.4"/>
				
					<rect x="147.8" y="531.1" transform="matrix(-1.836970e-16 1 -1 -1.836970e-16 795.0009 269.5999)" class="st2" width="229.8" height="2.4"/>
				
					<rect x="143" y="531.1" transform="matrix(-1.836970e-16 1 -1 -1.836970e-16 790.1578 274.4431)" class="st2" width="229.8" height="2.4"/>
				
					<rect x="138.1" y="531.1" transform="matrix(-1.836970e-16 1 -1 -1.836970e-16 785.3146 279.2862)" class="st2" width="229.8" height="2.4"/>
				
					<rect x="133.3" y="531.1" transform="matrix(-1.836970e-16 1 -1 -1.836970e-16 780.4715 284.1293)" class="st2" width="229.8" height="2.4"/>
				
					<rect x="128.4" y="531.1" transform="matrix(-1.836970e-16 1 -1 -1.836970e-16 775.6284 288.9725)" class="st2" width="229.8" height="2.4"/>
				
					<rect x="123.6" y="531.1" transform="matrix(-1.836970e-16 1 -1 -1.836970e-16 770.7852 293.8156)" class="st2" width="229.8" height="2.4"/>
				
					<rect x="118.8" y="531.1" transform="matrix(-1.836970e-16 1 -1 -1.836970e-16 765.9421 298.6588)" class="st2" width="229.8" height="2.4"/>
				
					<rect x="113.9" y="531.1" transform="matrix(-1.836970e-16 1 -1 -1.836970e-16 761.0989 303.5019)" class="st2" width="229.8" height="2.4"/>
				
					<rect x="109.1" y="531.1" transform="matrix(-1.836970e-16 1 -1 -1.836970e-16 756.2558 308.345)" class="st2" width="229.8" height="2.4"/>
				
					<rect x="104.2" y="531.1" transform="matrix(-1.836970e-16 1 -1 -1.836970e-16 751.4127 313.1882)" class="st2" width="229.8" height="2.4"/>
				
					<rect x="99.4" y="531.1" transform="matrix(-1.836970e-16 1 -1 -1.836970e-16 746.5695 318.0313)" class="st2" width="229.8" height="2.4"/>
				
					<rect x="94.5" y="531.1" transform="matrix(-1.836970e-16 1 -1 -1.836970e-16 741.7264 322.8745)" class="st2" width="229.8" height="2.4"/>
				
					<rect x="89.7" y="531.1" transform="matrix(-1.836970e-16 1 -1 -1.836970e-16 736.8832 327.7176)" class="st2" width="229.8" height="2.4"/>
				
					<rect x="84.9" y="531.1" transform="matrix(-1.836970e-16 1 -1 -1.836970e-16 732.0401 332.5607)" class="st2" width="229.8" height="2.4"/>
				
					<rect x="80" y="531.1" transform="matrix(-1.836970e-16 1 -1 -1.836970e-16 727.197 337.4039)" class="st2" width="229.8" height="2.4"/>
			</g>
		</g>
		<path d="M306.9,597.7c-0.2,0-0.4,0-0.5,0h-2.9c-1.1,0.1-3.6-3.4-12.9-17.1c-8.8-13-20.7-30.9-27.5-36.4c-11.2-9.2-22.9-7.2-23-7.2
			c-0.2,0-0.4,0-0.5-0.2c-0.1-0.1-0.2-0.3-0.1-0.5l1.6-4.6c0.1-0.2,0.2-0.3,0.4-0.3c0.2,0,19.3-2.3,30.7,8.2
			c9.9,9,28.2,17.7,37.8,17.9c0.8,0,1.5,0,2.2,0.1c6.1,0.2,10.1,0.3,22.9-6.4c12.3-6.5,33.4-8.2,42.4-9l0.3,0c0.3,0,0.5,0.2,0.5,0.4
			c0.2,1.2,0.4,2.5,0.6,3.8l0.1,1.3c0,0.1,0,0.3-0.1,0.4s-0.2,0.2-0.4,0.1c-12.2-0.5-27.4,9.7-37.9,18.5
			c-12.4,10.2-22.2,21.2-24.7,24.7C311.7,597.1,308.2,597.7,306.9,597.7z M306.5,596.7c0,0,0.1,0,0.1,0c0,0,3.6,0.7,8.6-6.1
			c4.1-5.5,38.3-43.5,62.5-43.5c0.1,0,0.3,0,0.4,0l0-0.7c-0.2-1.1-0.3-2.2-0.5-3.3c-9,0.8-29.8,2.5-41.9,8.9
			c-13,6.9-17.1,6.7-23.4,6.5c-0.7,0-1.4,0-2.2-0.1c-9.9-0.2-28.2-8.8-38.4-18.1c-10.3-9.4-27.2-8.2-29.6-7.9l-1.3,3.6
			c2.9-0.3,13.1-0.6,23,7.5c6.8,5.6,18.4,22.8,27.7,36.6c5.4,8,11,16.3,12.1,16.7L306.5,596.7z"/>
		<g>
			<path class="st0" d="M248,513.9c-6.1-1.7-9,1.7-6.3,6.1c1.5,2.5,3.8,6.3,5.5,9.2c-0.8,0.3-1.6,1-1.7,2.5c-0.1,1-0.7,4.1-1.4,8.5
				c-0.2,0.2-0.5,0.6-0.8,1l1.4-4.7c0,0-4.1-1.9-7.4-0.9c-2.7,0.8-4.4,4-6.6,8.5c-4.7,9.8-3.2,17.9,0.1,17.8c2-0.1,4.1-0.8,5.5-1.3
				c-2.2,6.2-6.1,12.5-6.1,15.8c0,5,2.7,8.5,0.6,18.6c-1,4.8-0.4,4.9-0.4,4.9h3.1c0,0,0.7-8.5,1.4-13.4s-0.9-4.3-0.7-9.9
				s6.4-19.7,6.9-22.2c0.3-1.4,0.9-3.4,1.5-5c-1.2,8.5-2.3,18.8-1.8,27.7c1,18.3,5.6,23.4,5.6,23.4h3.1c0,0-5.2-23.1-5.3-29.8
				c0-6.6,3.3-32.1,3.8-34.4c0.4-2.3,3-4.7,3-4.7l-0.2-0.2l0.7-1C251.4,530.5,254.1,515.6,248,513.9z M230.2,557.7
				c-1.5-2.5,1.3-8.4,4.5-14.6c3.2-6.2,6.2-2,6.2-2l1.4,1.5c-1.2,1.9-2.6,4.9-3.4,9c-0.3,1.9-0.9,3.9-1.6,6.1
				C235.6,558.7,231.4,559.9,230.2,557.7z M246.7,516c2.2,0.4,2.2,11.4,2.2,11.4v1.1c0,0-0.5-5.2-2.9-7.8
				C243.6,518,244.5,515.6,246.7,516z"/>
			<path d="M249.4,601h-3.1c-0.1,0-0.3-0.1-0.4-0.2c-0.2-0.2-4.8-5.5-5.8-23.8c-0.3-5.9,0-13.1,1-21.5c-0.4,1.1-1,2.7-1.7,4.5
				c-2,5.4-4.8,12.8-4.9,16.5c-0.1,2.6,0.2,3.8,0.5,4.9c0.3,1.3,0.6,2.4,0.2,5.1c-0.7,4.8-1.4,13.3-1.4,13.3c0,0.3-0.2,0.5-0.5,0.5
				h-3.1c-0.2,0-0.4-0.1-0.5-0.3c-0.2-0.2-0.6-0.8,0.4-5.2c1.4-6.7,0.7-10.4,0-13.7c-0.3-1.6-0.6-3.1-0.6-4.8c0-2.1,1.4-5.3,3.1-8.9
				c0.9-2,1.9-4,2.7-6.1c-1.4,0.5-3,0.9-4.6,1c-0.9,0-1.8-0.5-2.4-1.4c-1.8-2.8-1.8-9.6,1.9-17.1c2.2-4.6,4-7.9,6.9-8.8
				c2.8-0.8,6,0.2,7.2,0.7c0.4-2.1,0.6-3.5,0.7-4.2c0.1-1.5,0.8-2.3,1.5-2.7c-1.7-2.8-3.8-6.4-5.2-8.8c-1.3-2.1-1.4-4.2-0.3-5.6
				c1.3-1.7,4-2.1,7.2-1.2l0,0c6.4,1.8,3.9,16.5,3.8,17.2c0,0.1,0,0.1-0.1,0.2l-0.5,0.7c0.1,0.2,0.1,0.4-0.1,0.6
				c0,0-2.4,2.4-2.8,4.4c-0.4,2.2-3.8,27.6-3.8,34.3c0,6.5,5.2,29.4,5.2,29.7c0,0.1,0,0.3-0.1,0.4C249.7,601,249.6,601,249.4,601z
				 M246.6,600h2.2c-0.8-3.8-5.1-23.2-5.1-29.3c-0.1-6.7,3.4-32.3,3.8-34.5c0.4-1.9,2.1-3.9,2.8-4.7c-0.1-0.2,0-0.3,0.1-0.5l0.6-0.9
				c0.2-1.4,2.2-14.4-3.1-15.9c-2.8-0.8-5.1-0.5-6.1,0.9c-0.8,1.1-0.7,2.7,0.4,4.5c1.5,2.5,3.8,6.4,5.5,9.2c0.1,0.1,0.1,0.3,0,0.4
				c0,0.1-0.2,0.2-0.3,0.3c-0.8,0.3-1.3,1-1.4,2.1c-0.1,0.7-0.4,2.4-0.8,4.9c-0.2,1.1-0.4,2.3-0.6,3.6c0,0.1-0.1,0.2-0.1,0.2
				c-0.2,0.2-0.5,0.5-0.8,1c-0.1,0.2-0.4,0.3-0.6,0.1c-0.2-0.1-0.3-0.4-0.3-0.6l1.3-4.3c-1.1-0.4-4.1-1.5-6.6-0.7
				c-2.5,0.8-4.2,3.9-6.3,8.3c-3.5,7.2-3.6,13.6-1.9,16.1c0.4,0.7,0.9,1,1.5,1c1.9-0.1,4-0.7,5.3-1.3c0.2-0.1,0.4,0,0.5,0.1
				c0.1,0.1,0.2,0.3,0.1,0.5c-0.9,2.4-2,4.9-3.1,7.2c-1.6,3.4-3,6.5-3,8.5c0,1.6,0.3,3.1,0.6,4.6c0.7,3.4,1.4,7.2,0,14.1
				c-0.6,2.8-0.6,3.9-0.5,4.3l2.3,0c0.2-1.8,0.8-8.8,1.4-12.9c0.4-2.5,0.1-3.4-0.2-4.7c-0.3-1.1-0.6-2.4-0.5-5.2
				c0.1-3.8,2.9-11.3,5-16.8c1-2.5,1.8-4.7,1.9-5.5c0.2-1.1,0.7-2.9,1.5-5.1c0.1-0.2,0.3-0.4,0.6-0.3c0.3,0.1,0.4,0.3,0.4,0.6
				c-1.6,11-2.2,20.3-1.8,27.6C242.1,593.2,245.8,599,246.6,600z M232.8,559.5c-1.3,0-2.4-0.4-3-1.5l0,0c-1.5-2.6,0.7-7.9,4.5-15.1
				c1.2-2.3,2.6-3.5,4-3.6c1.8-0.1,3,1.5,3,1.6l1.3,1.5c0.1,0.2,0.2,0.4,0.1,0.6c-1.1,1.8-2.5,4.7-3.3,8.8c-0.3,1.7-0.8,3.7-1.7,6.1
				c0,0.1-0.1,0.2-0.2,0.3C236.4,558.8,234.5,559.5,232.8,559.5z M230.6,557.5c1,1.7,4.5,0.8,6.2-0.1c0.8-2.3,1.3-4.2,1.6-5.8
				c0.7-4,2.1-7,3.2-8.9l-1.1-1.2c0-0.1-1-1.3-2.2-1.2c-1.1,0.1-2.2,1.2-3.2,3.1C232.1,549.1,229.2,555.2,230.6,557.5L230.6,557.5z
				 M248.9,529c-0.3,0-0.5-0.2-0.5-0.5c0-0.1-0.5-5.1-2.8-7.6c-1.7-1.9-1.8-3.6-1.3-4.5c0.5-0.8,1.4-1.1,2.4-0.9l0,0l0,0
				c2.4,0.5,2.6,9.2,2.6,11.9v1.1C249.4,528.8,249.2,529,248.9,529C248.9,529,248.9,529,248.9,529z M246.2,516.5
				c-0.4,0-0.8,0.2-0.9,0.5c-0.4,0.6-0.2,1.9,1.1,3.4c0.8,0.9,1.4,2.1,1.9,3.3c-0.3-3.8-0.9-7-1.7-7.1l0,0
				C246.4,516.5,246.3,516.5,246.2,516.5z"/>
		</g>
		<g>
			<defs>
				<path id="SVGID_00000029765195985992202280000008351405354597850300_" d="M248,513.9c-6.1-1.7-9,1.7-6.3,6.1
					c1.5,2.5,3.8,6.3,5.5,9.2c-0.8,0.3-1.6,1-1.7,2.5c-0.1,1-0.7,4.1-1.4,8.5c-0.2,0.2-0.5,0.6-0.8,1l1.4-4.7c0,0-4.1-1.9-7.4-0.9
					c-2.7,0.8-4.4,4-6.6,8.5c-4.7,9.8-3.2,17.9,0.1,17.8c2-0.1,4.1-0.8,5.5-1.3c-2.2,6.2-6.1,12.5-6.1,15.8c0,5,2.7,8.5,0.6,18.6
					c-1,4.8-0.4,4.9-0.4,4.9h3.1c0,0,0.7-8.5,1.4-13.4s-0.9-4.3-0.7-9.9s6.4-19.7,6.9-22.2c0.3-1.4,0.9-3.4,1.5-5
					c-1.2,8.5-2.3,18.8-1.8,27.7c1,18.3,5.6,23.4,5.6,23.4h3.1c0,0-5.2-23.1-5.3-29.8c0-6.6,3.3-32.1,3.8-34.4c0.4-2.3,3-4.7,3-4.7
					l-0.2-0.2l0.7-1C251.4,530.5,254.1,515.6,248,513.9z M230.2,557.7c-1.5-2.5,1.3-8.4,4.5-14.6c3.2-6.2,6.2-2,6.2-2l1.4,1.5
					c-1.2,1.9-2.6,4.9-3.4,9c-0.3,1.9-0.9,3.9-1.6,6.1C235.6,558.7,231.4,559.9,230.2,557.7z M246.7,516c2.2,0.4,2.2,11.4,2.2,11.4
					v1.1c0,0-0.5-5.2-2.9-7.8C243.6,518,244.5,515.6,246.7,516z"/>
			</defs>
			<clipPath id="SVGID_00000105391409914961475540000012647692474261104790_">
				<use xlink:href="#SVGID_00000029765195985992202280000008351405354597850300_"  style="overflow:visible;"/>
			</clipPath>
			<g style="clip-path:url(#SVGID_00000105391409914961475540000012647692474261104790_);">
				<rect x="153.8" y="423.4" class="st2" width="229.8" height="2.4"/>
				<rect x="153.8" y="428.2" class="st2" width="229.8" height="2.4"/>
				<rect x="153.8" y="433.1" class="st2" width="229.8" height="2.4"/>
				<rect x="153.8" y="437.9" class="st2" width="229.8" height="2.4"/>
				<rect x="153.8" y="442.8" class="st2" width="229.8" height="2.4"/>
				<rect x="153.8" y="447.6" class="st2" width="229.8" height="2.4"/>
				<rect x="153.8" y="452.4" class="st2" width="229.8" height="2.4"/>
				<rect x="153.8" y="457.3" class="st2" width="229.8" height="2.4"/>
				<rect x="153.8" y="462.1" class="st2" width="229.8" height="2.4"/>
				<rect x="153.8" y="467" class="st2" width="229.8" height="2.4"/>
				<rect x="153.8" y="471.8" class="st2" width="229.8" height="2.4"/>
				<rect x="153.8" y="476.7" class="st2" width="229.8" height="2.4"/>
				<rect x="153.8" y="481.5" class="st2" width="229.8" height="2.4"/>
				<rect x="153.8" y="486.3" class="st2" width="229.8" height="2.4"/>
				<rect x="153.8" y="491.2" class="st2" width="229.8" height="2.4"/>
				<rect x="153.8" y="496" class="st2" width="229.8" height="2.4"/>
				<rect x="153.8" y="500.9" class="st2" width="229.8" height="2.4"/>
				<rect x="153.8" y="505.7" class="st2" width="229.8" height="2.4"/>
				<rect x="153.8" y="510.6" class="st2" width="229.8" height="2.4"/>
				<rect x="153.8" y="515.4" class="st2" width="229.8" height="2.4"/>
				<rect x="153.8" y="520.2" class="st2" width="229.8" height="2.4"/>
				<rect x="153.8" y="525.1" class="st2" width="229.8" height="2.4"/>
				<rect x="153.8" y="529.9" class="st2" width="229.8" height="2.4"/>
				<rect x="153.8" y="534.8" class="st2" width="229.8" height="2.4"/>
				<rect x="153.8" y="539.6" class="st2" width="229.8" height="2.4"/>
				<rect x="153.8" y="544.5" class="st2" width="229.8" height="2.4"/>
				<rect x="153.8" y="549.3" class="st2" width="229.8" height="2.4"/>
				<rect x="153.8" y="554.1" class="st2" width="229.8" height="2.4"/>
				<rect x="153.8" y="559" class="st2" width="229.8" height="2.4"/>
				<rect x="153.8" y="563.8" class="st2" width="229.8" height="2.4"/>
				<rect x="153.8" y="568.7" class="st2" width="229.8" height="2.4"/>
				<rect x="153.8" y="573.5" class="st2" width="229.8" height="2.4"/>
				<rect x="153.8" y="578.4" class="st2" width="229.8" height="2.4"/>
				<rect x="153.8" y="583.2" class="st2" width="229.8" height="2.4"/>
				<rect x="153.8" y="588.1" class="st2" width="229.8" height="2.4"/>
				<rect x="153.8" y="592.9" class="st2" width="229.8" height="2.4"/>
				<rect x="153.8" y="597.7" class="st2" width="229.8" height="2.4"/>
				<rect x="153.8" y="602.6" class="st2" width="229.8" height="2.4"/>
				<rect x="153.8" y="607.4" class="st2" width="229.8" height="2.4"/>
				<rect x="153.8" y="612.3" class="st2" width="229.8" height="2.4"/>
				<rect x="153.8" y="617.1" class="st2" width="229.8" height="2.4"/>
				
					<rect x="250.7" y="520.2" transform="matrix(-1.836970e-16 1 -1 -1.836970e-16 887.0206 155.84)" class="st2" width="229.8" height="2.4"/>
				
					<rect x="245.9" y="520.2" transform="matrix(-1.836970e-16 1 -1 -1.836970e-16 882.1774 160.6832)" class="st2" width="229.8" height="2.4"/>
				
					<rect x="241" y="520.2" transform="matrix(-1.836970e-16 1 -1 -1.836970e-16 877.3343 165.5263)" class="st2" width="229.8" height="2.4"/>
				
					<rect x="236.2" y="520.2" transform="matrix(-1.836970e-16 1 -1 -1.836970e-16 872.4911 170.3694)" class="st2" width="229.8" height="2.4"/>
				
					<rect x="231.3" y="520.2" transform="matrix(-1.836970e-16 1 -1 -1.836970e-16 867.648 175.2126)" class="st2" width="229.8" height="2.4"/>
				
					<rect x="226.5" y="520.2" transform="matrix(-1.836970e-16 1 -1 -1.836970e-16 862.8049 180.0557)" class="st2" width="229.8" height="2.4"/>
				
					<rect x="221.6" y="520.2" transform="matrix(-1.836970e-16 1 -1 -1.836970e-16 857.9617 184.8989)" class="st2" width="229.8" height="2.4"/>
				
					<rect x="216.8" y="520.2" transform="matrix(-1.836970e-16 1 -1 -1.836970e-16 853.1186 189.742)" class="st2" width="229.8" height="2.4"/>
				
					<rect x="212" y="520.2" transform="matrix(-1.836970e-16 1 -1 -1.836970e-16 848.2755 194.5851)" class="st2" width="229.8" height="2.4"/>
				
					<rect x="207.1" y="520.2" transform="matrix(-1.836970e-16 1 -1 -1.836970e-16 843.4323 199.4283)" class="st2" width="229.8" height="2.4"/>
				
					<rect x="202.3" y="520.2" transform="matrix(-1.836970e-16 1 -1 -1.836970e-16 838.5892 204.2714)" class="st2" width="229.8" height="2.4"/>
				
					<rect x="197.4" y="520.2" transform="matrix(-1.836970e-16 1 -1 -1.836970e-16 833.746 209.1146)" class="st2" width="229.8" height="2.4"/>
				
					<rect x="192.6" y="520.2" transform="matrix(-1.836970e-16 1 -1 -1.836970e-16 828.9029 213.9577)" class="st2" width="229.8" height="2.4"/>
				
					<rect x="187.7" y="520.2" transform="matrix(-1.836970e-16 1 -1 -1.836970e-16 824.0598 218.8008)" class="st2" width="229.8" height="2.4"/>
				
					<rect x="182.9" y="520.2" transform="matrix(-1.836970e-16 1 -1 -1.836970e-16 819.2166 223.644)" class="st2" width="229.8" height="2.4"/>
				
					<rect x="178.1" y="520.2" transform="matrix(-1.836970e-16 1 -1 -1.836970e-16 814.3735 228.4871)" class="st2" width="229.8" height="2.4"/>
				
					<rect x="173.2" y="520.2" transform="matrix(-1.836970e-16 1 -1 -1.836970e-16 809.5303 233.3302)" class="st2" width="229.8" height="2.4"/>
				
					<rect x="168.4" y="520.2" transform="matrix(-1.836970e-16 1 -1 -1.836970e-16 804.6872 238.1734)" class="st2" width="229.8" height="2.4"/>
				
					<rect x="163.5" y="520.2" transform="matrix(-1.836970e-16 1 -1 -1.836970e-16 799.8441 243.0165)" class="st2" width="229.8" height="2.4"/>
				
					<rect x="158.7" y="520.2" transform="matrix(-1.836970e-16 1 -1 -1.836970e-16 795.0009 247.8597)" class="st2" width="229.8" height="2.4"/>
				
					<rect x="153.8" y="520.2" transform="matrix(-1.836970e-16 1 -1 -1.836970e-16 790.1578 252.7028)" class="st2" width="229.8" height="2.4"/>
				
					<rect x="149" y="520.2" transform="matrix(-1.836970e-16 1 -1 -1.836970e-16 785.3146 257.546)" class="st2" width="229.8" height="2.4"/>
				
					<rect x="144.2" y="520.2" transform="matrix(-1.836970e-16 1 -1 -1.836970e-16 780.4715 262.3891)" class="st2" width="229.8" height="2.4"/>
				
					<rect x="139.3" y="520.2" transform="matrix(-1.836970e-16 1 -1 -1.836970e-16 775.6284 267.2322)" class="st2" width="229.8" height="2.4"/>
				
					<rect x="134.5" y="520.2" transform="matrix(-1.836970e-16 1 -1 -1.836970e-16 770.7852 272.0754)" class="st2" width="229.8" height="2.4"/>
				
					<rect x="129.6" y="520.2" transform="matrix(-1.836970e-16 1 -1 -1.836970e-16 765.9421 276.9185)" class="st2" width="229.8" height="2.4"/>
				
					<rect x="124.8" y="520.2" transform="matrix(-1.836970e-16 1 -1 -1.836970e-16 761.0989 281.7616)" class="st2" width="229.8" height="2.4"/>
				
					<rect x="119.9" y="520.2" transform="matrix(-1.836970e-16 1 -1 -1.836970e-16 756.2558 286.6048)" class="st2" width="229.8" height="2.4"/>
				
					<rect x="115.1" y="520.2" transform="matrix(-1.836970e-16 1 -1 -1.836970e-16 751.4127 291.4479)" class="st2" width="229.8" height="2.4"/>
				
					<rect x="110.3" y="520.2" transform="matrix(-1.836970e-16 1 -1 -1.836970e-16 746.5695 296.291)" class="st2" width="229.8" height="2.4"/>
				
					<rect x="105.4" y="520.2" transform="matrix(-1.836970e-16 1 -1 -1.836970e-16 741.7264 301.1342)" class="st2" width="229.8" height="2.4"/>
				
					<rect x="100.6" y="520.2" transform="matrix(-1.836970e-16 1 -1 -1.836970e-16 736.8832 305.9773)" class="st2" width="229.8" height="2.4"/>
				
					<rect x="95.7" y="520.2" transform="matrix(-1.836970e-16 1 -1 -1.836970e-16 732.0401 310.8205)" class="st2" width="229.8" height="2.4"/>
				
					<rect x="90.9" y="520.2" transform="matrix(-1.836970e-16 1 -1 -1.836970e-16 727.197 315.6636)" class="st2" width="229.8" height="2.4"/>
				
					<rect x="86" y="520.2" transform="matrix(-1.836970e-16 1 -1 -1.836970e-16 722.3538 320.5067)" class="st2" width="229.8" height="2.4"/>
				
					<rect x="81.2" y="520.2" transform="matrix(-1.836970e-16 1 -1 -1.836970e-16 717.5107 325.3499)" class="st2" width="229.8" height="2.4"/>
				
					<rect x="76.4" y="520.2" transform="matrix(-1.836970e-16 1 -1 -1.836970e-16 712.6675 330.193)" class="st2" width="229.8" height="2.4"/>
				
					<rect x="71.5" y="520.2" transform="matrix(-1.836970e-16 1 -1 -1.836970e-16 707.8244 335.0362)" class="st2" width="229.8" height="2.4"/>
				
					<rect x="66.7" y="520.2" transform="matrix(-1.836970e-16 1 -1 -1.836970e-16 702.9813 339.8793)" class="st2" width="229.8" height="2.4"/>
				
					<rect x="61.8" y="520.2" transform="matrix(-1.836970e-16 1 -1 -1.836970e-16 698.1381 344.7224)" class="st2" width="229.8" height="2.4"/>
				
					<rect x="57" y="520.2" transform="matrix(-1.836970e-16 1 -1 -1.836970e-16 693.295 349.5656)" class="st2" width="229.8" height="2.4"/>
			</g>
		</g>
		<g>
			<defs>
				<path id="SVGID_00000073707894922393589470000014751443511262519721_" d="M248,513.9c-6.1-1.7-9,1.7-6.3,6.1
					c1.5,2.5,3.8,6.3,5.5,9.2c-0.8,0.3-1.6,1-1.7,2.5c-0.1,1-0.7,4.1-1.4,8.5c-0.2,0.2-0.5,0.6-0.8,1l1.4-4.7c0,0-4.1-1.9-7.4-0.9
					c-2.7,0.8-4.4,4-6.6,8.5c-4.7,9.8-3.2,17.9,0.1,17.8c2-0.1,4.1-0.8,5.5-1.3c-2.2,6.2-6.1,12.5-6.1,15.8c0,5,2.7,8.5,0.6,18.6
					c-1,4.8-0.4,4.9-0.4,4.9h3.1c0,0,0.7-8.5,1.4-13.4s-0.9-4.3-0.7-9.9s6.4-19.7,6.9-22.2c0.3-1.4,0.9-3.4,1.5-5
					c-1.2,8.5-2.3,18.8-1.8,27.7c1,18.3,5.6,23.4,5.6,23.4h3.1c0,0-5.2-23.1-5.3-29.8c0-6.6,3.3-32.1,3.8-34.4c0.4-2.3,3-4.7,3-4.7
					l-0.2-0.2l0.7-1C251.4,530.5,254.1,515.6,248,513.9z M230.2,557.7c-1.5-2.5,1.3-8.4,4.5-14.6c3.2-6.2,6.2-2,6.2-2l1.4,1.5
					c-1.2,1.9-2.6,4.9-3.4,9c-0.3,1.9-0.9,3.9-1.6,6.1C235.6,558.7,231.4,559.9,230.2,557.7z M246.7,516c2.2,0.4,2.2,11.4,2.2,11.4
					v1.1c0,0-0.5-5.2-2.9-7.8C243.6,518,244.5,515.6,246.7,516z"/>
			</defs>
			<clipPath id="SVGID_00000083056492401258164170000007735854297586426027_">
				<use xlink:href="#SVGID_00000073707894922393589470000014751443511262519721_"  style="overflow:visible;"/>
			</clipPath>
		</g>
		<g>
			<path d="M230.6,562.4c-0.9,0-1.7-0.5-2.3-1.4c-1.8-2.8-1.8-9.6,1.9-17.1c2.2-4.6,4-7.9,6.9-8.8c3.4-1,7.5,0.8,7.7,0.9
				c0.2,0.1,0.3,0.4,0.3,0.6l-1.4,4.7c0,0.1,0,0.1-0.1,0.2c-0.3,0.4-0.6,0.9-1,1.4c-0.1,0.1-0.2,0.2-0.4,0.2c-0.2,0-0.3,0-0.4-0.2
				l-1.4-1.5c0-0.1-1-1.3-2.2-1.2c-1.1,0.1-2.2,1.2-3.2,3.1c-3,5.7-5.9,11.8-4.5,14.1l0,0c1,1.8,4.7,0.7,6.4-0.2
				c0.2-0.1,0.4-0.1,0.6,0.1c0.2,0.1,0.2,0.3,0.2,0.5c-0.3,1-0.6,1.9-1,2.9c0,0.1-0.2,0.2-0.3,0.3
				C235,561.6,232.8,562.3,230.6,562.4C230.7,562.4,230.7,562.4,230.6,562.4z M239.3,535.8c-0.7,0-1.3,0.1-2,0.3
				c-2.5,0.8-4.2,3.9-6.3,8.3c-3.5,7.2-3.6,13.6-1.9,16.1c0.4,0.7,0.9,1,1.5,1c1.8-0.1,3.8-0.7,5.1-1.2c0.2-0.5,0.4-1,0.5-1.5
				c-2.1,0.9-5.4,1.5-6.6-0.7l0,0c-1.5-2.6,0.7-7.9,4.5-15.1c1.2-2.3,2.6-3.5,4-3.6c1.8-0.1,3,1.5,3,1.6l0.9,1
				c0.2-0.3,0.4-0.6,0.6-0.8l1.2-4.2C243.2,536.5,241.3,535.8,239.3,535.8z"/>
			<path d="M250.7,532c-0.2,0-0.3-0.1-0.4-0.2l-1.6-2.3c-0.3,0-0.8,0-1.3,0.2c-0.2,0.1-0.5,0-0.6-0.2c-1.7-2.9-4-6.8-5.5-9.2
				c-1.3-2.1-1.4-4.2-0.3-5.6c1.3-1.7,4-2.1,7.2-1.2l0,0c6.4,1.8,3.9,16.5,3.8,17.2c0,0.1,0,0.1-0.1,0.2l-0.7,1
				C251,531.9,250.9,532,250.7,532z M249.3,528.7C249.3,528.7,249.4,528.7,249.3,528.7l1.4,1.9l0.2-0.3c0.2-1.4,2.2-14.4-3.1-15.9
				c-2.8-0.8-5.1-0.5-6.1,0.9c-0.8,1.1-0.7,2.7,0.4,4.5c1.4,2.4,3.6,6.1,5.3,8.9c0.4-0.1,0.7-0.1,1-0.1c-0.1-0.6-0.6-5.2-2.7-7.5
				c-1.7-1.9-1.8-3.6-1.3-4.5c0.5-0.8,1.4-1.1,2.4-0.9c2.4,0.5,2.6,9.2,2.6,11.9v1.1C249.4,528.6,249.4,528.6,249.3,528.7z
				 M246.2,516.5c-0.4,0-0.8,0.2-0.9,0.5c-0.4,0.6-0.2,1.9,1.1,3.4c0.8,0.9,1.4,2.1,1.9,3.3c-0.3-3.8-0.9-7-1.7-7.1
				C246.4,516.5,246.3,516.5,246.2,516.5z"/>
			<path d="M233.4,600.4h-3.1c-0.2,0-0.4-0.1-0.5-0.3c-0.2-0.2-0.6-0.8,0.4-5.2c1.4-6.7,0.7-10.4,0-13.7c-0.3-1.6-0.6-3.1-0.6-4.8
				c0-2.6,1.8-6.8,4-11.6c2-4.6,4.1-9.3,4.8-13.2l0,0c1.2-6.8,4.4-10.7,5.3-11.7c0.1-0.2,0.4-0.2,0.6-0.1c0.2,0.1,0.3,0.3,0.3,0.5
				c-0.6,3.3-1.1,6.3-1.5,9.2c-0.8,2.3-1.3,4-1.5,5.1c-0.2,0.9-1,3-2,5.7c-2,5.4-4.8,12.8-4.9,16.5c-0.1,2.6,0.2,3.8,0.5,4.9
				c0.3,1.3,0.6,2.4,0.2,5.1c-0.7,4.8-1.4,13.3-1.4,13.3C233.8,600.2,233.6,600.4,233.4,600.4z M230.7,599.6L230.7,599.6
				L230.7,599.6z M243.2,542.1c-1.3,1.8-3,5-3.8,9.7l0,0c-0.7,4-2.8,8.8-4.9,13.4c-2,4.5-3.9,8.8-3.9,11.2c0,1.6,0.3,3.1,0.6,4.6
				c0.7,3.4,1.4,7.2,0,14.1c-0.6,2.8-0.6,3.9-0.5,4.3l2.3,0c0.2-1.8,0.8-8.8,1.4-12.9c0.4-2.5,0.1-3.4-0.2-4.7
				c-0.3-1.1-0.6-2.4-0.5-5.2c0.1-3.8,2.9-11.3,5-16.8c1-2.5,1.8-4.7,1.9-5.5c0.2-1.1,0.7-2.9,1.5-5.1
				C242.4,547,242.8,544.6,243.2,542.1z M238.9,551.6L238.9,551.6L238.9,551.6z"/>
			<path d="M249.4,601h-3.1c-0.1,0-0.3-0.1-0.4-0.2c-0.2-0.2-4.8-5.5-5.8-23.8c-0.8-14.3,2.4-32.1,4-40.6c0.4-2.4,0.7-4.1,0.8-4.8
				c0.1-1.1,0.5-1.9,1.2-2.5c1.2-0.9,2.8-0.7,2.9-0.6c0.1,0,0.2,0.1,0.3,0.2l1.9,2.7c0.1,0.2,0.1,0.5-0.1,0.7c0,0-2.4,2.4-2.8,4.4
				c-0.4,2.2-3.8,27.6-3.8,34.3c0,6.5,5.2,29.4,5.2,29.7c0,0.1,0,0.3-0.1,0.4C249.7,601,249.6,601,249.4,601z M246.6,600h2.2
				c-0.8-3.8-5.1-23.2-5.1-29.3c-0.1-6.7,3.4-32.3,3.8-34.5c0.4-1.9,2.1-3.9,2.8-4.7l-1.6-2.2c-0.4,0-1.3,0-1.9,0.5
				c-0.5,0.4-0.7,1-0.8,1.8c-0.1,0.7-0.4,2.4-0.8,4.9c-1.5,8.5-4.7,26.2-4,40.4C242.1,593.2,245.8,599,246.6,600z"/>
		</g>
		<path d="M249.4,601h-3.1c-0.1,0-0.3-0.1-0.4-0.2c-0.2-0.2-4.8-5.5-5.8-23.8c-0.3-5.9,0-13.1,1-21.5c-0.4,1.1-1,2.7-1.7,4.5
			c-2,5.4-4.8,12.8-4.9,16.5c-0.1,2.6,0.2,3.8,0.5,4.9c0.3,1.3,0.6,2.4,0.2,5.1c-0.7,4.8-1.4,13.3-1.4,13.3c0,0.3-0.2,0.5-0.5,0.5
			h-3.1c-0.2,0-0.4-0.1-0.5-0.3c-0.2-0.2-0.6-0.8,0.4-5.2c1.4-6.7,0.7-10.4,0-13.7c-0.3-1.6-0.6-3.1-0.6-4.8c0-2.1,1.4-5.3,3.1-8.9
			c0.9-2,1.9-4,2.7-6.1c-1.4,0.5-3,0.9-4.6,1c-0.9,0-1.8-0.5-2.4-1.4c-1.8-2.8-1.8-9.6,1.9-17.1c2.2-4.6,4-7.9,6.9-8.8
			c2.8-0.8,6,0.2,7.2,0.7c0.4-2.1,0.6-3.5,0.7-4.2c0.1-1.5,0.8-2.3,1.5-2.7c-1.7-2.8-3.8-6.4-5.2-8.8c-1.3-2.1-1.4-4.2-0.3-5.6
			c1.3-1.7,4-2.1,7.2-1.2l0,0c6.4,1.8,3.9,16.5,3.8,17.2c0,0.1,0,0.1-0.1,0.2l-0.5,0.7c0.1,0.2,0.1,0.4-0.1,0.6c0,0-2.4,2.4-2.8,4.4
			c-0.4,2.2-3.8,27.6-3.8,34.3c0,6.5,5.2,29.4,5.2,29.7c0,0.1,0,0.3-0.1,0.4C249.7,601,249.6,601,249.4,601z M246.6,600h2.2
			c-0.8-3.8-5.1-23.2-5.1-29.3c-0.1-6.7,3.4-32.3,3.8-34.5c0.4-1.9,2.1-3.9,2.8-4.7c-0.1-0.2,0-0.3,0.1-0.5l0.6-0.9
			c0.2-1.4,2.2-14.4-3.1-15.9c-2.8-0.8-5.1-0.5-6.1,0.9c-0.8,1.1-0.7,2.7,0.4,4.5c1.5,2.5,3.8,6.4,5.5,9.2c0.1,0.1,0.1,0.3,0,0.4
			c0,0.1-0.2,0.2-0.3,0.3c-0.8,0.3-1.3,1-1.4,2.1c-0.1,0.7-0.4,2.4-0.8,4.9c-0.2,1.1-0.4,2.3-0.6,3.6c0,0.1-0.1,0.2-0.1,0.2
			c-0.2,0.2-0.5,0.5-0.8,1c-0.1,0.2-0.4,0.3-0.6,0.1c-0.2-0.1-0.3-0.4-0.3-0.6l1.3-4.3c-1.1-0.4-4.1-1.5-6.6-0.7
			c-2.5,0.8-4.2,3.9-6.3,8.3c-3.5,7.2-3.6,13.6-1.9,16.1c0.4,0.7,0.9,1,1.5,1c1.9-0.1,4-0.7,5.3-1.3c0.2-0.1,0.4,0,0.5,0.1
			c0.1,0.1,0.2,0.3,0.1,0.5c-0.9,2.4-2,4.9-3.1,7.2c-1.6,3.4-3,6.5-3,8.5c0,1.6,0.3,3.1,0.6,4.6c0.7,3.4,1.4,7.2,0,14.1
			c-0.6,2.8-0.6,3.9-0.5,4.3l2.3,0c0.2-1.8,0.8-8.8,1.4-12.9c0.4-2.5,0.1-3.4-0.2-4.7c-0.3-1.1-0.6-2.4-0.5-5.2
			c0.1-3.8,2.9-11.3,5-16.8c1-2.5,1.8-4.7,1.9-5.5c0.2-1.1,0.7-2.9,1.5-5.1c0.1-0.2,0.3-0.4,0.6-0.3c0.3,0.1,0.4,0.3,0.4,0.6
			c-1.6,11-2.2,20.3-1.8,27.6C242.1,593.2,245.8,599,246.6,600z M232.8,559.5c-1.3,0-2.4-0.4-3-1.5l0,0c-1.5-2.6,0.7-7.9,4.5-15.1
			c1.2-2.3,2.6-3.5,4-3.6c1.8-0.1,3,1.5,3,1.6l1.3,1.5c0.1,0.2,0.2,0.4,0.1,0.6c-1.1,1.8-2.5,4.7-3.3,8.8c-0.3,1.7-0.8,3.7-1.7,6.1
			c0,0.1-0.1,0.2-0.2,0.3C236.4,558.8,234.5,559.5,232.8,559.5z M230.6,557.5c1,1.7,4.5,0.8,6.2-0.1c0.8-2.3,1.3-4.2,1.6-5.8
			c0.7-4,2.1-7,3.2-8.9l-1.1-1.2c0-0.1-1-1.3-2.2-1.2c-1.1,0.1-2.2,1.2-3.2,3.1C232.1,549.1,229.2,555.2,230.6,557.5L230.6,557.5z
			 M248.9,529c-0.3,0-0.5-0.2-0.5-0.5c0-0.1-0.5-5.1-2.8-7.6c-1.7-1.9-1.8-3.6-1.3-4.5c0.5-0.8,1.4-1.1,2.4-0.9l0,0l0,0
			c2.4,0.5,2.6,9.2,2.6,11.9v1.1C249.4,528.8,249.2,529,248.9,529C248.9,529,248.9,529,248.9,529z M246.2,516.5
			c-0.4,0-0.8,0.2-0.9,0.5c-0.4,0.6-0.2,1.9,1.1,3.4c0.8,0.9,1.4,2.1,1.9,3.3c-0.3-3.8-0.9-7-1.7-7.1l0,0
			C246.4,516.5,246.3,516.5,246.2,516.5z"/>
	</g>
</g>
</svg>
