<?xml version="1.0" encoding="utf-8"?>
<!-- Generator: Adobe Illustrator 27.0.0, SVG Export Plug-In . SVG Version: 6.00 Build 0)  -->
<svg version="1.1" id="Layer_1" xmlns="http://www.w3.org/2000/svg" xmlns:xlink="http://www.w3.org/1999/xlink" x="0px" y="0px"
	 viewBox="0 0 600 1200" style="enable-background:new 0 0 600 1200;" xml:space="preserve">
<style type="text/css">
	.st0{fill:#F46E0B;}
	.st1{fill:#701E13;}
</style>
<g>
	<g>
		<path class="st0" d="M381.3,538.2c-3.1-0.3-2.6,5.3-2.6,5.3s1.3-2.3,2.8-1.8c1.5,0.5,1.4,10.8,0.9,14.9c-0.3,2.2-1.7,1.6-2.9,0.6
			c0.1,0.8,0.1,1.5,0.2,2.3c1.3,0.6,2.9,1.1,3.6,0.2C388.9,552.3,384.5,538.5,381.3,538.2z"/>
		<path d="M382,560.6c-0.7,0-1.6-0.3-2.6-0.8c-0.2-0.1-0.3-0.2-0.3-0.4c0-0.7-0.1-1.5-0.2-2.3c0-0.2,0.1-0.4,0.3-0.5
			c0.2-0.1,0.4-0.1,0.5,0.1c1.1,0.9,1.5,0.8,1.6,0.8c0.2-0.1,0.4-0.5,0.5-1c0.6-4.6,0.4-13.7-0.5-14.4c-1-0.3-2.1,1.6-2.1,1.6
			c-0.1,0.2-0.3,0.3-0.5,0.2c-0.2,0-0.4-0.2-0.4-0.4c0-0.2-0.3-3.7,1.2-5.2c0.5-0.5,1.2-0.7,1.9-0.6l0,0c1.6,0.2,2.8,2.5,3.4,3.8
			c1.9,4.4,3.2,12.9-1.1,18.4C383.3,560.4,382.7,560.6,382,560.6z M380.1,559.1c0.9,0.4,2.2,0.8,2.8,0.2c3.5-4.6,3.1-12.4,1-17.4
			c-1-2.3-2-3.1-2.5-3.2l0,0c-0.5-0.1-0.8,0.1-1.1,0.4c-0.6,0.6-0.9,1.9-0.9,3c0.6-0.6,1.5-1.2,2.4-0.8c2.1,0.7,1.6,12.6,1.2,15.5
			c-0.1,1-0.5,1.6-1.1,1.8c-0.5,0.2-1,0.1-1.7-0.3C380.1,558.5,380.1,558.8,380.1,559.1z"/>
	</g>
	<path d="M306.3,597.7c-0.2,0-0.4,0-0.5,0h-2.9c-1.1,0.1-3.6-3.4-13-17.2c-9.3-13.7-20.9-30.8-27.6-36.3
		c-11.3-9.2-22.4-7.3-22.5-7.3c-0.3,0.1-0.5-0.1-0.6-0.4c0-0.3,0.1-0.5,0.4-0.6c0.1,0,11.7-2,23.3,7.5c6.8,5.6,18.4,22.7,27.8,36.5
		c5.5,8.1,11.1,16.4,12.2,16.8l2.9,0c0,0,0.1,0,0.1,0c0,0,3.6,0.7,8.6-6.1c2.9-3.9,14.8-14.8,27.2-24c11.4-8.5,27-18.6,36.9-18.6
		c0.3,0,0.5,0.2,0.5,0.5s-0.2,0.5-0.5,0.5c-18,0-58.5,35.6-63.3,42.2C311,597.1,307.6,597.7,306.3,597.7z"/>
	<path d="M315,563.8c-2.8,0-5.6-0.3-8.3-1c-10.2-2.6-30.2-13.9-39.5-22.4c-11.1-10.1-25.8-8.3-25.9-8.3c-0.3,0-0.5-0.2-0.6-0.4
		c0-0.3,0.2-0.5,0.4-0.6c0.2,0,15.3-1.9,26.7,8.6c9.2,8.4,29,19.6,39.1,22.2c9.9,2.5,20.5,0.3,31.4-6.5c12.2-7.6,31.6-11,40.2-11.7
		c0.3,0,0.5,0.2,0.5,0.5c0,0.3-0.2,0.5-0.5,0.5c-8.5,0.7-27.7,4.1-39.8,11.6C330.6,561.3,322.6,563.8,315,563.8z"/>
	<g>
		<path class="st0" d="M241.1,531.6c0,0,14.9-2,26.3,8.4c9.6,8.8,29.5,19.8,39.3,22.3c7.3,1.8,18,2,31.7-6.6
			c12-7.5,31.4-10.9,40-11.7l0.2,4.4c-18,0-58.4,35.2-63.7,42.4s-9.1,6.3-9.1,6.3h-3c-2.4,0.2-28.7-43.9-40.3-53.4
			c-11.6-9.5-22.9-7.4-22.9-7.4L241.1,531.6z"/>
		<path d="M306.3,597.7c-0.2,0-0.4,0-0.5,0h-2.9c-1.1,0.1-3.6-3.4-13-17.2c-9.3-13.7-20.9-30.8-27.6-36.3
			c-11.3-9.2-22.4-7.3-22.5-7.3c-0.2,0-0.3,0-0.5-0.2c-0.1-0.1-0.2-0.3-0.1-0.5l1.4-4.7c0.1-0.2,0.2-0.3,0.4-0.4
			c0.2,0,15.3-1.9,26.7,8.6c9.2,8.4,29,19.6,39.1,22.2c9.9,2.5,20.5,0.3,31.4-6.5c12.2-7.6,31.6-11,40.2-11.7c0.1,0,0.3,0,0.4,0.1
			c0.1,0.1,0.2,0.2,0.2,0.4l0.2,4.4c0,0.1,0,0.3-0.1,0.4s-0.2,0.2-0.4,0.2c-18,0-58.5,35.6-63.3,42.2
			C311,597.1,307.6,597.7,306.3,597.7z M305.8,596.7c0,0,0.1,0,0.1,0c0,0,3.6,0.7,8.6-6.1c2.9-3.9,14.8-14.8,27.2-24
			c11.2-8.3,26.5-18.2,36.4-18.6l-0.1-3.3c-8.7,0.8-27.4,4.2-39.3,11.5c-11.1,7-21.9,9.2-32.1,6.6c-10.2-2.6-30.2-13.9-39.5-22.4
			c-10.2-9.3-23.4-8.5-25.6-8.3l-1.1,3.7c2.8-0.3,12.7-0.5,22.5,7.6c6.8,5.6,18.4,22.7,27.8,36.5c5.5,8.1,11.1,16.4,12.2,16.8
			L305.8,596.7z"/>
	</g>
	<g>
		<g>
			<path class="st0" d="M378.5,544.1c0,0-6.5-11.5-12-0.6c-5.5,10.8,0.5,23.3,4.3,21.9c3.8-1.4,7.9-16.9,7.9-16.9L378.5,544.1z
				 M372.2,557.8c-1.7,3.6-2.9,4.3-4.3-0.9c-1.4-5.3,0.5-11.3,2.8-13.7c2.2-2.5,5.1,1.3,5.1,1.3s0.5,2.1,0.6,3.3
				C376.5,548.9,373.9,554.2,372.2,557.8z"/>
			<path d="M370.2,566c-0.9,0-1.9-0.6-2.9-1.6c-3.1-3.5-5.6-12.6-1.3-21.1c1.6-3.2,3.6-4.9,5.7-4.9c3.9-0.1,7.1,5.3,7.2,5.5
				c0,0.1,0.1,0.1,0.1,0.2l0.2,4.4c0,0,0,0.1,0,0.1c-0.4,1.6-4.2,15.9-8.2,17.3C370.7,566,370.5,566,370.2,566z M371.9,539.3
				C371.8,539.3,371.8,539.3,371.9,539.3c-1.8,0-3.5,1.5-4.9,4.4c-3.9,7.7-1.9,16.6,1.1,20c0.5,0.6,1.6,1.6,2.5,1.2
				c2.9-1,6.4-12.2,7.6-16.5l-0.1-4.2C377.6,543.5,374.9,539.3,371.9,539.3z M369.9,561.2c0,0-0.1,0-0.1,0c-1-0.1-1.7-1.3-2.4-4.2
				c-1.4-5.3,0.4-11.5,2.9-14.2c0.6-0.7,1.4-1,2.2-1c1.9,0.1,3.6,2.2,3.7,2.3c0,0.1,0.1,0.1,0.1,0.2c0,0.1,0.5,2.2,0.6,3.4
				c0.1,1.1-1.3,4.1-3.4,8.6l-0.8,1.7l0,0C371.7,559.9,370.9,561.2,369.9,561.2z M372.4,542.8c-0.5,0-1,0.2-1.4,0.7
				c-2,2.2-4,8-2.6,13.2c0.8,3.2,1.4,3.4,1.6,3.4c0.1,0,0.6-0.1,1.8-2.6l0.8-1.7c1.4-2.9,3.4-7.2,3.3-8.1c-0.1-1-0.5-2.7-0.6-3.2
				C375,544.3,373.7,542.9,372.4,542.8C372.4,542.8,372.4,542.8,372.4,542.8z M372.2,557.8L372.2,557.8L372.2,557.8z"/>
		</g>
	</g>
	<g>
		<path class="st0" d="M386.4,581c-3-7.9-0.4-14.1-1.7-23.8c-1.3-9.7-6.1-11.3-6.1-11.3l0.1,2.5c2.7,3.1,4.6,11.1,3.2,19.3
			c-1.3,8.2,2.4,16.4,2.4,16.4c1.1,4.5-4.3,42.1-4.3,42.1h2.5C382.6,626.3,389.7,589.7,386.4,581z"/>
		<path d="M382.6,626.8H380c-0.1,0-0.3-0.1-0.4-0.2c-0.1-0.1-0.1-0.3-0.1-0.4c0.1-0.4,5.4-37.5,4.3-41.9c-0.1-0.2-3.8-8.3-2.4-16.6
			c1.3-8.1-0.5-16-3.1-18.9c-0.1-0.1-0.1-0.2-0.1-0.3l-0.1-2.5c0-0.2,0.1-0.3,0.2-0.4s0.3-0.1,0.5-0.1c0.2,0.1,5.1,1.8,6.4,11.7
			c0.5,4,0.4,7.4,0.3,10.7c-0.2,4.5-0.3,8.5,1.4,13c0,0,0,0,0,0c3.3,8.8-3.5,44.1-3.8,45.5C383,626.6,382.8,626.8,382.6,626.8z
			 M380.6,625.8h1.6c0.8-4,6.8-36.6,3.8-44.6c-1.8-4.7-1.7-8.9-1.5-13.4c0.1-3.2,0.3-6.6-0.3-10.5c-0.9-7-3.7-9.6-5-10.5l0.1,1.5
			c2.6,3.1,4.6,11,3.2,19.6c-1.3,8,2.3,16,2.4,16.1C385.8,588.4,381.3,620.9,380.6,625.8z"/>
	</g>
	<g>
		<path class="st1" d="M384.8,614.5l-3.6-0.3c-0.5,0-0.8-0.5-0.8-0.9l0.1-0.8c0-0.5,0.5-0.8,0.9-0.8l3.6,0.3c0.5,0,0.8,0.5,0.8,0.9
			l-0.1,0.8C385.7,614.1,385.3,614.5,384.8,614.5z"/>
		<path d="M384.9,615c0,0-0.1,0-0.1,0l0,0l-3.6-0.3c-0.8-0.1-1.3-0.7-1.3-1.5l0.1-0.8c0.1-0.8,0.7-1.3,1.5-1.3l3.6,0.3
			c0.8,0.1,1.3,0.7,1.3,1.5l-0.1,0.8c0,0.4-0.2,0.7-0.5,0.9C385.5,614.8,385.2,615,384.9,615z M384.9,614c0.1,0,0.2,0,0.3-0.1
			s0.1-0.2,0.1-0.3l0.1-0.8c0-0.2-0.1-0.4-0.4-0.4l-3.6-0.3c-0.1,0-0.2,0-0.3,0.1c-0.1,0.1-0.1,0.2-0.1,0.3l-0.1,0.8
			c0,0.2,0.1,0.4,0.4,0.4L384.9,614z"/>
	</g>
	<g>
		<path class="st1" d="M384.6,617l-3.6-0.3c-0.5,0-0.8-0.5-0.8-0.9l0.1-0.8c0-0.5,0.5-0.8,0.9-0.8l3.6,0.3c0.5,0,0.8,0.5,0.8,0.9
			l-0.1,0.8C385.5,616.7,385.1,617.1,384.6,617z"/>
		<path d="M384.7,617.5c0,0-0.1,0-0.1,0l-3.6-0.3c-0.8-0.1-1.3-0.7-1.3-1.5l0.1-0.8c0-0.4,0.2-0.7,0.5-0.9c0.3-0.2,0.6-0.3,1-0.3
			l3.6,0.3c0.8,0.1,1.3,0.7,1.3,1.5l-0.1,0.8c0,0.4-0.2,0.7-0.5,0.9C385.3,617.4,385,617.5,384.7,617.5z M381.2,614.7
			c-0.1,0-0.2,0-0.2,0.1c-0.1,0.1-0.1,0.2-0.1,0.3l-0.1,0.8c0,0.2,0.1,0.4,0.4,0.4l3.6,0.3l0,0c0.1,0,0.2,0,0.3-0.1
			c0.1-0.1,0.1-0.2,0.1-0.3l0.1-0.8c0-0.2-0.1-0.4-0.4-0.4L381.2,614.7C381.2,614.7,381.2,614.7,381.2,614.7z"/>
	</g>
	<g>
		<g>
			<g>
				<path class="st0" d="M221.6,551c-4.7,9.8-2,15.8,1.3,15.7c3.3-0.1,6.9-1.9,6.9-1.9l8.4-29.3C238.2,535.4,226.4,541.1,221.6,551z
					 M230,562.1c-1,0.8-6.1,2.9-7.6,0.4s0-6.3,3.2-12.5c3.2-6.2,8.4-8.3,8.4-8.3l1.6-0.7l-0.2,2.4L230,562.1z"/>
				<path d="M222.8,567.1c-1.2,0-2.3-0.7-3.1-1.8c-1.6-2.4-2-7.5,1.4-14.6c4.8-9.9,16.4-15.5,16.9-15.8c0.2-0.1,0.4-0.1,0.5,0.1
					c0.2,0.1,0.2,0.3,0.2,0.5l-8.4,29.3c0,0.1-0.1,0.2-0.3,0.3c-0.2,0.1-3.8,1.9-7.1,2C222.9,567.1,222.9,567.1,222.8,567.1z
					 M237.4,536.4c-3,1.6-11.6,6.9-15.4,14.8c-3.2,6.7-2.9,11.4-1.4,13.6c0.6,0.9,1.4,1.4,2.3,1.4c2.7-0.1,5.7-1.4,6.5-1.8l0.5-1.6
					c-1.1,0.7-3.8,1.7-5.8,1.4c-1-0.2-1.7-0.6-2.2-1.4c-1.6-2.7-0.1-6.7,3.2-13c3.3-6.2,8.5-8.5,8.7-8.6l1.6-0.7
					c0.2-0.1,0.3-0.1,0.5,0c0.1,0.1,0.2,0.2,0.2,0.4L237.4,536.4z M235.1,541.7l-0.9,0.4c-0.1,0-5.1,2.2-8.2,8.1
					c-3.1,5.8-4.6,9.7-3.3,12c0.3,0.5,0.8,0.8,1.5,0.9c1.8,0.3,4.4-0.7,5.3-1.3l5.5-18.6L235.1,541.7z M230,562.1L230,562.1
					L230,562.1z"/>
			</g>
		</g>
		<g>
			<g>
				<path class="st0" d="M253.1,514.5c-6.1,1.7-10.9,15.1-10.9,15.1l1.9,2.7c0,0,12.6-7.3,15.3-11.7
					C262.1,516.2,259.2,512.8,253.1,514.5z M253.4,521.4c-2.4,2.7-7.2,5.8-7.2,5.8v-1.1c0,0,6-9.1,8.2-9.5
					C256.6,516.2,255.8,518.7,253.4,521.4z"/>
				<path d="M244.1,532.7c-0.2,0-0.3-0.1-0.4-0.2l-1.9-2.7c-0.1-0.1-0.1-0.3-0.1-0.5c0.2-0.6,5-13.6,11.3-15.4l0,0
					c3.2-0.9,5.9-0.5,7.2,1.2c1.1,1.4,1,3.5-0.3,5.6c-2.7,4.4-15,11.5-15.5,11.8C244.3,532.7,244.2,532.7,244.1,532.7z M242.7,529.5
					l1.5,2.1c2.1-1.3,12.4-7.5,14.7-11.3c1.1-1.8,1.2-3.4,0.4-4.5c-1-1.3-3.3-1.7-6.1-0.9l0,0C247.9,516.5,243.4,527.7,242.7,529.5z
					 M246.2,527.7c-0.1,0-0.2,0-0.2-0.1c-0.2-0.1-0.3-0.3-0.3-0.4v-1.1c0-0.1,0-0.2,0.1-0.3c1-1.5,6.2-9.3,8.5-9.8
					c1.1-0.2,1.5,0.2,1.7,0.5c0.7,1.2-0.7,3.4-2.2,5.1c-2.4,2.7-7.1,5.8-7.3,5.9C246.4,527.7,246.3,527.7,246.2,527.7z M254.8,517.1
					c-0.1,0-0.2,0-0.4,0c-1.4,0.3-5.5,5.7-7.8,9.1c1.5-1,4.6-3.3,6.3-5.2l0,0c1.9-2.1,2.3-3.6,2.1-3.9
					C255.1,517.1,255,517.1,254.8,517.1z"/>
			</g>
		</g>
		<g>
			<path class="st0" d="M242.1,529.6c0,0-3.2-0.6-3.5,2.7c-0.2,3.2-4.5,27.1-3.6,45.4c1,18.3,1.4,43,1.4,43h3.1c0,0-1-42.7-1-49.3
				c-0.1-6.6,2.1-32.1,2.6-34.4c0.4-2.3,3-4.7,3-4.7L242.1,529.6z"/>
			<path d="M239.6,621.1h-3.1c-0.3,0-0.5-0.2-0.5-0.5c0-0.2-0.4-24.9-1.4-43c-0.8-14.7,1.8-32.7,3-41.3c0.3-2,0.5-3.5,0.5-4.1
				c0.1-1.1,0.5-1.9,1.2-2.5c1.2-0.9,2.8-0.7,2.9-0.6c0.1,0,0.2,0.1,0.3,0.2l1.9,2.7c0.1,0.2,0.1,0.5-0.1,0.7c0,0-2.4,2.4-2.8,4.4
				c-0.5,2.3-2.6,27.6-2.6,34.3c0,6.6,1,48.9,1,49.3c0,0.1,0,0.3-0.1,0.4C239.8,621.1,239.7,621.1,239.6,621.1z M237,620.1h2.1
				c-0.1-4.9-1-42.6-1-48.8c-0.1-6.7,2.1-32.2,2.6-34.5c0.4-1.9,2.1-3.9,2.8-4.7l-1.6-2.2c-0.4,0-1.3,0-1.9,0.5
				c-0.5,0.4-0.7,1-0.8,1.8c0,0.7-0.3,2.1-0.6,4.2c-1.2,8.6-3.8,26.5-3,41.1C236.5,594.3,236.9,616.5,237,620.1z"/>
		</g>
		<g>
			<path class="st0" d="M237.6,540.4c0,0-4.1,3.8-5.5,11.8c-1.5,8-5.1,22-5.1,27s-2.6,25.8-3,30.6s-0.4,4.9-0.4,4.9h3.1
				c0,0,0.7-8.5,1.4-13.4s1-16.9,1.2-22.5s4.3-22.6,4.7-25.2c0.5-2.6,2.4-4.1,2.4-4.1L237.6,540.4z"/>
			<path d="M226.6,615.2h-3.1c-0.1,0-0.3-0.1-0.4-0.2c-0.1-0.1-0.1-0.2-0.1-0.4l0.4-4.9c0.1-1.7,0.5-5.2,1-9.4c0.9-8,2-18,2-21.2
				c0-3.3,1.6-10.4,3.1-17.2c0.8-3.7,1.6-7.1,2.1-9.9c1.5-8.1,5.5-11.9,5.7-12.1c0.2-0.1,0.4-0.2,0.6-0.1c0.2,0.1,0.3,0.3,0.3,0.5
				l-1.2,9.2c0,0.1-0.1,0.2-0.2,0.3c0,0-1.8,1.5-2.2,3.8c-0.1,0.6-0.4,1.8-0.7,3.4c-1.3,6-3.9,17.3-4,21.6l0,1.3
				c-0.2,5.8-0.5,16.7-1.2,21.3c-0.7,4.8-1.4,13.3-1.4,13.3C227.1,615,226.9,615.2,226.6,615.2z M224.1,614.2h2.1
				c0.2-1.8,0.8-8.8,1.4-12.9c0.7-4.5,1-15.3,1.2-21.1l0-1.3c0.1-4.4,2.7-15.8,4-21.8c0.4-1.6,0.6-2.9,0.7-3.4
				c0.4-2.3,1.9-3.8,2.4-4.2l0.9-7.3c-1.3,1.7-3.4,5.1-4.3,10.3c-0.5,2.8-1.3,6.3-2.1,9.9c-1.5,6.8-3,13.8-3,17
				c0,3.3-1.1,13.3-2,21.3c-0.5,4.1-0.9,7.7-1,9.4L224.1,614.2z"/>
		</g>
	</g>
	<g>
		<path class="st1" d="M239.3,606.6l-3.6,0.1c-0.5,0-0.9-0.4-0.9-0.8l0-0.8c0-0.5,0.4-0.9,0.8-0.9l3.6-0.1c0.5,0,0.9,0.4,0.9,0.8
			l0,0.8C240.2,606.2,239.8,606.6,239.3,606.6z"/>
		<path d="M235.7,607.2c-0.3,0-0.7-0.1-0.9-0.4c-0.3-0.3-0.4-0.6-0.4-1l0-0.8c0-0.4,0.1-0.7,0.4-1s0.6-0.4,1-0.4l3.6-0.1
			c0.8,0,1.4,0.6,1.4,1.3l0,0.8c0,0.4-0.1,0.7-0.4,1c-0.3,0.3-0.6,0.4-1,0.4L235.7,607.2C235.8,607.2,235.7,607.2,235.7,607.2z
			 M239.3,604.5C239.3,604.5,239.3,604.5,239.3,604.5l-3.6,0.1c-0.1,0-0.2,0-0.3,0.1s-0.1,0.2-0.1,0.3l0,0.8c0,0.1,0,0.2,0.1,0.3
			c0.1,0.1,0.2,0.1,0.3,0.1l3.6-0.1h0c0.1,0,0.2,0,0.3-0.1s0.1-0.2,0.1-0.3l0-0.8C239.7,604.7,239.5,604.5,239.3,604.5z"/>
	</g>
	<g>
		<path class="st1" d="M239.4,609.2l-3.6,0.1c-0.5,0-0.9-0.4-0.9-0.8l0-0.8c0-0.5,0.4-0.9,0.8-0.9l3.6-0.1c0.5,0,0.9,0.4,0.9,0.8
			l0,0.8C240.3,608.8,239.9,609.2,239.4,609.2z"/>
		<path d="M235.8,609.8c-0.7,0-1.4-0.6-1.4-1.3l0-0.8c0-0.8,0.6-1.4,1.3-1.4l3.6-0.1c0.8,0,1.4,0.6,1.4,1.3l0,0.8
			c0,0.8-0.6,1.4-1.3,1.4h0L235.8,609.8C235.8,609.8,235.8,609.8,235.8,609.8z M239.4,609.2L239.4,609.2L239.4,609.2z M239.4,607.1
			C239.4,607.1,239.4,607.1,239.4,607.1l-3.6,0.1c-0.2,0-0.4,0.2-0.4,0.4l0,0.8c0,0.2,0.2,0.4,0.4,0.4l3.6-0.1
			c0.2,0,0.4-0.2,0.4-0.4l0-0.8C239.8,607.3,239.6,607.1,239.4,607.1z"/>
	</g>
	<g>
		<path class="st1" d="M228.1,605.5l-3.6-0.3c-0.5,0-0.8-0.5-0.8-0.9l0.1-0.8c0-0.5,0.5-0.8,0.9-0.8l3.6,0.3c0.5,0,0.8,0.5,0.8,0.9
			l-0.1,0.8C229,605.2,228.6,605.5,228.1,605.5z"/>
		<path d="M228.2,606c0,0-0.1,0-0.1,0l0,0l-3.6-0.3c-0.8-0.1-1.3-0.7-1.3-1.5l0.1-0.8c0-0.4,0.2-0.7,0.5-0.9c0.3-0.2,0.6-0.4,1-0.3
			l3.6,0.3c0.8,0.1,1.3,0.7,1.3,1.5l-0.1,0.8C229.5,605.5,228.9,606,228.2,606z M228.2,605c0.2,0,0.4-0.1,0.4-0.4l0.1-0.8
			c0-0.2-0.1-0.4-0.4-0.4l-3.6-0.3c-0.1,0-0.2,0-0.3,0.1c-0.1,0.1-0.1,0.2-0.1,0.3l-0.1,0.8c0,0.2,0.1,0.4,0.4,0.4L228.2,605z"/>
	</g>
	<g>
		<path class="st1" d="M227.9,608.1l-3.6-0.3c-0.5,0-0.8-0.5-0.8-0.9l0.1-0.8c0-0.5,0.5-0.8,0.9-0.8l3.6,0.3c0.5,0,0.8,0.5,0.8,0.9
			l-0.1,0.8C228.8,607.8,228.4,608.1,227.9,608.1z"/>
		<path d="M228,608.6c0,0-0.1,0-0.1,0l0,0l-3.6-0.3c-0.4,0-0.7-0.2-0.9-0.5s-0.4-0.6-0.3-1l0.1-0.8c0-0.4,0.2-0.7,0.5-0.9
			c0.3-0.2,0.6-0.4,1-0.3l3.6,0.3c0.4,0,0.7,0.2,0.9,0.5s0.4,0.6,0.3,1l-0.1,0.8c0,0.4-0.2,0.7-0.5,0.9
			C228.6,608.5,228.3,608.6,228,608.6z M228,607.6c0.1,0,0.2,0,0.3-0.1c0.1-0.1,0.1-0.2,0.1-0.3l0.1-0.8c0-0.1,0-0.2-0.1-0.3
			s-0.2-0.1-0.3-0.1l-3.6-0.3c-0.1,0-0.2,0-0.3,0.1c-0.1,0.1-0.1,0.2-0.1,0.3l-0.1,0.8c0,0.1,0,0.2,0.1,0.3s0.2,0.1,0.3,0.1
			L228,607.6z"/>
	</g>
</g>
</svg>
