<?xml version="1.0" encoding="utf-8"?>
<!-- Generator: Adobe Illustrator 27.5.0, SVG Export Plug-In . SVG Version: 6.00 Build 0)  -->
<svg version="1.1" id="Layer_1" xmlns="http://www.w3.org/2000/svg" xmlns:xlink="http://www.w3.org/1999/xlink" x="0px" y="0px"
	 viewBox="0 0 600 1200" style="enable-background:new 0 0 600 1200;" xml:space="preserve">
<style type="text/css">
	.st0{fill:#312D51;}
	.st1{clip-path:url(#SVGID_00000064351087331824517670000016719382475703693232_);}
	.st2{fill:#FFFFFF;}
	.st3{clip-path:url(#SVGID_00000016754819291291012880000002590049071608086404_);}
	.st4{fill:#701E13;}
	.st5{fill:none;}
</style>
<g>
	<g>
		<path class="st0" d="M304.9,430.7c6.1-5.4,6.9-9.3,6.9-9.3c-25.8-16.2-40.8-25.8-35.3-49c3.5-14.7,8.8-28.2,8.8-28.2l0,0
			c-0.3,0.1-0.6,0.3-0.9,0.4c-0.2,0.1-0.4,0.2-0.6,0.2c-0.3,0.1-0.7,0.3-1.1,0.4l0,0l0,0c-7.3,18.4-16.7,56.4-16.7,62.3l0,0
			c0,0.8-0.2,16.2,7.6,23.7c1.3,1.2,2.8,2.3,4.6,3C290.8,439.6,301,434.2,304.9,430.7z"/>
		<path class="st0" d="M353,345.5c0,0,7.9,19.9,8.6,30.2c0.9,14.7-16.7,38.8-35,45.7c0,0,1.1,6.7,8.5,10.7c13.1,5,29,2.8,36.5-7.3
			c8.9-12-1.2-27.8-1.2-27.8c-2-10.3-6.9-29.3-15.2-51.1c-0.8-0.2-1.5-0.4-2.2-0.6L353,345.5L353,345.5z"/>
		<g>
			<g>
				<defs>
					<path id="SVGID_1_" d="M353,345.5c0,0,7.9,19.9,8.6,30.2c0.9,14.7-16.7,38.8-35,45.7c0,0,1.1,6.7,8.5,10.7
						c13.1,5,29,2.8,36.5-7.3c8.9-12-1.2-27.8-1.2-27.8c-2-10.3-6.9-29.3-15.2-51.1c-0.8-0.2-1.5-0.4-2.2-0.6L353,345.5L353,345.5z"
						/>
				</defs>
				<clipPath id="SVGID_00000176724172992533697240000004343862447841099699_">
					<use xlink:href="#SVGID_1_"  style="overflow:visible;"/>
				</clipPath>
				<g style="clip-path:url(#SVGID_00000176724172992533697240000004343862447841099699_);">
					<g>
						<path class="st2" d="M466.7,239.1c0,0-23.3-1.3-30.1,4.2c-6.8,5.5-18.6,26.3-10.6,26.3c8.1,0,27.1-16.5,34.3-21.2
							s14.8-10.6,11.9-5.1c-3,5.5-10.6,8.1-9.7,16.5s11,19.5,14,16.5s8.1-17,8.1-18.5s-5.1-15.4-5.1-15.4s14.4,18.2,18.2,24.6
							c3.8,6.4,6.4-6.8,5.9-13.1c-0.4-6.4-22.5-17-22.5-17s8.5-3.4,11.9-14.4s-1.3-25.4-7.2-26.7c-5.9-1.3-12.7,15.3-12.7,22
							s-1.3,14.8-1.3,14.8l-17-13.1c0,0-4.2-5.1-13.1-5.1s-13.1,1.7-13.1,8.9s11.4,14,20.3,12.9S466.7,239.1,466.7,239.1z"/>
						<path class="st2" d="M460.8,254.9c0,0-7.3,3.3-9.2,22s-2.2,46.7-2.2,46.7h-5.1c0,0,1.6-40.2,3.2-46.7
							C449.4,268.7,448.4,258.4,460.8,254.9z"/>
						<circle class="st2" cx="432.9" cy="279.8" r="2"/>
						<circle class="st2" cx="421.4" cy="279.8" r="2"/>
						<circle class="st2" cx="429" cy="273.6" r="2"/>
						<circle class="st2" cx="429.8" cy="287.2" r="2"/>
						<circle class="st2" cx="438" cy="285.3" r="2"/>
						<circle class="st2" cx="436.8" cy="293.8" r="2"/>
						<circle class="st2" cx="417.5" cy="295.8" r="2"/>
						<circle class="st2" cx="444.3" cy="271.7" r="2"/>
					</g>
					<g>
						<path class="st2" d="M538.5,289.7c0,0,20.2-11.7,22.8-20s1.2-32.2-5.5-27.8c-6.7,4.4-13.6,28.7-17.1,36.5s-6.6,17-7.1,10.8
							s4.4-12.5-0.9-19.2c-5.4-6.6-19.9-10.3-20.8-6.2c-0.9,4.1,2.6,18.6,3.4,19.9c0.8,1.2,12.7,10.1,12.7,10.1s-22-7.3-28.7-10.6
							c-6.7-3.2-1.6,9.2,2.2,14.2c3.8,5.1,28.1,1.9,28.1,1.9s-5.2,7.5-2,18.6s15,20.6,20.7,18.4s2.3-19.7-1.4-25.4
							c-3.7-5.7-7.1-13.1-7.1-13.1l21.4,1.7c0,0,6.3,1.9,13.8-2.9c7.4-4.9,10.1-8.6,6.1-14.6c-3.9-6-17.2-5.4-24.1,0.3
							C548,288,538.5,289.7,538.5,289.7z"/>
						<path class="st2" d="M534.8,273.2c0,0,4.3-6.8-4.3-23.5s-23.7-40.2-23.7-40.2l4.3-2.8c0,0,20.7,34.5,22.9,40.8
							C536.7,255.4,543.2,263.5,534.8,273.2z"/>
						<circle class="st2" cx="544.5" cy="237" r="2"/>
						<circle class="st2" cx="554.1" cy="230.7" r="2"/>
						<circle class="st2" cx="551.1" cy="240.1" r="2"/>
						<circle class="st2" cx="543" cy="229.1" r="2"/>
						<circle class="st2" cx="537.2" cy="235.3" r="2"/>
						<circle class="st2" cx="533.5" cy="227.5" r="2"/>
						<circle class="st2" cx="548.6" cy="215.2" r="2"/>
						<circle class="st2" cx="539.4" cy="250.1" r="2"/>
					</g>
					<g>
						<path class="st2" d="M332.2,146.3c0,0-23.3-1.3-30.1,4.2s-18.6,26.3-10.6,26.3c8.1,0,27.1-16.5,34.3-21.2
							c7.2-4.7,14.8-10.6,11.9-5.1c-3,5.5-10.6,8.1-9.7,16.5c0.8,8.5,11,19.5,14,16.5s8.1-17,8.1-18.5s-5.1-15.4-5.1-15.4
							s14.4,18.2,18.2,24.6c3.8,6.4,6.4-6.8,5.9-13.1c-0.4-6.4-22.5-17-22.5-17s8.5-3.4,11.9-14.4s-1.3-25.4-7.2-26.7
							c-5.9-1.3-12.7,15.3-12.7,22s-1.3,14.8-1.3,14.8l-17-13.1c0,0-4.2-5.1-13.1-5.1s-13.1,1.7-13.1,8.9s11.4,14,20.3,12.9
							S332.2,146.3,332.2,146.3z"/>
						<path class="st2" d="M326.3,162.1c0,0-7.3,3.3-9.2,22c-1.9,18.7-2.2,46.7-2.2,46.7h-5.1c0,0,1.6-40.2,3.2-46.7
							C314.9,175.9,313.9,165.6,326.3,162.1z"/>
						<circle class="st2" cx="298.3" cy="187" r="2"/>
						<circle class="st2" cx="286.8" cy="187" r="2"/>
						<circle class="st2" cx="294.4" cy="180.8" r="2"/>
						<circle class="st2" cx="295.3" cy="194.4" r="2"/>
						<circle class="st2" cx="303.5" cy="192.5" r="2"/>
						<circle class="st2" cx="302.3" cy="201" r="2"/>
						<circle class="st2" cx="282.9" cy="203" r="2"/>
						<circle class="st2" cx="309.7" cy="178.9" r="2"/>
					</g>
					<g>
						<path class="st2" d="M403.9,196.9c0,0,20.2-11.7,22.8-20c2.7-8.3,1.2-32.2-5.5-27.8s-13.6,28.7-17.1,36.5s-6.6,17-7.1,10.8
							s4.4-12.5-0.9-19.2c-5.4-6.6-19.9-10.3-20.8-6.2s2.6,18.6,3.4,19.9c0.8,1.2,12.7,10.1,12.7,10.1s-22-7.3-28.7-10.6
							c-6.7-3.2-1.6,9.2,2.2,14.2s28.1,1.9,28.1,1.9s-5.2,7.5-2,18.6s15,20.6,20.7,18.4c5.7-2.2,2.3-19.7-1.4-25.4
							c-3.7-5.7-7.1-13.1-7.1-13.1l21.4,1.7c0,0,6.3,1.9,13.8-2.9c7.4-4.9,10.1-8.6,6.1-14.6s-17.2-5.4-24.1,0.3
							C413.4,195.2,403.9,196.9,403.9,196.9z"/>
						<path class="st2" d="M400.2,180.4c0,0,4.3-6.8-4.3-23.5s-23.7-40.2-23.7-40.2l4.3-2.8c0,0,20.7,34.5,22.9,40.8
							C402.2,162.6,408.7,170.7,400.2,180.4z"/>
						<circle class="st2" cx="409.9" cy="144.2" r="2"/>
						<circle class="st2" cx="419.5" cy="137.9" r="2"/>
						<circle class="st2" cx="416.6" cy="147.3" r="2"/>
						<circle class="st2" cx="408.4" cy="136.3" r="2"/>
						<circle class="st2" cx="402.6" cy="142.5" r="2"/>
						<circle class="st2" cx="398.9" cy="134.7" r="2"/>
						<circle class="st2" cx="414" cy="122.4" r="2"/>
						<circle class="st2" cx="404.8" cy="157.3" r="2"/>
					</g>
					<g>
						<path class="st2" d="M197.6,53.5c0,0-23.3-1.3-30.1,4.2S148.9,84,156.9,84s27.1-16.5,34.3-21.2s14.8-10.6,11.9-5.1
							c-3,5.5-10.6,8.1-9.7,16.5c0.8,8.5,11,19.5,14,16.5s8.1-17,8.1-18.5s-5.1-15.4-5.1-15.4s14.4,18.2,18.2,24.6s6.4-6.8,5.9-13.1
							c-0.4-6.4-22.5-17-22.5-17s8.5-3.4,11.9-14.4s-1.3-25.4-7.2-26.7S204,25.5,204,32.3s-1.3,14.8-1.3,14.8l-17-13.1
							c0,0-4.2-5.1-13.1-5.1s-13.1,1.7-13.1,8.9s11.4,14,20.3,12.9C188.7,49.7,197.6,53.5,197.6,53.5z"/>
						<path class="st2" d="M191.7,69.3c0,0-7.3,3.3-9.2,22s-2.2,46.7-2.2,46.7h-5.1c0,0,1.6-40.2,3.2-46.7
							C180.3,83.1,179.3,72.8,191.7,69.3z"/>
						<circle class="st2" cx="163.8" cy="94.2" r="2"/>
						<circle class="st2" cx="152.3" cy="94.2" r="2"/>
						<circle class="st2" cx="159.9" cy="88" r="2"/>
						<circle class="st2" cx="160.7" cy="101.6" r="2"/>
						<circle class="st2" cx="168.9" cy="99.7" r="2"/>
						<circle class="st2" cx="167.7" cy="108.2" r="2"/>
						<circle class="st2" cx="148.4" cy="110.2" r="2"/>
						<circle class="st2" cx="175.2" cy="86.1" r="2"/>
					</g>
					<g>
						<path class="st2" d="M269.4,104.1c0,0,20.2-11.7,22.8-20c2.7-8.3,1.2-32.2-5.5-27.8c-6.7,4.4-13.6,28.7-17.1,36.5
							s-6.6,17-7.1,10.8s4.4-12.5-0.9-19.2c-5.4-6.6-19.9-10.3-20.8-6.2c-0.9,4.1,2.6,18.6,3.4,19.9s12.7,10.1,12.7,10.1
							s-22-7.3-28.7-10.6s-1.6,9.2,2.2,14.2c3.8,5.1,28.1,1.9,28.1,1.9s-5.2,7.5-2,18.6c3.2,11.1,15,20.6,20.7,18.4
							c5.7-2.2,2.3-19.7-1.4-25.4c-3.7-5.7-7.1-13.1-7.1-13.1l21.4,1.7c0,0,6.3,1.9,13.8-2.9c7.4-4.9,10.1-8.6,6.1-14.6
							c-3.9-6-17.2-5.4-24.1,0.3C278.9,102.4,269.4,104.1,269.4,104.1z"/>
						<path class="st2" d="M265.7,87.6c0,0,4.3-6.8-4.3-23.5s-23.7-40.2-23.7-40.2l4.3-2.8c0,0,20.7,34.5,22.9,40.8
							C267.6,69.8,274.1,77.9,265.7,87.6z"/>
						<circle class="st2" cx="275.3" cy="51.4" r="2"/>
						<circle class="st2" cx="285" cy="45.1" r="2"/>
						<circle class="st2" cx="282" cy="54.5" r="2"/>
						<circle class="st2" cx="273.9" cy="43.6" r="2"/>
						<circle class="st2" cx="268.1" cy="49.7" r="2"/>
						<circle class="st2" cx="264.4" cy="41.9" r="2"/>
						<circle class="st2" cx="279.5" cy="29.6" r="2"/>
						<circle class="st2" cx="270.3" cy="64.5" r="2"/>
					</g>
					<g>
						<path class="st2" d="M449.6,363.4c0,0-23.3-1.3-30.1,4.2c-6.8,5.5-18.6,26.3-10.6,26.3c8.1,0,27.1-16.5,34.3-21.2
							s14.8-10.6,11.9-5.1c-3,5.5-10.6,8.1-9.7,16.5c0.8,8.5,11,19.5,14,16.5s8.1-17,8.1-18.5s-5.1-15.4-5.1-15.4
							s14.4,18.2,18.2,24.6c3.8,6.4,6.4-6.8,5.9-13.1c-0.4-6.4-22.5-17-22.5-17s8.5-3.4,11.9-14.4s-1.3-25.4-7.2-26.7
							c-5.9-1.3-12.7,15.3-12.7,22s-1.3,14.8-1.3,14.8l-17-13.1c0,0-4.2-5.1-13.1-5.1s-13.1,1.7-13.1,8.9s11.4,14,20.3,12.9
							S449.6,363.4,449.6,363.4z"/>
						<path class="st2" d="M443.7,379.2c0,0-7.3,3.3-9.2,22c-1.9,18.7-2.2,46.7-2.2,46.7h-5.1c0,0,1.6-40.2,3.2-46.7
							C432.3,393.1,431.3,382.7,443.7,379.2z"/>
						<circle class="st2" cx="415.8" cy="404.2" r="2"/>
						<circle class="st2" cx="404.3" cy="404.2" r="2"/>
						<circle class="st2" cx="411.8" cy="398" r="2"/>
						<circle class="st2" cx="412.7" cy="411.6" r="2"/>
						<circle class="st2" cx="420.9" cy="409.6" r="2"/>
						<circle class="st2" cx="419.7" cy="418.2" r="2"/>
						<circle class="st2" cx="400.3" cy="420.1" r="2"/>
						<circle class="st2" cx="427.1" cy="396" r="2"/>
					</g>
					<g>
						<path class="st2" d="M521.3,414c0,0,20.2-11.7,22.8-20c2.7-8.3,1.2-32.2-5.5-27.8c-6.7,4.4-13.6,28.7-17.1,36.5
							s-6.6,17-7.1,10.8s4.4-12.5-0.9-19.2c-5.4-6.6-19.9-10.3-20.8-6.2s2.6,18.6,3.4,19.9c0.8,1.2,12.7,10.1,12.7,10.1
							s-22-7.3-28.7-10.6c-6.7-3.2-1.6,9.2,2.2,14.2c3.8,5.1,28.1,1.9,28.1,1.9s-5.2,7.5-2,18.6s15,20.6,20.7,18.4
							s2.3-19.7-1.4-25.4c-3.7-5.7-7.1-13.1-7.1-13.1l21.4,1.7c0,0,6.3,1.9,13.8-2.9s10.1-8.6,6.1-14.6c-3.9-6-17.2-5.4-24.1,0.3
							C530.9,412.3,521.3,414,521.3,414z"/>
						<path class="st2" d="M517.6,397.6c0,0,4.3-6.8-4.3-23.5c-8.6-16.7-23.7-40.2-23.7-40.2l4.3-2.8c0,0,20.7,34.5,22.9,40.8
							C519.6,379.7,526.1,387.8,517.6,397.6z"/>
						<circle class="st2" cx="527.3" cy="361.4" r="2"/>
						<circle class="st2" cx="536.9" cy="355.1" r="2"/>
						<circle class="st2" cx="534" cy="364.4" r="2"/>
						<circle class="st2" cx="525.8" cy="353.5" r="2"/>
						<circle class="st2" cx="520" cy="359.6" r="2"/>
						<circle class="st2" cx="516.4" cy="351.8" r="2"/>
						<circle class="st2" cx="531.5" cy="339.6" r="2"/>
						<circle class="st2" cx="522.3" cy="374.4" r="2"/>
					</g>
					<g>
						<path class="st2" d="M315.1,270.6c0,0-23.3-1.3-30.1,4.2c-6.8,5.5-18.6,26.3-10.6,26.3c8.1,0,27.1-16.5,34.3-21.2
							c7.2-4.7,14.8-10.6,11.9-5.1c-3,5.5-10.6,8.1-9.7,16.5c0.8,8.5,11,19.5,14,16.5s8.1-17,8.1-18.5s-5.1-15.4-5.1-15.4
							s14.4,18.2,18.2,24.6c3.8,6.4,6.4-6.8,5.9-13.1s-22.5-17-22.5-17s8.5-3.4,11.9-14.4s-1.3-25.4-7.2-26.7
							c-5.9-1.3-12.7,15.3-12.7,22s-1.3,14.8-1.3,14.8l-17-13.1c0,0-4.2-5.1-13.1-5.1s-13.1,1.7-13.1,8.9c0,7.2,11.4,14,20.3,12.9
							C306.2,266.8,315.1,270.6,315.1,270.6z"/>
						<path class="st2" d="M309.1,286.4c0,0-7.3,3.3-9.2,22s-2.2,46.7-2.2,46.7h-5.1c0,0,1.6-40.2,3.2-46.7
							C297.7,300.3,296.7,289.9,309.1,286.4z"/>
						<circle class="st2" cx="281.2" cy="311.4" r="2"/>
						<circle class="st2" cx="269.7" cy="311.4" r="2"/>
						<circle class="st2" cx="277.3" cy="305.2" r="2"/>
						<circle class="st2" cx="278.1" cy="318.8" r="2"/>
						<circle class="st2" cx="286.3" cy="316.8" r="2"/>
						<circle class="st2" cx="285.1" cy="325.4" r="2"/>
						<circle class="st2" cx="265.8" cy="327.3" r="2"/>
						<circle class="st2" cx="292.6" cy="303.2" r="2"/>
					</g>
					<g>
						<path class="st2" d="M386.8,321.2c0,0,20.2-11.7,22.8-20c2.7-8.3,1.2-32.2-5.5-27.8c-6.7,4.4-13.6,28.7-17.1,36.5
							s-6.6,17-7.1,10.8s4.4-12.5-0.9-19.2c-5.4-6.6-19.9-10.3-20.8-6.2s2.6,18.6,3.4,19.9s12.7,10.1,12.7,10.1s-22-7.3-28.7-10.6
							c-6.7-3.2-1.6,9.2,2.2,14.2c3.8,5.1,28.1,1.9,28.1,1.9s-5.2,7.5-2,18.6s15,20.6,20.7,18.4s2.3-19.7-1.4-25.4
							c-3.7-5.7-7.1-13.1-7.1-13.1l21.4,1.7c0,0,6.3,1.9,13.8-2.9c7.4-4.9,10.1-8.6,6.1-14.6c-3.9-6-17.2-5.4-24.1,0.3
							C396.3,319.5,386.8,321.2,386.8,321.2z"/>
						<path class="st2" d="M383.1,304.8c0,0,4.3-6.8-4.3-23.5c-8.6-16.7-23.7-40.2-23.7-40.2l4.3-2.8c0,0,20.7,34.5,22.9,40.8
							C385,286.9,391.5,295,383.1,304.8z"/>
						<circle class="st2" cx="392.8" cy="268.6" r="2"/>
						<circle class="st2" cx="402.4" cy="262.3" r="2"/>
						<circle class="st2" cx="399.4" cy="271.6" r="2"/>
						<circle class="st2" cx="391.3" cy="260.7" r="2"/>
						<circle class="st2" cx="385.5" cy="266.8" r="2"/>
						<circle class="st2" cx="381.8" cy="259" r="2"/>
						<circle class="st2" cx="396.9" cy="246.8" r="2"/>
						<circle class="st2" cx="387.7" cy="281.7" r="2"/>
					</g>
					<g>
						<path class="st2" d="M180.5,177.8c0,0-23.3-1.3-30.1,4.2s-18.6,26.3-10.6,26.3c8.1,0,27.1-16.5,34.3-21.2s14.8-10.6,11.9-5.1
							c-3,5.5-10.6,8.1-9.7,16.5c0.8,8.5,11,19.5,14,16.5s8.1-17,8.1-18.5s-5.1-15.4-5.1-15.4s14.4,18.2,18.2,24.6
							c3.8,6.4,6.4-6.8,5.9-13.1c-0.4-6.4-22.5-17-22.5-17s8.5-3.4,11.9-14.4s-1.3-25.4-7.2-26.7s-12.7,15.3-12.7,22
							s-1.3,14.8-1.3,14.8l-17-13.1c0,0-4.2-5.1-13.1-5.1c-8.9,0-13.1,1.7-13.1,8.9s11.4,14,20.3,12.9S180.5,177.8,180.5,177.8z"/>
						<path class="st2" d="M174.6,193.6c0,0-7.3,3.3-9.2,22s-2.2,46.7-2.2,46.7H158c0,0,1.6-40.2,3.2-46.7
							C163.2,207.5,162.2,197.1,174.6,193.6z"/>
						<circle class="st2" cx="146.6" cy="218.6" r="2"/>
						<circle class="st2" cx="135.1" cy="218.6" r="2"/>
						<circle class="st2" cx="142.7" cy="212.4" r="2"/>
						<circle class="st2" cx="143.6" cy="226" r="2"/>
						<circle class="st2" cx="151.8" cy="224" r="2"/>
						<circle class="st2" cx="150.6" cy="232.6" r="2"/>
						<circle class="st2" cx="131.2" cy="234.5" r="2"/>
						<circle class="st2" cx="158" cy="210.4" r="2"/>
					</g>
					<g>
						<path class="st2" d="M252.2,228.4c0,0,20.2-11.7,22.8-20s1.2-32.2-5.5-27.8s-13.6,28.7-17.1,36.5s-6.6,17-7.1,10.8
							s4.4-12.5-0.9-19.2c-5.4-6.6-19.9-10.3-20.8-6.2c-0.9,4.1,2.6,18.6,3.4,19.9c0.8,1.2,12.7,10.1,12.7,10.1s-22-7.3-28.7-10.6
							c-6.7-3.2-1.6,9.2,2.2,14.2c3.8,5.1,28.1,1.9,28.1,1.9s-5.2,7.5-2,18.6c3.2,11.1,15,20.6,20.7,18.4s2.3-19.7-1.4-25.4
							c-3.7-5.7-7.1-13.1-7.1-13.1l21.4,1.7c0,0,6.3,1.9,13.8-2.9c7.4-4.9,10.1-8.6,6.1-14.6c-3.9-6-17.2-5.4-24.1,0.3
							C261.8,226.7,252.2,228.4,252.2,228.4z"/>
						<path class="st2" d="M248.5,212c0,0,4.3-6.8-4.3-23.5s-23.7-40.2-23.7-40.2l4.3-2.8c0,0,20.7,34.5,22.9,40.8
							C250.5,194.1,257,202.2,248.5,212z"/>
						<circle class="st2" cx="258.2" cy="175.8" r="2"/>
						<circle class="st2" cx="267.8" cy="169.5" r="2"/>
						<circle class="st2" cx="264.9" cy="178.8" r="2"/>
						<circle class="st2" cx="256.7" cy="167.9" r="2"/>
						<circle class="st2" cx="250.9" cy="174" r="2"/>
						<circle class="st2" cx="247.2" cy="166.2" r="2"/>
						<circle class="st2" cx="262.3" cy="154" r="2"/>
						<circle class="st2" cx="253.1" cy="188.9" r="2"/>
					</g>
					<g>
						<path class="st2" d="M432.5,487.8c0,0-23.3-1.3-30.1,4.2s-18.6,26.3-10.6,26.3c8.1,0,27.1-16.5,34.3-21.2
							c7.2-4.7,14.8-10.6,11.9-5.1c-3,5.5-10.6,8.1-9.7,16.5c0.8,8.5,11,19.5,14,16.5s8.1-17,8.1-18.5s-5.1-15.4-5.1-15.4
							s14.4,18.2,18.2,24.6c3.8,6.4,6.4-6.8,5.9-13.1c-0.4-6.4-22.5-17-22.5-17s8.5-3.4,11.9-14.4s-1.3-25.4-7.2-26.7
							c-5.9-1.3-12.7,15.3-12.7,22s-1.3,14.8-1.3,14.8l-17-13.1c0,0-4.2-5.1-13.1-5.1s-13.1,1.7-13.1,8.9c0,7.2,11.4,14,20.3,12.9
							S432.5,487.8,432.5,487.8z"/>
						<path class="st2" d="M426.5,503.6c0,0-7.3,3.3-9.2,22c-1.9,18.7-2.2,46.7-2.2,46.7H410c0,0,1.6-40.2,3.2-46.7
							C415.1,517.4,414.1,507.1,426.5,503.6z"/>
						<circle class="st2" cx="398.6" cy="528.5" r="2"/>
						<circle class="st2" cx="387.1" cy="528.5" r="2"/>
						<circle class="st2" cx="394.7" cy="522.3" r="2"/>
						<circle class="st2" cx="395.5" cy="535.9" r="2"/>
						<circle class="st2" cx="403.8" cy="534" r="2"/>
						<circle class="st2" cx="402.5" cy="542.5" r="2"/>
						<circle class="st2" cx="383.2" cy="544.5" r="2"/>
						<circle class="st2" cx="410" cy="520.4" r="2"/>
					</g>
					<g>
						<path class="st2" d="M504.2,538.4c0,0,20.2-11.7,22.8-20c2.7-8.3,1.2-32.2-5.5-27.8c-6.7,4.4-13.6,28.7-17.1,36.5
							s-6.6,17-7.1,10.8s4.4-12.5-0.9-19.2c-5.4-6.6-19.9-10.3-20.8-6.2s2.6,18.6,3.4,19.9s12.7,10.1,12.7,10.1s-22-7.3-28.7-10.6
							c-6.7-3.2-1.6,9.2,2.2,14.2s28.1,1.9,28.1,1.9s-5.2,7.5-2,18.6s15,20.6,20.7,18.4c5.7-2.2,2.3-19.7-1.4-25.4
							c-3.7-5.7-7.1-13.1-7.1-13.1l21.4,1.7c0,0,6.3,1.9,13.8-2.9c7.4-4.9,10.1-8.6,6.1-14.6s-17.2-5.4-24.1,0.3
							C513.7,536.7,504.2,538.4,504.2,538.4z"/>
						<path class="st2" d="M500.5,521.9c0,0,4.3-6.8-4.3-23.5s-23.7-40.2-23.7-40.2l4.3-2.8c0,0,20.7,34.5,22.9,40.8
							C502.4,504.1,509,512.2,500.5,521.9z"/>
						<circle class="st2" cx="510.2" cy="485.7" r="2"/>
						<circle class="st2" cx="519.8" cy="479.4" r="2"/>
						<circle class="st2" cx="516.9" cy="488.8" r="2"/>
						<circle class="st2" cx="508.7" cy="477.8" r="2"/>
						<circle class="st2" cx="502.9" cy="484" r="2"/>
						<circle class="st2" cx="499.2" cy="476.2" r="2"/>
						<circle class="st2" cx="514.3" cy="463.9" r="2"/>
						<circle class="st2" cx="505.1" cy="498.8" r="2"/>
					</g>
					<g>
						<path class="st2" d="M297.9,395c0,0-23.3-1.3-30.1,4.2s-18.6,26.3-10.6,26.3c8.1,0,27.1-16.5,34.3-21.2s14.8-10.6,11.9-5.1
							s-10.6,8.1-9.7,16.5c0.8,8.5,11,19.5,14,16.5s8.1-17,8.1-18.5s-5.1-15.4-5.1-15.4s14.4,18.2,18.2,24.6
							c3.8,6.4,6.4-6.8,5.9-13.1c-0.4-6.4-22.5-17-22.5-17s8.5-3.4,11.9-14.4s-1.3-25.4-7.2-26.7s-12.7,15.3-12.7,22
							s-1.3,14.8-1.3,14.8l-17-13.1c0,0-4.2-5.1-13.1-5.1s-13.1,1.7-13.1,8.9s11.4,14,20.3,12.9C289,391.2,297.9,395,297.9,395z"/>
						<path class="st2" d="M292,410.8c0,0-7.3,3.3-9.2,22s-2.2,46.7-2.2,46.7h-5.1c0,0,1.6-40.2,3.2-46.7
							C280.6,424.6,279.6,414.3,292,410.8z"/>
						<circle class="st2" cx="264.1" cy="435.7" r="2"/>
						<circle class="st2" cx="252.6" cy="435.7" r="2"/>
						<circle class="st2" cx="260.1" cy="429.5" r="2"/>
						<circle class="st2" cx="261" cy="443.1" r="2"/>
						<circle class="st2" cx="269.2" cy="441.2" r="2"/>
						<circle class="st2" cx="268" cy="449.7" r="2"/>
						<circle class="st2" cx="248.6" cy="451.7" r="2"/>
						<circle class="st2" cx="275.4" cy="427.6" r="2"/>
					</g>
					<g>
						<path class="st2" d="M369.6,445.6c0,0,20.2-11.7,22.8-20s1.2-32.2-5.5-27.8c-6.7,4.4-13.6,28.7-17.1,36.5s-6.6,17-7.1,10.8
							s4.4-12.5-0.9-19.2c-5.4-6.6-19.9-10.3-20.8-6.2c-0.9,4.1,2.6,18.6,3.4,19.9s12.7,10.1,12.7,10.1s-22-7.3-28.7-10.6
							c-6.7-3.2-1.6,9.2,2.2,14.2c3.8,5.1,28.1,1.9,28.1,1.9s-5.2,7.5-2,18.6s15,20.6,20.7,18.4s2.3-19.7-1.4-25.4
							c-3.7-5.7-7.1-13.1-7.1-13.1l21.4,1.7c0,0,6.3,1.9,13.8-2.9c7.4-4.9,10.1-8.6,6.1-14.6c-3.9-6-17.2-5.4-24.1,0.3
							C379.2,443.9,369.6,445.6,369.6,445.6z"/>
						<path class="st2" d="M365.9,429.1c0,0,4.3-6.8-4.3-23.5c-8.6-16.7-23.7-40.2-23.7-40.2l4.3-2.8c0,0,20.7,34.5,22.9,40.8
							C367.9,411.3,374.4,419.4,365.9,429.1z"/>
						<circle class="st2" cx="375.6" cy="392.9" r="2"/>
						<circle class="st2" cx="385.2" cy="386.6" r="2"/>
						<circle class="st2" cx="382.3" cy="396" r="2"/>
						<circle class="st2" cx="374.1" cy="385" r="2"/>
						<circle class="st2" cx="368.3" cy="391.2" r="2"/>
						<circle class="st2" cx="364.7" cy="383.4" r="2"/>
						<circle class="st2" cx="379.8" cy="371.1" r="2"/>
						<circle class="st2" cx="370.6" cy="406" r="2"/>
					</g>
					<g>
						<path class="st2" d="M163.4,302.2c0,0-23.3-1.3-30.1,4.2s-18.6,26.3-10.6,26.3s27.1-16.5,34.3-21.2s14.8-10.6,11.9-5.1
							c-3,5.5-10.6,8.1-9.7,16.5c0.8,8.5,11,19.5,14,16.5s8.1-17,8.1-18.5s-5.1-15.4-5.1-15.4s14.4,18.2,18.2,24.6s6.4-6.8,5.9-13.1
							c-0.4-6.4-22.5-17-22.5-17s8.5-3.4,11.9-14.4s-1.3-25.4-7.2-26.7c-5.9-1.3-12.7,15.3-12.7,22s-1.3,14.8-1.3,14.8l-17-13.1
							c0,0-4.2-5.1-13.1-5.1s-13.1,1.7-13.1,8.9s11.4,14,20.3,12.9S163.4,302.2,163.4,302.2z"/>
						<path class="st2" d="M157.4,318c0,0-7.3,3.3-9.2,22s-2.2,46.7-2.2,46.7h-5.1c0,0,1.6-40.2,3.2-46.7
							C146,331.8,145,321.5,157.4,318z"/>
						<circle class="st2" cx="129.5" cy="342.9" r="2"/>
						<circle class="st2" cx="118" cy="342.9" r="2"/>
						<circle class="st2" cx="125.6" cy="336.7" r="2"/>
						<circle class="st2" cx="126.4" cy="350.3" r="2"/>
						<circle class="st2" cx="134.6" cy="348.4" r="2"/>
						<circle class="st2" cx="133.4" cy="356.9" r="2"/>
						<circle class="st2" cx="114.1" cy="358.9" r="2"/>
						<circle class="st2" cx="140.9" cy="334.8" r="2"/>
					</g>
					<g>
						<path class="st2" d="M235.1,352.8c0,0,20.2-11.7,22.8-20c2.7-8.3,1.2-32.2-5.5-27.8c-6.7,4.4-13.6,28.7-17.1,36.5
							s-6.6,17-7.1,10.8s4.4-12.5-0.9-19.2s-19.9-10.3-20.8-6.2c-0.9,4.1,2.6,18.6,3.4,19.9c0.8,1.2,12.7,10.1,12.7,10.1
							s-22-7.3-28.7-10.6s-1.6,9.2,2.2,14.2c3.8,5.1,28.1,1.9,28.1,1.9s-5.2,7.5-2,18.6s15,20.6,20.7,18.4s2.3-19.7-1.4-25.4
							c-3.7-5.7-7.1-13.1-7.1-13.1l21.4,1.7c0,0,6.3,1.9,13.8-2.9c7.4-4.9,10.1-8.6,6.1-14.6s-17.2-5.4-24.1,0.3
							C244.6,351.1,235.1,352.8,235.1,352.8z"/>
						<path class="st2" d="M231.4,336.3c0,0,4.3-6.8-4.3-23.5s-23.7-40.2-23.7-40.2l4.3-2.8c0,0,20.7,34.5,22.9,40.8
							C233.3,318.5,239.8,326.6,231.4,336.3z"/>
						<circle class="st2" cx="241.1" cy="300.1" r="2"/>
						<circle class="st2" cx="250.7" cy="293.8" r="2"/>
						<circle class="st2" cx="247.7" cy="303.2" r="2"/>
						<circle class="st2" cx="239.6" cy="292.3" r="2"/>
						<circle class="st2" cx="233.8" cy="298.4" r="2"/>
						<circle class="st2" cx="230.1" cy="290.6" r="2"/>
						<circle class="st2" cx="245.2" cy="278.3" r="2"/>
						<circle class="st2" cx="236" cy="313.2" r="2"/>
					</g>
					<g>
						<path class="st2" d="M415.3,612.1c0,0-23.3-1.3-30.1,4.2c-6.8,5.5-18.6,26.3-10.6,26.3c8.1,0,27.1-16.5,34.3-21.2
							s14.8-10.6,11.9-5.1c-3,5.5-10.6,8.1-9.7,16.5c0.8,8.5,11,19.5,14,16.5s8.1-17,8.1-18.5s-5.1-15.4-5.1-15.4
							s14.4,18.2,18.2,24.6c3.8,6.4,6.4-6.8,5.9-13.1s-22.5-17-22.5-17s8.5-3.4,11.9-14.4s-1.3-25.4-7.2-26.7s-12.7,15.3-12.7,22
							c0,6.8-1.3,14.8-1.3,14.8l-17-13.1c0,0-4.2-5.1-13.1-5.1s-13.1,1.7-13.1,8.9s11.4,14,20.3,12.9S415.3,612.1,415.3,612.1z"/>
						<path class="st2" d="M409.4,627.9c0,0-7.3,3.3-9.2,22s-2.2,46.7-2.2,46.7h-5.1c0,0,1.6-40.2,3.2-46.7
							C398,641.8,397,631.4,409.4,627.9z"/>
						<circle class="st2" cx="381.5" cy="652.9" r="2"/>
						<circle class="st2" cx="370" cy="652.9" r="2"/>
						<circle class="st2" cx="377.5" cy="646.7" r="2"/>
						<circle class="st2" cx="378.4" cy="660.3" r="2"/>
						<circle class="st2" cx="386.6" cy="658.3" r="2"/>
						<circle class="st2" cx="385.4" cy="666.9" r="2"/>
						<circle class="st2" cx="366.1" cy="668.8" r="2"/>
						<circle class="st2" cx="392.9" cy="644.7" r="2"/>
					</g>
					<g>
						<path class="st2" d="M487,662.7c0,0,20.2-11.7,22.8-20s1.2-32.2-5.5-27.8s-13.6,28.7-17.1,36.5s-6.6,17-7.1,10.8
							s4.4-12.5-0.9-19.2c-5.4-6.6-19.9-10.3-20.8-6.2s2.6,18.6,3.4,19.9c0.8,1.2,12.7,10.1,12.7,10.1s-22-7.3-28.7-10.6
							c-6.7-3.2-1.6,9.2,2.2,14.2c3.8,5.1,28.1,1.9,28.1,1.9s-5.2,7.5-2,18.6s15,20.6,20.7,18.4c5.7-2.2,2.3-19.7-1.4-25.4
							c-3.7-5.7-7.1-13.1-7.1-13.1l21.4,1.7c0,0,6.3,1.9,13.8-2.9c7.4-4.9,10.1-8.6,6.1-14.6c-3.9-6-17.2-5.4-24.1,0.3
							C496.6,661,487,662.7,487,662.7z"/>
						<path class="st2" d="M483.4,646.3c0,0,4.3-6.8-4.3-23.5c-8.6-16.7-23.7-40.2-23.7-40.2l4.3-2.8c0,0,20.7,34.5,22.9,40.8
							C485.3,628.4,491.8,636.5,483.4,646.3z"/>
						<circle class="st2" cx="493" cy="610.1" r="2"/>
						<circle class="st2" cx="502.6" cy="603.8" r="2"/>
						<circle class="st2" cx="499.7" cy="613.1" r="2"/>
						<circle class="st2" cx="491.5" cy="602.2" r="2"/>
						<circle class="st2" cx="485.7" cy="608.3" r="2"/>
						<circle class="st2" cx="482.1" cy="600.5" r="2"/>
						<circle class="st2" cx="497.2" cy="588.3" r="2"/>
						<circle class="st2" cx="488" cy="623.1" r="2"/>
					</g>
					<g>
						<path class="st2" d="M280.8,519.3c0,0-23.3-1.3-30.1,4.2c-6.8,5.5-18.6,26.3-10.6,26.3s27.1-16.5,34.3-21.2
							c7.2-4.7,14.8-10.6,11.9-5.1c-3,5.5-10.6,8.1-9.7,16.5s11,19.5,14,16.5s8.1-17,8.1-18.5s-5.1-15.4-5.1-15.4
							s14.4,18.2,18.2,24.6c3.8,6.4,6.4-6.8,5.9-13.1c-0.4-6.4-22.5-17-22.5-17s8.5-3.4,11.9-14.4s-1.3-25.4-7.2-26.7
							c-5.9-1.3-12.7,15.3-12.7,22c0,6.8-1.3,14.8-1.3,14.8l-17-13.1c0,0-4.2-5.1-13.1-5.1s-13.1,1.7-13.1,8.9s11.4,14,20.3,12.9
							S280.8,519.3,280.8,519.3z"/>
						<path class="st2" d="M274.8,535.1c0,0-7.3,3.3-9.2,22s-2.2,46.7-2.2,46.7h-5.1c0,0,1.6-40.2,3.2-46.7
							C263.4,549,262.4,538.6,274.8,535.1z"/>
						<circle class="st2" cx="246.9" cy="560.1" r="2"/>
						<circle class="st2" cx="235.4" cy="560.1" r="2"/>
						<circle class="st2" cx="243" cy="553.9" r="2"/>
						<circle class="st2" cx="243.8" cy="567.5" r="2"/>
						<circle class="st2" cx="252.1" cy="565.5" r="2"/>
						<circle class="st2" cx="250.8" cy="574.1" r="2"/>
						<circle class="st2" cx="231.5" cy="576" r="2"/>
						<circle class="st2" cx="258.3" cy="551.9" r="2"/>
					</g>
					<g>
						<path class="st2" d="M352.5,569.9c0,0,20.2-11.7,22.8-20c2.7-8.3,1.2-32.2-5.5-27.8s-13.6,28.7-17.1,36.5s-6.6,17-7.1,10.8
							s4.4-12.5-0.9-19.2c-5.4-6.6-19.9-10.3-20.8-6.2s2.6,18.6,3.4,19.9S340,574,340,574s-22-7.3-28.7-10.6
							c-6.7-3.2-1.6,9.2,2.2,14.2c3.8,5.1,28.1,1.9,28.1,1.9s-5.2,7.5-2,18.6s15,20.6,20.7,18.4c5.7-2.2,2.3-19.7-1.4-25.4
							c-3.7-5.7-7.1-13.1-7.1-13.1l21.4,1.7c0,0,6.3,1.9,13.8-2.9c7.4-4.9,10.1-8.6,6.1-14.6s-17.2-5.4-24.1,0.3
							C362,568.2,352.5,569.9,352.5,569.9z"/>
						<path class="st2" d="M348.8,553.5c0,0,4.3-6.8-4.3-23.5c-8.6-16.7-23.7-40.2-23.7-40.2l4.3-2.8c0,0,20.7,34.5,22.9,40.8
							C350.7,535.6,357.3,543.7,348.8,553.5z"/>
						<circle class="st2" cx="358.5" cy="517.3" r="2"/>
						<circle class="st2" cx="368.1" cy="511" r="2"/>
						<circle class="st2" cx="365.2" cy="520.3" r="2"/>
						<circle class="st2" cx="357" cy="509.4" r="2"/>
						<circle class="st2" cx="351.2" cy="515.5" r="2"/>
						<circle class="st2" cx="347.5" cy="507.7" r="2"/>
						<circle class="st2" cx="362.6" cy="495.5" r="2"/>
						<circle class="st2" cx="353.4" cy="530.4" r="2"/>
					</g>
					<g>
						<path class="st2" d="M146.2,426.5c0,0-23.3-1.3-30.1,4.2c-6.8,5.5-18.6,26.3-10.6,26.3s27.1-16.5,34.3-21.2
							s14.8-10.6,11.9-5.1c-3,5.5-10.6,8.1-9.7,16.5c0.8,8.5,11,19.5,14,16.5s8.1-17,8.1-18.5s-5.1-15.4-5.1-15.4
							s14.4,18.2,18.2,24.6s6.4-6.8,5.9-13.1c-0.4-6.4-22.5-17-22.5-17s8.5-3.4,11.9-14.4s-1.3-25.4-7.2-26.7
							c-5.9-1.3-12.7,15.3-12.7,22s-1.3,14.8-1.3,14.8l-17-13.1c0,0-4.2-5.1-13.1-5.1s-13.1,1.7-13.1,8.9c0,7.2,11.4,14,20.3,12.9
							S146.2,426.5,146.2,426.5z"/>
						<path class="st2" d="M140.3,442.3c0,0-7.3,3.3-9.2,22s-2.2,46.7-2.2,46.7h-5.1c0,0,1.6-40.2,3.2-46.7
							C128.9,456.2,127.9,445.8,140.3,442.3z"/>
						<circle class="st2" cx="112.4" cy="467.3" r="2"/>
						<circle class="st2" cx="100.9" cy="467.3" r="2"/>
						<circle class="st2" cx="108.4" cy="461.1" r="2"/>
						<circle class="st2" cx="109.3" cy="474.7" r="2"/>
						<circle class="st2" cx="117.5" cy="472.7" r="2"/>
						<circle class="st2" cx="116.3" cy="481.3" r="2"/>
						<circle class="st2" cx="96.9" cy="483.2" r="2"/>
						<circle class="st2" cx="123.7" cy="459.1" r="2"/>
					</g>
					<g>
						<path class="st2" d="M217.9,477.1c0,0,20.2-11.7,22.8-20c2.7-8.3,1.2-32.2-5.5-27.8c-6.7,4.4-13.6,28.7-17.1,36.5
							s-6.6,17-7.1,10.8s4.4-12.5-0.9-19.2c-5.4-6.6-19.9-10.3-20.8-6.2c-0.9,4.1,2.6,18.6,3.4,19.9s12.7,10.1,12.7,10.1
							s-22-7.3-28.7-10.6s-1.6,9.2,2.2,14.2c3.8,5.1,28.1,1.9,28.1,1.9s-5.2,7.5-2,18.6c3.2,11.1,15,20.6,20.7,18.4
							s2.3-19.7-1.4-25.4s-7.1-13.1-7.1-13.1l21.4,1.7c0,0,6.3,1.9,13.8-2.9c7.4-4.9,10.1-8.6,6.1-14.6c-3.9-6-17.2-5.4-24.1,0.3
							S217.9,477.1,217.9,477.1z"/>
						<path class="st2" d="M214.2,460.7c0,0,4.3-6.8-4.3-23.5S186.2,397,186.2,397l4.3-2.8c0,0,20.7,34.5,22.9,40.8
							C216.2,442.8,222.7,450.9,214.2,460.7z"/>
						<circle class="st2" cx="223.9" cy="424.5" r="2"/>
						<circle class="st2" cx="233.5" cy="418.2" r="2"/>
						<circle class="st2" cx="230.6" cy="427.5" r="2"/>
						<circle class="st2" cx="222.4" cy="416.6" r="2"/>
						<circle class="st2" cx="216.6" cy="422.7" r="2"/>
						<circle class="st2" cx="213" cy="414.9" r="2"/>
						<circle class="st2" cx="228.1" cy="402.7" r="2"/>
						<circle class="st2" cx="218.9" cy="437.6" r="2"/>
					</g>
				</g>
			</g>
		</g>
		<g>
			<g>
				<defs>
					<path id="SVGID_00000128462926393203053430000006619960780223208587_" d="M304.9,430.7c6.1-5.4,6.9-9.3,6.9-9.3
						c-25.8-16.2-40.8-25.8-35.3-49c3.5-14.7,8.8-28.2,8.8-28.2l0,0c-0.3,0.1-0.6,0.3-0.9,0.4c-0.2,0.1-0.4,0.2-0.6,0.2
						c-0.3,0.1-0.7,0.3-1.1,0.4l0,0l0,0c-7.3,18.4-16.7,56.4-16.7,62.3l0,0c0,0.8-0.2,16.2,7.6,23.7c1.3,1.2,2.8,2.3,4.6,3
						C290.8,439.6,301,434.2,304.9,430.7z"/>
				</defs>
				<clipPath id="SVGID_00000000921431582423989690000015261714224779717507_">
					<use xlink:href="#SVGID_00000128462926393203053430000006619960780223208587_"  style="overflow:visible;"/>
				</clipPath>
				<g style="clip-path:url(#SVGID_00000000921431582423989690000015261714224779717507_);">
					<g>
						<path class="st2" d="M466.7,239.1c0,0-23.3-1.3-30.1,4.2c-6.8,5.5-18.6,26.3-10.6,26.3c8.1,0,27.1-16.5,34.3-21.2
							s14.8-10.6,11.9-5.1c-3,5.5-10.6,8.1-9.7,16.5s11,19.5,14,16.5s8.1-17,8.1-18.5s-5.1-15.4-5.1-15.4s14.4,18.2,18.2,24.6
							c3.8,6.4,6.4-6.8,5.9-13.1c-0.4-6.4-22.5-17-22.5-17s8.5-3.4,11.9-14.4s-1.3-25.4-7.2-26.7c-5.9-1.3-12.7,15.3-12.7,22
							s-1.3,14.8-1.3,14.8l-17-13.1c0,0-4.2-5.1-13.1-5.1s-13.1,1.7-13.1,8.9s11.4,14,20.3,12.9S466.7,239.1,466.7,239.1z"/>
						<path class="st2" d="M460.8,254.9c0,0-7.3,3.3-9.2,22s-2.2,46.7-2.2,46.7h-5.1c0,0,1.6-40.2,3.2-46.7
							C449.4,268.7,448.4,258.4,460.8,254.9z"/>
						<circle class="st2" cx="432.9" cy="279.8" r="2"/>
						<circle class="st2" cx="421.4" cy="279.8" r="2"/>
						<circle class="st2" cx="429" cy="273.6" r="2"/>
						<circle class="st2" cx="429.8" cy="287.2" r="2"/>
						<circle class="st2" cx="438" cy="285.3" r="2"/>
						<circle class="st2" cx="436.8" cy="293.8" r="2"/>
						<circle class="st2" cx="417.5" cy="295.8" r="2"/>
						<circle class="st2" cx="444.3" cy="271.7" r="2"/>
					</g>
					<g>
						<path class="st2" d="M538.5,289.7c0,0,20.2-11.7,22.8-20s1.2-32.2-5.5-27.8c-6.7,4.4-13.6,28.7-17.1,36.5s-6.6,17-7.1,10.8
							s4.4-12.5-0.9-19.2c-5.4-6.6-19.9-10.3-20.8-6.2c-0.9,4.1,2.6,18.6,3.4,19.9c0.8,1.2,12.7,10.1,12.7,10.1s-22-7.3-28.7-10.6
							c-6.7-3.2-1.6,9.2,2.2,14.2c3.8,5.1,28.1,1.9,28.1,1.9s-5.2,7.5-2,18.6s15,20.6,20.7,18.4s2.3-19.7-1.4-25.4
							c-3.7-5.7-7.1-13.1-7.1-13.1l21.4,1.7c0,0,6.3,1.9,13.8-2.9c7.4-4.9,10.1-8.6,6.1-14.6c-3.9-6-17.2-5.4-24.1,0.3
							C548,288,538.5,289.7,538.5,289.7z"/>
						<path class="st2" d="M534.8,273.2c0,0,4.3-6.8-4.3-23.5s-23.7-40.2-23.7-40.2l4.3-2.8c0,0,20.7,34.5,22.9,40.8
							C536.7,255.4,543.2,263.5,534.8,273.2z"/>
						<circle class="st2" cx="544.5" cy="237" r="2"/>
						<circle class="st2" cx="554.1" cy="230.7" r="2"/>
						<circle class="st2" cx="551.1" cy="240.1" r="2"/>
						<circle class="st2" cx="543" cy="229.1" r="2"/>
						<circle class="st2" cx="537.2" cy="235.3" r="2"/>
						<circle class="st2" cx="533.5" cy="227.5" r="2"/>
						<circle class="st2" cx="548.6" cy="215.2" r="2"/>
						<circle class="st2" cx="539.4" cy="250.1" r="2"/>
					</g>
					<g>
						<path class="st2" d="M332.2,146.3c0,0-23.3-1.3-30.1,4.2s-18.6,26.3-10.6,26.3c8.1,0,27.1-16.5,34.3-21.2
							c7.2-4.7,14.8-10.6,11.9-5.1c-3,5.5-10.6,8.1-9.7,16.5c0.8,8.5,11,19.5,14,16.5s8.1-17,8.1-18.5s-5.1-15.4-5.1-15.4
							s14.4,18.2,18.2,24.6c3.8,6.4,6.4-6.8,5.9-13.1c-0.4-6.4-22.5-17-22.5-17s8.5-3.4,11.9-14.4s-1.3-25.4-7.2-26.7
							c-5.9-1.3-12.7,15.3-12.7,22s-1.3,14.8-1.3,14.8l-17-13.1c0,0-4.2-5.1-13.1-5.1s-13.1,1.7-13.1,8.9s11.4,14,20.3,12.9
							S332.2,146.3,332.2,146.3z"/>
						<path class="st2" d="M326.3,162.1c0,0-7.3,3.3-9.2,22c-1.9,18.7-2.2,46.7-2.2,46.7h-5.1c0,0,1.6-40.2,3.2-46.7
							C314.9,175.9,313.9,165.6,326.3,162.1z"/>
						<circle class="st2" cx="298.3" cy="187" r="2"/>
						<circle class="st2" cx="286.8" cy="187" r="2"/>
						<circle class="st2" cx="294.4" cy="180.8" r="2"/>
						<circle class="st2" cx="295.3" cy="194.4" r="2"/>
						<circle class="st2" cx="303.5" cy="192.5" r="2"/>
						<circle class="st2" cx="302.3" cy="201" r="2"/>
						<circle class="st2" cx="282.9" cy="203" r="2"/>
						<circle class="st2" cx="309.7" cy="178.9" r="2"/>
					</g>
					<g>
						<path class="st2" d="M403.9,196.9c0,0,20.2-11.7,22.8-20c2.7-8.3,1.2-32.2-5.5-27.8s-13.6,28.7-17.1,36.5s-6.6,17-7.1,10.8
							s4.4-12.5-0.9-19.2c-5.4-6.6-19.9-10.3-20.8-6.2s2.6,18.6,3.4,19.9c0.8,1.2,12.7,10.1,12.7,10.1s-22-7.3-28.7-10.6
							c-6.7-3.2-1.6,9.2,2.2,14.2s28.1,1.9,28.1,1.9s-5.2,7.5-2,18.6s15,20.6,20.7,18.4c5.7-2.2,2.3-19.7-1.4-25.4
							c-3.7-5.7-7.1-13.1-7.1-13.1l21.4,1.7c0,0,6.3,1.9,13.8-2.9c7.4-4.9,10.1-8.6,6.1-14.6s-17.2-5.4-24.1,0.3
							C413.4,195.2,403.9,196.9,403.9,196.9z"/>
						<path class="st2" d="M400.2,180.4c0,0,4.3-6.8-4.3-23.5s-23.7-40.2-23.7-40.2l4.3-2.8c0,0,20.7,34.5,22.9,40.8
							C402.2,162.6,408.7,170.7,400.2,180.4z"/>
						<circle class="st2" cx="409.9" cy="144.2" r="2"/>
						<circle class="st2" cx="419.5" cy="137.9" r="2"/>
						<circle class="st2" cx="416.6" cy="147.3" r="2"/>
						<circle class="st2" cx="408.4" cy="136.3" r="2"/>
						<circle class="st2" cx="402.6" cy="142.5" r="2"/>
						<circle class="st2" cx="398.9" cy="134.7" r="2"/>
						<circle class="st2" cx="414" cy="122.4" r="2"/>
						<circle class="st2" cx="404.8" cy="157.3" r="2"/>
					</g>
					<g>
						<path class="st2" d="M197.6,53.5c0,0-23.3-1.3-30.1,4.2S148.9,84,156.9,84s27.1-16.5,34.3-21.2s14.8-10.6,11.9-5.1
							c-3,5.5-10.6,8.1-9.7,16.5c0.8,8.5,11,19.5,14,16.5s8.1-17,8.1-18.5s-5.1-15.4-5.1-15.4s14.4,18.2,18.2,24.6s6.4-6.8,5.9-13.1
							c-0.4-6.4-22.5-17-22.5-17s8.5-3.4,11.9-14.4s-1.3-25.4-7.2-26.7S204,25.5,204,32.3s-1.3,14.8-1.3,14.8l-17-13.1
							c0,0-4.2-5.1-13.1-5.1s-13.1,1.7-13.1,8.9s11.4,14,20.3,12.9C188.7,49.7,197.6,53.5,197.6,53.5z"/>
						<path class="st2" d="M191.7,69.3c0,0-7.3,3.3-9.2,22s-2.2,46.7-2.2,46.7h-5.1c0,0,1.6-40.2,3.2-46.7
							C180.3,83.1,179.3,72.8,191.7,69.3z"/>
						<circle class="st2" cx="163.8" cy="94.2" r="2"/>
						<circle class="st2" cx="152.3" cy="94.2" r="2"/>
						<circle class="st2" cx="159.9" cy="88" r="2"/>
						<circle class="st2" cx="160.7" cy="101.6" r="2"/>
						<circle class="st2" cx="168.9" cy="99.7" r="2"/>
						<circle class="st2" cx="167.7" cy="108.2" r="2"/>
						<circle class="st2" cx="148.4" cy="110.2" r="2"/>
						<circle class="st2" cx="175.2" cy="86.1" r="2"/>
					</g>
					<g>
						<path class="st2" d="M269.4,104.1c0,0,20.2-11.7,22.8-20c2.7-8.3,1.2-32.2-5.5-27.8c-6.7,4.4-13.6,28.7-17.1,36.5
							s-6.6,17-7.1,10.8s4.4-12.5-0.9-19.2c-5.4-6.6-19.9-10.3-20.8-6.2c-0.9,4.1,2.6,18.6,3.4,19.9s12.7,10.1,12.7,10.1
							s-22-7.3-28.7-10.6s-1.6,9.2,2.2,14.2c3.8,5.1,28.1,1.9,28.1,1.9s-5.2,7.5-2,18.6c3.2,11.1,15,20.6,20.7,18.4
							c5.7-2.2,2.3-19.7-1.4-25.4c-3.7-5.7-7.1-13.1-7.1-13.1l21.4,1.7c0,0,6.3,1.9,13.8-2.9c7.4-4.9,10.1-8.6,6.1-14.6
							c-3.9-6-17.2-5.4-24.1,0.3C278.9,102.4,269.4,104.1,269.4,104.1z"/>
						<path class="st2" d="M265.7,87.6c0,0,4.3-6.8-4.3-23.5s-23.7-40.2-23.7-40.2l4.3-2.8c0,0,20.7,34.5,22.9,40.8
							C267.6,69.8,274.1,77.9,265.7,87.6z"/>
						<circle class="st2" cx="275.3" cy="51.4" r="2"/>
						<circle class="st2" cx="285" cy="45.1" r="2"/>
						<circle class="st2" cx="282" cy="54.5" r="2"/>
						<circle class="st2" cx="273.9" cy="43.6" r="2"/>
						<circle class="st2" cx="268.1" cy="49.7" r="2"/>
						<circle class="st2" cx="264.4" cy="41.9" r="2"/>
						<circle class="st2" cx="279.5" cy="29.6" r="2"/>
						<circle class="st2" cx="270.3" cy="64.5" r="2"/>
					</g>
					<g>
						<path class="st2" d="M449.6,363.4c0,0-23.3-1.3-30.1,4.2c-6.8,5.5-18.6,26.3-10.6,26.3c8.1,0,27.1-16.5,34.3-21.2
							s14.8-10.6,11.9-5.1c-3,5.5-10.6,8.1-9.7,16.5c0.8,8.5,11,19.5,14,16.5s8.1-17,8.1-18.5s-5.1-15.4-5.1-15.4
							s14.4,18.2,18.2,24.6c3.8,6.4,6.4-6.8,5.9-13.1c-0.4-6.4-22.5-17-22.5-17s8.5-3.4,11.9-14.4s-1.3-25.4-7.2-26.7
							c-5.9-1.3-12.7,15.3-12.7,22s-1.3,14.8-1.3,14.8l-17-13.1c0,0-4.2-5.1-13.1-5.1s-13.1,1.7-13.1,8.9s11.4,14,20.3,12.9
							S449.6,363.4,449.6,363.4z"/>
						<path class="st2" d="M443.7,379.2c0,0-7.3,3.3-9.2,22c-1.9,18.7-2.2,46.7-2.2,46.7h-5.1c0,0,1.6-40.2,3.2-46.7
							C432.3,393.1,431.3,382.7,443.7,379.2z"/>
						<circle class="st2" cx="415.8" cy="404.2" r="2"/>
						<circle class="st2" cx="404.3" cy="404.2" r="2"/>
						<circle class="st2" cx="411.8" cy="398" r="2"/>
						<circle class="st2" cx="412.7" cy="411.6" r="2"/>
						<circle class="st2" cx="420.9" cy="409.6" r="2"/>
						<circle class="st2" cx="419.7" cy="418.2" r="2"/>
						<circle class="st2" cx="400.3" cy="420.1" r="2"/>
						<circle class="st2" cx="427.1" cy="396" r="2"/>
					</g>
					<g>
						<path class="st2" d="M521.3,414c0,0,20.2-11.7,22.8-20c2.7-8.3,1.2-32.2-5.5-27.8c-6.7,4.4-13.6,28.7-17.1,36.5
							s-6.6,17-7.1,10.8s4.4-12.5-0.9-19.2c-5.4-6.6-19.9-10.3-20.8-6.2s2.6,18.6,3.4,19.9c0.8,1.2,12.7,10.1,12.7,10.1
							s-22-7.3-28.7-10.6c-6.7-3.2-1.6,9.2,2.2,14.2c3.8,5.1,28.1,1.9,28.1,1.9s-5.2,7.5-2,18.6s15,20.6,20.7,18.4
							s2.3-19.7-1.4-25.4c-3.7-5.7-7.1-13.1-7.1-13.1l21.4,1.7c0,0,6.3,1.9,13.8-2.9s10.1-8.6,6.1-14.6c-3.9-6-17.2-5.4-24.1,0.3
							C530.9,412.3,521.3,414,521.3,414z"/>
						<path class="st2" d="M517.6,397.6c0,0,4.3-6.8-4.3-23.5c-8.6-16.7-23.7-40.2-23.7-40.2l4.3-2.8c0,0,20.7,34.5,22.9,40.8
							C519.6,379.7,526.1,387.8,517.6,397.6z"/>
						<circle class="st2" cx="527.3" cy="361.4" r="2"/>
						<circle class="st2" cx="536.9" cy="355.1" r="2"/>
						<circle class="st2" cx="534" cy="364.4" r="2"/>
						<circle class="st2" cx="525.8" cy="353.5" r="2"/>
						<circle class="st2" cx="520" cy="359.6" r="2"/>
						<circle class="st2" cx="516.4" cy="351.8" r="2"/>
						<circle class="st2" cx="531.5" cy="339.6" r="2"/>
						<circle class="st2" cx="522.3" cy="374.4" r="2"/>
					</g>
					<g>
						<path class="st2" d="M315.1,270.6c0,0-23.3-1.3-30.1,4.2c-6.8,5.5-18.6,26.3-10.6,26.3c8.1,0,27.1-16.5,34.3-21.2
							c7.2-4.7,14.8-10.6,11.9-5.1c-3,5.5-10.6,8.1-9.7,16.5c0.8,8.5,11,19.5,14,16.5s8.1-17,8.1-18.5s-5.1-15.4-5.1-15.4
							s14.4,18.2,18.2,24.6c3.8,6.4,6.4-6.8,5.9-13.1s-22.5-17-22.5-17s8.5-3.4,11.9-14.4s-1.3-25.4-7.2-26.7
							c-5.9-1.3-12.7,15.3-12.7,22s-1.3,14.8-1.3,14.8l-17-13.1c0,0-4.2-5.1-13.1-5.1s-13.1,1.7-13.1,8.9c0,7.2,11.4,14,20.3,12.9
							C306.2,266.8,315.1,270.6,315.1,270.6z"/>
						<path class="st2" d="M309.1,286.4c0,0-7.3,3.3-9.2,22s-2.2,46.7-2.2,46.7h-5.1c0,0,1.6-40.2,3.2-46.7
							C297.7,300.3,296.7,289.9,309.1,286.4z"/>
						<circle class="st2" cx="281.2" cy="311.4" r="2"/>
						<circle class="st2" cx="269.7" cy="311.4" r="2"/>
						<circle class="st2" cx="277.3" cy="305.2" r="2"/>
						<circle class="st2" cx="278.1" cy="318.8" r="2"/>
						<circle class="st2" cx="286.3" cy="316.8" r="2"/>
						<circle class="st2" cx="285.1" cy="325.4" r="2"/>
						<circle class="st2" cx="265.8" cy="327.3" r="2"/>
						<circle class="st2" cx="292.6" cy="303.2" r="2"/>
					</g>
					<g>
						<path class="st2" d="M386.8,321.2c0,0,20.2-11.7,22.8-20c2.7-8.3,1.2-32.2-5.5-27.8c-6.7,4.4-13.6,28.7-17.1,36.5
							s-6.6,17-7.1,10.8s4.4-12.5-0.9-19.2c-5.4-6.6-19.9-10.3-20.8-6.2s2.6,18.6,3.4,19.9s12.7,10.1,12.7,10.1s-22-7.3-28.7-10.6
							c-6.7-3.2-1.6,9.2,2.2,14.2c3.8,5.1,28.1,1.9,28.1,1.9s-5.2,7.5-2,18.6s15,20.6,20.7,18.4s2.3-19.7-1.4-25.4
							c-3.7-5.7-7.1-13.1-7.1-13.1l21.4,1.7c0,0,6.3,1.9,13.8-2.9c7.4-4.9,10.1-8.6,6.1-14.6c-3.9-6-17.2-5.4-24.1,0.3
							C396.3,319.5,386.8,321.2,386.8,321.2z"/>
						<path class="st2" d="M383.1,304.8c0,0,4.3-6.8-4.3-23.5c-8.6-16.7-23.7-40.2-23.7-40.2l4.3-2.8c0,0,20.7,34.5,22.9,40.8
							C385,286.9,391.5,295,383.1,304.8z"/>
						<circle class="st2" cx="392.8" cy="268.6" r="2"/>
						<circle class="st2" cx="402.4" cy="262.3" r="2"/>
						<circle class="st2" cx="399.4" cy="271.6" r="2"/>
						<circle class="st2" cx="391.3" cy="260.7" r="2"/>
						<circle class="st2" cx="385.5" cy="266.8" r="2"/>
						<circle class="st2" cx="381.8" cy="259" r="2"/>
						<circle class="st2" cx="396.9" cy="246.8" r="2"/>
						<circle class="st2" cx="387.7" cy="281.7" r="2"/>
					</g>
					<g>
						<path class="st2" d="M180.5,177.8c0,0-23.3-1.3-30.1,4.2s-18.6,26.3-10.6,26.3c8.1,0,27.1-16.5,34.3-21.2s14.8-10.6,11.9-5.1
							c-3,5.5-10.6,8.1-9.7,16.5c0.8,8.5,11,19.5,14,16.5s8.1-17,8.1-18.5s-5.1-15.4-5.1-15.4s14.4,18.2,18.2,24.6
							c3.8,6.4,6.4-6.8,5.9-13.1c-0.4-6.4-22.5-17-22.5-17s8.5-3.4,11.9-14.4s-1.3-25.4-7.2-26.7s-12.7,15.3-12.7,22
							s-1.3,14.8-1.3,14.8l-17-13.1c0,0-4.2-5.1-13.1-5.1c-8.9,0-13.1,1.7-13.1,8.9s11.4,14,20.3,12.9S180.5,177.8,180.5,177.8z"/>
						<path class="st2" d="M174.6,193.6c0,0-7.3,3.3-9.2,22s-2.2,46.7-2.2,46.7H158c0,0,1.6-40.2,3.2-46.7
							C163.2,207.5,162.2,197.1,174.6,193.6z"/>
						<circle class="st2" cx="146.6" cy="218.6" r="2"/>
						<circle class="st2" cx="135.1" cy="218.6" r="2"/>
						<circle class="st2" cx="142.7" cy="212.4" r="2"/>
						<circle class="st2" cx="143.6" cy="226" r="2"/>
						<circle class="st2" cx="151.8" cy="224" r="2"/>
						<circle class="st2" cx="150.6" cy="232.6" r="2"/>
						<circle class="st2" cx="131.2" cy="234.5" r="2"/>
						<circle class="st2" cx="158" cy="210.4" r="2"/>
					</g>
					<g>
						<path class="st2" d="M252.2,228.4c0,0,20.2-11.7,22.8-20s1.2-32.2-5.5-27.8s-13.6,28.7-17.1,36.5s-6.6,17-7.1,10.8
							s4.4-12.5-0.9-19.2c-5.4-6.6-19.9-10.3-20.8-6.2c-0.9,4.1,2.6,18.6,3.4,19.9c0.8,1.2,12.7,10.1,12.7,10.1s-22-7.3-28.7-10.6
							c-6.7-3.2-1.6,9.2,2.2,14.2c3.8,5.1,28.1,1.9,28.1,1.9s-5.2,7.5-2,18.6c3.2,11.1,15,20.6,20.7,18.4s2.3-19.7-1.4-25.4
							c-3.7-5.7-7.1-13.1-7.1-13.1l21.4,1.7c0,0,6.3,1.9,13.8-2.9c7.4-4.9,10.1-8.6,6.1-14.6c-3.9-6-17.2-5.4-24.1,0.3
							C261.8,226.7,252.2,228.4,252.2,228.4z"/>
						<path class="st2" d="M248.5,212c0,0,4.3-6.8-4.3-23.5s-23.7-40.2-23.7-40.2l4.3-2.8c0,0,20.7,34.5,22.9,40.8
							C250.5,194.1,257,202.2,248.5,212z"/>
						<circle class="st2" cx="258.2" cy="175.8" r="2"/>
						<circle class="st2" cx="267.8" cy="169.5" r="2"/>
						<circle class="st2" cx="264.9" cy="178.8" r="2"/>
						<circle class="st2" cx="256.7" cy="167.9" r="2"/>
						<circle class="st2" cx="250.9" cy="174" r="2"/>
						<circle class="st2" cx="247.2" cy="166.2" r="2"/>
						<circle class="st2" cx="262.3" cy="154" r="2"/>
						<circle class="st2" cx="253.1" cy="188.9" r="2"/>
					</g>
					<g>
						<path class="st2" d="M432.5,487.8c0,0-23.3-1.3-30.1,4.2s-18.6,26.3-10.6,26.3c8.1,0,27.1-16.5,34.3-21.2
							c7.2-4.7,14.8-10.6,11.9-5.1c-3,5.5-10.6,8.1-9.7,16.5c0.8,8.5,11,19.5,14,16.5s8.1-17,8.1-18.5s-5.1-15.4-5.1-15.4
							s14.4,18.2,18.2,24.6c3.8,6.4,6.4-6.8,5.9-13.1c-0.4-6.4-22.5-17-22.5-17s8.5-3.4,11.9-14.4s-1.3-25.4-7.2-26.7
							c-5.9-1.3-12.7,15.3-12.7,22s-1.3,14.8-1.3,14.8l-17-13.1c0,0-4.2-5.1-13.1-5.1s-13.1,1.7-13.1,8.9c0,7.2,11.4,14,20.3,12.9
							S432.5,487.8,432.5,487.8z"/>
						<path class="st2" d="M426.5,503.6c0,0-7.3,3.3-9.2,22c-1.9,18.7-2.2,46.7-2.2,46.7H410c0,0,1.6-40.2,3.2-46.7
							C415.1,517.4,414.1,507.1,426.5,503.6z"/>
						<circle class="st2" cx="398.6" cy="528.5" r="2"/>
						<circle class="st2" cx="387.1" cy="528.5" r="2"/>
						<circle class="st2" cx="394.7" cy="522.3" r="2"/>
						<circle class="st2" cx="395.5" cy="535.9" r="2"/>
						<circle class="st2" cx="403.8" cy="534" r="2"/>
						<circle class="st2" cx="402.5" cy="542.5" r="2"/>
						<circle class="st2" cx="383.2" cy="544.5" r="2"/>
						<circle class="st2" cx="410" cy="520.4" r="2"/>
					</g>
					<g>
						<path class="st2" d="M504.2,538.4c0,0,20.2-11.7,22.8-20c2.7-8.3,1.2-32.2-5.5-27.8c-6.7,4.4-13.6,28.7-17.1,36.5
							s-6.6,17-7.1,10.8s4.4-12.5-0.9-19.2c-5.4-6.6-19.9-10.3-20.8-6.2s2.6,18.6,3.4,19.9s12.7,10.1,12.7,10.1s-22-7.3-28.7-10.6
							c-6.7-3.2-1.6,9.2,2.2,14.2s28.1,1.9,28.1,1.9s-5.2,7.5-2,18.6s15,20.6,20.7,18.4c5.7-2.2,2.3-19.7-1.4-25.4
							c-3.7-5.7-7.1-13.1-7.1-13.1l21.4,1.7c0,0,6.3,1.9,13.8-2.9c7.4-4.9,10.1-8.6,6.1-14.6s-17.2-5.4-24.1,0.3
							C513.7,536.7,504.2,538.4,504.2,538.4z"/>
						<path class="st2" d="M500.5,521.9c0,0,4.3-6.8-4.3-23.5s-23.7-40.2-23.7-40.2l4.3-2.8c0,0,20.7,34.5,22.9,40.8
							C502.4,504.1,509,512.2,500.5,521.9z"/>
						<circle class="st2" cx="510.2" cy="485.7" r="2"/>
						<circle class="st2" cx="519.8" cy="479.4" r="2"/>
						<circle class="st2" cx="516.9" cy="488.8" r="2"/>
						<circle class="st2" cx="508.7" cy="477.8" r="2"/>
						<circle class="st2" cx="502.9" cy="484" r="2"/>
						<circle class="st2" cx="499.2" cy="476.2" r="2"/>
						<circle class="st2" cx="514.3" cy="463.9" r="2"/>
						<circle class="st2" cx="505.1" cy="498.8" r="2"/>
					</g>
					<g>
						<path class="st2" d="M297.9,395c0,0-23.3-1.3-30.1,4.2s-18.6,26.3-10.6,26.3c8.1,0,27.1-16.5,34.3-21.2s14.8-10.6,11.9-5.1
							s-10.6,8.1-9.7,16.5c0.8,8.5,11,19.5,14,16.5s8.1-17,8.1-18.5s-5.1-15.4-5.1-15.4s14.4,18.2,18.2,24.6
							c3.8,6.4,6.4-6.8,5.9-13.1c-0.4-6.4-22.5-17-22.5-17s8.5-3.4,11.9-14.4s-1.3-25.4-7.2-26.7s-12.7,15.3-12.7,22
							s-1.3,14.8-1.3,14.8l-17-13.1c0,0-4.2-5.1-13.1-5.1s-13.1,1.7-13.1,8.9s11.4,14,20.3,12.9C289,391.2,297.9,395,297.9,395z"/>
						<path class="st2" d="M292,410.8c0,0-7.3,3.3-9.2,22s-2.2,46.7-2.2,46.7h-5.1c0,0,1.6-40.2,3.2-46.7
							C280.6,424.6,279.6,414.3,292,410.8z"/>
						<circle class="st2" cx="264.1" cy="435.7" r="2"/>
						<circle class="st2" cx="252.6" cy="435.7" r="2"/>
						<circle class="st2" cx="260.1" cy="429.5" r="2"/>
						<circle class="st2" cx="261" cy="443.1" r="2"/>
						<circle class="st2" cx="269.2" cy="441.2" r="2"/>
						<circle class="st2" cx="268" cy="449.7" r="2"/>
						<circle class="st2" cx="248.6" cy="451.7" r="2"/>
						<circle class="st2" cx="275.4" cy="427.6" r="2"/>
					</g>
					<g>
						<path class="st2" d="M369.6,445.6c0,0,20.2-11.7,22.8-20s1.2-32.2-5.5-27.8c-6.7,4.4-13.6,28.7-17.1,36.5s-6.6,17-7.1,10.8
							s4.4-12.5-0.9-19.2c-5.4-6.6-19.9-10.3-20.8-6.2c-0.9,4.1,2.6,18.6,3.4,19.9s12.7,10.1,12.7,10.1s-22-7.3-28.7-10.6
							c-6.7-3.2-1.6,9.2,2.2,14.2c3.8,5.1,28.1,1.9,28.1,1.9s-5.2,7.5-2,18.6s15,20.6,20.7,18.4s2.3-19.7-1.4-25.4
							c-3.7-5.7-7.1-13.1-7.1-13.1l21.4,1.7c0,0,6.3,1.9,13.8-2.9c7.4-4.9,10.1-8.6,6.1-14.6c-3.9-6-17.2-5.4-24.1,0.3
							C379.2,443.9,369.6,445.6,369.6,445.6z"/>
						<path class="st2" d="M365.9,429.1c0,0,4.3-6.8-4.3-23.5c-8.6-16.7-23.7-40.2-23.7-40.2l4.3-2.8c0,0,20.7,34.5,22.9,40.8
							C367.9,411.3,374.4,419.4,365.9,429.1z"/>
						<circle class="st2" cx="375.6" cy="392.9" r="2"/>
						<circle class="st2" cx="385.2" cy="386.6" r="2"/>
						<circle class="st2" cx="382.3" cy="396" r="2"/>
						<circle class="st2" cx="374.1" cy="385" r="2"/>
						<circle class="st2" cx="368.3" cy="391.2" r="2"/>
						<circle class="st2" cx="364.7" cy="383.4" r="2"/>
						<circle class="st2" cx="379.8" cy="371.1" r="2"/>
						<circle class="st2" cx="370.6" cy="406" r="2"/>
					</g>
					<g>
						<path class="st2" d="M163.4,302.2c0,0-23.3-1.3-30.1,4.2s-18.6,26.3-10.6,26.3s27.1-16.5,34.3-21.2s14.8-10.6,11.9-5.1
							c-3,5.5-10.6,8.1-9.7,16.5c0.8,8.5,11,19.5,14,16.5s8.1-17,8.1-18.5s-5.1-15.4-5.1-15.4s14.4,18.2,18.2,24.6s6.4-6.8,5.9-13.1
							c-0.4-6.4-22.5-17-22.5-17s8.5-3.4,11.9-14.4s-1.3-25.4-7.2-26.7c-5.9-1.3-12.7,15.3-12.7,22s-1.3,14.8-1.3,14.8l-17-13.1
							c0,0-4.2-5.1-13.1-5.1s-13.1,1.7-13.1,8.9s11.4,14,20.3,12.9S163.4,302.2,163.4,302.2z"/>
						<path class="st2" d="M157.4,318c0,0-7.3,3.3-9.2,22s-2.2,46.7-2.2,46.7h-5.1c0,0,1.6-40.2,3.2-46.7
							C146,331.8,145,321.5,157.4,318z"/>
						<circle class="st2" cx="129.5" cy="342.9" r="2"/>
						<circle class="st2" cx="118" cy="342.9" r="2"/>
						<circle class="st2" cx="125.6" cy="336.7" r="2"/>
						<circle class="st2" cx="126.4" cy="350.3" r="2"/>
						<circle class="st2" cx="134.6" cy="348.4" r="2"/>
						<circle class="st2" cx="133.4" cy="356.9" r="2"/>
						<circle class="st2" cx="114.1" cy="358.9" r="2"/>
						<circle class="st2" cx="140.9" cy="334.8" r="2"/>
					</g>
					<g>
						<path class="st2" d="M235.1,352.8c0,0,20.2-11.7,22.8-20c2.7-8.3,1.2-32.2-5.5-27.8c-6.7,4.4-13.6,28.7-17.1,36.5
							s-6.6,17-7.1,10.8s4.4-12.5-0.9-19.2s-19.9-10.3-20.8-6.2c-0.9,4.1,2.6,18.6,3.4,19.9c0.8,1.2,12.7,10.1,12.7,10.1
							s-22-7.3-28.7-10.6s-1.6,9.2,2.2,14.2c3.8,5.1,28.1,1.9,28.1,1.9s-5.2,7.5-2,18.6s15,20.6,20.7,18.4s2.3-19.7-1.4-25.4
							c-3.7-5.7-7.1-13.1-7.1-13.1l21.4,1.7c0,0,6.3,1.9,13.8-2.9c7.4-4.9,10.1-8.6,6.1-14.6s-17.2-5.4-24.1,0.3
							C244.6,351.1,235.1,352.8,235.1,352.8z"/>
						<path class="st2" d="M231.4,336.3c0,0,4.3-6.8-4.3-23.5s-23.7-40.2-23.7-40.2l4.3-2.8c0,0,20.7,34.5,22.9,40.8
							C233.3,318.5,239.8,326.6,231.4,336.3z"/>
						<circle class="st2" cx="241.1" cy="300.1" r="2"/>
						<circle class="st2" cx="250.7" cy="293.8" r="2"/>
						<circle class="st2" cx="247.7" cy="303.2" r="2"/>
						<circle class="st2" cx="239.6" cy="292.3" r="2"/>
						<circle class="st2" cx="233.8" cy="298.4" r="2"/>
						<circle class="st2" cx="230.1" cy="290.6" r="2"/>
						<circle class="st2" cx="245.2" cy="278.3" r="2"/>
						<circle class="st2" cx="236" cy="313.2" r="2"/>
					</g>
					<g>
						<path class="st2" d="M415.3,612.1c0,0-23.3-1.3-30.1,4.2c-6.8,5.5-18.6,26.3-10.6,26.3c8.1,0,27.1-16.5,34.3-21.2
							s14.8-10.6,11.9-5.1c-3,5.5-10.6,8.1-9.7,16.5c0.8,8.5,11,19.5,14,16.5s8.1-17,8.1-18.5s-5.1-15.4-5.1-15.4
							s14.4,18.2,18.2,24.6c3.8,6.4,6.4-6.8,5.9-13.1s-22.5-17-22.5-17s8.5-3.4,11.9-14.4s-1.3-25.4-7.2-26.7s-12.7,15.3-12.7,22
							c0,6.8-1.3,14.8-1.3,14.8l-17-13.1c0,0-4.2-5.1-13.1-5.1s-13.1,1.7-13.1,8.9s11.4,14,20.3,12.9S415.3,612.1,415.3,612.1z"/>
						<path class="st2" d="M409.4,627.9c0,0-7.3,3.3-9.2,22s-2.2,46.7-2.2,46.7h-5.1c0,0,1.6-40.2,3.2-46.7
							C398,641.8,397,631.4,409.4,627.9z"/>
						<circle class="st2" cx="381.5" cy="652.9" r="2"/>
						<circle class="st2" cx="370" cy="652.9" r="2"/>
						<circle class="st2" cx="377.5" cy="646.7" r="2"/>
						<circle class="st2" cx="378.4" cy="660.3" r="2"/>
						<circle class="st2" cx="386.6" cy="658.3" r="2"/>
						<circle class="st2" cx="385.4" cy="666.9" r="2"/>
						<circle class="st2" cx="366.1" cy="668.8" r="2"/>
						<circle class="st2" cx="392.9" cy="644.7" r="2"/>
					</g>
					<g>
						<path class="st2" d="M487,662.7c0,0,20.2-11.7,22.8-20s1.2-32.2-5.5-27.8s-13.6,28.7-17.1,36.5s-6.6,17-7.1,10.8
							s4.4-12.5-0.9-19.2c-5.4-6.6-19.9-10.3-20.8-6.2s2.6,18.6,3.4,19.9c0.8,1.2,12.7,10.1,12.7,10.1s-22-7.3-28.7-10.6
							c-6.7-3.2-1.6,9.2,2.2,14.2c3.8,5.1,28.1,1.9,28.1,1.9s-5.2,7.5-2,18.6s15,20.6,20.7,18.4c5.7-2.2,2.3-19.7-1.4-25.4
							c-3.7-5.7-7.1-13.1-7.1-13.1l21.4,1.7c0,0,6.3,1.9,13.8-2.9c7.4-4.9,10.1-8.6,6.1-14.6c-3.9-6-17.2-5.4-24.1,0.3
							C496.6,661,487,662.7,487,662.7z"/>
						<path class="st2" d="M483.4,646.3c0,0,4.3-6.8-4.3-23.5c-8.6-16.7-23.7-40.2-23.7-40.2l4.3-2.8c0,0,20.7,34.5,22.9,40.8
							C485.3,628.4,491.8,636.5,483.4,646.3z"/>
						<circle class="st2" cx="493" cy="610.1" r="2"/>
						<circle class="st2" cx="502.6" cy="603.8" r="2"/>
						<circle class="st2" cx="499.7" cy="613.1" r="2"/>
						<circle class="st2" cx="491.5" cy="602.2" r="2"/>
						<circle class="st2" cx="485.7" cy="608.3" r="2"/>
						<circle class="st2" cx="482.1" cy="600.5" r="2"/>
						<circle class="st2" cx="497.2" cy="588.3" r="2"/>
						<circle class="st2" cx="488" cy="623.1" r="2"/>
					</g>
					<g>
						<path class="st2" d="M280.8,519.3c0,0-23.3-1.3-30.1,4.2c-6.8,5.5-18.6,26.3-10.6,26.3s27.1-16.5,34.3-21.2
							c7.2-4.7,14.8-10.6,11.9-5.1c-3,5.5-10.6,8.1-9.7,16.5s11,19.5,14,16.5s8.1-17,8.1-18.5s-5.1-15.4-5.1-15.4
							s14.4,18.2,18.2,24.6c3.8,6.4,6.4-6.8,5.9-13.1c-0.4-6.4-22.5-17-22.5-17s8.5-3.4,11.9-14.4s-1.3-25.4-7.2-26.7
							c-5.9-1.3-12.7,15.3-12.7,22c0,6.8-1.3,14.8-1.3,14.8l-17-13.1c0,0-4.2-5.1-13.1-5.1s-13.1,1.7-13.1,8.9s11.4,14,20.3,12.9
							S280.8,519.3,280.8,519.3z"/>
						<path class="st2" d="M274.8,535.1c0,0-7.3,3.3-9.2,22s-2.2,46.7-2.2,46.7h-5.1c0,0,1.6-40.2,3.2-46.7
							C263.4,549,262.4,538.6,274.8,535.1z"/>
						<circle class="st2" cx="246.9" cy="560.1" r="2"/>
						<circle class="st2" cx="235.4" cy="560.1" r="2"/>
						<circle class="st2" cx="243" cy="553.9" r="2"/>
						<circle class="st2" cx="243.8" cy="567.5" r="2"/>
						<circle class="st2" cx="252.1" cy="565.5" r="2"/>
						<circle class="st2" cx="250.8" cy="574.1" r="2"/>
						<circle class="st2" cx="231.5" cy="576" r="2"/>
						<circle class="st2" cx="258.3" cy="551.9" r="2"/>
					</g>
					<g>
						<path class="st2" d="M352.5,569.9c0,0,20.2-11.7,22.8-20c2.7-8.3,1.2-32.2-5.5-27.8s-13.6,28.7-17.1,36.5s-6.6,17-7.1,10.8
							s4.4-12.5-0.9-19.2c-5.4-6.6-19.9-10.3-20.8-6.2s2.6,18.6,3.4,19.9S340,574,340,574s-22-7.3-28.7-10.6
							c-6.7-3.2-1.6,9.2,2.2,14.2c3.8,5.1,28.1,1.9,28.1,1.9s-5.2,7.5-2,18.6s15,20.6,20.7,18.4c5.7-2.2,2.3-19.7-1.4-25.4
							c-3.7-5.7-7.1-13.1-7.1-13.1l21.4,1.7c0,0,6.3,1.9,13.8-2.9c7.4-4.9,10.1-8.6,6.1-14.6s-17.2-5.4-24.1,0.3
							C362,568.2,352.5,569.9,352.5,569.9z"/>
						<path class="st2" d="M348.8,553.5c0,0,4.3-6.8-4.3-23.5c-8.6-16.7-23.7-40.2-23.7-40.2l4.3-2.8c0,0,20.7,34.5,22.9,40.8
							C350.7,535.6,357.3,543.7,348.8,553.5z"/>
						<circle class="st2" cx="358.5" cy="517.3" r="2"/>
						<circle class="st2" cx="368.1" cy="511" r="2"/>
						<circle class="st2" cx="365.2" cy="520.3" r="2"/>
						<circle class="st2" cx="357" cy="509.4" r="2"/>
						<circle class="st2" cx="351.2" cy="515.5" r="2"/>
						<circle class="st2" cx="347.5" cy="507.7" r="2"/>
						<circle class="st2" cx="362.6" cy="495.5" r="2"/>
						<circle class="st2" cx="353.4" cy="530.4" r="2"/>
					</g>
					<g>
						<path class="st2" d="M146.2,426.5c0,0-23.3-1.3-30.1,4.2c-6.8,5.5-18.6,26.3-10.6,26.3s27.1-16.5,34.3-21.2
							s14.8-10.6,11.9-5.1c-3,5.5-10.6,8.1-9.7,16.5c0.8,8.5,11,19.5,14,16.5s8.1-17,8.1-18.5s-5.1-15.4-5.1-15.4
							s14.4,18.2,18.2,24.6s6.4-6.8,5.9-13.1c-0.4-6.4-22.5-17-22.5-17s8.5-3.4,11.9-14.4s-1.3-25.4-7.2-26.7
							c-5.9-1.3-12.7,15.3-12.7,22s-1.3,14.8-1.3,14.8l-17-13.1c0,0-4.2-5.1-13.1-5.1s-13.1,1.7-13.1,8.9c0,7.2,11.4,14,20.3,12.9
							S146.2,426.5,146.2,426.5z"/>
						<path class="st2" d="M140.3,442.3c0,0-7.3,3.3-9.2,22s-2.2,46.7-2.2,46.7h-5.1c0,0,1.6-40.2,3.2-46.7
							C128.9,456.2,127.9,445.8,140.3,442.3z"/>
						<circle class="st2" cx="112.4" cy="467.3" r="2"/>
						<circle class="st2" cx="100.9" cy="467.3" r="2"/>
						<circle class="st2" cx="108.4" cy="461.1" r="2"/>
						<circle class="st2" cx="109.3" cy="474.7" r="2"/>
						<circle class="st2" cx="117.5" cy="472.7" r="2"/>
						<circle class="st2" cx="116.3" cy="481.3" r="2"/>
						<circle class="st2" cx="96.9" cy="483.2" r="2"/>
						<circle class="st2" cx="123.7" cy="459.1" r="2"/>
					</g>
					<g>
						<path class="st2" d="M217.9,477.1c0,0,20.2-11.7,22.8-20c2.7-8.3,1.2-32.2-5.5-27.8c-6.7,4.4-13.6,28.7-17.1,36.5
							s-6.6,17-7.1,10.8s4.4-12.5-0.9-19.2c-5.4-6.6-19.9-10.3-20.8-6.2c-0.9,4.1,2.6,18.6,3.4,19.9s12.7,10.1,12.7,10.1
							s-22-7.3-28.7-10.6s-1.6,9.2,2.2,14.2c3.8,5.1,28.1,1.9,28.1,1.9s-5.2,7.5-2,18.6c3.2,11.1,15,20.6,20.7,18.4
							s2.3-19.7-1.4-25.4s-7.1-13.1-7.1-13.1l21.4,1.7c0,0,6.3,1.9,13.8-2.9c7.4-4.9,10.1-8.6,6.1-14.6c-3.9-6-17.2-5.4-24.1,0.3
							S217.9,477.1,217.9,477.1z"/>
						<path class="st2" d="M214.2,460.7c0,0,4.3-6.8-4.3-23.5S186.2,397,186.2,397l4.3-2.8c0,0,20.7,34.5,22.9,40.8
							C216.2,442.8,222.7,450.9,214.2,460.7z"/>
						<circle class="st2" cx="223.9" cy="424.5" r="2"/>
						<circle class="st2" cx="233.5" cy="418.2" r="2"/>
						<circle class="st2" cx="230.6" cy="427.5" r="2"/>
						<circle class="st2" cx="222.4" cy="416.6" r="2"/>
						<circle class="st2" cx="216.6" cy="422.7" r="2"/>
						<circle class="st2" cx="213" cy="414.9" r="2"/>
						<circle class="st2" cx="228.1" cy="402.7" r="2"/>
						<circle class="st2" cx="218.9" cy="437.6" r="2"/>
					</g>
				</g>
			</g>
		</g>
		<circle class="st4" cx="319.3" cy="422.3" r="4"/>
		<g>
			<path class="st5" d="M266.5,407.7L266.5,407.7L266.5,407.7c0,0.2-0.4,21.3,11.8,26.3c14.8,6,25.2-2.6,26.3-3.6
				c4.9-4.3,6.3-7.7,6.6-8.7c-25.5-16-40.8-25.7-35.2-49.4c2.9-12.2,7-23.6,8.4-27.2c-0.4,0.2-0.8,0.3-1.2,0.5
				C276.1,363.5,266.5,401.6,266.5,407.7z"/>
			<path class="st5" d="M319.3,425.7c1.9,0,3.5-1.5,3.5-3.5c0-1.9-1.5-3.5-3.5-3.5s-3.5,1.5-3.5,3.5S317.4,425.7,319.3,425.7z"/>
			<path class="st5" d="M352.6,345.7L352.6,345.7l0.5,1.3C352.8,346.3,352.6,345.8,352.6,345.7z"/>
			<path class="st5" d="M335.4,431.6c13.8,5.2,28.9,2.2,35.9-7.1c8.6-11.6-1.2-27.1-1.2-27.2l0,0c0-0.1-0.1-0.1-0.1-0.2
				c-1.1-5.4-5.3-24.9-15.1-50.8c-0.4-0.1-0.7-0.2-1.1-0.3c1.4,3.7,7.8,20.3,8.3,29.7c0.9,15.2-17.3,39.1-34.9,46.1
				C327.6,423.2,329.3,428.4,335.4,431.6z"/>
		</g>
		<g>
			<path class="st5" d="M353.8,346c1.4,3.7,7.8,20.3,8.3,29.7c0.9,15.2-17.3,39.1-34.9,46.1c0.4,1.5,2.1,6.7,8.2,9.9
				c13.8,5.2,28.9,2.2,35.9-7.1c8.6-11.6-1.2-27.1-1.2-27.2l0,0c0-0.1-0.1-0.1-0.1-0.2c-1.1-5.4-5.3-24.9-15.1-50.8
				C354.5,346.2,354.1,346.1,353.8,346z"/>
			<path class="st5" d="M276,372.3c2.9-12.2,7-23.6,8.4-27.2c-0.4,0.2-0.8,0.3-1.2,0.5c-7,17.8-16.6,55.9-16.6,62l0,0l0,0
				c0,0.2-0.4,21.3,11.8,26.3c14.8,6,25.2-2.6,26.3-3.6c4.9-4.3,6.3-7.7,6.6-8.7C285.7,405.7,270.4,396,276,372.3z"/>
			<path class="st5" d="M319.3,418.8c-1.9,0-3.5,1.5-3.5,3.5c0,1.9,1.5,3.5,3.5,3.5s3.5-1.5,3.5-3.5
				C322.7,420.4,321.2,418.8,319.3,418.8z"/>
			<path class="st5" d="M285,346.4l0.7-1.8l0,0C285.5,344.9,285.3,345.5,285,346.4z"/>
		</g>
	</g>
	<path d="M277.9,434.9c3.9,1.6,7.5,2.2,10.7,2.2c9.5,0,15.7-5.2,16.6-6c5.1-4.5,6.6-8,6.9-9.1h2.6c0,0.1,0,0.2,0,0.3
		c0,2.5,2,4.5,4.5,4.5s4.5-2,4.5-4.5c0-0.1,0-0.2,0-0.3h2.6c0.4,1.6,2.1,7.1,8.7,10.6l0,0l0,0c4.7,1.8,9.5,2.6,14.2,2.6
		c9.5,0,18.1-3.6,22.9-10.1c8.5-11.4,0-26.3-1.1-28.2h-0.1l0,0c-1.1-5.4-5.3-24.7-14.9-50.3l0,0l-0.4-1.1c-1.2-0.3-2.4-0.6-3.6-0.9
		l0.5,1.2l0,0c0,0.1,0.2,0.6,0.5,1.3c1.8,4.6,7.5,20.1,8,28.7c0.9,14.9-17.2,38.5-34.6,45.2h-3.1c-0.6-1.8-2.2-3.1-4.2-3.1
		s-3.7,1.3-4.2,3.2h-3.1c-25.2-15.8-40.4-25.4-35-48.4c2.6-11.2,6.4-21.8,8-26.1c0.3-0.9,0.6-1.5,0.7-1.8l0,0l0.5-1.3
		c-1.2,0.5-2.5,1.1-3.9,1.7l-0.5,1.3l0,0c-7.2,18.6-16.4,55.3-16.4,61.4v0.1l0,0c0,1,0,6,1.3,11.4
		C268.7,427.3,272.6,432.7,277.9,434.9z M362.1,375.7c-0.6-9.3-6.9-25.9-8.3-29.7c0.4,0.1,0.7,0.2,1.1,0.3
		c9.7,25.9,14,45.4,15.1,50.8c0,0.1,0,0.1,0.1,0.2l0,0c0.1,0.2,9.9,15.6,1.2,27.2c-6.9,9.4-22,12.4-35.9,7.1
		c-6.1-3.2-7.8-8.4-8.2-9.9C344.8,414.8,363,390.8,362.1,375.7z M319.3,418.8c1.9,0,3.5,1.5,3.5,3.5c0,1.9-1.5,3.5-3.5,3.5
		s-3.5-1.5-3.5-3.5C315.8,420.4,317.4,418.8,319.3,418.8z M266.5,407.7L266.5,407.7c0-6.1,9.6-44.2,16.6-62c0.4-0.2,0.8-0.3,1.2-0.5
		c-1.3,3.5-5.5,15-8.4,27.2c-5.6,23.6,9.8,33.4,35.2,49.4c-0.3,1-1.7,4.3-6.6,8.7c-1.1,1-11.5,9.6-26.3,3.6
		C266.1,429,266.5,407.9,266.5,407.7L266.5,407.7z"/>
</g>
</svg>
