<?xml version="1.0" encoding="utf-8"?>
<!-- Generator: Adobe Illustrator 27.0.0, SVG Export Plug-In . SVG Version: 6.00 Build 0)  -->
<svg version="1.1" id="Layer_1" xmlns="http://www.w3.org/2000/svg" xmlns:xlink="http://www.w3.org/1999/xlink" x="0px" y="0px"
	 viewBox="0 0 600 1200" style="enable-background:new 0 0 600 1200;" xml:space="preserve">
<style type="text/css">
	.st0{fill:none;stroke:#000000;stroke-linecap:round;stroke-linejoin:round;stroke-miterlimit:10;}
	.st1{fill:#7F374F;}
	.st2{clip-path:url(#SVGID_00000181080541224440676610000017905688836718355864_);}
	.st3{opacity:0.5;fill:#FFFFFF;}
	.st4{fill:none;}
</style>
<g>
	<path class="st0" d="M265.5,407.4"/>
	<path class="st0" d="M370,396.7"/>
	<path class="st1" d="M280.5,345.8l-4.9,2c-4.4,15.8-10.1,56-10.1,59.7l0,0c0,0-0.6,21.6,12.1,26.8c8.1,3.3,15.2,2.3,20.3,0.2l0,0
		l51.9,0l0,0c8.6-0.3,16.6-3.5,21.3-9.8c8.9-12-1.2-27.8-1.2-27.8c-1-5.2-5.4-40.6-7.9-49.4l-4.5-1.1l1.8,42.4
		c0,0-20.5,11.5-39.1,11.5c-18.7,0-41.7-10.8-41.7-10.8L280.5,345.8z"/>
	<g>
		<defs>
			<path id="SVGID_1_" d="M280.5,345.8l-4.9,2c-4.4,15.8-10.1,56-10.1,59.7l0,0c0,0-0.6,21.6,12.1,26.8c8.1,3.3,15.2,2.3,20.3,0.2
				l0,0l51.9,0l0,0c8.6-0.3,16.6-3.5,21.3-9.8c8.9-12-1.2-27.8-1.2-27.8c-1-5.2-5.4-40.6-7.9-49.4l-4.5-1.1l1.8,42.4
				c0,0-20.5,11.5-39.1,11.5c-18.7,0-41.7-10.8-41.7-10.8L280.5,345.8z"/>
		</defs>
		<clipPath id="SVGID_00000162350956192539251600000012049507518363573394_">
			<use xlink:href="#SVGID_1_"  style="overflow:visible;"/>
		</clipPath>
		<g style="clip-path:url(#SVGID_00000162350956192539251600000012049507518363573394_);">
			<rect x="211.4" y="332.4" class="st3" width="229.8" height="2.4"/>
			<rect x="211.4" y="337.2" class="st3" width="229.8" height="2.4"/>
			<rect x="211.4" y="342.1" class="st3" width="229.8" height="2.4"/>
			<rect x="211.4" y="346.9" class="st3" width="229.8" height="2.4"/>
			<rect x="211.4" y="351.8" class="st3" width="229.8" height="2.4"/>
			<rect x="211.4" y="356.6" class="st3" width="229.8" height="2.4"/>
			<rect x="211.4" y="361.4" class="st3" width="229.8" height="2.4"/>
			<rect x="211.4" y="366.3" class="st3" width="229.8" height="2.4"/>
			<rect x="211.4" y="371.1" class="st3" width="229.8" height="2.4"/>
			<rect x="211.4" y="376" class="st3" width="229.8" height="2.4"/>
			<rect x="211.4" y="380.8" class="st3" width="229.8" height="2.4"/>
			<rect x="211.4" y="385.7" class="st3" width="229.8" height="2.4"/>
			<rect x="211.4" y="390.5" class="st3" width="229.8" height="2.4"/>
			<rect x="211.4" y="395.3" class="st3" width="229.8" height="2.4"/>
			<rect x="211.4" y="400.2" class="st3" width="229.8" height="2.4"/>
			<rect x="211.4" y="405" class="st3" width="229.8" height="2.4"/>
			<rect x="211.4" y="409.9" class="st3" width="229.8" height="2.4"/>
			<rect x="211.4" y="414.7" class="st3" width="229.8" height="2.4"/>
			<rect x="211.4" y="419.6" class="st3" width="229.8" height="2.4"/>
			<rect x="211.4" y="424.4" class="st3" width="229.8" height="2.4"/>
			<rect x="211.4" y="429.2" class="st3" width="229.8" height="2.4"/>
			<rect x="211.4" y="434.1" class="st3" width="229.8" height="2.4"/>
			<rect x="211.4" y="438.9" class="st3" width="229.8" height="2.4"/>
			<rect x="211.4" y="443.8" class="st3" width="229.8" height="2.4"/>
			<rect x="211.4" y="448.6" class="st3" width="229.8" height="2.4"/>
			<rect x="211.4" y="453.5" class="st3" width="229.8" height="2.4"/>
			<rect x="211.4" y="458.3" class="st3" width="229.8" height="2.4"/>
			<rect x="211.4" y="463.1" class="st3" width="229.8" height="2.4"/>
			<rect x="211.4" y="468" class="st3" width="229.8" height="2.4"/>
			<rect x="211.4" y="472.8" class="st3" width="229.8" height="2.4"/>
			<rect x="211.4" y="477.7" class="st3" width="229.8" height="2.4"/>
			<rect x="211.4" y="482.5" class="st3" width="229.8" height="2.4"/>
			<rect x="211.4" y="487.4" class="st3" width="229.8" height="2.4"/>
			<rect x="211.4" y="492.2" class="st3" width="229.8" height="2.4"/>
			<rect x="211.4" y="497.1" class="st3" width="229.8" height="2.4"/>
			<rect x="211.4" y="501.9" class="st3" width="229.8" height="2.4"/>
			<rect x="211.4" y="506.7" class="st3" width="229.8" height="2.4"/>
			<rect x="211.4" y="511.6" class="st3" width="229.8" height="2.4"/>
			<rect x="211.4" y="516.4" class="st3" width="229.8" height="2.4"/>
			<rect x="211.4" y="521.3" class="st3" width="229.8" height="2.4"/>
			<rect x="211.4" y="526.1" class="st3" width="229.8" height="2.4"/>
			
				<rect x="308.2" y="429.2" transform="matrix(-1.836970e-16 1 -1 -1.836970e-16 853.5471 7.3145)" class="st3" width="229.8" height="2.4"/>
			
				<rect x="303.4" y="429.2" transform="matrix(-1.836970e-16 1 -1 -1.836970e-16 848.704 12.1576)" class="st3" width="229.8" height="2.4"/>
			
				<rect x="298.5" y="429.2" transform="matrix(-1.836970e-16 1 -1 -1.836970e-16 843.8608 17.0007)" class="st3" width="229.8" height="2.4"/>
			
				<rect x="293.7" y="429.2" transform="matrix(-1.836970e-16 1 -1 -1.836970e-16 839.0177 21.8439)" class="st3" width="229.8" height="2.4"/>
			
				<rect x="288.9" y="429.2" transform="matrix(-1.836970e-16 1 -1 -1.836970e-16 834.1746 26.687)" class="st3" width="229.8" height="2.4"/>
			
				<rect x="284" y="429.2" transform="matrix(-1.836970e-16 1 -1 -1.836970e-16 829.3314 31.5302)" class="st3" width="229.8" height="2.4"/>
			
				<rect x="279.2" y="429.2" transform="matrix(-1.836970e-16 1 -1 -1.836970e-16 824.4883 36.3733)" class="st3" width="229.8" height="2.4"/>
			
				<rect x="274.3" y="429.2" transform="matrix(-1.836970e-16 1 -1 -1.836970e-16 819.6451 41.2164)" class="st3" width="229.8" height="2.4"/>
			
				<rect x="269.5" y="429.2" transform="matrix(-1.836970e-16 1 -1 -1.836970e-16 814.802 46.0596)" class="st3" width="229.8" height="2.4"/>
			
				<rect x="264.6" y="429.2" transform="matrix(-1.836970e-16 1 -1 -1.836970e-16 809.9589 50.9027)" class="st3" width="229.8" height="2.4"/>
			
				<rect x="259.8" y="429.2" transform="matrix(-1.836970e-16 1 -1 -1.836970e-16 805.1157 55.7459)" class="st3" width="229.8" height="2.4"/>
			
				<rect x="255" y="429.2" transform="matrix(-1.836970e-16 1 -1 -1.836970e-16 800.2726 60.589)" class="st3" width="229.8" height="2.4"/>
			
				<rect x="250.1" y="429.2" transform="matrix(-1.836970e-16 1 -1 -1.836970e-16 795.4295 65.4321)" class="st3" width="229.8" height="2.4"/>
			
				<rect x="245.3" y="429.2" transform="matrix(-1.836970e-16 1 -1 -1.836970e-16 790.5864 70.2753)" class="st3" width="229.8" height="2.4"/>
			
				<rect x="240.4" y="429.2" transform="matrix(-1.836970e-16 1 -1 -1.836970e-16 785.7432 75.1184)" class="st3" width="229.8" height="2.4"/>
			
				<rect x="235.6" y="429.2" transform="matrix(-1.836970e-16 1 -1 -1.836970e-16 780.9001 79.9616)" class="st3" width="229.8" height="2.4"/>
			
				<rect x="230.7" y="429.2" transform="matrix(-1.836970e-16 1 -1 -1.836970e-16 776.0569 84.8047)" class="st3" width="229.8" height="2.4"/>
			
				<rect x="225.9" y="429.2" transform="matrix(-1.836970e-16 1 -1 -1.836970e-16 771.2138 89.6478)" class="st3" width="229.8" height="2.4"/>
			
				<rect x="221.1" y="429.2" transform="matrix(-1.836970e-16 1 -1 -1.836970e-16 766.3707 94.491)" class="st3" width="229.8" height="2.4"/>
			
				<rect x="216.2" y="429.2" transform="matrix(-1.836970e-16 1 -1 -1.836970e-16 761.5275 99.3341)" class="st3" width="229.8" height="2.4"/>
			
				<rect x="211.4" y="429.2" transform="matrix(-1.836970e-16 1 -1 -1.836970e-16 756.6844 104.1772)" class="st3" width="229.8" height="2.4"/>
			
				<rect x="206.5" y="429.2" transform="matrix(-1.836970e-16 1 -1 -1.836970e-16 751.8412 109.0204)" class="st3" width="229.8" height="2.4"/>
			
				<rect x="201.7" y="429.2" transform="matrix(-1.836970e-16 1 -1 -1.836970e-16 746.9981 113.8635)" class="st3" width="229.8" height="2.4"/>
			
				<rect x="196.8" y="429.2" transform="matrix(-1.836970e-16 1 -1 -1.836970e-16 742.155 118.7067)" class="st3" width="229.8" height="2.4"/>
			
				<rect x="192" y="429.2" transform="matrix(-1.836970e-16 1 -1 -1.836970e-16 737.3118 123.5498)" class="st3" width="229.8" height="2.4"/>
			
				<rect x="187.2" y="429.2" transform="matrix(-1.836970e-16 1 -1 -1.836970e-16 732.4687 128.3929)" class="st3" width="229.8" height="2.4"/>
			
				<rect x="182.3" y="429.2" transform="matrix(-1.836970e-16 1 -1 -1.836970e-16 727.6255 133.2361)" class="st3" width="229.8" height="2.4"/>
			
				<rect x="177.5" y="429.2" transform="matrix(-1.836970e-16 1 -1 -1.836970e-16 722.7824 138.0792)" class="st3" width="229.8" height="2.4"/>
			
				<rect x="172.6" y="429.2" transform="matrix(-1.836970e-16 1 -1 -1.836970e-16 717.9393 142.9224)" class="st3" width="229.8" height="2.4"/>
			
				<rect x="167.8" y="429.2" transform="matrix(-1.836970e-16 1 -1 -1.836970e-16 713.0961 147.7655)" class="st3" width="229.8" height="2.4"/>
			
				<rect x="162.9" y="429.2" transform="matrix(-1.836970e-16 1 -1 -1.836970e-16 708.253 152.6086)" class="st3" width="229.8" height="2.4"/>
			
				<rect x="158.1" y="429.2" transform="matrix(-1.836970e-16 1 -1 -1.836970e-16 703.4099 157.4518)" class="st3" width="229.8" height="2.4"/>
			
				<rect x="153.3" y="429.2" transform="matrix(-1.836970e-16 1 -1 -1.836970e-16 698.5667 162.2949)" class="st3" width="229.8" height="2.4"/>
			
				<rect x="148.4" y="429.2" transform="matrix(-1.836970e-16 1 -1 -1.836970e-16 693.7236 167.1381)" class="st3" width="229.8" height="2.4"/>
			
				<rect x="143.6" y="429.2" transform="matrix(-1.836970e-16 1 -1 -1.836970e-16 688.8804 171.9812)" class="st3" width="229.8" height="2.4"/>
			
				<rect x="138.7" y="429.2" transform="matrix(-1.836970e-16 1 -1 -1.836970e-16 684.0373 176.8243)" class="st3" width="229.8" height="2.4"/>
			
				<rect x="133.9" y="429.2" transform="matrix(-1.836970e-16 1 -1 -1.836970e-16 679.1942 181.6675)" class="st3" width="229.8" height="2.4"/>
			
				<rect x="129" y="429.2" transform="matrix(-1.836970e-16 1 -1 -1.836970e-16 674.351 186.5106)" class="st3" width="229.8" height="2.4"/>
			
				<rect x="124.2" y="429.2" transform="matrix(-1.836970e-16 1 -1 -1.836970e-16 669.5079 191.3537)" class="st3" width="229.8" height="2.4"/>
			
				<rect x="119.3" y="429.2" transform="matrix(-1.836970e-16 1 -1 -1.836970e-16 664.6647 196.1969)" class="st3" width="229.8" height="2.4"/>
			
				<rect x="114.5" y="429.2" transform="matrix(-1.836970e-16 1 -1 -1.836970e-16 659.8216 201.04)" class="st3" width="229.8" height="2.4"/>
		</g>
	</g>
	<g>
		<path class="st4" d="M362.8,348.1L362.8,348.1C362.7,348,362.7,348,362.8,348.1C362.7,348.1,362.7,348.1,362.8,348.1z"/>
		<path class="st4" d="M361.4,347.7l-0.6-0.1c-0.4-0.1-0.8-0.2-1.1-0.3c-0.5-0.1-1.1-0.3-1.6-0.4l1.8,41.7c0,0.2-0.1,0.4-0.3,0.5
			c-0.2,0.1-20.8,11.6-39.4,11.6c-18.6,0-41.7-10.8-42-10.9c-0.2-0.1-0.3-0.3-0.3-0.5l2-42.8c-1.3,0.5-2.6,1-4,1.6
			c-4.4,15.9-9.9,55.7-10,59.2c0,0,0,0,0,0c0,0,0,0,0,0c0,0.2-0.4,21.3,11.8,26.3c1.7,0.7,3.3,1.2,4.9,1.5c6.3,1.3,11.5,0.1,15-1.3
			c0,0,0.1,0,0.1,0c0,0,0,0,0.1,0c0,0,0,0,0.1,0l48.3,0c0.1,0,0.1,0,0.2,0c0.4,0,0.8,0,1.3,0l1.7,0c0.1,0,0.2,0,0.3,0
			c0.5,0,1,0,1.4-0.1c0.1,0,0.2,0,0.3,0c0.5,0,0.9-0.1,1.4-0.1c0.1,0,0.2,0,0.3,0c0.5-0.1,0.9-0.1,1.3-0.2c0.1,0,0.2,0,0.3,0
			c0.4-0.1,0.9-0.2,1.3-0.3c0.1,0,0.2,0,0.2-0.1c0.4-0.1,0.9-0.2,1.3-0.3c0,0,0.1,0,0.1,0c1.8-0.5,3.5-1.2,5.1-2
			c0.1-0.1,0.3-0.1,0.4-0.2c0.3-0.1,0.5-0.3,0.8-0.5c0.2-0.1,0.4-0.2,0.5-0.3c0.2-0.2,0.5-0.3,0.7-0.5c0.2-0.1,0.4-0.2,0.5-0.4
			c0.2-0.2,0.4-0.3,0.7-0.5c0.2-0.1,0.4-0.3,0.5-0.4c0.2-0.2,0.4-0.3,0.6-0.5c0.2-0.2,0.3-0.3,0.5-0.5c0.2-0.2,0.4-0.4,0.6-0.5
			c0.2-0.2,0.3-0.3,0.5-0.5c0.2-0.2,0.3-0.4,0.5-0.6c0.2-0.2,0.3-0.4,0.4-0.6c0.1-0.2,0.3-0.4,0.4-0.5c8.6-11.6-1.2-27.1-1.2-27.2
			c0-0.1-0.1-0.1-0.1-0.2c-0.3-1.7-1-6.5-1.9-12.7c-1.8-12.8-4.3-30.2-6-36.4C361.5,347.8,361.5,347.7,361.4,347.7z"/>
	</g>
	<g>
		<path class="st4" d="M274.8,348.6l-0.4,1.6C274.6,349.6,274.7,349.1,274.8,348.6C274.9,348.6,274.8,348.6,274.8,348.6z"/>
		<path class="st4" d="M369.5,396.8c-0.3-1.7-1-6.5-1.9-12.7c-1.8-12.8-4.3-30.2-6-36.4c-0.1,0-0.2,0-0.2-0.1l-0.6-0.1
			c-0.4-0.1-0.8-0.2-1.1-0.3c-0.5-0.1-1.1-0.3-1.6-0.4l1.8,41.7c0,0.2-0.1,0.4-0.3,0.5c-0.2,0.1-20.8,11.6-39.4,11.6
			c-18.6,0-41.7-10.8-42-10.9c-0.2-0.1-0.3-0.3-0.3-0.5l2-42.8c-1.3,0.5-2.6,1-4,1.6c-4.4,15.9-9.9,55.7-10,59.2c0,0,0,0,0,0
			c0,0,0,0,0,0c0,0.2-0.4,21.3,11.8,26.3c1.7,0.7,3.3,1.2,4.9,1.5c6.3,1.3,11.5,0.1,15-1.3c0,0,0.1,0,0.1,0c0,0,0,0,0.1,0
			c0,0,0,0,0.1,0l48.3,0c0.1,0,0.1,0,0.2,0c0.4,0,0.8,0,1.3,0l1.7,0c0.1,0,0.2,0,0.3,0c0.5,0,1,0,1.4-0.1c0.1,0,0.2,0,0.3,0
			c0.5,0,0.9-0.1,1.4-0.1c0.1,0,0.2,0,0.3,0c0.5-0.1,0.9-0.1,1.3-0.2c0.1,0,0.2,0,0.3,0c0.4-0.1,0.9-0.2,1.3-0.3
			c0.1,0,0.2,0,0.2-0.1c0.4-0.1,0.9-0.2,1.3-0.3c0,0,0.1,0,0.1,0c1.8-0.5,3.5-1.2,5.1-2c0.1-0.1,0.3-0.1,0.4-0.2
			c0.3-0.1,0.5-0.3,0.8-0.5c0.2-0.1,0.4-0.2,0.5-0.3c0.2-0.2,0.5-0.3,0.7-0.5c0.2-0.1,0.4-0.2,0.5-0.4c0.2-0.2,0.4-0.3,0.7-0.5
			c0.2-0.1,0.4-0.3,0.5-0.4c0.2-0.2,0.4-0.3,0.6-0.5c0.2-0.2,0.3-0.3,0.5-0.5c0.2-0.2,0.4-0.4,0.6-0.5c0.2-0.2,0.3-0.3,0.5-0.5
			c0.2-0.2,0.3-0.4,0.5-0.6c0.2-0.2,0.3-0.4,0.4-0.6c0.1-0.2,0.3-0.4,0.4-0.5c8.6-11.6-1.2-27.1-1.2-27.2
			C369.5,397,369.5,396.9,369.5,396.8z"/>
		<path d="M274.4,350.2L274.4,350.2C274.4,350.2,274.4,350.2,274.4,350.2z"/>
		<path d="M362.8,348.1l0.5,2C363.1,349.4,362.9,348.7,362.8,348.1z"/>
	</g>
	<path class="st4" d="M369.5,396.8c-0.3-1.7-1-6.5-1.9-12.7c-1.8-12.8-4.3-30.2-6-36.4c-0.1,0-0.2,0-0.2-0.1l-0.6-0.1
		c-0.4-0.1-0.8-0.2-1.1-0.3c-0.5-0.1-1.1-0.3-1.6-0.4l1.8,41.7c0,0.2-0.1,0.4-0.3,0.5c-0.2,0.1-20.8,11.6-39.4,11.6
		c-18.6,0-41.7-10.8-42-10.9c-0.2-0.1-0.3-0.3-0.3-0.5l2-42.8c-1.3,0.5-2.6,1-4,1.6c-4.4,15.9-9.9,55.7-10,59.2c0,0,0,0,0,0
		c0,0,0,0,0,0c0,0.2-0.4,21.3,11.8,26.3c1.7,0.7,3.3,1.2,4.9,1.5c6.3,1.3,11.5,0.1,15-1.3c0,0,0.1,0,0.1,0c0,0,0,0,0.1,0
		c0,0,0,0,0.1,0l48.3,0c0.1,0,0.1,0,0.2,0c0.4,0,0.8,0,1.3,0l1.7,0c0.1,0,0.2,0,0.3,0c0.5,0,1,0,1.4-0.1c0.1,0,0.2,0,0.3,0
		c0.5,0,0.9-0.1,1.4-0.1c0.1,0,0.2,0,0.3,0c0.5-0.1,0.9-0.1,1.3-0.2c0.1,0,0.2,0,0.3,0c0.4-0.1,0.9-0.2,1.3-0.3c0.1,0,0.2,0,0.2-0.1
		c0.4-0.1,0.9-0.2,1.3-0.3c0,0,0.1,0,0.1,0c1.8-0.5,3.5-1.2,5.1-2c0.1-0.1,0.3-0.1,0.4-0.2c0.3-0.1,0.5-0.3,0.8-0.5
		c0.2-0.1,0.4-0.2,0.5-0.3c0.2-0.2,0.5-0.3,0.7-0.5c0.2-0.1,0.4-0.2,0.5-0.4c0.2-0.2,0.4-0.3,0.7-0.5c0.2-0.1,0.4-0.3,0.5-0.4
		c0.2-0.2,0.4-0.3,0.6-0.5c0.2-0.2,0.3-0.3,0.5-0.5c0.2-0.2,0.4-0.4,0.6-0.5c0.2-0.2,0.3-0.3,0.5-0.5c0.2-0.2,0.3-0.4,0.5-0.6
		c0.2-0.2,0.3-0.4,0.4-0.6c0.1-0.2,0.3-0.4,0.4-0.5c8.6-11.6-1.2-27.1-1.2-27.2C369.5,397,369.5,396.9,369.5,396.8z"/>
	<g>
		<path class="st4" d="M369.5,396.8c-0.3-1.7-1-6.5-1.9-12.7c-1.8-12.8-4.3-30.2-6-36.4c-0.1,0-0.2,0-0.2-0.1l-0.6-0.1
			c-0.4-0.1-0.8-0.2-1.1-0.3c-0.5-0.1-1.1-0.3-1.6-0.4l1.8,41.7c0,0.2-0.1,0.4-0.3,0.5c-0.2,0.1-20.8,11.6-39.4,11.6
			c-18.6,0-41.7-10.8-42-10.9c-0.2-0.1-0.3-0.3-0.3-0.5l2-42.8c-1.3,0.5-2.6,1-4,1.6c-4.4,15.9-9.9,55.7-10,59.2c0,0,0,0,0,0
			c0,0,0,0,0,0c0,0.2-0.4,21.3,11.8,26.3c1.7,0.7,3.3,1.2,4.9,1.5c6.3,1.3,11.5,0.1,15-1.3c0,0,0.1,0,0.1,0c0,0,0,0,0.1,0
			c0,0,0,0,0.1,0l48.3,0c0.1,0,0.1,0,0.2,0c0.4,0,0.8,0,1.3,0l1.7,0c0.1,0,0.2,0,0.3,0c0.5,0,1,0,1.4-0.1c0.1,0,0.2,0,0.3,0
			c0.5,0,0.9-0.1,1.4-0.1c0.1,0,0.2,0,0.3,0c0.5-0.1,0.9-0.1,1.3-0.2c0.1,0,0.2,0,0.3,0c0.4-0.1,0.9-0.2,1.3-0.3
			c0.1,0,0.2,0,0.2-0.1c0.4-0.1,0.9-0.2,1.3-0.3c0,0,0.1,0,0.1,0c1.8-0.5,3.5-1.2,5.1-2c0.1-0.1,0.3-0.1,0.4-0.2
			c0.3-0.1,0.5-0.3,0.8-0.5c0.2-0.1,0.4-0.2,0.5-0.3c0.2-0.2,0.5-0.3,0.7-0.5c0.2-0.1,0.4-0.2,0.5-0.4c0.2-0.2,0.4-0.3,0.7-0.5
			c0.2-0.1,0.4-0.3,0.5-0.4c0.2-0.2,0.4-0.3,0.6-0.5c0.2-0.2,0.3-0.3,0.5-0.5c0.2-0.2,0.4-0.4,0.6-0.5c0.2-0.2,0.3-0.3,0.5-0.5
			c0.2-0.2,0.3-0.4,0.5-0.6c0.2-0.2,0.3-0.4,0.4-0.6c0.1-0.2,0.3-0.4,0.4-0.5c8.6-11.6-1.2-27.1-1.2-27.2
			C369.5,397,369.5,396.9,369.5,396.8z"/>
		<path d="M374.4,406c-1.2-4.5-3.1-8-3.8-9.1c-0.1-0.1-0.1-0.2-0.1-0.2l0,0c0,0-0.1-0.1-0.1-0.1c-0.3-1.7-1-6.5-1.9-12.6
			c-1.6-11.3-3.7-26.3-5.4-33.9l-0.5-2c0,0,0-0.1,0-0.1c0,0,0,0,0,0l-0.3-1.1c-0.1,0-0.2-0.1-0.3-0.1c0,0,0,0,0,0l-0.3-0.1
			c-0.4-0.1-0.7-0.2-1.1-0.3l-3.1-0.7c0,0,0,0,0,0c-0.2-0.1-0.5-0.1-0.7-0.2l0.1,1c0,0,0,0,0,0l1.8,41.7
			c-2.5,1.3-21.4,11.3-38.6,11.3c-17.2,0-38.5-9.4-41.2-10.7l2-42.9c0,0,0,0,0,0l0.1-1.1c-0.3,0.1-0.7,0.3-1,0.4l-4.6,1.8
			c0,0,0,0-0.1,0c-0.1,0-0.2,0.1-0.3,0.1l-0.3,1.2c0,0,0,0,0,0c-0.1,0.5-0.3,1-0.4,1.6l0,0c-4.3,17.1-9.4,53.3-9.4,57.2c0,0,0,0,0,0
			c0,0.6-0.1,5.8,1.3,11.5c1.9,8.1,5.8,13.5,11.1,15.7c1.9,0.8,3.8,1.3,5.6,1.7c1.8,0.3,3.5,0.5,5.1,0.5c4,0,7.3-0.9,9.9-1.9l49.9,0
			c0.2,0,0.5,0,0.7,0c0.3,0,0.6,0,0.9,0l0.3,0c0,0,0.1,0,0.1,0c0,0,0,0,0.1,0c0.5,0,1,0,1.5-0.1c0.1,0,0.1,0,0.2,0
			c0.5,0,1-0.1,1.5-0.2c0.1,0,0.1,0,0.2,0c0.5-0.1,0.9-0.1,1.4-0.2c0.1,0,0.2,0,0.3,0c0.4-0.1,0.9-0.2,1.3-0.3c0.1,0,0.2,0,0.3-0.1
			c0.4-0.1,0.8-0.2,1.2-0.3c0.1,0,0.3-0.1,0.4-0.1c0.4-0.1,0.7-0.2,1.1-0.3c0.1,0,0.3-0.1,0.4-0.1c0.3-0.1,0.7-0.2,1-0.4
			c0.2-0.1,0.3-0.1,0.5-0.2c0.3-0.1,0.6-0.3,0.9-0.4c0.2-0.1,0.3-0.2,0.5-0.2c0.3-0.1,0.6-0.3,0.9-0.4c0.2-0.1,0.3-0.2,0.5-0.3
			c0.3-0.2,0.6-0.3,0.8-0.5c0.2-0.1,0.3-0.2,0.5-0.3c0.3-0.2,0.5-0.3,0.8-0.5c0.2-0.1,0.3-0.2,0.5-0.3c0.2-0.2,0.5-0.4,0.7-0.5
			c0.1-0.1,0.3-0.2,0.4-0.4c0.2-0.2,0.5-0.4,0.7-0.6c0.1-0.1,0.2-0.2,0.4-0.3c0.2-0.2,0.5-0.4,0.7-0.7c0.1-0.1,0.2-0.2,0.2-0.3
			c0.6-0.6,1.1-1.2,1.6-1.9c0.2-0.3,0.4-0.5,0.6-0.8c0-0.1,0.1-0.1,0.1-0.2c0.2-0.3,0.3-0.5,0.5-0.8c0-0.1,0.1-0.1,0.1-0.2
			c0.2-0.3,0.3-0.6,0.5-0.9c0-0.1,0.1-0.1,0.1-0.2c0.1-0.3,0.3-0.6,0.4-0.9c0-0.1,0-0.1,0.1-0.2c0.1-0.3,0.2-0.6,0.3-0.9
			c0-0.1,0-0.1,0.1-0.2c0.1-0.3,0.2-0.6,0.3-0.9c0-0.1,0.1-0.2,0.1-0.3c0.1-0.2,0.1-0.5,0.2-0.7c0-0.2,0.1-0.3,0.1-0.5
			c0-0.2,0.1-0.4,0.1-0.5c0-0.2,0.1-0.5,0.1-0.7c0-0.1,0-0.1,0-0.2C375.6,412.7,375.3,409.5,374.4,406z M370.8,424.3
			c-0.1,0.2-0.3,0.4-0.4,0.5c-0.1,0.2-0.3,0.4-0.4,0.6c-0.2,0.2-0.3,0.4-0.5,0.6c-0.2,0.2-0.3,0.3-0.5,0.5c-0.2,0.2-0.4,0.4-0.6,0.5
			c-0.2,0.2-0.3,0.3-0.5,0.5c-0.2,0.2-0.4,0.3-0.6,0.5c-0.2,0.1-0.4,0.3-0.5,0.4c-0.2,0.2-0.4,0.3-0.7,0.5c-0.2,0.1-0.4,0.2-0.5,0.4
			c-0.2,0.2-0.5,0.3-0.7,0.5c-0.2,0.1-0.3,0.2-0.5,0.3c-0.3,0.2-0.5,0.3-0.8,0.5c-0.1,0.1-0.3,0.1-0.4,0.2c-1.6,0.8-3.3,1.5-5.1,2
			c0,0-0.1,0-0.1,0c-0.4,0.1-0.9,0.2-1.3,0.3c-0.1,0-0.2,0-0.2,0.1c-0.4,0.1-0.9,0.2-1.3,0.3c-0.1,0-0.2,0-0.3,0
			c-0.4,0.1-0.9,0.1-1.3,0.2c-0.1,0-0.2,0-0.3,0c-0.5,0.1-0.9,0.1-1.4,0.1c-0.1,0-0.2,0-0.3,0c-0.5,0-0.9,0.1-1.4,0.1
			c-0.1,0-0.2,0-0.3,0l-1.7,0c-0.4,0-0.8,0-1.3,0c-0.1,0-0.2,0-0.2,0l-48.3,0c0,0,0,0-0.1,0c0,0,0,0-0.1,0c0,0-0.1,0-0.1,0
			c-3.5,1.4-8.8,2.6-15,1.3c-1.6-0.3-3.2-0.8-4.9-1.5c-12.2-5-11.8-26.1-11.8-26.3c0,0,0,0,0,0c0,0,0,0,0,0c0-3.6,5.6-43.3,10-59.2
			c1.4-0.5,2.7-1.1,4-1.6l-2,42.8c0,0.2,0.1,0.4,0.3,0.5c0.2,0.1,23.4,10.9,42,10.9c18.6,0,39.2-11.5,39.4-11.6
			c0.2-0.1,0.3-0.3,0.3-0.5l-1.8-41.7c0.5,0.1,1.1,0.3,1.6,0.4c0.4,0.1,0.8,0.2,1.1,0.3l0.6,0.1c0.1,0,0.2,0,0.2,0.1
			c1.7,6.1,4.1,23.6,6,36.4c0.9,6.2,1.6,11,1.9,12.7c0,0.1,0,0.1,0.1,0.2C369.7,397.2,379.4,412.6,370.8,424.3z"/>
	</g>
</g>
</svg>
