<?xml version="1.0" encoding="utf-8"?>
<!-- Generator: Adobe Illustrator 27.0.0, SVG Export Plug-In . SVG Version: 6.00 Build 0)  -->
<svg version="1.1" id="Layer_1" xmlns="http://www.w3.org/2000/svg" xmlns:xlink="http://www.w3.org/1999/xlink" x="0px" y="0px"
	 viewBox="0 0 600 1200" style="enable-background:new 0 0 600 1200;" xml:space="preserve">
<style type="text/css">
	.st0{fill:#F46E0B;}
	.st1{fill:none;stroke:#000000;stroke-linecap:round;stroke-linejoin:round;stroke-miterlimit:10;}
	.st2{fill:#701E13;}
	.st3{fill:none;}
</style>
<g>
	<path class="st0" d="M363.7,375.4l-6.1,0c0.9,14.7-13.6,38.8-31.9,45.7c0,0,1.1,6.7,8.5,10.7c13.1,5,29,2.8,36.5-7.3
		c8.9-12-1.2-27.8-1.2-27.8C368.5,391.6,366.2,384.2,363.7,375.4z"/>
	<path class="st0" d="M279.1,372.2l-6.1,0c-4.4,15.8-8,31.5-8,35.2l0,0c0,0-0.6,21.6,12.1,26.8c12.7,5.2,22.9-0.2,26.8-3.7
		c6.1-5.4,6.9-9.3,6.9-9.3C292.9,410.8,290.4,409.7,279.1,372.2z"/>
	<path class="st1" d="M265,407.4"/>
	<polyline class="st0" points="273,372.2 273.1,348.6 275.1,347.8 275.3,372.1 	"/>
	<polyline class="st0" points="277.3,372.2 276.8,347.1 278.6,346.4 279.1,372.2 	"/>
	<polyline class="st0" points="363.7,375.4 363.7,348.6 361.7,347.8 361.4,375.4 	"/>
	<polyline class="st0" points="359.4,375.4 360,347.1 358.1,346.4 357.6,375.4 	"/>
	<circle class="st2" cx="318.3" cy="422" r="4"/>
	<path class="st3" d="M276.8,371.7l-0.5-23.9c-0.2,0.1-0.4,0.2-0.7,0.3l0.2,23.6L276.8,371.7z"/>
	<path class="st3" d="M278.8,372.7l-5.3,0c-4.3,15.5-7.9,31-7.9,34.7c0,0,0,0,0,0.1c0,0,0,0,0,0c0,0.2-0.4,21.3,11.8,26.3
		c3.7,1.5,7.1,2.1,10.2,2.1c9.2,0.1,15.3-5,16.1-5.7c4.9-4.3,6.3-7.6,6.6-8.7l-0.3-0.2C292.6,411.2,289.8,409.6,278.8,372.7z"/>
	<path class="st3" d="M278.6,371.7l-0.5-24.6c-0.3,0.1-0.6,0.2-0.9,0.4l0.5,24.3L278.6,371.7z"/>
	<path class="st3" d="M318.3,418.6c-1.9,0-3.5,1.5-3.5,3.5c0,1.9,1.5,3.5,3.5,3.5c1.9,0,3.5-1.5,3.5-3.5
		C321.7,420.1,320.2,418.6,318.3,418.6z"/>
	<path class="st3" d="M274.6,348.5c-0.2,0.1-0.5,0.2-0.7,0.3l0,0c-0.1,0-0.2,0.1-0.3,0.1l0,22.8l1.3,0L274.6,348.5z"/>
	<path class="st3" d="M358.1,375.9c0.5,14.9-13.8,38.4-31.8,45.5c0.4,1.5,2.1,6.7,8.2,9.9c13.8,5.2,28.9,2.2,35.9-7.1
		c8.6-11.5-1-26.9-1.2-27.2c0,0,0,0,0,0c0,0,0,0,0,0c0,0,0,0,0,0c0,0,0-0.1-0.1-0.1c-0.8-4-2.4-9.4-4.2-15.6c-0.5-1.7-1-3.5-1.5-5.3
		H358.1z"/>
	<path class="st3" d="M361.2,347.8c-0.2-0.1-0.4-0.1-0.7-0.2l-0.6,27.3h1L361.2,347.8z"/>
	<polygon class="st3" points="363.2,348.9 362.2,348.5 361.9,374.9 363.2,374.9 	"/>
	<path class="st3" d="M359.5,347.4l-0.3-0.1c0,0,0,0,0,0c-0.2,0-0.4-0.1-0.6-0.1l-0.5,27.8h0.9L359.5,347.4z"/>
	<path class="st3" d="M274.6,348.5c-0.2,0.1-0.5,0.2-0.7,0.3l0,0c-0.1,0-0.2,0.1-0.3,0.1l0,22.8l1.3,0L274.6,348.5z"/>
	<path class="st3" d="M278.6,371.7l-0.5-24.6c-0.3,0.1-0.6,0.2-0.9,0.4l0.5,24.3L278.6,371.7z"/>
	<path class="st3" d="M278.8,372.7l-5.3,0c-4.3,15.5-7.9,31-7.9,34.7c0,0,0,0,0,0.1c0,0,0,0,0,0c0,0.2-0.4,21.3,11.8,26.3
		c3.7,1.5,7.1,2.1,10.2,2.1c9.2,0.1,15.3-5,16.1-5.7c4.9-4.3,6.3-7.6,6.6-8.7l-0.3-0.2C292.6,411.2,289.8,409.6,278.8,372.7z"/>
	<path class="st3" d="M318.3,418.6c-1.9,0-3.5,1.5-3.5,3.5c0,1.9,1.5,3.5,3.5,3.5c1.9,0,3.5-1.5,3.5-3.5
		C321.7,420.1,320.2,418.6,318.3,418.6z"/>
	<path class="st3" d="M364.2,348.6l0,0.8L364.2,348.6C364.2,348.5,364.2,348.5,364.2,348.6C364.2,348.5,364.2,348.5,364.2,348.6z"/>
	<path class="st3" d="M276.8,371.7l-0.5-23.9c-0.2,0.1-0.4,0.2-0.7,0.3l0.2,23.6L276.8,371.7z"/>
	<path class="st3" d="M358.1,375.9c0.5,14.9-13.8,38.4-31.8,45.5c0.4,1.5,2.1,6.7,8.2,9.9c13.8,5.2,28.9,2.2,35.9-7.1
		c8.6-11.5-1-26.9-1.2-27.2c0,0,0,0,0,0c0,0,0,0,0,0c0,0,0,0,0,0c0,0,0-0.1-0.1-0.1c-0.8-4-2.4-9.4-4.2-15.6c-0.5-1.7-1-3.5-1.5-5.3
		H358.1z"/>
	<polygon class="st3" points="363.2,348.9 362.2,348.5 361.9,374.9 363.2,374.9 	"/>
	<path class="st3" d="M359.5,347.4l-0.3-0.1c0,0,0,0,0,0c-0.2,0-0.4-0.1-0.6-0.1l-0.5,27.8h0.9L359.5,347.4z"/>
	<path class="st3" d="M361.2,347.8c-0.2-0.1-0.4-0.1-0.7-0.2l-0.6,27.3h1L361.2,347.8z"/>
	<path class="st3" d="M278.8,372.7l-5.3,0c-4.3,15.5-7.9,31-7.9,34.7c0,0,0,0,0,0.1c0,0,0,0,0,0c0,0.2-0.4,21.3,11.8,26.3
		c3.7,1.5,7.1,2.1,10.2,2.1c9.2,0.1,15.3-5,16.1-5.7c4.9-4.3,6.3-7.6,6.6-8.7l-0.3-0.2C292.6,411.2,289.8,409.6,278.8,372.7z"/>
	<path class="st3" d="M276.8,371.7l-0.5-23.9c-0.2,0.1-0.4,0.2-0.7,0.3l0.2,23.6L276.8,371.7z"/>
	<path class="st3" d="M274.6,348.5c-0.2,0.1-0.5,0.2-0.7,0.3l0,0c-0.1,0-0.2,0.1-0.3,0.1l0,22.8l1.3,0L274.6,348.5z"/>
	<path class="st3" d="M278.6,371.7l-0.5-24.6c-0.3,0.1-0.6,0.2-0.9,0.4l0.5,24.3L278.6,371.7z"/>
	<path class="st3" d="M369.1,397C369.1,397,369.1,397,369.1,397C369.1,397,369.1,397,369.1,397C369,397,369,397,369.1,397
		c0-0.1-0.1-0.1-0.1-0.2c-0.8-4-2.4-9.4-4.2-15.6c-0.5-1.7-1-3.5-1.5-5.3h-5.2c0.5,14.9-13.8,38.4-31.8,45.5
		c0.4,1.5,2.1,6.7,8.2,9.9c13.8,5.2,28.9,2.2,35.9-7.1C378.9,412.7,369.3,397.4,369.1,397z"/>
	<path class="st3" d="M318.3,418.6c-1.9,0-3.5,1.5-3.5,3.5c0,1.9,1.5,3.5,3.5,3.5c1.9,0,3.5-1.5,3.5-3.5
		C321.7,420.1,320.2,418.6,318.3,418.6z"/>
	<path class="st3" d="M359.5,347.4l-0.3-0.1c0,0,0,0,0,0c-0.2,0-0.4-0.1-0.6-0.1l-0.5,27.8h0.9L359.5,347.4z"/>
	<polygon class="st3" points="363.2,348.9 362.2,348.5 361.9,374.9 363.2,374.9 	"/>
	<path class="st3" d="M361.2,347.8c-0.2-0.1-0.4-0.1-0.7-0.2l-0.6,27.3h1L361.2,347.8z"/>
	<path class="st3" d="M274.6,348.5c-0.2,0.1-0.5,0.2-0.7,0.3l0,0c-0.1,0-0.2,0.1-0.3,0.1l0,22.8l1.3,0L274.6,348.5z"/>
	<path class="st3" d="M318.3,418.6c-1.9,0-3.5,1.5-3.5,3.5c0,1.9,1.5,3.5,3.5,3.5c1.9,0,3.5-1.5,3.5-3.5
		C321.7,420.1,320.2,418.6,318.3,418.6z"/>
	<path class="st3" d="M278.8,372.7l-5.3,0c-4.3,15.5-7.9,31-7.9,34.7c0,0,0,0,0,0.1c0,0,0,0,0,0c0,0.2-0.4,21.3,11.8,26.3
		c3.7,1.5,7.1,2.1,10.2,2.1c9.2,0.1,15.3-5,16.1-5.7c4.9-4.3,6.3-7.6,6.6-8.7l-0.3-0.2C292.6,411.2,289.8,409.6,278.8,372.7z"/>
	<path class="st3" d="M278.6,371.7l-0.5-24.6c-0.3,0.1-0.6,0.2-0.9,0.4l0.5,24.3L278.6,371.7z"/>
	<path class="st3" d="M276.8,371.7l-0.5-23.9c-0.2,0.1-0.4,0.2-0.7,0.3l0.2,23.6L276.8,371.7z"/>
	<polygon class="st3" points="363.2,348.9 362.2,348.5 361.9,374.9 363.2,374.9 	"/>
	<path class="st3" d="M369.1,397C369.1,397,369.1,397,369.1,397C369.1,397,369.1,397,369.1,397C369,397,369,397,369.1,397
		c0-0.1-0.1-0.1-0.1-0.2c-0.8-4-2.4-9.4-4.2-15.6c-0.5-1.7-1-3.5-1.5-5.3h-5.2c0.5,14.9-13.8,38.4-31.8,45.5
		c0.4,1.5,2.1,6.7,8.2,9.9c13.8,5.2,28.9,2.2,35.9-7.1C378.9,412.7,369.3,397.4,369.1,397z"/>
	<path class="st3" d="M359.5,347.4l-0.3-0.1c0,0,0,0,0,0c-0.2,0-0.4-0.1-0.6-0.1l-0.5,27.8h0.9L359.5,347.4z"/>
	<path class="st3" d="M361.2,347.8c-0.2-0.1-0.4-0.1-0.7-0.2l-0.6,27.3h1L361.2,347.8z"/>
	<path d="M370,396.7L370,396.7C370,396.7,370,396.7,370,396.7c-0.9-4.1-2.4-9.5-4.2-15.7c-0.5-1.8-1.1-3.7-1.6-5.6l0-26l0,0l0,0
		l0-0.8c0,0,0,0,0,0c0,0,0,0,0,0l0-1c-1.6-0.4-3.1-0.8-4.7-1.1l-1.2-0.5c-0.2-0.1-0.3,0-0.5,0c0,0,0,0,0,0c0,0-0.1,0-0.1,0l-0.1,1
		c0,0,0,0,0,0l-0.5,28.5c0,0,0,0,0,0c0,0,0,0,0,0c0.9,14.6-13.5,38.3-31.5,45.2h-3.1c-0.6-1.8-2.2-3.1-4.2-3.1c-2,0-3.7,1.3-4.2,3.2
		H311l-0.5-0.3c-17.1-10-19.8-11.5-30.8-48.3l-0.5-25.4c0,0,0,0,0,0l0-1.1c-0.4,0.2-0.8,0.3-1.3,0.5l-1.2,0.5
		c-0.6,0.2-1.1,0.5-1.7,0.7c-0.8,0.3-1.6,0.6-2.3,0.9v1.1c0,0,0,0,0,0l0,22.8c-4,14.2-7.3,28.5-7.9,33.8l-0.1,1.6c0,1,0,6,1.3,11.4
		c1.9,8.1,5.8,13.5,11.1,15.7c3.9,1.6,7.5,2.2,10.7,2.2c0,0,0,0,0,0c0,0,0,0,0,0c9.5,0,15.7-5.2,16.6-6c0,0,0,0,0,0
		c5.1-4.5,6.6-8,6.9-9.1h2.6c0,0.1,0,0.2,0,0.3c0,2.5,2,4.5,4.5,4.5c2.5,0,4.5-2,4.5-4.5c0-0.1,0-0.2,0-0.3h2.6
		c0.4,1.6,2.1,7.1,8.7,10.6c0,0,0,0,0,0c0,0,0,0,0,0c4.7,1.8,9.5,2.6,14.2,2.6c9.5,0,18.1-3.6,22.9-10.1
		C379.6,413.4,371.2,398.6,370,396.7z M278.2,347.1l0.5,24.6l-0.9,0l-0.5-24.3C277.6,347.3,277.9,347.2,278.2,347.1z M276.3,347.8
		l0.5,23.9l-1,0l-0.2-23.6C275.8,348,276.1,347.9,276.3,347.8z M273.6,348.9c0.1,0,0.2-0.1,0.3-0.1l0,0c0.2-0.1,0.5-0.2,0.7-0.3
		l0.2,23.2l-1.3,0L273.6,348.9z M303.7,430.1c-0.8,0.8-6.9,5.8-16.1,5.7c-3.1,0-6.5-0.6-10.2-2.1c-12.2-5-11.8-26.1-11.8-26.3
		c0,0,0,0,0,0c0,0,0,0,0-0.1c0-3.7,3.5-19.1,7.9-34.7l5.3,0c11.1,36.9,13.8,38.5,31.2,48.6l0.3,0.2
		C309.9,422.5,308.5,425.8,303.7,430.1z M318.3,425.5c-1.9,0-3.5-1.5-3.5-3.5c0-1.9,1.5-3.5,3.5-3.5c1.9,0,3.5,1.5,3.5,3.5
		C321.7,423.9,320.2,425.5,318.3,425.5z M362.2,348.5l1,0.4l0,26h-1.3L362.2,348.5z M360.5,347.6c0.2,0.1,0.4,0.1,0.7,0.2l-0.3,27.1
		h-1L360.5,347.6z M358.6,347.2c0.2,0,0.4,0.1,0.6,0.1c0,0,0,0,0,0l0.3,0.1l-0.6,27.5h-0.9L358.6,347.2z M370.3,424.3
		c-6.9,9.4-22,12.4-35.9,7.1c-6.1-3.2-7.8-8.4-8.2-9.9c18-7.1,32.4-30.7,31.8-45.5h5.2c0.5,1.8,1,3.6,1.5,5.3
		c1.8,6.2,3.4,11.6,4.2,15.6c0,0,0,0.1,0.1,0.1c0,0,0,0,0,0c0,0,0,0,0,0c0,0,0,0,0,0C369.3,397.4,378.9,412.7,370.3,424.3z"/>
</g>
</svg>
