<?xml version="1.0" encoding="utf-8"?>
<!-- Generator: Adobe Illustrator 27.5.0, SVG Export Plug-In . SVG Version: 6.00 Build 0)  -->
<svg version="1.1" id="Layer_1" xmlns="http://www.w3.org/2000/svg" xmlns:xlink="http://www.w3.org/1999/xlink" x="0px" y="0px"
	 viewBox="0 0 600 1200" style="enable-background:new 0 0 600 1200;" xml:space="preserve">
<style type="text/css">
	.st0{fill:#312D51;}
	.st1{fill:none;stroke:#000000;stroke-linecap:round;stroke-linejoin:round;stroke-miterlimit:10;}
	.st2{fill:#701E13;}
	.st3{clip-path:url(#SVGID_00000174586936665962546110000005381201830791093637_);}
	.st4{fill:#FFFFFF;}
	.st5{clip-path:url(#SVGID_00000081610149011160695860000004138414771690972853_);}
	.st6{fill:none;}
</style>
<g>
	<g>
		<g>
			<path class="st0" d="M304.7,439.5c3.7-7.3,4.9-18.1,4.9-18.1c-23.2-9.3-44.1-11.9-35.3-49c3.5-14.7,8.8-28.2,8.8-28.2l0,0
				c-0.3,0.1-0.6,0.3-0.9,0.4c-0.2,0.1,0.7-1.5,0.5-1.4c-0.3,0.1-1.2,0.5-1.6,0.7l-1.8,0.8l0,0c-7.3,18.4-23.9,57-23.9,62.9l0,0
				c0,0.4-1.7,5.3-2,11.1c-0.3,5.3-0.5,13.2,1.3,18c2.7,7.1,6,12.9,12.2,14.7C281.9,456,298.4,452.2,304.7,439.5z"/>
			<path class="st0" d="M350.9,345.5c0,0,6.6,20,7.3,30.3c2,33.5-16.5,39.1-33.7,45.6c0,0-0.1,14,6.1,19.8
				c3.4,4.8,13.7,9.9,18.3,10.7c9.9,1.7,22.7-3.5,27.8-10.3c9.8-13.2-5.6-46.5-4.7-44.5c-2-10.3-10.7-30.6-19-52.4
				c-0.8-0.2-1.9-0.6-2.6-0.8L350.9,345.5z"/>
			<path class="st1" d="M330,434.1"/>
			<circle class="st2" cx="317.1" cy="422.3" r="4"/>
		</g>
		<g>
			<g>
				<defs>
					<path id="SVGID_1_" d="M350.9,345.5c0,0,6.6,20,7.3,30.3c2,33.5-16.5,39.1-33.7,45.6c0,0-0.1,14,6.1,19.8
						c3.4,4.8,13.7,9.9,18.3,10.7c9.9,1.7,22.7-3.5,27.8-10.3c9.8-13.2-5.6-46.5-4.7-44.5c-2-10.3-10.7-30.6-19-52.4
						c-0.8-0.2-1.9-0.6-2.6-0.8L350.9,345.5z"/>
				</defs>
				<clipPath id="SVGID_00000142864047536117782220000011339510435886591152_">
					<use xlink:href="#SVGID_1_"  style="overflow:visible;"/>
				</clipPath>
				<g style="clip-path:url(#SVGID_00000142864047536117782220000011339510435886591152_);">
					<g>
						<path class="st4" d="M465.2,239.1c0,0-23.3-1.3-30.1,4.2c-6.8,5.5-18.6,26.3-10.6,26.3c8.1,0,27.1-16.5,34.3-21.2
							s14.8-10.6,11.9-5.1c-3,5.5-10.6,8.1-9.7,16.5c0.8,8.5,11,19.5,14,16.5s8.1-17,8.1-18.5s-5.1-15.4-5.1-15.4
							s14.4,18.2,18.2,24.6c3.8,6.4,6.4-6.8,5.9-13.1c-0.4-6.4-22.5-17-22.5-17s8.5-3.4,11.9-14.4s-1.3-25.4-7.2-26.7
							s-12.7,15.3-12.7,22s-1.3,14.8-1.3,14.8l-17-13.1c0,0-4.2-5.1-13.1-5.1s-13.1,1.7-13.1,8.9s11.4,14,20.3,12.9
							S465.2,239.1,465.2,239.1z"/>
						<path class="st4" d="M459.3,254.9c0,0-7.3,3.3-9.2,22s-2.2,46.7-2.2,46.7h-5.1c0,0,1.6-40.2,3.2-46.7
							C447.9,268.7,446.9,258.4,459.3,254.9z"/>
						<circle class="st4" cx="431.3" cy="279.8" r="2"/>
						<circle class="st4" cx="419.8" cy="279.8" r="2"/>
						<circle class="st4" cx="427.4" cy="273.6" r="2"/>
						<circle class="st4" cx="428.3" cy="287.2" r="2"/>
						<circle class="st4" cx="436.5" cy="285.3" r="2"/>
						<circle class="st4" cx="435.3" cy="293.8" r="2"/>
						<circle class="st4" cx="415.9" cy="295.8" r="2"/>
						<circle class="st4" cx="442.7" cy="271.7" r="2"/>
					</g>
					<g>
						<path class="st4" d="M536.9,289.7c0,0,20.2-11.7,22.8-20c2.7-8.3,1.2-32.2-5.5-27.8c-6.7,4.4-13.6,28.7-17.1,36.5
							s-6.6,17-7.1,10.8s4.4-12.5-0.9-19.2c-5.4-6.6-19.9-10.3-20.8-6.2c-0.9,4.1,2.6,18.6,3.4,19.9c0.8,1.2,12.7,10.1,12.7,10.1
							s-22-7.3-28.7-10.6c-6.7-3.2-1.6,9.2,2.2,14.2c3.8,5.1,28.1,1.9,28.1,1.9s-5.2,7.5-2,18.6s15,20.6,20.7,18.4
							s2.3-19.7-1.4-25.4c-3.7-5.7-7.1-13.1-7.1-13.1l21.4,1.7c0,0,6.3,1.9,13.8-2.9c7.4-4.9,10.1-8.6,6.1-14.6
							c-3.9-6-17.2-5.4-24.1,0.3C546.5,288,536.9,289.7,536.9,289.7z"/>
						<path class="st4" d="M533.2,273.2c0,0,4.3-6.8-4.3-23.5s-23.7-40.2-23.7-40.2l4.3-2.8c0,0,20.7,34.5,22.9,40.8
							C535.2,255.4,541.7,263.5,533.2,273.2z"/>
						<circle class="st4" cx="542.9" cy="237" r="2"/>
						<circle class="st4" cx="552.5" cy="230.7" r="2"/>
						<circle class="st4" cx="549.6" cy="240.1" r="2"/>
						<circle class="st4" cx="541.4" cy="229.1" r="2"/>
						<circle class="st4" cx="535.6" cy="235.3" r="2"/>
						<circle class="st4" cx="532" cy="227.5" r="2"/>
						<circle class="st4" cx="547.1" cy="215.2" r="2"/>
						<circle class="st4" cx="537.8" cy="250.1" r="2"/>
					</g>
					<g>
						<path class="st4" d="M330.6,146.3c0,0-23.3-1.3-30.1,4.2s-18.6,26.3-10.6,26.3s27.1-16.5,34.3-21.2
							c7.2-4.7,14.8-10.6,11.9-5.1c-3,5.5-10.6,8.1-9.7,16.5c0.8,8.5,11,19.5,14,16.5s8.1-17,8.1-18.5s-5.1-15.4-5.1-15.4
							s14.4,18.2,18.2,24.6c3.8,6.4,6.4-6.8,5.9-13.1c-0.4-6.4-22.5-17-22.5-17s8.5-3.4,11.9-14.4s-1.3-25.4-7.2-26.7
							c-5.9-1.3-12.7,15.3-12.7,22s-1.3,14.8-1.3,14.8l-17-13.1c0,0-4.2-5.1-13.1-5.1s-13.1,1.7-13.1,8.9s11.4,14,20.3,12.9
							S330.6,146.3,330.6,146.3z"/>
						<path class="st4" d="M324.7,162.1c0,0-7.3,3.3-9.2,22s-2.2,46.7-2.2,46.7h-5.1c0,0,1.6-40.2,3.2-46.7
							C313.3,175.9,312.3,165.6,324.7,162.1z"/>
						<circle class="st4" cx="296.8" cy="187" r="2"/>
						<circle class="st4" cx="285.3" cy="187" r="2"/>
						<circle class="st4" cx="292.9" cy="180.8" r="2"/>
						<circle class="st4" cx="293.7" cy="194.4" r="2"/>
						<circle class="st4" cx="301.9" cy="192.5" r="2"/>
						<circle class="st4" cx="300.7" cy="201" r="2"/>
						<circle class="st4" cx="281.4" cy="203" r="2"/>
						<circle class="st4" cx="308.2" cy="178.9" r="2"/>
					</g>
					<g>
						<path class="st4" d="M402.4,196.9c0,0,20.2-11.7,22.8-20c2.7-8.3,1.2-32.2-5.5-27.8s-13.6,28.7-17.1,36.5s-6.6,17-7.1,10.8
							s4.4-12.5-0.9-19.2c-5.4-6.6-19.9-10.3-20.8-6.2s2.6,18.6,3.4,19.9c0.8,1.2,12.7,10.1,12.7,10.1s-22-7.3-28.7-10.6
							c-6.7-3.2-1.6,9.2,2.2,14.2c3.8,5.1,28.1,1.9,28.1,1.9s-5.2,7.5-2,18.6s15,20.6,20.7,18.4c5.7-2.2,2.3-19.7-1.4-25.4
							c-3.7-5.7-7.1-13.1-7.1-13.1l21.4,1.7c0,0,6.3,1.9,13.8-2.9c7.4-4.9,10.1-8.6,6.1-14.6c-3.9-6-17.2-5.4-24.1,0.3
							C411.9,195.2,402.4,196.9,402.4,196.9z"/>
						<path class="st4" d="M398.7,180.4c0,0,4.3-6.8-4.3-23.5s-23.7-40.2-23.7-40.2l4.3-2.8c0,0,20.7,34.5,22.9,40.8
							C400.6,162.6,407.1,170.7,398.7,180.4z"/>
						<circle class="st4" cx="408.3" cy="144.2" r="2"/>
						<circle class="st4" cx="418" cy="137.9" r="2"/>
						<circle class="st4" cx="415" cy="147.3" r="2"/>
						<circle class="st4" cx="406.9" cy="136.3" r="2"/>
						<circle class="st4" cx="401.1" cy="142.5" r="2"/>
						<circle class="st4" cx="397.4" cy="134.7" r="2"/>
						<circle class="st4" cx="412.5" cy="122.4" r="2"/>
						<circle class="st4" cx="403.3" cy="157.3" r="2"/>
					</g>
					<g>
						<path class="st4" d="M196.1,53.5c0,0-23.3-1.3-30.1,4.2S147.3,84,155.4,84s27.1-16.5,34.3-21.2s14.8-10.6,11.9-5.1
							c-3,5.5-10.6,8.1-9.7,16.5s11,19.5,14,16.5s8.1-17,8.1-18.5s-5.1-15.4-5.1-15.4s14.4,18.2,18.2,24.6s6.4-6.8,5.9-13.1
							c-0.4-6.4-22.5-17-22.5-17S219,48,222.4,37s-1.3-25.4-7.2-26.7c-5.9-1.3-12.7,15.3-12.7,22s-1.3,14.8-1.3,14.8l-17-13.1
							c0,0-4.2-5.1-13.1-5.1c-8.9,0-13.1,1.7-13.1,8.9s11.4,14,20.3,12.9S196.1,53.5,196.1,53.5z"/>
						<path class="st4" d="M190.1,69.3c0,0-7.3,3.3-9.2,22s-2.2,46.7-2.2,46.7h-5.1c0,0,1.6-40.2,3.2-46.7
							C178.7,83.1,177.8,72.8,190.1,69.3z"/>
						<circle class="st4" cx="162.2" cy="94.2" r="2"/>
						<circle class="st4" cx="150.7" cy="94.2" r="2"/>
						<circle class="st4" cx="158.3" cy="88" r="2"/>
						<circle class="st4" cx="159.2" cy="101.6" r="2"/>
						<circle class="st4" cx="167.4" cy="99.7" r="2"/>
						<circle class="st4" cx="166.1" cy="108.2" r="2"/>
						<circle class="st4" cx="146.8" cy="110.2" r="2"/>
						<circle class="st4" cx="173.6" cy="86.1" r="2"/>
					</g>
					<g>
						<path class="st4" d="M267.8,104.1c0,0,20.2-11.7,22.8-20c2.7-8.3,1.2-32.2-5.5-27.8c-6.7,4.4-13.6,28.7-17.1,36.5
							s-6.6,17-7.1,10.8s4.4-12.5-0.9-19.2c-5.4-6.6-19.9-10.3-20.8-6.2c-0.9,4.1,2.6,18.6,3.4,19.9c0.8,1.2,12.7,10.1,12.7,10.1
							s-22-7.3-28.7-10.6s-1.6,9.2,2.2,14.2c3.8,5,28.1,1.9,28.1,1.9s-5.2,7.5-2,18.6c3.2,11.1,15,20.6,20.7,18.4
							c5.7-2.2,2.3-19.7-1.4-25.4c-3.7-5.7-7.1-13.1-7.1-13.1l21.4,1.7c0,0,6.3,1.9,13.8-2.9c7.4-4.9,10.1-8.6,6.1-14.6
							c-3.9-6-17.2-5.4-24.1,0.3C277.3,102.4,267.8,104.1,267.8,104.1z"/>
						<path class="st4" d="M264.1,87.6c0,0,4.3-6.8-4.3-23.5s-23.7-40.2-23.7-40.2l4.3-2.8c0,0,20.7,34.5,22.9,40.8
							C266.1,69.8,272.6,77.9,264.1,87.6z"/>
						<circle class="st4" cx="273.8" cy="51.4" r="2"/>
						<circle class="st4" cx="283.4" cy="45.1" r="2"/>
						<circle class="st4" cx="280.5" cy="54.5" r="2"/>
						<circle class="st4" cx="272.3" cy="43.6" r="2"/>
						<circle class="st4" cx="266.5" cy="49.7" r="2"/>
						<circle class="st4" cx="262.8" cy="41.9" r="2"/>
						<circle class="st4" cx="277.9" cy="29.6" r="2"/>
						<circle class="st4" cx="268.7" cy="64.5" r="2"/>
					</g>
					<g>
						<path class="st4" d="M448.1,363.4c0,0-23.3-1.3-30.1,4.2c-6.8,5.5-18.6,26.3-10.6,26.3c8.1,0,27.1-16.5,34.3-21.2
							s14.8-10.6,11.9-5.1c-3,5.5-10.6,8.1-9.7,16.5s11,19.5,14,16.5s8.1-17,8.1-18.5s-5.1-15.4-5.1-15.4s14.4,18.2,18.2,24.6
							c3.8,6.4,6.4-6.8,5.9-13.1c-0.4-6.4-22.5-17-22.5-17s8.5-3.4,11.9-14.4s-1.3-25.4-7.2-26.7c-5.9-1.3-12.7,15.3-12.7,22
							c0,6.8-1.3,14.8-1.3,14.8l-17-13.1c0,0-4.2-5.1-13.1-5.1s-13.1,1.7-13.1,8.9s11.4,14,20.3,12.9S448.1,363.4,448.1,363.4z"/>
						<path class="st4" d="M442.1,379.2c0,0-7.3,3.3-9.2,22c-1.9,18.7-2.2,46.7-2.2,46.7h-5.1c0,0,1.6-40.2,3.2-46.7
							C430.7,393.1,429.7,382.7,442.1,379.2z"/>
						<circle class="st4" cx="414.2" cy="404.2" r="2"/>
						<circle class="st4" cx="402.7" cy="404.2" r="2"/>
						<circle class="st4" cx="410.3" cy="398" r="2"/>
						<circle class="st4" cx="411.1" cy="411.6" r="2"/>
						<circle class="st4" cx="419.3" cy="409.6" r="2"/>
						<circle class="st4" cx="418.1" cy="418.2" r="2"/>
						<circle class="st4" cx="398.8" cy="420.1" r="2"/>
						<circle class="st4" cx="425.6" cy="396" r="2"/>
					</g>
					<g>
						<path class="st4" d="M519.8,414c0,0,20.2-11.7,22.8-20s1.2-32.2-5.5-27.8s-13.6,28.7-17.1,36.5s-6.6,17-7.1,10.8
							s4.4-12.5-0.9-19.2s-19.9-10.3-20.8-6.2c-0.9,4.1,2.6,18.6,3.4,19.9c0.8,1.2,12.7,10.1,12.7,10.1s-22-7.3-28.7-10.6
							c-6.7-3.2-1.6,9.2,2.2,14.2c3.8,5.1,28.1,1.9,28.1,1.9s-5.2,7.5-2,18.6s15,20.6,20.7,18.4s2.3-19.7-1.4-25.4
							s-7.1-13.1-7.1-13.1l21.4,1.7c0,0,6.3,1.9,13.8-2.9c7.4-4.9,10.1-8.6,6.1-14.6c-3.9-6-17.2-5.4-24.1,0.3
							C529.3,412.3,519.8,414,519.8,414z"/>
						<path class="st4" d="M516.1,397.6c0,0,4.3-6.8-4.3-23.5c-8.6-16.7-23.7-40.2-23.7-40.2l4.3-2.8c0,0,20.7,34.5,22.9,40.8
							C518,379.7,524.5,387.8,516.1,397.6z"/>
						<circle class="st4" cx="525.8" cy="361.4" r="2"/>
						<circle class="st4" cx="535.4" cy="355.1" r="2"/>
						<circle class="st4" cx="532.4" cy="364.4" r="2"/>
						<circle class="st4" cx="524.3" cy="353.5" r="2"/>
						<circle class="st4" cx="518.5" cy="359.6" r="2"/>
						<circle class="st4" cx="514.8" cy="351.8" r="2"/>
						<circle class="st4" cx="529.9" cy="339.6" r="2"/>
						<circle class="st4" cx="520.7" cy="374.4" r="2"/>
					</g>
					<g>
						<path class="st4" d="M313.5,270.6c0,0-23.3-1.3-30.1,4.2c-6.8,5.5-18.6,26.3-10.6,26.3c8.1,0,27.1-16.5,34.3-21.2
							c7.2-4.7,14.8-10.6,11.9-5.1c-3,5.5-10.6,8.1-9.7,16.5c0.8,8.5,11,19.5,14,16.5s8.1-17,8.1-18.5s-5.1-15.4-5.1-15.4
							s14.4,18.2,18.2,24.6s6.4-6.8,5.9-13.1c-0.4-6.4-22.5-17-22.5-17s8.5-3.4,11.9-14.4s-1.3-25.4-7.2-26.7
							c-5.9-1.3-12.7,15.3-12.7,22s-1.3,14.8-1.3,14.8l-17-13.1c0,0-4.2-5.1-13.1-5.1s-13.1,1.7-13.1,8.9c0,7.2,11.4,14,20.3,12.9
							S313.5,270.6,313.5,270.6z"/>
						<path class="st4" d="M307.6,286.4c0,0-7.3,3.3-9.2,22c-1.9,18.7-2.2,46.7-2.2,46.7H291c0,0,1.6-40.2,3.2-46.7
							C296.2,300.3,295.2,289.9,307.6,286.4z"/>
						<circle class="st4" cx="279.6" cy="311.4" r="2"/>
						<circle class="st4" cx="268.1" cy="311.4" r="2"/>
						<circle class="st4" cx="275.7" cy="305.2" r="2"/>
						<circle class="st4" cx="276.6" cy="318.8" r="2"/>
						<circle class="st4" cx="284.8" cy="316.8" r="2"/>
						<circle class="st4" cx="283.6" cy="325.4" r="2"/>
						<circle class="st4" cx="264.2" cy="327.3" r="2"/>
						<circle class="st4" cx="291" cy="303.2" r="2"/>
					</g>
					<g>
						<path class="st4" d="M385.2,321.2c0,0,20.2-11.7,22.8-20c2.7-8.3,1.2-32.2-5.5-27.8c-6.7,4.4-13.6,28.7-17.1,36.5
							s-6.6,17-7.1,10.8s4.4-12.5-0.9-19.2c-5.4-6.6-19.9-10.3-20.8-6.2s2.6,18.6,3.4,19.9s12.7,10.1,12.7,10.1s-22-7.3-28.7-10.6
							c-6.7-3.2-1.6,9.2,2.2,14.2c3.8,5.1,28.1,1.9,28.1,1.9s-5.2,7.5-2,18.6s15,20.6,20.7,18.4s2.3-19.7-1.4-25.4
							c-3.7-5.7-7.1-13.1-7.1-13.1l21.4,1.7c0,0,6.3,1.9,13.8-2.9c7.4-4.9,10.1-8.6,6.1-14.6s-17.2-5.4-24.1,0.3
							C394.8,319.5,385.2,321.2,385.2,321.2z"/>
						<path class="st4" d="M381.5,304.8c0,0,4.3-6.8-4.3-23.5c-8.6-16.7-23.7-40.2-23.7-40.2l4.3-2.8c0,0,20.7,34.5,22.9,40.8
							C383.5,286.9,390,295,381.5,304.8z"/>
						<circle class="st4" cx="391.2" cy="268.6" r="2"/>
						<circle class="st4" cx="400.8" cy="262.3" r="2"/>
						<circle class="st4" cx="397.9" cy="271.6" r="2"/>
						<circle class="st4" cx="389.7" cy="260.7" r="2"/>
						<circle class="st4" cx="383.9" cy="266.8" r="2"/>
						<circle class="st4" cx="380.3" cy="259" r="2"/>
						<circle class="st4" cx="395.4" cy="246.8" r="2"/>
						<circle class="st4" cx="386.2" cy="281.7" r="2"/>
					</g>
					<g>
						<path class="st4" d="M178.9,177.8c0,0-23.3-1.3-30.1,4.2s-18.6,26.3-10.6,26.3s27.1-16.5,34.3-21.2s14.8-10.6,11.9-5.1
							c-3,5.5-10.6,8.1-9.7,16.5c0.8,8.5,11,19.5,14,16.5s8.1-17,8.1-18.5s-5.1-15.4-5.1-15.4s14.4,18.2,18.2,24.6
							c3.8,6.4,6.4-6.8,5.9-13.1c-0.4-6.4-22.5-17-22.5-17s8.5-3.4,11.9-14.4s-1.3-25.4-7.2-26.7s-12.7,15.3-12.7,22
							s-1.3,14.8-1.3,14.8l-17-13.1c0,0-4.2-5.1-13.1-5.1s-13.1,1.7-13.1,8.9s11.4,14,20.3,12.9C170,174,178.9,177.8,178.9,177.8z"
							/>
						<path class="st4" d="M173,193.6c0,0-7.3,3.3-9.2,22s-2.2,46.7-2.2,46.7h-5.1c0,0,1.6-40.2,3.2-46.7
							C161.6,207.5,160.6,197.1,173,193.6z"/>
						<circle class="st4" cx="145.1" cy="218.6" r="2"/>
						<circle class="st4" cx="133.6" cy="218.6" r="2"/>
						<circle class="st4" cx="141.2" cy="212.4" r="2"/>
						<circle class="st4" cx="142" cy="226" r="2"/>
						<circle class="st4" cx="150.2" cy="224" r="2"/>
						<circle class="st4" cx="149" cy="232.6" r="2"/>
						<circle class="st4" cx="129.7" cy="234.5" r="2"/>
						<circle class="st4" cx="156.5" cy="210.4" r="2"/>
					</g>
					<g>
						<path class="st4" d="M250.7,228.4c0,0,20.2-11.7,22.8-20s1.2-32.2-5.5-27.8s-13.6,28.7-17.1,36.5s-6.6,17-7.1,10.8
							s4.4-12.5-0.9-19.2c-5.4-6.6-19.9-10.3-20.8-6.2c-0.9,4.1,2.6,18.6,3.4,19.9c0.8,1.2,12.7,10.1,12.7,10.1s-22-7.3-28.7-10.6
							c-6.7-3.2-1.6,9.2,2.2,14.2c3.8,5.1,28.1,1.9,28.1,1.9s-5.2,7.5-2,18.6c3.2,11.1,15,20.6,20.7,18.4s2.3-19.7-1.4-25.4
							c-3.7-5.7-7.1-13.1-7.1-13.1l21.4,1.7c0,0,6.3,1.9,13.8-2.9c7.4-4.9,10.1-8.6,6.1-14.6c-3.9-6-17.2-5.4-24.1,0.3
							C260.2,226.7,250.7,228.4,250.7,228.4z"/>
						<path class="st4" d="M247,212c0,0,4.3-6.8-4.3-23.5S219,148.3,219,148.3l4.3-2.8c0,0,20.7,34.5,22.9,40.8
							C248.9,194.1,255.4,202.2,247,212z"/>
						<circle class="st4" cx="256.6" cy="175.8" r="2"/>
						<circle class="st4" cx="266.3" cy="169.5" r="2"/>
						<circle class="st4" cx="263.3" cy="178.8" r="2"/>
						
							<ellipse transform="matrix(0.1602 -0.9871 0.9871 0.1602 48.5896 392.9102)" class="st4" cx="255.2" cy="167.9" rx="2" ry="2"/>
						<circle class="st4" cx="249.4" cy="174" r="2"/>
						<circle class="st4" cx="245.7" cy="166.2" r="2"/>
						<circle class="st4" cx="260.8" cy="154" r="2"/>
						<circle class="st4" cx="251.6" cy="188.9" r="2"/>
					</g>
					<g>
						<path class="st4" d="M430.9,487.8c0,0-23.3-1.3-30.1,4.2c-6.8,5.5-18.6,26.3-10.6,26.3c8.1,0,27.1-16.5,34.3-21.2
							s14.8-10.6,11.9-5.1c-3,5.5-10.6,8.1-9.7,16.5c0.8,8.5,11,19.5,14,16.5s8.1-17,8.1-18.5s-5.1-15.4-5.1-15.4
							s14.4,18.2,18.2,24.6c3.8,6.4,6.4-6.8,5.9-13.1c-0.4-6.4-22.5-17-22.5-17s8.5-3.4,11.9-14.4s-1.3-25.4-7.2-26.7
							c-5.9-1.3-12.7,15.3-12.7,22s-1.3,14.8-1.3,14.8l-17-13.1c0,0-4.2-5.1-13.1-5.1s-13.1,1.7-13.1,8.9s11.4,14,20.3,12.9
							S430.9,487.8,430.9,487.8z"/>
						<path class="st4" d="M425,503.6c0,0-7.3,3.3-9.2,22c-1.9,18.7-2.2,46.7-2.2,46.7h-5.1c0,0,1.6-40.2,3.2-46.7
							C413.6,517.4,412.6,507.1,425,503.6z"/>
						<circle class="st4" cx="397.1" cy="528.5" r="2"/>
						<circle class="st4" cx="385.6" cy="528.5" r="2"/>
						<circle class="st4" cx="393.1" cy="522.3" r="2"/>
						<circle class="st4" cx="394" cy="535.9" r="2"/>
						<circle class="st4" cx="402.2" cy="534" r="2"/>
						<circle class="st4" cx="401" cy="542.5" r="2"/>
						<circle class="st4" cx="381.6" cy="544.5" r="2"/>
						<circle class="st4" cx="408.4" cy="520.4" r="2"/>
					</g>
					<g>
						<path class="st4" d="M502.6,538.4c0,0,20.2-11.7,22.8-20c2.7-8.3,1.2-32.2-5.5-27.8c-6.7,4.4-13.6,28.7-17.1,36.5
							s-6.6,17-7.1,10.8s4.4-12.5-0.9-19.2c-5.4-6.6-19.9-10.3-20.8-6.2s2.6,18.6,3.4,19.9s12.7,10.1,12.7,10.1s-22-7.3-28.7-10.6
							c-6.7-3.2-1.6,9.2,2.2,14.2c3.8,5.1,28.1,1.9,28.1,1.9s-5.2,7.5-2,18.6s15,20.6,20.7,18.4c5.7-2.2,2.3-19.7-1.4-25.4
							s-7.1-13.1-7.1-13.1l21.4,1.7c0,0,6.3,1.9,13.8-2.9s10.1-8.6,6.1-14.6c-3.9-6-17.2-5.4-24.1,0.3
							C512.2,536.7,502.6,538.4,502.6,538.4z"/>
						<path class="st4" d="M498.9,521.9c0,0,4.3-6.8-4.3-23.5c-8.6-16.7-23.7-40.2-23.7-40.2l4.3-2.8c0,0,20.7,34.5,22.9,40.8
							C500.9,504.1,507.4,512.2,498.9,521.9z"/>
						<circle class="st4" cx="508.6" cy="485.7" r="2"/>
						<circle class="st4" cx="518.2" cy="479.4" r="2"/>
						<circle class="st4" cx="515.3" cy="488.8" r="2"/>
						<circle class="st4" cx="507.1" cy="477.8" r="2"/>
						<circle class="st4" cx="501.3" cy="484" r="2"/>
						<circle class="st4" cx="497.7" cy="476.2" r="2"/>
						<circle class="st4" cx="512.8" cy="463.9" r="2"/>
						<circle class="st4" cx="503.6" cy="498.8" r="2"/>
					</g>
					<g>
						<path class="st4" d="M296.4,395c0,0-23.3-1.3-30.1,4.2c-6.8,5.5-18.6,26.3-10.6,26.3s27.1-16.5,34.3-21.2
							c7.2-4.7,14.8-10.6,11.9-5.1c-3,5.5-10.6,8.1-9.7,16.5c0.8,8.5,11,19.5,14,16.5s8.1-17,8.1-18.5s-5.1-15.4-5.1-15.4
							s14.4,18.2,18.2,24.6c3.8,6.4,6.4-6.8,5.9-13.1s-22.5-17-22.5-17s8.5-3.4,11.9-14.4s-1.3-25.4-7.2-26.7
							c-5.9-1.3-12.7,15.3-12.7,22s-1.3,14.8-1.3,14.8l-17-13.1c0,0-4.2-5.1-13.1-5.1s-13.1,1.7-13.1,8.9s11.4,14,20.3,12.9
							S296.4,395,296.4,395z"/>
						<path class="st4" d="M290.4,410.8c0,0-7.3,3.3-9.2,22s-2.2,46.7-2.2,46.7h-5.1c0,0,1.6-40.2,3.2-46.7
							C279,424.6,278,414.3,290.4,410.8z"/>
						<circle class="st4" cx="262.5" cy="435.7" r="2"/>
						<circle class="st4" cx="251" cy="435.7" r="2"/>
						<circle class="st4" cx="258.6" cy="429.5" r="2"/>
						<circle class="st4" cx="259.4" cy="443.1" r="2"/>
						<circle class="st4" cx="267.6" cy="441.2" r="2"/>
						<circle class="st4" cx="266.4" cy="449.7" r="2"/>
						<circle class="st4" cx="247.1" cy="451.7" r="2"/>
						<circle class="st4" cx="273.9" cy="427.6" r="2"/>
					</g>
					<g>
						<path class="st4" d="M368.1,445.6c0,0,20.2-11.7,22.8-20c2.7-8.3,1.2-32.2-5.5-27.8c-6.7,4.4-13.6,28.7-17.1,36.5
							s-6.6,17-7.1,10.8s4.4-12.5-0.9-19.2c-5.4-6.6-19.9-10.3-20.8-6.2c-0.9,4.1,2.6,18.6,3.4,19.9s12.7,10.1,12.7,10.1
							s-22-7.3-28.7-10.6c-6.7-3.2-1.6,9.2,2.2,14.2c3.8,5.1,28.1,1.9,28.1,1.9s-5.2,7.5-2,18.6s15,20.6,20.7,18.4
							s2.3-19.7-1.4-25.4c-3.7-5.7-7.1-13.1-7.1-13.1l21.4,1.7c0,0,6.3,1.9,13.8-2.9c7.4-4.9,10.1-8.6,6.1-14.6
							c-3.9-6-17.2-5.4-24.1,0.3C377.6,443.9,368.1,445.6,368.1,445.6z"/>
						<path class="st4" d="M364.4,429.1c0,0,4.3-6.8-4.3-23.5c-8.6-16.7-23.7-40.2-23.7-40.2l4.3-2.8c0,0,20.7,34.5,22.9,40.8
							C366.3,411.3,372.8,419.4,364.4,429.1z"/>
						<circle class="st4" cx="374.1" cy="392.9" r="2"/>
						<circle class="st4" cx="383.7" cy="386.6" r="2"/>
						<circle class="st4" cx="380.7" cy="396" r="2"/>
						<circle class="st4" cx="372.6" cy="385" r="2"/>
						<circle class="st4" cx="366.8" cy="391.2" r="2"/>
						<circle class="st4" cx="363.1" cy="383.4" r="2"/>
						<circle class="st4" cx="378.2" cy="371.1" r="2"/>
						<circle class="st4" cx="369" cy="406" r="2"/>
					</g>
					<g>
						<path class="st4" d="M161.8,302.2c0,0-23.3-1.3-30.1,4.2s-18.6,26.3-10.6,26.3s27.1-16.5,34.3-21.2s14.8-10.6,11.9-5.1
							c-3,5.5-10.6,8.1-9.7,16.5s11,19.5,14,16.5s8.1-17,8.1-18.5s-5.1-15.4-5.1-15.4s14.4,18.2,18.2,24.6s6.4-6.8,5.9-13.1
							c-0.4-6.4-22.5-17-22.5-17s8.5-3.4,11.9-14.4s-1.3-25.4-7.2-26.7c-5.9-1.3-12.7,15.3-12.7,22s-1.3,14.8-1.3,14.8l-17-13.1
							c0,0-4.2-5.1-13.1-5.1s-13.1,1.7-13.1,8.9s11.4,14,20.3,12.9S161.8,302.2,161.8,302.2z"/>
						<path class="st4" d="M155.9,318c0,0-7.3,3.3-9.2,22s-2.2,46.7-2.2,46.7h-5.1c0,0,1.6-40.2,3.2-46.7
							C144.5,331.8,143.5,321.5,155.9,318z"/>
						<circle class="st4" cx="127.9" cy="342.9" r="2"/>
						<circle class="st4" cx="116.4" cy="342.9" r="2"/>
						<circle class="st4" cx="124" cy="336.7" r="2"/>
						<circle class="st4" cx="124.9" cy="350.3" r="2"/>
						<circle class="st4" cx="133.1" cy="348.4" r="2"/>
						<circle class="st4" cx="131.9" cy="356.9" r="2"/>
						<circle class="st4" cx="112.5" cy="358.9" r="2"/>
						<circle class="st4" cx="139.3" cy="334.8" r="2"/>
					</g>
					<g>
						<path class="st4" d="M233.5,352.8c0,0,20.2-11.7,22.8-20c2.7-8.3,1.2-32.2-5.5-27.8c-6.7,4.4-13.6,28.7-17.1,36.5
							s-6.6,17-7.1,10.8s4.4-12.5-0.9-19.2s-19.9-10.3-20.8-6.2c-0.9,4.1,2.6,18.6,3.4,19.9c0.8,1.2,12.7,10.1,12.7,10.1
							s-22-7.3-28.7-10.6s-1.6,9.2,2.2,14.2c3.8,5.1,28.1,1.9,28.1,1.9s-5.2,7.5-2,18.6s15,20.6,20.7,18.4s2.3-19.7-1.4-25.4
							c-3.7-5.7-7.1-13.1-7.1-13.1l21.4,1.7c0,0,6.3,1.9,13.8-2.9c7.4-4.9,10.1-8.6,6.1-14.6c-3.9-6-17.2-5.4-24.1,0.3
							C243.1,351.1,233.5,352.8,233.5,352.8z"/>
						<path class="st4" d="M229.8,336.3c0,0,4.3-6.8-4.3-23.5s-23.7-40.2-23.7-40.2l4.3-2.8c0,0,20.7,34.5,22.9,40.8
							C231.8,318.5,238.3,326.6,229.8,336.3z"/>
						<circle class="st4" cx="239.5" cy="300.1" r="2"/>
						<circle class="st4" cx="249.1" cy="293.8" r="2"/>
						<circle class="st4" cx="246.2" cy="303.2" r="2"/>
						<circle class="st4" cx="238" cy="292.3" r="2"/>
						<circle class="st4" cx="232.2" cy="298.4" r="2"/>
						<circle class="st4" cx="228.6" cy="290.6" r="2"/>
						<circle class="st4" cx="243.7" cy="278.3" r="2"/>
						<circle class="st4" cx="234.5" cy="313.2" r="2"/>
					</g>
					<g>
						<path class="st4" d="M413.8,612.1c0,0-23.3-1.3-30.1,4.2s-18.6,26.3-10.6,26.3c8.1,0,27.1-16.5,34.3-21.2
							c7.2-4.7,14.8-10.6,11.9-5.1c-3,5.5-10.6,8.1-9.7,16.5c0.8,8.5,11,19.5,14,16.5s8.1-17,8.1-18.5s-5.1-15.4-5.1-15.4
							s14.4,18.2,18.2,24.6c3.8,6.4,6.4-6.8,5.9-13.1c-0.4-6.4-22.5-17-22.5-17s8.5-3.4,11.9-14.4s-1.3-25.4-7.2-26.7
							c-5.9-1.3-12.7,15.3-12.7,22c0,6.8-1.3,14.8-1.3,14.8l-17-13.1c0,0-4.2-5.1-13.1-5.1s-13.1,1.7-13.1,8.9s11.4,14,20.3,12.9
							C404.9,608.3,413.8,612.1,413.8,612.1z"/>
						<path class="st4" d="M407.8,627.9c0,0-7.3,3.3-9.2,22c-1.9,18.7-2.2,46.7-2.2,46.7h-5.1c0,0,1.6-40.2,3.2-46.7
							C396.4,641.8,395.4,631.4,407.8,627.9z"/>
						<circle class="st4" cx="379.9" cy="652.9" r="2"/>
						<circle class="st4" cx="368.4" cy="652.9" r="2"/>
						<circle class="st4" cx="376" cy="646.7" r="2"/>
						<circle class="st4" cx="376.8" cy="660.3" r="2"/>
						<circle class="st4" cx="385.1" cy="658.3" r="2"/>
						<circle class="st4" cx="383.8" cy="666.9" r="2"/>
						<circle class="st4" cx="364.5" cy="668.8" r="2"/>
						<circle class="st4" cx="391.3" cy="644.7" r="2"/>
					</g>
					<g>
						<path class="st4" d="M485.5,662.7c0,0,20.2-11.7,22.8-20c2.7-8.3,1.2-32.2-5.5-27.8s-13.6,28.7-17.1,36.5s-6.6,17-7.1,10.8
							s4.4-12.5-0.9-19.2c-5.4-6.6-19.9-10.3-20.8-6.2s2.6,18.6,3.4,19.9s12.7,10.1,12.7,10.1s-22-7.3-28.7-10.6
							c-6.7-3.2-1.6,9.2,2.2,14.2s28.1,1.9,28.1,1.9s-5.2,7.5-2,18.6s15,20.6,20.7,18.4c5.7-2.2,2.3-19.7-1.4-25.4
							c-3.7-5.7-7.1-13.1-7.1-13.1l21.4,1.7c0,0,6.3,1.9,13.8-2.9c7.4-4.9,10.1-8.6,6.1-14.6s-17.2-5.4-24.1,0.3
							C495,661,485.5,662.7,485.5,662.7z"/>
						<path class="st4" d="M481.8,646.3c0,0,4.3-6.8-4.3-23.5s-23.7-40.2-23.7-40.2l4.3-2.8c0,0,20.7,34.5,22.9,40.8
							C483.7,628.4,490.3,636.5,481.8,646.3z"/>
						<circle class="st4" cx="491.5" cy="610.1" r="2"/>
						<circle class="st4" cx="501.1" cy="603.8" r="2"/>
						<circle class="st4" cx="498.2" cy="613.1" r="2"/>
						<circle class="st4" cx="490" cy="602.2" r="2"/>
						<circle class="st4" cx="484.2" cy="608.3" r="2"/>
						<circle class="st4" cx="480.5" cy="600.5" r="2"/>
						<circle class="st4" cx="495.6" cy="588.3" r="2"/>
						<circle class="st4" cx="486.4" cy="623.1" r="2"/>
					</g>
					<g>
						<path class="st4" d="M279.2,519.3c0,0-23.3-1.3-30.1,4.2s-18.6,26.3-10.6,26.3c8.1,0,27.1-16.5,34.3-21.2s14.8-10.6,11.9-5.1
							s-10.6,8.1-9.7,16.5c0.8,8.5,11,19.5,14,16.5s8.1-17,8.1-18.5s-5.1-15.4-5.1-15.4s14.4,18.2,18.2,24.6
							c3.8,6.4,6.4-6.8,5.9-13.1c-0.4-6.4-22.5-17-22.5-17s8.5-3.4,11.9-14.4s-1.3-25.4-7.2-26.7c-5.9-1.3-12.7,15.3-12.7,22
							c0,6.8-1.3,14.8-1.3,14.8l-17-13.1c0,0-4.2-5.1-13.1-5.1s-13.1,1.7-13.1,8.9s11.4,14,20.3,12.9S279.2,519.3,279.2,519.3z"/>
						<path class="st4" d="M273.3,535.1c0,0-7.3,3.3-9.2,22s-2.2,46.7-2.2,46.7h-5.1c0,0,1.6-40.2,3.2-46.7
							C261.9,549,260.9,538.6,273.3,535.1z"/>
						<circle class="st4" cx="245.4" cy="560.1" r="2"/>
						<circle class="st4" cx="233.9" cy="560.1" r="2"/>
						<circle class="st4" cx="241.4" cy="553.9" r="2"/>
						<circle class="st4" cx="242.3" cy="567.5" r="2"/>
						<circle class="st4" cx="250.5" cy="565.5" r="2"/>
						<circle class="st4" cx="249.3" cy="574.1" r="2"/>
						<circle class="st4" cx="229.9" cy="576" r="2"/>
						<circle class="st4" cx="256.7" cy="551.9" r="2"/>
					</g>
					<g>
						<path class="st4" d="M350.9,569.9c0,0,20.2-11.7,22.8-20s1.2-32.2-5.5-27.8s-13.6,28.7-17.1,36.5s-6.6,17-7.1,10.8
							s4.4-12.5-0.9-19.2c-5.4-6.6-19.9-10.3-20.8-6.2s2.6,18.6,3.4,19.9s12.7,10.1,12.7,10.1s-22-7.3-28.7-10.6
							c-6.7-3.2-1.6,9.2,2.2,14.2c3.8,5.1,28.1,1.9,28.1,1.9s-5.2,7.5-2,18.6s15,20.6,20.7,18.4s2.3-19.7-1.4-25.4
							c-3.7-5.7-7.1-13.1-7.1-13.1l21.4,1.7c0,0,6.3,1.9,13.8-2.9c7.4-4.9,10.1-8.6,6.1-14.6s-17.2-5.4-24.1,0.3
							C360.5,568.2,350.9,569.9,350.9,569.9z"/>
						<path class="st4" d="M347.2,553.5c0,0,4.3-6.8-4.3-23.5s-23.7-40.2-23.7-40.2l4.3-2.8c0,0,20.7,34.5,22.9,40.8
							C349.2,535.6,355.7,543.7,347.2,553.5z"/>
						<circle class="st4" cx="356.9" cy="517.3" r="2"/>
						<circle class="st4" cx="366.5" cy="511" r="2"/>
						<circle class="st4" cx="363.6" cy="520.3" r="2"/>
						<circle class="st4" cx="355.4" cy="509.4" r="2"/>
						<circle class="st4" cx="349.6" cy="515.5" r="2"/>
						<circle class="st4" cx="346" cy="507.7" r="2"/>
						<circle class="st4" cx="361.1" cy="495.5" r="2"/>
						<circle class="st4" cx="351.9" cy="530.4" r="2"/>
					</g>
					<g>
						<path class="st4" d="M144.7,426.5c0,0-23.3-1.3-30.1,4.2C107.8,436.2,96,457,104,457s27.1-16.5,34.3-21.2s14.8-10.6,11.9-5.1
							c-3,5.5-10.6,8.1-9.7,16.5c0.8,8.5,11,19.5,14,16.5s8.1-17,8.1-18.5s-5.1-15.4-5.1-15.4s14.4,18.2,18.2,24.6s6.4-6.8,5.9-13.1
							c-0.4-6.4-22.5-17-22.5-17s8.5-3.4,11.9-14.4s-1.3-25.4-7.2-26.7c-5.9-1.3-12.7,15.3-12.7,22s-1.3,14.8-1.3,14.8l-17-13.1
							c0,0-4.2-5.1-13.1-5.1s-13.1,1.7-13.1,8.9c0,7.2,11.4,14,20.3,12.9S144.7,426.5,144.7,426.5z"/>
						<path class="st4" d="M138.7,442.3c0,0-7.3,3.3-9.2,22c-1.9,18.7-2.2,46.7-2.2,46.7h-5.1c0,0,1.6-40.2,3.2-46.7
							C127.3,456.2,126.3,445.8,138.7,442.3z"/>
						<circle class="st4" cx="110.8" cy="467.3" r="2"/>
						<circle class="st4" cx="99.3" cy="467.3" r="2"/>
						<circle class="st4" cx="106.9" cy="461.1" r="2"/>
						<circle class="st4" cx="107.7" cy="474.7" r="2"/>
						<circle class="st4" cx="115.9" cy="472.7" r="2"/>
						<circle class="st4" cx="114.7" cy="481.3" r="2"/>
						<circle class="st4" cx="95.4" cy="483.2" r="2"/>
						<circle class="st4" cx="122.2" cy="459.1" r="2"/>
					</g>
					<g>
						<path class="st4" d="M216.4,477.1c0,0,20.2-11.7,22.8-20c2.7-8.3,1.2-32.2-5.5-27.8c-6.7,4.4-13.6,28.7-17.1,36.5
							s-6.6,17-7.1,10.8s4.4-12.5-0.9-19.2s-19.9-10.3-20.8-6.2c-0.9,4.1,2.6,18.6,3.4,19.9c0.8,1.2,12.7,10.1,12.7,10.1
							s-22-7.3-28.7-10.6s-1.6,9.2,2.2,14.2c3.8,5.1,28.1,1.9,28.1,1.9s-5.2,7.5-2,18.6c3.2,11.1,15,20.6,20.7,18.4
							c5.7-2.2,2.3-19.7-1.4-25.4s-7.1-13.1-7.1-13.1l21.4,1.7c0,0,6.3,1.9,13.8-2.9c7.4-4.9,10.1-8.6,6.1-14.6s-17.2-5.4-24.1,0.3
							C225.9,475.4,216.4,477.1,216.4,477.1z"/>
						<path class="st4" d="M212.7,460.7c0,0,4.3-6.8-4.3-23.5S184.7,397,184.7,397l4.3-2.8c0,0,20.7,34.5,22.9,40.8
							C214.6,442.8,221.1,450.9,212.7,460.7z"/>
						<circle class="st4" cx="222.4" cy="424.5" r="2"/>
						<circle class="st4" cx="232" cy="418.2" r="2"/>
						<circle class="st4" cx="229" cy="427.5" r="2"/>
						<circle class="st4" cx="220.9" cy="416.6" r="2"/>
						<circle class="st4" cx="215.1" cy="422.7" r="2"/>
						<circle class="st4" cx="211.4" cy="414.9" r="2"/>
						<circle class="st4" cx="226.5" cy="402.7" r="2"/>
						<circle class="st4" cx="217.3" cy="437.6" r="2"/>
					</g>
				</g>
			</g>
		</g>
		<g>
			<g>
				<defs>
					<path id="SVGID_00000172400824022062303240000010590400905834837946_" d="M304.7,439.5c3.7-7.3,4.9-18.1,4.9-18.1
						c-23.2-9.3-44.1-11.9-35.3-49c3.5-14.7,8.8-28.2,8.8-28.2l0,0c-0.3,0.1-0.6,0.3-0.9,0.4c-0.2,0.1,0.7-1.5,0.5-1.4
						c-0.3,0.1-1.2,0.5-1.6,0.7l-1.8,0.8l0,0c-7.3,18.4-23.9,57-23.9,62.9l0,0c0,0.4-1.7,5.3-2,11.1c-0.3,5.3-0.5,13.2,1.3,18
						c2.7,7.1,6,12.9,12.2,14.7C281.9,456,298.4,452.2,304.7,439.5z"/>
				</defs>
				<clipPath id="SVGID_00000085241649440478836390000012690172641834376353_">
					<use xlink:href="#SVGID_00000172400824022062303240000010590400905834837946_"  style="overflow:visible;"/>
				</clipPath>
				<g style="clip-path:url(#SVGID_00000085241649440478836390000012690172641834376353_);">
					<g>
						<path class="st4" d="M465.2,239.1c0,0-23.3-1.3-30.1,4.2c-6.8,5.5-18.6,26.3-10.6,26.3c8.1,0,27.1-16.5,34.3-21.2
							s14.8-10.6,11.9-5.1c-3,5.5-10.6,8.1-9.7,16.5c0.8,8.5,11,19.5,14,16.5s8.1-17,8.1-18.5s-5.1-15.4-5.1-15.4
							s14.4,18.2,18.2,24.6c3.8,6.4,6.4-6.8,5.9-13.1c-0.4-6.4-22.5-17-22.5-17s8.5-3.4,11.9-14.4s-1.3-25.4-7.2-26.7
							s-12.7,15.3-12.7,22s-1.3,14.8-1.3,14.8l-17-13.1c0,0-4.2-5.1-13.1-5.1s-13.1,1.7-13.1,8.9s11.4,14,20.3,12.9
							S465.2,239.1,465.2,239.1z"/>
						<path class="st4" d="M459.3,254.9c0,0-7.3,3.3-9.2,22s-2.2,46.7-2.2,46.7h-5.1c0,0,1.6-40.2,3.2-46.7
							C447.9,268.7,446.9,258.4,459.3,254.9z"/>
						<circle class="st4" cx="431.3" cy="279.8" r="2"/>
						<circle class="st4" cx="419.8" cy="279.8" r="2"/>
						<circle class="st4" cx="427.4" cy="273.6" r="2"/>
						<circle class="st4" cx="428.3" cy="287.2" r="2"/>
						<circle class="st4" cx="436.5" cy="285.3" r="2"/>
						<circle class="st4" cx="435.3" cy="293.8" r="2"/>
						<circle class="st4" cx="415.9" cy="295.8" r="2"/>
						<circle class="st4" cx="442.7" cy="271.7" r="2"/>
					</g>
					<g>
						<path class="st4" d="M536.9,289.7c0,0,20.2-11.7,22.8-20c2.7-8.3,1.2-32.2-5.5-27.8c-6.7,4.4-13.6,28.7-17.1,36.5
							s-6.6,17-7.1,10.8s4.4-12.5-0.9-19.2c-5.4-6.6-19.9-10.3-20.8-6.2c-0.9,4.1,2.6,18.6,3.4,19.9c0.8,1.2,12.7,10.1,12.7,10.1
							s-22-7.3-28.7-10.6c-6.7-3.2-1.6,9.2,2.2,14.2c3.8,5.1,28.1,1.9,28.1,1.9s-5.2,7.5-2,18.6s15,20.6,20.7,18.4
							s2.3-19.7-1.4-25.4c-3.7-5.7-7.1-13.1-7.1-13.1l21.4,1.7c0,0,6.3,1.9,13.8-2.9c7.4-4.9,10.1-8.6,6.1-14.6
							c-3.9-6-17.2-5.4-24.1,0.3C546.5,288,536.9,289.7,536.9,289.7z"/>
						<path class="st4" d="M533.2,273.2c0,0,4.3-6.8-4.3-23.5s-23.7-40.2-23.7-40.2l4.3-2.8c0,0,20.7,34.5,22.9,40.8
							C535.2,255.4,541.7,263.5,533.2,273.2z"/>
						<circle class="st4" cx="542.9" cy="237" r="2"/>
						<circle class="st4" cx="552.5" cy="230.7" r="2"/>
						<circle class="st4" cx="549.6" cy="240.1" r="2"/>
						<circle class="st4" cx="541.4" cy="229.1" r="2"/>
						<circle class="st4" cx="535.6" cy="235.3" r="2"/>
						<circle class="st4" cx="532" cy="227.5" r="2"/>
						<circle class="st4" cx="547.1" cy="215.2" r="2"/>
						<circle class="st4" cx="537.8" cy="250.1" r="2"/>
					</g>
					<g>
						<path class="st4" d="M330.6,146.3c0,0-23.3-1.3-30.1,4.2s-18.6,26.3-10.6,26.3s27.1-16.5,34.3-21.2
							c7.2-4.7,14.8-10.6,11.9-5.1c-3,5.5-10.6,8.1-9.7,16.5c0.8,8.5,11,19.5,14,16.5s8.1-17,8.1-18.5s-5.1-15.4-5.1-15.4
							s14.4,18.2,18.2,24.6c3.8,6.4,6.4-6.8,5.9-13.1c-0.4-6.4-22.5-17-22.5-17s8.5-3.4,11.9-14.4s-1.3-25.4-7.2-26.7
							c-5.9-1.3-12.7,15.3-12.7,22s-1.3,14.8-1.3,14.8l-17-13.1c0,0-4.2-5.1-13.1-5.1s-13.1,1.7-13.1,8.9s11.4,14,20.3,12.9
							S330.6,146.3,330.6,146.3z"/>
						<path class="st4" d="M324.7,162.1c0,0-7.3,3.3-9.2,22s-2.2,46.7-2.2,46.7h-5.1c0,0,1.6-40.2,3.2-46.7
							C313.3,175.9,312.3,165.6,324.7,162.1z"/>
						<circle class="st4" cx="296.8" cy="187" r="2"/>
						<circle class="st4" cx="285.3" cy="187" r="2"/>
						<circle class="st4" cx="292.9" cy="180.8" r="2"/>
						<circle class="st4" cx="293.7" cy="194.4" r="2"/>
						<circle class="st4" cx="301.9" cy="192.5" r="2"/>
						<circle class="st4" cx="300.7" cy="201" r="2"/>
						<circle class="st4" cx="281.4" cy="203" r="2"/>
						<circle class="st4" cx="308.2" cy="178.9" r="2"/>
					</g>
					<g>
						<path class="st4" d="M402.4,196.9c0,0,20.2-11.7,22.8-20c2.7-8.3,1.2-32.2-5.5-27.8s-13.6,28.7-17.1,36.5s-6.6,17-7.1,10.8
							s4.4-12.5-0.9-19.2c-5.4-6.6-19.9-10.3-20.8-6.2s2.6,18.6,3.4,19.9c0.8,1.2,12.7,10.1,12.7,10.1s-22-7.3-28.7-10.6
							c-6.7-3.2-1.6,9.2,2.2,14.2c3.8,5.1,28.1,1.9,28.1,1.9s-5.2,7.5-2,18.6s15,20.6,20.7,18.4c5.7-2.2,2.3-19.7-1.4-25.4
							c-3.7-5.7-7.1-13.1-7.1-13.1l21.4,1.7c0,0,6.3,1.9,13.8-2.9c7.4-4.9,10.1-8.6,6.1-14.6c-3.9-6-17.2-5.4-24.1,0.3
							C411.9,195.2,402.4,196.9,402.4,196.9z"/>
						<path class="st4" d="M398.7,180.4c0,0,4.3-6.8-4.3-23.5s-23.7-40.2-23.7-40.2l4.3-2.8c0,0,20.7,34.5,22.9,40.8
							C400.6,162.6,407.1,170.7,398.7,180.4z"/>
						<circle class="st4" cx="408.3" cy="144.2" r="2"/>
						<circle class="st4" cx="418" cy="137.9" r="2"/>
						<circle class="st4" cx="415" cy="147.3" r="2"/>
						<circle class="st4" cx="406.9" cy="136.3" r="2"/>
						<circle class="st4" cx="401.1" cy="142.5" r="2"/>
						<circle class="st4" cx="397.4" cy="134.7" r="2"/>
						<circle class="st4" cx="412.5" cy="122.4" r="2"/>
						<circle class="st4" cx="403.3" cy="157.3" r="2"/>
					</g>
					<g>
						<path class="st4" d="M196.1,53.5c0,0-23.3-1.3-30.1,4.2S147.3,84,155.4,84s27.1-16.5,34.3-21.2s14.8-10.6,11.9-5.1
							c-3,5.5-10.6,8.1-9.7,16.5s11,19.5,14,16.5s8.1-17,8.1-18.5s-5.1-15.4-5.1-15.4s14.4,18.2,18.2,24.6s6.4-6.8,5.9-13.1
							c-0.4-6.4-22.5-17-22.5-17S219,48,222.4,37s-1.3-25.4-7.2-26.7c-5.9-1.3-12.7,15.3-12.7,22s-1.3,14.8-1.3,14.8l-17-13.1
							c0,0-4.2-5.1-13.1-5.1c-8.9,0-13.1,1.7-13.1,8.9s11.4,14,20.3,12.9S196.1,53.5,196.1,53.5z"/>
						<path class="st4" d="M190.1,69.3c0,0-7.3,3.3-9.2,22s-2.2,46.7-2.2,46.7h-5.1c0,0,1.6-40.2,3.2-46.7
							C178.7,83.1,177.8,72.8,190.1,69.3z"/>
						<circle class="st4" cx="162.2" cy="94.2" r="2"/>
						<circle class="st4" cx="150.7" cy="94.2" r="2"/>
						<circle class="st4" cx="158.3" cy="88" r="2"/>
						<circle class="st4" cx="159.2" cy="101.6" r="2"/>
						<circle class="st4" cx="167.4" cy="99.7" r="2"/>
						<circle class="st4" cx="166.1" cy="108.2" r="2"/>
						<circle class="st4" cx="146.8" cy="110.2" r="2"/>
						<circle class="st4" cx="173.6" cy="86.1" r="2"/>
					</g>
					<g>
						<path class="st4" d="M267.8,104.1c0,0,20.2-11.7,22.8-20c2.7-8.3,1.2-32.2-5.5-27.8c-6.7,4.4-13.6,28.7-17.1,36.5
							s-6.6,17-7.1,10.8s4.4-12.5-0.9-19.2c-5.4-6.6-19.9-10.3-20.8-6.2c-0.9,4.1,2.6,18.6,3.4,19.9c0.8,1.2,12.7,10.1,12.7,10.1
							s-22-7.3-28.7-10.6s-1.6,9.2,2.2,14.2c3.8,5,28.1,1.9,28.1,1.9s-5.2,7.5-2,18.6c3.2,11.1,15,20.6,20.7,18.4
							c5.7-2.2,2.3-19.7-1.4-25.4c-3.7-5.7-7.1-13.1-7.1-13.1l21.4,1.7c0,0,6.3,1.9,13.8-2.9c7.4-4.9,10.1-8.6,6.1-14.6
							c-3.9-6-17.2-5.4-24.1,0.3C277.3,102.4,267.8,104.1,267.8,104.1z"/>
						<path class="st4" d="M264.1,87.6c0,0,4.3-6.8-4.3-23.5s-23.7-40.2-23.7-40.2l4.3-2.8c0,0,20.7,34.5,22.9,40.8
							C266.1,69.8,272.6,77.9,264.1,87.6z"/>
						<circle class="st4" cx="273.8" cy="51.4" r="2"/>
						<circle class="st4" cx="283.4" cy="45.1" r="2"/>
						<circle class="st4" cx="280.5" cy="54.5" r="2"/>
						<circle class="st4" cx="272.3" cy="43.6" r="2"/>
						<circle class="st4" cx="266.5" cy="49.7" r="2"/>
						<circle class="st4" cx="262.8" cy="41.9" r="2"/>
						<circle class="st4" cx="277.9" cy="29.6" r="2"/>
						<circle class="st4" cx="268.7" cy="64.5" r="2"/>
					</g>
					<g>
						<path class="st4" d="M448.1,363.4c0,0-23.3-1.3-30.1,4.2c-6.8,5.5-18.6,26.3-10.6,26.3c8.1,0,27.1-16.5,34.3-21.2
							s14.8-10.6,11.9-5.1c-3,5.5-10.6,8.1-9.7,16.5s11,19.5,14,16.5s8.1-17,8.1-18.5s-5.1-15.4-5.1-15.4s14.4,18.2,18.2,24.6
							c3.8,6.4,6.4-6.8,5.9-13.1c-0.4-6.4-22.5-17-22.5-17s8.5-3.4,11.9-14.4s-1.3-25.4-7.2-26.7c-5.9-1.3-12.7,15.3-12.7,22
							c0,6.8-1.3,14.8-1.3,14.8l-17-13.1c0,0-4.2-5.1-13.1-5.1s-13.1,1.7-13.1,8.9s11.4,14,20.3,12.9S448.1,363.4,448.1,363.4z"/>
						<path class="st4" d="M442.1,379.2c0,0-7.3,3.3-9.2,22c-1.9,18.7-2.2,46.7-2.2,46.7h-5.1c0,0,1.6-40.2,3.2-46.7
							C430.7,393.1,429.7,382.7,442.1,379.2z"/>
						<circle class="st4" cx="414.2" cy="404.2" r="2"/>
						<circle class="st4" cx="402.7" cy="404.2" r="2"/>
						<circle class="st4" cx="410.3" cy="398" r="2"/>
						<circle class="st4" cx="411.1" cy="411.6" r="2"/>
						<circle class="st4" cx="419.3" cy="409.6" r="2"/>
						<circle class="st4" cx="418.1" cy="418.2" r="2"/>
						<circle class="st4" cx="398.8" cy="420.1" r="2"/>
						<circle class="st4" cx="425.6" cy="396" r="2"/>
					</g>
					<g>
						<path class="st4" d="M519.8,414c0,0,20.2-11.7,22.8-20s1.2-32.2-5.5-27.8s-13.6,28.7-17.1,36.5s-6.6,17-7.1,10.8
							s4.4-12.5-0.9-19.2s-19.9-10.3-20.8-6.2c-0.9,4.1,2.6,18.6,3.4,19.9c0.8,1.2,12.7,10.1,12.7,10.1s-22-7.3-28.7-10.6
							c-6.7-3.2-1.6,9.2,2.2,14.2c3.8,5.1,28.1,1.9,28.1,1.9s-5.2,7.5-2,18.6s15,20.6,20.7,18.4s2.3-19.7-1.4-25.4
							s-7.1-13.1-7.1-13.1l21.4,1.7c0,0,6.3,1.9,13.8-2.9c7.4-4.9,10.1-8.6,6.1-14.6c-3.9-6-17.2-5.4-24.1,0.3
							C529.3,412.3,519.8,414,519.8,414z"/>
						<path class="st4" d="M516.1,397.6c0,0,4.3-6.8-4.3-23.5c-8.6-16.7-23.7-40.2-23.7-40.2l4.3-2.8c0,0,20.7,34.5,22.9,40.8
							C518,379.7,524.5,387.8,516.1,397.6z"/>
						<circle class="st4" cx="525.8" cy="361.4" r="2"/>
						<circle class="st4" cx="535.4" cy="355.1" r="2"/>
						<circle class="st4" cx="532.4" cy="364.4" r="2"/>
						<circle class="st4" cx="524.3" cy="353.5" r="2"/>
						<circle class="st4" cx="518.5" cy="359.6" r="2"/>
						<circle class="st4" cx="514.8" cy="351.8" r="2"/>
						<circle class="st4" cx="529.9" cy="339.6" r="2"/>
						<circle class="st4" cx="520.7" cy="374.4" r="2"/>
					</g>
					<g>
						<path class="st4" d="M313.5,270.6c0,0-23.3-1.3-30.1,4.2c-6.8,5.5-18.6,26.3-10.6,26.3c8.1,0,27.1-16.5,34.3-21.2
							c7.2-4.7,14.8-10.6,11.9-5.1c-3,5.5-10.6,8.1-9.7,16.5c0.8,8.5,11,19.5,14,16.5s8.1-17,8.1-18.5s-5.1-15.4-5.1-15.4
							s14.4,18.2,18.2,24.6s6.4-6.8,5.9-13.1c-0.4-6.4-22.5-17-22.5-17s8.5-3.4,11.9-14.4s-1.3-25.4-7.2-26.7
							c-5.9-1.3-12.7,15.3-12.7,22s-1.3,14.8-1.3,14.8l-17-13.1c0,0-4.2-5.1-13.1-5.1s-13.1,1.7-13.1,8.9c0,7.2,11.4,14,20.3,12.9
							S313.5,270.6,313.5,270.6z"/>
						<path class="st4" d="M307.6,286.4c0,0-7.3,3.3-9.2,22c-1.9,18.7-2.2,46.7-2.2,46.7H291c0,0,1.6-40.2,3.2-46.7
							C296.2,300.3,295.2,289.9,307.6,286.4z"/>
						<circle class="st4" cx="279.6" cy="311.4" r="2"/>
						<circle class="st4" cx="268.1" cy="311.4" r="2"/>
						<circle class="st4" cx="275.7" cy="305.2" r="2"/>
						<circle class="st4" cx="276.6" cy="318.8" r="2"/>
						<circle class="st4" cx="284.8" cy="316.8" r="2"/>
						<circle class="st4" cx="283.6" cy="325.4" r="2"/>
						<circle class="st4" cx="264.2" cy="327.3" r="2"/>
						<circle class="st4" cx="291" cy="303.2" r="2"/>
					</g>
					<g>
						<path class="st4" d="M385.2,321.2c0,0,20.2-11.7,22.8-20c2.7-8.3,1.2-32.2-5.5-27.8c-6.7,4.4-13.6,28.7-17.1,36.5
							s-6.6,17-7.1,10.8s4.4-12.5-0.9-19.2c-5.4-6.6-19.9-10.3-20.8-6.2s2.6,18.6,3.4,19.9s12.7,10.1,12.7,10.1s-22-7.3-28.7-10.6
							c-6.7-3.2-1.6,9.2,2.2,14.2c3.8,5.1,28.1,1.9,28.1,1.9s-5.2,7.5-2,18.6s15,20.6,20.7,18.4s2.3-19.7-1.4-25.4
							c-3.7-5.7-7.1-13.1-7.1-13.1l21.4,1.7c0,0,6.3,1.9,13.8-2.9c7.4-4.9,10.1-8.6,6.1-14.6s-17.2-5.4-24.1,0.3
							C394.8,319.5,385.2,321.2,385.2,321.2z"/>
						<path class="st4" d="M381.5,304.8c0,0,4.3-6.8-4.3-23.5c-8.6-16.7-23.7-40.2-23.7-40.2l4.3-2.8c0,0,20.7,34.5,22.9,40.8
							C383.5,286.9,390,295,381.5,304.8z"/>
						<circle class="st4" cx="391.2" cy="268.6" r="2"/>
						<circle class="st4" cx="400.8" cy="262.3" r="2"/>
						<circle class="st4" cx="397.9" cy="271.6" r="2"/>
						<circle class="st4" cx="389.7" cy="260.7" r="2"/>
						<circle class="st4" cx="383.9" cy="266.8" r="2"/>
						<circle class="st4" cx="380.3" cy="259" r="2"/>
						<circle class="st4" cx="395.4" cy="246.8" r="2"/>
						<circle class="st4" cx="386.2" cy="281.7" r="2"/>
					</g>
					<g>
						<path class="st4" d="M178.9,177.8c0,0-23.3-1.3-30.1,4.2s-18.6,26.3-10.6,26.3s27.1-16.5,34.3-21.2s14.8-10.6,11.9-5.1
							c-3,5.5-10.6,8.1-9.7,16.5c0.8,8.5,11,19.5,14,16.5s8.1-17,8.1-18.5s-5.1-15.4-5.1-15.4s14.4,18.2,18.2,24.6
							c3.8,6.4,6.4-6.8,5.9-13.1c-0.4-6.4-22.5-17-22.5-17s8.5-3.4,11.9-14.4s-1.3-25.4-7.2-26.7s-12.7,15.3-12.7,22
							s-1.3,14.8-1.3,14.8l-17-13.1c0,0-4.2-5.1-13.1-5.1s-13.1,1.7-13.1,8.9s11.4,14,20.3,12.9C170,174,178.9,177.8,178.9,177.8z"
							/>
						<path class="st4" d="M173,193.6c0,0-7.3,3.3-9.2,22s-2.2,46.7-2.2,46.7h-5.1c0,0,1.6-40.2,3.2-46.7
							C161.6,207.5,160.6,197.1,173,193.6z"/>
						<circle class="st4" cx="145.1" cy="218.6" r="2"/>
						<circle class="st4" cx="133.6" cy="218.6" r="2"/>
						<circle class="st4" cx="141.2" cy="212.4" r="2"/>
						<circle class="st4" cx="142" cy="226" r="2"/>
						<circle class="st4" cx="150.2" cy="224" r="2"/>
						<circle class="st4" cx="149" cy="232.6" r="2"/>
						<circle class="st4" cx="129.7" cy="234.5" r="2"/>
						<circle class="st4" cx="156.5" cy="210.4" r="2"/>
					</g>
					<g>
						<path class="st4" d="M250.7,228.4c0,0,20.2-11.7,22.8-20s1.2-32.2-5.5-27.8s-13.6,28.7-17.1,36.5s-6.6,17-7.1,10.8
							s4.4-12.5-0.9-19.2c-5.4-6.6-19.9-10.3-20.8-6.2c-0.9,4.1,2.6,18.6,3.4,19.9c0.8,1.2,12.7,10.1,12.7,10.1s-22-7.3-28.7-10.6
							c-6.7-3.2-1.6,9.2,2.2,14.2c3.8,5.1,28.1,1.9,28.1,1.9s-5.2,7.5-2,18.6c3.2,11.1,15,20.6,20.7,18.4s2.3-19.7-1.4-25.4
							c-3.7-5.7-7.1-13.1-7.1-13.1l21.4,1.7c0,0,6.3,1.9,13.8-2.9c7.4-4.9,10.1-8.6,6.1-14.6c-3.9-6-17.2-5.4-24.1,0.3
							C260.2,226.7,250.7,228.4,250.7,228.4z"/>
						<path class="st4" d="M247,212c0,0,4.3-6.8-4.3-23.5S219,148.3,219,148.3l4.3-2.8c0,0,20.7,34.5,22.9,40.8
							C248.9,194.1,255.4,202.2,247,212z"/>
						<circle class="st4" cx="256.6" cy="175.8" r="2"/>
						<circle class="st4" cx="266.3" cy="169.5" r="2"/>
						<circle class="st4" cx="263.3" cy="178.8" r="2"/>
						
							<ellipse transform="matrix(0.1602 -0.9871 0.9871 0.1602 48.5896 392.9102)" class="st4" cx="255.2" cy="167.9" rx="2" ry="2"/>
						<circle class="st4" cx="249.4" cy="174" r="2"/>
						<circle class="st4" cx="245.7" cy="166.2" r="2"/>
						<circle class="st4" cx="260.8" cy="154" r="2"/>
						<circle class="st4" cx="251.6" cy="188.9" r="2"/>
					</g>
					<g>
						<path class="st4" d="M430.9,487.8c0,0-23.3-1.3-30.1,4.2c-6.8,5.5-18.6,26.3-10.6,26.3c8.1,0,27.1-16.5,34.3-21.2
							s14.8-10.6,11.9-5.1c-3,5.5-10.6,8.1-9.7,16.5c0.8,8.5,11,19.5,14,16.5s8.1-17,8.1-18.5s-5.1-15.4-5.1-15.4
							s14.4,18.2,18.2,24.6c3.8,6.4,6.4-6.8,5.9-13.1c-0.4-6.4-22.5-17-22.5-17s8.5-3.4,11.9-14.4s-1.3-25.4-7.2-26.7
							c-5.9-1.3-12.7,15.3-12.7,22s-1.3,14.8-1.3,14.8l-17-13.1c0,0-4.2-5.1-13.1-5.1s-13.1,1.7-13.1,8.9s11.4,14,20.3,12.9
							S430.9,487.8,430.9,487.8z"/>
						<path class="st4" d="M425,503.6c0,0-7.3,3.3-9.2,22c-1.9,18.7-2.2,46.7-2.2,46.7h-5.1c0,0,1.6-40.2,3.2-46.7
							C413.6,517.4,412.6,507.1,425,503.6z"/>
						<circle class="st4" cx="397.1" cy="528.5" r="2"/>
						<circle class="st4" cx="385.6" cy="528.5" r="2"/>
						<circle class="st4" cx="393.1" cy="522.3" r="2"/>
						<circle class="st4" cx="394" cy="535.9" r="2"/>
						<circle class="st4" cx="402.2" cy="534" r="2"/>
						<circle class="st4" cx="401" cy="542.5" r="2"/>
						<circle class="st4" cx="381.6" cy="544.5" r="2"/>
						<circle class="st4" cx="408.4" cy="520.4" r="2"/>
					</g>
					<g>
						<path class="st4" d="M502.6,538.4c0,0,20.2-11.7,22.8-20c2.7-8.3,1.2-32.2-5.5-27.8c-6.7,4.4-13.6,28.7-17.1,36.5
							s-6.6,17-7.1,10.8s4.4-12.5-0.9-19.2c-5.4-6.6-19.9-10.3-20.8-6.2s2.6,18.6,3.4,19.9s12.7,10.1,12.7,10.1s-22-7.3-28.7-10.6
							c-6.7-3.2-1.6,9.2,2.2,14.2c3.8,5.1,28.1,1.9,28.1,1.9s-5.2,7.5-2,18.6s15,20.6,20.7,18.4c5.7-2.2,2.3-19.7-1.4-25.4
							s-7.1-13.1-7.1-13.1l21.4,1.7c0,0,6.3,1.9,13.8-2.9s10.1-8.6,6.1-14.6c-3.9-6-17.2-5.4-24.1,0.3
							C512.2,536.7,502.6,538.4,502.6,538.4z"/>
						<path class="st4" d="M498.9,521.9c0,0,4.3-6.8-4.3-23.5c-8.6-16.7-23.7-40.2-23.7-40.2l4.3-2.8c0,0,20.7,34.5,22.9,40.8
							C500.9,504.1,507.4,512.2,498.9,521.9z"/>
						<circle class="st4" cx="508.6" cy="485.7" r="2"/>
						<circle class="st4" cx="518.2" cy="479.4" r="2"/>
						<circle class="st4" cx="515.3" cy="488.8" r="2"/>
						<circle class="st4" cx="507.1" cy="477.8" r="2"/>
						<circle class="st4" cx="501.3" cy="484" r="2"/>
						<circle class="st4" cx="497.7" cy="476.2" r="2"/>
						<circle class="st4" cx="512.8" cy="463.9" r="2"/>
						<circle class="st4" cx="503.6" cy="498.8" r="2"/>
					</g>
					<g>
						<path class="st4" d="M296.4,395c0,0-23.3-1.3-30.1,4.2c-6.8,5.5-18.6,26.3-10.6,26.3s27.1-16.5,34.3-21.2
							c7.2-4.7,14.8-10.6,11.9-5.1c-3,5.5-10.6,8.1-9.7,16.5c0.8,8.5,11,19.5,14,16.5s8.1-17,8.1-18.5s-5.1-15.4-5.1-15.4
							s14.4,18.2,18.2,24.6c3.8,6.4,6.4-6.8,5.9-13.1s-22.5-17-22.5-17s8.5-3.4,11.9-14.4s-1.3-25.4-7.2-26.7
							c-5.9-1.3-12.7,15.3-12.7,22s-1.3,14.8-1.3,14.8l-17-13.1c0,0-4.2-5.1-13.1-5.1s-13.1,1.7-13.1,8.9s11.4,14,20.3,12.9
							S296.4,395,296.4,395z"/>
						<path class="st4" d="M290.4,410.8c0,0-7.3,3.3-9.2,22s-2.2,46.7-2.2,46.7h-5.1c0,0,1.6-40.2,3.2-46.7
							C279,424.6,278,414.3,290.4,410.8z"/>
						<circle class="st4" cx="262.5" cy="435.7" r="2"/>
						<circle class="st4" cx="251" cy="435.7" r="2"/>
						<circle class="st4" cx="258.6" cy="429.5" r="2"/>
						<circle class="st4" cx="259.4" cy="443.1" r="2"/>
						<circle class="st4" cx="267.6" cy="441.2" r="2"/>
						<circle class="st4" cx="266.4" cy="449.7" r="2"/>
						<circle class="st4" cx="247.1" cy="451.7" r="2"/>
						<circle class="st4" cx="273.9" cy="427.6" r="2"/>
					</g>
					<g>
						<path class="st4" d="M368.1,445.6c0,0,20.2-11.7,22.8-20c2.7-8.3,1.2-32.2-5.5-27.8c-6.7,4.4-13.6,28.7-17.1,36.5
							s-6.6,17-7.1,10.8s4.4-12.5-0.9-19.2c-5.4-6.6-19.9-10.3-20.8-6.2c-0.9,4.1,2.6,18.6,3.4,19.9s12.7,10.1,12.7,10.1
							s-22-7.3-28.7-10.6c-6.7-3.2-1.6,9.2,2.2,14.2c3.8,5.1,28.1,1.9,28.1,1.9s-5.2,7.5-2,18.6s15,20.6,20.7,18.4
							s2.3-19.7-1.4-25.4c-3.7-5.7-7.1-13.1-7.1-13.1l21.4,1.7c0,0,6.3,1.9,13.8-2.9c7.4-4.9,10.1-8.6,6.1-14.6
							c-3.9-6-17.2-5.4-24.1,0.3C377.6,443.9,368.1,445.6,368.1,445.6z"/>
						<path class="st4" d="M364.4,429.1c0,0,4.3-6.8-4.3-23.5c-8.6-16.7-23.7-40.2-23.7-40.2l4.3-2.8c0,0,20.7,34.5,22.9,40.8
							C366.3,411.3,372.8,419.4,364.4,429.1z"/>
						<circle class="st4" cx="374.1" cy="392.9" r="2"/>
						<circle class="st4" cx="383.7" cy="386.6" r="2"/>
						<circle class="st4" cx="380.7" cy="396" r="2"/>
						<circle class="st4" cx="372.6" cy="385" r="2"/>
						<circle class="st4" cx="366.8" cy="391.2" r="2"/>
						<circle class="st4" cx="363.1" cy="383.4" r="2"/>
						<circle class="st4" cx="378.2" cy="371.1" r="2"/>
						<circle class="st4" cx="369" cy="406" r="2"/>
					</g>
					<g>
						<path class="st4" d="M161.8,302.2c0,0-23.3-1.3-30.1,4.2s-18.6,26.3-10.6,26.3s27.1-16.5,34.3-21.2s14.8-10.6,11.9-5.1
							c-3,5.5-10.6,8.1-9.7,16.5s11,19.5,14,16.5s8.1-17,8.1-18.5s-5.1-15.4-5.1-15.4s14.4,18.2,18.2,24.6s6.4-6.8,5.9-13.1
							c-0.4-6.4-22.5-17-22.5-17s8.5-3.4,11.9-14.4s-1.3-25.4-7.2-26.7c-5.9-1.3-12.7,15.3-12.7,22s-1.3,14.8-1.3,14.8l-17-13.1
							c0,0-4.2-5.1-13.1-5.1s-13.1,1.7-13.1,8.9s11.4,14,20.3,12.9S161.8,302.2,161.8,302.2z"/>
						<path class="st4" d="M155.9,318c0,0-7.3,3.3-9.2,22s-2.2,46.7-2.2,46.7h-5.1c0,0,1.6-40.2,3.2-46.7
							C144.5,331.8,143.5,321.5,155.9,318z"/>
						<circle class="st4" cx="127.9" cy="342.9" r="2"/>
						<circle class="st4" cx="116.4" cy="342.9" r="2"/>
						<circle class="st4" cx="124" cy="336.7" r="2"/>
						<circle class="st4" cx="124.9" cy="350.3" r="2"/>
						<circle class="st4" cx="133.1" cy="348.4" r="2"/>
						<circle class="st4" cx="131.9" cy="356.9" r="2"/>
						<circle class="st4" cx="112.5" cy="358.9" r="2"/>
						<circle class="st4" cx="139.3" cy="334.8" r="2"/>
					</g>
					<g>
						<path class="st4" d="M233.5,352.8c0,0,20.2-11.7,22.8-20c2.7-8.3,1.2-32.2-5.5-27.8c-6.7,4.4-13.6,28.7-17.1,36.5
							s-6.6,17-7.1,10.8s4.4-12.5-0.9-19.2s-19.9-10.3-20.8-6.2c-0.9,4.1,2.6,18.6,3.4,19.9c0.8,1.2,12.7,10.1,12.7,10.1
							s-22-7.3-28.7-10.6s-1.6,9.2,2.2,14.2c3.8,5.1,28.1,1.9,28.1,1.9s-5.2,7.5-2,18.6s15,20.6,20.7,18.4s2.3-19.7-1.4-25.4
							c-3.7-5.7-7.1-13.1-7.1-13.1l21.4,1.7c0,0,6.3,1.9,13.8-2.9c7.4-4.9,10.1-8.6,6.1-14.6c-3.9-6-17.2-5.4-24.1,0.3
							C243.1,351.1,233.5,352.8,233.5,352.8z"/>
						<path class="st4" d="M229.8,336.3c0,0,4.3-6.8-4.3-23.5s-23.7-40.2-23.7-40.2l4.3-2.8c0,0,20.7,34.5,22.9,40.8
							C231.8,318.5,238.3,326.6,229.8,336.3z"/>
						<circle class="st4" cx="239.5" cy="300.1" r="2"/>
						<circle class="st4" cx="249.1" cy="293.8" r="2"/>
						<circle class="st4" cx="246.2" cy="303.2" r="2"/>
						<circle class="st4" cx="238" cy="292.3" r="2"/>
						<circle class="st4" cx="232.2" cy="298.4" r="2"/>
						<circle class="st4" cx="228.6" cy="290.6" r="2"/>
						<circle class="st4" cx="243.7" cy="278.3" r="2"/>
						<circle class="st4" cx="234.5" cy="313.2" r="2"/>
					</g>
					<g>
						<path class="st4" d="M413.8,612.1c0,0-23.3-1.3-30.1,4.2s-18.6,26.3-10.6,26.3c8.1,0,27.1-16.5,34.3-21.2
							c7.2-4.7,14.8-10.6,11.9-5.1c-3,5.5-10.6,8.1-9.7,16.5c0.8,8.5,11,19.5,14,16.5s8.1-17,8.1-18.5s-5.1-15.4-5.1-15.4
							s14.4,18.2,18.2,24.6c3.8,6.4,6.4-6.8,5.9-13.1c-0.4-6.4-22.5-17-22.5-17s8.5-3.4,11.9-14.4s-1.3-25.4-7.2-26.7
							c-5.9-1.3-12.7,15.3-12.7,22c0,6.8-1.3,14.8-1.3,14.8l-17-13.1c0,0-4.2-5.1-13.1-5.1s-13.1,1.7-13.1,8.9s11.4,14,20.3,12.9
							C404.9,608.3,413.8,612.1,413.8,612.1z"/>
						<path class="st4" d="M407.8,627.9c0,0-7.3,3.3-9.2,22c-1.9,18.7-2.2,46.7-2.2,46.7h-5.1c0,0,1.6-40.2,3.2-46.7
							C396.4,641.8,395.4,631.4,407.8,627.9z"/>
						<circle class="st4" cx="379.9" cy="652.9" r="2"/>
						<circle class="st4" cx="368.4" cy="652.9" r="2"/>
						<circle class="st4" cx="376" cy="646.7" r="2"/>
						<circle class="st4" cx="376.8" cy="660.3" r="2"/>
						<circle class="st4" cx="385.1" cy="658.3" r="2"/>
						<circle class="st4" cx="383.8" cy="666.9" r="2"/>
						<circle class="st4" cx="364.5" cy="668.8" r="2"/>
						<circle class="st4" cx="391.3" cy="644.7" r="2"/>
					</g>
					<g>
						<path class="st4" d="M485.5,662.7c0,0,20.2-11.7,22.8-20c2.7-8.3,1.2-32.2-5.5-27.8s-13.6,28.7-17.1,36.5s-6.6,17-7.1,10.8
							s4.4-12.5-0.9-19.2c-5.4-6.6-19.9-10.3-20.8-6.2s2.6,18.6,3.4,19.9s12.7,10.1,12.7,10.1s-22-7.3-28.7-10.6
							c-6.7-3.2-1.6,9.2,2.2,14.2s28.1,1.9,28.1,1.9s-5.2,7.5-2,18.6s15,20.6,20.7,18.4c5.7-2.2,2.3-19.7-1.4-25.4
							c-3.7-5.7-7.1-13.1-7.1-13.1l21.4,1.7c0,0,6.3,1.9,13.8-2.9c7.4-4.9,10.1-8.6,6.1-14.6s-17.2-5.4-24.1,0.3
							C495,661,485.5,662.7,485.5,662.7z"/>
						<path class="st4" d="M481.8,646.3c0,0,4.3-6.8-4.3-23.5s-23.7-40.2-23.7-40.2l4.3-2.8c0,0,20.7,34.5,22.9,40.8
							C483.7,628.4,490.3,636.5,481.8,646.3z"/>
						<circle class="st4" cx="491.5" cy="610.1" r="2"/>
						<circle class="st4" cx="501.1" cy="603.8" r="2"/>
						<circle class="st4" cx="498.2" cy="613.1" r="2"/>
						<circle class="st4" cx="490" cy="602.2" r="2"/>
						<circle class="st4" cx="484.2" cy="608.3" r="2"/>
						<circle class="st4" cx="480.5" cy="600.5" r="2"/>
						<circle class="st4" cx="495.6" cy="588.3" r="2"/>
						<circle class="st4" cx="486.4" cy="623.1" r="2"/>
					</g>
					<g>
						<path class="st4" d="M279.2,519.3c0,0-23.3-1.3-30.1,4.2s-18.6,26.3-10.6,26.3c8.1,0,27.1-16.5,34.3-21.2s14.8-10.6,11.9-5.1
							s-10.6,8.1-9.7,16.5c0.8,8.5,11,19.5,14,16.5s8.1-17,8.1-18.5s-5.1-15.4-5.1-15.4s14.4,18.2,18.2,24.6
							c3.8,6.4,6.4-6.8,5.9-13.1c-0.4-6.4-22.5-17-22.5-17s8.5-3.4,11.9-14.4s-1.3-25.4-7.2-26.7c-5.9-1.3-12.7,15.3-12.7,22
							c0,6.8-1.3,14.8-1.3,14.8l-17-13.1c0,0-4.2-5.1-13.1-5.1s-13.1,1.7-13.1,8.9s11.4,14,20.3,12.9S279.2,519.3,279.2,519.3z"/>
						<path class="st4" d="M273.3,535.1c0,0-7.3,3.3-9.2,22s-2.2,46.7-2.2,46.7h-5.1c0,0,1.6-40.2,3.2-46.7
							C261.9,549,260.9,538.6,273.3,535.1z"/>
						<circle class="st4" cx="245.4" cy="560.1" r="2"/>
						<circle class="st4" cx="233.9" cy="560.1" r="2"/>
						<circle class="st4" cx="241.4" cy="553.9" r="2"/>
						<circle class="st4" cx="242.3" cy="567.5" r="2"/>
						<circle class="st4" cx="250.5" cy="565.5" r="2"/>
						<circle class="st4" cx="249.3" cy="574.1" r="2"/>
						<circle class="st4" cx="229.9" cy="576" r="2"/>
						<circle class="st4" cx="256.7" cy="551.9" r="2"/>
					</g>
					<g>
						<path class="st4" d="M350.9,569.9c0,0,20.2-11.7,22.8-20s1.2-32.2-5.5-27.8s-13.6,28.7-17.1,36.5s-6.6,17-7.1,10.8
							s4.4-12.5-0.9-19.2c-5.4-6.6-19.9-10.3-20.8-6.2s2.6,18.6,3.4,19.9s12.7,10.1,12.7,10.1s-22-7.3-28.7-10.6
							c-6.7-3.2-1.6,9.2,2.2,14.2c3.8,5.1,28.1,1.9,28.1,1.9s-5.2,7.5-2,18.6s15,20.6,20.7,18.4s2.3-19.7-1.4-25.4
							c-3.7-5.7-7.1-13.1-7.1-13.1l21.4,1.7c0,0,6.3,1.9,13.8-2.9c7.4-4.9,10.1-8.6,6.1-14.6s-17.2-5.4-24.1,0.3
							C360.5,568.2,350.9,569.9,350.9,569.9z"/>
						<path class="st4" d="M347.2,553.5c0,0,4.3-6.8-4.3-23.5s-23.7-40.2-23.7-40.2l4.3-2.8c0,0,20.7,34.5,22.9,40.8
							C349.2,535.6,355.7,543.7,347.2,553.5z"/>
						<circle class="st4" cx="356.9" cy="517.3" r="2"/>
						<circle class="st4" cx="366.5" cy="511" r="2"/>
						<circle class="st4" cx="363.6" cy="520.3" r="2"/>
						<circle class="st4" cx="355.4" cy="509.4" r="2"/>
						<circle class="st4" cx="349.6" cy="515.5" r="2"/>
						<circle class="st4" cx="346" cy="507.7" r="2"/>
						<circle class="st4" cx="361.1" cy="495.5" r="2"/>
						<circle class="st4" cx="351.9" cy="530.4" r="2"/>
					</g>
					<g>
						<path class="st4" d="M144.7,426.5c0,0-23.3-1.3-30.1,4.2C107.8,436.2,96,457,104,457s27.1-16.5,34.3-21.2s14.8-10.6,11.9-5.1
							c-3,5.5-10.6,8.1-9.7,16.5c0.8,8.5,11,19.5,14,16.5s8.1-17,8.1-18.5s-5.1-15.4-5.1-15.4s14.4,18.2,18.2,24.6s6.4-6.8,5.9-13.1
							c-0.4-6.4-22.5-17-22.5-17s8.5-3.4,11.9-14.4s-1.3-25.4-7.2-26.7c-5.9-1.3-12.7,15.3-12.7,22s-1.3,14.8-1.3,14.8l-17-13.1
							c0,0-4.2-5.1-13.1-5.1s-13.1,1.7-13.1,8.9c0,7.2,11.4,14,20.3,12.9S144.7,426.5,144.7,426.5z"/>
						<path class="st4" d="M138.7,442.3c0,0-7.3,3.3-9.2,22c-1.9,18.7-2.2,46.7-2.2,46.7h-5.1c0,0,1.6-40.2,3.2-46.7
							C127.3,456.2,126.3,445.8,138.7,442.3z"/>
						<circle class="st4" cx="110.8" cy="467.3" r="2"/>
						<circle class="st4" cx="99.3" cy="467.3" r="2"/>
						<circle class="st4" cx="106.9" cy="461.1" r="2"/>
						<circle class="st4" cx="107.7" cy="474.7" r="2"/>
						<circle class="st4" cx="115.9" cy="472.7" r="2"/>
						<circle class="st4" cx="114.7" cy="481.3" r="2"/>
						<circle class="st4" cx="95.4" cy="483.2" r="2"/>
						<circle class="st4" cx="122.2" cy="459.1" r="2"/>
					</g>
					<g>
						<path class="st4" d="M216.4,477.1c0,0,20.2-11.7,22.8-20c2.7-8.3,1.2-32.2-5.5-27.8c-6.7,4.4-13.6,28.7-17.1,36.5
							s-6.6,17-7.1,10.8s4.4-12.5-0.9-19.2s-19.9-10.3-20.8-6.2c-0.9,4.1,2.6,18.6,3.4,19.9c0.8,1.2,12.7,10.1,12.7,10.1
							s-22-7.3-28.7-10.6s-1.6,9.2,2.2,14.2c3.8,5.1,28.1,1.9,28.1,1.9s-5.2,7.5-2,18.6c3.2,11.1,15,20.6,20.7,18.4
							c5.7-2.2,2.3-19.7-1.4-25.4s-7.1-13.1-7.1-13.1l21.4,1.7c0,0,6.3,1.9,13.8-2.9c7.4-4.9,10.1-8.6,6.1-14.6s-17.2-5.4-24.1,0.3
							C225.9,475.4,216.4,477.1,216.4,477.1z"/>
						<path class="st4" d="M212.7,460.7c0,0,4.3-6.8-4.3-23.5S184.7,397,184.7,397l4.3-2.8c0,0,20.7,34.5,22.9,40.8
							C214.6,442.8,221.1,450.9,212.7,460.7z"/>
						<circle class="st4" cx="222.4" cy="424.5" r="2"/>
						<circle class="st4" cx="232" cy="418.2" r="2"/>
						<circle class="st4" cx="229" cy="427.5" r="2"/>
						<circle class="st4" cx="220.9" cy="416.6" r="2"/>
						<circle class="st4" cx="215.1" cy="422.7" r="2"/>
						<circle class="st4" cx="211.4" cy="414.9" r="2"/>
						<circle class="st4" cx="226.5" cy="402.7" r="2"/>
						<circle class="st4" cx="217.3" cy="437.6" r="2"/>
					</g>
				</g>
			</g>
		</g>
		<g>
			<path class="st6" d="M317.1,418.8c-1.9,0-3.5,1.5-3.5,3.5c0,1.9,1.5,3.5,3.5,3.5c1.9,0,3.5-1.5,3.5-3.5
				C320.6,420.4,319,418.8,317.1,418.8z"/>
			<path class="st6" d="M273.8,372.3c0.2-0.7,0.4-1.5,0.5-2.2c0,0,0,0,0-0.1c2.6-10.4,6.1-20.6,7.6-25c-0.1,0-0.1-0.1-0.2-0.1
				c-0.2-0.2-0.2-0.4,0-0.8h-0.1c-0.1,0.1-0.3,0.1-0.4,0.2c-0.1,0-1.1,0.5-1.6,0.7c-0.2,0.5-0.4,1-0.6,1.5c0,0,0,0.1-0.1,0.1
				c-0.2,0.5-0.4,1-0.6,1.5c-0.1,0.2-0.1,0.3-0.2,0.5c-0.2,0.4-0.3,0.8-0.5,1.2c-0.1,0.3-0.2,0.5-0.3,0.8c-0.1,0.3-0.2,0.5-0.3,0.8
				c-1.3,3.2-2.8,6.7-4.3,10.4c-7.6,18.4-17,41.4-17,45.7c0,0.2-0.1,0.4-0.2,1c-0.5,2.3-1.9,8.8-1.9,16.1c0,3.5,0.3,7.4,1.2,11.2
				c0.1,0.2,0.1,0.5,0.2,0.7c1.5,3.8,3.2,7.6,5.7,10.3c0.8,0.7,1.6,1.4,2.5,2c1.6,1,3.3,1.8,5.1,2.5c6.3,1.6,12.4,1.8,17.9,0.7
				c4-0.9,7.8-2.6,10.9-4.7c2.3-1.7,4.3-3.7,5.8-6c3.7-6.5,5.7-17.4,6-19.7c-2.5-1-5-1.9-7.4-2.7
				C280.9,411.4,265.9,405.9,273.8,372.3z"/>
			<path class="st6" d="M354.7,347.5l-0.8-2.3l0,0C354.2,345.9,354.4,346.7,354.7,347.5z"/>
			<path class="st6" d="M349.6,344.1l0.9,2.7C350.1,345.5,349.8,344.6,349.6,344.1L349.6,344.1z"/>
			<path class="st6" d="M351.4,344.6c-0.1,0-0.2-0.1-0.3-0.1l0.3,0.7l0,0c0.1,0.2,6.7,20.1,7.3,30.5l0,0c0,0.4,0.1,0.7,0.1,1
				c1.9,31.7-14.7,37.9-30.7,43.8c-1,0.4-2,0.7-3,1.1c0.1,2.2,1.1,13.7,5.9,19.1l0,0l0,0l0,0l0,0l0,0l0,0c0.2,0.3,0.5,0.6,0.7,0.9
				c2.4,2.7,6.8,5.4,10.9,7.3c3.4,1.3,7.2,2.1,11,2.2c1.5,0.1,3,0,4.4-0.1c7.3-1.3,14.6-5.1,18.3-9.9c0.9-1.3,1.6-2.8,2.2-4.4
				c2-6.5,0.7-15.3-1-22.1c-2.2-9-5.5-16.5-5.9-17.5l0,0l0,0l0,0l0,0l0,0l0,0l0,0l0,0c0-0.2-0.1-0.5-0.2-0.7
				c-1.6-7.5-6.4-19.8-12-33.9c-2.2-5.6-4.5-11.4-6.7-17.4C352.2,344.9,351.8,344.8,351.4,344.6z"/>
		</g>
		<g>
			<path class="st6" d="M273.8,372.3c0.2-0.7,0.4-1.5,0.5-2.2c0,0,0,0,0-0.1c2.6-10.4,6.1-20.6,7.6-25c-0.1,0-0.1-0.1-0.2-0.1
				c-0.2-0.2-0.2-0.4,0-0.8h-0.1c-0.1,0.1-0.3,0.1-0.4,0.2c-0.1,0-1.1,0.5-1.6,0.7c-0.2,0.5-0.4,1-0.6,1.5c0,0,0,0.1-0.1,0.1
				c-0.2,0.5-0.4,1-0.6,1.5c-0.1,0.2-0.1,0.3-0.2,0.5c-0.2,0.4-0.3,0.8-0.5,1.2c-0.1,0.3-0.2,0.5-0.3,0.8c-0.1,0.3-0.2,0.5-0.3,0.8
				c-1.3,3.2-2.8,6.7-4.3,10.4c-7.6,18.4-17,41.4-17,45.7c0,0.2-0.1,0.4-0.2,1c-0.5,2.3-1.9,8.8-1.9,16.1c0,3.5,0.3,7.4,1.2,11.2
				c0.1,0.2,0.1,0.5,0.2,0.7c1.5,3.8,3.2,7.6,5.7,10.3c0.8,0.7,1.6,1.4,2.5,2c1.6,1,3.3,1.8,5.1,2.5c6.3,1.6,12.4,1.8,17.9,0.7
				c4-0.9,7.8-2.6,10.9-4.7c2.3-1.7,4.3-3.7,5.8-6c3.7-6.5,5.7-17.4,6-19.7c-2.5-1-5-1.9-7.4-2.7
				C280.9,411.4,265.9,405.9,273.8,372.3z"/>
			<path class="st6" d="M317.1,418.8c-1.9,0-3.5,1.5-3.5,3.5c0,1.9,1.5,3.5,3.5,3.5c1.9,0,3.5-1.5,3.5-3.5
				C320.6,420.4,319,418.8,317.1,418.8z"/>
			<path class="st6" d="M371.4,397.2L371.4,397.2L371.4,397.2L371.4,397.2L371.4,397.2c0-0.1,0-0.1,0-0.1l0,0l0,0l0,0
				c0-0.2-0.1-0.5-0.2-0.7c-1.6-7.5-6.4-19.8-12-33.9c-2.2-5.6-4.5-11.4-6.7-17.4c-0.4-0.1-0.8-0.2-1.2-0.4c-0.1,0-0.2-0.1-0.3-0.1
				l0.3,0.7l0,0c0.1,0.2,6.7,20.1,7.3,30.5l0,0c0,0.4,0.1,0.7,0.1,1c1.9,31.7-14.7,37.9-30.7,43.8c-1,0.4-2,0.7-3,1.1
				c0.1,2.2,1.1,13.7,5.9,19.1l0,0l0,0l0,0l0,0l0,0l0,0c0.2,0.3,0.5,0.6,0.7,0.9c2.4,2.7,6.8,5.4,10.9,7.3c3.4,1.3,7.2,2.1,11,2.2
				c1.5,0.1,3,0,4.4-0.1c7.3-1.3,14.6-5.1,18.3-9.9c0.9-1.3,1.6-2.8,2.2-4.4c2-6.5,0.7-15.3-1-22.1
				C375.2,405.7,371.9,398.2,371.4,397.2z"/>
			<path class="st6" d="M283.5,343.9l0.2-0.6l0,0C283.6,343.5,283.6,343.7,283.5,343.9z"/>
		</g>
		<g>
			<path class="st6" d="M351.4,344.6c-0.1,0-0.2-0.1-0.3-0.1l0.3,0.7l0,0c0.1,0.2,6.7,20.1,7.3,30.5l0,0c0,0.4,0.1,0.7,0.1,1
				c1.9,31.7-14.7,37.9-30.7,43.8c-1,0.4-2,0.7-3,1.1c0.1,2.2,1.1,13.7,5.9,19.1l0,0l0,0l0,0l0,0l0,0l0,0c0.2,0.3,0.5,0.6,0.7,0.9
				c2.4,2.7,6.8,5.4,10.9,7.3c3.4,1.3,7.2,2.1,11,2.2c1.5,0.1,3,0,4.4-0.1c7.3-1.3,14.6-5.1,18.3-9.9c0.9-1.3,1.6-2.8,2.2-4.4
				c2-6.5,0.7-15.3-1-22.1c-2.2-9-5.5-16.5-5.9-17.5l0,0l0,0l0,0l0,0l0,0l0,0l0,0l0,0c0-0.2-0.1-0.5-0.2-0.7
				c-1.6-7.5-6.4-19.8-12-33.9c-2.2-5.6-4.5-11.4-6.7-17.4C352.2,344.9,351.8,344.8,351.4,344.6z"/>
			<path class="st6" d="M317.1,418.8c-1.9,0-3.5,1.5-3.5,3.5c0,1.9,1.5,3.5,3.5,3.5c1.9,0,3.5-1.5,3.5-3.5
				C320.6,420.4,319,418.8,317.1,418.8z"/>
			<path class="st6" d="M273.8,372.3c0.2-0.7,0.4-1.5,0.5-2.2c0,0,0,0,0-0.1c2.6-10.4,6.1-20.6,7.6-25c-0.1,0-0.1-0.1-0.2-0.1
				c-0.2-0.2-0.2-0.4,0-0.8h-0.1c-0.1,0.1-0.3,0.1-0.4,0.2c-0.1,0-1.1,0.5-1.6,0.7c-0.2,0.5-0.4,1-0.6,1.5c0,0,0,0.1-0.1,0.1
				c-0.2,0.5-0.4,1-0.6,1.5c-0.1,0.2-0.1,0.3-0.2,0.5c-0.2,0.4-0.3,0.8-0.5,1.2c-0.1,0.3-0.2,0.5-0.3,0.8c-0.1,0.3-0.2,0.5-0.3,0.8
				c-1.3,3.2-2.8,6.7-4.3,10.4c-7.6,18.4-17,41.4-17,45.7c0,0.2-0.1,0.4-0.2,1c-0.5,2.3-1.9,8.8-1.9,16.1c0,3.5,0.3,7.4,1.2,11.2
				c0.1,0.2,0.1,0.5,0.2,0.7c1.5,3.8,3.2,7.6,5.7,10.3c0.8,0.7,1.6,1.4,2.5,2c1.6,1,3.3,1.8,5.1,2.5c6.3,1.6,12.4,1.8,17.9,0.7
				c4-0.9,7.8-2.6,10.9-4.7c2.3-1.7,4.3-3.7,5.8-6c3.7-6.5,5.7-17.4,6-19.7c-2.5-1-5-1.9-7.4-2.7
				C280.9,411.4,265.9,405.9,273.8,372.3z"/>
		</g>
		<g>
			<path class="st6" d="M351.4,344.6c-0.1,0-0.2-0.1-0.3-0.1l0.3,0.7l0,0c0.1,0.2,6.7,20.1,7.3,30.5l0,0c0,0.4,0.1,0.7,0.1,1
				c1.9,31.7-14.7,37.9-30.7,43.8c-1,0.4-2,0.7-3,1.1c0.1,2.2,1.1,13.7,5.9,19.1l0,0l0,0l0,0l0,0l0,0l0,0c0.2,0.3,0.5,0.6,0.7,0.9
				c2.4,2.7,6.8,5.4,10.9,7.3c3.4,1.3,7.2,2.1,11,2.2c1.5,0.1,3,0,4.4-0.1c7.3-1.3,14.6-5.1,18.3-9.9c0.9-1.3,1.6-2.8,2.2-4.4
				c2-6.5,0.7-15.3-1-22.1c-2.2-9-5.5-16.5-5.9-17.5l0,0l0,0l0,0l0,0l0,0l0,0l0,0l0,0c0-0.2-0.1-0.5-0.2-0.7
				c-1.6-7.5-6.4-19.8-12-33.9c-2.2-5.6-4.5-11.4-6.7-17.4C352.2,344.9,351.8,344.8,351.4,344.6z"/>
			<path class="st6" d="M273.8,372.3c0.2-0.7,0.4-1.5,0.5-2.2c0,0,0,0,0-0.1c2.6-10.4,6.1-20.6,7.6-25c-0.1,0-0.1-0.1-0.2-0.1
				c-0.2-0.2-0.2-0.4,0-0.8h-0.1c-0.1,0.1-0.3,0.1-0.4,0.2c-0.1,0-1.1,0.5-1.6,0.7c-0.2,0.5-0.4,1-0.6,1.5c0,0,0,0.1-0.1,0.1
				c-0.2,0.5-0.4,1-0.6,1.5c-0.1,0.2-0.1,0.3-0.2,0.5c-0.2,0.4-0.3,0.8-0.5,1.2c-0.1,0.3-0.2,0.5-0.3,0.8c-0.1,0.3-0.2,0.5-0.3,0.8
				c-1.3,3.2-2.8,6.7-4.3,10.4c-7.6,18.4-17,41.4-17,45.7c0,0.2-0.1,0.4-0.2,1c-0.5,2.3-1.9,8.8-1.9,16.1c0,3.5,0.3,7.4,1.2,11.2
				c0.1,0.2,0.1,0.5,0.2,0.7c1.5,3.8,3.2,7.6,5.7,10.3c0.8,0.7,1.6,1.4,2.5,2c1.6,1,3.3,1.8,5.1,2.5c6.3,1.6,12.4,1.8,17.9,0.7
				c4-0.9,7.8-2.6,10.9-4.7c2.3-1.7,4.3-3.7,5.8-6c3.7-6.5,5.7-17.4,6-19.7c-2.5-1-5-1.9-7.4-2.7
				C280.9,411.4,265.9,405.9,273.8,372.3z"/>
			<path class="st6" d="M317.1,418.8c-1.9,0-3.5,1.5-3.5,3.5c0,1.9,1.5,3.5,3.5,3.5c1.9,0,3.5-1.5,3.5-3.5
				C320.6,420.4,319,418.8,317.1,418.8z"/>
		</g>
	</g>
	<path d="M359.6,360c-1.6-4.1-3.2-8.3-4.8-12.6c-0.3-0.7-0.5-1.3-0.8-2l-0.6-1.4c-1-0.2-2-0.5-3-0.7l0,0l0,0
		c-0.4-0.1-0.8-0.2-1.2-0.3l0.4,1.1l0,0c0.1,0.4,0.5,1.4,0.9,2.7c2,6.2,6.3,20.8,7.1,29c1.9,31.8-15,38.2-31.3,44.3l-1.9,0.7h-3.1
		c-0.6-1.8-2.2-3.1-4.2-3.1s-3.7,1.3-4.2,3.2h-3.1c-2.6-1-5.2-2-7.7-2.9c-19.5-7.3-34.9-13-27.2-45.5c3.4-14.5,8.7-28,8.8-28.1
		c0.1-0.1,0-0.3,0-0.4c0,0,0-0.1-0.1-0.1c0.1-0.2,0.2-0.4,0.2-0.6l0,0l0.5-1.3c-0.1,0.1-0.2,0.1-0.3,0.2c-0.5,0.2-1,0.5-1.6,0.7
		c-0.3,0.1-0.6,0.2-0.8,0.4c-0.7,0.3-1.5,0.6-2.4,1l0,0l-0.7,1.8c-1.8,4.4-4,9.9-6.3,15.6c-0.7,1.8-1.5,3.7-2.3,5.5
		c-0.5,1.2-1,2.5-1.5,3.7s-1,2.5-1.5,3.7c-6.2,15.4-11.8,29.6-11.8,33.2l0,0v0.1l0,0c0,0.2-0.1,0.4-0.2,0.7
		c-0.5,1.7-1.6,5.7-1.8,10.3c-0.3,6.3-0.4,12.7,1,17.2c1.2,4.9,3.2,8.8,6.1,11.6c1.8,2,4,3.6,6.8,4.5c0.6,0.2,1.1,0.3,1.7,0.5
		c3.2,1.1,6.5,1.6,9.9,1.6c2.3,0,4.7-0.2,6.9-0.7c5-0.8,9.4-2.7,13.1-5.5c1.2-0.8,2.3-1.8,3.2-2.7c0.9-0.9,1.7-2.1,2.4-3.4
		c0.4-0.7,0.8-1.3,1.2-2c3.3-6.5,4.6-15.7,4.9-17.8h2.6c0,0.1,0,0.2,0,0.3c0,2.5,2,4.5,4.5,4.5s4.5-2,4.5-4.5c0-0.1,0-0.2,0-0.3h2.5
		c0.1,2.6,0.6,14.3,6.2,19.6c0.2,0.3,0.5,0.6,0.8,0.9c2.7,3.2,6.6,5.8,11,7.5c2.6,1.2,5,2.1,6.8,2.4c1.3,0.2,2.6,0.3,4,0.3
		c1.7,0,3.4-0.2,5.2-0.5c7.4-0.7,13.6-3.8,18-9c0.4-0.4,0.7-0.9,1-1.4c0,0,0,0,0-0.1c1.2-1.6,2-3.6,2.6-5.7c4.2-15-6-36.8-7.3-39.3
		C370.8,389,365.6,375.6,359.6,360z M303.1,441.4c-1.5,2.4-3.5,4.4-5.8,6c-3.1,2.1-6.9,3.7-10.9,4.7c-5.5,1.1-11.6,0.9-17.9-0.7
		c-1.8-0.6-3.5-1.4-5.1-2.5c-0.9-0.6-1.8-1.3-2.5-2c-2.5-2.8-4.2-6.5-5.7-10.3c-0.1-0.2-0.2-0.4-0.2-0.7c-0.9-3.8-1.2-7.7-1.2-11.2
		c0.1-7.2,1.4-13.7,1.9-16.1c0.2-0.6,0.2-0.8,0.2-1c0-4.3,9.4-27.3,17-45.7c1.5-3.6,2.9-7.2,4.3-10.4c0.1-0.3,0.2-0.5,0.3-0.8
		c0.1-0.3,0.2-0.5,0.3-0.8c0.2-0.4,0.3-0.8,0.5-1.2c0.1-0.2,0.1-0.3,0.2-0.5c0.2-0.5,0.4-1,0.6-1.5c0,0,0-0.1,0.1-0.1
		c0.2-0.5,0.4-1,0.6-1.5c0.4-0.2,1.5-0.7,1.6-0.7s0.2-0.1,0.4-0.2h0.1c-0.2,0.4-0.2,0.6,0,0.8c0,0,0.1,0.1,0.2,0.1
		c-1.5,4.4-5,14.5-7.6,25c0,0,0,0,0,0.1c-0.2,0.7-0.4,1.5-0.5,2.2c-7.9,33.6,7.1,39.1,27.9,46.7c2.4,0.9,4.8,1.8,7.4,2.7
		C308.7,424,306.7,435,303.1,441.4z M317.1,425.7c-1.9,0-3.5-1.5-3.5-3.5c0-1.9,1.5-3.5,3.5-3.5c1.9,0,3.5,1.5,3.5,3.5
		S319,425.7,317.1,425.7z M378.4,436.8c-0.5,1.6-1.2,3-2.2,4.4c-3.7,4.9-11,8.7-18.3,9.9c-1.4,0.1-2.9,0.2-4.4,0.1
		c-3.8-0.1-7.6-0.9-11-2.2c-4-1.9-8.5-4.6-10.9-7.3c-0.2-0.3-0.5-0.6-0.7-0.9l0,0l0,0l0,0l0,0l0,0l0,0c-4.9-5.4-5.8-16.9-5.9-19.1
		c1-0.4,2-0.7,3-1.1c16.1-6,32.7-12.1,30.7-43.8c0-0.3,0-0.7-0.1-1l0,0c-0.6-10.3-7.2-30.3-7.3-30.5l0,0l-0.3-0.7
		c0.1,0,0.2,0.1,0.3,0.1c0.4,0.1,0.8,0.3,1.2,0.4c2.3,6,4.5,11.8,6.7,17.4c5.5,14.2,10.4,26.5,12,33.9c0.1,0.2,0.1,0.5,0.2,0.7l0,0
		l0,0l0,0l0,0l0,0l0,0l0,0l0,0c0.4,1,3.7,8.5,5.9,17.5C379.1,421.6,380.4,430.3,378.4,436.8z"/>
</g>
</svg>
