<?xml version="1.0" encoding="utf-8"?>
<!-- Generator: Adobe Illustrator 27.0.0, SVG Export Plug-In . SVG Version: 6.00 Build 0)  -->
<svg version="1.1" id="Layer_1" xmlns="http://www.w3.org/2000/svg" xmlns:xlink="http://www.w3.org/1999/xlink" x="0px" y="0px"
	 viewBox="0 0 600 1200" style="enable-background:new 0 0 600 1200;" xml:space="preserve">
<style type="text/css">
	.st0{fill:none;stroke:#000000;stroke-linecap:round;stroke-linejoin:round;stroke-miterlimit:10;}
	.st1{fill:#7F374F;}
	.st2{clip-path:url(#SVGID_00000030459937087739814380000016617178912080812446_);}
	.st3{opacity:0.5;fill:#FFFFFF;}
	.st4{fill:none;}
</style>
<g>
	<g>
		<g>
			<path class="st0" d="M333,433.8"/>
		</g>
		<path class="st1" d="M360.3,376.6c0.3,5.4,0.3,10-0.1,14c-7,3.3-25.2,9.6-39.1,9.6c-16.7,0-41.7-8.7-46.8-10.5
			c0-4.6,6.7-37.2,8.7-46.1c-2.2,0.9-4.8,1.9-7.6,3c-6.4,18.1-17.2,56.8-18.2,60.8h0c0,0,0,0,0,0c0,0.4-1.4,5.3-2,11.1
			c-0.5,5.2-0.5,13.2,1.3,18c2.7,7.1,6,12.9,12.2,14.7c7.6,2.2,16.1,2.4,23.4,0.3h65.2l0,0c7.4-0.1,14.8-2.8,20-8.9
			c12-14.2-3.1-45-3.7-46c0,0,0,0,0,0c0-0.1,0-0.1,0,0c-1-4.9-4.1-11.4-10.5-50.6c-2.2-0.5-4.3-1-6.3-1.4
			C360.2,375.9,360.2,376.3,360.3,376.6z"/>
		<g>
			<defs>
				<path id="SVGID_1_" d="M360.3,376.6c0.3,5.4,0.3,10-0.1,14c-7,3.3-25.2,9.6-39.1,9.6c-16.7,0-41.7-8.7-46.8-10.5
					c0-4.6,6.7-37.2,8.7-46.1c-2.2,0.9-4.8,1.9-7.6,3c-6.4,18.1-17.2,56.8-18.2,60.8h0c0,0,0,0,0,0c0,0.4-1.4,5.3-2,11.1
					c-0.5,5.2-0.5,13.2,1.3,18c2.7,7.1,6,12.9,12.2,14.7c7.6,2.2,16.1,2.4,23.4,0.3h65.2l0,0c7.4-0.1,14.8-2.8,20-8.9
					c12-14.2-3.1-45-3.7-46c0,0,0,0,0,0c0-0.1,0-0.1,0,0c-1-4.9-4.1-11.4-10.5-50.6c-2.2-0.5-4.3-1-6.3-1.4
					C360.2,375.9,360.2,376.3,360.3,376.6z"/>
			</defs>
			<clipPath id="SVGID_00000149380973059082903410000015584854602837473466_">
				<use xlink:href="#SVGID_1_"  style="overflow:visible;"/>
			</clipPath>
			<g style="clip-path:url(#SVGID_00000149380973059082903410000015584854602837473466_);">
				<rect x="212.3" y="332.4" class="st3" width="229.8" height="2.4"/>
				<rect x="212.3" y="337.2" class="st3" width="229.8" height="2.4"/>
				<rect x="212.3" y="342.1" class="st3" width="229.8" height="2.4"/>
				<rect x="212.3" y="346.9" class="st3" width="229.8" height="2.4"/>
				<rect x="212.3" y="351.8" class="st3" width="229.8" height="2.4"/>
				<rect x="212.3" y="356.6" class="st3" width="229.8" height="2.4"/>
				<rect x="212.3" y="361.4" class="st3" width="229.8" height="2.4"/>
				<rect x="212.3" y="366.3" class="st3" width="229.8" height="2.4"/>
				<rect x="212.3" y="371.1" class="st3" width="229.8" height="2.4"/>
				<rect x="212.3" y="376" class="st3" width="229.8" height="2.4"/>
				<rect x="212.3" y="380.8" class="st3" width="229.8" height="2.4"/>
				<rect x="212.3" y="385.7" class="st3" width="229.8" height="2.4"/>
				<rect x="212.3" y="390.5" class="st3" width="229.8" height="2.4"/>
				<rect x="212.3" y="395.3" class="st3" width="229.8" height="2.4"/>
				<rect x="212.3" y="400.2" class="st3" width="229.8" height="2.4"/>
				<rect x="212.3" y="405" class="st3" width="229.8" height="2.4"/>
				<rect x="212.3" y="409.9" class="st3" width="229.8" height="2.4"/>
				<rect x="212.3" y="414.7" class="st3" width="229.8" height="2.4"/>
				<rect x="212.3" y="419.6" class="st3" width="229.8" height="2.4"/>
				<rect x="212.3" y="424.4" class="st3" width="229.8" height="2.4"/>
				<rect x="212.3" y="429.3" class="st3" width="229.8" height="2.4"/>
				<rect x="212.3" y="434.1" class="st3" width="229.8" height="2.4"/>
				<rect x="212.3" y="438.9" class="st3" width="229.8" height="2.4"/>
				<rect x="212.3" y="443.8" class="st3" width="229.8" height="2.4"/>
				<rect x="212.3" y="448.6" class="st3" width="229.8" height="2.4"/>
				<rect x="212.3" y="453.5" class="st3" width="229.8" height="2.4"/>
				<rect x="212.3" y="458.3" class="st3" width="229.8" height="2.4"/>
				<rect x="212.3" y="463.2" class="st3" width="229.8" height="2.4"/>
				<rect x="212.3" y="468" class="st3" width="229.8" height="2.4"/>
				<rect x="212.3" y="472.8" class="st3" width="229.8" height="2.4"/>
				<rect x="212.3" y="477.7" class="st3" width="229.8" height="2.4"/>
				<rect x="212.3" y="482.5" class="st3" width="229.8" height="2.4"/>
				<rect x="212.3" y="487.4" class="st3" width="229.8" height="2.4"/>
				<rect x="212.3" y="492.2" class="st3" width="229.8" height="2.4"/>
				<rect x="212.3" y="497.1" class="st3" width="229.8" height="2.4"/>
				<rect x="212.3" y="501.9" class="st3" width="229.8" height="2.4"/>
				<rect x="212.3" y="506.7" class="st3" width="229.8" height="2.4"/>
				<rect x="212.3" y="511.6" class="st3" width="229.8" height="2.4"/>
				<rect x="212.3" y="516.4" class="st3" width="229.8" height="2.4"/>
				<rect x="212.3" y="521.3" class="st3" width="229.8" height="2.4"/>
				<rect x="212.3" y="526.1" class="st3" width="229.8" height="2.4"/>
				
					<rect x="309.1" y="429.3" transform="matrix(-1.836970e-16 1 -1 -1.836970e-16 854.4509 6.4182)" class="st3" width="229.8" height="2.4"/>
				
					<rect x="304.3" y="429.3" transform="matrix(-1.836970e-16 1 -1 -1.836970e-16 849.6077 11.2613)" class="st3" width="229.8" height="2.4"/>
				
					<rect x="299.4" y="429.3" transform="matrix(-1.836970e-16 1 -1 -1.836970e-16 844.7646 16.1044)" class="st3" width="229.8" height="2.4"/>
				
					<rect x="294.6" y="429.3" transform="matrix(-1.836970e-16 1 -1 -1.836970e-16 839.9214 20.9476)" class="st3" width="229.8" height="2.4"/>
				
					<rect x="289.8" y="429.3" transform="matrix(-1.836970e-16 1 -1 -1.836970e-16 835.0783 25.7907)" class="st3" width="229.8" height="2.4"/>
				
					<rect x="284.9" y="429.3" transform="matrix(-1.836970e-16 1 -1 -1.836970e-16 830.2352 30.6339)" class="st3" width="229.8" height="2.4"/>
				
					<rect x="280.1" y="429.3" transform="matrix(-1.836970e-16 1 -1 -1.836970e-16 825.392 35.477)" class="st3" width="229.8" height="2.4"/>
				
					<rect x="275.2" y="429.3" transform="matrix(-1.836970e-16 1 -1 -1.836970e-16 820.5489 40.3201)" class="st3" width="229.8" height="2.4"/>
				
					<rect x="270.4" y="429.3" transform="matrix(-1.836970e-16 1 -1 -1.836970e-16 815.7057 45.1633)" class="st3" width="229.8" height="2.4"/>
				
					<rect x="265.5" y="429.3" transform="matrix(-1.836970e-16 1 -1 -1.836970e-16 810.8626 50.0064)" class="st3" width="229.8" height="2.4"/>
				
					<rect x="260.7" y="429.3" transform="matrix(-1.836970e-16 1 -1 -1.836970e-16 806.0195 54.8496)" class="st3" width="229.8" height="2.4"/>
				
					<rect x="255.9" y="429.3" transform="matrix(-1.836970e-16 1 -1 -1.836970e-16 801.1763 59.6927)" class="st3" width="229.8" height="2.4"/>
				
					<rect x="251" y="429.3" transform="matrix(-1.836970e-16 1 -1 -1.836970e-16 796.3332 64.5358)" class="st3" width="229.8" height="2.4"/>
				
					<rect x="246.2" y="429.3" transform="matrix(-1.836970e-16 1 -1 -1.836970e-16 791.4901 69.379)" class="st3" width="229.8" height="2.4"/>
				
					<rect x="241.3" y="429.3" transform="matrix(-1.836970e-16 1 -1 -1.836970e-16 786.6469 74.2221)" class="st3" width="229.8" height="2.4"/>
				
					<rect x="236.5" y="429.3" transform="matrix(-1.836970e-16 1 -1 -1.836970e-16 781.8038 79.0653)" class="st3" width="229.8" height="2.4"/>
				
					<rect x="231.6" y="429.3" transform="matrix(-1.836970e-16 1 -1 -1.836970e-16 776.9606 83.9084)" class="st3" width="229.8" height="2.4"/>
				
					<rect x="226.8" y="429.3" transform="matrix(-1.836970e-16 1 -1 -1.836970e-16 772.1175 88.7515)" class="st3" width="229.8" height="2.4"/>
				
					<rect x="222" y="429.3" transform="matrix(-1.836970e-16 1 -1 -1.836970e-16 767.2744 93.5947)" class="st3" width="229.8" height="2.4"/>
				
					<rect x="217.1" y="429.3" transform="matrix(-1.836970e-16 1 -1 -1.836970e-16 762.4312 98.4378)" class="st3" width="229.8" height="2.4"/>
				
					<rect x="212.3" y="429.3" transform="matrix(-1.836970e-16 1 -1 -1.836970e-16 757.5881 103.2809)" class="st3" width="229.8" height="2.4"/>
				
					<rect x="207.4" y="429.3" transform="matrix(-1.836970e-16 1 -1 -1.836970e-16 752.7449 108.1241)" class="st3" width="229.8" height="2.4"/>
				
					<rect x="202.6" y="429.3" transform="matrix(-1.836970e-16 1 -1 -1.836970e-16 747.9018 112.9672)" class="st3" width="229.8" height="2.4"/>
				
					<rect x="197.7" y="429.3" transform="matrix(-1.836970e-16 1 -1 -1.836970e-16 743.0587 117.8104)" class="st3" width="229.8" height="2.4"/>
				
					<rect x="192.9" y="429.3" transform="matrix(-1.836970e-16 1 -1 -1.836970e-16 738.2155 122.6535)" class="st3" width="229.8" height="2.4"/>
				
					<rect x="188.1" y="429.3" transform="matrix(-1.836970e-16 1 -1 -1.836970e-16 733.3724 127.4966)" class="st3" width="229.8" height="2.4"/>
				
					<rect x="183.2" y="429.3" transform="matrix(-1.836970e-16 1 -1 -1.836970e-16 728.5292 132.3398)" class="st3" width="229.8" height="2.4"/>
				
					<rect x="178.4" y="429.3" transform="matrix(-1.836970e-16 1 -1 -1.836970e-16 723.6861 137.1829)" class="st3" width="229.8" height="2.4"/>
				
					<rect x="173.5" y="429.3" transform="matrix(-1.836970e-16 1 -1 -1.836970e-16 718.843 142.0261)" class="st3" width="229.8" height="2.4"/>
				
					<rect x="168.7" y="429.3" transform="matrix(-1.836970e-16 1 -1 -1.836970e-16 713.9998 146.8692)" class="st3" width="229.8" height="2.4"/>
				
					<rect x="163.8" y="429.3" transform="matrix(-1.836970e-16 1 -1 -1.836970e-16 709.1567 151.7123)" class="st3" width="229.8" height="2.4"/>
				
					<rect x="159" y="429.3" transform="matrix(-1.836970e-16 1 -1 -1.836970e-16 704.3135 156.5555)" class="st3" width="229.8" height="2.4"/>
				
					<rect x="154.2" y="429.3" transform="matrix(-1.836970e-16 1 -1 -1.836970e-16 699.4704 161.3986)" class="st3" width="229.8" height="2.4"/>
				
					<rect x="149.3" y="429.3" transform="matrix(-1.836970e-16 1 -1 -1.836970e-16 694.6273 166.2418)" class="st3" width="229.8" height="2.4"/>
				
					<rect x="144.5" y="429.3" transform="matrix(-1.836970e-16 1 -1 -1.836970e-16 689.7841 171.0849)" class="st3" width="229.8" height="2.4"/>
				
					<rect x="139.6" y="429.3" transform="matrix(-1.836970e-16 1 -1 -1.836970e-16 684.941 175.928)" class="st3" width="229.8" height="2.4"/>
				
					<rect x="134.8" y="429.3" transform="matrix(-1.836970e-16 1 -1 -1.836970e-16 680.0978 180.7712)" class="st3" width="229.8" height="2.4"/>
				
					<rect x="129.9" y="429.3" transform="matrix(-1.836970e-16 1 -1 -1.836970e-16 675.2547 185.6143)" class="st3" width="229.8" height="2.4"/>
				
					<rect x="125.1" y="429.3" transform="matrix(-1.836970e-16 1 -1 -1.836970e-16 670.4116 190.4574)" class="st3" width="229.8" height="2.4"/>
				
					<rect x="120.2" y="429.3" transform="matrix(-1.836970e-16 1 -1 -1.836970e-16 665.5684 195.3006)" class="st3" width="229.8" height="2.4"/>
				
					<rect x="115.4" y="429.3" transform="matrix(-1.836970e-16 1 -1 -1.836970e-16 660.7253 200.1437)" class="st3" width="229.8" height="2.4"/>
			</g>
		</g>
		<g>
			<path class="st4" d="M364.6,351.7l-0.8-4.9c0,0,0,0,0,0C364.1,348.5,364.3,350.1,364.6,351.7z"/>
			<path class="st4" d="M357.9,345.4C357.9,345.4,357.9,345.4,357.9,345.4l-0.4-0.1c3.2,30.7,3.3,30.9,3.3,31.2
				c0.3,5.2,0.3,9.9-0.1,14c0,0.2-0.1,0.3-0.3,0.4c-8,3.7-25.8,9.7-39.3,9.7c-16.8,0-42.1-8.8-47-10.5c-0.2-0.1-0.3-0.3-0.3-0.5
				c0-4.6,6.4-35.7,8.5-45.3c-0.1,0-0.1,0.1-0.2,0.1c-0.4,0.2-0.8,0.3-1.2,0.5c-0.1,0-0.2,0.1-0.3,0.1c-0.4,0.2-0.9,0.3-1.3,0.5
				c-0.1,0-0.1,0-0.2,0.1c-1.1,0.4-2.1,0.8-3.3,1.3c0,0,0,0,0,0c-6.5,18.4-17.1,56.5-18.1,60.5c0,0.2-0.1,0.4-0.2,1.1
				c-0.4,1.8-1.3,5.6-1.8,10c-0.5,5.3-0.5,13.2,1.3,17.8c2.4,6.4,5.6,12.6,11.9,14.4c7.5,2.2,15.9,2.3,23.2,0.3c0,0,0.1,0,0.1,0
				h65.1c0,0,0,0,0.1,0c7.9-0.1,14.9-3.2,19.6-8.8c11.5-13.6-2.7-43.2-3.7-45.3c0,0,0,0,0-0.1c0,0,0,0,0,0c0,0,0,0,0,0
				c0,0,0-0.1,0-0.2h0c-0.2-1.1-0.5-2.3-1-3.9c-1.6-5.7-4.5-16.3-9.5-46.3C361.1,346.2,359.5,345.8,357.9,345.4z"/>
		</g>
		<path class="st4" d="M373.3,397.1C373.3,397,373.3,397,373.3,397.1C373.3,397,373.2,397,373.3,397.1c-0.1-0.1-0.1-0.1-0.1-0.1
			c0,0,0-0.1,0-0.2h0c-0.2-1.1-0.5-2.3-1-3.9c-1.6-5.7-4.5-16.3-9.5-46.3c-1.7-0.4-3.3-0.8-4.8-1.1c0,0,0,0,0,0l-0.4-0.1
			c3.2,30.7,3.3,30.9,3.3,31.2c0.3,5.2,0.3,9.9-0.1,14c0,0.2-0.1,0.3-0.3,0.4c-8,3.7-25.8,9.7-39.3,9.7c-16.8,0-42.1-8.8-47-10.5
			c-0.2-0.1-0.3-0.3-0.3-0.5c0-4.6,6.4-35.7,8.5-45.3c-0.1,0-0.1,0.1-0.2,0.1c-0.4,0.2-0.8,0.3-1.2,0.5c-0.1,0-0.2,0.1-0.3,0.1
			c-0.4,0.2-0.9,0.3-1.3,0.5c-0.1,0-0.1,0-0.2,0.1c-1.1,0.4-2.1,0.8-3.3,1.3c0,0,0,0,0,0c-6.5,18.4-17.1,56.5-18.1,60.5
			c0,0.2-0.1,0.4-0.2,1.1c-0.4,1.8-1.3,5.6-1.8,10c-0.5,5.3-0.5,13.2,1.3,17.8c2.4,6.4,5.6,12.6,11.9,14.4
			c7.5,2.2,15.9,2.3,23.2,0.3c0,0,0.1,0,0.1,0h65.1c0,0,0,0,0.1,0c7.9-0.1,14.9-3.2,19.6-8.8C388.5,428.7,374.3,399.1,373.3,397.1z"
			/>
		<path class="st4" d="M373.3,397.1C373.3,397,373.3,397,373.3,397.1C373.3,397,373.2,397,373.3,397.1c-0.1-0.1-0.1-0.1-0.1-0.1
			c0,0,0-0.1,0-0.2h0c-0.2-1.1-0.5-2.3-1-3.9c-1.6-5.7-4.5-16.3-9.5-46.3c-1.7-0.4-3.3-0.8-4.8-1.1c0,0,0,0,0,0l-0.4-0.1
			c3.2,30.7,3.3,30.9,3.3,31.2c0.3,5.2,0.3,9.9-0.1,14c0,0.2-0.1,0.3-0.3,0.4c-8,3.7-25.8,9.7-39.3,9.7c-16.8,0-42.1-8.8-47-10.5
			c-0.2-0.1-0.3-0.3-0.3-0.5c0-4.6,6.4-35.7,8.5-45.3c-0.1,0-0.1,0.1-0.2,0.1c-0.4,0.2-0.8,0.3-1.2,0.5c-0.1,0-0.2,0.1-0.3,0.1
			c-0.4,0.2-0.9,0.3-1.3,0.5c-0.1,0-0.1,0-0.2,0.1c-1.1,0.4-2.1,0.8-3.3,1.3c0,0,0,0,0,0c-6.5,18.4-17.1,56.5-18.1,60.5
			c0,0.2-0.1,0.4-0.2,1.1c-0.4,1.8-1.3,5.6-1.8,10c-0.5,5.3-0.5,13.2,1.3,17.8c2.4,6.4,5.6,12.6,11.9,14.4
			c7.5,2.2,15.9,2.3,23.2,0.3c0,0,0.1,0,0.1,0h65.1c0,0,0,0,0.1,0c7.9-0.1,14.9-3.2,19.6-8.8C388.5,428.7,374.3,399.1,373.3,397.1z"
			/>
		<g>
			<path class="st4" d="M282.8,347.1l0.7-3.1c0,0,0,0,0,0C283.3,344.9,283,345.9,282.8,347.1z"/>
			<path class="st4" d="M373.3,397.1C373.3,397,373.3,397,373.3,397.1C373.3,397,373.2,397,373.3,397.1c-0.1-0.1-0.1-0.1-0.1-0.1
				c0,0,0-0.1,0-0.2h0c-0.2-1.1-0.5-2.3-1-3.9c-1.6-5.7-4.5-16.3-9.5-46.3c-1.7-0.4-3.3-0.8-4.8-1.1c0,0,0,0,0,0l-0.4-0.1
				c3.2,30.7,3.3,30.9,3.3,31.2c0.3,5.2,0.3,9.9-0.1,14c0,0.2-0.1,0.3-0.3,0.4c-8,3.7-25.8,9.7-39.3,9.7c-16.8,0-42.1-8.8-47-10.5
				c-0.2-0.1-0.3-0.3-0.3-0.5c0-4.6,6.4-35.7,8.5-45.3c-0.1,0-0.1,0.1-0.2,0.1c-0.4,0.2-0.8,0.3-1.2,0.5c-0.1,0-0.2,0.1-0.3,0.1
				c-0.4,0.2-0.9,0.3-1.3,0.5c-0.1,0-0.1,0-0.2,0.1c-1.1,0.4-2.1,0.8-3.3,1.3c0,0,0,0,0,0c-6.5,18.4-17.1,56.5-18.1,60.5
				c0,0.2-0.1,0.4-0.2,1.1c-0.4,1.8-1.3,5.6-1.8,10c-0.5,5.3-0.5,13.2,1.3,17.8c2.4,6.4,5.6,12.6,11.9,14.4
				c7.5,2.2,15.9,2.3,23.2,0.3c0,0,0.1,0,0.1,0h65.1c0,0,0,0,0.1,0c7.9-0.1,14.9-3.2,19.6-8.8C388.5,428.7,374.3,399.1,373.3,397.1z
				"/>
			<path d="M380.7,414.6c-2.2-9.1-6-17-6.6-18.1c-0.2-1.1-0.6-2.3-1-3.9c-1.5-5.3-4.1-14.9-8.5-40.9l0,0l0,0
				c-0.3-1.6-0.5-3.2-0.8-4.9c0,0,0,0,0,0l-0.2-1.1c-0.1,0-0.3-0.1-0.4-0.1c0,0,0,0,0,0c0,0,0,0-0.1,0c-1.7-0.4-3.4-0.8-4.9-1.1
				c-0.1,0-0.1,0-0.2,0l-0.2,0c-0.5-0.1-1-0.2-1.6-0.4l0.1,1.1c3.3,31,3.3,31.2,3.3,31.5c0.3,5,0.3,9.6-0.1,13.6
				c-6.9,3.2-25,9.5-38.6,9.5c-16.3,0-40.7-8.4-46.3-10.3c0.2-5,5.4-30.4,8-42.3l0,0l0,0c0.3-1.2,0.5-2.2,0.7-3.1c0,0,0,0,0,0
				l0.3-1.2c-0.4,0.2-0.7,0.3-1.1,0.5c-1,0.4-2.1,0.9-3.3,1.3c-0.1,0-0.2,0.1-0.3,0.1c-0.5,0.2-1.1,0.4-1.6,0.6
				c-0.1,0-0.1,0-0.2,0.1c-0.6,0.2-1.3,0.5-1.9,0.7l-0.1,0.1c0,0,0,0,0,0c-0.1,0-0.2,0.1-0.3,0.1l-0.4,1.2c0,0,0,0,0,0
				c-6.5,18.7-16.9,56.2-17.8,59.8c0,0,0,0.1,0,0.1c0,0,0,0.1,0,0.1l-0.3,0.2c0.1,0.1,0.1,0.1,0.2,0.2c0,0.2-0.1,0.3-0.1,0.5
				c-0.4,1.8-1.4,5.7-1.8,10.1c-0.6,5.7-0.5,13.5,1.3,18.2c2.5,6.6,5.8,13,12.5,15c4,1.2,8.3,1.8,12.5,1.8c3.8,0,7.6-0.5,11.1-1.5
				h65.1c0,0,0.1,0,0.1,0c8.2-0.1,15.4-3.4,20.3-9.1C382.8,437,383.8,427.2,380.7,414.6z M377,442.3c-4.7,5.5-11.6,8.7-19.6,8.8
				c0,0,0,0-0.1,0h-65.1c0,0-0.1,0-0.1,0c-7.2,2-15.6,1.9-23.2-0.3c-6.3-1.9-9.4-8-11.9-14.4c-1.8-4.6-1.8-12.4-1.3-17.8
				c0.4-4.3,1.3-8.1,1.8-10c0.2-0.7,0.2-1,0.2-1.1c1-3.9,11.6-42.1,18.1-60.5c0,0,0,0,0,0c1.1-0.4,2.2-0.9,3.3-1.3
				c0.1,0,0.1,0,0.2-0.1c0.5-0.2,0.9-0.4,1.3-0.5c0.1,0,0.2-0.1,0.3-0.1c0.4-0.2,0.8-0.3,1.2-0.5c0.1,0,0.1-0.1,0.2-0.1
				c-2.1,9.6-8.6,40.7-8.5,45.3c0,0.2,0.1,0.4,0.3,0.5c4.9,1.8,30.1,10.5,47,10.5c13.5,0,31.3-5.9,39.3-9.7c0.2-0.1,0.3-0.2,0.3-0.4
				c0.4-4.1,0.4-8.9,0.1-14c0-0.4,0-0.5-3.3-31.2l0.4,0.1c0,0,0,0,0,0c1.5,0.4,3.1,0.7,4.8,1.1c5,30.1,7.9,40.6,9.5,46.3
				c0.5,1.6,0.8,2.8,1,3.9h0c0,0.1,0,0.1,0,0.2c0,0,0,0,0,0c0,0,0,0,0,0c0,0,0,0,0,0.1C374.3,399.1,388.5,428.7,377,442.3z"/>
		</g>
	</g>
</g>
</svg>
