<?xml version="1.0" encoding="utf-8"?>
<!-- Generator: Adobe Illustrator 27.0.0, SVG Export Plug-In . SVG Version: 6.00 Build 0)  -->
<svg version="1.1" id="Layer_1" xmlns="http://www.w3.org/2000/svg" xmlns:xlink="http://www.w3.org/1999/xlink" x="0px" y="0px"
	 viewBox="0 0 600 1200" style="enable-background:new 0 0 600 1200;" xml:space="preserve">
<style type="text/css">
	.st0{fill:none;stroke:#000000;stroke-linecap:round;stroke-linejoin:round;stroke-miterlimit:10;}
	.st1{fill:#701E13;}
	.st2{fill:#F46E0B;}
	.st3{fill:none;}
</style>
<g>
	<g>
		<g>
			<g>
				<path class="st0" d="M331.6,433.8"/>
				<circle class="st1" cx="319.5" cy="422" r="4"/>
			</g>
			<path class="st2" d="M275.2,372.2h-0.5l-5.9,0c-6.1,15.6-11.9,30.9-13,35.2h0c0,0,0,0,0,0c0,0.4-1.4,5.3-2,11.1
				c-0.5,5.2-0.5,13.2,1.3,18c2.7,7.1,6,12.9,12.2,14.7c15,4.4,33.4,0.6,39.8-12c3.7-7.3,4.9-18.1,4.9-18.1
				C290.2,412.5,265.1,415.2,275.2,372.2z"/>
		</g>
		<path class="st2" d="M363.2,375.5l2.2,0l-3.7-29.4c-0.7-0.2-1.4-0.3-2.1-0.5L363.2,375.5z"/>
		<path class="st2" d="M358.8,375.5l2.3,0l-3.2-30.2c-0.6-0.1-1.3-0.3-1.9-0.4L358.8,375.5z"/>
		<path class="st2" d="M268.9,372.2l2.3,0l4.4-26.2c-0.7,0.3-1.4,0.5-2.1,0.8L268.9,372.2z"/>
		<path class="st2" d="M277.8,345.2l-4.6,27l2.1,0l4.5-27.8C279.1,344.7,278.4,344.9,277.8,345.2z"/>
		<path class="st2" d="M372.3,396.7C372.3,396.7,372.3,396.7,372.3,396.7C372.2,396.7,372.2,396.7,372.3,396.7
			c-1-5-3.5-12.4-6.8-21.2l-6.7,0c0,0.4,0.1,0.8,0.1,1.1c2.4,39.7-15.2,38.2-32,44.6c0,0-0.3,13.6,5.3,19.8
			c8.8,11.9,32,15.7,43.8,1.7C388,428.4,372.8,397.7,372.3,396.7z"/>
		<g>
			<path class="st3" d="M364.9,375l-3.6-28.4c-0.3-0.1-0.7-0.2-1-0.2l3.4,28.7L364.9,375z"/>
			<path class="st3" d="M274.6,372.7h-3.4h-2c-7.7,19.8-11.9,31.2-12.9,34.8c0,0.2-0.1,0.4-0.2,1.1c-0.4,1.8-1.3,5.6-1.8,10
				c-0.5,5.3-0.5,13.2,1.3,17.8c2.4,6.4,5.6,12.6,11.9,14.4c14.2,4.2,32.8,1,39.2-11.7c3.2-6.4,4.6-15.6,4.8-17.5
				c-3.8-1.5-7.8-2.7-11.6-3.8C282,412.4,266.5,407.8,274.6,372.7z"/>
			<path class="st3" d="M319.5,418.6c-1.9,0-3.5,1.5-3.5,3.5s1.5,3.5,3.5,3.5c1.9,0,3.5-1.5,3.5-3.5S321.4,418.6,319.5,418.6z"/>
			<path class="st3" d="M274.9,346.8c-0.2,0.1-0.3,0.1-0.5,0.2c-0.2,0.1-0.4,0.1-0.6,0.2l-4.4,24.5h1.3L274.9,346.8z"/>
			<path class="st3" d="M274.8,371.7l4.3-26.5c-0.3,0.1-0.6,0.2-0.9,0.3l-4.5,26.2L274.8,371.7z"/>
			<path class="st3" d="M272.7,371.7l4.4-25.7c-0.4,0.1-0.7,0.3-1.1,0.4l-4.3,25.3H272.7z"/>
			<path class="st3" d="M362.7,375l-3.4-28.9c-0.2-0.1-0.5-0.1-0.7-0.2l3.1,29.1L362.7,375z"/>
			<polygon class="st3" points="360.6,375 357.5,345.7 356.6,345.5 359.2,375 			"/>
			<path class="st3" d="M361.1,376C361.1,376,361.1,376,361.1,376l-1.8,0c0,0.2,0,0.4,0,0.6c2.1,34.3-11,38.3-24.9,42.6
				c-2.3,0.7-4.7,1.4-7,2.3c0,2.1,0.3,13.7,5.2,19.1c4.5,6.1,13.1,10.2,22,10.5c8.6,0.3,16-2.8,21-8.8c11.5-13.6-2.7-43.2-3.7-45.3
				c0,0,0,0,0-0.1c0,0,0,0,0,0c0,0,0,0,0,0c0,0,0-0.1,0-0.2h0c-0.9-4.3-2.9-10.7-6.7-20.8L361.1,376C361.1,376,361.1,376,361.1,376z
				"/>
		</g>
		<g>
			<path class="st3" d="M274.9,346.8c-0.2,0.1-0.3,0.1-0.5,0.2c-0.2,0.1-0.4,0.1-0.6,0.2l-4.4,24.5h1.3L274.9,346.8z"/>
			<path class="st3" d="M274.6,372.7h-3.4h-2c-7.7,19.8-11.9,31.2-12.9,34.8c0,0.2-0.1,0.4-0.2,1.1c-0.4,1.8-1.3,5.6-1.8,10
				c-0.5,5.3-0.5,13.2,1.3,17.8c2.4,6.4,5.6,12.6,11.9,14.4c14.2,4.2,32.8,1,39.2-11.7c3.2-6.4,4.6-15.6,4.8-17.5
				c-3.8-1.5-7.8-2.7-11.6-3.8C282,412.4,266.5,407.8,274.6,372.7z"/>
			<path class="st3" d="M272.8,347.6l-0.4,2.7L272.8,347.6C272.8,347.6,272.8,347.6,272.8,347.6z"/>
			<path class="st3" d="M272.7,371.7l4.4-25.7c-0.4,0.1-0.7,0.3-1.1,0.4l-4.3,25.3H272.7z"/>
			<path class="st3" d="M319.5,418.6c-1.9,0-3.5,1.5-3.5,3.5s1.5,3.5,3.5,3.5c1.9,0,3.5-1.5,3.5-3.5S321.4,418.6,319.5,418.6z"/>
			<path class="st3" d="M274.8,371.7l4.3-26.5c-0.3,0.1-0.6,0.2-0.9,0.3l-4.5,26.2L274.8,371.7z"/>
			<polygon class="st3" points="360.6,375 357.5,345.7 356.6,345.5 359.2,375 			"/>
			<path class="st3" d="M371.9,397.1C371.9,397,371.9,397,371.9,397.1C371.9,397,371.8,397,371.9,397.1c-0.1-0.1-0.1-0.1-0.1-0.1
				c0,0,0-0.1,0-0.2h0c-0.9-4.3-2.9-10.7-6.7-20.8l-4,0c0,0,0,0,0,0c0,0,0,0,0,0l-1.8,0c0,0.2,0,0.4,0,0.6
				c2.1,34.3-11,38.3-24.9,42.6c-2.3,0.7-4.7,1.4-7,2.3c0,2.1,0.3,13.7,5.2,19.1c4.5,6.1,13.1,10.2,22,10.5c8.6,0.3,16-2.8,21-8.8
				C387.1,428.7,372.9,399.1,371.9,397.1z"/>
			<path class="st3" d="M364.9,375l-3.6-28.4c-0.3-0.1-0.7-0.2-1-0.2l3.4,28.7L364.9,375z"/>
			<path class="st3" d="M362.7,375l-3.4-28.9c-0.2-0.1-0.5-0.1-0.7-0.2l3.1,29.1L362.7,375z"/>
		</g>
		<g>
			<path class="st3" d="M274.6,372.7h-3.4h-2c-7.7,19.8-11.9,31.2-12.9,34.8c0,0.2-0.1,0.4-0.2,1.1c-0.4,1.8-1.3,5.6-1.8,10
				c-0.5,5.3-0.5,13.2,1.3,17.8c2.4,6.4,5.6,12.6,11.9,14.4c14.2,4.2,32.8,1,39.2-11.7c3.2-6.4,4.6-15.6,4.8-17.5
				c-3.8-1.5-7.8-2.7-11.6-3.8C282,412.4,266.5,407.8,274.6,372.7z"/>
			<path class="st3" d="M272.7,371.7l4.4-25.7c-0.4,0.1-0.7,0.3-1.1,0.4l-4.3,25.3H272.7z"/>
			<path class="st3" d="M274.8,371.7l4.3-26.5c-0.3,0.1-0.6,0.2-0.9,0.3l-4.5,26.2L274.8,371.7z"/>
			<path class="st3" d="M319.5,418.6c-1.9,0-3.5,1.5-3.5,3.5s1.5,3.5,3.5,3.5c1.9,0,3.5-1.5,3.5-3.5S321.4,418.6,319.5,418.6z"/>
			<path class="st3" d="M279.8,347.2l0.4-2.4c0,0,0,0,0,0L279.8,347.2z"/>
			<path class="st3" d="M274.9,346.8c-0.2,0.1-0.3,0.1-0.5,0.2c-0.2,0.1-0.4,0.1-0.6,0.2l-4.4,24.5h1.3L274.9,346.8z"/>
			<path class="st3" d="M371.9,397.1C371.9,397,371.9,397,371.9,397.1C371.9,397,371.8,397,371.9,397.1c-0.1-0.1-0.1-0.1-0.1-0.1
				c0,0,0-0.1,0-0.2h0c-0.9-4.3-2.9-10.7-6.7-20.8l-4,0c0,0,0,0,0,0c0,0,0,0,0,0l-1.8,0c0,0.2,0,0.4,0,0.6
				c2.1,34.3-11,38.3-24.9,42.6c-2.3,0.7-4.7,1.4-7,2.3c0,2.1,0.3,13.7,5.2,19.1c4.5,6.1,13.1,10.2,22,10.5c8.6,0.3,16-2.8,21-8.8
				C387.1,428.7,372.9,399.1,371.9,397.1z"/>
			<path class="st3" d="M362.7,375l-3.4-28.9c-0.2-0.1-0.5-0.1-0.7-0.2l3.1,29.1L362.7,375z"/>
			<path class="st3" d="M364.9,375l-3.6-28.4c-0.3-0.1-0.7-0.2-1-0.2l3.4,28.7L364.9,375z"/>
			<polygon class="st3" points="360.6,375 357.5,345.7 356.6,345.5 359.2,375 			"/>
		</g>
		<g>
			<path class="st3" d="M274.9,346.8c-0.2,0.1-0.3,0.1-0.5,0.2c-0.2,0.1-0.4,0.1-0.6,0.2l-4.4,24.5h1.3L274.9,346.8z"/>
			<path class="st3" d="M272.7,371.7l4.4-25.7c-0.4,0.1-0.7,0.3-1.1,0.4l-4.3,25.3H272.7z"/>
			<path class="st3" d="M355.6,345.2l0.2,2.2L355.6,345.2C355.6,345.2,355.6,345.2,355.6,345.2z"/>
			<path class="st3" d="M274.6,372.7h-3.4h-2c-7.7,19.8-11.9,31.2-12.9,34.8c0,0.2-0.1,0.4-0.2,1.1c-0.4,1.8-1.3,5.6-1.8,10
				c-0.5,5.3-0.5,13.2,1.3,17.8c2.4,6.4,5.6,12.6,11.9,14.4c14.2,4.2,32.8,1,39.2-11.7c3.2-6.4,4.6-15.6,4.8-17.5
				c-3.8-1.5-7.8-2.7-11.6-3.8C282,412.4,266.5,407.8,274.6,372.7z"/>
			<path class="st3" d="M274.8,371.7l4.3-26.5c-0.3,0.1-0.6,0.2-0.9,0.3l-4.5,26.2L274.8,371.7z"/>
			<path class="st3" d="M319.5,418.6c-1.9,0-3.5,1.5-3.5,3.5s1.5,3.5,3.5,3.5c1.9,0,3.5-1.5,3.5-3.5S321.4,418.6,319.5,418.6z"/>
			<polygon class="st3" points="360.6,375 357.5,345.7 356.6,345.5 359.2,375 			"/>
			<path class="st3" d="M371.9,397.1C371.9,397,371.9,397,371.9,397.1C371.9,397,371.8,397,371.9,397.1c-0.1-0.1-0.1-0.1-0.1-0.1
				c0,0,0-0.1,0-0.2h0c-0.9-4.3-2.9-10.7-6.7-20.8l-4,0c0,0,0,0,0,0c0,0,0,0,0,0l-1.8,0c0,0.2,0,0.4,0,0.6
				c2.1,34.3-11,38.3-24.9,42.6c-2.3,0.7-4.7,1.4-7,2.3c0,2.1,0.3,13.7,5.2,19.1c4.5,6.1,13.1,10.2,22,10.5c8.6,0.3,16-2.8,21-8.8
				C387.1,428.7,372.9,399.1,371.9,397.1z"/>
			<path class="st3" d="M364.9,375l-3.6-28.4c-0.3-0.1-0.7-0.2-1-0.2l3.4,28.7L364.9,375z"/>
			<path class="st3" d="M362.7,375l-3.4-28.9c-0.2-0.1-0.5-0.1-0.7-0.2l3.1,29.1L362.7,375z"/>
			<path d="M379.3,414.6c-2.2-9.1-6-17-6.6-18.1c-0.9-4.4-3-10.9-6.8-21.1l-3.4-26.8l-0.4-2.9c-0.1,0-0.2,0-0.3-0.1c0,0,0,0,0,0
				c0,0-0.1,0-0.1,0c-1.8-0.4-3.4-0.8-5-1.2c-0.5-0.1-0.9-0.2-1.3-0.3l0.1,1c0,0,0,0,0,0l0.2,2.2l0,0l0,0l2.5,28.1c0,0,0,0,0,0
				c0,0,0,0,0,0c0,0.4,0.1,0.8,0.1,1.1c2,33.5-10.1,37.2-24.2,41.6c-2.4,0.7-4.9,1.5-7.3,2.4h-3.1c-0.6-1.8-2.2-3.1-4.2-3.1
				c-2,0-3.7,1.3-4.2,3.2h-3.1c-4-1.6-8-2.8-11.9-4c-17.6-5.2-32.7-9.7-24.5-44.4c0,0,0,0,0,0c0,0,0,0,0,0l4.1-25.1l0,0l0,0l0.4-2.4
				c0,0,0,0,0,0l0.2-1.2c-0.3,0.1-0.5,0.2-0.8,0.3c0,0,0,0,0,0c-0.6,0.2-1.3,0.5-1.9,0.8c0,0,0,0,0,0c-0.7,0.3-1.4,0.6-2.2,0.8
				c0,0,0,0,0,0l-2.1,0.8c0,0,0,0,0,0c-0.1,0-0.2,0.1-0.3,0.1l-0.2,1.1c0,0,0,0,0,0l-0.5,2.7l0,0l0,0l-3.9,21.7
				c-7.8,20.1-12.1,31.6-13,35.2c0,0,0,0.1,0,0.1c0,0,0,0.1,0,0.1l-0.3,0.2c0.1,0.1,0.1,0.1,0.2,0.2c0,0.2-0.1,0.3-0.1,0.5
				c-0.4,1.8-1.4,5.7-1.8,10.1c-0.6,5.7-0.5,13.5,1.3,18.2c2.5,6.6,5.8,13,12.5,15c3.9,1.2,8.2,1.8,12.5,1.8c11.5,0,23-4.4,27.9-14
				c3.3-6.5,4.6-15.7,4.9-17.8h2.6c0,0.1,0,0.2,0,0.3c0,2.5,2,4.5,4.5,4.5c2.5,0,4.5-2,4.5-4.5c0-0.1,0-0.2,0-0.3h2.5
				c0,2.6,0.3,14,5.4,19.6c4.7,6.4,13.4,10.6,22.7,10.9c0.4,0,0.7,0,1.1,0c8.4,0,15.7-3.2,20.7-9.1
				C381.4,437,382.4,427.2,379.3,414.6z M278.2,345.5c0.3-0.1,0.6-0.2,0.9-0.3l-4.3,26.5l-1,0L278.2,345.5z M276,346.4
				c0.4-0.1,0.7-0.3,1.1-0.4l-4.4,25.7h-1L276,346.4z M273.9,347.2c0.2-0.1,0.4-0.1,0.6-0.2c0.2-0.1,0.3-0.1,0.5-0.2l-4.2,24.9h-1.3
				L273.9,347.2z M306.7,439.1c-6.4,12.7-25,15.9-39.2,11.7c-6.3-1.9-9.4-8-11.9-14.4c-1.8-4.6-1.8-12.4-1.3-17.8
				c0.4-4.3,1.3-8.1,1.8-10c0.2-0.7,0.2-1,0.2-1.1c0.9-3.6,5.1-15,12.9-34.8h2h3.4c-8.1,35.1,7.4,39.7,25.4,45
				c3.8,1.1,7.8,2.3,11.6,3.8C311.3,423.5,309.9,432.7,306.7,439.1z M319.5,425.5c-1.9,0-3.5-1.5-3.5-3.5s1.5-3.5,3.5-3.5
				c1.9,0,3.5,1.5,3.5,3.5S321.4,425.5,319.5,425.5z M361.3,346.6l3.6,28.4l-1.2,0l-3.4-28.7C360.6,346.4,361,346.5,361.3,346.6z
				 M359.2,346.1l3.4,28.9l-1.1,0l-3.1-29.1C358.8,346,359,346,359.2,346.1z M356.6,345.5l0.9,0.2l3.1,29.3l-1.3,0L356.6,345.5z
				 M375.6,442.3c-5,5.9-12.5,9-21,8.8c-8.9-0.3-17.5-4.4-22-10.5c-4.9-5.4-5.1-17-5.2-19.1c2.3-0.9,4.7-1.6,7-2.3
				c13.9-4.3,27-8.3,24.9-42.6c0-0.2,0-0.4,0-0.6l1.8,0c0,0,0,0,0,0c0,0,0,0,0,0l4,0c3.7,10,5.8,16.5,6.7,20.8h0c0,0.1,0,0.1,0,0.2
				c0,0,0,0,0,0c0,0,0,0,0,0c0,0,0,0,0,0.1C372.9,399.1,387.1,428.7,375.6,442.3z"/>
		</g>
	</g>
</g>
</svg>
